<svg width="30" height="26" viewBox="0 0 30 26" fill="none" xmlns="http://www.w3.org/2000/svg">
<path d="M2.53247 12.093H28.692C29.0389 12.093 29.3716 12.2204 29.6169 12.4472C29.8622 12.674 30 12.9816 30 13.3023C30 13.623 29.8622 13.9306 29.6169 14.1574C29.3716 14.3842 29.0389 14.5116 28.692 14.5116H2.53247C2.18557 14.5116 1.85288 14.3842 1.60759 14.1574C1.36229 13.9306 1.22449 13.623 1.22449 13.3023C1.22449 12.9816 1.36229 12.674 1.60759 12.4472C1.85288 12.2204 2.18557 12.093 2.53247 12.093Z" fill="#999999"/>
<path d="M3.09171 13L13.7063 23.7782C13.9466 24.0223 14.0816 24.3534 14.0816 24.6985C14.0816 25.0437 13.9466 25.3747 13.7063 25.6188C13.466 25.8629 13.1401 26 12.8002 26C12.4604 26 12.1344 25.8629 11.8941 25.6188L0.375987 13.9203C0.256805 13.7995 0.162246 13.6561 0.0977284 13.4982C0.0332103 13.3403 0 13.171 0 13C0 12.829 0.0332103 12.6597 0.0977284 12.5018C0.162246 12.3439 0.256805 12.2005 0.375987 12.0797L11.8941 0.381194C12.1344 0.137119 12.4604 0 12.8002 0C13.1401 0 13.466 0.137119 13.7063 0.381194C13.9466 0.625268 14.0816 0.956304 14.0816 1.30148C14.0816 1.64665 13.9466 1.97769 13.7063 2.22176L3.09171 13Z" fill="#999999"/>
</svg>
