<svg width="86" height="77" viewBox="0 0 86 77" fill="none" xmlns="http://www.w3.org/2000/svg">
<g clip-path="url(#clip0_238_2409)">
<mask id="mask0_238_2409" style="mask-type:alpha" maskUnits="userSpaceOnUse" x="26" y="17" width="35" height="35">
<rect x="26" y="17" width="35" height="35" fill="#D9D9D9"/>
</mask>
<g mask="url(#mask0_238_2409)">
<path d="M44 46.4981L34.2123 41.1814V33.0154L29 30.166L44 22L59 30.166V40.9961H56.7414V31.417L53.7877 33.0154V41.1814L44 46.4981ZM44 35.7375L54.3003 30.166L44 24.5945L33.6998 30.166L44 35.7375ZM44 43.9267L51.529 39.861V34.22L44 38.3293L36.471 34.22V39.861L44 43.9267Z" fill="white"/>
</g>
<path d="M27.2405 52.648V53.976C26.7712 53.7307 26.3498 53.5547 25.9765 53.448C25.6032 53.3413 25.1125 53.288 24.5045 53.288C23.3418 53.288 22.3712 53.6827 21.5925 54.472C20.8245 55.2613 20.4405 56.2907 20.4405 57.56C20.4405 58.8827 20.8245 59.9387 21.5925 60.728C22.3605 61.5173 23.3792 61.912 24.6485 61.912C25.6725 61.912 26.5472 61.64 27.2725 61.096V62.456C26.6112 62.904 25.7045 63.128 24.5525 63.128C22.9312 63.128 21.6138 62.632 20.6005 61.64C19.5872 60.6373 19.0805 59.2773 19.0805 57.56C19.0805 55.9387 19.5925 54.6213 20.6165 53.608C21.6512 52.584 22.9472 52.072 24.5045 52.072C25.6245 52.072 26.5365 52.264 27.2405 52.648ZM29.1695 63V51.688H30.4335V63H29.1695ZM37.2079 59.256H35.7999C35.1172 59.256 34.6052 59.3893 34.2639 59.656C33.9225 59.9227 33.7519 60.2587 33.7519 60.664C33.7519 61.0693 33.8852 61.4 34.1519 61.656C34.4185 61.9013 34.8079 62.024 35.3199 62.024C35.8959 62.024 36.3545 61.864 36.6959 61.544C37.0372 61.2133 37.2079 60.7973 37.2079 60.296V59.256ZM33.0159 56.584V55.32C33.6239 54.9467 34.4239 54.76 35.4159 54.76C37.4532 54.76 38.4719 55.7947 38.4719 57.864V63H37.2239V62.04C36.8079 62.7333 36.0505 63.08 34.9519 63.08C34.1945 63.08 33.5812 62.856 33.1119 62.408C32.6532 61.96 32.4239 61.3947 32.4239 60.712C32.4239 59.9333 32.7172 59.3307 33.3039 58.904C33.9012 58.4667 34.7119 58.248 35.7359 58.248H37.2079V57.832C37.2079 57.192 37.0639 56.712 36.7759 56.392C36.4879 56.0613 36.0025 55.896 35.3199 55.896C34.4559 55.896 33.6879 56.1253 33.0159 56.584ZM45.1309 55.16V56.36C44.6402 56.0613 43.9682 55.912 43.1149 55.912C42.6882 55.912 42.3469 56.0133 42.0909 56.216C41.8455 56.408 41.7229 56.6587 41.7229 56.968C41.7229 57.16 41.7602 57.3307 41.8349 57.48C41.9095 57.6187 42.0535 57.7573 42.2669 57.896C42.4909 58.0347 42.6509 58.1307 42.7469 58.184C42.8535 58.2267 43.0775 58.3227 43.4189 58.472C44.1015 58.7493 44.6349 59.064 45.0189 59.416C45.4029 59.768 45.5949 60.2427 45.5949 60.84C45.5949 61.5333 45.3495 62.0827 44.8589 62.488C44.3789 62.8933 43.7175 63.096 42.8749 63.096C41.8935 63.096 41.0989 62.9307 40.4909 62.6V61.368C41.2055 61.7947 41.9735 62.008 42.7949 62.008C43.2855 62.008 43.6589 61.912 43.9149 61.72C44.1709 61.528 44.2989 61.2667 44.2989 60.936C44.2989 60.552 44.1549 60.2533 43.8669 60.04C43.5895 59.8267 43.1202 59.5867 42.4589 59.32C41.8509 59.0853 41.3602 58.792 40.9869 58.44C40.6242 58.088 40.4429 57.6133 40.4429 57.016C40.4429 56.344 40.6935 55.8107 41.1949 55.416C41.7069 55.0107 42.3415 54.808 43.0989 54.808C43.9415 54.808 44.6189 54.9253 45.1309 55.16ZM51.7246 55.16V56.36C51.234 56.0613 50.562 55.912 49.7086 55.912C49.282 55.912 48.9406 56.0133 48.6846 56.216C48.4393 56.408 48.3166 56.6587 48.3166 56.968C48.3166 57.16 48.354 57.3307 48.4286 57.48C48.5033 57.6187 48.6473 57.7573 48.8606 57.896C49.0846 58.0347 49.2446 58.1307 49.3406 58.184C49.4473 58.2267 49.6713 58.3227 50.0126 58.472C50.6953 58.7493 51.2286 59.064 51.6126 59.416C51.9966 59.768 52.1886 60.2427 52.1886 60.84C52.1886 61.5333 51.9433 62.0827 51.4526 62.488C50.9726 62.8933 50.3113 63.096 49.4686 63.096C48.4873 63.096 47.6926 62.9307 47.0846 62.6V61.368C47.7993 61.7947 48.5673 62.008 49.3886 62.008C49.8793 62.008 50.2526 61.912 50.5086 61.72C50.7646 61.528 50.8926 61.2667 50.8926 60.936C50.8926 60.552 50.7486 60.2533 50.4606 60.04C50.1833 59.8267 49.714 59.5867 49.0526 59.32C48.4446 59.0853 47.954 58.792 47.5806 58.44C47.218 58.088 47.0366 57.6133 47.0366 57.016C47.0366 56.344 47.2873 55.8107 47.7886 55.416C48.3006 55.0107 48.9353 54.808 49.6926 54.808C50.5353 54.808 51.2126 54.9253 51.7246 55.16ZM59.0704 58.424V58.104C59.0704 57.432 58.889 56.8987 58.5264 56.504C58.1637 56.0987 57.6624 55.896 57.0224 55.896C56.4144 55.896 55.897 56.1147 55.4704 56.552C55.0437 56.9893 54.793 57.6133 54.7184 58.424H59.0704ZM59.8224 61.4V62.584C59.193 62.9147 58.425 63.08 57.5184 63.08C56.2917 63.08 55.2997 62.7067 54.5424 61.96C53.7957 61.2027 53.4224 60.2053 53.4224 58.968C53.4224 57.6773 53.7584 56.6587 54.4304 55.912C55.1024 55.1653 55.9664 54.792 57.0224 54.792C58.0357 54.792 58.841 55.1173 59.4384 55.768C60.0357 56.4187 60.3344 57.3413 60.3344 58.536C60.3344 58.8773 60.3077 59.192 60.2544 59.48H54.7184C54.8144 60.28 55.1184 60.8933 55.6304 61.32C56.1424 61.7467 56.8144 61.96 57.6464 61.96C58.553 61.96 59.2784 61.7733 59.8224 61.4ZM66.6778 55.16V56.36C66.1871 56.0613 65.5151 55.912 64.6618 55.912C64.2351 55.912 63.8938 56.0133 63.6378 56.216C63.3924 56.408 63.2698 56.6587 63.2698 56.968C63.2698 57.16 63.3071 57.3307 63.3818 57.48C63.4564 57.6187 63.6004 57.7573 63.8138 57.896C64.0378 58.0347 64.1978 58.1307 64.2938 58.184C64.4004 58.2267 64.6244 58.3227 64.9658 58.472C65.6484 58.7493 66.1818 59.064 66.5658 59.416C66.9498 59.768 67.1418 60.2427 67.1418 60.84C67.1418 61.5333 66.8964 62.0827 66.4058 62.488C65.9258 62.8933 65.2644 63.096 64.4218 63.096C63.4404 63.096 62.6458 62.9307 62.0378 62.6V61.368C62.7524 61.7947 63.5204 62.008 64.3418 62.008C64.8324 62.008 65.2058 61.912 65.4618 61.72C65.7178 61.528 65.8458 61.2667 65.8458 60.936C65.8458 60.552 65.7018 60.2533 65.4138 60.04C65.1364 59.8267 64.6671 59.5867 64.0058 59.32C63.3978 59.0853 62.9071 58.792 62.5338 58.44C62.1711 58.088 61.9898 57.6133 61.9898 57.016C61.9898 56.344 62.2404 55.8107 62.7418 55.416C63.2538 55.0107 63.8884 54.808 64.6458 54.808C65.4884 54.808 66.1658 54.9253 66.6778 55.16Z" fill="white"/>
</g>
<defs>
<clipPath id="clip0_238_2409">
<rect width="86" height="77" fill="white"/>
</clipPath>
</defs>
</svg>
