<svg width="86" height="86" viewBox="0 0 86 86" fill="none" xmlns="http://www.w3.org/2000/svg">
<mask id="path-1-inside-1_1623_22560" fill="white">
<path d="M0 5H86V82H0V5Z"/>
</mask>
<path d="M0 11H86V-1H0V11Z" fill="#292929" mask="url(#path-1-inside-1_1623_22560)"/>
<mask id="mask0_1623_22560" style="mask-type:alpha" maskUnits="userSpaceOnUse" x="26" y="22" width="35" height="35">
<rect x="26" y="22" width="35" height="35" fill="#D9D9D9"/>
</mask>
<g mask="url(#mask0_1623_22560)">
<path d="M55.8397 45.6137V36.3365L43.5001 43.0336L28.9729 35.125L43.5001 27.2164L58.0272 35.125V45.6137H55.8397ZM43.5001 50.9422L34.0209 45.7932V39.1747L43.5001 44.3237L52.9792 39.1747V45.7932L43.5001 50.9422Z" fill="#292929"/>
</g>
<path d="M27.2405 57.648V58.976C26.7712 58.7307 26.3498 58.5547 25.9765 58.448C25.6032 58.3413 25.1125 58.288 24.5045 58.288C23.3418 58.288 22.3712 58.6827 21.5925 59.472C20.8245 60.2613 20.4405 61.2907 20.4405 62.56C20.4405 63.8827 20.8245 64.9387 21.5925 65.728C22.3605 66.5173 23.3792 66.912 24.6485 66.912C25.6725 66.912 26.5472 66.64 27.2725 66.096V67.456C26.6112 67.904 25.7045 68.128 24.5525 68.128C22.9312 68.128 21.6138 67.632 20.6005 66.64C19.5872 65.6373 19.0805 64.2773 19.0805 62.56C19.0805 60.9387 19.5925 59.6213 20.6165 58.608C21.6512 57.584 22.9472 57.072 24.5045 57.072C25.6245 57.072 26.5365 57.264 27.2405 57.648ZM29.1695 68V56.688H30.4335V68H29.1695ZM37.2079 64.256H35.7999C35.1172 64.256 34.6052 64.3893 34.2639 64.656C33.9225 64.9227 33.7519 65.2587 33.7519 65.664C33.7519 66.0693 33.8852 66.4 34.1519 66.656C34.4185 66.9013 34.8079 67.024 35.3199 67.024C35.8959 67.024 36.3545 66.864 36.6959 66.544C37.0372 66.2133 37.2079 65.7973 37.2079 65.296V64.256ZM33.0159 61.584V60.32C33.6239 59.9467 34.4239 59.76 35.4159 59.76C37.4532 59.76 38.4719 60.7947 38.4719 62.864V68H37.2239V67.04C36.8079 67.7333 36.0505 68.08 34.9519 68.08C34.1945 68.08 33.5812 67.856 33.1119 67.408C32.6532 66.96 32.4239 66.3947 32.4239 65.712C32.4239 64.9333 32.7172 64.3307 33.3039 63.904C33.9012 63.4667 34.7119 63.248 35.7359 63.248H37.2079V62.832C37.2079 62.192 37.0639 61.712 36.7759 61.392C36.4879 61.0613 36.0025 60.896 35.3199 60.896C34.4559 60.896 33.6879 61.1253 33.0159 61.584ZM45.1309 60.16V61.36C44.6402 61.0613 43.9682 60.912 43.1149 60.912C42.6882 60.912 42.3469 61.0133 42.0909 61.216C41.8455 61.408 41.7229 61.6587 41.7229 61.968C41.7229 62.16 41.7602 62.3307 41.8349 62.48C41.9095 62.6187 42.0535 62.7573 42.2669 62.896C42.4909 63.0347 42.6509 63.1307 42.7469 63.184C42.8535 63.2267 43.0775 63.3227 43.4189 63.472C44.1015 63.7493 44.6349 64.064 45.0189 64.416C45.4029 64.768 45.5949 65.2427 45.5949 65.84C45.5949 66.5333 45.3495 67.0827 44.8589 67.488C44.3789 67.8933 43.7175 68.096 42.8749 68.096C41.8935 68.096 41.0989 67.9307 40.4909 67.6V66.368C41.2055 66.7947 41.9735 67.008 42.7949 67.008C43.2855 67.008 43.6589 66.912 43.9149 66.72C44.1709 66.528 44.2989 66.2667 44.2989 65.936C44.2989 65.552 44.1549 65.2533 43.8669 65.04C43.5895 64.8267 43.1202 64.5867 42.4589 64.32C41.8509 64.0853 41.3602 63.792 40.9869 63.44C40.6242 63.088 40.4429 62.6133 40.4429 62.016C40.4429 61.344 40.6935 60.8107 41.1949 60.416C41.7069 60.0107 42.3415 59.808 43.0989 59.808C43.9415 59.808 44.6189 59.9253 45.1309 60.16ZM51.7246 60.16V61.36C51.234 61.0613 50.562 60.912 49.7086 60.912C49.282 60.912 48.9406 61.0133 48.6846 61.216C48.4393 61.408 48.3166 61.6587 48.3166 61.968C48.3166 62.16 48.354 62.3307 48.4286 62.48C48.5033 62.6187 48.6473 62.7573 48.8606 62.896C49.0846 63.0347 49.2446 63.1307 49.3406 63.184C49.4473 63.2267 49.6713 63.3227 50.0126 63.472C50.6953 63.7493 51.2286 64.064 51.6126 64.416C51.9966 64.768 52.1886 65.2427 52.1886 65.84C52.1886 66.5333 51.9433 67.0827 51.4526 67.488C50.9726 67.8933 50.3113 68.096 49.4686 68.096C48.4873 68.096 47.6926 67.9307 47.0846 67.6V66.368C47.7993 66.7947 48.5673 67.008 49.3886 67.008C49.8793 67.008 50.2526 66.912 50.5086 66.72C50.7646 66.528 50.8926 66.2667 50.8926 65.936C50.8926 65.552 50.7486 65.2533 50.4606 65.04C50.1833 64.8267 49.714 64.5867 49.0526 64.32C48.4446 64.0853 47.954 63.792 47.5806 63.44C47.218 63.088 47.0366 62.6133 47.0366 62.016C47.0366 61.344 47.2873 60.8107 47.7886 60.416C48.3006 60.0107 48.9353 59.808 49.6926 59.808C50.5353 59.808 51.2126 59.9253 51.7246 60.16ZM59.0704 63.424V63.104C59.0704 62.432 58.889 61.8987 58.5264 61.504C58.1637 61.0987 57.6624 60.896 57.0224 60.896C56.4144 60.896 55.897 61.1147 55.4704 61.552C55.0437 61.9893 54.793 62.6133 54.7184 63.424H59.0704ZM59.8224 66.4V67.584C59.193 67.9147 58.425 68.08 57.5184 68.08C56.2917 68.08 55.2997 67.7067 54.5424 66.96C53.7957 66.2027 53.4224 65.2053 53.4224 63.968C53.4224 62.6773 53.7584 61.6587 54.4304 60.912C55.1024 60.1653 55.9664 59.792 57.0224 59.792C58.0357 59.792 58.841 60.1173 59.4384 60.768C60.0357 61.4187 60.3344 62.3413 60.3344 63.536C60.3344 63.8773 60.3077 64.192 60.2544 64.48H54.7184C54.8144 65.28 55.1184 65.8933 55.6304 66.32C56.1424 66.7467 56.8144 66.96 57.6464 66.96C58.553 66.96 59.2784 66.7733 59.8224 66.4ZM66.6778 60.16V61.36C66.1871 61.0613 65.5151 60.912 64.6618 60.912C64.2351 60.912 63.8938 61.0133 63.6378 61.216C63.3924 61.408 63.2698 61.6587 63.2698 61.968C63.2698 62.16 63.3071 62.3307 63.3818 62.48C63.4564 62.6187 63.6004 62.7573 63.8138 62.896C64.0378 63.0347 64.1978 63.1307 64.2938 63.184C64.4004 63.2267 64.6244 63.3227 64.9658 63.472C65.6484 63.7493 66.1818 64.064 66.5658 64.416C66.9498 64.768 67.1418 65.2427 67.1418 65.84C67.1418 66.5333 66.8964 67.0827 66.4058 67.488C65.9258 67.8933 65.2644 68.096 64.4218 68.096C63.4404 68.096 62.6458 67.9307 62.0378 67.6V66.368C62.7524 66.7947 63.5204 67.008 64.3418 67.008C64.8324 67.008 65.2058 66.912 65.4618 66.72C65.7178 66.528 65.8458 66.2667 65.8458 65.936C65.8458 65.552 65.7018 65.2533 65.4138 65.04C65.1364 64.8267 64.6671 64.5867 64.0058 64.32C63.3978 64.0853 62.9071 63.792 62.5338 63.44C62.1711 63.088 61.9898 62.6133 61.9898 62.016C61.9898 61.344 62.2404 60.8107 62.7418 60.416C63.2538 60.0107 63.8884 59.808 64.6458 59.808C65.4884 59.808 66.1658 59.9253 66.6778 60.16Z" fill="#292929"/>
</svg>
