<svg width="86" height="87" viewBox="0 0 86 87" fill="none" xmlns="http://www.w3.org/2000/svg">
<path d="M41.525 35.5C41.1509 35.5 40.8436 35.3587 40.6031 35.076C40.3626 34.7933 40.2744 34.4635 40.3385 34.0866L40.5904 32.5366C40.6981 31.9417 40.9795 31.4536 41.4346 31.0722C41.8897 30.6908 42.4123 30.5001 43.0022 30.5001C43.6058 30.5001 44.1352 30.6908 44.5903 31.0722C45.0455 31.4536 45.3269 31.9417 45.4346 32.5366L45.6865 34.0866C45.7506 34.4635 45.6624 34.7933 45.4219 35.076C45.1814 35.3587 44.8741 35.5 44.5 35.5H41.525ZM41.875 34.0001H44.15L43.95 32.7751C43.9166 32.5417 43.8083 32.3542 43.625 32.2126C43.4416 32.0709 43.2333 32.0001 43 32.0001C42.7666 32.0001 42.5625 32.0709 42.3875 32.2126C42.2125 32.3542 42.1083 32.5417 42.075 32.7751L41.875 34.0001ZM34.4281 36.3308C34.1017 36.3475 33.8191 36.2842 33.5803 36.141C33.3414 35.9977 33.1858 35.7758 33.1135 35.475C33.0801 35.3442 33.0734 35.2151 33.0933 35.0875C33.1132 34.96 33.15 34.8381 33.2039 34.7218C33.2039 34.7364 33.1955 34.7073 33.1789 34.6346C33.1519 34.6013 33.0814 34.4302 32.9673 34.1212C32.9404 33.9468 32.9624 33.7821 33.0333 33.627C33.1041 33.4718 33.1962 33.3379 33.3096 33.2251C33.316 33.2251 33.3295 33.2116 33.35 33.1847C33.3789 32.914 33.491 32.6861 33.6861 32.5009C33.8813 32.3157 34.1199 32.2231 34.4019 32.2231C34.4327 32.2231 34.5686 32.2501 34.8096 32.3039L34.875 32.2885C34.9455 32.2148 35.0372 32.1595 35.15 32.1227C35.2628 32.0858 35.3827 32.0674 35.5096 32.0674C35.6678 32.0674 35.8079 32.0917 35.9301 32.1404C36.0523 32.1892 36.1491 32.2663 36.2204 32.3717C36.2347 32.3717 36.2454 32.3755 36.2525 32.383C36.2596 32.3905 36.2703 32.3943 36.2846 32.3943C36.4795 32.411 36.6528 32.4723 36.8045 32.5785C36.9562 32.6846 37.0681 32.8296 37.1404 33.0135C37.1673 33.1174 37.1782 33.2138 37.173 33.3029C37.1679 33.392 37.1487 33.4802 37.1154 33.5674C37.1154 33.5776 37.1237 33.6077 37.1404 33.6577C37.2442 33.7616 37.323 33.8715 37.3769 33.9875C37.4307 34.1036 37.4577 34.227 37.4577 34.3577C37.4577 34.4052 37.4173 34.5545 37.3365 34.8058C37.3262 34.8263 37.3262 34.8564 37.3365 34.8962C37.3429 34.9154 37.3564 35.0295 37.3769 35.2385C37.3769 35.5383 37.2516 35.7953 37.0011 36.0095C36.7506 36.2237 36.4464 36.3308 36.0884 36.3308H34.4281ZM50.7638 36.3846C50.2943 36.3846 49.891 36.2166 49.5538 35.8806C49.2166 35.5447 49.048 35.1408 49.048 34.6689C49.048 34.4974 49.0729 34.3371 49.1226 34.1882C49.1723 34.0392 49.2398 33.8938 49.325 33.752L48.7242 33.2217C48.5811 33.1085 48.5561 32.9664 48.649 32.7953C48.7419 32.6241 48.8742 32.5385 49.0458 32.5385H50.7614C51.2333 32.5385 51.6362 32.7057 51.9701 33.0402C52.3041 33.3746 52.4711 33.7766 52.4711 34.2462V34.6731C52.4711 35.1398 52.3039 35.5417 51.9696 35.8789C51.6352 36.216 51.2333 36.3846 50.7638 36.3846ZM31.5 40.7884V39.5692C31.5 38.8936 31.8486 38.3445 32.5458 37.9221C33.2429 37.4997 34.1476 37.2885 35.2599 37.2885C35.4635 37.2885 35.659 37.2942 35.8462 37.3058C36.0333 37.3173 36.2122 37.3398 36.3827 37.3731C36.1942 37.668 36.0513 37.9818 35.9538 38.3145C35.8564 38.6473 35.8077 39.0017 35.8077 39.3779V40.7884H31.5ZM37.5 40.7884V39.4135C37.5 38.4583 38.0082 37.6923 39.0247 37.1154C40.0412 36.5385 41.3671 36.25 43.0026 36.25C44.6534 36.25 45.9823 36.5385 46.9894 37.1154C47.9964 37.6923 48.5 38.4583 48.5 39.4135V40.7884H37.5ZM50.75 37.2885C51.875 37.2885 52.7812 37.4997 53.4687 37.9221C54.1562 38.3445 54.5 38.8936 54.5 39.5692V40.7884H50.1923V39.3779C50.1923 39.0017 50.1477 38.6473 50.0586 38.3145C49.9695 37.9818 49.8359 37.668 49.6577 37.3731C49.8282 37.3398 50.005 37.3173 50.1883 37.3058C50.3715 37.2942 50.5588 37.2885 50.75 37.2885ZM42.9988 37.75C41.9598 37.75 41.067 37.8878 40.3202 38.1635C39.5734 38.4391 39.1589 38.7788 39.0769 39.1827V39.2885H46.9385V39.1827C46.8461 38.7788 46.4308 38.4391 45.6923 38.1635C44.9538 37.8878 44.056 37.75 42.9988 37.75Z" fill="white"/>
<path d="M27.2405 51.148V52.476C26.7712 52.2307 26.3498 52.0547 25.9765 51.948C25.6032 51.8413 25.1125 51.788 24.5045 51.788C23.3418 51.788 22.3712 52.1827 21.5925 52.972C20.8245 53.7613 20.4405 54.7907 20.4405 56.06C20.4405 57.3827 20.8245 58.4387 21.5925 59.228C22.3605 60.0173 23.3792 60.412 24.6485 60.412C25.6725 60.412 26.5472 60.14 27.2725 59.596V60.956C26.6112 61.404 25.7045 61.628 24.5525 61.628C22.9312 61.628 21.6138 61.132 20.6005 60.14C19.5872 59.1373 19.0805 57.7773 19.0805 56.06C19.0805 54.4387 19.5925 53.1213 20.6165 52.108C21.6512 51.084 22.9472 50.572 24.5045 50.572C25.6245 50.572 26.5365 50.764 27.2405 51.148ZM29.1695 61.5V50.188H30.4335V61.5H29.1695ZM37.2079 57.756H35.7999C35.1172 57.756 34.6052 57.8893 34.2639 58.156C33.9225 58.4227 33.7519 58.7587 33.7519 59.164C33.7519 59.5693 33.8852 59.9 34.1519 60.156C34.4185 60.4013 34.8079 60.524 35.3199 60.524C35.8959 60.524 36.3545 60.364 36.6959 60.044C37.0372 59.7133 37.2079 59.2973 37.2079 58.796V57.756ZM33.0159 55.084V53.82C33.6239 53.4467 34.4239 53.26 35.4159 53.26C37.4532 53.26 38.4719 54.2947 38.4719 56.364V61.5H37.2239V60.54C36.8079 61.2333 36.0505 61.58 34.9519 61.58C34.1945 61.58 33.5812 61.356 33.1119 60.908C32.6532 60.46 32.4239 59.8947 32.4239 59.212C32.4239 58.4333 32.7172 57.8307 33.3039 57.404C33.9012 56.9667 34.7119 56.748 35.7359 56.748H37.2079V56.332C37.2079 55.692 37.0639 55.212 36.7759 54.892C36.4879 54.5613 36.0025 54.396 35.3199 54.396C34.4559 54.396 33.6879 54.6253 33.0159 55.084ZM45.1309 53.66V54.86C44.6402 54.5613 43.9682 54.412 43.1149 54.412C42.6882 54.412 42.3469 54.5133 42.0909 54.716C41.8455 54.908 41.7229 55.1587 41.7229 55.468C41.7229 55.66 41.7602 55.8307 41.8349 55.98C41.9095 56.1187 42.0535 56.2573 42.2669 56.396C42.4909 56.5347 42.6509 56.6307 42.7469 56.684C42.8535 56.7267 43.0775 56.8227 43.4189 56.972C44.1015 57.2493 44.6349 57.564 45.0189 57.916C45.4029 58.268 45.5949 58.7427 45.5949 59.34C45.5949 60.0333 45.3495 60.5827 44.8589 60.988C44.3789 61.3933 43.7175 61.596 42.8749 61.596C41.8935 61.596 41.0989 61.4307 40.4909 61.1V59.868C41.2055 60.2947 41.9735 60.508 42.7949 60.508C43.2855 60.508 43.6589 60.412 43.9149 60.22C44.1709 60.028 44.2989 59.7667 44.2989 59.436C44.2989 59.052 44.1549 58.7533 43.8669 58.54C43.5895 58.3267 43.1202 58.0867 42.4589 57.82C41.8509 57.5853 41.3602 57.292 40.9869 56.94C40.6242 56.588 40.4429 56.1133 40.4429 55.516C40.4429 54.844 40.6935 54.3107 41.1949 53.916C41.7069 53.5107 42.3415 53.308 43.0989 53.308C43.9415 53.308 44.6189 53.4253 45.1309 53.66ZM51.7246 53.66V54.86C51.234 54.5613 50.562 54.412 49.7086 54.412C49.282 54.412 48.9406 54.5133 48.6846 54.716C48.4393 54.908 48.3166 55.1587 48.3166 55.468C48.3166 55.66 48.354 55.8307 48.4286 55.98C48.5033 56.1187 48.6473 56.2573 48.8606 56.396C49.0846 56.5347 49.2446 56.6307 49.3406 56.684C49.4473 56.7267 49.6713 56.8227 50.0126 56.972C50.6953 57.2493 51.2286 57.564 51.6126 57.916C51.9966 58.268 52.1886 58.7427 52.1886 59.34C52.1886 60.0333 51.9433 60.5827 51.4526 60.988C50.9726 61.3933 50.3113 61.596 49.4686 61.596C48.4873 61.596 47.6926 61.4307 47.0846 61.1V59.868C47.7993 60.2947 48.5673 60.508 49.3886 60.508C49.8793 60.508 50.2526 60.412 50.5086 60.22C50.7646 60.028 50.8926 59.7667 50.8926 59.436C50.8926 59.052 50.7486 58.7533 50.4606 58.54C50.1833 58.3267 49.714 58.0867 49.0526 57.82C48.4446 57.5853 47.954 57.292 47.5806 56.94C47.218 56.588 47.0366 56.1133 47.0366 55.516C47.0366 54.844 47.2873 54.3107 47.7886 53.916C48.3006 53.5107 48.9353 53.308 49.6926 53.308C50.5353 53.308 51.2126 53.4253 51.7246 53.66ZM59.0704 56.924V56.604C59.0704 55.932 58.889 55.3987 58.5264 55.004C58.1637 54.5987 57.6624 54.396 57.0224 54.396C56.4144 54.396 55.897 54.6147 55.4704 55.052C55.0437 55.4893 54.793 56.1133 54.7184 56.924H59.0704ZM59.8224 59.9V61.084C59.193 61.4147 58.425 61.58 57.5184 61.58C56.2917 61.58 55.2997 61.2067 54.5424 60.46C53.7957 59.7027 53.4224 58.7053 53.4224 57.468C53.4224 56.1773 53.7584 55.1587 54.4304 54.412C55.1024 53.6653 55.9664 53.292 57.0224 53.292C58.0357 53.292 58.841 53.6173 59.4384 54.268C60.0357 54.9187 60.3344 55.8413 60.3344 57.036C60.3344 57.3773 60.3077 57.692 60.2544 57.98H54.7184C54.8144 58.78 55.1184 59.3933 55.6304 59.82C56.1424 60.2467 56.8144 60.46 57.6464 60.46C58.553 60.46 59.2784 60.2733 59.8224 59.9ZM66.6778 53.66V54.86C66.1871 54.5613 65.5151 54.412 64.6618 54.412C64.2351 54.412 63.8938 54.5133 63.6378 54.716C63.3924 54.908 63.2698 55.1587 63.2698 55.468C63.2698 55.66 63.3071 55.8307 63.3818 55.98C63.4564 56.1187 63.6004 56.2573 63.8138 56.396C64.0378 56.5347 64.1978 56.6307 64.2938 56.684C64.4004 56.7267 64.6244 56.8227 64.9658 56.972C65.6484 57.2493 66.1818 57.564 66.5658 57.916C66.9498 58.268 67.1418 58.7427 67.1418 59.34C67.1418 60.0333 66.8964 60.5827 66.4058 60.988C65.9258 61.3933 65.2644 61.596 64.4218 61.596C63.4404 61.596 62.6458 61.4307 62.0378 61.1V59.868C62.7524 60.2947 63.5204 60.508 64.3418 60.508C64.8324 60.508 65.2058 60.412 65.4618 60.22C65.7178 60.028 65.8458 59.7667 65.8458 59.436C65.8458 59.052 65.7018 58.7533 65.4138 58.54C65.1364 58.3267 64.6671 58.0867 64.0058 57.82C63.3978 57.5853 62.9071 57.292 62.5338 56.94C62.1711 56.588 61.9898 56.1133 61.9898 55.516C61.9898 54.844 62.2404 54.3107 62.7418 53.916C63.2538 53.5107 63.8884 53.308 64.6458 53.308C65.4884 53.308 66.1658 53.4253 66.6778 53.66Z" fill="white"/>
</svg>
