<svg width="86" height="77" viewBox="0 0 86 77" fill="none" xmlns="http://www.w3.org/2000/svg">
<mask id="path-1-inside-1_1623_10523" fill="white">
<path d="M0 0H86V77H0V0Z"/>
</mask>
<path d="M0 6H86V-6H0V6Z" fill="#292929" mask="url(#path-1-inside-1_1623_10523)"/>
<mask id="mask0_1623_10523" style="mask-type:alpha" maskUnits="userSpaceOnUse" x="25" y="17" width="36" height="35">
<rect x="25.5" y="17" width="35" height="35" fill="#D9D9D9"/>
</mask>
<g mask="url(#mask0_1623_10523)">
<path d="M32.0625 46.8958V30.4896L43 22.2585L53.9374 30.4896V46.8958H45.7764V37.1362H40.2235V46.8958H32.0625Z" fill="#292929"/>
</g>
<path d="M29.9006 52.216H31.1966V63H29.9006V58.12H24.6686V63H23.3726V52.216H24.6686V56.952H29.9006V52.216ZM36.8859 63.144C35.7232 63.144 34.8005 62.7547 34.1179 61.976C33.4459 61.1867 33.1099 60.1947 33.1099 59C33.1099 57.7947 33.4565 56.792 34.1499 55.992C34.8539 55.1813 35.7659 54.776 36.8859 54.776C38.1125 54.776 39.0565 55.1707 39.7179 55.96C40.3899 56.7493 40.7259 57.752 40.7259 58.968C40.7259 60.1733 40.3845 61.1707 39.7019 61.96C39.0192 62.7493 38.0805 63.144 36.8859 63.144ZM36.8859 55.896C36.1179 55.896 35.5152 56.1947 35.0779 56.792C34.6405 57.3893 34.4219 58.12 34.4219 58.984C34.4219 59.8267 34.6459 60.5467 35.0939 61.144C35.5419 61.7307 36.1392 62.024 36.8859 62.024C37.6965 62.024 38.3205 61.736 38.7579 61.16C39.1952 60.5733 39.4139 59.848 39.4139 58.984C39.4139 58.088 39.2059 57.352 38.7899 56.776C38.3739 56.1893 37.7392 55.896 36.8859 55.896ZM43.8223 54.888V56.2C44.2703 55.2507 45.0329 54.776 46.1102 54.776C47.3583 54.776 48.1476 55.304 48.4783 56.36C48.7129 55.848 49.0383 55.4587 49.4543 55.192C49.8809 54.9147 50.3556 54.776 50.8783 54.776C51.7209 54.776 52.3556 55.016 52.7823 55.496C53.2089 55.976 53.4223 56.6213 53.4223 57.432V63H52.1583V57.752C52.1583 56.5253 51.6409 55.912 50.6063 55.912C50.0943 55.912 49.6356 56.1467 49.2303 56.616C48.8249 57.0747 48.6223 57.7253 48.6223 58.568V63H47.3583V57.752C47.3583 56.5253 46.8409 55.912 45.8063 55.912C45.2943 55.912 44.8356 56.1467 44.4303 56.616C44.0249 57.0747 43.8223 57.7253 43.8223 58.568V63H42.5743V54.888H43.8223ZM60.836 58.424V58.104C60.836 57.432 60.6547 56.8987 60.292 56.504C59.9293 56.0987 59.428 55.896 58.788 55.896C58.18 55.896 57.6627 56.1147 57.236 56.552C56.8093 56.9893 56.5587 57.6133 56.484 58.424H60.836ZM61.588 61.4V62.584C60.9587 62.9147 60.1907 63.08 59.284 63.08C58.0573 63.08 57.0653 62.7067 56.308 61.96C55.5613 61.2027 55.188 60.2053 55.188 58.968C55.188 57.6773 55.524 56.6587 56.196 55.912C56.868 55.1653 57.732 54.792 58.788 54.792C59.8013 54.792 60.6067 55.1173 61.204 55.768C61.8013 56.4187 62.1 57.3413 62.1 58.536C62.1 58.8773 62.0733 59.192 62.02 59.48H56.484C56.58 60.28 56.884 60.8933 57.396 61.32C57.908 61.7467 58.58 61.96 59.412 61.96C60.3187 61.96 61.044 61.7733 61.588 61.4Z" fill="#292929"/>
</svg>
