<svg width="86" height="77" viewBox="0 0 86 77" fill="none" xmlns="http://www.w3.org/2000/svg">
<mask id="mask0_240_9446" style="mask-type:alpha" maskUnits="userSpaceOnUse" x="31" y="18" width="24" height="25">
<rect x="31" y="18.5" width="24" height="24" fill="#D9D9D9"/>
</mask>
<g mask="url(#mask0_240_9446)">
<path d="M37 37.5H40.3461V31.5577H45.6538V37.5H49V28.5L43 23.9808L37 28.5V37.5ZM35.5 39V27.75L43 22.1058L50.5 27.75V39H44.1538V33.0577H41.8461V39H35.5Z" fill="white"/>
</g>
<path d="M30.4006 45.716H31.6966V56.5H30.4006V51.62H25.1686V56.5H23.8726V45.716H25.1686V50.452H30.4006V45.716ZM37.3859 56.644C36.2232 56.644 35.3005 56.2547 34.6179 55.476C33.9459 54.6867 33.6099 53.6947 33.6099 52.5C33.6099 51.2947 33.9565 50.292 34.6499 49.492C35.3539 48.6813 36.2659 48.276 37.3859 48.276C38.6125 48.276 39.5565 48.6707 40.2179 49.46C40.8899 50.2493 41.2259 51.252 41.2259 52.468C41.2259 53.6733 40.8845 54.6707 40.2019 55.46C39.5192 56.2493 38.5805 56.644 37.3859 56.644ZM37.3859 49.396C36.6179 49.396 36.0152 49.6947 35.5779 50.292C35.1405 50.8893 34.9219 51.62 34.9219 52.484C34.9219 53.3267 35.1459 54.0467 35.5939 54.644C36.0419 55.2307 36.6392 55.524 37.3859 55.524C38.1965 55.524 38.8205 55.236 39.2579 54.66C39.6952 54.0733 39.9139 53.348 39.9139 52.484C39.9139 51.588 39.7059 50.852 39.2899 50.276C38.8739 49.6893 38.2392 49.396 37.3859 49.396ZM44.3223 48.388V49.7C44.7703 48.7507 45.5329 48.276 46.6102 48.276C47.8583 48.276 48.6476 48.804 48.9783 49.86C49.2129 49.348 49.5383 48.9587 49.9543 48.692C50.3809 48.4147 50.8556 48.276 51.3783 48.276C52.2209 48.276 52.8556 48.516 53.2823 48.996C53.7089 49.476 53.9223 50.1213 53.9223 50.932V56.5H52.6583V51.252C52.6583 50.0253 52.1409 49.412 51.1063 49.412C50.5943 49.412 50.1356 49.6467 49.7303 50.116C49.3249 50.5747 49.1223 51.2253 49.1223 52.068V56.5H47.8583V51.252C47.8583 50.0253 47.3409 49.412 46.3063 49.412C45.7943 49.412 45.3356 49.6467 44.9303 50.116C44.5249 50.5747 44.3223 51.2253 44.3223 52.068V56.5H43.0743V48.388H44.3223ZM61.336 51.924V51.604C61.336 50.932 61.1547 50.3987 60.792 50.004C60.4293 49.5987 59.928 49.396 59.288 49.396C58.68 49.396 58.1627 49.6147 57.736 50.052C57.3093 50.4893 57.0587 51.1133 56.984 51.924H61.336ZM62.088 54.9V56.084C61.4587 56.4147 60.6907 56.58 59.784 56.58C58.5573 56.58 57.5653 56.2067 56.808 55.46C56.0613 54.7027 55.688 53.7053 55.688 52.468C55.688 51.1773 56.024 50.1587 56.696 49.412C57.368 48.6653 58.232 48.292 59.288 48.292C60.3013 48.292 61.1067 48.6173 61.704 49.268C62.3013 49.9187 62.6 50.8413 62.6 52.036C62.6 52.3773 62.5733 52.692 62.52 52.98H56.984C57.08 53.78 57.384 54.3933 57.896 54.82C58.408 55.2467 59.08 55.46 59.912 55.46C60.8187 55.46 61.544 55.2733 62.088 54.9Z" fill="white"/>
</svg>
