<svg width="86" height="77" viewBox="0 0 86 77" fill="none" xmlns="http://www.w3.org/2000/svg">
<mask id="mask0_240_9446" style="mask-type:alpha" maskUnits="userSpaceOnUse" x="25" y="17" width="36" height="35">
<rect x="25.5" y="17" width="35" height="35" fill="#D9D9D9"/>
</mask>
<g mask="url(#mask0_240_9446)">
<path d="M34.25 44.7084H39.1298V36.0425H46.8701V44.7084H51.75V31.5834L43 24.9928L34.25 31.5834V44.7084ZM32.0625 46.8958V30.4896L43 22.2585L53.9374 30.4896V46.8958H44.6827V38.2299H41.3173V46.8958H32.0625Z" fill="white"/>
</g>
<path d="M30.4006 52.216H31.6966V63H30.4006V58.12H25.1686V63H23.8726V52.216H25.1686V56.952H30.4006V52.216ZM37.3859 63.144C36.2232 63.144 35.3005 62.7547 34.6179 61.976C33.9459 61.1867 33.6099 60.1947 33.6099 59C33.6099 57.7947 33.9565 56.792 34.6499 55.992C35.3539 55.1813 36.2659 54.776 37.3859 54.776C38.6125 54.776 39.5565 55.1707 40.2179 55.96C40.8899 56.7493 41.2259 57.752 41.2259 58.968C41.2259 60.1733 40.8845 61.1707 40.2019 61.96C39.5192 62.7493 38.5805 63.144 37.3859 63.144ZM37.3859 55.896C36.6179 55.896 36.0152 56.1947 35.5779 56.792C35.1405 57.3893 34.9219 58.12 34.9219 58.984C34.9219 59.8267 35.1459 60.5467 35.5939 61.144C36.0419 61.7307 36.6392 62.024 37.3859 62.024C38.1965 62.024 38.8205 61.736 39.2579 61.16C39.6952 60.5733 39.9139 59.848 39.9139 58.984C39.9139 58.088 39.7059 57.352 39.2899 56.776C38.8739 56.1893 38.2392 55.896 37.3859 55.896ZM44.3223 54.888V56.2C44.7703 55.2507 45.5329 54.776 46.6102 54.776C47.8583 54.776 48.6476 55.304 48.9783 56.36C49.2129 55.848 49.5383 55.4587 49.9543 55.192C50.3809 54.9147 50.8556 54.776 51.3783 54.776C52.2209 54.776 52.8556 55.016 53.2823 55.496C53.7089 55.976 53.9223 56.6213 53.9223 57.432V63H52.6583V57.752C52.6583 56.5253 52.1409 55.912 51.1063 55.912C50.5943 55.912 50.1356 56.1467 49.7303 56.616C49.3249 57.0747 49.1223 57.7253 49.1223 58.568V63H47.8583V57.752C47.8583 56.5253 47.3409 55.912 46.3063 55.912C45.7943 55.912 45.3356 56.1467 44.9303 56.616C44.5249 57.0747 44.3223 57.7253 44.3223 58.568V63H43.0743V54.888H44.3223ZM61.336 58.424V58.104C61.336 57.432 61.1547 56.8987 60.792 56.504C60.4293 56.0987 59.928 55.896 59.288 55.896C58.68 55.896 58.1627 56.1147 57.736 56.552C57.3093 56.9893 57.0587 57.6133 56.984 58.424H61.336ZM62.088 61.4V62.584C61.4587 62.9147 60.6907 63.08 59.784 63.08C58.5573 63.08 57.5653 62.7067 56.808 61.96C56.0613 61.2027 55.688 60.2053 55.688 58.968C55.688 57.6773 56.024 56.6587 56.696 55.912C57.368 55.1653 58.232 54.792 59.288 54.792C60.3013 54.792 61.1067 55.1173 61.704 55.768C62.3013 56.4187 62.6 57.3413 62.6 58.536C62.6 58.8773 62.5733 59.192 62.52 59.48H56.984C57.08 60.28 57.384 60.8933 57.896 61.32C58.408 61.7467 59.08 61.96 59.912 61.96C60.8187 61.96 61.544 61.7733 62.088 61.4Z" fill="white"/>
</svg>
