<svg width="86" height="77" viewBox="0 0 86 77" fill="none" xmlns="http://www.w3.org/2000/svg">
<mask id="path-1-inside-1_1623_24806" fill="white">
<path d="M0 0H86V77H0V0Z"/>
</mask>
<path d="M0 6H86V-6H0V6Z" fill="#292929" mask="url(#path-1-inside-1_1623_24806)"/>
<mask id="mask0_1623_24806" style="mask-type:alpha" maskUnits="userSpaceOnUse" x="25" y="15" width="37" height="37">
<rect x="25" y="15" width="37" height="37" fill="#D9D9D9"/>
</mask>
<g mask="url(#mask0_1623_24806)">
<path d="M43.5 33.0256C42.0161 33.0256 40.7459 32.4973 39.6892 31.4406C38.6325 30.3839 38.1042 29.1137 38.1042 27.6298C38.1042 26.146 38.6325 24.8757 39.6892 23.8191C40.7459 22.7624 42.0161 22.234 43.5 22.234C44.9838 22.234 46.254 22.7624 47.3107 23.8191C48.3674 24.8757 48.8958 26.146 48.8958 27.6298C48.8958 29.1137 48.3674 30.3839 47.3107 31.4406C46.254 32.4973 44.9838 33.0256 43.5 33.0256ZM31.9375 44.766V41.3388C31.9375 40.5838 32.1426 39.8846 32.5527 39.2412C32.9628 38.5979 33.5108 38.1033 34.1966 37.7574C35.7205 37.0103 37.2577 36.4499 38.8083 36.0764C40.3588 35.7028 41.9227 35.5161 43.5 35.5161C45.0772 35.5161 46.6411 35.7028 48.1916 36.0764C49.7422 36.4499 51.2794 37.0103 52.8033 37.7574C53.4891 38.1033 54.0371 38.5979 54.4472 39.2412C54.8574 39.8846 55.0624 40.5838 55.0624 41.3388V44.766H31.9375Z" fill="#292929"/>
</g>
<path d="M23.9108 57.928H25.5748C26.3855 57.928 27.0201 57.72 27.4788 57.304C27.9375 56.8773 28.1668 56.3387 28.1668 55.688C28.1668 54.9627 27.9321 54.3867 27.4628 53.96C26.9935 53.5333 26.3268 53.32 25.4628 53.32H23.9108V57.928ZM22.6148 52.216H25.4468C26.6948 52.216 27.6761 52.5413 28.3908 53.192C29.1161 53.832 29.4788 54.664 29.4788 55.688C29.4788 56.648 29.1215 57.448 28.4068 58.088C27.6921 58.7173 26.7481 59.032 25.5748 59.032H23.9108V63H22.6148V52.216ZM32.5176 54.888V56.312C32.9442 55.3093 33.6802 54.808 34.7256 54.808C34.9176 54.808 35.0669 54.8187 35.1736 54.84V56.088C34.9496 56.0133 34.7202 55.976 34.4856 55.976C33.9202 55.976 33.4509 56.2373 33.0776 56.76C32.7042 57.2827 32.5176 57.8853 32.5176 58.568V63H31.2536L31.2696 54.888H32.5176ZM39.7843 63.144C38.6216 63.144 37.699 62.7547 37.0163 61.976C36.3443 61.1867 36.0083 60.1947 36.0083 59C36.0083 57.7947 36.355 56.792 37.0483 55.992C37.7523 55.1813 38.6643 54.776 39.7843 54.776C41.011 54.776 41.955 55.1707 42.6163 55.96C43.2883 56.7493 43.6243 57.752 43.6243 58.968C43.6243 60.1733 43.283 61.1707 42.6003 61.96C41.9176 62.7493 40.979 63.144 39.7843 63.144ZM39.7843 55.896C39.0163 55.896 38.4136 56.1947 37.9763 56.792C37.539 57.3893 37.3203 58.12 37.3203 58.984C37.3203 59.8267 37.5443 60.5467 37.9923 61.144C38.4403 61.7307 39.0376 62.024 39.7843 62.024C40.595 62.024 41.219 61.736 41.6563 61.16C42.0936 60.5733 42.3123 59.848 42.3123 58.984C42.3123 58.088 42.1043 57.352 41.6883 56.776C41.2723 56.1893 40.6376 55.896 39.7843 55.896ZM51.4247 54.888V63H50.1607V55.912H47.4407V63H46.1767V55.912H44.7847V54.888H46.1767V54.136C46.1767 53.3467 46.39 52.7227 46.8167 52.264C47.2434 51.8053 47.846 51.576 48.6247 51.576C49.382 51.576 50.1234 51.7573 50.8487 52.12V53.288C50.102 52.904 49.3767 52.712 48.6727 52.712C47.8514 52.712 47.4407 53.192 47.4407 54.152V54.888H51.4247ZM53.7554 63V51.688H55.0194V63H53.7554ZM62.5938 58.424V58.104C62.5938 57.432 62.4125 56.8987 62.0498 56.504C61.6871 56.0987 61.1858 55.896 60.5458 55.896C59.9378 55.896 59.4205 56.1147 58.9938 56.552C58.5671 56.9893 58.3165 57.6133 58.2418 58.424H62.5938ZM63.3458 61.4V62.584C62.7165 62.9147 61.9485 63.08 61.0418 63.08C59.8151 63.08 58.8231 62.7067 58.0658 61.96C57.3191 61.2027 56.9458 60.2053 56.9458 58.968C56.9458 57.6773 57.2818 56.6587 57.9538 55.912C58.6258 55.1653 59.4898 54.792 60.5458 54.792C61.5591 54.792 62.3645 55.1173 62.9618 55.768C63.5591 56.4187 63.8578 57.3413 63.8578 58.536C63.8578 58.8773 63.8311 59.192 63.7778 59.48H58.2418C58.3378 60.28 58.6418 60.8933 59.1538 61.32C59.6658 61.7467 60.3378 61.96 61.1698 61.96C62.0765 61.96 62.8018 61.7733 63.3458 61.4Z" fill="#292929"/>
</svg>
