<svg width="86" height="77" viewBox="0 0 86 77" fill="none" xmlns="http://www.w3.org/2000/svg">
<mask id="mask0_238_2490" style="mask-type:alpha" maskUnits="userSpaceOnUse" x="25" y="15" width="37" height="37">
<rect x="25" y="15" width="37" height="37" fill="#D9D9D9"/>
</mask>
<g mask="url(#mask0_238_2490)">
<path d="M43.3158 33.7288C41.7353 33.7288 40.3823 33.166 39.2568 32.0405C38.1312 30.915 37.5685 29.5619 37.5685 27.9814C37.5685 26.4009 38.1312 25.0479 39.2568 23.9224C40.3823 22.7968 41.7353 22.2341 43.3158 22.2341C44.8963 22.2341 46.2493 22.7968 47.3749 23.9224C48.5004 25.0479 49.0632 26.4009 49.0632 27.9814C49.0632 29.5619 48.5004 30.915 47.3749 32.0405C46.2493 33.166 44.8963 33.7288 43.3158 33.7288ZM31 46.2341V42.5836C31 41.7794 31.2184 41.0346 31.6553 40.3494C32.0921 39.6641 32.6758 39.1373 33.4063 38.7689C35.0295 37.9731 36.6669 37.3762 38.3185 36.9783C39.97 36.5804 41.6358 36.3815 43.3158 36.3815C44.9958 36.3815 46.6616 36.5804 48.3132 36.9783C49.9648 37.3762 51.6021 37.9731 53.2253 38.7689C53.9558 39.1373 54.5395 39.6641 54.9764 40.3494C55.4132 41.0346 55.6316 41.7794 55.6316 42.5836V46.2341H31ZM33.4631 43.7709H53.1685V42.5836C53.1685 42.2509 53.0722 41.943 52.8795 41.6599C52.6869 41.3767 52.4253 41.1457 52.0948 40.9667C50.6801 40.2699 49.2375 39.742 47.7671 39.383C46.2967 39.0241 44.8129 38.8446 43.3158 38.8446C41.8187 38.8446 40.3349 39.0241 38.8645 39.383C37.3941 39.742 35.9516 40.2699 34.5368 40.9667C34.2063 41.1457 33.9447 41.3767 33.7521 41.6599C33.5595 41.943 33.4631 42.2509 33.4631 42.5836V43.7709ZM43.3158 31.2657C44.219 31.2657 44.9921 30.9441 45.6353 30.3009C46.2785 29.6578 46.6 28.8846 46.6 27.9814C46.6 27.0783 46.2785 26.3051 45.6353 25.6619C44.9921 25.0188 44.219 24.6972 43.3158 24.6972C42.4127 24.6972 41.6395 25.0188 40.9963 25.6619C40.3532 26.3051 40.0316 27.0783 40.0316 27.9814C40.0316 28.8846 40.3532 29.6578 40.9963 30.3009C41.6395 30.9441 42.4127 31.2657 43.3158 31.2657Z" fill="white"/>
</g>
<path d="M23.9108 57.928H25.5748C26.3855 57.928 27.0201 57.72 27.4788 57.304C27.9375 56.8773 28.1668 56.3387 28.1668 55.688C28.1668 54.9627 27.9321 54.3867 27.4628 53.96C26.9935 53.5333 26.3268 53.32 25.4628 53.32H23.9108V57.928ZM22.6148 52.216H25.4468C26.6948 52.216 27.6761 52.5413 28.3908 53.192C29.1161 53.832 29.4788 54.664 29.4788 55.688C29.4788 56.648 29.1215 57.448 28.4068 58.088C27.6921 58.7173 26.7481 59.032 25.5748 59.032H23.9108V63H22.6148V52.216ZM32.5176 54.888V56.312C32.9442 55.3093 33.6802 54.808 34.7256 54.808C34.9176 54.808 35.0669 54.8187 35.1736 54.84V56.088C34.9496 56.0133 34.7202 55.976 34.4856 55.976C33.9202 55.976 33.4509 56.2373 33.0776 56.76C32.7042 57.2827 32.5176 57.8853 32.5176 58.568V63H31.2536L31.2696 54.888H32.5176ZM39.7843 63.144C38.6216 63.144 37.699 62.7547 37.0163 61.976C36.3443 61.1867 36.0083 60.1947 36.0083 59C36.0083 57.7947 36.355 56.792 37.0483 55.992C37.7523 55.1813 38.6643 54.776 39.7843 54.776C41.011 54.776 41.955 55.1707 42.6163 55.96C43.2883 56.7493 43.6243 57.752 43.6243 58.968C43.6243 60.1733 43.283 61.1707 42.6003 61.96C41.9176 62.7493 40.979 63.144 39.7843 63.144ZM39.7843 55.896C39.0163 55.896 38.4136 56.1947 37.9763 56.792C37.539 57.3893 37.3203 58.12 37.3203 58.984C37.3203 59.8267 37.5443 60.5467 37.9923 61.144C38.4403 61.7307 39.0376 62.024 39.7843 62.024C40.595 62.024 41.219 61.736 41.6563 61.16C42.0936 60.5733 42.3123 59.848 42.3123 58.984C42.3123 58.088 42.1043 57.352 41.6883 56.776C41.2723 56.1893 40.6376 55.896 39.7843 55.896ZM51.4247 54.888V63H50.1607V55.912H47.4407V63H46.1767V55.912H44.7847V54.888H46.1767V54.136C46.1767 53.3467 46.39 52.7227 46.8167 52.264C47.2434 51.8053 47.846 51.576 48.6247 51.576C49.382 51.576 50.1234 51.7573 50.8487 52.12V53.288C50.102 52.904 49.3767 52.712 48.6727 52.712C47.8514 52.712 47.4407 53.192 47.4407 54.152V54.888H51.4247ZM53.7554 63V51.688H55.0194V63H53.7554ZM62.5938 58.424V58.104C62.5938 57.432 62.4125 56.8987 62.0498 56.504C61.6871 56.0987 61.1858 55.896 60.5458 55.896C59.9378 55.896 59.4205 56.1147 58.9938 56.552C58.5671 56.9893 58.3165 57.6133 58.2418 58.424H62.5938ZM63.3458 61.4V62.584C62.7165 62.9147 61.9485 63.08 61.0418 63.08C59.8151 63.08 58.8231 62.7067 58.0658 61.96C57.3191 61.2027 56.9458 60.2053 56.9458 58.968C56.9458 57.6773 57.2818 56.6587 57.9538 55.912C58.6258 55.1653 59.4898 54.792 60.5458 54.792C61.5591 54.792 62.3645 55.1173 62.9618 55.768C63.5591 56.4187 63.8578 57.3413 63.8578 58.536C63.8578 58.8773 63.8311 59.192 63.7778 59.48H58.2418C58.3378 60.28 58.6418 60.8933 59.1538 61.32C59.6658 61.7467 60.3378 61.96 61.1698 61.96C62.0765 61.96 62.8018 61.7733 63.3458 61.4Z" fill="white"/>
</svg>
