<svg width="86" height="77" viewBox="0 0 86 77" fill="none" xmlns="http://www.w3.org/2000/svg">
<mask id="mask0_238_2490" style="mask-type:alpha" maskUnits="userSpaceOnUse" x="29" y="16" width="24" height="24">
<rect x="29" y="16" width="24" height="24" fill="#D9D9D9"/>
</mask>
<g mask="url(#mask0_238_2490)">
<path d="M43 29.5577C41.8771 29.5577 40.9158 29.1578 40.1161 28.3582C39.3165 27.5586 38.9167 26.5973 38.9167 25.4744C38.9167 24.3515 39.3165 23.3902 40.1161 22.5906C40.9158 21.7909 41.8771 21.3911 43 21.3911C44.1229 21.3911 45.0841 21.7909 45.8838 22.5906C46.6834 23.3902 47.0833 24.3515 47.0833 25.4744C47.0833 26.5973 46.6834 27.5586 45.8838 28.3582C45.0841 29.1578 44.1229 29.5577 43 29.5577ZM34.25 38.4423V35.8487C34.25 35.2774 34.4052 34.7483 34.7156 34.2614C35.0259 33.7746 35.4406 33.4002 35.9596 33.1385C37.1128 32.5731 38.2761 32.1491 39.4495 31.8664C40.6229 31.5837 41.8064 31.4424 43 31.4424C44.1935 31.4424 45.377 31.5837 46.5504 31.8664C47.7238 32.1491 48.8871 32.5731 50.0403 33.1385C50.5593 33.4002 50.974 33.7746 51.2844 34.2614C51.5948 34.7483 51.7499 35.2774 51.7499 35.8487V38.4423H34.25ZM36 36.6923H50V35.8487C50 35.6124 49.9315 35.3936 49.7947 35.1925C49.6578 34.9913 49.472 34.8271 49.2371 34.7C48.232 34.2049 47.2071 33.8299 46.1625 33.5748C45.1178 33.3198 44.0636 33.1923 43 33.1923C41.9363 33.1923 40.8822 33.3198 39.8375 33.5748C38.7928 33.8299 37.7679 34.2049 36.7628 34.7C36.528 34.8271 36.3421 34.9913 36.2053 35.1925C36.0684 35.3936 36 35.6124 36 35.8487V36.6923ZM43 27.8077C43.6416 27.8077 44.1909 27.5792 44.6479 27.1223C45.1048 26.6654 45.3333 26.1161 45.3333 25.4744C45.3333 24.8327 45.1048 24.2834 44.6479 23.8265C44.1909 23.3695 43.6416 23.1411 43 23.1411C42.3583 23.1411 41.809 23.3695 41.3521 23.8265C40.8951 24.2834 40.6666 24.8327 40.6666 25.4744C40.6666 26.1161 40.8951 26.6654 41.3521 27.1223C41.809 27.5792 42.3583 27.8077 43 27.8077Z" fill="white"/>
</g>
<path d="M23.9108 53.428H25.5748C26.3855 53.428 27.0201 53.22 27.4788 52.804C27.9375 52.3773 28.1668 51.8387 28.1668 51.188C28.1668 50.4627 27.9321 49.8867 27.4628 49.46C26.9935 49.0333 26.3268 48.82 25.4628 48.82H23.9108V53.428ZM22.6148 47.716H25.4468C26.6948 47.716 27.6761 48.0413 28.3908 48.692C29.1161 49.332 29.4788 50.164 29.4788 51.188C29.4788 52.148 29.1215 52.948 28.4068 53.588C27.6921 54.2173 26.7481 54.532 25.5748 54.532H23.9108V58.5H22.6148V47.716ZM32.5176 50.388V51.812C32.9442 50.8093 33.6802 50.308 34.7256 50.308C34.9176 50.308 35.0669 50.3187 35.1736 50.34V51.588C34.9496 51.5133 34.7202 51.476 34.4856 51.476C33.9202 51.476 33.4509 51.7373 33.0776 52.26C32.7042 52.7827 32.5176 53.3853 32.5176 54.068V58.5H31.2536L31.2696 50.388H32.5176ZM39.7843 58.644C38.6216 58.644 37.699 58.2547 37.0163 57.476C36.3443 56.6867 36.0083 55.6947 36.0083 54.5C36.0083 53.2947 36.355 52.292 37.0483 51.492C37.7523 50.6813 38.6643 50.276 39.7843 50.276C41.011 50.276 41.955 50.6707 42.6163 51.46C43.2883 52.2493 43.6243 53.252 43.6243 54.468C43.6243 55.6733 43.283 56.6707 42.6003 57.46C41.9176 58.2493 40.979 58.644 39.7843 58.644ZM39.7843 51.396C39.0163 51.396 38.4136 51.6947 37.9763 52.292C37.539 52.8893 37.3203 53.62 37.3203 54.484C37.3203 55.3267 37.5443 56.0467 37.9923 56.644C38.4403 57.2307 39.0376 57.524 39.7843 57.524C40.595 57.524 41.219 57.236 41.6563 56.66C42.0936 56.0733 42.3123 55.348 42.3123 54.484C42.3123 53.588 42.1043 52.852 41.6883 52.276C41.2723 51.6893 40.6376 51.396 39.7843 51.396ZM51.4247 50.388V58.5H50.1607V51.412H47.4407V58.5H46.1767V51.412H44.7847V50.388H46.1767V49.636C46.1767 48.8467 46.39 48.2227 46.8167 47.764C47.2434 47.3053 47.846 47.076 48.6247 47.076C49.382 47.076 50.1234 47.2573 50.8487 47.62V48.788C50.102 48.404 49.3767 48.212 48.6727 48.212C47.8514 48.212 47.4407 48.692 47.4407 49.652V50.388H51.4247ZM53.7554 58.5V47.188H55.0194V58.5H53.7554ZM62.5938 53.924V53.604C62.5938 52.932 62.4125 52.3987 62.0498 52.004C61.6871 51.5987 61.1858 51.396 60.5458 51.396C59.9378 51.396 59.4205 51.6147 58.9938 52.052C58.5671 52.4893 58.3165 53.1133 58.2418 53.924H62.5938ZM63.3458 56.9V58.084C62.7165 58.4147 61.9485 58.58 61.0418 58.58C59.8151 58.58 58.8231 58.2067 58.0658 57.46C57.3191 56.7027 56.9458 55.7053 56.9458 54.468C56.9458 53.1773 57.2818 52.1587 57.9538 51.412C58.6258 50.6653 59.4898 50.292 60.5458 50.292C61.5591 50.292 62.3645 50.6173 62.9618 51.268C63.5591 51.9187 63.8578 52.8413 63.8578 54.036C63.8578 54.3773 63.8311 54.692 63.7778 54.98H58.2418C58.3378 55.78 58.6418 56.3933 59.1538 56.82C59.6658 57.2467 60.3378 57.46 61.1698 57.46C62.0765 57.46 62.8018 57.2733 63.3458 56.9Z" fill="white"/>
</svg>
