<svg width="86" height="77" viewBox="0 0 86 77" fill="none" xmlns="http://www.w3.org/2000/svg">
<mask id="mask0_238_2377" style="mask-type:alpha" maskUnits="userSpaceOnUse" x="31" y="18" width="24" height="24">
<rect x="31" y="18" width="24" height="24" fill="#D9D9D9"/>
</mask>
<g mask="url(#mask0_238_2377)">
<path d="M43 38.3269L41.8962 37.3346C40.2385 35.8308 38.8676 34.5384 37.7836 33.4577C36.6997 32.3769 35.8407 31.4151 35.2068 30.5721C34.5728 29.7292 34.1298 28.9602 33.8779 28.2654C33.626 27.5705 33.5 26.8654 33.5 26.15C33.5 24.7308 33.9785 23.5427 34.9356 22.5856C35.8926 21.6286 37.0808 21.15 38.5 21.15C39.3731 21.15 40.1981 21.3542 40.975 21.7626C41.7519 22.1709 42.4269 22.7565 43 23.5193C43.5731 22.7565 44.2481 22.1709 45.025 21.7626C45.8019 21.3542 46.6269 21.15 47.5 21.15C48.9192 21.15 50.1073 21.6286 51.0644 22.5856C52.0214 23.5427 52.5 24.7308 52.5 26.15C52.5 26.8654 52.374 27.5705 52.1221 28.2654C51.8701 28.9602 51.4272 29.7292 50.7932 30.5721C50.1592 31.4151 49.3019 32.3769 48.2211 33.4577C47.1403 34.5384 45.7679 35.8308 44.1038 37.3346L43 38.3269ZM43 36.3C44.6 34.8603 45.9166 33.6263 46.95 32.5981C47.9833 31.5699 48.8 30.6766 49.4 29.9183C50 29.1599 50.4166 28.4865 50.65 27.8981C50.8833 27.3096 51 26.7269 51 26.15C51 25.15 50.6666 24.3167 50 23.65C49.3333 22.9833 48.5 22.65 47.5 22.65C46.7102 22.65 45.9804 22.874 45.3106 23.3221C44.6407 23.7702 44.1102 24.3936 43.7192 25.1923H42.2808C41.8833 24.3872 41.3513 23.7622 40.6846 23.3173C40.0179 22.8724 39.2897 22.65 38.5 22.65C37.5064 22.65 36.6747 22.9833 36.0048 23.65C35.3349 24.3167 35 25.15 35 26.15C35 26.7269 35.1166 27.3096 35.35 27.8981C35.5833 28.4865 36 29.1599 36.6 29.9183C37.2 30.6766 38.0166 31.5683 39.05 32.5933C40.0833 33.6183 41.4 34.8539 43 36.3Z" fill="white"/>
</g>
<path d="M28.9894 46.116V47.476C28.3387 47.0493 27.56 46.836 26.6534 46.836C26.0027 46.836 25.4854 46.9907 25.1014 47.3C24.7174 47.5987 24.5254 47.9933 24.5254 48.484C24.5254 48.74 24.5734 48.9693 24.6694 49.172C24.776 49.3747 24.9574 49.5667 25.2134 49.748C25.4694 49.9187 25.688 50.052 25.8694 50.148C26.0507 50.2333 26.3334 50.3613 26.7174 50.532C27.08 50.692 27.3574 50.82 27.5494 50.916C27.7414 51.0013 27.9867 51.1453 28.2854 51.348C28.5947 51.54 28.824 51.732 28.9734 51.924C29.1334 52.1053 29.272 52.3507 29.3894 52.66C29.5174 52.9587 29.5814 53.284 29.5814 53.636C29.5814 54.5853 29.256 55.3213 28.6054 55.844C27.9547 56.356 27.1174 56.612 26.0934 56.612C24.9627 56.612 24.0027 56.3827 23.2134 55.924V54.532C23.992 55.1187 24.9414 55.412 26.0614 55.412C26.7334 55.412 27.2614 55.2627 27.6454 54.964C28.0294 54.6653 28.2214 54.2333 28.2214 53.668C28.2214 53.4333 28.1734 53.2253 28.0774 53.044C27.992 52.852 27.8427 52.6813 27.6294 52.532C27.4267 52.372 27.2294 52.244 27.0374 52.148C26.856 52.0413 26.6054 51.9133 26.2854 51.764C26.2214 51.732 26.1254 51.6893 25.9974 51.636C25.5387 51.4333 25.1867 51.268 24.9414 51.14C24.7067 51.012 24.424 50.8253 24.0934 50.58C23.7734 50.324 23.5387 50.0307 23.3894 49.7C23.24 49.3693 23.1654 48.9853 23.1654 48.548C23.1654 47.6307 23.4907 46.916 24.1414 46.404C24.8027 45.8813 25.6294 45.62 26.6214 45.62C27.5494 45.62 28.3387 45.7853 28.9894 46.116ZM36.036 52.756H34.628C33.9453 52.756 33.4333 52.8893 33.092 53.156C32.7507 53.4227 32.58 53.7587 32.58 54.164C32.58 54.5693 32.7133 54.9 32.98 55.156C33.2467 55.4013 33.636 55.524 34.148 55.524C34.724 55.524 35.1827 55.364 35.524 55.044C35.8653 54.7133 36.036 54.2973 36.036 53.796V52.756ZM31.844 50.084V48.82C32.452 48.4467 33.252 48.26 34.244 48.26C36.2813 48.26 37.3 49.2947 37.3 51.364V56.5H36.052V55.54C35.636 56.2333 34.8787 56.58 33.78 56.58C33.0227 56.58 32.4093 56.356 31.94 55.908C31.4813 55.46 31.252 54.8947 31.252 54.212C31.252 53.4333 31.5453 52.8307 32.132 52.404C32.7293 51.9667 33.54 51.748 34.564 51.748H36.036V51.332C36.036 50.692 35.892 50.212 35.604 49.892C35.316 49.5613 34.8307 49.396 34.148 49.396C33.284 49.396 32.516 49.6253 31.844 50.084ZM41.607 56.5L38.775 48.388H40.087L41.207 51.812L42.391 55.508C42.487 55.0493 42.887 53.8173 43.591 51.812L44.743 48.388H46.055L43.159 56.5H41.607ZM52.7891 51.924V51.604C52.7891 50.932 52.6078 50.3987 52.2451 50.004C51.8825 49.5987 51.3811 49.396 50.7411 49.396C50.1331 49.396 49.6158 49.6147 49.1891 50.052C48.7625 50.4893 48.5118 51.1133 48.4371 51.924H52.7891ZM53.5411 54.9V56.084C52.9118 56.4147 52.1438 56.58 51.2371 56.58C50.0105 56.58 49.0185 56.2067 48.2611 55.46C47.5145 54.7027 47.1411 53.7053 47.1411 52.468C47.1411 51.1773 47.4771 50.1587 48.1491 49.412C48.8211 48.6653 49.6851 48.292 50.7411 48.292C51.7545 48.292 52.5598 48.6173 53.1571 49.268C53.7545 49.9187 54.0531 50.8413 54.0531 52.036C54.0531 52.3773 54.0265 52.692 53.9731 52.98H48.4371C48.5331 53.78 48.8371 54.3933 49.3491 54.82C49.8611 55.2467 50.5331 55.46 51.3651 55.46C52.2718 55.46 52.9971 55.2733 53.5411 54.9ZM59.0685 55.476C59.7298 55.476 60.2898 55.2307 60.7485 54.74C61.2178 54.2493 61.4525 53.4653 61.4525 52.388C61.4525 51.364 61.2125 50.612 60.7325 50.132C60.2525 49.652 59.7245 49.412 59.1485 49.412C58.4765 49.412 57.9165 49.684 57.4685 50.228C57.0312 50.7613 56.8125 51.5293 56.8125 52.532C56.8125 53.4067 57.0258 54.116 57.4525 54.66C57.8792 55.204 58.4178 55.476 59.0685 55.476ZM61.4525 45.188H62.7165V56.5H61.4525V55.3C60.8765 56.1853 60.0445 56.628 58.9565 56.628C57.8792 56.628 57.0312 56.228 56.4125 55.428C55.8045 54.628 55.5005 53.6573 55.5005 52.516C55.5005 51.2467 55.8258 50.2227 56.4765 49.444C57.1272 48.6547 57.9645 48.26 58.9885 48.26C60.0445 48.26 60.8658 48.7133 61.4525 49.62V45.188Z" fill="white"/>
</svg>
