<svg width="86" height="77" viewBox="0 0 86 77" fill="none" xmlns="http://www.w3.org/2000/svg">
<mask id="mask0_238_2377" style="mask-type:alpha" maskUnits="userSpaceOnUse" x="26" y="17" width="34" height="34">
<rect x="26" y="17" width="34" height="34" fill="#D9D9D9"/>
</mask>
<g mask="url(#mask0_238_2377)">
<path d="M43.75 46.8613L42.1524 45.4251C39.7531 43.2485 37.769 41.378 36.2 39.8137C34.6311 38.2495 33.3879 36.8573 32.4703 35.6372C31.5527 34.4172 30.9116 33.3043 30.547 32.2986C30.1823 31.2928 30 30.2723 30 29.2368C30 27.1827 30.6926 25.463 32.0778 24.0778C33.463 22.6926 35.1827 22 37.2368 22C38.5005 22 39.6946 22.2955 40.8191 22.8866C41.9436 23.4776 42.9205 24.3251 43.75 25.4292C44.5795 24.3251 45.5564 23.4776 46.6809 22.8866C47.8054 22.2955 48.9995 22 50.2632 22C52.3173 22 54.037 22.6926 55.4222 24.0778C56.8074 25.463 57.5 27.1827 57.5 29.2368C57.5 30.2723 57.3177 31.2928 56.953 32.2986C56.5884 33.3043 55.9473 34.4172 55.0297 35.6372C54.1121 36.8573 52.8712 38.2495 51.3069 39.8137C49.7426 41.378 47.7562 43.2485 45.3476 45.4251L43.75 46.8613ZM43.75 43.9276C46.0658 41.8438 47.9715 40.0578 49.4671 38.5696C50.9627 37.0814 52.1448 35.7885 53.0132 34.6909C53.8816 33.5933 54.4847 32.6187 54.8224 31.7669C55.1601 30.9152 55.329 30.0718 55.329 29.2368C55.329 27.7895 54.8465 26.5833 53.8816 25.6184C52.9167 24.6535 51.7105 24.171 50.2632 24.171C49.1201 24.171 48.0638 24.4953 47.0943 25.1438C46.1247 25.7924 45.357 26.6946 44.791 27.8507H42.709C42.1338 26.6854 41.3637 25.7808 40.3988 25.1369C39.4339 24.493 38.3799 24.171 37.2368 24.171C35.7987 24.171 34.5949 24.6535 33.6253 25.6184C32.6558 26.5833 32.171 27.7895 32.171 29.2368C32.171 30.0718 32.3399 30.9152 32.6776 31.7669C33.0153 32.6187 33.6184 33.5933 34.4868 34.6909C35.3552 35.7885 36.5373 37.0791 38.0329 38.5626C39.5285 40.0462 41.4342 41.8345 43.75 43.9276Z" fill="white"/>
</g>
<path d="M28.9894 52.616V53.976C28.3387 53.5493 27.56 53.336 26.6534 53.336C26.0027 53.336 25.4854 53.4907 25.1014 53.8C24.7174 54.0987 24.5254 54.4933 24.5254 54.984C24.5254 55.24 24.5734 55.4693 24.6694 55.672C24.776 55.8747 24.9574 56.0667 25.2134 56.248C25.4694 56.4187 25.688 56.552 25.8694 56.648C26.0507 56.7333 26.3334 56.8613 26.7174 57.032C27.08 57.192 27.3574 57.32 27.5494 57.416C27.7414 57.5013 27.9867 57.6453 28.2854 57.848C28.5947 58.04 28.824 58.232 28.9734 58.424C29.1334 58.6053 29.272 58.8507 29.3894 59.16C29.5174 59.4587 29.5814 59.784 29.5814 60.136C29.5814 61.0853 29.256 61.8213 28.6054 62.344C27.9547 62.856 27.1174 63.112 26.0934 63.112C24.9627 63.112 24.0027 62.8827 23.2134 62.424V61.032C23.992 61.6187 24.9414 61.912 26.0614 61.912C26.7334 61.912 27.2614 61.7627 27.6454 61.464C28.0294 61.1653 28.2214 60.7333 28.2214 60.168C28.2214 59.9333 28.1734 59.7253 28.0774 59.544C27.992 59.352 27.8427 59.1813 27.6294 59.032C27.4267 58.872 27.2294 58.744 27.0374 58.648C26.856 58.5413 26.6054 58.4133 26.2854 58.264C26.2214 58.232 26.1254 58.1893 25.9974 58.136C25.5387 57.9333 25.1867 57.768 24.9414 57.64C24.7067 57.512 24.424 57.3253 24.0934 57.08C23.7734 56.824 23.5387 56.5307 23.3894 56.2C23.24 55.8693 23.1654 55.4853 23.1654 55.048C23.1654 54.1307 23.4907 53.416 24.1414 52.904C24.8027 52.3813 25.6294 52.12 26.6214 52.12C27.5494 52.12 28.3387 52.2853 28.9894 52.616ZM36.036 59.256H34.628C33.9453 59.256 33.4333 59.3893 33.092 59.656C32.7507 59.9227 32.58 60.2587 32.58 60.664C32.58 61.0693 32.7133 61.4 32.98 61.656C33.2467 61.9013 33.636 62.024 34.148 62.024C34.724 62.024 35.1827 61.864 35.524 61.544C35.8653 61.2133 36.036 60.7973 36.036 60.296V59.256ZM31.844 56.584V55.32C32.452 54.9467 33.252 54.76 34.244 54.76C36.2813 54.76 37.3 55.7947 37.3 57.864V63H36.052V62.04C35.636 62.7333 34.8787 63.08 33.78 63.08C33.0227 63.08 32.4093 62.856 31.94 62.408C31.4813 61.96 31.252 61.3947 31.252 60.712C31.252 59.9333 31.5453 59.3307 32.132 58.904C32.7293 58.4667 33.54 58.248 34.564 58.248H36.036V57.832C36.036 57.192 35.892 56.712 35.604 56.392C35.316 56.0613 34.8307 55.896 34.148 55.896C33.284 55.896 32.516 56.1253 31.844 56.584ZM41.607 63L38.775 54.888H40.087L41.207 58.312L42.391 62.008C42.487 61.5493 42.887 60.3173 43.591 58.312L44.743 54.888H46.055L43.159 63H41.607ZM52.7891 58.424V58.104C52.7891 57.432 52.6078 56.8987 52.2451 56.504C51.8825 56.0987 51.3811 55.896 50.7411 55.896C50.1331 55.896 49.6158 56.1147 49.1891 56.552C48.7625 56.9893 48.5118 57.6133 48.4371 58.424H52.7891ZM53.5411 61.4V62.584C52.9118 62.9147 52.1438 63.08 51.2371 63.08C50.0105 63.08 49.0185 62.7067 48.2611 61.96C47.5145 61.2027 47.1411 60.2053 47.1411 58.968C47.1411 57.6773 47.4771 56.6587 48.1491 55.912C48.8211 55.1653 49.6851 54.792 50.7411 54.792C51.7545 54.792 52.5598 55.1173 53.1571 55.768C53.7545 56.4187 54.0531 57.3413 54.0531 58.536C54.0531 58.8773 54.0265 59.192 53.9731 59.48H48.4371C48.5331 60.28 48.8371 60.8933 49.3491 61.32C49.8611 61.7467 50.5331 61.96 51.3651 61.96C52.2718 61.96 52.9971 61.7733 53.5411 61.4ZM59.0685 61.976C59.7298 61.976 60.2898 61.7307 60.7485 61.24C61.2178 60.7493 61.4525 59.9653 61.4525 58.888C61.4525 57.864 61.2125 57.112 60.7325 56.632C60.2525 56.152 59.7245 55.912 59.1485 55.912C58.4765 55.912 57.9165 56.184 57.4685 56.728C57.0312 57.2613 56.8125 58.0293 56.8125 59.032C56.8125 59.9067 57.0258 60.616 57.4525 61.16C57.8792 61.704 58.4178 61.976 59.0685 61.976ZM61.4525 51.688H62.7165V63H61.4525V61.8C60.8765 62.6853 60.0445 63.128 58.9565 63.128C57.8792 63.128 57.0312 62.728 56.4125 61.928C55.8045 61.128 55.5005 60.1573 55.5005 59.016C55.5005 57.7467 55.8258 56.7227 56.4765 55.944C57.1272 55.1547 57.9645 54.76 58.9885 54.76C60.0445 54.76 60.8658 55.2133 61.4525 56.12V51.688Z" fill="white"/>
</svg>
