<svg width="86" height="77" viewBox="0 0 86 77" fill="none" xmlns="http://www.w3.org/2000/svg">
<mask id="mask0_238_2393" style="mask-type:alpha" maskUnits="userSpaceOnUse" x="31" y="18" width="24" height="25">
<rect x="31" y="18.5" width="24" height="24" fill="#D9D9D9"/>
</mask>
<g mask="url(#mask0_238_2393)">
<path d="M39.9538 29.8539L42.1711 27.6212L40.4442 25.8788L39.3153 27.0077L38.2615 25.9539L39.375 24.825L37.8365 23.2865L35.6038 25.5192L39.9538 29.8539ZM47.9711 37.8865L50.2038 35.6538L48.6653 34.1154L47.5365 35.2288L46.4827 34.175L47.5961 33.0461L45.8634 31.3288L43.6461 33.5461L47.9711 37.8865ZM38.2019 39H34.5V35.2981L38.8846 30.9135L33.5 25.5192L37.8365 21.1827L43.2557 26.5923L47.3769 22.4558C47.532 22.3007 47.7026 22.1859 47.8885 22.1116C48.0743 22.0372 48.2686 22 48.4711 22C48.6737 22 48.8679 22.0372 49.0538 22.1116C49.2397 22.1859 49.4102 22.3007 49.5653 22.4558L51.0442 23.9789C51.1993 24.134 51.3125 24.3045 51.3836 24.4904C51.4548 24.6763 51.4903 24.8705 51.4903 25.0731C51.4903 25.2756 51.4548 25.4657 51.3836 25.6433C51.3125 25.8208 51.1993 25.9872 51.0442 26.1423L46.9422 30.2692L52.3172 35.6635L47.9808 40L42.5865 34.6153L38.2019 39ZM36 37.5H37.5634L47.3731 27.7058L45.7942 26.1269L36 35.9365V37.5ZM46.5961 26.9192L45.7942 26.1269L47.3731 27.7058L46.5961 26.9192Z" fill="white"/>
</g>
<path d="M21.7472 46.116V47.476C21.0965 47.0493 20.3179 46.836 19.4112 46.836C18.7605 46.836 18.2432 46.9907 17.8592 47.3C17.4752 47.5987 17.2832 47.9933 17.2832 48.484C17.2832 48.74 17.3312 48.9693 17.4272 49.172C17.5339 49.3747 17.7152 49.5667 17.9712 49.748C18.2272 49.9187 18.4459 50.052 18.6272 50.148C18.8085 50.2333 19.0912 50.3613 19.4752 50.532C19.8379 50.692 20.1152 50.82 20.3072 50.916C20.4992 51.0013 20.7445 51.1453 21.0432 51.348C21.3525 51.54 21.5819 51.732 21.7312 51.924C21.8912 52.1053 22.0299 52.3507 22.1472 52.66C22.2752 52.9587 22.3392 53.284 22.3392 53.636C22.3392 54.5853 22.0139 55.3213 21.3632 55.844C20.7125 56.356 19.8752 56.612 18.8512 56.612C17.7205 56.612 16.7605 56.3827 15.9712 55.924V54.532C16.7499 55.1187 17.6992 55.412 18.8192 55.412C19.4912 55.412 20.0192 55.2627 20.4032 54.964C20.7872 54.6653 20.9792 54.2333 20.9792 53.668C20.9792 53.4333 20.9312 53.2253 20.8352 53.044C20.7499 52.852 20.6005 52.6813 20.3872 52.532C20.1845 52.372 19.9872 52.244 19.7952 52.148C19.6139 52.0413 19.3632 51.9133 19.0432 51.764C18.9792 51.732 18.8832 51.6893 18.7552 51.636C18.2965 51.4333 17.9445 51.268 17.6992 51.14C17.4645 51.012 17.1819 50.8253 16.8512 50.58C16.5312 50.324 16.2965 50.0307 16.1472 49.7C15.9979 49.3693 15.9232 48.9853 15.9232 48.548C15.9232 47.6307 16.2485 46.916 16.8992 46.404C17.5605 45.8813 18.3872 45.62 19.3792 45.62C20.3072 45.62 21.0965 45.7853 21.7472 46.116ZM29.5938 51.924V51.604C29.5938 50.932 29.4125 50.3987 29.0498 50.004C28.6871 49.5987 28.1858 49.396 27.5458 49.396C26.9378 49.396 26.4205 49.6147 25.9938 50.052C25.5671 50.4893 25.3165 51.1133 25.2418 51.924H29.5938ZM30.3458 54.9V56.084C29.7165 56.4147 28.9485 56.58 28.0418 56.58C26.8151 56.58 25.8231 56.2067 25.0658 55.46C24.3191 54.7027 23.9458 53.7053 23.9458 52.468C23.9458 51.1773 24.2818 50.1587 24.9538 49.412C25.6258 48.6653 26.4898 48.292 27.5458 48.292C28.5591 48.292 29.3645 48.6173 29.9618 49.268C30.5591 49.9187 30.8578 50.8413 30.8578 52.036C30.8578 52.3773 30.8311 52.692 30.7778 52.98H25.2418C25.3378 53.78 25.6418 54.3933 26.1538 54.82C26.6658 55.2467 27.3378 55.46 28.1698 55.46C29.0765 55.46 29.8018 55.2733 30.3458 54.9ZM34.0332 48.388V49.812C34.4599 48.8093 35.1959 48.308 36.2412 48.308C36.4332 48.308 36.5825 48.3187 36.6892 48.34V49.588C36.4652 49.5133 36.2359 49.476 36.0012 49.476C35.4359 49.476 34.9665 49.7373 34.5932 50.26C34.2199 50.7827 34.0332 51.3853 34.0332 52.068V56.5H32.7692L32.7852 48.388H34.0332ZM40.0679 56.5L37.2359 48.388H38.5479L39.6679 51.812L40.8519 55.508C40.9479 55.0493 41.3479 53.8173 42.0519 51.812L43.2039 48.388H44.5159L41.6199 56.5H40.0679ZM46.1461 56.5V48.388H47.4101V56.5H46.1461ZM46.1781 46.436C46.0287 46.276 45.9541 46.0787 45.9541 45.844C45.9541 45.6093 46.0287 45.412 46.1781 45.252C46.3381 45.092 46.5354 45.012 46.7701 45.012C47.0047 45.012 47.2021 45.092 47.3621 45.252C47.5221 45.412 47.6021 45.6093 47.6021 45.844C47.6021 46.0787 47.5221 46.276 47.3621 46.436C47.2021 46.5853 47.0047 46.66 46.7701 46.66C46.5354 46.66 46.3381 46.5853 46.1781 46.436ZM50.6484 52.484C50.6591 53.3587 50.9258 54.0893 51.4484 54.676C51.9711 55.252 52.7124 55.54 53.6724 55.54C54.2911 55.54 54.8671 55.364 55.4004 55.012V56.212C54.8884 56.5213 54.2591 56.676 53.5124 56.676C52.2324 56.676 51.2138 56.2707 50.4564 55.46C49.7098 54.6387 49.3364 53.6413 49.3364 52.468C49.3364 51.316 49.7098 50.324 50.4564 49.492C51.2138 48.66 52.2431 48.244 53.5444 48.244C54.2378 48.244 54.8564 48.3933 55.4004 48.692V49.892C54.9098 49.5613 54.3338 49.396 53.6724 49.396C52.7551 49.396 52.0191 49.6947 51.4644 50.292C50.9204 50.8787 50.6484 51.6093 50.6484 52.484ZM62.5157 51.924V51.604C62.5157 50.932 62.3344 50.3987 61.9717 50.004C61.609 49.5987 61.1077 49.396 60.4677 49.396C59.8597 49.396 59.3424 49.6147 58.9157 50.052C58.489 50.4893 58.2384 51.1133 58.1637 51.924H62.5157ZM63.2677 54.9V56.084C62.6384 56.4147 61.8704 56.58 60.9637 56.58C59.737 56.58 58.745 56.2067 57.9877 55.46C57.241 54.7027 56.8677 53.7053 56.8677 52.468C56.8677 51.1773 57.2037 50.1587 57.8757 49.412C58.5477 48.6653 59.4117 48.292 60.4677 48.292C61.481 48.292 62.2864 48.6173 62.8837 49.268C63.481 49.9187 63.7797 50.8413 63.7797 52.036C63.7797 52.3773 63.753 52.692 63.6997 52.98H58.1637C58.2597 53.78 58.5637 54.3933 59.0757 54.82C59.5877 55.2467 60.2597 55.46 61.0917 55.46C61.9984 55.46 62.7237 55.2733 63.2677 54.9ZM70.1231 48.66V49.86C69.6324 49.5613 68.9604 49.412 68.1071 49.412C67.6804 49.412 67.3391 49.5133 67.0831 49.716C66.8377 49.908 66.7151 50.1587 66.7151 50.468C66.7151 50.66 66.7524 50.8307 66.8271 50.98C66.9017 51.1187 67.0457 51.2573 67.2591 51.396C67.4831 51.5347 67.6431 51.6307 67.7391 51.684C67.8457 51.7267 68.0697 51.8227 68.4111 51.972C69.0937 52.2493 69.6271 52.564 70.0111 52.916C70.3951 53.268 70.5871 53.7427 70.5871 54.34C70.5871 55.0333 70.3417 55.5827 69.8511 55.988C69.3711 56.3933 68.7097 56.596 67.8671 56.596C66.8857 56.596 66.0911 56.4307 65.4831 56.1V54.868C66.1977 55.2947 66.9657 55.508 67.7871 55.508C68.2777 55.508 68.6511 55.412 68.9071 55.22C69.1631 55.028 69.2911 54.7667 69.2911 54.436C69.2911 54.052 69.1471 53.7533 68.8591 53.54C68.5817 53.3267 68.1124 53.0867 67.4511 52.82C66.8431 52.5853 66.3524 52.292 65.9791 51.94C65.6164 51.588 65.4351 51.1133 65.4351 50.516C65.4351 49.844 65.6857 49.3107 66.1871 48.916C66.6991 48.5107 67.3337 48.308 68.0911 48.308C68.9337 48.308 69.6111 48.4253 70.1231 48.66Z" fill="white"/>
</svg>
