<svg width="86" height="77" viewBox="0 0 86 77" fill="none" xmlns="http://www.w3.org/2000/svg">
<mask id="mask0_238_2393" style="mask-type:alpha" maskUnits="userSpaceOnUse" x="27" y="18" width="32" height="32">
<rect x="27" y="18" width="32" height="32" fill="#D9D9D9"/>
</mask>
<g mask="url(#mask0_238_2393)">
<path d="M38.9386 33.1385L41.895 30.1615L39.5924 27.8384L38.0873 29.3436L36.6822 27.9385L38.1668 26.4333L36.1155 24.382L33.1386 27.3589L38.9386 33.1385ZM49.6283 43.8487L52.6053 40.8718L50.5539 38.8205L49.0488 40.3051L47.6437 38.9L49.1283 37.3948L46.818 35.1051L43.8616 38.0615L49.6283 43.8487ZM36.6027 45.3333H31.6668V40.3974L37.513 34.5513L30.3335 27.3589L36.1155 21.577L43.3411 28.7898L48.8361 23.2744C49.0429 23.0675 49.2702 22.9145 49.5181 22.8154C49.7659 22.7162 50.0249 22.6667 50.295 22.6667C50.5651 22.6667 50.824 22.7162 51.0719 22.8154C51.3197 22.9145 51.5471 23.0675 51.7539 23.2744L53.7257 25.3051C53.9326 25.512 54.0834 25.7393 54.1783 25.9872C54.2732 26.235 54.3206 26.494 54.3206 26.7641C54.3206 27.0342 54.2732 27.2876 54.1783 27.5243C54.0834 27.7611 53.9326 27.9829 53.7257 28.1897L48.2565 33.6923L55.4231 40.8846L49.6412 46.6666L42.4488 39.4871L36.6027 45.3333ZM33.6668 43.3333H35.7514L48.8309 30.2743L46.7258 28.1692L33.6668 41.2487V43.3333ZM47.795 29.2256L46.7258 28.1692L48.8309 30.2743L47.795 29.2256Z" fill="white"/>
</g>
<path d="M22.2472 52.616V53.976C21.5965 53.5493 20.8179 53.336 19.9112 53.336C19.2605 53.336 18.7432 53.4907 18.3592 53.8C17.9752 54.0987 17.7832 54.4933 17.7832 54.984C17.7832 55.24 17.8312 55.4693 17.9272 55.672C18.0339 55.8747 18.2152 56.0667 18.4712 56.248C18.7272 56.4187 18.9459 56.552 19.1272 56.648C19.3085 56.7333 19.5912 56.8613 19.9752 57.032C20.3379 57.192 20.6152 57.32 20.8072 57.416C20.9992 57.5013 21.2445 57.6453 21.5432 57.848C21.8525 58.04 22.0819 58.232 22.2312 58.424C22.3912 58.6053 22.5299 58.8507 22.6472 59.16C22.7752 59.4587 22.8392 59.784 22.8392 60.136C22.8392 61.0853 22.5139 61.8213 21.8632 62.344C21.2125 62.856 20.3752 63.112 19.3512 63.112C18.2205 63.112 17.2605 62.8827 16.4712 62.424V61.032C17.2499 61.6187 18.1992 61.912 19.3192 61.912C19.9912 61.912 20.5192 61.7627 20.9032 61.464C21.2872 61.1653 21.4792 60.7333 21.4792 60.168C21.4792 59.9333 21.4312 59.7253 21.3352 59.544C21.2499 59.352 21.1005 59.1813 20.8872 59.032C20.6845 58.872 20.4872 58.744 20.2952 58.648C20.1139 58.5413 19.8632 58.4133 19.5432 58.264C19.4792 58.232 19.3832 58.1893 19.2552 58.136C18.7965 57.9333 18.4445 57.768 18.1992 57.64C17.9645 57.512 17.6819 57.3253 17.3512 57.08C17.0312 56.824 16.7965 56.5307 16.6472 56.2C16.4979 55.8693 16.4232 55.4853 16.4232 55.048C16.4232 54.1307 16.7485 53.416 17.3992 52.904C18.0605 52.3813 18.8872 52.12 19.8792 52.12C20.8072 52.12 21.5965 52.2853 22.2472 52.616ZM30.0938 58.424V58.104C30.0938 57.432 29.9125 56.8987 29.5498 56.504C29.1871 56.0987 28.6858 55.896 28.0458 55.896C27.4378 55.896 26.9205 56.1147 26.4938 56.552C26.0671 56.9893 25.8165 57.6133 25.7418 58.424H30.0938ZM30.8458 61.4V62.584C30.2165 62.9147 29.4485 63.08 28.5418 63.08C27.3151 63.08 26.3231 62.7067 25.5658 61.96C24.8191 61.2027 24.4458 60.2053 24.4458 58.968C24.4458 57.6773 24.7818 56.6587 25.4538 55.912C26.1258 55.1653 26.9898 54.792 28.0458 54.792C29.0591 54.792 29.8645 55.1173 30.4618 55.768C31.0591 56.4187 31.3578 57.3413 31.3578 58.536C31.3578 58.8773 31.3311 59.192 31.2778 59.48H25.7418C25.8378 60.28 26.1418 60.8933 26.6538 61.32C27.1658 61.7467 27.8378 61.96 28.6698 61.96C29.5765 61.96 30.3018 61.7733 30.8458 61.4ZM34.5332 54.888V56.312C34.9599 55.3093 35.6959 54.808 36.7412 54.808C36.9332 54.808 37.0825 54.8187 37.1892 54.84V56.088C36.9652 56.0133 36.7359 55.976 36.5012 55.976C35.9359 55.976 35.4665 56.2373 35.0932 56.76C34.7199 57.2827 34.5332 57.8853 34.5332 58.568V63H33.2692L33.2852 54.888H34.5332ZM40.5679 63L37.7359 54.888H39.0479L40.1679 58.312L41.3519 62.008C41.4479 61.5493 41.8479 60.3173 42.5519 58.312L43.7039 54.888H45.0159L42.1199 63H40.5679ZM46.6461 63V54.888H47.9101V63H46.6461ZM46.6781 52.936C46.5287 52.776 46.4541 52.5787 46.4541 52.344C46.4541 52.1093 46.5287 51.912 46.6781 51.752C46.8381 51.592 47.0354 51.512 47.2701 51.512C47.5047 51.512 47.7021 51.592 47.8621 51.752C48.0221 51.912 48.1021 52.1093 48.1021 52.344C48.1021 52.5787 48.0221 52.776 47.8621 52.936C47.7021 53.0853 47.5047 53.16 47.2701 53.16C47.0354 53.16 46.8381 53.0853 46.6781 52.936ZM51.1484 58.984C51.1591 59.8587 51.4258 60.5893 51.9484 61.176C52.4711 61.752 53.2124 62.04 54.1724 62.04C54.7911 62.04 55.3671 61.864 55.9004 61.512V62.712C55.3884 63.0213 54.7591 63.176 54.0124 63.176C52.7324 63.176 51.7138 62.7707 50.9564 61.96C50.2098 61.1387 49.8364 60.1413 49.8364 58.968C49.8364 57.816 50.2098 56.824 50.9564 55.992C51.7138 55.16 52.7431 54.744 54.0444 54.744C54.7378 54.744 55.3564 54.8933 55.9004 55.192V56.392C55.4098 56.0613 54.8338 55.896 54.1724 55.896C53.2551 55.896 52.5191 56.1947 51.9644 56.792C51.4204 57.3787 51.1484 58.1093 51.1484 58.984ZM63.0157 58.424V58.104C63.0157 57.432 62.8344 56.8987 62.4717 56.504C62.109 56.0987 61.6077 55.896 60.9677 55.896C60.3597 55.896 59.8424 56.1147 59.4157 56.552C58.989 56.9893 58.7384 57.6133 58.6637 58.424H63.0157ZM63.7677 61.4V62.584C63.1384 62.9147 62.3704 63.08 61.4637 63.08C60.237 63.08 59.245 62.7067 58.4877 61.96C57.741 61.2027 57.3677 60.2053 57.3677 58.968C57.3677 57.6773 57.7037 56.6587 58.3757 55.912C59.0477 55.1653 59.9117 54.792 60.9677 54.792C61.981 54.792 62.7864 55.1173 63.3837 55.768C63.981 56.4187 64.2797 57.3413 64.2797 58.536C64.2797 58.8773 64.253 59.192 64.1997 59.48H58.6637C58.7597 60.28 59.0637 60.8933 59.5757 61.32C60.0877 61.7467 60.7597 61.96 61.5917 61.96C62.4984 61.96 63.2237 61.7733 63.7677 61.4ZM70.6231 55.16V56.36C70.1324 56.0613 69.4604 55.912 68.6071 55.912C68.1804 55.912 67.8391 56.0133 67.5831 56.216C67.3377 56.408 67.2151 56.6587 67.2151 56.968C67.2151 57.16 67.2524 57.3307 67.3271 57.48C67.4017 57.6187 67.5457 57.7573 67.7591 57.896C67.9831 58.0347 68.1431 58.1307 68.2391 58.184C68.3457 58.2267 68.5697 58.3227 68.9111 58.472C69.5937 58.7493 70.1271 59.064 70.5111 59.416C70.8951 59.768 71.0871 60.2427 71.0871 60.84C71.0871 61.5333 70.8417 62.0827 70.3511 62.488C69.8711 62.8933 69.2097 63.096 68.3671 63.096C67.3857 63.096 66.5911 62.9307 65.9831 62.6V61.368C66.6977 61.7947 67.4657 62.008 68.2871 62.008C68.7777 62.008 69.1511 61.912 69.4071 61.72C69.6631 61.528 69.7911 61.2667 69.7911 60.936C69.7911 60.552 69.6471 60.2533 69.3591 60.04C69.0817 59.8267 68.6124 59.5867 67.9511 59.32C67.3431 59.0853 66.8524 58.792 66.4791 58.44C66.1164 58.088 65.9351 57.6133 65.9351 57.016C65.9351 56.344 66.1857 55.8107 66.6871 55.416C67.1991 55.0107 67.8337 54.808 68.5911 54.808C69.4337 54.808 70.1111 54.9253 70.6231 55.16Z" fill="white"/>
</svg>
