<svg width="40" height="40" viewBox="0 0 40 40" fill="none" xmlns="http://www.w3.org/2000/svg">
<mask id="mask0_1646_5894" style="mask-type:alpha" maskUnits="userSpaceOnUse" x="0" y="0" width="40" height="40">
<rect width="40" height="40" fill="#D9D9D9"/>
</mask>
<g mask="url(#mask0_1646_5894)">
<path d="M15.7114 37.8259L15.0149 32.2537C14.6376 32.1086 14.2821 31.9345 13.9484 31.7313C13.6146 31.5282 13.2881 31.3105 12.9689 31.0784L7.78856 33.255L3 24.9838L7.48383 21.5883C7.45481 21.3852 7.4403 21.1893 7.4403 21.0006V19.8252C7.4403 19.6366 7.45481 19.4407 7.48383 19.2376L3 15.842L7.78856 7.5709L12.9689 9.74751C13.2881 9.51534 13.6219 9.29768 13.9701 9.09453C14.3184 8.89138 14.6667 8.71725 15.0149 8.57214L15.7114 3H25.2886L25.9851 8.57214C26.3624 8.71725 26.7179 8.89138 27.0516 9.09453C27.3854 9.29768 27.7119 9.51534 28.0311 9.74751L33.2114 7.5709L38 15.842L33.5162 19.2376C33.5452 19.4407 33.5597 19.6366 33.5597 19.8252V21.0006C33.5597 21.1893 33.5307 21.3852 33.4726 21.5883L37.9565 24.9838L33.1679 33.255L28.0311 31.0784C27.7119 31.3105 27.3781 31.5282 27.0299 31.7313C26.6816 31.9345 26.3333 32.1086 25.9851 32.2537L25.2886 37.8259H15.7114ZM18.7587 34.3433H22.1978L22.8072 29.7289C23.7069 29.4967 24.5413 29.1557 25.3103 28.7058C26.0794 28.256 26.7832 27.7119 27.4216 27.0734L31.7313 28.8582L33.4291 25.898L29.6853 23.0684C29.8304 22.6621 29.932 22.234 29.9901 21.7842C30.0481 21.3344 30.0771 20.8773 30.0771 20.4129C30.0771 19.9486 30.0481 19.4915 29.9901 19.0417C29.932 18.5918 29.8304 18.1638 29.6853 17.7575L33.4291 14.9279L31.7313 11.9677L27.4216 13.796C26.7832 13.1285 26.0794 12.5699 25.3103 12.12C24.5413 11.6702 23.7069 11.3292 22.8072 11.097L22.2413 6.48259H18.8022L18.1928 11.097C17.2931 11.3292 16.4587 11.6702 15.6897 12.12C14.9206 12.5699 14.2168 13.114 13.5784 13.7525L9.26866 11.9677L7.5709 14.9279L11.3147 17.7139C11.1696 18.1493 11.068 18.5846 11.01 19.0199C10.9519 19.4552 10.9229 19.9196 10.9229 20.4129C10.9229 20.8773 10.9519 21.3271 11.01 21.7624C11.068 22.1978 11.1696 22.6331 11.3147 23.0684L7.5709 25.898L9.26866 28.8582L13.5784 27.0299C14.2168 27.6973 14.9206 28.256 15.6897 28.7058C16.4587 29.1557 17.2931 29.4967 18.1928 29.7289L18.7587 34.3433ZM20.5871 26.5075C22.2703 26.5075 23.7069 25.9125 24.8968 24.7226C26.0866 23.5328 26.6816 22.0962 26.6816 20.4129C26.6816 18.7297 26.0866 17.2931 24.8968 16.1032C23.7069 14.9134 22.2703 14.3184 20.5871 14.3184C18.8748 14.3184 17.431 14.9134 16.2556 16.1032C15.0802 17.2931 14.4925 18.7297 14.4925 20.4129C14.4925 22.0962 15.0802 23.5328 16.2556 24.7226C17.431 25.9125 18.8748 26.5075 20.5871 26.5075Z" fill="#999999"/>
</g>
</svg>
