<?xml version="1.0" encoding="UTF-8"?><svg xmlns="http://www.w3.org/2000/svg" xmlns:xlink="http://www.w3.org/1999/xlink" viewBox="0 0 190 210"><defs><style>.cls-1{fill:#585375;}.cls-1,.cls-2,.cls-3,.cls-4,.cls-5,.cls-6,.cls-7,.cls-8,.cls-9,.cls-10,.cls-11,.cls-12,.cls-13,.cls-14,.cls-15,.cls-16,.cls-17,.cls-18,.cls-19,.cls-20,.cls-21,.cls-22,.cls-23,.cls-24,.cls-25,.cls-26,.cls-27{stroke-width:0px;}.cls-28{clip-path:url(#clippath);}.cls-2{fill:none;}.cls-3,.cls-22{fill:#65bab0;}.cls-4{fill:#63bc4a;}.cls-29{mask:url(#mask);}.cls-30{filter:url(#luminosity-noclip);}.cls-5{fill:#97b7c7;}.cls-6{fill:url(#linear-gradient);}.cls-6,.cls-22,.cls-31,.cls-32,.cls-33,.cls-34{mix-blend-mode:multiply;}.cls-7{fill:#d3d171;}.cls-8{fill:url(#DÈgradÈ_sans_nom_48);}.cls-9{fill:#5f8699;}.cls-10{fill:#ff6643;}.cls-11{fill:#ffd37b;}.cls-12{fill:#bc8062;}.cls-35{clip-path:url(#clippath-1);}.cls-13{fill:#a7a555;}.cls-14{fill:#e0a22b;}.cls-15{fill:#3fd866;}.cls-36{opacity:.46;}.cls-16{fill:#1cb5b1;}.cls-17{fill:#6d5348;}.cls-18{fill:url(#linear-gradient-2);}.cls-19{fill:#7ce1e8;}.cls-20{fill:#3fa33a;}.cls-37{isolation:isolate;}.cls-21{fill:#1db775;}.cls-22,.cls-34{opacity:.49;}.cls-31{opacity:.25;}.cls-32{opacity:.3;}.cls-33{opacity:.29;}.cls-23{fill:#fff;}.cls-38{mask:url(#mask-1);}.cls-24{fill:#32ad2f;}.cls-25{fill:#95f458;}.cls-26{fill:#5e8a8e;}.cls-27{fill:#50af48;}</style><clipPath id="clippath"><rect class="cls-2" width="190" height="210"/></clipPath><linearGradient id="DÈgradÈ_sans_nom_48" x1="-163" y1="107.52" x2="341.59" y2="107.52" gradientUnits="userSpaceOnUse"><stop offset="0" stop-color="#82f0fa"/><stop offset="1" stop-color="#00c7f0"/></linearGradient><filter id="luminosity-noclip" x="-42.38" y="37.99" width="62.84" height="43.6" color-interpolation-filters="sRGB" filterUnits="userSpaceOnUse"><feFlood flood-color="#fff" result="bg"/><feBlend in="SourceGraphic" in2="bg"/></filter><filter id="luminosity-noclip-2" x="-42.38" y="-6299.46" width="62.84" height="32766" color-interpolation-filters="sRGB" filterUnits="userSpaceOnUse"><feFlood flood-color="#fff" result="bg"/><feBlend in="SourceGraphic" in2="bg"/></filter><mask id="mask-1" x="-42.38" y="-6299.46" width="62.84" height="32766" maskUnits="userSpaceOnUse"/><linearGradient id="linear-gradient" x1="-10.96" y1="41.16" x2="-10.96" y2="81.58" gradientUnits="userSpaceOnUse"><stop offset=".38" stop-color="#fff"/><stop offset="1" stop-color="#000"/></linearGradient><mask id="mask" x="-42.38" y="37.99" width="62.84" height="43.6" maskUnits="userSpaceOnUse"><g class="cls-30"><g class="cls-38"><path class="cls-6" d="M6.05,81.59c7.96,0,14.41-6.8,14.41-15.2s-6.15-14.86-13.85-15.18c-2.06-7.63-8.7-13.22-16.59-13.22-8.71,0-15.91,6.82-17.08,15.67-2.19-.22-4.46.55-6.14,2.32-1.65,1.75-2.39,4.09-2.21,6.38-4.01,1.07-6.98,4.89-6.98,9.46,0,5.39,4.14,9.77,9.25,9.77H6.05Z"/></g></g></mask><linearGradient id="linear-gradient-2" x1="-10.96" y1="41.16" x2="-10.96" y2="81.58" gradientUnits="userSpaceOnUse"><stop offset=".38" stop-color="#fff"/><stop offset="1" stop-color="#fff"/></linearGradient><clipPath id="clippath-1"><rect class="cls-2" y="5.17" width="190" height="199.71"/></clipPath></defs><g class="cls-37"><g id="Layer_2"><g id="Layer_11"><g class="cls-28"><rect class="cls-8" x="-163" y="-36.04" width="504.59" height="287.12"/><g class="cls-29"><g class="cls-36"><path class="cls-18" d="M6.61,51.21c-2.06-7.63-8.7-13.22-16.59-13.22-8.71,0-15.91,6.82-17.08,15.67-2.19-.22-4.46.55-6.14,2.32-1.65,1.75-2.39,4.09-2.21,6.38-4.01,1.07-6.98,4.89-6.98,9.46,0,5.39,4.14,9.77,9.25,9.77H6.05c7.96,0,14.41-6.8,14.41-15.2s-6.15-14.86-13.85-15.18Z"/></g></g><path class="cls-7" d="M-15.8,124.6c-9.1-8.77-14.22-10.6-20.24-10.6-5.32,0-12.25,1.09-22.97,12.2-25.39,26.3-68.22,66.53-68.22,66.53H47.11s-27.92-34.39-62.92-68.12Z"/><path class="cls-7" d="M311.28,192.73s-27.06-23.61-50.03-56.17c-17.43-24.71-30.32-33.48-46.24-32.28-3.1.23-8.03,1.26-11.04,2.75-1.53-2.18-2.86-4.23-4.12-5.93-17.06-23.12-27.29-28.3-34.49-29.49-10.99-1.82-20.47.8-41.31,21.12-16.78,16.36-69.74,67.43-69.74,67.43h90.25c-17.84,16.5-35.29,32.57-35.29,32.57h202.01Z"/><path class="cls-7" d="M56.63,67.9c-9.08-12.21-15.26-18.24-25.44-16.63-5.04.8-12.1,4.87-24.7,21.15-44.28,57.22-99.24,120.3-99.24,120.3h246.36S76.47,94.59,56.63,67.9Z"/><path class="cls-16" d="M139.59,69.21c-13.85-17.72-25.77-31.88-36.01-31.88-7.58,0-15.59,3.16-27.29,16.74C-.64,143.34-80.62,192.73-80.62,192.73H239.01s-76.24-93.85-99.42-123.52Z"/><path class="cls-23" d="M103.59,37.33c-7.58,0-15.59,3.16-27.29,16.74-5.13,5.95-10.27,11.72-15.4,17.31,3.13,1.5,6.82,1.52,10.85-1.77,15.16-12.35,19.75-6.32,21.6-3.99,1.9,2.39,3.27,11.16,10.23,11.16s8.5-11.82,13.64-11.56c7.24.36,14.78,12.75,21.31,2.65-13.4-17.09-24.98-30.54-34.96-30.54Z"/><g class="cls-34"><path class="cls-3" d="M239.01,192.73s-76.24-93.85-99.42-123.52c-13.85-17.72-25.77-31.88-36.01-31.88-2.97,0-6,.49-9.29,1.89,3.99-1.09,6.15.31,8.53,1.69,12.82,7.44,17.07,21.95,18.95,44.24,4.17,49.42-34.49,107.58-34.49,107.58h151.72Z"/></g><path class="cls-21" d="M49.85,108.49c-9.44-12.09-17.58-21.74-24.56-21.74-5.17,0-10.63,2.16-18.61,11.42-52.47,60.88-107.01,94.57-107.01,94.57H117.66s-51.99-64-67.8-84.24Z"/><g class="cls-34"><path class="cls-3" d="M117.66,192.73s-51.99-64-67.8-84.24c-9.44-12.09-17.58-21.74-24.56-21.74-2.02,0-4.09.33-6.34,1.29,2.72-.75,4.2.21,5.82,1.16,8.74,5.07,11.64,14.97,12.92,30.17,2.84,33.7-23.52,73.37-23.52,73.37h103.47Z"/></g><path class="cls-15" d="M214.14,133.51c-31.86-30.32-59.77-32.41-82.51-28.43-49.44,8.66-156.91,87.65-156.91,87.65h321.78s-29.94-9.34-82.36-59.22Z"/><path class="cls-22" d="M132.08,105c.28-.05.56-.09.84-.14-.28.05-.56.09-.84.14Z"/><path class="cls-22" d="M144.86,103.69c25.97,1.08,53.93,23.2-.34,32.48-73.15,12.5-68.22,56.56-68.22,56.56h220.21s-25.96-5.75-82.36-59.22c-25.95-24.61-49.4-30.42-69.28-29.82Z"/><path class="cls-15" d="M63.07,181.88s-23.18-23.61-47.13-35.71c-23.57-11.9-42.78-5.96-76.98,16.92-27.81,18.6-65.81,29.64-65.81,29.64H67.31l-4.24-10.85Z"/><g class="cls-32"><path class="cls-3" d="M63.07,181.88s-23.18-23.61-47.13-35.71c-12.71-6.42-24.16-7.64-37.37-3.82,7.2-1.18,12.4,2.21,14.73,4.97,8.52,10.11-19.24,16.94-33.45,28.89-14.06,11.83-8.81,16.51-8.81,16.51h116.28l-4.24-10.85Z"/></g><path class="cls-24" d="M28.05,171.6c.15-.58.24-1.2.24-1.83,0-3.81-2.94-6.9-6.57-6.9-1.23,0-2.39.36-3.37.98-1.49-1.62-3.58-2.63-5.9-2.63-4.53,0-8.2,3.85-8.2,8.61,0,.61.06,1.2.17,1.77h-.11c-1.79,1.75-2.92,4.25-2.92,7.02,0,5.15,3.87,9.35,8.72,9.58.14.01.29.02.44.02.86,3.25,3.66,5.62,6.99,5.62,1.14,0,2.22-.29,3.19-.79.03,0,.06,0,.09,0,3.75,0,6.82-3.03,7.11-6.89,2.55-1.35,4.29-4.12,4.29-7.32s-1.69-5.88-4.17-7.25Z"/><path class="cls-19" d="M-140.15,192.73c0,6.4,4.94,11.59,11.02,11.59h44.63s3.41,0,5.12,1.69c1.12,1.11,1.8,3.42,1.8,3.42,0,6.55,5.05,11.86,11.28,11.86H69.42c1.7,0,3.08,1.45,3.08,3.24,0,3.58,2.76,6.48,6.16,6.48h80.53c3.4,0,6.16-2.9,6.16-6.48,0-1.79,1.38-3.24,3.08-3.24h58.17c5.94,0,10.76-5.07,10.76-11.31,0-3.12,2.41-5.66,5.38-5.66h66.63c6.09,0,11.02-5.19,11.02-11.59H-140.15Z"/><path class="cls-25" d="M229.72,181.2c-26.37-11.16-48.99-24.91-61.08-30.69-16.69-7.97-37.05-19.13-71.43-8.37-8.09,2.53-26.37,11.56-50.4,23.91-32.58,16.75-72.1,26.67-72.1,26.67h295.29s-21.71-3.66-40.29-11.53Z"/><g class="cls-33"><path class="cls-3" d="M229.72,181.2c-26.37-11.16-48.99-24.91-61.08-30.69-16.28-7.78-36.07-18.58-68.96-9.1,12.55-2.46,27.24-.06,29.24,8.7,2.28,9.97-13.5,19.21-22.7,23.91-23.36,11.96-3,18.7-3,18.7h168.23s-23.15-3.66-41.74-11.53Z"/></g><g class="cls-31"><path class="cls-3" d="M158.73,207.44h-12.51c-.45,0-.81.38-.81.85s.36.85.81.85h12.51c.45,0,.81-.38.81-.85s-.36-.85-.81-.85Z"/></g><g class="cls-31"><path class="cls-3" d="M55.75,209.37h-27.29c-.45,0-.81.38-.81.85s.36.86.81.86h27.29c.45,0,.81-.38.81-.86s-.36-.85-.81-.85Z"/></g><g class="cls-31"><path class="cls-3" d="M66.77,205.11h-17.62c-.45,0-.81.38-.81.85s.36.85.81.85h17.62c.45,0,.81-.38.81-.85s-.36-.85-.81-.85Z"/></g><path class="cls-13" d="M132.17,189c0,.42-.57.76-.93.76h0c-.36,0-.93-.34-.93-.76l.28-12.62c0-.42.29-.76.66-.76h0c.36,0,.66.34.66.76l.28,12.62Z"/><path class="cls-20" d="M136.72,175.93c-2.87-5.25-4.59-13.64-4.79-14.23,0,0-.06-1.01-.44-1.01-.5,0-.62,1.01-.62,1.01-.2.59-.94,6.79-5.12,14.23-2.72,4.84-5.86,7.36-5.86,7.36,0,0,.01,1.18,2.46,2.44,1.69.87,4.13-.15,4.31-.19.51-.12,1.01.24,1.44.57,1.51,1.13,4.71,1.04,6.24.02.45-.3.95-.88,1.47-.76.18.04,3.11.55,4.54-.2,1.89-1,2.22-1.87,2.22-1.87,0,0-3.2-2.48-5.86-7.36Z"/><path class="cls-27" d="M135.32,170.03c-2.13-3.91-3.41-10.15-3.56-10.58,0,0-.05-.75-.33-.75-.37,0-.46.75-.46.75-.15.43-.7,5.05-3.81,10.58-2.02,3.6-4.36,5.48-4.36,5.48,0,0-.22,1.29,1.67,1.29,1.8,0,2.51-1.03,4.44.82.18.17.39.34.66.48.82.42,2.51.42,3.33,0,.25-.13.45-.32.65-.47,1.95-1.46,2.63-.62,4.05-.65,1.57-.02,2.07-1.48,2.07-1.48,0,0-2.38-1.85-4.36-5.48Z"/><path class="cls-4" d="M136.21,166.95s-1.4-1.02-2.57-3.03c-1.26-2.16-2.01-5.42-2.1-5.66,0,0-.03-.41-.19-.41-.22,0-.27.41-.27.41-.09.24-.41,2.61-2.24,5.66-1.19,1.99-2.57,3.03-2.57,3.03,0,0-.13.6.98.71.9.09,1.13-1.07,1.81-.34.19.21.41.63,1.17,1,.48.23,1.48.23,1.96,0,.76-.37.97-.77,1.24-1,.53-.44.74.46,1.32.46,1.11,0,1.47-.83,1.47-.83Z"/><path class="cls-13" d="M151.64,176.78c0,.28-.38.51-.62.51h0c-.24,0-.62-.23-.62-.51l.18-8.43c0-.28.2-.51.44-.51h0c.24,0,.44.23.44.51l.18,8.43Z"/><path class="cls-20" d="M154.69,168.04c-1.92-3.51-3.06-9.12-3.2-9.51,0,0-.04-.67-.29-.67-.33,0-.42.67-.42.67-.13.39-.63,4.54-3.42,9.51-1.81,3.23-3.92,4.92-3.92,4.92,0,0,0,.79,1.64,1.63,1.13.58,2.76-.1,2.88-.13.34-.08.68.16.97.38,1.01.75,3.15.7,4.17.01.3-.2.63-.59.98-.51.12.03,2.08.37,3.04-.13,1.26-.67,1.48-1.25,1.48-1.25,0,0-2.14-1.66-3.92-4.92Z"/><path class="cls-27" d="M153.75,164.1c-1.42-2.61-2.28-6.78-2.38-7.07,0,0-.03-.5-.22-.5-.25,0-.31.5-.31.5-.1.29-.47,3.38-2.54,7.07-1.35,2.41-2.91,3.66-2.91,3.66,0,0-.15.86,1.12.86,1.2,0,1.68-.69,2.97.55.12.12.26.23.44.32.55.28,1.68.28,2.22,0,.17-.09.3-.21.43-.31,1.3-.97,1.76-.42,2.71-.43,1.05-.02,1.39-.99,1.39-.99,0,0-1.59-1.24-2.92-3.66Z"/><path class="cls-4" d="M154.35,162.04s-.94-.68-1.72-2.02c-.84-1.44-1.34-3.62-1.4-3.78,0,0-.02-.28-.13-.28-.14,0-.18.28-.18.28-.06.16-.27,1.74-1.5,3.78-.8,1.33-1.72,2.02-1.72,2.02,0,0-.08.4.66.48.6.06.76-.72,1.21-.23.13.14.28.42.78.67.32.16.99.16,1.31,0,.51-.24.64-.51.83-.67.35-.3.5.31.88.31.74,0,.98-.56.98-.56Z"/><path class="cls-13" d="M171.02,181.87c0,.33-.45.6-.73.6h0c-.28,0-.73-.27-.73-.6l.22-9.88c0-.33.23-.6.52-.6h0c.28,0,.51.27.51.6l.22,9.88Z"/><path class="cls-20" d="M174.58,171.63c-2.24-4.11-3.59-10.68-3.75-11.14,0,0-.05-.79-.34-.79-.39,0-.49.79-.49.79-.16.46-.73,5.32-4.01,11.14-2.13,3.79-4.59,5.77-4.59,5.77,0,0,0,.92,1.92,1.91,1.32.68,3.23-.12,3.38-.15.4-.09.79.19,1.13.44,1.18.88,3.69.82,4.89.02.36-.24.74-.69,1.15-.6.14.03,2.44.43,3.56-.16,1.48-.78,1.74-1.47,1.74-1.47,0,0-2.51-1.95-4.59-5.77Z"/><path class="cls-27" d="M173.48,167.01c-1.67-3.06-2.67-7.95-2.79-8.29,0,0-.04-.59-.26-.59-.29,0-.36.59-.36.59-.12.34-.54,3.96-2.98,8.29-1.58,2.82-3.41,4.29-3.41,4.29,0,0-.18,1.01,1.31,1.01,1.41,0,1.97-.81,3.47.64.14.14.31.27.52.38.64.33,1.97.33,2.61,0,.2-.1.35-.25.51-.37,1.53-1.14,2.06-.49,3.17-.51,1.23-.02,1.62-1.16,1.62-1.16,0,0-1.86-1.45-3.42-4.29Z"/><path class="cls-4" d="M174.18,164.6s-1.1-.8-2.01-2.37c-.98-1.69-1.57-4.25-1.64-4.43,0,0-.02-.32-.15-.32-.17,0-.21.32-.21.32-.07.19-.32,2.04-1.76,4.43-.93,1.56-2.01,2.37-2.01,2.37,0,0-.1.47.77.56.71.07.89-.84,1.41-.27.15.16.32.49.92.78.38.18,1.16.18,1.54,0,.59-.29.76-.6.97-.78.41-.35.58.36,1.03.36.87,0,1.15-.65,1.15-.65Z"/><rect class="cls-26" x="102.69" y="16.73" width=".42" height="21.86"/><polygon class="cls-10" points="110.91 16.73 102.71 16.73 102.71 22.12 110.91 22.12 107.92 19.47 110.91 16.73"/></g></g><g id="Image_4"><g class="cls-35"><path class="cls-5" d="M16.07,171.71s-13.44,24.43-11.46,44.54c1.99,5.38,23.5,6.9,29.34,6.66,5.85-.23,23.74-3.33,25.25-6.78,1.29-2.92-3.42-32.91-11.84-44.95l-31.3.53Z"/><path class="cls-5" d="M47.55,171.59c13.54,7.98,12.96,32.11,10.1,30.73l-10.1-30.73Z"/><path class="cls-1" d="M7.16,193.89c6.23,1.31,10.29,3.51,25.31,3.33,16.52-.19,19.71-2.53,23.32-4.85.41-.26,1.08.53,1.78,3.33.7,2.81.56,3.59-.03,4.06-.4.32-11.05,6.58-24.9,5.87-13.85-.7-26.5-4.16-27.27-4.56-.56-.29-.23-2.08.03-3.39.26-1.32,1.2-3.92,1.75-3.8Z"/><ellipse class="cls-12" cx="31.85" cy="159.78" rx="20.19" ry="19.64"/><path class="cls-17" d="M15.01,139.83s-3.24,6.14-.88,9.03c0,0-1.32,5,.88,6.4,0,0,0,5.61,4.12,5.52,0,0,.96,3.51,5.44,3.42,0,0,1.84,3.42,6.49,2.1,0,0,4.12,1.84,7.37-1.32,0,0,3.86.53,5.17-3.68,0,0,3.59-.44,4.47-4.65,0,0,2.72-1.49,1.67-6.05,0,0,.53-6.31-1.84-10.87,0,0,4,2.6,4.27,6.37,0,0,2.4,5.03-.23,8.27,0,0,1.93,2.63-.7,5.35,0,0,1.84,4.91-2.72,6.23,0,0,.18,5.52-3.24,5.44,0,0-.35,4.56-4.91,3.59,0,0-2.28,3.86-7.01.88,0,0-2.89,4.03-7.19.18,0,0-4.38.79-5.52-3.51,0,0-5.44-.18-4.82-4.91,0,0-3.42-1.49-2.19-5,0,0-4.82-2.02-2.81-7.54,0,0-2.37-6.49.79-9.91,0,0,1.4-4.56,3.42-5.35Z"/><path class="cls-17" d="M18.98,132.41s-2.74,6.14-.74,9.03c0,0-1.11,5,.74,6.4,0,0,0,5.61,3.48,5.52,0,0,.82,3.51,4.59,3.42,0,0,1.56,3.42,5.48,2.1,0,0,3.48,1.84,6.22-1.32,0,0,3.26.53,4.37-3.68,0,0,3.04-.44,3.78-4.65,0,0,2.3-1.49,1.41-6.05,0,0,.44-6.31-1.56-10.87,0,0,3.38,2.6,3.61,6.37,0,0,2.03,5.03-.2,8.27,0,0,1.63,2.63-.59,5.35,0,0,1.56,4.91-2.3,6.23,0,0,.15,5.52-2.74,5.44,0,0-.3,4.56-4.15,3.59,0,0-1.93,3.86-5.93.88,0,0-2.45,4.03-6.08.18,0,0-3.71.79-4.67-3.51,0,0-4.59-.18-4.08-4.91,0,0-2.89-1.49-1.85-5,0,0-4.08-2.02-2.37-7.54,0,0-2-6.49.67-9.91,0,0,1.19-4.56,2.89-5.35Z"/><path class="cls-17" d="M15.94,136.56s-2.74,6.14-.74,9.03c0,0-1.11,5,.74,6.4,0,0,0,5.61,3.48,5.52,0,0,.82,3.51,4.59,3.42,0,0,1.56,3.42,5.48,2.1,0,0,3.48,1.84,6.22-1.32,0,0,3.26.53,4.37-3.68,0,0,3.04-.44,3.78-4.65,0,0,2.3-1.49,1.41-6.05,0,0,.44-6.31-1.56-10.87,0,0,3.38,2.6,3.61,6.37,0,0,2.03,5.03-.2,8.27,0,0,1.63,2.63-.59,5.35,0,0,1.56,4.91-2.3,6.23,0,0,.15,5.52-2.74,5.44,0,0-.3,4.56-4.15,3.59,0,0-1.93,3.86-5.93.88,0,0-2.45,4.03-6.08.18,0,0-3.71.79-4.67-3.51,0,0-4.59-.18-4.08-4.91,0,0-2.89-1.49-1.85-5,0,0-4.08-2.02-2.37-7.54,0,0-2-6.49.67-9.91,0,0,1.19-4.56,2.89-5.35Z"/><path class="cls-17" d="M13.22,142.33s-2.74,6.14-.74,9.03c0,0-1.11,5,.74,6.4,0,0,0,5.61,3.48,5.52,0,0,.82,3.51,4.59,3.42,0,0,1.56,3.42,5.48,2.1,0,0,3.48,1.84,6.22-1.32,0,0,3.26.53,4.37-3.68,0,0,3.04-.44,3.78-4.65,0,0,2.3-1.49,1.41-6.05,0,0,.44-6.31-1.56-10.87,0,0,3.38,2.6,3.61,6.37,0,0,2.03,5.03-.2,8.27,0,0,1.63,2.63-.59,5.35,0,0,1.56,4.91-2.3,6.23,0,0,.15,5.52-2.74,5.44,0,0-.3,4.56-4.15,3.59,0,0-1.93,3.86-5.93.88,0,0-2.45,4.03-6.08.18,0,0-3.71.79-4.67-3.51,0,0-4.59-.18-4.08-4.91,0,0-2.89-1.49-1.85-5,0,0-4.08-2.02-2.37-7.54,0,0-2-6.49.67-9.91,0,0,1.19-4.56,2.89-5.35Z"/><path class="cls-17" d="M14.4,157.15s-.36-5.18,4.33-9.7c5.66-5.45,21.47-5.68,26.07-.58,3.91,4.33,4.79,6.9,5.2,9.12,0,0,1.34-.76,1.4-1.34.06-.58-3.86-17.89-22.15-14.32-18.3,3.57-16.95,15.02-16.13,16.02.82.99,1.28.81,1.28.81Z"/><path class="cls-11" d="M10.28,157.09s-6.49-3.62,5.55-22.91c0,0-3.27.09-6.61,2.28-3.33,2.19-4.91,3.33-5.44,1.84-.53-1.49,6.14-11.31,9.73-14.38,3.59-3.07,10.17-5.79,21.39-3.86,11.22,1.93,14.24,14.74,16.13,18.94,2.08,4.59,3.95,14.55,2.28,18.33-13.54,5.56-27.97,4.9-43.05-.23Z"/><path class="cls-9" d="M55.9,192.43c-.11.01-.22-.06-.27-.2-.92-2.52-2.15-4.84-3.67-6.87-.1-.13-.1-.33,0-.44.1-.11.25-.1.35.03,1.56,2.09,2.83,4.47,3.77,7.06.06.16,0,.34-.12.41-.02.01-.04.02-.06.02Z"/><path class="cls-14" d="M15.79,134.41c-.05,0-.11-.02-.15-.05-.11-.08-.13-.24-.04-.35,1.65-2.11,4.11-3.6,6.75-4.09.13-.03.26.06.29.2.02.13-.06.26-.2.29-2.52.47-4.87,1.89-6.45,3.91-.05.06-.12.09-.19.09Z"/><path class="cls-14" d="M53.83,149.57c.05-.03.1-.08.12-.14.06-.14,0-.3-.15-.35-2.82-1.01-6.11-.95-9.01.15-.14.05-.23.21-.18.35.05.14.21.21.36.15,2.78-1.05,5.91-1.11,8.61-.15.08.03.17.02.25-.03Z"/></g></g></g></g></svg>