<?xml version="1.0" encoding="UTF-8"?><svg xmlns="http://www.w3.org/2000/svg" xmlns:xlink="http://www.w3.org/1999/xlink" viewBox="0 0 190 199.71"><defs><style>.cls-1{fill:url(#DÈgradÈ_sans_nom_197);opacity:.8;}.cls-1,.cls-2,.cls-3,.cls-4,.cls-5,.cls-6,.cls-7,.cls-8,.cls-9,.cls-10,.cls-11,.cls-12,.cls-13,.cls-14,.cls-15,.cls-16,.cls-17,.cls-18,.cls-19,.cls-20,.cls-21,.cls-22,.cls-23,.cls-24,.cls-25,.cls-26,.cls-27,.cls-28,.cls-29,.cls-30,.cls-31,.cls-32,.cls-33,.cls-34,.cls-35,.cls-36,.cls-37,.cls-38,.cls-39,.cls-40,.cls-41,.cls-42,.cls-43,.cls-44,.cls-45,.cls-46,.cls-47,.cls-48,.cls-49,.cls-50,.cls-51,.cls-52,.cls-53,.cls-54,.cls-55,.cls-56{stroke-width:0px;}.cls-2{opacity:.26;}.cls-2,.cls-3,.cls-8,.cls-25,.cls-30,.cls-31,.cls-41,.cls-44,.cls-47{fill:#fff;}.cls-2,.cls-4,.cls-16,.cls-39,.cls-49{mix-blend-mode:overlay;}.cls-3{opacity:.79;}.cls-4{opacity:.22;}.cls-4,.cls-16{fill:#1d0c70;}.cls-57{filter:url(#luminosity-noclip-3);}.cls-5{fill:url(#DÈgradÈ_sans_nom_2343);}.cls-6{fill:url(#DÈgradÈ_sans_nom_2341);}.cls-7{fill:url(#DÈgradÈ_sans_nom_2342);}.cls-8{opacity:.36;}.cls-9{fill:#7fb3d4;}.cls-10{fill:#ff8c80;}.cls-58{mask:url(#mask);}.cls-11{fill:#ff977b;}.cls-59{filter:url(#luminosity-noclip);}.cls-12{fill:#ffb9a9;}.cls-13{fill:#eaa028;}.cls-14{fill:#f9401c;}.cls-15{fill:#6f7f87;}.cls-16,.cls-60{opacity:.38;}.cls-17{fill:url(#DÈgradÈ_sans_nom_48);}.cls-18{fill:#acd6ef;}.cls-19{fill:#efb04d;}.cls-20{fill:#ea8249;}.cls-21{fill:#cae4f9;}.cls-22{fill:#4f392f;}.cls-23{fill:#f7c87d;}.cls-24{fill:url(#DÈgradÈ_sans_nom_2341-2);}.cls-25{opacity:.51;}.cls-26{opacity:.08;}.cls-26,.cls-39,.cls-49{fill:#000;}.cls-26,.cls-42,.cls-45,.cls-46,.cls-60{mix-blend-mode:multiply;}.cls-27{fill:#848112;}.cls-28{fill:#78a9c4;}.cls-29{fill:#ffca36;}.cls-30{opacity:.28;}.cls-31{opacity:.27;}.cls-32{fill:#ffe5e1;}.cls-33{fill:#f7d237;}.cls-34{fill:#feab86;}.cls-61{opacity:.69;}.cls-35{fill:#c44344;}.cls-36{fill:url(#DÈgradÈ_sans_nom_179);}.cls-37{fill:url(#DÈgradÈ_sans_nom_183);}.cls-38{fill:#82571d;}.cls-39{opacity:.33;}.cls-40{fill:url(#DÈgradÈ_sans_nom_179-2);}.cls-41{opacity:.9;}.cls-42{fill:url(#DÈgradÈ_sans_nom_52);opacity:.48;}.cls-43{fill:#ffefeb;}.cls-62{isolation:isolate;}.cls-44{opacity:.46;}.cls-45{fill:url(#DÈgradÈ_sans_nom_2);}.cls-46{fill:url(#DÈgradÈ_sans_nom_3);}.cls-48{fill:#444100;}.cls-49{opacity:.16;}.cls-50{fill:#e0a54f;}.cls-63{mask:url(#mask-3);}.cls-64{mask:url(#mask-2);}.cls-65{mask:url(#mask-1);}.cls-51{fill:#f2c819;}.cls-52{fill:#d86e39;}.cls-53{fill:#ffdda7;}.cls-54{fill:#ee8ab2;}.cls-55{fill:#ff5e47;}.cls-56{fill:#fff6f3;}</style><linearGradient id="DÈgradÈ_sans_nom_2343" x1="95" y1="161.92" x2="95" y2="134.46" gradientUnits="userSpaceOnUse"><stop offset="0" stop-color="#debc7d"/><stop offset="1" stop-color="#f4dbac"/></linearGradient><linearGradient id="DÈgradÈ_sans_nom_48" x1="94.5" y1="93.36" x2="96.35" y2="-44.53" gradientUnits="userSpaceOnUse"><stop offset="0" stop-color="#82f0fa"/><stop offset="1" stop-color="#00c7f0"/></linearGradient><linearGradient id="DÈgradÈ_sans_nom_179" x1="143.27" y1="104.72" x2="138.05" y2="64.28" gradientUnits="userSpaceOnUse"><stop offset="0" stop-color="#8fe8ff"/><stop offset=".96" stop-color="#fff"/></linearGradient><linearGradient id="DÈgradÈ_sans_nom_179-2" x1="37.22" y1="117.64" x2="43.32" y2="69.86" xlink:href="#DÈgradÈ_sans_nom_179"/><linearGradient id="DÈgradÈ_sans_nom_183" x1="95.46" y1="130.55" x2="94.52" y2="83.94" gradientUnits="userSpaceOnUse"><stop offset="0" stop-color="#76cccb"/><stop offset="1" stop-color="#198cbd"/></linearGradient><filter id="luminosity-noclip" x="0" y="89.18" width="190" height="8.38" color-interpolation-filters="sRGB" filterUnits="userSpaceOnUse"><feFlood flood-color="#fff" result="bg"/><feBlend in="SourceGraphic" in2="bg"/></filter><filter id="luminosity-noclip-2" x="0" y="-6294.46" width="190" height="32766" color-interpolation-filters="sRGB" filterUnits="userSpaceOnUse"><feFlood flood-color="#fff" result="bg"/><feBlend in="SourceGraphic" in2="bg"/></filter><mask id="mask-1" x="0" y="-6294.46" width="190" height="32766" maskUnits="userSpaceOnUse"/><linearGradient id="DÈgradÈ_sans_nom_3" x1="95" y1="89.18" x2="95" y2="97.74" gradientUnits="userSpaceOnUse"><stop offset="0" stop-color="#fff"/><stop offset=".06" stop-color="#e4e4e4"/><stop offset=".2" stop-color="#afafaf"/><stop offset=".33" stop-color="#818181"/><stop offset=".47" stop-color="#5c5c5c"/><stop offset=".61" stop-color="#3f3f3f"/><stop offset=".74" stop-color="#2a2a2a"/><stop offset=".87" stop-color="#1e1e1e"/><stop offset="1" stop-color="#1a1a1a"/></linearGradient><mask id="mask" x="0" y="89.18" width="190" height="8.38" maskUnits="userSpaceOnUse"><g class="cls-59"><g class="cls-65"><rect class="cls-46" y="89.18" width="190" height="8.38"/></g></g></mask><linearGradient id="DÈgradÈ_sans_nom_52" x1="95" y1="89.18" x2="95" y2="97.74" gradientUnits="userSpaceOnUse"><stop offset="0" stop-color="#006191"/><stop offset=".09" stop-color="#1e7ba3"/><stop offset=".24" stop-color="#4ba3bf"/><stop offset=".4" stop-color="#70c4d6"/><stop offset=".55" stop-color="#8ddee8"/><stop offset=".71" stop-color="#a2f0f4"/><stop offset=".86" stop-color="#aefbfc"/><stop offset="1" stop-color="#b3ffff"/></linearGradient><filter id="luminosity-noclip-3" x="0" y="115.58" width="190" height="17.83" color-interpolation-filters="sRGB" filterUnits="userSpaceOnUse"><feFlood flood-color="#fff" result="bg"/><feBlend in="SourceGraphic" in2="bg"/></filter><filter id="luminosity-noclip-4" x="0" y="-6294.46" width="190" height="32766" color-interpolation-filters="sRGB" filterUnits="userSpaceOnUse"><feFlood flood-color="#fff" result="bg"/><feBlend in="SourceGraphic" in2="bg"/></filter><mask id="mask-3" x="0" y="-6294.46" width="190" height="32766" maskUnits="userSpaceOnUse"/><linearGradient id="DÈgradÈ_sans_nom_2" x1="94.79" y1="133.55" x2="95.01" y2="120.44" gradientUnits="userSpaceOnUse"><stop offset="0" stop-color="#fff"/><stop offset="1" stop-color="#333"/></linearGradient><mask id="mask-2" x="0" y="115.58" width="190" height="17.83" maskUnits="userSpaceOnUse"><g class="cls-57"><g class="cls-63"><path class="cls-45" d="M190,118.53c-9.08,1.85-18.62,2.06-27.8.58-5.91-.96-11.87-2.61-17.81-1.8-3.39.46-6.62,1.71-10.04,1.94-4.1.27-8.17-.93-12.28-.76-6.44.28-12.16,3.91-18.59,4.34-6.71.45-13.12-2.63-19.85-2.82-3.81-.11-7.59.72-11.41.63-2.98-.07-5.91-.7-8.89-.81-3.87-.14-7.7.59-11.55.91-17.15,1.44-33.94-5.28-51.18-5.15-.2,0-.4.01-.6.02v8.15c11.62-.7,23.31,1.87,34.51,4.82,6.66,1.76,13.53,3.68,20.45,2.96,6.08-.63,11.65-3.25,17.67-4.16,6.99-1.06,14.19.24,20.89,2.24,4.58,1.37,9.09,3.08,13.91,3.57,3.89.39,9.2.31,12.99-.69,4.84-1.28,8.93-3.95,13.67-5.34,5.01-1.47,10.52-1.23,15.68-.59,6.73.83,13.27,2.18,20.05,1.43,6.64-.73,13.46-.86,20.18-1.16v-8.31Z"/></g></g></mask><linearGradient id="DÈgradÈ_sans_nom_197" x1="94.79" y1="133.55" x2="95.01" y2="120.44" gradientUnits="userSpaceOnUse"><stop offset="0" stop-color="#fff"/><stop offset="1" stop-color="#fff"/></linearGradient><linearGradient id="DÈgradÈ_sans_nom_2342" x1="94.72" y1="147.72" x2="95.96" y2="209.5" gradientUnits="userSpaceOnUse"><stop offset="0" stop-color="#f9e7c2"/><stop offset="1" stop-color="#daae63"/></linearGradient><linearGradient id="DÈgradÈ_sans_nom_2341" x1="161.26" y1="160.61" x2="167.16" y2="210.57" gradientUnits="userSpaceOnUse"><stop offset="0" stop-color="#fbf4d4"/><stop offset="1" stop-color="#daae63"/></linearGradient><linearGradient id="DÈgradÈ_sans_nom_2341-2" x1="39.38" y1="156.57" x2="35.45" y2="231.83" xlink:href="#DÈgradÈ_sans_nom_2341"/></defs><g class="cls-62"><g id="Layer_2"><g id="Image_4"><path class="cls-5" d="M166.34,120.65c-7.85.35-15.67.8-23.5,1.15.35,3.55-1.22,7.11-1.22,10.66,0-3.55,1.57-7.11,1.22-10.66-3.72.17-7.43.32-11.15.42-21.23.55-42.5.45-63.72-.32C45.1,121.07,22.66,118.7,0,116.68v55.34c.13.04.27.07.4.11,13.4,3.54,27.64,4.83,41.78,5.73,48.65,3.1,97.62,1.85,146.31-.84.5-.03,1-.06,1.51-.1v-56.68c-7.7-.74-15.98.07-23.66.41Z"/><rect class="cls-17" width="190" height="111.86"/><g class="cls-61"><path class="cls-47" d="M88.58,67.01c-.43.34-.64.73-.72,1.21-.22-.14-.49-.28-.54-.3-.33-.12-.69-.15-1.05-.14-.83.02-1.7.24-2.24.78.91-.32,1.81-.28,2.74-.07.34.08.68.15,1.02.19.33.04.43.03.59-.23.28-.47.63-.96,1.04-1.37.19-.19.41-.36.65-.5.15-.09.55-.36.75-.34-.85-.06-1.65.3-2.24.77Z"/><path class="cls-47" d="M76.46,65.99c-.61.34-.95.77-1.17,1.34-.24-.2-.53-.42-.58-.45-.37-.19-.8-.29-1.23-.34-1-.11-2.12.01-2.9.57,1.18-.24,2.26-.04,3.33.37.39.15.78.29,1.19.4.39.11.52.11.77-.18.46-.53,1-1.06,1.6-1.48.28-.19.58-.37.9-.5.21-.09.75-.34.99-.29-1.01-.21-2.07.09-2.9.56Z"/><path class="cls-47" d="M105.86,76.66c-.45.1-.76.3-1.03.6-.09-.16-.21-.34-.23-.37-.17-.18-.4-.31-.65-.41-.57-.23-1.26-.35-1.87-.15.76.06,1.35.35,1.89.78.19.15.39.3.61.44.2.13.28.15.5.02.41-.24.86-.46,1.33-.61.21-.07.44-.12.66-.15.15-.02.53-.08.66,0-.54-.3-1.25-.29-1.87-.16Z"/><path class="cls-47" d="M89.04,57.39c-.48.14-.79.38-1.05.73-.12-.17-.27-.37-.3-.4-.21-.19-.48-.32-.76-.42-.65-.23-1.42-.32-2.06-.06.84.02,1.52.32,2.17.76.23.16.47.32.72.46.24.13.33.15.55,0,.41-.29.88-.57,1.36-.76.22-.09.46-.16.71-.2.16-.03.57-.12.72-.05-.64-.3-1.41-.26-2.06-.07Z"/><path class="cls-47" d="M133.2,65.93c-.51.02-.91.17-1.3.45-.05-.19-.12-.41-.14-.44-.13-.23-.34-.41-.58-.57-.55-.37-1.26-.63-1.97-.53.81.21,1.36.65,1.81,1.22.16.2.34.41.53.59.18.18.26.22.53.12.51-.17,1.07-.33,1.61-.4.25-.03.51-.04.76-.03.16.01.6.02.72.12-.5-.43-1.27-.57-1.97-.54Z"/><path class="cls-47" d="M98.1,62.22c-.48.18-.79.44-1.03.82-.13-.16-.3-.35-.34-.38-.23-.17-.51-.29-.81-.36-.69-.18-1.49-.21-2.12.1.86-.04,1.59.2,2.28.6.25.14.5.28.77.4.25.12.35.13.57-.05.4-.32.86-.64,1.35-.87.22-.11.46-.2.71-.26.16-.04.58-.16.74-.1-.67-.25-1.46-.15-2.12.09Z"/><path class="cls-47" d="M100.84,80.31c-.39.29-.58.62-.66,1.04-.19-.12-.42-.26-.46-.27-.29-.11-.6-.14-.91-.14-.72,0-1.49.17-1.98.63.8-.26,1.59-.21,2.39,0,.29.07.59.14.89.19.29.04.38.03.52-.19.26-.41.58-.83.95-1.17.17-.16.37-.3.58-.43.14-.08.49-.3.66-.29-.74-.07-1.45.23-1.98.63Z"/><path class="cls-47" d="M122.36,57.33c-.52.05-.91.23-1.28.54-.07-.19-.16-.41-.19-.44-.16-.22-.39-.4-.64-.54-.59-.34-1.34-.56-2.06-.42.84.17,1.44.58,1.96,1.13.19.2.38.39.59.57.2.17.28.21.56.09.5-.21,1.06-.4,1.61-.51.25-.05.51-.08.77-.07.17,0,.61-.02.74.08-.55-.41-1.34-.5-2.06-.42Z"/><path class="cls-47" d="M72.78,60.35c-.51.06-.89.25-1.23.56-.08-.19-.19-.41-.21-.44-.17-.22-.41-.4-.67-.54-.61-.33-1.36-.55-2.06-.39.84.16,1.46.57,2.01,1.12.2.2.4.39.62.57.21.17.29.21.56.09.48-.22,1.02-.42,1.56-.53.25-.05.5-.08.76-.08.16,0,.6-.02.74.07-.57-.4-1.36-.48-2.06-.4Z"/><path class="cls-47" d="M91.29,75.89c-.33.33-.46.69-.47,1.11-.21-.1-.46-.2-.51-.21-.3-.07-.62-.07-.92-.03-.71.09-1.44.36-1.84.87.75-.36,1.53-.4,2.37-.3.3.04.61.07.91.08.29,0,.38-.01.48-.25.18-.44.42-.89.73-1.28.14-.18.31-.35.49-.49.12-.09.43-.36.6-.36-.74.02-1.39.4-1.84.86Z"/><path class="cls-47" d="M101.1,73.34c-.6.18-1.01.49-1.35.94-.14-.21-.32-.45-.36-.48-.26-.23-.59-.38-.94-.5-.81-.26-1.77-.35-2.58-.01,1.05,0,1.9.35,2.68.88.28.19.58.38.88.54.29.16.4.18.69-.02.53-.37,1.13-.72,1.75-.98.29-.12.58-.21.89-.27.2-.04.72-.16.9-.08-.78-.35-1.75-.27-2.58-.02Z"/><path class="cls-47" d="M119.78,74.16c-.41.4-.56.83-.58,1.35-.26-.12-.56-.25-.62-.26-.37-.09-.75-.08-1.13-.04-.87.11-1.76.43-2.24,1.05.91-.43,1.87-.48,2.89-.35.37.05.74.08,1.11.1.35.01.46-.01.59-.3.23-.53.52-1.08.89-1.55.17-.22.37-.42.61-.6.15-.11.52-.43.73-.44-.9.02-1.69.49-2.25,1.04Z"/></g><path class="cls-8" d="M89.09,91.72c-.67-.29-1.82-.33-2.84-.13-.91-1.09-2.39-1.8-3.77-1.25-.26-.22-.54-.42-.83-.6-.23-2.2-1.26-4.17-3.39-5.65-2.13-1.48-6.38-1.71-8.21.36.67-.76.47-1.94-.43-2.51-.9-.58-2.35-.45-3.09.26.4-.59.82-1.26.61-1.91-.21-.65-1.42-1.04-1.88-.48.24-.45-.06-1.04-.63-1.21-.39-.12-.84-.02-1.15.2.46-.88-.38-2.11-1.59-2.42-1.39-.36-2.88.11-4.17.68,1.13-1.49.04-3.61-1.86-4.43-1.9-.81-4.25-.55-6.21.17-1.46.54-2.82,1.35-3.65,2.47.4-1.76-.76-3.69-2.72-4.49-1.96-.81-4.55-.43-6.04.88.22-.74.43-1.53.14-2.26-.29-.73-1.3-1.31-2.16-1.02.27-.39.26-.89-.02-1.28-.57.03-1.13.15-1.65.35,1.39-1.3,1.07-3.57-.64-4.58-1.71-1.01-4.44-.55-5.52.94.99-1.93-.18-4.44-2.53-5.28-2.35-.84-5.45.2-6.33,2.16.15-.6-.34-1.26-1.06-1.42-.72-.16-1.56.19-1.81.77.07-.89-.78-1.77-1.86-1.91-1.08-.15-2.23.46-2.51,1.32-.02-2.56-1.07-5.25-3.49-6.87-2.41-1.61-5.34-1.53-7.82-.5v53.53c5.71,1.28,12.34.61,18.13-.01,11.12-1.21,22.28-1.73,33.41-2.81,9.4-.92,19-.5,28.36-1.54,3.57-.4,9.68-.49,10.73-3.9.11-.36.21-.8.26-1.26.2-1.62-.09-3.62-1.8-4.37ZM70.96,92.55c.05-.09.1-.18.14-.27h.06c-.07.1-.13.18-.19.27ZM90.43,96.52c.03-.05.06-.11.09-.18l.11.02c-.06.05-.13.1-.2.15Z"/><path class="cls-8" d="M190,49.89c-.99-.11-2.08-.06-3.3.23-2.02.48-3.71,1.81-4.36,3.45-.63-1.05-1.9-1.79-3.27-2.14-1.28-.32-7.53-.66-6.66,1.92-.71-2.11-4.33-2.73-6.67-1.66-2.34,1.07-3.61,3.19-4.58,5.23.47-1.24-1.51-2.36-3.04-2-1.53.36-2.5,1.57-3.2,2.74-1.17,1.94-1.98,4.01-2.43,6.14,0-1.22-.93-2.5-2.02-3.32-1.01-.75-2.44-1.19-3.77-.94-1.34.24-2.13,1.15-2.58,2.14-1.4-.55-2.84-.9-4.38-.35-1.49.53-2.59,1.61-3.48,2.73-1.13,1.43-2.03,3.1-1.81,4.79-1.21-4.15-6.08-1.6-6.58,1.42.44-2.62-2.52-5.7-5.74-3.68-.85.54-1.36,1.43-1.31,2.3-.01-.95-.72-1.88-1.77-2.3-4.65-1.9-7.13,3.28-6.26,6.12-1.68-.9-4.14.04-4.97,1.54-.83,1.5-.4,3.27.41,4.77-1.46-.93-3.76-.27-4.82.97-1.06,1.24-1.21,2.84-1.29,4.35-.3-.72-1.71-.67-2.28-.07-.56.61-.51,1.45-.4,2.2,0,.05-5.56,1.03-3.5,3.69-1.21-.95-3.42-.41-4.28.77-2.82,3.82,1.32,7.09,5.12,8.87,10.34,4.85,22.59,6.34,34.51,6.24,11.92-.11,23.74-1.72,35.61-2.67,7.73-.62,15.64-.99,23.08-2.62v-50.87Z"/><path class="cls-36" d="M190,66.67c-.61-1.58-1.89-2.73-4.55-3-2.52-.26-5.13,1.06-6.37,3.21-.78-2.39-3-4.26-5.53-4.67-2.69-.44-6.46.64-7.38,3.42.37-1.13-4.79-.77-5.33-.51-1.79.85-3.16,3.04-3.84,4.79-.31-1.75-2.35-2.94-4.12-2.55-1.77.39-3.06,2.14-3.09,3.92-.7-1.16-2.1-1.89-3.48-1.8-1.28.08-2.22.93-3.14,1.59-1.14-1.31-2.79-2.04-4.57-1.68-3.93.78-7.57,4.43-8.36,8.22-.54-1.65-2.75-2.35-4.4-1.74-1.66.61-2.77,2.19-3.33,3.83-.27-.69-.99-1.18-1.75-1.18-.75,0-1.48.49-1.75,1.18-.08.2-.14.45-.34.55-.69.37-2.95-.16-3.91.03-1.24.25-2.31.59-3.35,1.35-2.52,1.84-3.36,4.91-5.07,7.35-1.89-3.21-7.19.54-7.23,3.03-1.23-1.69-3.06.6-2.83,1.64-1.49-.91-3.72.73-3.83,1.95-1.9-.62-2.02,1.42-1.54,2.36,2.97,5.77,16.36,3.88,22.11,3.7,9.55-.29,19.09-.48,28.63-1.03,13.61-.77,26.96-1.86,40.58-1.6,2.68.05,5.43.08,7.8-.87v-31.5Z"/><path class="cls-40" d="M83.65,94.23c-.27-.31-2.22-1.29-2.19-.12-.03-1.51-1.61-3.8-2.85-1.22.09-2.71-2.7-3.68-5.14-2.8-1.14.41-1.81,1.4-2.93,1.66-.9.21-3.68-.9-3.91.83.31-2.31-3.96-3.29-4.47-1.03-.33-2.42-1.12-4.47-4.04-4.59-2.82-.12-5.81,1.36-6.33,4.11.16-2.21-4.74-.41-5.06,1.27-1.01-1.63-2.95-5.72-5.63-2.7.22-2.29-2.89-5.77-4.36-2.43.49-1.18.56-2.81-.2-4-.65-1.02-8.13-4.75-8.51-1.8.42-3.25.27-5.86-3.04-7.7-2.32-1.29-6.86-1.46-8.53.9.08-1.16-1.18-1.4-2.13-.91-.08.17-.03.34-.09.51-.26-1.5-.33-3.16-2.13-3.8-1.29-.46-3.11.23-3.49,1.04-.02-3.99-1.66-7.77-6.76-7.33-.64.06-1.26.17-1.84.34v40.04c1.42.11,2.98.09,4.64.02,10.98-.46,21.99-1.08,32.96-1.71,12.56-.73,24.99-1.69,37.37-3.73,1.27-.21,2.94-.82,4.22-.76.82.04,1.74.8,2.46.76,1.22-.07,1.59-.6,2.03-1.67.3-.73.56-2.5-.03-3.18Z"/><path class="cls-26" d="M94.39,122.34c-9.12-.11-18.34-.22-27.26,1.43-10.43,1.92-20.22,6.2-30.82,7.23,3.31.77,6.7,1.23,10.08,1.72,2.99.44,6.07,1.51,9.05,1.57,5.63.11,10.88-1.87,16.28-3.03,1.01-.22,2.03-.41,3.05-.55,4.76-.66,9.67-.27,14.27.94,4.45,1.17,8.3,3.01,12.99,3.61,9.62,1.23,19.47-.62,28.54-3.31,3.76-1.11,7.53-2.38,11.41-2.99.36-1.93.84-3.87.88-5.8-16.16-.43-32.32-.63-48.48-.82Z"/><path class="cls-26" d="M171.69,124.22c-9.6-.46-19.21-.8-28.82-1.05-.05,1.93-.53,3.87-.88,5.8,1.42-.22,2.85-.37,4.3-.38,4.46-.03,8.81,1.16,13.26,1.44,10.28.66,20.18-3.47,30.44-4.18v-.33c-6.08-.66-12.19-1.01-18.31-1.31Z"/><path class="cls-37" d="M0,89.18v37.23c1.59.2,4.25-.42,5.56-.48,5.02-.24,10.06-.13,15.05.33,4.2.39,8.33,1.28,12.52,1.65,3.67.33,7.11,1.87,10.75,2.54,5.98,1.1,12.23.87,18.2-.27,2.28-.43,4.53-1,6.77-1.56,4.34-1.09,8.46-1.56,13.01-1.33,2.87.15,5.7.58,8.51,1.06,1.26.22,2.73.31,3.94.67,1.2.36,2.3,1.03,3.5,1.43,4.88,1.67,10.27,2.04,15.46,1.53,5.9-.58,11.37-2.31,16.85-4.18,2.21-.75,4.94-.87,7.3-1.21,1.69-.24,3.4-.41,5.12-.51.34-1.88.53-3.75.06-5.63.47,1.88.28,3.75-.06,5.63,1.28-.07,2.56-.1,3.84-.05,5.29.19,10.42,1.5,15.68,2,5.55.53,11.16.14,16.67-.55,2.42-.3,5.27-1.16,7.71-.97,1.29.1,2.33.6,3.55.61v-37.96H0Z"/><g class="cls-60"><path class="cls-16" d="M186.97,92.56c-2.27-.22-4.78-.31-6.98-.82,1.68.34,6.06.32,10.01-.18v-2.39H29c-9.29,0-18.63-.25-27.91,0-.35,0-.72,0-1.08,0v.99c2.12.76,6.99.36,7.99.32,2.15-.07,4.2-.32,6.31-.54.58-.06,1.16-.08,1.75-.08.67,0,1.35.03,2.02.05-3.3.04-7.06.19-9.23,1.17,3.66.92,8.53-.02,12.39-.25.22-.01.43-.02.64-.03,3.81-.14,10.19-.96,13.83,0-2.62-.65-7.55.26-10.22.35-4.65.17-9.19.67-13.75,1.02,1.64.65,4.56.18,6.36,0,4.44-.45,8.67-.73,13.13-.53,4.64.2,10.34-.6,14.88.33-1.7-.25-4.08-.02-5.52.04-4.08.17-8.43.64-12.39,1.44,1.91.65,5.9.13,8.29.17,2.49.04,5.13.1,7.64.4-2.22-.03-4.5.68-6.65.89-3.43.33-6.89.33-10.34.5-1.19.06-2.49.16-3.83.25,2.03-.09,4.08-.16,6.11-.08,3.82.15,8.18-.16,12.08.2-2.84-.07-6.3.8-8.83,1.09-4.64.53-9.26,1.07-13.95,1.02,3.61,1.58,9.7.33,13.6.36,3.46.03,6.98.21,10.45.35,1.5.06,3.86,0,5.09.34-1.63-.41-4-.07-5.73.07-2.36.19-6.17.48-8.18,1.17,5.08.79,10.84.61,16.07.57-2.91.54-6.33.65-9.09,1.21,6.18.38,12.57.29,18.74.06,3.34-.13,7.17-.59,10.46-.16-.98.49-5.07,1.27-6.22,1.05,7.37,1.72,16.72-.38,24.29-.73-1.53-.88-3.49-.7-5.27-.63-2.91.11-5.82.09-8.74.09,2.05-.06,5.02-.96,7.22-1.24-6.38-1.5-14.25,1.02-20.62-.5,5.73-.26,12.1-.59,17.66-1.82-1.49-.99-5.78-.47-7.76-.54-2.87-.1-5.84-.16-8.67-.69,4.05.71,9.56-.55,13.68-.72,2.89-.12,5.78-.57,8.66-.86,2.06-.21,4.6.09,6.51-.53-2.97-.88-6.92.02-10.06-.06-3-.07-6.14-.14-9.1-.52,2.7.14,5.43-.54,8.13-.67,10.21-.49,20.42-.24,30.62.35-4.6,1.2-11.06-.23-15.62,1.53,5.17,1.48,11.73-1.03,16.88.76-1.38-.02-2.76-.05-4.01.31,1.75.46,4,.27,5.84.41,1.67.13,3.35.33,5,.36-2.47.12-5.25.71-7.54,1.04.09.08.18.23.17.34,5.67.06,11.56.05,17.17-.19-2.85.12-5.64.88-8.34,1.63,2.43-.63,9.29-.82,11.34.55-.7.03-1.13.2-1.81.35,2.78.75,6.68-.02,9.5-.08-1.54-1.06-3.8-.38-5.58-.78,1.33-.2,3.04-.34,4.22-.94-1.74-.33-4.77.29-5.78-1.2,2.9-1.58,8.29-1.08,11.68-1.96-4.44-.53-9.74,1.61-14.04.37,1.4-.57,3.74-.24,5.3-.59-2.67-.66-5.39-.16-7.9-1.42,2.8-.81,7.81-.78,10.85-.71-2.06-.94-6-.66-8.52-1.65,7.02-1.19,16.04.23,23.46.23-1.79.12-3.64.47-5.31,1.02,2.98.97,7.1-.39,9.89,1.16-1.52.29-3.66.46-4.93,1.16,3.79.39,7.72.55,11.48,1.11-1.3-.02-2.58.3-3.83.59,2.27-.26,5.44.17,8,.13,3.19-.06,6.36-.36,9.58-.36-3.29.17-8.04.22-11,1.39,6.35.17,13.22.95,19.56.53-2.55-1.45-7.18.09-9.79-1.17.44-.09.88-.15,1.33-.2,2.72-.32,5.62-.13,8.19-.91-4.1-1.18-9.42.39-13.45-1.21,4.42-.25,9.81.35,13.96-.89-2.75-.08-6.49-.17-8.89-1.26,2.87-.55,6.51-.86,9.49-.74Z"/><path class="cls-4" d="M19.67,95.87c-1.6.18-3.26.45-4.67-.11,1.44.15,3.03.16,4.67.11Z"/><path class="cls-4" d="M20.91,95.77c.79-.03,1.58-.07,2.38-.1-1.19.08-2.41.16-3.62.2.42-.04.84-.08,1.24-.1Z"/></g><g class="cls-58"><rect class="cls-42" y="89.18" width="190" height="8.38"/></g><g class="cls-64"><path class="cls-1" d="M162.2,119.11c-5.91-.96-11.87-2.61-17.81-1.8-3.39.46-6.62,1.71-10.04,1.94-4.1.27-8.17-.93-12.28-.76-6.44.28-12.16,3.91-18.59,4.34-6.71.45-13.12-2.63-19.85-2.82-3.81-.11-7.59.72-11.41.63-2.98-.07-5.91-.7-8.89-.81-3.87-.14-7.7.59-11.55.91-17.15,1.44-33.94-5.28-51.17-5.15-.2,0-.4.01-.6.02v8.15c11.62-.7,23.31,1.87,34.51,4.82,6.66,1.76,13.53,3.68,20.45,2.96,6.08-.63,11.65-3.25,17.67-4.16,6.99-1.06,14.19.24,20.89,2.24,4.58,1.37,9.09,3.08,13.91,3.57,3.89.39,9.2.31,12.99-.69,4.84-1.28,8.93-3.95,13.67-5.34,2.72-.8,5.58-1.08,8.46-1.08.33-1.87.53-3.75.06-5.62.47,1.87.28,3.75-.06,5.62,2.43,0,4.86.2,7.22.49,6.73.83,13.27,2.18,20.05,1.43,6.64-.73,13.46-.86,20.18-1.16v-8.31c-9.08,1.85-18.62,2.06-27.8.58Z"/></g><path class="cls-31" d="M142.64,120.61c-.14-.07-.28-.15-.43-.21-3.04-1.35-6.78-.82-9.72.34-2.12.84-4.25,1.94-6.6,1.83-2.35-.11-4.26-1.03-6.66-.72-2.36.31-4.7,1.13-6.93,1.81-2.54.78-5.04,1.42-7.7.73-2.39-.61-4.59-2.12-7.21-2.02-1.55.06-3.07.73-4.58.43-1.06-.21-1.9-.87-2.9-1.23-2.36-.85-5.06.05-7.4.92-2.34.87-5.09,1.73-7.4.8-.82-.33-1.5-.86-2.3-1.22-2.67-1.19-5.92-.23-8.9.28-3.29.56-6.73.53-10-.09-3.34-.63-5.47-1.35-8.92-.27-1.12.35-2.26.81-3.45.7-1.32-.12-2.39-.91-3.64-1.27-2.78-.79-5.7.46-8.5.33-2.68-.13-4.76-1.76-7.14-2.59-4.1-1.43-9.19-.62-13.17.63-2.98.93-6.21,1.76-9.08,3.02v1.71c2.61-.13,6.05-1.69,7.63-2.36,2.88-1.22,6.01-2.55,9.29-2.75,1.64-.1,3.41.08,4.71.98,1.38.96,1.89,2.59,3.43,3.44,1.37.76,3.23.51,4.79.04,1.56-.47,3.11-1.12,4.77-1.09,1.6.03,2.68.9,4.14,1.24,1.77.42,2.83-.18,4.41-.83,1.63-.67,3.55-.88,5.34-.58,1.6.27,3.08.92,4.68,1.18,5.97.99,10.9-2.7,16.94-.32,1.51.59,2.92,1.45,4.58,1.63,2.04.23,4-.6,5.88-1.28,2.24-.81,4.75-1.45,7.12-.96,1.67.35,3.2,1.24,4.93,1.22,1.37-.01,2.65-.61,4.02-.62,3.53-.02,5.88,3.71,9.41,3.58,1.88-.07,3.37-1.23,4.94-2.07,2.72-1.46,7.39-2.36,10.63-2,.91.1,1.76.39,2.67.51,2.58.34,5.08-.73,7.49-1.58,2.4-.85,5.32-1.45,7.52-.29.73.39,1.32.95,2.08,1.29.48.22.98.33,1.5.38.03-.91-.03-1.81-.24-2.72Z"/><path class="cls-31" d="M181.96,120.76c-2.16.34-4.32-.43-6.5-.65-5.79-.6-12.02,2.83-17.54.31-.74-.34-1.41-.81-2.22-1.02-1.9-.52-3.87.46-5.62,1.26-1.45.67-3.65,1.24-5.32.87-.78-.17-1.43-.57-2.12-.92.21.91.27,1.81.24,2.72,1.59.14,3.32-.42,4.8-1.05,1.96-.83,4.1-1.81,6.25-1.4,1.91.36,3.34,1.76,5.25,2.12,2.51.48,4.55-.67,6.89-1.1,2.7-.5,5.58-.33,8.15.52,1.28.43,2.52,1.02,3.89,1.12,1.31.1,2.61-.26,3.83-.67,1.41-.48,2.77-1.03,4.09-1.65,1.38-.66,2.65-.64,3.98-1v-1.53c-2.29-.32-7.06,1.93-8.04,2.08Z"/><path class="cls-41" d="M131.47,126.14c-1.28.53-2.48,1.33-3.9,1.43-.87.06-1.72-.16-2.59-.21-4.62-.3-8.76,3.9-13.23,2.85-1.93-.46-3.41-1.83-5.32-2.36-2.93-.81-6.01.55-9.05.96-2.2.3-4.48.08-6.56-.6-2.17-.71-4.1-1.12-6.44-1.41-4.69-.58-9.49-.76-14.16.1-1.85.34-3.74,1.04-5.61,1.14-1.99.11-3.97-.27-5.95-.34-1.83-.06-3.65.13-5.46.38-4.33.61-9.26,2.05-13.53.69-4.41-1.4-8.89-2.69-13.32-4.09C18.01,122.03,8.83,119.51,0,121.94v4.55c.43.38.87.64,1.24.72.92.2,1.89.11,2.84.03,8.16-.67,17.99-1.06,25.96.83,8.03,1.9,15.3,5.22,24,4.59,9.34-.67,18.51-5.78,27.84-4.82,5.3.55,10.45,3.04,15.68,4.53,7.94,2.26,16.12,2.2,24.04-.18,4.88-1.46,9.28-3.68,14.26-4.84,2.15-.5,4.36-.68,6.58-.65.14-.74.27-1.49.35-2.23-3.7.86-7.85.26-11.31,1.68ZM52.62,130.96c-1.48-.03-4.18-.91-5.51-.63,2.04-.43,4.07-.87,6.11-1.3.87-.18,1.74-.37,2.63-.4,1.09-.04,2.17.16,3.24.36.69.13,1.37.25,2.06.38-2.85.7-5.5,1.66-8.53,1.59ZM109.77,131.67c-1.32-.14-2.5-.75-3.78-1.06-.19-.04-.37-.08-.56-.11-1.21-.19-2.45,0-3.68.04-1.23.04-2.56-.09-3.48-.79.32.24,5.22-.8,5.98-.9.64-.09,1.3-.18,1.94-.07.88.14,1.62.63,2.36,1.06,1.06.63,2.19,1.17,3.36,1.63-.68.21-1.42.28-2.13.2ZM123.59,129.28c-1.18.41-2.36.81-3.53,1.23-.87.3-3.05.39-3.68.83,1.39-.98,2.85-1.96,4.49-2.61,1.87-.74,3.59-.52,5.62-.45-.96.34-1.93.68-2.9,1.01Z"/><path class="cls-41" d="M188.32,124.7c-2.7-.35-5.64.11-8.28.53-5.54.89-10.72,1.61-16.36,1.63-1.5,0-3,.01-4.5.02-.82,0-1.66,0-2.43-.23-2.2-.68-3.17-3.02-5.31-3.81-2.57-.95-5.32.71-7.98,1.47-.22.06-.44.1-.66.15-.08.74-.21,1.49-.35,2.23,3.05.03,6.11.44,9.06.99,4.79.89,9.53,2.13,14.45,2.5,4.68.36,8.64-1.41,13.11-1.98,3.39-.44,7.37-.72,10.95-.3v-2.75c-.48-.23-1.01-.36-1.68-.45ZM152.65,126.18c-.24-.09-.48-.18-.73-.27-1.99-.7-4.19-.77-6.34-.74,2.25-.03,2.98-2.38,5.61-1.54.74.24,1.34.7,1.92,1.15,1.01.78,2.07,1.53,3.02,2.36-1.28-.13-2.34-.54-3.47-.96Z"/><path class="cls-25" d="M188.75,122.78c-5.26-.71-10.42,1.78-15.48,2.52-3.04.44-6.32.36-9.35-.07-2.75-.39-5.22-1.72-8.02-1.89-2.81-.17-5.54.97-8.35.83-1.59-.08-3.1-.57-4.68-.72-.04.78-.14,1.56-.27,2.34.5.01,1.01.03,1.51.06,2.09.11,4.15.35,6.23.1,2.1-.26,4.26-.85,6.37-.33.71.17,1.37.47,2.08.62,1.46.32,3.02.03,4.49.3,1.41.26,2.62,1.01,3.91,1.58,2,.88,3.02.53,4.93.05,2.03-.51,4.51-.41,6.62-.67,2.42-.3,5.27-1.16,7.71-.97,1.29.1,2.33.6,3.55.61v-4.07c-.39-.13-.8-.23-1.25-.29Z"/><path class="cls-25" d="M142.83,123.44c-5.68-.51-11.03,3.5-16.63,2.57-2.37-.39-4.53-1.66-6.95-1.6-5.21.12-8.22,4.42-14,3.32-.98-.19-1.92-.56-2.92-.66-2.1-.22-4.14.75-6.25.72-2.95-.04-5.36-1.97-8.24-2.51-3-.56-5.96.34-8.94.35-2.1,0-4.16-.61-6.25-.52-1.73.07-3.38.62-5.07.96-4.11.81-7.51-1.75-11.62-1.24-2.55.31-4.97,1.81-7.46,1.28-.85-.18-1.61-.59-2.46-.78-2.23-.5-4.48.58-6.75.93-2.2.34-4.37-.08-6.3-.98-1.73-.8-2.93-.73-4.84-1.19-2.45-.59-4.9-1.54-7.52-1.26-1.44.16-2.86.69-4.29.47-1.32-.2-2.4-1.01-3.71-1.25-2.12-.38-3.92.79-5.97.88-1.47.06-2.78-.46-4.27-.56-.79-.05-1.6-.09-2.39-.04v4.06c1.59.2,4.25-.42,5.56-.48,5.02-.24,10.06-.13,15.05.33,4.12.38,8.21,1,12.29,1.61,3.38.5,6.42.58,9.82.65,1.25.02,2.48.35,3.73.35,1.96,0,3.79-.8,5.71-1.15,4.97-.89,10.04,1.32,15.1,1.02,2.48-.15,4.74-1.06,7.18-1.3,2.45-.24,4.96-.29,7.42-.16,5.96.31,11.15,2.46,17.12,1.55,3.16-.48,6.55-1.07,9.49.04.99.37,1.9.93,2.97,1.08,2.42.33,4.49-1.52,6.9-1.94,1.91-.33,4.92-1.03,6.8-.65.59.12,1.16.33,1.76.4,1.24.15,2.47-.27,3.66-.62,3.89-1.15,7.97-1.45,12.05-1.34.13-.78.24-1.56.27-2.34-.01,0-.03,0-.04,0Z"/><path class="cls-30" d="M56.61,115.18c3.03-.13,6.05.53,9.07.33,3.44-.22,6.61-1.54,10.07-1.68,5.04-.2,10.42,2.1,14.88.44-4.23.42-8.3-1.36-12.57-1.45-4.8-.11-9.28,1.92-14.08,1.93-2.56,0-5.08-.56-7.65-.52-5.38.07-10.45,2.78-15.74,2.07-.43-.06-.74-.02-.9.27,5.26,2.06,11.49-1.14,16.91-1.38Z"/><path class="cls-30" d="M115.9,114.29c3.65-.76,7.35-1.77,11.17-1.5,2.02.15,3.93.65,5.89,1,4.59.82,9.54.81,14.11-.04-4.76.53-9.71.37-14.37-.45-2.3-.41-4.55-.98-6.93-1.12-3.74-.22-7.41.47-10.98,1.1-2.79.5-6.68,1.64-9.57,1.16,4.11.69,6.62.7,10.68-.15Z"/><path class="cls-30" d="M96.03,109.66c1.64.42,3.26.93,5.09.53.92-.21,1.76-.61,2.66-.89,2.36-.73,4.97-.54,7.45-.15-1.05-.13-2-.62-3.03-.83-2.52-.51-5.05.69-7.62.93-1.64.15-3.29-.08-4.92-.32-1.83-.26-3.05-.44-4.86-.14-.51.08-5.49.83-5.53.12-.17.16.09.39.33.48,2.57.99,4.85-.05,7.44-.14,1.04-.04,2.02.17,3,.42Z"/><g id="beach"><path class="cls-7" d="M181.76,124.22c-7.06,1.53-14.1,4.67-20.93,8.51-9.4,5.28-17.88,12.91-27.36,17.79-.62.32-1.24.62-1.86.9-9.32,4.26-18.68,4.69-28.56,5.44-6.06.47-12.17,0-18.14-1.39-2.58-.6-5.44-1.22-8.23-2.1-2.79-.89-5.5-2.04-7.79-3.71-5.02-3.65-9.93-7.42-14.89-11.21-8.39-6.42-17.54-11.42-27.18-13.86-5.7-1.44-11.56-1.96-17.36-1.37-2.85.29-6.34.62-9.47,1.79v74.7h190v-76.18c-3.03-.35-6.45.3-8.24.69Z"/><path class="cls-2" d="M181.76,124.22c-7.06,1.53-14.1,4.67-20.93,8.51-9.4,5.28-17.88,12.91-27.36,17.79-.62.32-1.24.62-1.86.9-9.32,4.26-18.68,4.69-28.56,5.44-6.06.47-12.17,0-18.14-1.39-2.58-.6-5.44-1.22-8.23-2.1-2.79-.89-5.5-2.04-7.79-3.71-5.02-3.65-9.93-7.42-14.89-11.21-8.39-6.42-17.54-11.42-27.18-13.86-5.7-1.44-11.56-1.96-17.36-1.37-2.85.29-6.34.62-9.47,1.79v11.8c3.78-1.67,7.54-3.46,11.42-4.72,2.1-.68,4.23-1.2,6.38-1.55,6.61-1.09,16.27-1.7,22.19,2.66,7.06,5.19,14.35,10.02,21.55,14.95,1.28.88,2.57,1.7,3.89,2.48,18.36,10.86,39.27,10.43,58.84,5.55,6.38-1.59,12.66-3.86,18.68-6.93,5.87-2.99,11.32-7,17.06-10.29,5.9-3.37,11.88-5.52,18.24-7.05,3.87-.93,7.8-1.53,11.74-1.7v-6.68c-3.03-.35-6.45.3-8.24.69Z"/><path class="cls-49" d="M190,160.73c-1.77-.63-3.65-.81-5.5-.76-14.63.4-26.91,13.01-40.02,21.12-1.9,1.17-3.83,2.25-5.79,3.24-22.76,11.46-50.03,10.62-71.49-4.79-6.04-4.34-11.38-10.11-17.54-14.15-14.44-9.49-30.98-8.53-44.44,3.09-1.84,1.59-3.59,3.37-5.21,5.31v25.92h190v-38.99Z"/></g><g id="sand"><path class="cls-6" d="M190,160.75c-3.34-.16-6.86.47-9.15.84-6.96,1.1-13.75,3.93-19.87,8.22-3.04,2.13-5.91,4.62-8.59,7.4-3.05,3.16-5.85,6.71-8.36,10.54-2.28,3.48-3.87,7.92-6.25,11.22-.19.27-.41.52-.63.76h52.85v-38.97Z"/><path class="cls-39" d="M190,170.12c-3.18,2.4-6.52,4.49-10.06,5.89-2.59,1.02-5.06,1.52-7.51,1.67-4.02.24-7.98-.47-12.26-1.37-4.06-.85-6.67,2.13-9.57,5.37-3.42,3.82-8.49,11.25-9.72,18.03h49.12v-29.6Z"/><path class="cls-24" d="M0,199.71h76.43c-.25-.29-.49-.56-.71-.78-2.16-2.25-4.72-3.79-7.18-5.5-10.68-7.49-19.42-18.6-29.53-27.23-4.11-3.51-8.78-6.72-13.68-8.93-.43-.19-.86-.38-1.29-.56-7.97-3.28-16.45-3.79-24.05,1.35v41.64Z"/><path class="cls-39" d="M0,199.71h73.4c-10.47-8.61-21.27-16.65-30.76-27.09-3.18-3.5-6.46-7.43-10.65-8.85-.28,2.11,1.16,3.39-.9,4.69-2.21,1.39-4.75,2.11-6.53,4.39-1.49,1.91-2.17,4.63-3.64,6.57-1.26,1.67-2.99,2.63-4.68,3.55-5.12,2.79-10.6,3.03-14.18,9.32-.76,1.33-1.45,2.71-2.07,4.15v3.27Z"/></g><path class="cls-28" d="M142.88,122.63s-1.94,1.33-2.33,4-.86,5.57-.86,5.57l-.62,2.52s-1.03,1.27,2.31.79,1.51-12.89,1.51-12.89Z"/><path class="cls-28" d="M142.35,146.92s1.43-1.87.97-4.53-.91-5.56-.91-5.56l-.19-2.59s.58-1.53-2.44-.04,2.58,12.71,2.58,12.71Z"/><path class="cls-9" d="M169.82,137.35c-1.62-1.79-2.18-3.3-3.08-6.05-.76-2.31-1.63-12.58-4.76-12.28-1.76.09-3.19-.03-3.19-.03,0,0-9.01.34-12.37,1.46-1.12.37-2.35,1.21-3.53,2.19-2.43,2.91-4.74,25.14-3.19,26.31.59.44,8.68,2.24,12.21,1.12,3.53-1.12,6.05-2.3,9.91-1.62s6.44-1.51,7.39-2.63c.95-1.12,3.25-2.74,3.47-3.36.22-.62-1.23-3.3-2.86-5.1Z"/><path class="cls-15" d="M169.65,143.64s.04,0,.06-.02c.05-.04.07-.11.03-.16-1.48-2.25-2.64-4.69-3.46-7.26-.02-.06-.08-.1-.15-.08-.06.02-.1.09-.08.15.82,2.59,1.99,5.05,3.48,7.32.02.03.06.05.1.05Z"/><path class="cls-15" d="M157.13,147.03s.03,0,.05-.01c.06-.03.09-.1.06-.16-.23-.51-.37-1.08-.39-1.64,0-.06-.05-.12-.12-.11-.06,0-.12.06-.11.12.03.59.17,1.18.42,1.72.02.04.06.07.11.07Z"/><path class="cls-15" d="M142.72,147.41c.05,0,.1-.03.11-.08.93-3.04,1.47-6.2,1.61-9.37,0-.07-.05-.12-.11-.12-.07,0-.12.05-.12.11-.14,3.16-.68,6.29-1.6,9.32-.02.06.02.13.08.15.01,0,.02,0,.03,0Z"/><path class="cls-54" d="M154.82,132.24s9.2-.37,11.6-2c.42-.29,1.25,2.16.85,2.49s-11.22,2.46-12.9,2.46.44-2.95.44-2.95Z"/><path class="cls-54" d="M154.82,132.24s-8.85,1.49-11.04,1.36c-1.46-.09-2.31-.58-2.8-.67s-1.38,2.09.39,2.59c.68.19,10.02.47,13.01-.33,1.17-.31.44-2.95.44-2.95Z"/><path class="cls-54" d="M161.99,132.34s-.59-7.62-.45-9.81c.09-1.46.58-2.31.68-2.8s-2.09-1.39-2.59.38c-.19.68-.94,9.1-.15,12.08.31,1.17,2.51.14,2.51.14Z"/><path class="cls-54" d="M146.73,133.86s.2-7.5-.47-9.59c-.45-1.39-1.09-2.1-1.29-2.56s1.46-1.81,2.34-.21c.33.61,2.8,8.7,2.86,11.77.03,1.2-3.44.58-3.44.58Z"/><ellipse class="cls-34" cx="152.89" cy="112.81" rx="7.58" ry="9.09" transform="translate(-16.66 27.05) rotate(-9.59)"/><path class="cls-22" d="M151.47,103.8c4.97-.84,9.67,2.31,10.66,7.07-.84-.05-5.98-.57-10.8-6.15,0,0-.84,5.4-7.68,8.65-.27-4.59,3.05-8.76,7.81-9.57Z"/><path class="cls-22" d="M162.61,113.31c.11-1.26-.44-2.58-1.2-2.87-1.79-.66-3.87-.54-4.93,1.91-1.05,2.44-1.03,7.32.69,8.34.77.45,1.6.72,2.4.49.81-.23,1.58-1.01,1.93-2.22s.12-2.7-.55-3.47c.78.08,1.54-.93,1.66-2.19Z"/><path class="cls-22" d="M156.05,122.68c.77.45,1.6.72,2.4.49.81-.23,1.58-1.01,1.93-2.22.35-1.21.12-2.7-.55-3.47.78.08,1.54-.93,1.66-2.19.11-1.26-.44-2.58-1.2-2.87-1.79-.66-3.87-.54-4.93,1.91s-1.03,7.32.69,8.34Z"/><path class="cls-22" d="M156.61,123c.59.61,1.29,1.07,2.09,1.08.8,0,1.72-.5,2.35-1.51.63-1.01.81-2.43.39-3.29.7.28,1.66-.44,2.09-1.56.43-1.12.26-2.47-.37-2.92-1.48-1.07-3.43-1.5-5.03.45s-2.83,6.38-1.51,7.76Z"/><path class="cls-22" d="M152.62,124.5c.77.45,1.6.72,2.4.49.81-.23,1.58-1.01,1.93-2.22.35-1.21.12-2.7-.55-3.47.78.08,1.54-.93,1.66-2.19.11-1.26-.44-2.58-1.2-2.87-1.79-.66-3.87-.54-4.93,1.91s-1.03,7.32.69,8.34Z"/><path class="cls-22" d="M148.92,123.83c.77.45,1.6.72,2.4.49.81-.23,1.58-1.01,1.93-2.22.35-1.21.12-2.7-.55-3.47.78.08,1.54-.93,1.66-2.19.11-1.26-.44-2.58-1.2-2.87-1.79-.66-3.87-.54-4.93,1.91s-1.03,7.32.69,8.34Z"/><path class="cls-22" d="M145.66,120.68c.77.45,1.6.72,2.4.49.81-.23,1.58-1.01,1.93-2.22.35-1.21.12-2.7-.55-3.47.78.08,1.54-.93,1.66-2.19.11-1.26-.44-2.58-1.2-2.87-1.79-.66-3.87-.54-4.93,1.91s-1.03,7.32.69,8.34Z"/><path class="cls-22" d="M146.51,111.83c-.75.03-1.51.28-2.13.89-.62.61-1.1,1.61-1.15,2.72-.05,1.1.38,2.27,1.08,2.65-.12.85-.16,1.7-.03,2.54s.48,1.65,1.02,2c.44.28.94.23,1.4.04.91-.39,1.75-1.47,1.86-2.86.17-2.13,1.03-4.29.39-6.21-.22-.65-.52-1.25-.93-1.63-.41-.38-1.01-.16-1.5-.14Z"/><path class="cls-22" d="M157.24,107.79c-.75.03-1.51.28-2.13.89-.62.61-1.1,1.61-1.15,2.72-.05,1.1.38,2.27,1.08,2.65-.12.85-.16,1.7-.03,2.54s.48,1.65,1.02,2c.44.28.94.23,1.4.04.91-.39,1.75-1.47,1.86-2.86.17-2.13,1.03-4.29.39-6.21-.22-.65-.52-1.25-.93-1.63-.41-.38-1.01-.16-1.5-.14Z"/><path class="cls-22" d="M153.27,107.79c-.75.03-1.51.28-2.13.89-.62.61-1.1,1.61-1.15,2.72-.05,1.1.38,2.27,1.08,2.65-.12.85-.16,1.7-.03,2.54s.48,1.65,1.02,2c.44.28.94.23,1.4.04.91-.39,1.75-1.47,1.86-2.86.17-2.13,1.03-4.29.39-6.21-.22-.65-.52-1.25-.93-1.63-.41-.38-1.01-.16-1.5-.14Z"/><path class="cls-54" d="M162.14,110.86c-6.29,3.53-18.92,2.92-19.2,2.41s-1.4-8.51-.17-12.82,2.97-7.11,2.13-9.52c-.84-2.41-2.8-3.42-3.81-3.86-1.01-.45-.5-.73.62-.67,1.12.06,5.4.09,7.41,2.05,2.02,1.96,3.58,4.09,4.2,6.33.42,1.52,1.46,2.41,3.58,3.86,2.13,1.46,6.87,7.3,5.75,11.95-.17.34-.51.27-.51.27Z"/><path class="cls-35" d="M160.46,106.01s.06-.01.08-.03c.05-.04.05-.12,0-.17-2.32-2.52-6.14-3.68-9.51-2.89-.06.01-.1.08-.09.14.01.06.08.1.14.09,3.29-.77,7.02.36,9.28,2.82.02.03.05.04.09.04Z"/><path class="cls-35" d="M144.42,108.23s.08-.02.1-.06c.77-1.51,2.02-2.81,3.53-3.65.06-.03.08-.1.05-.16-.03-.06-.1-.08-.16-.05-1.54.86-2.83,2.19-3.62,3.75-.03.06,0,.13.05.16.02,0,.04.01.05.01Z"/><path class="cls-35" d="M153.65,95.94s.08-.02.1-.06c.03-.06.01-.13-.05-.16-.99-.54-2.19-.73-3.31-.5-.06.01-.11.08-.09.14.01.06.08.11.14.09,1.06-.21,2.2-.04,3.15.48.02,0,.04.01.06.01Z"/><path class="cls-35" d="M148.66,95.81s.02,0,.03,0l.82-.21c.06-.02.1-.08.08-.14-.02-.06-.08-.1-.14-.08l-.82.21c-.06.02-.1.08-.08.14.01.05.06.09.11.09Z"/><path class="cls-48" d="M132.81,128.22c-.74-.98-.37-1.51-.08-1.34.33.19.63.91.84,1.69-.15-.93-.25-1.96.12-2.27.55-.46.34,2.17.21,3.37,0,0,0,0,0,0,.07.43.11.86.13,1.3.09-.48.27-1.21.62-1.83.56-1.01,1.08-1.49,1.26-1.22.31.47-1.4,1.87-1.87,3.24.04.95-.03,1.9-.21,2.84-.08.4-.17.79-.28,1.19.33-.71.89-1.66,1.68-2.27.95-.73,1.05.12.41.6-.56.42-1.69,1.37-2.26,2.23-.29.93-.66,1.85-1.05,2.73-.04.09-.18.01-.14-.08.16-.36.31-.73.45-1.09.59-3.61-1.47-5.92-1.03-6.13.46-.22,1.54.59,1.61,2.67.04,1-.12,1.96-.29,2.68.5-1.43.85-2.9.92-4.41-.5-.93-2.2-3-1.45-3.07.64-.06,1.22,1.92,1.46,2.87.02-.58,0-1.17-.07-1.76-.16-.42-.49-1.25-1-1.91Z"/><path class="cls-48" d="M143.21,141.73c-.75-.29-1.52-.55-2.29-.78.02,0,.05,0,.07,0,1.06.02,2.13.03,3.19-.04.58-.04,1.17-.1,1.75-.2.23-.04.87-.12.85-.5-.01-.2-.18-.23-.36-.23-.57,0-1.19.17-1.76.26-.68.1-1.36.2-2.04.3-.44.06-.87.14-1.31.18,1.21-.35,3.03-.98,2.74-1.54-.2-.38-1.22.35-1.42.45-.92.46-1.97.95-3.02.98-.93-.18-1.98-.1-2.87-.03-1.24.1-2.46.33-3.64.71-.82.26-1.61.58-2.37.98.24-.31.49-.62.73-.93.02-.01.03-.03.04-.05.45-.57.9-1.14,1.34-1.71.02,0,.03,0,.04-.02.8-.59,1.59-1.21,2.36-1.84.17-.14,1.07-.75.53-1.01-.37-.18-1.1.54-1.36.76-.3.26-.58.55-.84.86-.07.08-.14.16-.2.24-.2.24-.4.5-.59.75-.39.5-.77,1-1.16,1.49.07-1,.06-2-.06-2.99-.04-.28-.17-1.79-.74-1.66-.19.04-.27.43-.3.58-.07.41.03.81.16,1.19.19.53.44,1.02.55,1.57.12.57.13,1.13.06,1.71-.35.44-.7.89-1.05,1.33-.2.11-.39.23-.58.36-1.01.67-2.1,1.55-2.63,2.67-.06.12.12.24.18.11.54-1.15,1.72-2.07,2.77-2.73,1.03-.65,2.15-1.14,3.32-1.49.14-.04.28-.08.42-.12,0,0,.01,0,.02,0,.15.01.3.04.45.06,1.28.27,2.4.73,3.52,1.44.19.12,1.77,1.33,1.88.66.05-.28-.51-.65-.7-.79-.44-.32-.95-.53-1.46-.73-1.02-.39-2.08-.65-3.16-.79.8-.19,1.62-.32,2.45-.39.89-.07,1.82-.16,2.72,0,.98.18,1.87.77,2.75,1.21.13.06.26.13.38.19.7.35,1.4.7,2.17.9.03,0,.06.01.09,0,.06-.01.09-.07.1-.13.03-.38-.43-.66-.72-.81-.33-.17-.69-.29-1.03-.42Z"/><path class="cls-55" d="M139,132.03s2.78-.49,2.29-1.72c-.49-1.23-3.16.2-3.16.2,0,0,1.65-2.35.63-3.03-1.02-.68-2.22,2.49-2.22,2.49,0,0,.23-2.86-1.05-3.04-1.28-.18-.25,2.94-.25,2.94l3.76,2.15Z"/><path class="cls-10" d="M135.95,132.12c2.54,1.71,5.07.37,4.71-.76-.35-1.13-2.53.19-2.53.19,0,0,3.28-1.57,2.08-2.88s-3.22,1.81-3.22,1.81c0,0,1.91-2.72.32-3.39-1.59-.67-1.2,2.66-1.2,2.66,0,0-.44-2.4-1.98-2.15-1.54.26.35,3.54,1.81,4.53Z"/><path class="cls-27" d="M125.53,144.28s.02-.07.05-.09c7.17-5.83,10.4-12.18,10.43-12.25.04-.07.12-.1.19-.06.07.04.1.12.06.19-.03.06-3.29,6.46-10.5,12.34-.06.05-.15.04-.2-.02-.03-.03-.04-.07-.03-.11Z"/><path class="cls-27" d="M134.26,130.98s1.02,1.81,3.61,2.35c0,0-.31-.79-1.1-1.02,0,0,.99-.36,1.19-1.09,0,0-1.02.13-1.45.53,0,0,.25-.92-.38-1.57,0,0-.68.71-.26,1.54,0,0-.65-.84-1.61-.73Z"/><path class="cls-27" d="M129.92,137.49s.71-2.55,2.86-3.07c0,0-.2,2.37-2.86,3.07Z"/><path class="cls-27" d="M129.26,136.62s.08-2.65,2.04-3.66c0,0,.37,2.35-2.04,3.66Z"/><path class="cls-27" d="M128.39,135.75s-.79-2.53.74-4.13c0,0,1.11,2.1-.74,4.13Z"/><path class="cls-27" d="M130.26,137.18s-2.6.49-3.29,2.6c0,0,2.37,0,3.29-2.6Z"/><path class="cls-27" d="M129.42,136.41s-2.64-.14-3.82,1.73c0,0,2.31.56,3.82-1.73Z"/><path class="cls-27" d="M128.58,135.77s-2.45-1-4.18.4c0,0,2,1.28,4.18-.4Z"/><path class="cls-27" d="M128.28,135.66s-2.45-1-2.71-3.2c0,0,2.32.48,2.71,3.2Z"/><path class="cls-27" d="M127.86,135.3s.01-.05.03-.07c.05-.06.13-.08.2-.03,2.15,1.52,3.13,3.69,3.17,3.79.03.07,0,.16-.07.19-.07.03-.16,0-.19-.07,0-.02-.99-2.19-3.07-3.67-.04-.03-.06-.08-.06-.13Z"/><path class="cls-27" d="M134.42,138.03s2.02-1.72,1.57-3.89c0,0-2.06,1.18-1.57,3.89Z"/><path class="cls-27" d="M135.49,138.26s2.37-1.19,2.46-3.4c0,0-2.28.66-2.46,3.4Z"/><path class="cls-27" d="M136.65,138.69s2.63-.35,3.43-2.42c0,0-2.37-.12-3.43,2.42Z"/><path class="cls-27" d="M134.56,137.59s.65,2.57-.96,4.08c0,0-1-2.15.96-4.08Z"/><path class="cls-27" d="M135.62,138.03s1.25,2.34.04,4.19c0,0-1.48-1.85-.04-4.19Z"/><path class="cls-27" d="M136.55,138.52s1.94,1.8,1.4,3.95c0,0-2-1.27-1.4-3.95Z"/><path class="cls-27" d="M136.77,138.75s1.95,1.8,4.05,1.1c0,0-1.42-1.9-4.05-1.1Z"/><path class="cls-27" d="M132.37,137.58c0-.07.07-.13.14-.13.1,0,2.48-.03,4.77,1.27.07.04.09.13.05.19-.04.07-.13.09-.19.05-2.22-1.27-4.6-1.24-4.62-1.24-.08,0-.14-.06-.15-.14,0,0,0-.01,0-.02Z"/><path class="cls-19" d="M131.66,130.49c.25-.07,3.07.9,4.13,3.55,1.05,2.65,1.3,5.01,1.3,5.01,0,0-1.56-2.23-2.27-3.79-.71-1.56-3.83-3.08-3.98-4.03s.83-.74.83-.74Z"/><path class="cls-19" d="M111.87,145.62s-1.64-3.59.65-6.92c0,0,1.65,2.74.25,6.79l-.9.13Z"/><path class="cls-19" d="M120.9,130.53c.16-.33-5.95,1.28-7.34,4.22-1.39,2.95-1.14,6.82-1.14,6.82,0,0,.93-.88,1.31-2.65,0,0,1.68-2.25,2.02-3.86.34-1.61,4.19-2.52,5.15-4.53Z"/><path class="cls-23" d="M137.39,147.2s1.85-3.05,0-7.98c0,0-.51,1.77-.51,3.45s.51,4.53.51,4.53Z"/><path class="cls-23" d="M114.42,135.06s1.56-6.75,11.23-5.15c0,0-4.29.21-6.65,1.56-2.36,1.35-3.79,3.16-3.79,3.16l-.79.43Z"/><path class="cls-53" d="M111.94,142.92s-.6-4.64,2.03-7.41c2.87-3.03,3.5-2.36,6.06-3.93,0,0-.57,1.33-3.14,2.67-3.14,1.63-3.92,3.83-4.11,7.16l-.83,1.52Z"/><path class="cls-19" d="M112.78,145.08s.98-1.8,4.32-1.87c0,0,2.24-1.67,6.62-.54,0,0,4.17-1.35,7.83.04,0,0,4.88-.02,5.83,2.37.95,2.39-12.62,7.95-12.62,7.95l-11.98-7.95Z"/><path class="cls-50" d="M112.31,146.12c.4-.72,1.89-2.43,5.08-2.62,0,0,3.06-1.33,6.28-.44,0,0,4.23-1.36,7.74.03,0,0,3.85-.13,5.65,1.99,1.8,2.12-4.07,6.69-11.4,7.17s-14.87-3.41-13.36-6.13Z"/><path class="cls-51" d="M131.5,137.34c.1,1.89-.74,2.54-1.45,3.59v.05s2.63-.6,2.63-.6c0,0,.51-4.08,0-4.37-.52-.29-1.08-.07-1.08-.07l-.23.16-.55-.15c-.53,1.49-1.39,1.51-1.39,1.51l.29,1.63c.71-.56,1.25-1.16,1.79-1.77Z"/><path class="cls-13" d="M130.94,136c.36.51.36.98,1.14.95.93-.03.59-.93.59-.93-.52-.29-1.08-.07-1.08-.07l-.23.16-.42-.11Z"/><path class="cls-51" d="M132.57,139.04s-1.14-.23-1.88,1.2-1.2,4.49-3.28,5.62c-2.08,1.12-4.92.6-6.26,1.42,0,0-.23.09-.68.11l-.09.61s.51.14.7.34,3.81,2.09,8.42-.26c4.6-2.35,4.86-8.65,3.08-9.03Z"/><path class="cls-13" d="M132.25,144.6c.65-1.43,1.23-3.23.82-5.23,1.17,1.39.52,6.61-3.58,8.71-4.6,2.35-8.22.45-8.42.26,0,0,0,0,0,0,4.1.42,8.45.1,11.18-3.73Z"/><path class="cls-38" d="M121.04,148.31c-.21-.18-.67-.31-.67-.31l.09-.61c.19,0,.34-.03.45-.05-.11.29,0,.61.13.97Z"/><path class="cls-51" d="M129.87,137.51s-.63-.84-1.97-.32c-1.35.52-3.48,2.29-5.55,1.8-2.06-.49-3.65-2.53-5.04-2.79,0,0-.21-.07-.52-.33l-.43.35s.26.4.27.65,1.31,3.67,5.79,4.85c4.48,1.17,8.41-2.89,7.45-4.21Z"/><path class="cls-13" d="M126.34,141.05c1.29-.57,2.75-1.43,3.67-3.02-.04,1.62-3.6,4.73-7.59,3.69-4.48-1.17-5.77-4.6-5.79-4.85,0,0,0,0,0,0,2.49,2.73,5.59,5.1,9.71,4.18Z"/><path class="cls-38" d="M116.63,136.84c-.04-.25-.26-.61-.26-.61l.43-.35c.13.11.24.18.33.23-.25.13-.36.42-.49.72Z"/><path class="cls-33" d="M130.7,137.95s-.87-.78-2.23.09-3.31,3.27-5.68,3.18c-2.36-.09-4.55-1.97-6.12-1.95,0,0-.24-.03-.64-.25l-.39.48s.37.38.44.65c.07.27,2.23,3.73,7.39,4.04,5.16.3,8.57-5,7.23-6.23Z"/><path class="cls-13" d="M127.14,142.26c3.08-2.95,3.43-2.85,3.84-3.78.31,1.79-2.9,5.96-7.5,5.69-5.16-.3-7.32-3.77-7.39-4.04,0,0,0,0,0,0,3.32,2.44,7.79,4.75,11.05,2.13Z"/><path class="cls-38" d="M116.07,140.1c-.09-.26-.42-.6-.42-.6l.39-.48c.17.09.31.15.41.18-.24.2-.3.53-.38.9Z"/><path class="cls-33" d="M132.1,139.82s-.94-.68-2.21.32c-1.26,1-2.95,3.6-5.31,3.76-2.36.16-4.73-1.48-6.29-1.3,0,0-.25,0-.66-.18l-.34.51s.41.34.5.6c.1.26,2.61,3.48,7.77,3.24,5.16-.24,8-5.87,6.53-6.96Z"/><path class="cls-13" d="M129.51,144.76c1.18-1.04,2.45-2.43,2.91-4.43.49,1.75-2.26,6.24-6.86,6.45-5.16.24-7.67-2.98-7.77-3.24,0,0,0,0,0,0,3.56,2.08,7.65,3.58,11.72,1.23Z"/><path class="cls-38" d="M117.77,143.49c-.12-.25-.48-.56-.48-.56l.34-.51c.18.07.32.11.43.14-.22.22-.25.56-.29.93Z"/><path class="cls-33" d="M130.43,140.28s1.36-.96,1.2-3.43l1.19-.57s-.26,3.82-.95,4.39c-.8.66-1.44-.38-1.44-.38Z"/><path class="cls-33" d="M129.84,137.94s1.03-1.03,1.24-1.68c0,0,.38.67.88.43,0,0-.99,1.32-.99,1.79,0,0-1.39-.27-1.13-.54Z"/><path class="cls-52" d="M114.16,142.19c-.23.08-.52.58-.56.69-.05.12,2.29,7.21,3.71,7.73,1.42.52,6.36-1.26,6.46-1.42.1-.16.58-.8.44-1.05-.14-.24-10.05-5.96-10.05-5.96Z"/><path class="cls-20" d="M114.16,142.19c-.36.12,2.72,7.58,3.49,7.84.77.26,6.37-1.31,6.56-1.88.19-.58-9.12-6.27-10.05-5.96Z"/><path class="cls-14" d="M115.32,141.56c-.36-.09-1.08.01-1.12.32-.04.31.71,2.57,1.15,3.57.44,1,1.92,3.95,2.33,4.14s3-.28,3.83-.55c.83-.27,2.58-.91,2.77-1.06.18-.15.63-.86.58-1.08-.05-.22-9.53-5.35-9.53-5.35Z"/><path class="cls-29" d="M116.12,141.19c-.34-.09-1.75.14-1.89.26-.13.13,1.57,4.99,1.83,5.15.26.17,4.47,1.2,5.06,1.45.59.25,1.61,1.07,1.82,1.03.21-.04,1.47-1.48,1.46-2.12-.01-.64-8.28-5.78-8.28-5.78Z"/><path class="cls-56" d="M116.5,144.91c-.25.04-.01,2.24.9,3.43.91,1.19,3.12.89,3.35-.05.23-.94-4.24-3.38-4.24-3.38Z"/><path class="cls-52" d="M115.36,140.19c-.23.08-.52.58-.56.69s2.29,7.21,3.71,7.73c1.42.52,6.36-1.26,6.46-1.42.1-.16.58-.8.44-1.05s-10.05-5.96-10.05-5.96Z"/><path class="cls-20" d="M115.36,140.19c-.36.12,2.72,7.58,3.49,7.84s6.37-1.31,6.56-1.88-9.12-6.27-10.05-5.96Z"/><path class="cls-19" d="M137.23,146.69s-.27,1.78-.67,3.99c-.16.86-.34,1.79-.53,2.71-.55,2.59-1.21,5.07-1.81,5.62-1.35,1.22-5.46,2.44-9.12,2.49-3.66.04-6.83-.8-8.85-2.07-.92-.58-1.69-2.97-2.25-5.4-.22-.96-.41-1.92-.56-2.78-.31-1.74-.48-3.06-.48-3.06l13.35,1.94,7.7-.79,3.21-2.64Z"/><path class="cls-53" d="M112.97,146.88s.58-3.04-.19-4.94c0,0-1.8,4.01-.31,5.25l.51-.32Z"/><path class="cls-21" d="M131.6,149.24c.73-.03,1.5-.03,2.22-.17.36-.07.69-.17,1.03-.32.07-.03.14-.07.22-.1v-3.17s0-.04,0-.06l-.43-2.97s-.16-.21-.3-.34c-.12-.11-.19-.27-.19-.44v-.51c0-.23-.93-.41-2.08-.41s-2.08.18-2.08.41v.51c0,.17-.07.32-.19.44-.14.13-.3.29-.3.34l-.43,2.97s0,.04,0,.06v3.94c.85-.13,1.73-.15,2.53-.18Z"/><path class="cls-56" d="M131.6,149.24c.73-.03,1.5-.03,2.22-.17.36-.07.69-.17,1.03-.32v-3.28s0-.04,0-.05l-.39-2.75c-.01-.09-.06-.24-.13-.3l-.21-.18c-.08-.07-.13-.18-.13-.29v-.74c0-.18-.86-.32-1.92-.32s-1.92.14-1.92.32v.74c0,.11-.05.22-.13.29l-.21.18c-.07.06-.11.21-.13.3l-.39,2.75s0,.04,0,.05v3.91c.78-.1,1.58-.12,2.31-.15Z"/><path class="cls-43" d="M130.68,149.28c0-.11,0-.23.03-.35.23-1.63.93-3.18.23-4.96-.83-2.12,1.42-1.79,3.05-2.14v-.67c0-.18-.86-.32-1.92-.32s-1.92.14-1.92.32v.74c0,.11-.05.22-.13.29l-.21.18c-.07.06-.11.21-.13.3l-.39,2.75s0,.04,0,.05v3.91c.46-.06.93-.09,1.39-.11Z"/><path class="cls-32" d="M129.88,149.33c-.2-2.25-.04-4.48.52-6.67.1-.29.34-.52.5-.8,1.02.14,2.17.16,3.1-.33v-.36c0-.18-.86-.32-1.92-.32s-1.92.14-1.92.32v.74c0,.11-.05.22-.13.29l-.21.18c-.07.06-.11.21-.13.3l-.39,2.75s0,.04,0,.05v3.91c.19-.03.39-.05.58-.06Z"/><path class="cls-18" d="M134.32,141.41c0,.21-1.01.37-2.25.37s-2.25-.17-2.25-.37,1.01-.37,2.25-.37,2.25.17,2.25.37Z"/><rect class="cls-18" x="129.82" y="140.41" width="4.5" height="1"/><ellipse class="cls-11" cx="132.07" cy="141.16" rx="2.36" ry=".39"/><rect class="cls-11" x="129.71" y="140.1" width="4.73" height="1.05"/><ellipse class="cls-12" cx="132.07" cy="140.1" rx="2.36" ry=".39"/><path class="cls-3" d="M133.82,149.07c.16-.03.32-.07.47-.12,0-1.51-.02-3.31-.03-3.69-.02-.64-.25-2.72-.54-2.72-.31,0,.12,2.14.14,2.8.01.4-.01,2.23-.03,3.72Z"/><path class="cls-44" d="M134.06,140.01c.2-.01.19.2-.31.29-.7.13-1.95.13-1.98.06-.04-.09.94-.02,1.46-.11s.66-.23.83-.24Z"/><path class="cls-44" d="M130.12,140.01c.03.06.33-.06.66-.1.33-.04.75-.05.75-.09,0-.04-.4-.06-.79,0-.39.06-.65.13-.62.19Z"/><path class="cls-53" d="M134.82,148.01s.73-.82,1.68-1.39c.95-.57.57-1.55.57-1.55,0,0,1.34,1.04.39,2.43-.77,1.13-1.85.78-2.64.5Z"/><path class="cls-23" d="M112.31,146.12s-2.18,3.13,4.14,3.41c0,0-2.88-1.72-3.16-2.34-.48-1.07-.98-1.07-.98-1.07Z"/><path class="cls-53" d="M113.29,147.2s.36,1.81,2.94,2.78c3.19,1.2,4.67.06,4.67.06,0,0-1.14-1.11-3.44-1.42-2.31-.32-4.17-1.42-4.17-1.42Z"/><path class="cls-23" d="M115.97,148.3s2.55-.89,7.23.35c2.7.72,3.92,1.55,5.62,1.64,0,0-3.6,1.24-7.93.14-2.51-.64-4.92-2.12-4.92-2.12Z"/><path class="cls-53" d="M122.82,148.55s5.28-.78,8.34.16c3.06.95,4.96,0,4.96,0,0,0-5.41,3.97-13.3-.16Z"/><path class="cls-23" d="M130.83,148.62s1.24-1.05,3.8-.63c2.56.41,2.98-.79,2.98-.79,0,0-.22.98-1.5,1.52-1.64.68-3.59.61-5.28-.09Z"/><path class="cls-23" d="M111.95,147.2s-1.08-2.67.48-5.62c1.56-2.95,1.47-4.88,1.47-4.88,0,0,.46,2.42-.93,5.25-1.39,2.83-.51,5.25-.51,5.25h-.52Z"/><path class="cls-53" d="M127.07,130.04s2.78-.17,4.46.93c1.68,1.09,1.68,2.53,3.62,3.07,0,0-.94-1.11-1.72-2.14-.64-.85-2.24-2.99-6.37-1.86Z"/><path class="cls-23" d="M133.44,131.9s2.6,1.13,3.4,3.57c.8,2.44-.13,4.38,0,5.73,0,0-.42-1.48-.54-3.12-.19-2.69-.47-3.02-2.86-6.18Z"/><path class="cls-53" d="M137.17,146.46s-.92-2.74-.62-5.6c.29-2.86.76-3.47.42-4.96,0,0,.98,2.14.64,4.66-.34,2.53-.45,4.29,0,5.73l-.44.17Z"/><path class="cls-23" d="M132.88,132.24s-2.16-1.02-3.42-1.53-6.4-.5-6.4-.5c0,0,7.29-2.25,9.82,2.03Z"/><path class="cls-53" d="M126.44,129.64s-3.35-.37-6.98,1.59c0,0,1.93-3.59,6.98-1.59Z"/><path class="cls-19" d="M128.82,129.74s-2.31-.19-4,.5c-1.68.69-4.29.48-4.29.48,0,0,5.55-2.87,8.29-.97Z"/><path class="cls-19" d="M112.31,146.12s-.13,1.88,1.89,2.58c0,0-.51-1.13-.94-1.84-.43-.72-.94-.74-.94-.74Z"/><path class="cls-19" d="M115.04,148s2.17,1.41,3.86,1.76c0,0-2.28-2.1-3.86-1.76Z"/><path class="cls-19" d="M121.81,148.36s2.39,1.6,4.63,1.61c0,0-1.17-.67-1.86-1.11-.69-.44-2.11-.79-2.78-.5Z"/><path class="cls-19" d="M128.67,148.3s2.74,1.24,5.28.89c0,0-1.81-.47-2.29-.63-.48-.16-2.2-.74-3-.26Z"/><path class="cls-19" d="M137.39,145.27s.87,1.38-1.27,1.6c0,0,1.13-.68,1.27-1.6Z"/><path class="cls-23" d="M134.72,153.4c-1.5.25-2.89.76-4.42.86-.07,0-.07.11,0,.11,1.53.09,3.32.31,4.47-.89.04-.04,0-.09-.05-.08Z"/><path class="cls-23" d="M136.4,152.43c-.51-.18-1.19.17-1.69.32-.6.18-1.25.34-1.82.61-.02,0,0,.03,0,.03.67.08,1.42-.03,2.07-.18.51-.11,1.19-.18,1.49-.63.04-.06,0-.14-.06-.16Z"/><path class="cls-23" d="M133.27,151.4c-1.6.14-3.18.43-4.74.82,0,0,0,.01,0,.02,1.64.58,3.39.33,4.77-.72.04-.03.04-.12-.03-.11Z"/><path class="cls-23" d="M116.54,151.81c-.98-.36-1.98-.45-2.92-.95-.3-.16-.56.28-.27.46.94.56,2.12,1.02,3.19.58.04-.02.05-.07,0-.09Z"/><path class="cls-23" d="M123.55,152.44c-.66-.15-1.3-.07-1.97-.08-.76,0-1.51-.03-2.27-.04-.01,0-.01.02,0,.02,1.26.5,2.99.84,4.26.22.05-.03.04-.11-.02-.12Z"/><path class="cls-23" d="M126.11,153.07c-.73-.23-1.55-.03-2.3,0-.65.03-1.38-.08-1.96.24,0,0,0,.01,0,.02.58.42,1.44.35,2.12.34.73-.02,1.54.01,2.17-.4.08-.05.07-.17-.03-.2Z"/><path class="cls-23" d="M116.75,156.3c-.47-.37-1.06-.36-1.62-.53-.12-.04-.78-.24-.74.12.05.43.67.5,1.01.59.49.13.89.23,1.35-.02.06-.03.07-.12.01-.16Z"/><path class="cls-23" d="M132.44,157.98c-2.22.41-4.48.6-6.73.84-.02,0-.03.04,0,.04,2.32.54,4.61.14,6.75-.83.03-.01,0-.05-.02-.05Z"/><path class="cls-23" d="M134.34,157.91c-.73.05-1.37.36-2.07.59-.68.23-1.39.43-2.03.74-.02.01-.01.05.01.05,1.3,0,3.2-.27,4.13-1.25.04-.04.01-.13-.05-.13Z"/><path class="cls-23" d="M125.58,156.84c-.79,0-1.56.09-2.35.1-.78,0-1.56-.05-2.34-.04-.01,0-.01.01,0,.02,1.39.84,3.34.9,4.74.08.07-.04.04-.16-.04-.16Z"/><path class="cls-23" d="M129.32,157.32c-.84.06-1.62.23-2.45.37-.9.15-1.82.23-2.71.47-.01,0-.01.02,0,.02,1.65.41,3.72.1,5.19-.72.06-.03.04-.14-.04-.14Z"/><path class="cls-23" d="M122.1,159.8c-.68-.21-1.35-.21-2.05-.33-.62-.1-1.22-.31-1.85-.29-.02,0-.03.02-.02.04.84.99,2.81,1.28,3.94.74.07-.03.05-.14-.02-.16Z"/><path class="cls-23" d="M126.94,160.47c-.6-.04-1.17,0-1.76.01-.4,0-.83-.11-1.16.16,0,0,0,.02,0,.02.27.39.84.34,1.27.34.63,0,1.14-.11,1.7-.41.06-.04.03-.13-.04-.13Z"/><path class="cls-23" d="M119.1,155.83c-.46-.23-1-.21-1.51-.31-.5-.1-1.02-.33-1.53-.28-.04,0-.06.05-.03.08.37.37.97.47,1.46.57.51.1,1.1.24,1.59.06.04-.02.07-.09.01-.11Z"/><path class="cls-23" d="M117.95,153.68c-.92-.27-1.99-.24-2.94-.35-.01,0-.02.02,0,.03.86.41,2,.75,2.94.45.06-.02.06-.1,0-.12Z"/></g></g></g></svg>