<?xml version="1.0" encoding="UTF-8"?><svg xmlns="http://www.w3.org/2000/svg" xmlns:xlink="http://www.w3.org/1999/xlink" viewBox="0 0 190.26 201.7"><defs><style>.cls-1{fill:#f6f2f3;}.cls-1,.cls-2,.cls-3,.cls-4,.cls-5,.cls-6,.cls-7,.cls-8,.cls-9,.cls-10,.cls-11,.cls-12,.cls-13,.cls-14,.cls-15,.cls-16,.cls-17,.cls-18,.cls-19,.cls-20,.cls-21,.cls-22,.cls-23,.cls-24,.cls-25,.cls-26,.cls-27,.cls-28,.cls-29,.cls-30,.cls-31,.cls-32,.cls-33,.cls-34,.cls-35,.cls-36,.cls-37,.cls-38,.cls-39,.cls-40,.cls-41,.cls-42,.cls-43,.cls-44,.cls-45,.cls-46{stroke-width:0px;}.cls-2,.cls-44{fill:#7f7a02;}.cls-3{fill:#ffa000;}.cls-3,.cls-6,.cls-7,.cls-8,.cls-9,.cls-13,.cls-15,.cls-16,.cls-20,.cls-23,.cls-25,.cls-32,.cls-35,.cls-41,.cls-45{fill-rule:evenodd;}.cls-4{opacity:.2;}.cls-4,.cls-43,.cls-46{fill:#fff;}.cls-5{fill:#7fb3d4;}.cls-6{fill:#d8d9d9;}.cls-7{fill:#9c3b14;}.cls-8{fill:#a94722;}.cls-9{fill:#ffeece;}.cls-10{fill:#c6c4c5;}.cls-11{fill:#708a76;}.cls-12,.cls-21,.cls-44{mix-blend-mode:multiply;}.cls-12,.cls-27{fill:#5b0606;}.cls-12,.cls-44{opacity:.4;}.cls-13{fill:#ffad00;}.cls-14{fill:url(#DÈgradÈ_sans_nom_48);}.cls-15{fill:#ffc000;}.cls-16{fill:#ffae61;}.cls-17{fill:#fd6c50;}.cls-18{fill:#7d7a94;}.cls-19{fill:#fdc55c;}.cls-20{fill:#8f2d05;}.cls-21,.cls-26{fill:#f2eee9;}.cls-22{fill:#4f392f;}.cls-23{fill:#ff8905;}.cls-24{fill:#fdd07e;}.cls-25{fill:#f4e3c2;}.cls-28{fill:#752c13;}.cls-29{fill:#232323;}.cls-30{fill:#edb447;}.cls-31,.cls-45{fill:#fff8ea;}.cls-32{fill:#ffc900;}.cls-33{fill:#89ae91;}.cls-47{opacity:.3;}.cls-34{fill:#505302;}.cls-35{fill:#ff7e00;}.cls-36{fill:#440202;}.cls-37{fill:#701111;}.cls-38{fill:#050505;}.cls-39{fill:#fca984;}.cls-40{fill:#f9956e;}.cls-41{fill:#ebebeb;}.cls-48{isolation:isolate;}.cls-42{fill:#ffcbb6;}.cls-46{opacity:.22;}</style><linearGradient id="DÈgradÈ_sans_nom_48" x1="94.36" y1="120.04" x2="96.73" y2="-56.73" gradientUnits="userSpaceOnUse"><stop offset="0" stop-color="#82f0fa"/><stop offset="1" stop-color="#00c7f0"/></linearGradient></defs><g class="cls-48"><g id="Layer_2"><g id="Layer_11"><rect class="cls-14" width="190" height="144.12"/><path class="cls-33" d="M61.88,152.5c.19,4.8,6.95,24.77,6.95,24.77l23.17.26s.38-15.49.13-17.67l-30.25-7.36Z"/><path class="cls-33" d="M129.35,153.46c-.38,3.46-6.7,23.81-6.7,23.81l-23.17.26s-.38-15.49-.13-17.67l30-6.4Z"/><path class="cls-5" d="M72.45,89.37s-9.22,5.12-13.66,29.36c-4.44,24.24-4.27,29.7-3.76,30.38.51.68,18.95,13.66,40.11,12.63,21.17-1.02,39.43-9.39,40.29-11.61.85-2.22-3.41-44.38-14.68-61.11l-48.31.34Z"/><path class="cls-18" d="M57.39,126.33c1.35.06,8.91,12.88,38.27,13.22,30.57.36,37.9-10.75,37.9-10.75,0,0,2.05,7.17,1.88,10.07-.17,2.9-22.67,12.13-42.33,10.92-19.46-1.19-33.55-9.24-37.55-12.8-1.54-1.37.5-10.73,1.84-10.66Z"/><rect class="cls-30" x="84.11" y="137.32" width="22.36" height="13.49" rx="1.19" ry="1.19"/><path class="cls-24" d="M88.07,149.75c-.71,0-1.53-.04-2.05-.58-.47-.49-.49-1.07-.51-1.75v-.28c-.12-2.88-.15-5.45-.08-8.11,0-.2.18-.34.37-.35.2,0,.35.17.35.37-.06,2.64-.04,5.2.08,8.07v.28c.03.66.05,1,.31,1.27.35.37,1.11.36,1.72.36h7.86s0-.01,0-.01c.2,0,.36.16.36.36s-.16.36-.36.36h-7.86c-.06.01-.13.01-.19.01Z"/><path class="cls-24" d="M98.34,149.71c-.2,0-.36-.16-.36-.35,0-.2.16-.36.35-.36l2.37-.03h0c.2,0,.36.16.36.35,0,.2-.16.36-.35.36l-2.37.03h0Z"/><path class="cls-5" d="M71.25,90.73s-9.9,4.95-17.75-2.05c-7.85-7-7.34-15.02-7.34-15.02l-12.8.68s-8.36,32.77,28.85,41.14l9.05-24.75Z"/><path class="cls-5" d="M120.75,90.22s15.19.34,20.48,11.95c5.29,11.61,2.73,32.77-20.65,33.97,0,0-4.78-4.1-5.97-9.56,0,0,11.1-4.44,10.07-18.78-1.02-14.34-3.93-17.58-3.93-17.58Z"/><path class="cls-18" d="M53.59,95.64s-.05,0-.08,0c-.19-.04-.31-.24-.27-.43.49-2.11.38-4.41-.31-6.46-.06-.19.04-.39.23-.45.19-.06.39.04.46.23.75,2.21.86,4.58.33,6.86-.04.17-.19.28-.35.28Z"/><path class="cls-18" d="M59.61,115.11s-.05,0-.08,0c-.19-.04-.32-.23-.27-.43,1.01-4.59,2.95-9.04,5.61-12.85.11-.16.34-.2.5-.09.16.11.2.34.09.5-2.6,3.74-4.51,8.1-5.5,12.6-.04.17-.19.28-.35.28Z"/><path class="cls-18" d="M116.34,126.97c-.07,0-.15-.02-.21-.07-.16-.12-.2-.34-.08-.5,1.36-1.86,3.2-3.35,4.98-4.78,2.41-1.95,4.69-3.78,5.86-6.47,1.13-2.59.95-5.71-.46-8.15-.1-.17-.04-.39.13-.49.17-.1.39-.04.49.13,1.52,2.64,1.71,6.01.49,8.8-1.24,2.85-3.7,4.83-6.07,6.74-1.74,1.41-3.55,2.86-4.85,4.65-.07.1-.18.15-.29.15Z"/><path class="cls-18" d="M133.56,118.74c-.11,0-.23-.05-.3-.16-1.33-1.93-3.39-3.4-5.66-4.02-.19-.05-.3-.25-.25-.44.05-.19.25-.3.44-.25,2.42.67,4.63,2.24,6.06,4.31.11.16.07.39-.09.5-.06.04-.13.06-.2.06Z"/><path class="cls-18" d="M131.14,113.86s-.08,0-.12-.02c-.93-.32-1.94-.45-2.93-.37-.18.02-.37-.13-.39-.33-.02-.2.13-.37.33-.39,1.08-.09,2.19.05,3.22.4.19.06.29.27.22.46-.05.15-.19.24-.34.24Z"/><path class="cls-39" d="M117.45,126.43c-1.06-.31-2.32-.95-4.38-.49-2.06.46-5.36.4-6.92,1.04-1.33.55-1.38,1.96.34,2.28,1.45.27,4.97.35,4.91.65-.04.19-1.76.99-3.99,1.81-1.25.46-3.24,1.05-3.95,1.3-1.75.61-1.84,2.65.05,2.69.75.02,2.57-.42,3.67-.69.88-.22,3.3-.66,3.3-.66,0,0-1.57,1.08-3.36,2.21-1.65,1.04-3.44,1.97-3.86,2.54-.68.91.09,2.76,2.35,1.77.95-.42,2.05-1.02,3.11-1.56,1.65-.83,3.1-1.53,3.1-1.53,0,0-1.08,1.43-2.38,2.84-1.07,1.17-2.22,2.15-2.56,2.89-.46,1.03.95,2.06,2.58.89,1.32-.95,5.92-4.98,5.92-4.98,0,0-2.17,4.04-2.41,4.93-.25.93,1.11,1.52,1.79.74.8-.93,2.11-2.86,3.69-4.78,1.93-2.35,4.49-6.2,4.5-7.25,0-1.22-1.65-5.49-5.52-6.61Z"/><path class="cls-19" d="M98.22,129.31c0,1.23-.99,2.22-2.22,2.22s-2.22-.99-2.22-2.22.99-2.22,2.22-2.22,2.22.99,2.22,2.22Z"/><ellipse class="cls-39" cx="95.93" cy="74.16" rx="29.48" ry="28.68"/><path class="cls-1" d="M68.6,62.05s-3.19,28.32,27.16,16.54c0,0,28.28,13.42,27.9-15.65,0,0,11.78,30.73-24.45,51.21h-6.66s-35.85-19.08-23.94-52.11Z"/><path class="cls-10" d="M93.5,114.79s-.08-.01-.11-.04c-14.14-11.45-23.9-29.35-26.79-49.13-.01-.1.05-.19.15-.2.1-.01.19.05.2.15,2.88,19.69,12.59,37.52,26.66,48.91.08.06.09.18.03.25-.04.04-.09.07-.14.07Z"/><path class="cls-10" d="M95.42,114.41s-.09-.02-.12-.05c-8.21-7.91-14.94-18.9-20.59-33.61-.04-.09.01-.2.1-.23.09-.04.2.01.23.1,5.63,14.66,12.34,25.61,20.5,33.48.07.07.07.18,0,.25-.04.04-.08.06-.13.06Z"/><path class="cls-10" d="M98.23,114.41c-.06,0-.11-.03-.15-.08-.06-.08-.04-.19.04-.25,8.51-5.9,15.26-13.01,19.53-20.55,4.52-7.98,6.66-16.87,6.36-26.41,0-.1.08-.18.17-.19.09,0,.18.07.19.17.3,9.61-1.86,18.56-6.41,26.6-4.3,7.59-11.09,14.74-19.64,20.67-.03.02-.07.03-.1.03Z"/><path class="cls-10" d="M96.7,114.15s-.09-.02-.12-.05c-.07-.07-.08-.18,0-.25,10.15-10.78,16.46-23.77,19.98-32.78.04-.09.14-.14.23-.1.09.04.14.14.1.23-3.52,9.03-9.86,22.07-20.05,32.89-.04.04-.08.06-.13.06Z"/><path class="cls-10" d="M95.62,114.95c-.07,0-.13-.04-.16-.1-4.07-8.65-7.02-17.81-8.77-27.22-.02-.1.05-.19.14-.21.1-.02.19.05.21.14,1.74,9.38,4.68,18.5,8.74,27.13.04.09,0,.2-.09.24-.02.01-.05.02-.08.02Z"/><path class="cls-10" d="M95.76,114.7s-.06,0-.09-.02c-.09-.05-.12-.16-.07-.24,4.61-8.38,8-17.36,10.09-26.7.02-.1.11-.16.21-.14.1.02.16.12.14.21-2.09,9.37-5.5,18.38-10.12,26.79-.03.06-.09.09-.16.09Z"/><path class="cls-10" d="M95.86,114.79h0c-.1,0-.18-.08-.18-.18.03-3.86.09-8.31.16-12.61.07-4.3.14-8.75.16-12.61,0-.1.08-.18.18-.18h0c.1,0,.18.08.18.18-.03,3.86-.09,8.31-.16,12.61-.07,4.3-.14,8.75-.16,12.61,0,.1-.08.18-.18.18Z"/><path class="cls-1" d="M117.68,79.23c-8.2,5.88-21.92-.63-21.92-.63-11.16,4.33-17.78,3.24-21.7.12,1.13,2.96,4.31,8.71,12.1,8.77,5.9.05,8.59-4.34,9.82-6.48,1.23,2.14,3.92,6.53,9.82,6.48,7.36-.06,10.61-5.2,11.89-8.26Z"/><path class="cls-10" d="M105.69,87.67c-5.79,0-8.48-4.26-9.7-6.37-1.15,1.98-3.94,6.37-9.74,6.37-.03,0-.06,0-.09,0-7.76-.06-11.01-5.59-12.26-8.89-.04-.09.01-.2.1-.23.09-.03.2.01.23.1,1.22,3.21,4.39,8.59,11.93,8.65.03,0,.06,0,.09,0,5.88,0,8.57-4.69,9.59-6.46.03-.06.09-.09.16-.09h0c.06,0,.12.03.16.09,1.11,1.94,3.7,6.46,9.54,6.46.03,0,.06,0,.09,0,7.26-.06,10.46-5.13,11.73-8.15.04-.09.14-.13.24-.1.09.04.13.14.1.24-1.3,3.1-4.59,8.31-12.06,8.37-.03,0-.06,0-.1,0Z"/><path class="cls-1" d="M88.49,44.47s-2.56,4.61-.34,6.15c2.22,1.54,4.44,0,4.78-.85,0,0,1.88,2.39,4.1,2.05,2.22-.34,2.73-2.39,2.73-2.39,0,0,5.29,2.56,5.46-4.1,0,0-7-6.49-16.73-.85Z"/><path class="cls-33" d="M65.89,72.79s-2.49-2.54-2.83-6.3c-.34-3.76.53-20.03,4.96-28.05,4.44-8.02,15.69-19.23,18.76-23.16,3.07-3.93,5.12-8.19,8.19-8.19s12.8,4.1,15.53,10.58c1.61,3.83,2.63,9.03,5.01,14.24,1.64,3.6,5.12,6.27,7.17,9.73,2.84,4.79,7.81,23.9,3.03,31.07,0,0-6.83-28.68-31.92-26.63-25.09,2.05-27.91,26.71-27.91,26.71Z"/><path class="cls-28" d="M81.22,67.05c-.13,0-.25-.07-.31-.18-.1-.17-.04-.39.14-.49,2.24-1.26,4.77-2,7.33-2.16.2,0,.37.14.38.34.01.2-.14.37-.34.38-2.45.15-4.88.86-7.02,2.07-.06.03-.12.05-.18.05Z"/><path class="cls-28" d="M110.64,66.96c-.06,0-.12-.01-.18-.05-2.14-1.2-4.57-1.92-7.02-2.07-.2-.01-.35-.18-.34-.38.01-.2.17-.35.38-.34,2.56.16,5.09.9,7.33,2.16.17.1.23.32.14.49-.07.12-.19.18-.31.18Z"/><path class="cls-40" d="M95.41,62.31c-2.77.06-5.65,15.74-4.55,17.03,2.49,2.9,8.16,2.65,10.19-.12.98-1.35-2.1-16.98-5.64-16.91Z"/><path class="cls-1" d="M85.79,53.6c-4.74,1.02-9.22,4.48-9.22,7.3s2.56,2.56,4.48,2.3,8.07-1.66,9.86-3.58c1.79-1.92,2.12-7.58-5.12-6.02Z"/><path class="cls-1" d="M106.07,53.35c4.74,1.02,9.22,4.48,9.22,7.3s-2.56,2.56-4.48,2.3c-1.92-.26-8.07-1.66-9.86-3.58-1.79-1.92-2.12-7.58,5.12-6.02Z"/><path class="cls-1" d="M92.59,116s-3.44,4.59-3.19,6.04c.26,1.45,4.61,1.79,6.91,1.84,2.22.04,6.27-.51,6.26-1.99,0-.86-3.07-5.97-3.07-5.97l-6.91.09Z"/><path class="cls-10" d="M91.93,123.18s-.03,0-.04,0c-.1-.02-.16-.12-.13-.22.64-2.75,1.59-4.91,2.91-7.49.04-.09.15-.12.24-.08.09.05.12.15.08.24-1.31,2.56-2.24,4.69-2.88,7.41-.02.08-.09.14-.17.14Z"/><path class="cls-10" d="M96.95,123.59c-.09,0-.17-.07-.18-.17l-.53-7.44c0-.1.07-.18.17-.19.1-.01.18.07.19.17l.53,7.44c0,.1-.07.18-.17.19,0,0,0,0-.01,0Z"/><path class="cls-10" d="M101.04,122.9c-.08,0-.15-.05-.17-.14-.61-2.43-1.54-4.78-2.76-6.97-.05-.09-.02-.2.07-.24.09-.05.2-.02.24.07,1.24,2.22,2.18,4.6,2.79,7.06.02.1-.03.19-.13.22-.01,0-.03,0-.04,0Z"/><rect class="cls-33" x="92.25" y="113.86" width="7.6" height="2.3" rx=".7" ry=".7"/><ellipse class="cls-42" cx="79.16" cy="75.3" rx="4.35" ry="5.67" transform="translate(-25.63 106.2) rotate(-60)"/><path class="cls-42" d="M110.53,71.53c-2.71,1.57-3.94,4.52-2.73,6.6,1.2,2.08,4.38,2.5,7.09.93,2.71-1.57,3.94-4.52,2.73-6.6-1.2-2.08-4.38-2.5-7.09-.93Z"/><path class="cls-11" d="M115.92,33.39c-.06,0-.11-.01-.17-.04-4.82-2.56-10.25-3.73-15.7-3.38-.22.01-.37-.14-.38-.34-.01-.2.14-.37.34-.38,5.58-.36,11.14.84,16.08,3.46.18.09.24.31.15.49-.06.12-.19.19-.32.19Z"/><path class="cls-11" d="M71.86,47.37c-.08,0-.17-.03-.23-.09-.15-.13-.17-.36-.04-.51,3.57-4.16,8.51-6.97,13.91-7.92.19-.03.38.1.42.29.03.2-.1.38-.29.42-5.16.91-10.08,3.71-13.49,7.68-.07.08-.17.13-.27.13Z"/><path class="cls-11" d="M67.51,54.16s-.08,0-.12-.02c-.19-.07-.28-.28-.21-.46.57-1.55,1.36-3,2.36-4.32.12-.16.34-.19.5-.07.16.12.19.34.07.5-.95,1.26-1.71,2.65-2.26,4.13-.05.15-.19.24-.34.24Z"/><ellipse class="cls-40" cx="95.93" cy="85.64" rx="3.27" ry="2.5"/><rect class="cls-22" x=".26" y="139.55" width="190" height="62.15"/><path class="cls-41" d="M136.95,105.42c-1.16,5.19-2.12,10.8-1.39,16.11,1.78,12.5,9.11,23.93,2,38.16-.53,1.06-1.04,2.7.9,2.7h19.26c1.94,0,1.43-1.63.9-2.7-7.11-14.23.22-25.67,1.98-38.16.76-5.31-.2-10.92-1.37-16.11h-22.28Z"/><path class="cls-3" d="M137.58,106.22c-.45,2.06-.84,4.15-1.12,6.23-.39,2.96-.51,6-.1,8.96.12.8.25,1.59.41,2.37.51,2.63,1.2,5.23,1.92,7.82.71,2.61,1.43,5.25,1.94,7.92.98,5.06,1.1,9.7-.04,14.31h14.99c-1.12-4.61-1-9.25-.02-14.31,1.18-6.09,3.39-11.97,4.25-18.11.43-2.96.29-6-.1-8.96-.27-2.08-.67-4.17-1.12-6.23h-20.99Z"/><path class="cls-13" d="M155.12,142.07c.12-.84.27-1.69.43-2.55,1.18-6.09,3.39-11.97,4.25-18.11.43-2.96.29-6-.1-8.96-.27-2.08-.67-4.17-1.12-6.23h-17.6c-.25,2.27-.37,4.66-.37,7.09,0,16.13,5.55,29.2,12.39,29.2.74,0,1.43-.14,2.12-.43h0Z"/><path class="cls-25" d="M137.58,106.22c-.45,2.06-.84,4.15-1.12,6.23-.08.71-.16,1.43-.22,2.14h23.71c-.06-.71-.14-1.43-.25-2.14-.27-2.08-.67-4.17-1.12-6.23h-20.99Z"/><path class="cls-9" d="M140.61,114.59h19.34c-.06-.71-.14-1.43-.25-2.14-.27-2.08-.67-4.17-1.12-6.23h-17.6c-.25,2.27-.37,4.66-.37,7.09v1.29h0Z"/><path class="cls-45" d="M136.15,103.79c.49-.98,1.35-2,2.27-2.08,3.72-.31,2.49.57,5.39-1.18,5.33-3.23,5.62.06,8.21.06s5.06-.27,6.25,2.47c.1.25,1.23-.06,2.14.31.71.29,1.31,1,1.18,2.72-.14,1.61-3.8-.55-3.8,2.25,0,5.96-5.84-3.33-5.84,2.16,0,4.35-5.31,3.7-5.02-1.76.04-1-1.51-2.08-3.02-.88-1.02.8-2.18-.16-3.21-.9-2.06-1.47-1.45-.14-2.59-.02-1.1.12-3.12-.8-1.96-3.14h0Z"/><path class="cls-32" d="M154.31,115.38c1.35,0,2.43,2.55,2.43,5.72s-1.08,5.74-2.43,5.74-2.43-2.57-2.43-5.74,1.08-5.72,2.43-5.72h0Z"/><path class="cls-41" d="M38.99,141.61h-2.57c1.82.84,1.32,10.38.52,14.94-1.97.26-8.97.3-9.64,2.05h23.42c-.67-1.75-7.68-1.79-9.64-2.05-.8-4.56-1.3-14.1.52-14.94h-2.59Z"/><path class="cls-6" d="M38.99,141.61h-2.57c.48.22.78,1.04.97,2.21,1.08.06,2.14.06,3.22,0,.17-1.17.5-1.99.97-2.21h-2.59Z"/><path class="cls-41" d="M28.05,103.31h21.9c-2.51,10.9,1.66,12.93,3.59,17.9,10.77,27.63-39.85,27.63-29.08,0,1.92-4.97,6.1-7.01,3.59-17.9h0Z"/><path class="cls-35" d="M29.07,111.64c-.04.32-.11.63-.17.95-.24,1.06-.58,2.05-1.04,3.03-.41.86-.91,1.69-1.38,2.51-.61,1.06-1.21,2.1-1.66,3.22-1.99,5.17-2.4,10.94,1.58,15.29,3.14,3.44,8.09,4.93,12.61,4.93s9.49-1.49,12.63-4.93c3.98-4.35,3.57-10.12,1.58-15.29-.45-1.12-1.06-2.16-1.66-3.22-.5-.82-.97-1.64-1.38-2.51-.45-.97-.8-1.97-1.04-3.03-.06-.32-.13-.63-.17-.95h-19.87Z"/><path class="cls-23" d="M47.17,139.83c1.69-.78,3.22-1.84,4.45-3.2,3.98-4.35,3.57-10.12,1.58-15.29-.45-1.12-1.06-2.16-1.66-3.22-.5-.82-.97-1.64-1.38-2.51-.45-.97-.8-1.97-1.04-3.03-.06-.32-.13-.63-.17-.95h-16.22c-.8,2.51-1.23,5.32-1.23,8.26,0,11.09,6.21,20.11,13.86,20.11.63,0,1.23-.06,1.82-.17h0Z"/><path class="cls-9" d="M28.55,103.7c.54,2.55.89,5.32.52,7.94h19.87c-.37-2.62-.02-5.38.52-7.94h-20.91Z"/><path class="cls-45" d="M45.68,100.35c-.91.28-1.3-1.6-4.93-1.6-2.64,0-4.39,2.08-7.18,1.06-.93-.35-2.88-.43-3.91.19-.56.37-.45.91-1.47,1.75-1.12.93-2.75,2.7.11,3.72.52.19,1.04.58,1.19,1.66.3,2.23,3.65-.24,3.52,2.62-.04.89,1.08,3.44,2.92,3.37,4.93-.17,2.03-5.58,5.32-4.65,3.01,1.79,2.79-3.78,4.69-2.51.91.95,3.31-.84,4.17-.84,4.02,0,.15-6.31-4.43-4.78h0Z"/><path class="cls-16" d="M49.03,121.52c-1.41,0-2.55,2.4-2.55,5.36s1.15,5.36,2.55,5.36,2.57-2.4,2.57-5.36-1.15-5.36-2.57-5.36h0Z"/><path class="cls-7" d="M49.8,57.71c-14,.41-13.67,16.23-1.4,22.86.1-1.86.22-5.06.34-6.92-9.05-3.39-7.08-14.07.86-12.69.06-1.08.13-2.16.2-3.25h0Z"/><path class="cls-20" d="M40.97,61.62c-3.88,5.22-1.14,14.32,7.43,18.96.03-.61.07-1.37.1-2.16-12.66-6.76-7.74-16.39-7.53-16.8h0Z"/><path class="cls-8" d="M49.58,55.02l-.77,12.62c-.31,4.95-.63,10.23-.98,15.82-.03.5.35.89.85.89h20.59c.5,0,.86-.39.83-.89-.34-5.59-.66-10.87-.96-15.82l-.77-12.62h-18.78Z"/><path class="cls-7" d="M49.58,55.02l-.77,12.62c-.31,4.95-.63,10.23-.98,15.82-.03.5.35.89.85.89h20.59c.5,0,.86-.39.83-.89l-.03-.6c-22.07,1.6-19.35-22.32-18.43-27.84h-2.05Z"/><path class="cls-7" d="M63.29,55.02l1.38,29.33h.67l-1.4-29.33h-.66ZM58.65,55.02v29.33h.66v-29.33h-.66ZM53.98,55.02l-1.38,29.33h.66l1.38-29.33h-.66Z"/><path class="cls-20" d="M64.61,82.7l.07,1.65h.67l-.07-1.56c-.23-.03-.45-.06-.67-.09h0ZM53.1,73.96c.17.41.38.83.6,1.22l-.44,9.16h-.66l.5-10.39ZM58.65,80.59c.2.13.42.25.66.38v3.38h-.66v-3.76Z"/><polygon class="cls-32" points="49.32 59.17 49.09 63.11 68.86 63.11 68.61 59.17 49.32 59.17"/><path class="cls-15" d="M49.32,59.17l-.23,3.93h1.94c-.01-1.4.03-2.74.12-3.93h-1.82Z"/><polygon class="cls-32" points="48.4 74.32 48.16 78.26 69.78 78.26 69.54 74.32 48.4 74.32"/><path class="cls-15" d="M48.4,74.32l-.25,3.93h7.68c-1.06-1.18-1.91-2.52-2.58-3.93h-4.85Z"/><path class="cls-31" d="M52.7,56.04c-.25,1.85.07,3.07.63,3.7.19.2.39.34.61.39.2.04.44.03.66-.06.55-.23,1.08-.86,1.4-1.91.09-.25.36-.39.63-.32.15.04.25.13.31.23.31.48.61.82.92,1.01.36.23.73.28,1.08.19.39-.1.79-.36,1.17-.73.64-.61,1.18-1.49,1.52-2.33.09-.25.38-.36.64-.28.1.03.17.09.23.16.28.32.6.54.95.67.32.12.66.16.96.12.32-.04.61-.15.86-.34.25-.19.45-.44.6-.77.1-.23.39-.35.66-.26.01.01.03.01.04.01h0c.68.34,1.19.44,1.62.41.29-.03.55-.13.82-.26.01-.5-.09-.92-.25-1.25-.17-.35-.44-.61-.74-.8-.34-.2-.73-.32-1.17-.35-.66-.04-1.4.09-2.16.41-.25.12-.55,0-.67-.23h0c-.1-.2-.22-.39-.34-.57-.45-.66-.96-1.05-1.54-1.19-.57-.13-1.24-.03-1.98.29-.22.09-.44.2-.67.35-.23.13-.54.07-.68-.13-.28-.34-.55-.6-.85-.82-.64-.51-1.33-.73-1.98-.73s-1.33.25-1.94.68c-.31.22-.6.48-.87.79-.1.12-.23.17-.38.17-2.1.13-3.32.85-3.8,1.62-.17.31-.25.6-.2.87.03.25.17.48.41.66.52.39,1.5.51,2.88.07.26-.09.55.04.64.29.03.07.04.16.01.23h0Z"/><path class="cls-39" d="M33.78,59.42c-1.68.69-1.85,2.71-1.77,3.84.07,1.13-1.06,3.17-.58,4.7.48,1.52.87,1.64.46,2.51-.5,1.07-.16,3.22.15,4.03.26.68-.9,2.8.69,4.05,1.59,1.25,9.56,1.57,11.63.3,2.06-1.27.9-3.78.5-4.07-.4-.29,4.35-1.1,1.29-5.47,0,0,2.64-2.14-.46-5.25,0,0,2.78-3.9-.68-4.82-3.46-.92-9.13-.66-11.22.19Z"/><path class="cls-17" d="M44.79,74.67c0,.11-.07.21-.18.23-3.13.5-5.05.61-8.16-.06-.12-.03-.19-.14-.17-.26.03-.12.14-.19.26-.17,3.06.66,4.86.56,8,.06.12-.02.23.06.25.18,0,0,0,.01,0,.02Z"/><path class="cls-17" d="M46.21,69.3c0,.11-.08.21-.19.23-2.3.29-6.63.67-9.86,0-.12-.02-.19-.14-.17-.26.02-.12.14-.19.26-.17,3.16.66,7.44.28,9.71,0,.12-.02.23.07.24.19,0,0,0,0,0,.01Z"/><path class="cls-17" d="M45.65,63.98c0,.11-.07.21-.19.23-3.12.42-6.43.77-9.6-.05-.12-.03-.19-.15-.16-.27.03-.12.15-.19.27-.16,3.09.8,6.35.46,9.43.05.12-.02.23.07.24.19,0,0,0,.01,0,.02Z"/><path class="cls-34" d="M169.14,159.27c.08.01.16.02.24.04.03,0,.08,0,.14.02.26.02.52.06.78.08.52.04,1.04.07,1.57.09,1.04.04,2.08.03,3.12.04,1.95.01,3.89.17,5.83.18.98,0,1.96-.02,2.94-.13.06,0,.11-.01.17-.02.03,0,.07-.01.12-.02.24-.04.47-.08.71-.13.47-.1.93-.23,1.38-.37.16-.05.32-.08.47-.09v-56.99c0-3.69-2.54-6.88-6.2-8.34-.15-1.13-.2-3.81-.21-6.96-1.74,0-3.48.1-5.21.03-.98-.04-1.95-.15-2.91-.31-.12-.02-.25-.04-.37-.06,0,3.26-.06,6.07-.21,7.26-3.7,1.44-6.28,4.65-6.28,8.37,0,0,0,0,0,0v56.71c1.31.16,2.6.4,3.91.61Z"/><path class="cls-27" d="M180.22,86.83c0,.23,0,.47,0,.7,0-.23,0-.46,0-.7Z"/><path class="cls-27" d="M180.22,86.82c0-.47,0-.95,0-1.44,0,.49,0,.97,0,1.44Z"/><path class="cls-27" d="M180.22,84.64c0,.25,0,.49,0,.74,0-.24,0-.49,0-.74Z"/><path class="cls-29" d="M180.22,86.82s0,0,0,0c0,0,0,0,0,0Z"/><path class="cls-27" d="M180.36,71.72c0-.12-2.27-.63-4.39-.61-2.13-.01-4.4.5-4.39.61.01,1.43.13,7.14.15,12.92,0,.99,0,1.96,0,2.88,1.4.06,2.82.1,4.27.1s2.85-.03,4.24-.09c0-.92,0-1.89,0-2.88.02-5.79.13-11.5.15-12.92Z"/><path class="cls-27" d="M180.25,71.65s.01,0,.02,0c0,0-.01,0-.02,0Z"/><path class="cls-27" d="M179.7,71.5s.1.02.14.03c-.04-.01-.09-.02-.14-.03Z"/><path class="cls-4" d="M172.04,72.44c.35-.19,1.46-.47,1.81-.45-.05,1.32,0,14.87,0,14.87h-1.66l-.15-14.43Z"/><path class="cls-27" d="M180.33,71.69s0,0,0,0c0,0,0,0,0,0Z"/><path class="cls-27" d="M180.3,71.67s0,0,0,0c0,0,0,0,0,0Z"/><path class="cls-27" d="M180.19,71.63s.01,0,.02,0c0,0-.01,0-.02,0Z"/><path class="cls-27" d="M180.03,71.58s.02,0,.04.01c-.01,0-.02,0-.04-.01Z"/><path class="cls-27" d="M179.95,71.56s.03,0,.05.01c-.01,0-.03,0-.05-.01Z"/><path class="cls-27" d="M180.13,71.61s.02,0,.02,0c0,0-.02,0-.02,0Z"/><path class="cls-27" d="M179.86,71.54s.04,0,.05.01c-.02,0-.03,0-.05-.01Z"/><path class="cls-27" d="M180.35,71.7s0,0,0,0c0,0,0,0,0,0Z"/><path class="cls-27" d="M179.61,71.48s.05.01.08.02c-.03,0-.05-.01-.08-.02Z"/><path class="cls-27" d="M177.46,71.17c.83.07,1.59.2,2.13.31-.53-.11-1.3-.24-2.13-.31Z"/><polygon class="cls-29" points="177.46 71.17 177.46 71.17 177.46 71.17 177.46 71.17"/><path class="cls-29" d="M179.91,71.55s.02,0,.04,0c-.01,0-.02,0-.04,0Z"/><path class="cls-29" d="M179.69,71.5s.01,0,.02,0c0,0,0,0-.02,0Z"/><path class="cls-29" d="M179.85,71.54s.01,0,.02,0c0,0-.01,0-.02,0Z"/><path class="cls-29" d="M179.59,71.48s.01,0,.02,0c0,0-.01,0-.02,0Z"/><path class="cls-29" d="M179.99,71.57s.03,0,.04.01c-.01,0-.03,0-.04-.01Z"/><path class="cls-29" d="M180.07,71.59s.04.01.06.02c-.02,0-.04-.01-.06-.02Z"/><path class="cls-29" d="M180.36,71.71s0,0,0,.01c0,0,0,0,0-.01Z"/><path class="cls-29" d="M180.34,71.69s0,0,.01,0c0,0,0,0-.01,0Z"/><path class="cls-29" d="M180.22,71.64s.02,0,.03.01c-.01,0-.02,0-.03-.01Z"/><path class="cls-29" d="M180.31,71.68s.02,0,.02.01c0,0-.01,0-.02-.01Z"/><path class="cls-29" d="M180.26,71.66s.03.01.04.02c-.01,0-.02-.01-.04-.02Z"/><path class="cls-29" d="M180.16,71.62s.03,0,.04.01c-.01,0-.02,0-.04-.01Z"/><path class="cls-12" d="M180.22,87.52c0-.23,0-.46,0-.7,0,0,0,0,0,0,0-.47,0-.95,0-1.44h0c0-.25,0-.49,0-.74.02-5.79.13-11.5.15-12.92,0,0,0,0,0-.01,0,0-.01,0-.02-.01,0,0-.03-.02-.04-.02-.01,0-.05-.02-.05-.02-.01,0-.08-.03-.09-.03,0,0-.19-.05-.21-.06-.01,0-.35-.08-.36-.08-.53-.11-1.3-.24-2.13-.31,0,0,0,0,0,0v16.44c.93-.01,1.85-.04,2.76-.08,0,0,0,0,0,0Z"/><path class="cls-37" d="M171.24,73.99c.09-.18.23-.32.36-.37.14-.05,2.1-.4,4.24-.4s4.32.33,4.49.39c.17.06.37.38.37.38l-3.3.82-5.31.06-.85-.88Z"/><path class="cls-36" d="M171.33,76.65c.12.1.27.16.31.19.35-.09,2.82-.34,4.13-.34s4.12.22,4.5.35c.13-.08.34-.21.34-.21l-1.93-1.01-5.04-.24-2.31,1.26Z"/><path class="cls-27" d="M180.61,76.65c-3.07-.54-6.21-.54-9.28,0-.03-.88-.06-1.77-.09-2.65,3.13-.55,6.33-.55,9.47,0-.03.88-.06,1.77-.09,2.65Z"/><path class="cls-12" d="M180.33,73.62c-.13-.04-1.36-.24-2.85-.33l.14.35s.24,1.15.05,2.68c-.06.1-.16.22-.18.25,1.23.08,2.53.2,2.78.29.13-.08.34-.21.34-.21.03-.88.06-1.77.09-2.65,0,0-.2-.32-.37-.38Z"/><path class="cls-46" d="M172.05,73.53s-.16.24-.19.35c-.03.11.06,2.47.06,2.47,0,0,1.26-.21,1.66-.22v-2.45s.11-.35.24-.38c-.6.05-1.77.22-1.77.22Z"/><path class="cls-38" d="M186.62,157.45v-55.5c0-3.69-2.54-6.88-6.2-8.34-.11-.86-.17-1.78-.2-3.94-1.32.1-2.71.15-4.14.15-1.52,0-2.99-.06-4.39-.17-.03,2.15-.08,3.06-.19,3.93-3.7,1.44-6.28,4.65-6.28,8.37,0,0,0,0,0,0v55.4c-.02.11-.02.22-.02.33v2.75c0,.11,0,.22.02.33.12.88.73,1.61,1.55,1.91.18.07.37.11.57.13,1.95.41,5.07.67,8.58.67s6.65-.27,8.6-.67c.29-.05.34-.06.5-.11.86-.3,1.5-1.08,1.59-2.02,0-.07.01-.15.01-.23v-2.75c0-.08,0-.15-.01-.23Z"/><path class="cls-2" d="M182.25,163.14s.03,0,.04,0c-.01,0-.03,0-.04,0h0Z"/><path class="cls-2" d="M180.3,91.7s0,0,0,.01c0,0,0,0,0-.01Z"/><path class="cls-2" d="M180.34,92.54s0,.02,0,.03c0-.01,0-.02,0-.03Z"/><path class="cls-2" d="M183.89,162.91s-.06,0-.09.01c.03,0,.06,0,.09-.01Z"/><path class="cls-2" d="M180.31,92s0,.01,0,.02c0,0,0-.01,0-.02Z"/><path class="cls-2" d="M183.01,163.05s-.05,0-.08.01c.03,0,.06,0,.08-.01Z"/><path class="cls-2" d="M183.68,162.95s-.06,0-.09.01c.03,0,.06,0,.09-.01Z"/><path class="cls-2" d="M183.46,162.98s-.06,0-.09.01c.03,0,.06,0,.09-.01Z"/><path class="cls-2" d="M182.78,163.08s-.05,0-.08.01c.03,0,.05,0,.08-.01Z"/><path class="cls-2" d="M182.54,163.11s-.05,0-.08,0c.03,0,.05,0,.08,0Z"/><path class="cls-2" d="M184.29,162.84s-.06.01-.09.02c.03,0,.06-.01.09-.02Z"/><path class="cls-2" d="M183.24,163.01s-.06,0-.09.01c.03,0,.06,0,.09-.01Z"/><path class="cls-2" d="M180.4,93.42s0,.02,0,.03c0,0,0-.02,0-.03Z"/><path class="cls-2" d="M184.48,162.8s-.06.01-.09.02c.03,0,.06-.01.09-.02Z"/><path class="cls-2" d="M180.38,93.22s0,.02,0,.03c0-.01,0-.02,0-.03Z"/><path class="cls-2" d="M184.09,162.87s-.06.01-.09.02c.03,0,.06-.01.09-.02Z"/><path class="cls-2" d="M180.35,92.79s0,.02,0,.03c0-.01,0-.02,0-.03Z"/><path class="cls-2" d="M184.01,162.89s-.08.01-.12.02c.04,0,.08-.01.12-.02Z"/><path class="cls-2" d="M183.38,162.99s-.09.01-.14.02c.05,0,.09-.01.14-.02Z"/><path class="cls-2" d="M183.8,162.93s-.08.01-.12.02c.04,0,.08-.01.12-.02Z"/><path class="cls-2" d="M184.2,162.85s-.07.01-.11.02c.04,0,.07-.01.11-.02Z"/><path class="cls-2" d="M183.59,162.96s-.09.01-.13.02c.04,0,.09-.01.13-.02Z"/><path class="cls-2" d="M184.39,162.82s-.07.01-.1.02c.03,0,.07-.01.1-.02Z"/><path class="cls-2" d="M180.35,92.82c0,.14.02.28.03.4-.01-.12-.02-.26-.03-.4Z"/><path class="cls-2" d="M180.41,93.45c0,.05.01.11.02.15,0-.05-.01-.1-.02-.15Z"/><path class="cls-2" d="M180.39,93.26c0,.06.01.11.02.17,0-.05-.01-.11-.02-.17Z"/><path class="cls-2" d="M180.34,92.57c0,.08,0,.15.01.22,0-.07,0-.15-.01-.22Z"/><path class="cls-2" d="M180.31,92.02c0,.18.02.36.03.52,0-.16-.02-.34-.03-.52Z"/><path class="cls-2" d="M186.62,157.45v3.2c0-.07.01-.15.01-.23v-2.75c0-.08,0-.15-.01-.23Z"/><path class="cls-2" d="M183.16,163.03s-.1.01-.14.02c.05,0,.1-.01.14-.02Z"/><path class="cls-2" d="M182.93,163.06c-.05,0-.1.01-.15.02.05,0,.1-.01.15-.02Z"/><path class="cls-2" d="M180.3,91.71c0,.1,0,.19.01.29,0-.09,0-.19-.01-.29Z"/><path class="cls-2" d="M182.69,163.09c-.05,0-.11.01-.16.02.05,0,.11-.01.16-.02Z"/><path class="cls-2" d="M182.46,163.12c-.05,0-.11.01-.16.02.06,0,.11-.01.16-.02Z"/><path class="cls-2" d="M180.23,88.83h0c.01,1.08.03,2.06.07,2.87-.03-.81-.05-1.79-.07-2.87Z"/><path class="cls-44" d="M180.43,93.61s-.03-.29-.04-.35c0-.01-.07-1.06-.08-1.24,0,0,0-.01,0-.02,0-.09-.07-2.09-.08-3.17,0-.42,0-.86-.01-1.31,0,0,0,0,0,0-.91.04-1.83.07-2.76.08v6.19s4.36,2.6,4.78,7.99c.38,4.92.07,53.76,0,61.35.01,0,.03,0,.04,0,.06,0,.59-.07.64-.08.03,0,.18-.02.23-.03.03,0,.39-.06.44-.07.03,0,.37-.06.41-.07.03,0,.26-.05.28-.05.03,0,.16-.03.19-.04.2-.04.38-.08.55-.13.86-.3,1.5-1.08,1.59-2.02v-58.71c0-3.69-2.54-6.88-6.2-8.34Z"/><path class="cls-4" d="M172.25,88.35l-.12,5s1.09-.05,1.53,0c.11-1.26.12-5.06.12-5.06l-1.53.07Z"/><path class="cls-26" d="M185.53,145.14c-5.96,3.28-13.18,3.28-19.14,0v-26.9c5.96-3.28,13.18-3.28,19.14,0v26.9Z"/><path class="cls-21" d="M182.35,146.54c1.09-.37,2.16-.84,3.18-1.4v-26.9c-1.01-.55-2.05-1.01-3.11-1.38.01,8.99-.03,20.35-.07,29.68Z"/><g class="cls-47"><path class="cls-43" d="M168.47,97.84c-.84,1.31-1.31,2.81-1.31,4.41,0,0,0,0,0,0v58.71c.98.18,2.28.35,3.53.4v-58.38s0,0,0,0c0-1.68.53-3.26,1.45-4.62-.88-.1-2.73-.32-3.67-.51Z"/><path class="cls-43" d="M170.04,95.98c-.45.41-.85.86-1.2,1.33.83.17,2.38.46,3.69.52.42-.53.89-1.01,1.42-1.45-1.45-.02-2.79-.17-3.91-.4Z"/></g></g></g></g></svg>