<?xml version="1.0" encoding="UTF-8"?><svg xmlns="http://www.w3.org/2000/svg" xmlns:xlink="http://www.w3.org/1999/xlink" viewBox="0 0 190 202.89"><defs><style>.cls-1{fill:#61ad4e;}.cls-1,.cls-2,.cls-3,.cls-4,.cls-5,.cls-6,.cls-7,.cls-8,.cls-9,.cls-10,.cls-11,.cls-12,.cls-13,.cls-14{stroke-width:0px;}.cls-15{clip-path:url(#clippath);}.cls-2{fill:none;}.cls-3{fill:#7fb3d4;}.cls-4{fill:url(#DÈgradÈ_sans_nom_48);}.cls-5{fill:#fd6c50;}.cls-16{clip-path:url(#clippath-1);}.cls-17{clip-path:url(#clippath-2);}.cls-6{fill:#8bce6a;}.cls-7{fill:#f2f2eb;}.cls-8{fill:#7a6563;}.cls-9{fill:#fca984;}.cls-18{isolation:isolate;}.cls-10{fill:#fff;}.cls-11{fill:#aaafbf;opacity:.69;}.cls-11,.cls-14{mix-blend-mode:multiply;}.cls-12{fill:#f28973;}.cls-13{fill:#6bbf56;}.cls-14{fill:#8c8580;opacity:.65;}</style><clipPath id="clippath"><rect class="cls-2" width="190" height="199.83"/></clipPath><clipPath id="clippath-1"><rect class="cls-2" x="-163.38" y="-12.08" width="365.3" height="217.91"/></clipPath><linearGradient id="DÈgradÈ_sans_nom_48" x1="19.27" y1="116.46" x2="19.27" y2="-41.14" gradientUnits="userSpaceOnUse"><stop offset="0" stop-color="#82f0fa"/><stop offset="1" stop-color="#00c7f0"/></linearGradient><clipPath id="clippath-2"><rect class="cls-2" x="78.09" y="107.91" width="62.28" height="80.77"/></clipPath></defs><g class="cls-18"><g id="Layer_2"><g id="Image_4"><g class="cls-15"><g class="cls-16"><rect class="cls-4" x="-163.38" y="-12.08" width="365.3" height="217.91"/><path class="cls-1" d="M32.26,102.09c.65-.65,1.15-1.46,1.31-2.33.37-1.97-1.12-3.62-2.59-4.23.85-.25,1.56-.66,2.01-1.19,1.36-1.64.76-5.98-1.61-8.58.52-.59.91-1.31,1.01-2.06.26-1.99-1.62-3.47-3.04-3.66-.41-.05-.87.02-1.33.2,0,0,0-.01,0-.02.41-3.21-2.61-5.6-4.9-5.9-.94-.12-2.05.17-3.08.78-.16-3.78-3.81-6.52-6.64-6.88-1.96-.25-4.53.86-6.28,2.82-1-1.41-2.64-2.34-4.02-2.52-1.75-.23-4.15,1.01-5.37,3.04-1.11-.81-2.37-1.33-3.49-1.48-3.08-.4-7.65,2.57-8.2,6.88-.22,1.7.22,3.35,1.01,4.75-.56.17-1.13.4-1.69.69-1.7-.7-3.48-.91-4.88-.52-2.99.83-6.08,5.57-6.05,9.98-3.97-.76-7.93,1.49-8.66,3.89-.72,2.36,1.87,6.75,5.58,8.46-.29.87-.39,1.81-.15,2.67.62,2.25,3.3,2.99,4.9,2.55.46-.13.93-.42,1.34-.82,0,0,0,.01,0,.02,1,3.62,5.32,4.82,7.91,4.11,1.06-.29,2.12-1.11,2.95-2.23,1.87,3.98,7.01,5.26,10.2,4.38.93-.26,1.86-.82,2.7-1.59,2.05-.13,4.57-1.06,6.46-2.7.68,3.8,3.78,7.03,6.6,7.56,3.05.57,7.91-2.33,9.81-6.3,3.24,2.43,7.77,2.15,9.48.31,1.68-1.81,1.28-6.89-1.3-10.06Z"/><path class="cls-8" d="M24.97,96.76c-2.32.26-4.64.67-6.92,1.26-1.15.28-2.28.64-3.4,1.01-1.12.39-2.23.82-3.33,1.3-1.09.49-2.17,1.02-3.22,1.6h-.03c-.89.51-1.93-.36-1.59-1.33,2.51-7.19,6.4-13.78,12.46-17.06l-.24-.83c-5.96,1.94-10.39,7.23-13.58,12.67-.79,1.35-2.72,1.44-3.62.16-.01-.02-.03-.04-.04-.06-1-1.41-1.51-3.12-1.42-4.85.12-2.38-.12-4.78-.86-7.05l-.8.25c.35,1.82.36,3.69.13,5.53-.13,1-1.3,1.47-2.1.85-2.41-1.89-5.13-3.38-7.96-4.49l-.47,1.07c4.81,2.29,9.29,5.92,11.89,10.6,1.35,2.45,1.58,5.36.64,7.99-.92,2.57-1.69,5.22-2.35,7.87-.23.93-1.05,1.21-1.81.63-2.12-1.64-2.65-3.37-9.64-15.26l-2,1.82c3.64,5.78,6.97,11.8,9.2,18.28.02.05.03.1.05.15,1.26,3.66,1.73,7.56,1.35,11.42-.17,1.75-.31,3.5-.42,5.21-.1,1.22-.17,2.89-.22,4.14-.04.77.6,1.47,1.32,1.75.71.19,1.48.25,2.21.32,0,0,0,0,0,0,0,0,0,0,0,0,.71-.06,1.47-.13,2.16-.3.73-.24,1.43-.91,1.42-1.7-.18-7.27.04-14.62.9-21.85.19-1.52.68-4.4,1-6.14.18-.98.64-1.9,1.31-2.63,0,0,0,0,.01-.01.72-.78,1.5-1.53,2.32-2.24.82-.71,1.68-1.38,2.58-2,.9-.63,1.83-1.21,2.79-1.76.96-.55,1.95-1.05,2.96-1.52,1.02-.46,2.04-.9,3.1-1.28,2.1-.77,4.28-1.4,6.49-1.88l-.27-1.65Z"/><path class="cls-13" d="M39.05,100.3c-.27-.22-.56-.42-.85-.58.92-1.33.48-3.35-1.03-4.69.44-1.16-.05-2.69-1.3-3.71-.53-.43-1.11-.71-1.7-.84.52-1.83-.05-3.89-1.62-5.17-1.57-1.28-3.69-1.43-5.37-.55-.21-1.55-1.02-3.08-2.4-4.2-2.52-2.06-6.01-2.01-8.05.02-2.39-1.6-6.47-1.47-8.25.73-1.89,2.32-.5,6.05,1.81,7.94.65.53,1.38.88,2.13,1.06-.11,1.89,1.36,4.33,3.23,5.86,1.5,1.23,3.29,1.73,4.8,1.5.15.64.5,1.24,1.05,1.68.43.35.92.56,1.42.65.31.6.75,1.16,1.33,1.63,1.66,1.36,3.86,1.5,5.25.45.31.53.74,1.04,1.3,1.5,1.63,1.33,3.63,1.58,4.47.54.08-.1.14-.2.2-.31.13.13.27.25.41.37,1.67,1.36,3.73,1.6,4.6.53.87-1.07.23-3.05-1.44-4.41Z"/><path class="cls-13" d="M24.15,76.68c-.28,0-.55.03-.82.06.41-1.51.08-3.04-1-3.94-1.13-.93-2.77-.92-4.21-.13-.7-1.01-2.06-1.68-3.61-1.65-.89.01-1.71.25-2.37.65-.44-.53-.97-.99-1.57-1.34.7-1.68.68-3.22-.21-3.95-1.21-.99-3.59-.11-5.52,1.96-1.01-1.41-3.17-1.88-5.2-1.1-.03-.24-.1-.47-.2-.7-.72-1.64-2.97-2.24-5.03-1.34-1.27.56-2.17,1.56-2.5,2.63-1.63-1.37-3.96-1.78-6.04-.87-2.05.9-3.32,2.86-3.44,4.96-1.46-.27-3.06-.11-4.57.56-3.5,1.54-5.32,5.22-4.29,8.44-2.77,1.55-4.74,5.47-3.87,8.47.04.38.13.77.25,1.14-2.95,1.65-5,5.99-3.66,9.04,1.41,3.22,6.06,3.77,9.27,2.36,1.19-.52,2.14-1.36,2.79-2.38.45,1.39,1.23,2.51,2.31,2.95,2.6,1.06,5.95-2.15,7.34-5.56.24-.59.4-1.18.51-1.77,1.01.76,2.38.96,3.62.42.59-.26,1.08-.66,1.44-1.15.79,0,1.62-.17,2.42-.52,1.55-.68,2.66-1.91,3.11-3.25.31.02.61.03.92.03,2.28-.04,4.27-.94,5.45-2.29.62.46,1.39.73,2.22.72.65-.01,1.25-.19,1.77-.5.73.31,1.55.47,2.43.46,2.53-.04,4.61-1.57,5.07-3.58.67.24,1.46.38,2.3.36,2.47-.04,4.46-1.34,4.43-2.9,0-.15-.02-.29-.06-.43.21.02.43.02.65.02,2.53-.04,4.56-1.39,4.54-3.02-.03-1.63-2.1-2.92-4.63-2.88Z"/><path class="cls-13" d="M38.43,89.35c-1.16,1.05-3.07.82-3.07.82,0,0-.04-1.93,1.11-2.98,1.16-1.05,3.07-.82,3.07-.82,0,0,.04,1.93-1.11,2.98Z"/><path class="cls-13" d="M7.07,64.26c-.97,1.22-2.9,1.31-2.9,1.31,0,0-.36-1.9.61-3.12.97-1.22,2.9-1.31,2.9-1.31,0,0,.36,1.9-.61,3.12Z"/><path class="cls-13" d="M2.74,61.48c.86,1.3.34,3.16.34,3.16,0,0-1.91-.25-2.77-1.56s-.34-3.16-.34-3.16c0,0,1.91.25,2.77,1.56Z"/><path class="cls-1" d="M14.86,80.69c1.55-.14,2.94,1.21,2.94,1.21,0,0-1.13,1.57-2.69,1.7-1.55.14-2.94-1.21-2.94-1.21,0,0,1.13-1.57,2.69-1.7Z"/><path class="cls-1" d="M24.62,117.09c-.77-1.36-.13-3.18-.13-3.18,0,0,1.89.38,2.67,1.73.77,1.36.13,3.18.13,3.18,0,0-1.89-.38-2.67-1.73Z"/><path class="cls-1" d="M30.5,117.34c-1.41-.66-1.94-2.52-1.94-2.52,0,0,1.76-.79,3.18-.12s1.94,2.52,1.94,2.52c0,0-1.76.79-3.18.12Z"/><path class="cls-10" d="M179.68,95.58c-.54,0-1.06.04-1.56.12.07-.21.11-.43.11-.66,0-1.75-2.37-4.76-5.28-4.76-1.22,0-2.34.53-3.24,1.27-1.5-1.16-3.77-1.91-6.31-1.91-2.35,0-4.47.64-5.97,1.66-2.01-1.83-4.63-3.17-7.5-3.17-5.48,0-10.05,4.91-11.16,8.67-.55-.07-1.12-.12-1.71-.12-4.52,0-8.18,2.35-8.18,5.25s3.66,3.31,8.18,3.31c2.87,0,5.39-.17,6.85-1.03,1.75.65,3.81,1.03,6.02,1.03,3.69,0,6.98-1.05,9.06-2.67,1.4,1.59,4.26,2.67,7.56,2.67,3.67,0,6.79-1.35,7.97-3.23,1.24.5,3.08.61,5.15.61,3.72,0,6.73-.34,6.73-2.72s-3.01-4.32-6.73-4.32Z"/><path class="cls-6" d="M105.72,98.72c108.36-9.43,197.96,68.65,197.96,68.65L-28.15,150.36s60.12-45.22,133.87-51.64Z"/><path class="cls-13" d="M214.32,170.41l-37.02,114.21-368.13-69.29-34.43-51.41,29.48-55.83,8.21-15.54s7.93-1.57,21.65-2.28c14.96-.77,36.82-.5,62.81,3.98,43.58,7.51,52.64,29.18,84.39,39.69h0s0,0,0,0c4.54,1.5,9.55,2.78,15.19,3.75,8.84,1.52,17.22,2.16,25.44,2.27,11.76.16,23.2-.73,35.21-1.61,1.78-.13,3.58-.26,5.39-.39,17.18-1.19,35.76-2.01,58.27.56,4.88.56,9.95,1.28,15.23,2.19,61.52,10.6,78.31,29.69,78.31,29.69Z"/><path class="cls-1" d="M116.2,59.13c.4,0,.78.03,1.14.1.14-1.8,1.95-3.24,4.2-3.33.44-1.32,1.95-2.29,3.74-2.29.76,0,1.47.17,2.06.48.84-1.96,2.78-3.33,5.05-3.33s4.2,1.37,5.04,3.32c1.27-1.2,3.06-1.94,5.04-1.94,3.64,0,6.63,2.51,6.96,5.71,3.2.31,6.64,3.31,6.64,6.47,0,3.34-3.84,5.6-7.17,5.6-.93,0-1.81-.21-2.6-.59-1.24,1.71-4.24,2.79-6.93,2.79-2.16,0-4.07-.83-5.22-2.1-.58.45-1.31.72-2.1.72-.61,0-1.19-.16-1.69-.45-.69.3-1.47.47-2.3.47-2.4,0-4.41-1.43-4.87-3.33-.64.24-1.38.38-2.18.38-2.35,0-4.26-1.21-4.26-2.69,0-.14.02-.28.05-.41-.2.02-.41.03-.62.03-2.41,0-4.36-1.26-4.36-2.8s1.95-2.8,4.36-2.8Z"/><path class="cls-1" d="M142.23,39.86c-.52-.48-.95-1.11-1.25-1.85-.87-2.19-.16-4.53,1.57-5.22.16-.07.33-.11.5-.15-.1-.18-.18-.37-.26-.56-.89-2.24-.14-4.64,1.67-5.36.69-.28,1.44-.27,2.15-.02,1.11-1.11,2.6-1.94,4.31-2.29,0-3.23,3.35-7.1,7.3-7.57,4.18-.5,7.45,2.98,7.85,6.3.11.93-.05,1.83-.43,2.67.97.41,1.83,1.16,2.53,2.08.71-.48,1.53-.68,2.35-.52,1.91.37,3.09,2.59,2.63,4.96-.08.39-.19.76-.34,1.1,2.2.57,3.63,2.69,3.31,4.93,1.55.75,2.46,2.46,2.12,4.23-.14.75-.49,1.4-.98,1.91,2.26,1.3,3.59,3.53,3.16,5.76-.43,2.22-2.49,3.8-5.07,4.16,1.23,1.54,1.82,3.47,1.44,5.42-.69,3.58-4.36,5.91-8.38,5.47-.99,3.07-5.35,5.73-9.26,4.98-.88-.17-1.66-.5-2.34-.94-3.51.68-6.89-1.63-8-4.42-.34-.87-.42-1.78-.27-2.69-2.46-.35-4.83-2.64-5.82-5.15-.8-2.01-.53-4.18.53-5.83-.74-.33-1.32-.88-1.61-1.62-.23-.57-.25-1.18-.1-1.78-.61-.5-1.1-1.15-1.4-1.92-.89-2.24.04-4.77,2.09-6.08Z"/><path class="cls-8" d="M139.8,63.61c3.47,5.5,6.62,11.22,8.75,17.38.02.05.03.09.05.14,1.22,3.53,1.63,7.28,1.27,11-.16,1.62-.29,3.24-.39,4.82-.09,1.16-.16,2.75-.21,3.93-.04.73.57,1.4,1.26,1.66.67.18,1.41.24,2.1.31,0,0,0,0,0,0,0,0,0,0,0,0,.68-.06,1.4-.13,2.06-.28.7-.23,1.36-.87,1.35-1.61-.17-6.91.04-13.91.86-20.78,1.35-10.96,5.02-26.97,15.47-32.64l-.23-.79c-5.68,1.85-9.89,6.88-12.92,12.06-.75,1.29-2.58,1.35-3.44.14-.01-.02-.02-.03-.04-.05-.96-1.35-1.44-2.98-1.36-4.64.11-2.26-.11-4.54-.82-6.68l-.76.24c.34,1.73.34,3.51.12,5.26-.12.95-1.24,1.4-1.99.81-2.29-1.8-4.88-3.21-7.57-4.27l-.44,1.02c4.57,2.18,8.84,5.63,11.3,10.08,1.29,2.32,1.51,5.08.62,7.58-.92,2.58-1.69,5.24-2.34,7.9-.2.83-1.34.93-1.68.14-2.24-5.24-5.64-10.03-10.15-13.52l-.86.79ZM152.62,102.85h0s0,0,0,0Z"/><path class="cls-13" d="M114.96,57.67c-.54-.52-.97-1.17-1.13-1.87-.41-1.86,1.25-3.42,2.58-3.71.38-.08.83-.05,1.28.08,0,0,0-.01,0-.02-.65-3.01,2.02-5.52,4.17-5.99.88-.19,1.96,0,2.98.49-.16-3.59,3.08-6.49,5.73-7.06,1.84-.4,4.36.44,6.18,2.16.83-1.42,2.31-2.44,3.6-2.72,1.64-.36,4.02.62,5.33,2.44.99-.86,2.13-1.46,3.19-1.69,2.89-.63,7.45,1.81,8.33,5.85.88,4.04-2.26,8.16-5.15,8.79-.55.12-1.17.1-1.82-.03.13,2.72-1.98,5.3-3.94,5.72-.71.15-1.59,0-2.48-.39.79,2.33.4,4.75-.74,5.74-1.4,1.21-5.23.66-7.78-1.43-.46,3.12-2.92,5.84-5.22,6.34-2.48.54-6.52-1.72-8.17-4.92-2.59,2.06-6.31,1.95-7.75.48-1.42-1.44-1.21-5.61.83-8.26Z"/><path class="cls-13" d="M153.69,32.79c-.01-.75.15-1.51.55-2.11,1.05-1.59,3.32-1.5,4.46-.75.33.22.62.56.84.98,0,0,0-.01,0-.02,1.69-2.57,5.35-2.41,7.19-1.2.75.49,1.37,1.4,1.73,2.48,2.45-2.62,6.78-2.33,9.05-.84,1.57,1.04,2.73,3.44,2.78,5.93,1.6-.39,3.36-.05,4.46.68,1.4.93,2.36,3.31,1.98,5.53,1.31.11,2.53.51,3.43,1.1,2.47,1.63,3.92,6.6,1.65,10.05-2.27,3.45-7.41,4.08-9.88,2.45-.47-.31-.89-.77-1.25-1.33-1.86,1.99-5.17,2.28-6.84,1.18-.61-.4-1.11-1.14-1.46-2.05-1.11,2.2-3.11,3.61-4.62,3.48-1.84-.16-4.13-3.29-4.41-6.57-2.56,1.85-6.21,1.99-8.18.69-2.12-1.4-3.33-5.87-2.2-9.3-3.28-.41-5.8-3.16-5.76-5.21.04-2.02,3.16-4.78,6.48-5.18Z"/><path class="cls-13" d="M180.87,60.78c.92,1.16,2.76,1.24,2.76,1.24,0,0,.34-1.81-.58-2.97-.92-1.16-2.76-1.24-2.76-1.24,0,0-.34,1.81.58,2.97Z"/><path class="cls-13" d="M182.43,32.19c-.82,1.24-.32,3.01-.32,3.01,0,0,1.82-.24,2.64-1.48.82-1.24.32-3.01.32-3.01,0,0-1.82.24-2.64,1.48Z"/><path class="cls-1" d="M185.34,52.81c-1.48-.13-2.8,1.15-2.8,1.15,0,0,1.08,1.49,2.55,1.62,1.48.13,2.8-1.15,2.8-1.15,0,0-1.08-1.49-2.55-1.62Z"/><path class="cls-1" d="M142.02,50.27c-1.29-.74-3.02-.13-3.02-.13,0,0,.36,1.8,1.64,2.54,1.29.74,3.02.13,3.02.13,0,0-.36-1.8-1.64-2.54Z"/><path class="cls-1" d="M123.58,57.15c-.77,1.27-.21,3.02-.21,3.02,0,0,1.81-.31,2.58-1.57.77-1.27.21-3.02.21-3.02,0,0-1.81.31-2.58,1.57Z"/><path class="cls-1" d="M127.44,60.81c.3,1.45,1.9,2.35,1.9,2.35,0,0,1.12-1.46.82-2.91-.3-1.45-1.9-2.35-1.9-2.35,0,0-1.12,1.46-.82,2.91Z"/><path class="cls-1" d="M136.51,37.55c1.16.92,2.97.58,2.97.58,0,0-.08-1.84-1.25-2.76s-2.97-.58-2.97-.58c0,0,.08,1.84,1.25,2.76Z"/><path class="cls-1" d="M137.18,32.37c.45,1.42,2.13,2.14,2.13,2.14,0,0,.96-1.57.51-2.98-.45-1.42-2.13-2.14-2.13-2.14,0,0-.96,1.57-.51,2.98Z"/><path class="cls-1" d="M120.59,72.56c1.34-.63,1.84-2.4,1.84-2.4,0,0-1.68-.75-3.02-.12-1.34.63-1.84,2.4-1.84,2.4,0,0,1.68.75,3.02.12Z"/><path class="cls-1" d="M156.67,102.95s3.18-1.37,3.12-4.45c-1.35-.43-4.28,2.25-4.28,2.25,0,0,2.46-3.42,1.51-5.17-1.9.13-3.51,3.52-3.51,3.52,0,0,1.01-3.65-1.2-5.36-1.51,1.87-1.61,4.07-.96,5.74-.39-.59-2.04-2.64-3.82-3.18-.44,2.46,1.06,3.85,2.06,4.95-.48-.24-2.77-2.03-4.61-1.53.44,1.27,2.65,3.21,4.39,3.23s7.3,0,7.3,0Z"/><path class="cls-1" d="M147.56,99.23s-.62-1.89-3.22-1.82c2.14,1.03,1.66,2.12,3.22,1.82Z"/><path class="cls-1" d="M157.41,98.13s.62-1.89,3.22-1.82c-2.14,1.03-1.66,2.12-3.22,1.82Z"/><ellipse class="cls-10" cx="119.55" cy="105.64" rx="2.77" ry=".43"/><path class="cls-10" d="M128.88,107.45c0,.15-.86.28-1.92.28-1.06,0-1.92-.13-1.92-.28s.86-.28,1.92-.28,1.92.13,1.92.28Z"/><ellipse class="cls-10" cx="97.08" cy="113.22" rx="1.92" ry=".28"/><ellipse class="cls-10" cx="142.56" cy="106.35" rx="1.6" ry=".28"/><ellipse class="cls-10" cx="104.32" cy="104.76" rx="1.6" ry=".28"/><path class="cls-10" d="M131.68,103.64c0,.13-.73.24-1.64.24s-1.64-.11-1.64-.24c0-.13.73-.24,1.64-.24s1.64.11,1.64.24Z"/><ellipse class="cls-10" cx="133.92" cy="107.45" rx="1.34" ry=".24"/><path class="cls-10" d="M138.75,104.52c0,.13-.44.24-.98.24s-.98-.11-.98-.24.44-.24.98-.24.98.11.98.24Z"/><path class="cls-10" d="M103.7,108.45c0,.13-.44.24-.98.24s-.98-.11-.98-.24.44-.24.98-.24.98.11.98.24Z"/><path class="cls-10" d="M111.37,106.63c0,.13-.44.24-.98.24s-.98-.11-.98-.24.44-.24.98-.24c.54,0,.98.11.98.24Z"/><ellipse class="cls-10" cx="117.33" cy="110.75" rx="1.25" ry=".28"/><path class="cls-10" d="M131.2,110.75c0,.14-.52.26-1.16.26s-1.16-.12-1.16-.26.52-.26,1.16-.26,1.16.12,1.16.26Z"/><path class="cls-10" d="M93.73,108.45c0,.14-.52.26-1.16.26s-1.16-.12-1.16-.26.52-.26,1.16-.26,1.16.12,1.16.26Z"/><path class="cls-10" d="M124.01,102.35c0,.14-.52.26-1.16.26s-1.16-.12-1.16-.26.52-.26,1.16-.26,1.16.12,1.16.26Z"/><ellipse class="cls-10" cx="113.63" cy="103.4" rx="1.29" ry=".27"/><ellipse class="cls-10" cx="109.41" cy="111.03" rx="1.29" ry=".27"/><path class="cls-10" d="M92.98,15.37c-.54,0-1.06.04-1.56.12.07-.21.11-.43.11-.66,0-1.75-2.37-4.76-5.28-4.76-1.22,0-2.34.53-3.24,1.27-1.5-1.16-3.77-1.91-6.31-1.91-2.35,0-4.47.64-5.97,1.66-2.01-1.83-4.63-3.17-7.5-3.17-5.48,0-10.05,4.91-11.16,8.67-.55-.07-1.12-.12-1.71-.12-4.52,0-8.18,2.35-8.18,5.25s3.66,3.31,8.18,3.31c2.87,0,5.39-.17,6.85-1.03,1.75.65,3.81,1.03,6.02,1.03,3.69,0,6.98-1.05,9.06-2.67,1.4,1.59,4.26,2.67,7.56,2.67,3.67,0,6.79-1.35,7.97-3.23,1.24.5,3.08.61,5.15.61,3.72,0,6.73-.34,6.73-2.72s-3.01-4.32-6.73-4.32Z"/><path class="cls-13" d="M157.59,188.93c.95,3.04,1.62,6.16,2.06,9.32.43,3.16.64,6.34.68,9.53.04,3.19-.11,6.37-.39,9.55-.3,3.17-.73,6.34-1.38,9.47-.1.14-.19.2-.26.19-.07-.02-.12-.11-.16-.28.68-3.09,1.15-6.25,1.48-9.4.32-3.16.51-6.34.5-9.52,0-3.18-.18-6.36-.57-9.51-.4-3.15-1.03-6.28-1.95-9.33Z"/><path class="cls-13" d="M168.36,189.98c.06,3.18-.17,6.37-.63,9.52-.47,3.15-1.16,6.27-2.01,9.35-.85,3.08-1.89,6.1-3.05,9.07-1.18,2.97-2.48,5.89-3.99,8.72-.2.07-.37.07-.5,0-.13-.07-.21-.21-.26-.42,1.55-2.75,2.9-5.63,4.14-8.54,1.22-2.93,2.32-5.91,3.24-8.95.92-3.04,1.67-6.13,2.21-9.26.53-3.13.84-6.31.84-9.49Z"/></g></g><polygon class="cls-12" points="142.58 185.59 81.73 193.84 70.68 112.37 132.34 104.01 140.65 170.26 142.06 181.48 142.58 185.59"/><polygon class="cls-14" points="138.61 153.97 138.61 186.13 108.05 190.27 81.24 190.27 76.39 154.53 76.39 111.59 100.74 108.29 100.8 108.28 132.88 108.28 132.88 108.29 138.61 153.97"/><path class="cls-11" d="M142.06,181.48c-5.18-2.75-7.74-12.42-8.07-13.76-.35-1.4-2.68-3.44-3.65-4.67,0,0-2.45-2.8-1.72-3.84l4.49,1.41s4.56,4.1,7.54,9.64l1.41,11.22Z"/><g class="cls-17"><path class="cls-10" d="M78.09,107.94v81.99h62.22v-81.99h-62.22ZM140.18,158.29v-20,20Z"/><path class="cls-7" d="M141.57,137.8c-.25,3.73-.72,7.16-1.39,10.33v10.16-10.16c-10.5,50.14-69.76,33.19-72.32,34.24-6.01,18.94,66.97,15.81,66.97,15.81l20-6.59-13.26-53.79Z"/></g><path class="cls-9" d="M140.18,139.09v18.61c.82,2.94,1.42,5.77,1.22,6.19-.15.33-.54.46-.85.28-.85-.5-2.95-2.27-4.61-4.85-1.78-2.78-2.69-3.87-4.07-4.71-2.36-1.43-3.15-.64-3.84.16-1.04,1.19-.27,2.66.89,4.9,1.15,2.22,8.55,13.48,10.19,15.29,2.16,2.4,7.55,7.52,8.83,9.3,1.44,1.98,5.85,15.15,5.85,15.15l17.98-.34c-2.52,1.1-8.72-2.29-12.31-13.82-1.35-4.33-3.1-8.94-4.01-14.47-2.76-16.76-11.49-31.17-15.27-31.68Z"/><path class="cls-3" d="M153.54,199.83l-5.23-11.73c-.08-.19-.04-.42.1-.57,0,0,.01-.01.02-.02l9.04-8.26c.22-.2.56-.18.75.05l12.81,15.01,1.35,5.53h-16.24s-2.61,0-2.61,0Z"/><rect class="cls-2" x="54.34" y="87.51" width="109.53" height="115.38"/><path class="cls-5" d="M140.23,146.71c2.24,1.38,3.67,3.76,4.83,6.05,1.1,2.32,1.9,4.9,2.33,7.42-1.77-4.68-3.44-9.95-7.16-13.47h0Z"/><path class="cls-5" d="M140.23,140.79c2.24,1.37,3.67,3.76,4.83,6.05,1.1,2.32,1.9,4.9,2.33,7.42-1.77-4.68-3.44-9.95-7.16-13.47h0Z"/><rect class="cls-2" width="190" height="198.13"/></g></g></g></svg>