<?xml version="1.0" encoding="UTF-8"?><svg xmlns="http://www.w3.org/2000/svg" xmlns:xlink="http://www.w3.org/1999/xlink" viewBox="0 0 190 199.71"><defs><style>.cls-1{fill:#585375;}.cls-1,.cls-2,.cls-3,.cls-4,.cls-5,.cls-6,.cls-7,.cls-8,.cls-9,.cls-10,.cls-11,.cls-12,.cls-13,.cls-14,.cls-15,.cls-16,.cls-17,.cls-18,.cls-19,.cls-20,.cls-21,.cls-22,.cls-23,.cls-24,.cls-25,.cls-26,.cls-27{stroke-width:0px;}.cls-28{clip-path:url(#clippath);}.cls-2{fill:none;}.cls-3,.cls-22{fill:#65bab0;}.cls-4{fill:#63bc4a;}.cls-29{mask:url(#mask);}.cls-30{filter:url(#luminosity-noclip);}.cls-5{fill:#97b7c7;}.cls-6{fill:url(#linear-gradient);}.cls-6,.cls-22,.cls-31,.cls-32,.cls-33,.cls-34{mix-blend-mode:multiply;}.cls-7{fill:#d3d171;}.cls-8{fill:url(#DÈgradÈ_sans_nom_48);}.cls-9{fill:#5f8699;}.cls-10{fill:#ff6643;}.cls-11{fill:#ffd37b;}.cls-12{fill:#bc8062;}.cls-35{clip-path:url(#clippath-1);}.cls-13{fill:#a7a555;}.cls-14{fill:#e0a22b;}.cls-15{fill:#3fd866;}.cls-36{opacity:.46;}.cls-16{fill:#1cb5b1;}.cls-17{fill:#6d5348;}.cls-18{fill:url(#linear-gradient-2);}.cls-19{fill:#7ce1e8;}.cls-20{fill:#3fa33a;}.cls-37{isolation:isolate;}.cls-21{fill:#1db775;}.cls-22,.cls-34{opacity:.49;}.cls-31{opacity:.25;}.cls-32{opacity:.3;}.cls-33{opacity:.29;}.cls-23{fill:#fff;}.cls-38{mask:url(#mask-1);}.cls-24{fill:#32ad2f;}.cls-25{fill:#95f458;}.cls-26{fill:#5e8a8e;}.cls-27{fill:#50af48;}</style><clipPath id="clippath"><rect class="cls-2" width="190" height="199.71"/></clipPath><linearGradient id="DÈgradÈ_sans_nom_48" x1="-163" y1="102.25" x2="341.59" y2="102.25" gradientUnits="userSpaceOnUse"><stop offset="0" stop-color="#82f0fa"/><stop offset="1" stop-color="#00c7f0"/></linearGradient><filter id="luminosity-noclip" x="-42.38" y="36.13" width="62.84" height="41.47" color-interpolation-filters="sRGB" filterUnits="userSpaceOnUse"><feFlood flood-color="#fff" result="bg"/><feBlend in="SourceGraphic" in2="bg"/></filter><filter id="luminosity-noclip-2" x="-42.38" y="-6294.29" width="62.84" height="32766" color-interpolation-filters="sRGB" filterUnits="userSpaceOnUse"><feFlood flood-color="#fff" result="bg"/><feBlend in="SourceGraphic" in2="bg"/></filter><mask id="mask-1" x="-42.38" y="-6294.29" width="62.84" height="32766" maskUnits="userSpaceOnUse"/><linearGradient id="linear-gradient" x1="-10.96" y1="39.14" x2="-10.96" y2="77.58" gradientUnits="userSpaceOnUse"><stop offset=".38" stop-color="#fff"/><stop offset="1" stop-color="#000"/></linearGradient><mask id="mask" x="-42.38" y="36.13" width="62.84" height="41.47" maskUnits="userSpaceOnUse"><g class="cls-30"><g class="cls-38"><path class="cls-6" d="M6.05,77.6c7.96,0,14.41-6.47,14.41-14.46s-6.15-14.13-13.85-14.43c-2.06-7.25-8.7-12.58-16.59-12.58-8.71,0-15.91,6.49-17.08,14.91-2.19-.21-4.46.52-6.14,2.21-1.65,1.66-2.39,3.89-2.21,6.07-4.01,1.02-6.98,4.65-6.98,8.99,0,5.13,4.14,9.29,9.25,9.29H6.05Z"/></g></g></mask><linearGradient id="linear-gradient-2" x1="-10.96" y1="39.14" x2="-10.96" y2="77.58" gradientUnits="userSpaceOnUse"><stop offset=".38" stop-color="#fff"/><stop offset="1" stop-color="#fff"/></linearGradient><clipPath id="clippath-1"><rect class="cls-2" width="190" height="199.71"/></clipPath></defs><g class="cls-37"><g id="Layer_2"><g id="Layer_11"><g class="cls-28"><rect class="cls-8" x="-163" y="-34.28" width="504.59" height="273.06"/><g class="cls-29"><g class="cls-36"><path class="cls-18" d="M6.61,48.71c-2.06-7.25-8.7-12.58-16.59-12.58-8.71,0-15.91,6.49-17.08,14.91-2.19-.21-4.46.52-6.14,2.21-1.65,1.66-2.39,3.89-2.21,6.07-4.01,1.02-6.98,4.65-6.98,9,0,5.13,4.14,9.29,9.25,9.29H6.05c7.96,0,14.41-6.47,14.41-14.46s-6.15-14.14-13.85-14.43Z"/></g></g><path class="cls-7" d="M-15.8,118.5c-9.1-8.34-14.22-10.08-20.24-10.08-5.32,0-12.25,1.04-22.97,11.6-25.39,25.01-68.22,63.27-68.22,63.27H47.11s-27.92-32.71-62.92-64.78Z"/><path class="cls-7" d="M311.28,183.29s-27.06-22.46-50.03-53.41c-17.43-23.5-30.32-31.84-46.24-30.7-3.1.22-8.03,1.2-11.04,2.61-1.53-2.07-2.86-4.02-4.12-5.64-17.06-21.98-27.29-26.91-34.49-28.05-10.99-1.73-20.47.76-41.31,20.09-16.78,15.56-69.74,64.13-69.74,64.13h90.25c-17.84,15.69-35.29,30.98-35.29,30.98h202.01Z"/><path class="cls-7" d="M56.63,64.58c-9.08-11.62-15.26-17.35-25.44-15.82-5.04.76-12.1,4.63-24.7,20.12-44.28,54.42-99.24,114.41-99.24,114.41h246.36S76.47,89.95,56.63,64.58Z"/><path class="cls-16" d="M139.59,65.82c-13.85-16.86-25.77-30.32-36.01-30.32-7.58,0-15.59,3.01-27.29,15.92C-.64,136.32-80.62,183.29-80.62,183.29H239.01s-76.24-89.25-99.42-117.47Z"/><path class="cls-23" d="M103.59,35.5c-7.58,0-15.59,3.01-27.29,15.92-5.13,5.66-10.27,11.14-15.4,16.46,3.13,1.43,6.82,1.45,10.85-1.68,15.16-11.75,19.75-6.01,21.6-3.79,1.9,2.27,3.27,10.61,10.23,10.61s8.5-11.24,13.64-10.99c7.24.34,14.78,12.13,21.31,2.52-13.4-16.26-24.98-29.05-34.96-29.05Z"/><g class="cls-34"><path class="cls-3" d="M239.01,183.29s-76.24-89.25-99.42-117.47c-13.85-16.86-25.77-30.32-36.01-30.32-2.97,0-6,.46-9.29,1.8,3.99-1.04,6.15.3,8.53,1.61,12.82,7.07,17.07,20.87,18.95,42.07,4.17,47-34.49,102.31-34.49,102.31h151.72Z"/></g><path class="cls-21" d="M49.85,103.17c-9.44-11.5-17.58-20.68-24.56-20.68-5.17,0-10.63,2.05-18.61,10.86-52.47,57.9-107.01,89.93-107.01,89.93H117.66s-51.99-60.87-67.8-80.11Z"/><g class="cls-34"><path class="cls-3" d="M117.66,183.29s-51.99-60.87-67.8-80.11c-9.44-11.5-17.58-20.68-24.56-20.68-2.02,0-4.09.32-6.34,1.23,2.72-.71,4.2.2,5.82,1.1,8.74,4.82,11.64,14.24,12.92,28.69,2.84,32.05-23.52,69.77-23.52,69.77h103.47Z"/></g><path class="cls-15" d="M214.14,126.97c-31.86-28.84-59.77-30.83-82.51-27.04-49.44,8.24-156.91,83.36-156.91,83.36h321.78s-29.94-8.88-82.36-56.32Z"/><path class="cls-22" d="M132.08,99.86c.28-.04.56-.09.84-.13-.28.04-.56.09-.84.13Z"/><path class="cls-22" d="M144.86,98.61c25.97,1.03,53.93,22.06-.34,30.88-73.15,11.89-68.22,53.79-68.22,53.79h220.21s-25.96-5.47-82.36-56.32c-25.95-23.4-49.4-28.93-69.28-28.36Z"/><path class="cls-15" d="M63.07,172.97s-23.18-22.45-47.13-33.96c-23.57-11.32-42.78-5.66-76.98,16.09-27.81,17.69-65.81,28.19-65.81,28.19H67.31l-4.24-10.32Z"/><g class="cls-32"><path class="cls-3" d="M63.07,172.97s-23.18-22.45-47.13-33.96c-12.71-6.11-24.16-7.26-37.37-3.63,7.2-1.12,12.4,2.1,14.73,4.73,8.52,9.61-19.24,16.11-33.45,27.48-14.06,11.25-8.81,15.7-8.81,15.7h116.28l-4.24-10.32Z"/></g><path class="cls-24" d="M28.05,163.19c.15-.55.24-1.14.24-1.74,0-3.62-2.94-6.56-6.57-6.56-1.23,0-2.39.34-3.37.93-1.49-1.54-3.58-2.5-5.9-2.5-4.53,0-8.2,3.67-8.2,8.19,0,.58.06,1.14.17,1.69h-.11c-1.79,1.66-2.92,4.04-2.92,6.68,0,4.9,3.87,8.9,8.72,9.11.14.01.29.02.44.02.86,3.09,3.66,5.35,6.99,5.35,1.14,0,2.22-.27,3.19-.75.03,0,.06,0,.09,0,3.75,0,6.82-2.89,7.11-6.56,2.55-1.28,4.29-3.92,4.29-6.96s-1.69-5.59-4.17-6.9Z"/><path class="cls-19" d="M-140.15,183.29c0,6.09,4.94,11.02,11.02,11.02h44.63s3.41,0,5.12,1.61c1.12,1.06,1.8,3.25,1.8,3.25,0,6.23,5.05,11.28,11.28,11.28H69.42c1.7,0,3.08,1.38,3.08,3.08,0,3.4,2.76,6.16,6.16,6.16h80.53c3.4,0,6.16-2.76,6.16-6.16,0-1.7,1.38-3.08,3.08-3.08h58.17c5.94,0,10.76-4.82,10.76-10.76,0-2.97,2.41-5.38,5.38-5.38h66.63c6.09,0,11.02-4.94,11.02-11.02H-140.15Z"/><path class="cls-25" d="M229.72,172.32c-26.37-10.61-48.99-23.69-61.08-29.18-16.69-7.58-37.05-18.19-71.43-7.96-8.09,2.41-26.37,10.99-50.4,22.74-32.58,15.93-72.1,25.37-72.1,25.37h295.29s-21.71-3.48-40.29-10.96Z"/><g class="cls-33"><path class="cls-3" d="M229.72,172.32c-26.37-10.61-48.99-23.69-61.08-29.18-16.28-7.4-36.07-17.67-68.96-8.66,12.55-2.34,27.24-.06,29.24,8.28,2.28,9.49-13.5,18.27-22.7,22.74-23.36,11.37-3,17.79-3,17.79h168.23s-23.15-3.48-41.74-10.96Z"/></g><g class="cls-31"><path class="cls-3" d="M158.73,197.28h-12.51c-.45,0-.81.36-.81.81s.36.81.81.81h12.51c.45,0,.81-.36.81-.81s-.36-.81-.81-.81Z"/></g><g class="cls-31"><path class="cls-3" d="M55.75,199.11h-27.29c-.45,0-.81.36-.81.81s.36.81.81.81h27.29c.45,0,.81-.36.81-.81s-.36-.81-.81-.81Z"/></g><g class="cls-31"><path class="cls-3" d="M66.77,195.06h-17.62c-.45,0-.81.36-.81.81s.36.81.81.81h17.62c.45,0,.81-.36.81-.81s-.36-.81-.81-.81Z"/></g><path class="cls-13" d="M132.17,179.75c0,.4-.57.73-.93.73h0c-.36,0-.93-.32-.93-.73l.28-12c0-.4.29-.72.66-.72h0c.36,0,.66.32.66.72l.28,12Z"/><path class="cls-20" d="M136.72,167.31c-2.87-5-4.59-12.98-4.79-13.53,0,0-.06-.96-.44-.96-.5,0-.62.96-.62.96-.2.56-.94,6.46-5.12,13.53-2.72,4.6-5.86,7-5.86,7,0,0,.01,1.12,2.46,2.33,1.69.83,4.13-.14,4.31-.18.51-.11,1.01.23,1.44.54,1.51,1.07,4.71.99,6.24.02.45-.29.95-.84,1.47-.73.18.04,3.11.53,4.54-.19,1.89-.95,2.22-1.78,2.22-1.78,0,0-3.2-2.36-5.86-7Z"/><path class="cls-27" d="M135.32,161.7c-2.13-3.72-3.41-9.65-3.56-10.07,0,0-.05-.72-.33-.72-.37,0-.46.72-.46.72-.15.41-.7,4.8-3.81,10.07-2.02,3.42-4.36,5.21-4.36,5.21,0,0-.22,1.23,1.67,1.22,1.8,0,2.51-.98,4.44.78.18.16.39.33.66.46.82.4,2.51.4,3.33,0,.25-.12.45-.3.65-.45,1.95-1.38,2.63-.59,4.05-.61,1.57-.02,2.07-1.4,2.07-1.4,0,0-2.38-1.76-4.36-5.21Z"/><path class="cls-4" d="M136.21,158.77s-1.4-.97-2.57-2.88c-1.26-2.05-2.01-5.16-2.1-5.39,0,0-.03-.39-.19-.39-.22,0-.27.39-.27.39-.09.23-.41,2.48-2.24,5.39-1.19,1.89-2.57,2.88-2.57,2.88,0,0-.13.57.98.68.9.08,1.13-1.02,1.81-.33.19.2.41.6,1.17.95.48.22,1.48.22,1.96,0,.76-.35.97-.73,1.24-.95.53-.42.74.44,1.32.44,1.11,0,1.47-.79,1.47-.79Z"/><path class="cls-13" d="M151.64,168.12c0,.27-.38.48-.62.48h0c-.24,0-.62-.22-.62-.48l.18-8.02c0-.27.2-.48.44-.48h0c.24,0,.44.22.44.48l.18,8.02Z"/><path class="cls-20" d="M154.69,159.81c-1.92-3.34-3.06-8.67-3.2-9.04,0,0-.04-.64-.29-.64-.33,0-.42.64-.42.64-.13.37-.63,4.32-3.42,9.04-1.81,3.07-3.92,4.68-3.92,4.68,0,0,0,.75,1.64,1.55,1.13.55,2.76-.1,2.88-.12.34-.08.68.15.97.36,1.01.72,3.15.66,4.17.01.3-.19.63-.56.98-.48.12.03,2.08.35,3.04-.13,1.26-.63,1.48-1.19,1.48-1.19,0,0-2.14-1.58-3.92-4.68Z"/><path class="cls-27" d="M153.75,156.06c-1.42-2.48-2.28-6.45-2.38-6.73,0,0-.03-.48-.22-.48-.25,0-.31.48-.31.48-.1.28-.47,3.21-2.54,6.73-1.35,2.29-2.91,3.48-2.91,3.48,0,0-.15.82,1.12.82,1.2,0,1.68-.66,2.97.52.12.11.26.22.44.31.55.27,1.68.27,2.22,0,.17-.08.3-.2.43-.3,1.3-.93,1.76-.39,2.71-.41,1.05-.02,1.39-.94,1.39-.94,0,0-1.59-1.18-2.92-3.48Z"/><path class="cls-4" d="M154.35,154.1s-.94-.65-1.72-1.92c-.84-1.37-1.34-3.45-1.4-3.6,0,0-.02-.26-.13-.26-.14,0-.18.26-.18.26-.06.15-.27,1.66-1.5,3.6-.8,1.26-1.72,1.92-1.72,1.92,0,0-.08.38.66.45.6.06.76-.68,1.21-.22.13.13.28.4.78.63.32.15.99.15,1.31,0,.51-.23.64-.49.83-.63.35-.28.5.29.88.29.74,0,.98-.53.98-.53Z"/><path class="cls-13" d="M171.02,172.96c0,.31-.45.57-.73.57h0c-.28,0-.73-.25-.73-.57l.22-9.39c0-.31.23-.57.52-.57h0c.28,0,.51.25.51.57l.22,9.39Z"/><path class="cls-20" d="M174.58,163.22c-2.24-3.91-3.59-10.16-3.75-10.6,0,0-.05-.75-.34-.75-.39,0-.49.75-.49.75-.16.44-.73,5.06-4.01,10.6-2.13,3.6-4.59,5.48-4.59,5.48,0,0,0,.88,1.92,1.82,1.32.65,3.23-.11,3.38-.14.4-.09.79.18,1.13.42,1.18.84,3.69.78,4.89.02.36-.23.74-.66,1.15-.57.14.03,2.44.41,3.56-.15,1.48-.74,1.74-1.39,1.74-1.39,0,0-2.51-1.85-4.59-5.48Z"/><path class="cls-27" d="M173.48,158.83c-1.67-2.91-2.67-7.56-2.79-7.88,0,0-.04-.56-.26-.56-.29,0-.36.56-.36.56-.12.32-.54,3.76-2.98,7.88-1.58,2.68-3.41,4.08-3.41,4.08,0,0-.18.96,1.31.96,1.41,0,1.97-.77,3.47.61.14.13.31.26.52.36.64.31,1.97.31,2.61,0,.2-.1.35-.24.51-.35,1.53-1.08,2.06-.46,3.17-.48,1.23-.02,1.62-1.1,1.62-1.1,0,0-1.86-1.38-3.42-4.08Z"/><path class="cls-4" d="M174.18,156.54s-1.1-.76-2.01-2.25c-.98-1.6-1.57-4.04-1.64-4.22,0,0-.02-.31-.15-.31-.17,0-.21.31-.21.31-.07.18-.32,1.94-1.76,4.22-.93,1.48-2.01,2.25-2.01,2.25,0,0-.1.45.77.53.71.07.89-.8,1.41-.25.15.15.32.47.92.74.38.17,1.16.17,1.54,0,.59-.27.76-.57.97-.74.41-.33.58.34,1.03.34.87,0,1.15-.62,1.15-.62Z"/><rect class="cls-26" x="102.69" y="15.91" width=".42" height="20.79"/><polygon class="cls-10" points="110.91 15.91 102.71 15.91 102.71 21.03 110.91 21.03 107.92 18.52 110.91 15.91"/></g></g><g id="Image_4"><g class="cls-35"><path class="cls-5" d="M16.07,166.54s-13.44,24.43-11.46,44.54c1.99,5.38,23.5,6.9,29.34,6.66,5.85-.23,23.74-3.33,25.25-6.78,1.29-2.92-3.42-32.91-11.84-44.95l-31.3.53Z"/><path class="cls-5" d="M47.55,166.42c13.54,7.98,12.96,32.11,10.1,30.73l-10.1-30.73Z"/><path class="cls-1" d="M7.16,188.72c6.23,1.31,10.29,3.51,25.31,3.33,16.52-.19,19.71-2.53,23.32-4.85.41-.26,1.08.53,1.78,3.33.7,2.81.56,3.59-.03,4.06-.4.32-11.05,6.58-24.9,5.87-13.85-.7-26.5-4.16-27.27-4.56-.56-.29-.23-2.08.03-3.39.26-1.32,1.2-3.92,1.75-3.8Z"/><ellipse class="cls-12" cx="31.85" cy="154.61" rx="20.19" ry="19.64"/><path class="cls-17" d="M15.01,134.66s-3.24,6.14-.88,9.03c0,0-1.32,5,.88,6.4,0,0,0,5.61,4.12,5.52,0,0,.96,3.51,5.44,3.42,0,0,1.84,3.42,6.49,2.1,0,0,4.12,1.84,7.37-1.32,0,0,3.86.53,5.17-3.68,0,0,3.59-.44,4.47-4.65,0,0,2.72-1.49,1.67-6.05,0,0,.53-6.31-1.84-10.87,0,0,4,2.6,4.27,6.37,0,0,2.4,5.03-.23,8.27,0,0,1.93,2.63-.7,5.35,0,0,1.84,4.91-2.72,6.23,0,0,.18,5.52-3.24,5.44,0,0-.35,4.56-4.91,3.59,0,0-2.28,3.86-7.01.88,0,0-2.89,4.03-7.19.18,0,0-4.38.79-5.52-3.51,0,0-5.44-.18-4.82-4.91,0,0-3.42-1.49-2.19-5,0,0-4.82-2.02-2.81-7.54,0,0-2.37-6.49.79-9.91,0,0,1.4-4.56,3.42-5.35Z"/><path class="cls-17" d="M18.98,127.24s-2.74,6.14-.74,9.03c0,0-1.11,5,.74,6.4,0,0,0,5.61,3.48,5.52,0,0,.82,3.51,4.59,3.42,0,0,1.56,3.42,5.48,2.1,0,0,3.48,1.84,6.22-1.32,0,0,3.26.53,4.37-3.68,0,0,3.04-.44,3.78-4.65,0,0,2.3-1.49,1.41-6.05,0,0,.44-6.31-1.56-10.87,0,0,3.38,2.6,3.61,6.37,0,0,2.03,5.03-.2,8.27,0,0,1.63,2.63-.59,5.35,0,0,1.56,4.91-2.3,6.23,0,0,.15,5.52-2.74,5.44,0,0-.3,4.56-4.15,3.59,0,0-1.93,3.86-5.93.88,0,0-2.45,4.03-6.08.18,0,0-3.71.79-4.67-3.51,0,0-4.59-.18-4.08-4.91,0,0-2.89-1.49-1.85-5,0,0-4.08-2.02-2.37-7.54,0,0-2-6.49.67-9.91,0,0,1.19-4.56,2.89-5.35Z"/><path class="cls-17" d="M15.94,131.38s-2.74,6.14-.74,9.03c0,0-1.11,5,.74,6.4,0,0,0,5.61,3.48,5.52,0,0,.82,3.51,4.59,3.42,0,0,1.56,3.42,5.48,2.1,0,0,3.48,1.84,6.22-1.32,0,0,3.26.53,4.37-3.68,0,0,3.04-.44,3.78-4.65,0,0,2.3-1.49,1.41-6.05,0,0,.44-6.31-1.56-10.87,0,0,3.38,2.6,3.61,6.37,0,0,2.03,5.03-.2,8.27,0,0,1.63,2.63-.59,5.35,0,0,1.56,4.91-2.3,6.23,0,0,.15,5.52-2.74,5.44,0,0-.3,4.56-4.15,3.59,0,0-1.93,3.86-5.93.88,0,0-2.45,4.03-6.08.18,0,0-3.71.79-4.67-3.51,0,0-4.59-.18-4.08-4.91,0,0-2.89-1.49-1.85-5,0,0-4.08-2.02-2.37-7.54,0,0-2-6.49.67-9.91,0,0,1.19-4.56,2.89-5.35Z"/><path class="cls-17" d="M13.22,137.16s-2.74,6.14-.74,9.03c0,0-1.11,5,.74,6.4,0,0,0,5.61,3.48,5.52,0,0,.82,3.51,4.59,3.42,0,0,1.56,3.42,5.48,2.1,0,0,3.48,1.84,6.22-1.32,0,0,3.26.53,4.37-3.68,0,0,3.04-.44,3.78-4.65,0,0,2.3-1.49,1.41-6.05,0,0,.44-6.31-1.56-10.87,0,0,3.38,2.6,3.61,6.37,0,0,2.03,5.03-.2,8.27,0,0,1.63,2.63-.59,5.35,0,0,1.56,4.91-2.3,6.23,0,0,.15,5.52-2.74,5.44,0,0-.3,4.56-4.15,3.59,0,0-1.93,3.86-5.93.88,0,0-2.45,4.03-6.08.18,0,0-3.71.79-4.67-3.51,0,0-4.59-.18-4.08-4.91,0,0-2.89-1.49-1.85-5,0,0-4.08-2.02-2.37-7.54,0,0-2-6.49.67-9.91,0,0,1.19-4.56,2.89-5.35Z"/><path class="cls-17" d="M14.4,151.98s-.36-5.18,4.33-9.7c5.66-5.45,21.47-5.68,26.07-.58,3.91,4.33,4.79,6.9,5.2,9.12,0,0,1.34-.76,1.4-1.34.06-.58-3.86-17.89-22.15-14.32-18.3,3.57-16.95,15.02-16.13,16.02.82.99,1.28.81,1.28.81Z"/><path class="cls-11" d="M10.28,151.92s-6.49-3.62,5.55-22.91c0,0-3.27.09-6.61,2.28-3.33,2.19-4.91,3.33-5.44,1.84-.53-1.49,6.14-11.31,9.73-14.38,3.59-3.07,10.17-5.79,21.39-3.86,11.22,1.93,14.24,14.74,16.13,18.94,2.08,4.59,3.95,14.55,2.28,18.33-13.54,5.56-27.97,4.9-43.05-.23Z"/><path class="cls-9" d="M55.9,187.26c-.11.01-.22-.06-.27-.2-.92-2.52-2.15-4.84-3.67-6.87-.1-.13-.1-.33,0-.44.1-.11.25-.1.35.03,1.56,2.09,2.83,4.47,3.77,7.06.06.16,0,.34-.12.41-.02.01-.04.02-.06.02Z"/><path class="cls-14" d="M15.79,129.24c-.05,0-.11-.02-.15-.05-.11-.08-.13-.24-.04-.35,1.65-2.11,4.11-3.6,6.75-4.09.13-.03.26.06.29.2.02.13-.06.26-.2.29-2.52.47-4.87,1.89-6.45,3.91-.05.06-.12.09-.19.09Z"/><path class="cls-14" d="M53.83,144.4c.05-.03.1-.08.12-.14.06-.14,0-.3-.15-.35-2.82-1.01-6.11-.95-9.01.15-.14.05-.23.21-.18.35.05.14.21.21.36.15,2.78-1.05,5.91-1.11,8.61-.15.08.03.17.02.25-.03Z"/></g></g></g></g></svg>