<?xml version="1.0" encoding="UTF-8"?><svg xmlns="http://www.w3.org/2000/svg" viewBox="0 0 190 210"><defs><style>.cls-1{fill:#585375;}.cls-1,.cls-2,.cls-3,.cls-4,.cls-5,.cls-6,.cls-7,.cls-8,.cls-9,.cls-10,.cls-11,.cls-12,.cls-13,.cls-14,.cls-15,.cls-16,.cls-17,.cls-18,.cls-19,.cls-20,.cls-21,.cls-22,.cls-23,.cls-24,.cls-25,.cls-26,.cls-27,.cls-28,.cls-29,.cls-30,.cls-31,.cls-32,.cls-33{stroke-width:0px;}.cls-2{fill:#da9e00;}.cls-3{fill:#ffdc5a;}.cls-4{fill:#c9937b;}.cls-5{fill:#ffc000;}.cls-6{fill:#97b7c7;}.cls-7{fill:#f0c400;}.cls-8,.cls-12{fill:#f0b500;}.cls-9{fill:#fcc600;}.cls-10{fill:#faceaa;opacity:.29;}.cls-10,.cls-11{mix-blend-mode:screen;}.cls-11{fill:#fcc833;opacity:.49;}.cls-34,.cls-12,.cls-15,.cls-26,.cls-29{mix-blend-mode:multiply;}.cls-13{fill:#5f8699;}.cls-14{fill:#d19d07;}.cls-15{fill:#f4bf4f;}.cls-15,.cls-26,.cls-29{opacity:.67;}.cls-16{fill:#ffd37b;}.cls-17{fill:#bc8062;}.cls-18{fill:#a06f5c;}.cls-19,.cls-32{fill:#000;}.cls-20,.cls-35,.cls-32{opacity:.3;}.cls-20,.cls-27,.cls-31{fill:#fff;}.cls-21{fill:#e0a22b;}.cls-22{fill:#e6ac00;}.cls-23{fill:#38302e;}.cls-24{fill:#d0780e;}.cls-25{fill:#cca052;}.cls-26{fill:#e8c056;}.cls-36{opacity:.2;}.cls-27{opacity:.5;}.cls-28{fill:#6d5348;}.cls-29{fill:#f1cf80;}.cls-37{isolation:isolate;}.cls-30{fill:#c3d5de;}.cls-33{fill:#c37110;}</style></defs><g class="cls-37"><g id="Layer_2"><g id="Image_4"><rect class="cls-31" width="190" height="210"/><rect class="cls-5" x="118.76" y="171.14" width="29.68" height="4.14"/><polygon class="cls-5" points="148.44 171.14 118.76 171.14 119.39 170.68 147.82 170.68 148.44 171.14"/><polygon class="cls-20" points="148.44 171.14 118.76 171.14 119.39 170.68 147.82 170.68 148.44 171.14"/><polygon class="cls-5" points="148.44 175.27 147.81 175.73 119.39 175.73 118.76 175.27 148.44 175.27"/><polygon class="cls-32" points="148.44 175.27 147.81 175.73 119.39 175.73 118.76 175.27 148.44 175.27"/><g class="cls-35"><polygon class="cls-31" points="123.54 170.68 122.92 171.14 122.92 175.27 118.76 175.27 118.76 171.14 119.39 170.68 123.54 170.68"/><polygon class="cls-31" points="123.54 175.74 119.39 175.74 118.76 175.28 122.92 175.28 123.54 175.74"/></g><g class="cls-36"><polygon class="cls-19" points="147.82 170.68 143.66 170.68 144.29 171.14 144.29 171.14 144.29 175.27 148.44 175.27 148.44 171.14 147.82 170.68"/><polygon class="cls-19" points="148.44 175.28 147.81 175.73 143.67 175.73 144.29 175.28 148.44 175.28"/></g><rect class="cls-27" x="127.18" y="171.14" width="2.82" height="4.14"/><rect class="cls-5" x="116.01" y="166.08" width="29.68" height="4.14"/><polygon class="cls-5" points="145.69 166.08 116.01 166.08 116.63 165.62 145.06 165.62 145.69 166.08"/><polygon class="cls-20" points="145.69 166.08 116.01 166.08 116.63 165.62 145.06 165.62 145.69 166.08"/><polygon class="cls-5" points="145.69 170.21 145.06 170.67 116.63 170.67 116.01 170.21 145.69 170.21"/><polygon class="cls-32" points="145.69 170.21 145.06 170.67 116.63 170.67 116.01 170.21 145.69 170.21"/><g class="cls-35"><polygon class="cls-31" points="120.79 165.62 120.16 166.08 120.16 170.21 116.01 170.21 116.01 166.08 116.63 165.62 120.79 165.62"/><polygon class="cls-31" points="120.79 170.68 116.63 170.68 116.01 170.22 120.16 170.22 120.79 170.68"/></g><g class="cls-36"><polygon class="cls-19" points="145.06 165.62 140.91 165.62 141.53 166.08 141.54 166.08 141.54 170.21 145.69 170.21 145.69 166.08 145.06 165.62"/><polygon class="cls-19" points="145.68 170.22 145.06 170.67 140.91 170.67 141.53 170.22 145.68 170.22"/></g><rect class="cls-27" x="124.42" y="166.08" width="2.82" height="4.14"/><rect class="cls-5" x="116.79" y="161.02" width="29.68" height="4.14"/><polygon class="cls-5" points="146.47 161.02 116.79 161.02 117.42 160.56 145.85 160.56 146.47 161.02"/><polygon class="cls-20" points="146.47 161.02 116.79 161.02 117.42 160.56 145.85 160.56 146.47 161.02"/><polygon class="cls-5" points="146.48 165.15 145.85 165.61 117.42 165.61 116.79 165.15 146.48 165.15"/><polygon class="cls-32" points="146.48 165.15 145.85 165.61 117.42 165.61 116.79 165.15 146.48 165.15"/><g class="cls-35"><polygon class="cls-31" points="121.57 160.56 120.95 161.02 120.95 165.15 116.79 165.15 116.79 161.02 117.42 160.56 121.57 160.56"/><polygon class="cls-31" points="121.57 165.62 117.42 165.62 116.79 165.16 120.95 165.16 121.57 165.62"/></g><g class="cls-36"><polygon class="cls-19" points="145.85 160.56 141.69 160.56 142.32 161.02 142.33 161.02 142.33 165.15 146.48 165.15 146.48 161.02 145.85 160.56"/><polygon class="cls-19" points="146.47 165.16 145.85 165.61 141.7 165.61 142.32 165.16 146.47 165.16"/></g><rect class="cls-27" x="125.21" y="161.02" width="2.82" height="4.14"/><rect class="cls-5" x="112.24" y="156.27" width="29.68" height="4.14"/><polygon class="cls-5" points="141.92 156.27 112.24 156.27 112.87 155.81 141.3 155.81 141.92 156.27"/><polygon class="cls-20" points="141.92 156.27 112.24 156.27 112.87 155.81 141.3 155.81 141.92 156.27"/><polygon class="cls-5" points="141.92 160.41 141.3 160.87 112.87 160.87 112.24 160.41 141.92 160.41"/><polygon class="cls-32" points="141.92 160.41 141.3 160.87 112.87 160.87 112.24 160.41 141.92 160.41"/><g class="cls-35"><polygon class="cls-31" points="117.02 155.81 116.4 156.27 116.4 160.41 112.24 160.41 112.24 156.27 112.87 155.81 117.02 155.81"/><polygon class="cls-31" points="117.02 160.87 112.87 160.87 112.24 160.41 116.4 160.41 117.02 160.87"/></g><g class="cls-36"><polygon class="cls-19" points="141.3 155.81 137.14 155.81 137.77 156.27 137.78 156.27 137.78 160.41 141.93 160.41 141.93 156.27 141.3 155.81"/><polygon class="cls-19" points="141.92 160.41 141.3 160.87 137.15 160.87 137.77 160.41 141.92 160.41"/></g><rect class="cls-27" x="120.66" y="156.27" width="2.82" height="4.14"/><rect class="cls-5" x="109.49" y="151.21" width="29.68" height="4.14"/><polygon class="cls-5" points="139.17 151.21 109.49 151.21 110.12 150.75 138.54 150.75 139.17 151.21"/><polygon class="cls-20" points="139.17 151.21 109.49 151.21 110.12 150.75 138.54 150.75 139.17 151.21"/><polygon class="cls-5" points="139.17 155.35 138.54 155.81 110.11 155.81 109.49 155.35 139.17 155.35"/><polygon class="cls-32" points="139.17 155.35 138.54 155.81 110.11 155.81 109.49 155.35 139.17 155.35"/><g class="cls-35"><polygon class="cls-31" points="114.27 150.75 113.64 151.21 113.64 155.35 109.49 155.35 109.49 151.21 110.12 150.75 114.27 150.75"/><polygon class="cls-31" points="114.27 155.81 110.12 155.81 109.49 155.35 113.64 155.35 114.27 155.81"/></g><g class="cls-36"><polygon class="cls-19" points="138.54 150.75 134.39 150.75 135.02 151.21 135.02 151.21 135.02 155.35 139.17 155.35 139.17 151.21 138.54 150.75"/><polygon class="cls-19" points="139.16 155.35 138.54 155.81 134.39 155.81 135.02 155.35 139.16 155.35"/></g><rect class="cls-27" x="117.91" y="151.21" width="2.82" height="4.14"/><rect class="cls-5" x="110.28" y="146.15" width="29.68" height="4.14"/><polygon class="cls-5" points="139.96 146.15 110.28 146.15 110.9 145.69 139.33 145.69 139.96 146.15"/><polygon class="cls-20" points="139.96 146.15 110.28 146.15 110.9 145.69 139.33 145.69 139.96 146.15"/><polygon class="cls-5" points="139.96 150.29 139.33 150.75 110.9 150.75 110.28 150.29 139.96 150.29"/><polygon class="cls-32" points="139.96 150.29 139.33 150.75 110.9 150.75 110.28 150.29 139.96 150.29"/><g class="cls-35"><polygon class="cls-31" points="115.06 145.69 114.43 146.15 114.43 150.29 110.28 150.29 110.28 146.15 110.9 145.69 115.06 145.69"/><polygon class="cls-31" points="115.06 150.75 110.9 150.75 110.28 150.29 114.43 150.29 115.06 150.75"/></g><g class="cls-36"><polygon class="cls-19" points="139.33 145.69 135.18 145.69 135.8 146.15 135.81 146.15 135.81 150.29 139.96 150.29 139.96 146.15 139.33 145.69"/><polygon class="cls-19" points="139.95 150.29 139.33 150.75 135.18 150.75 135.8 150.29 139.95 150.29"/></g><rect class="cls-27" x="118.69" y="146.15" width="2.82" height="4.14"/><path class="cls-16" d="M72.03,140.61c0,.33,4.68,17.75,4.68,17.75l19.71.22s.33-13.17.11-15.02l-24.5-2.94Z"/><path class="cls-1" d="M75.98,155.74s11.83,3.05,20.54.98c0,0,.11,23.84-.65,24.93-.76,1.09-30.41,3.6-33.03.58-1.67-1.92,1.16-9.22,7.69-10.74,6.53-1.52,9-.44,9-.44,0,0-2.61-9.36-3.56-15.31Z"/><path class="cls-16" d="M126.29,140.61c0,.33-4.68,17.75-4.68,17.75l-19.71.22s-.33-13.17-.11-15.02l24.5-2.94Z"/><path class="cls-1" d="M122.33,155.74s-11.83,3.05-20.54.98c0,0-.11,23.84.65,24.93s30.41,3.6,33.03.58c1.67-1.92-1.16-9.22-7.69-10.74-6.53-1.52-9-.44-9-.44,0,0,2.61-9.36,3.56-15.31Z"/><path class="cls-6" d="M79.32,83.45s-16.69,30.34-14.23,55.31c2.47,6.68,29.18,8.56,36.44,8.27,7.26-.29,29.47-4.14,31.36-8.42,1.6-3.63-4.25-40.86-14.7-55.82l-38.87.65Z"/><path class="cls-6" d="M78.74,84.44s-5.7.73-11.18,8.46c-5.47,7.72-18.58,7.75-22.14,6.15l-3.61,8.84s16.54,9.4,29.95-.25l6.97-23.2Z"/><path class="cls-6" d="M118.82,83.3s5.74.42,11.62,7.83c5.89,7.41,19.55,6.85,21.97,4.85l4.56,8.72s-16,10.29-29.92,1.39l-8.23-22.78Z"/><path class="cls-30" d="M154.72,106.13c.9.36,4.58-.5,4.59-1.23.02-1.38-3.04-7.49-3.72-10.15-.12-.47-2.65.35-3.43.93-2.16,1.6-.35,9.29,2.56,10.45Z"/><path class="cls-1" d="M68.25,110.99c7.74,1.63,12.77,4.35,31.43,4.14,20.52-.24,24.48-3.14,28.96-6.02.51-.33,1.34.65,2.21,4.14.87,3.48.69,4.46-.04,5.04-.5.4-13.72,8.17-30.92,7.29-17.2-.87-32.91-5.16-33.86-5.66-.69-.36-.29-2.58.04-4.21.33-1.63,1.49-4.86,2.18-4.72Z"/><path class="cls-30" d="M45,109.35c-.64.72-3.44-.41-3.78-1.05-1.45-2.69,1.6-8.35,3.77-10.13.38-.31,3.16.02,3.42.94,1.26,4.32-2.69,9.41-3.41,10.23Z"/><path class="cls-16" d="M171.21,121.27c-.65-4.15-2.66-10.87-5.08-16.7-2.3-5.52-6.96-8.12-6.96-9.83-.05-1.31,1.77-3.83,1.98-4.31l-7.83.66c.34.65,1.96,1.74,1.96,3.65,0,.98-4.71,5.72-6.71,9.98-2.39,5.1-4.33,12.39-4.98,16.54-1.26,7.21.66,12.05,3.4,15.08,2.82,3.03,6.47,4.27,10.41,4.27s7.59-1.23,10.41-4.27c2.75-3.04,4.66-7.87,3.4-15.08Z"/><path class="cls-16" d="M162.19,84.42c-.02-1.4-.69-2.54-1.61-2.54-.4,0-.68.67-1.06.58-.64-.16-1.04-1.37-1.96-1.37s-1.84.84-2.42,1.17c-.19.11-.41-.12-.63-.12-1.1,0-1.94,1.08-1.96,2.42,0,.22.14.46.06.65-.38.79-.74,1.07-.81,1.99-.08.88.89.88,1,1.73.02.18-.12.37-.14.56-.14,1.13.67,2.04,1.86,2.04.53,0,.96-.57,1.39-.48.71.16,1.16,1.21,2.05,1.21s1.32-.83,1.96-1.13c.1-.05.23.04.34.04.96,0,1.61-.89,1.49-1.98,0,0,0,0,0-.01.14-.57.6-.78.55-1.37-.05-.55-.6-.84-.64-1.42-.05-.68.54-1.17.53-1.95Z"/><path class="cls-25" d="M156.39,91.27c.03-.12-.32-7.35-.43-9.55-.31.2-.59.41-.82.53,0,0-.02,0-.03.01.16,1.22.35,3.03.52,3.96.26,1.49.71,5.17.75,5.05Z"/><path class="cls-25" d="M155.39,91.1s-.56-2.82-.87-3.72c-.21-.6-.75-3.13-1.2-4.73-.45.44-.74,1.13-.75,1.91,0,.22.14.46.06.65-.01.02-.02.05-.03.07.7,2.36,2.75,5.83,2.8,5.83Z"/><path class="cls-25" d="M161.33,82.16c-.22-.18-.47-.28-.74-.28-.32,0-.57.44-.85.56.04.67.05,1.9.06,3.27,0,1.87-.13,5.34-.13,5.34.02,0,.41-2.05.99-5.55.25-1.44.52-2.72.66-3.29,0-.02,0-.04.01-.06Z"/><path class="cls-8" d="M157.49,96.97c-.07,0-.13-.05-.18-.13-.05.08-.12.12-.19.1-.02,0-.05-.01-.07-.02-.07-.02-.13-.09-.17-.19-.06.06-.13.08-.19.04-.02-.01-.05-.03-.07-.04-.07-.04-.12-.13-.15-.24-.06.04-.13.04-.19-.01-.02-.02-.05-.04-.07-.06-.06-.06-.11-.15-.14-.27-.06.03-.13,0-.19-.06-.02-.02-.04-.05-.06-.07-.06-.07-.1-.18-.12-.3-.06.01-.13-.02-.19-.1-.02-.03-.04-.06-.06-.09-.06-.08-.09-.2-.1-.33-.06,0-.13-.05-.18-.14-.04-.07-.06-.12-.06-.12-.1-.22-.1-.56,0-.77.11-.21.28-.21.38,0,0,0,.02.03.04.08.04.08.07.18.08.29.06,0,.11.04.16.11.02.02.03.05.05.08.05.07.08.17.1.27.05-.01.11.01.16.07.02.02.04.04.05.06.05.06.09.15.11.25.05-.02.11-.01.17.03.02.02.04.03.06.05.05.05.1.12.13.22.05-.04.11-.04.17,0,.02.01.04.02.06.03.06.03.1.09.14.18.05-.05.1-.07.16-.06.02,0,.04,0,.06.01.06.01.11.06.15.13.04-.06.1-.1.15-.11.02,0,.04,0,.06,0,.06,0,.11.02.16.08.04-.08.09-.14.15-.16.02,0,.04-.01.06-.02.06-.02.12,0,.17.05.04-.09.09-.15.15-.18.02-.01.04-.02.06-.03.06-.03.12-.02.17.02.03-.09.08-.17.14-.21.02-.01.04-.03.06-.04.06-.04.12-.04.17,0,.03-.1.07-.18.12-.23.02-.02.04-.03.06-.05.05-.05.11-.06.17-.04.02-.1.06-.19.11-.25.02-.02.04-.04.05-.07.13-.16.29-.09.37.17.08.25.04.59-.08.76-.02.03-.04.05-.06.08-.06.07-.13.09-.19.07-.03.12-.07.22-.13.28-.02.02-.04.04-.07.06-.06.06-.13.06-.19.02-.03.11-.08.2-.14.25-.02.02-.05.03-.07.05-.06.04-.13.04-.19-.01-.04.1-.09.18-.16.22-.02.01-.05.02-.07.03-.07.03-.13.01-.19-.04-.04.1-.1.17-.16.19-.02,0-.05.02-.07.02-.07.02-.13,0-.19-.08-.05.09-.11.15-.18.16-.03,0-.05,0-.08,0h0Z"/><path class="cls-12" d="M159.72,94.95c.01.2-.03.42-.12.53-.02.02-.04.05-.06.08-.06.07-.13.09-.19.07-.03.12-.07.22-.13.28-.02.02-.04.04-.07.06-.06.06-.13.06-.19.02-.03.11-.08.2-.14.25-.02.02-.05.03-.07.05-.06.04-.13.04-.19-.01-.04.1-.09.18-.16.22-.02.01-.05.02-.07.03-.07.03-.13.01-.19-.04-.04.1-.1.17-.16.19-.02,0-.05.02-.07.02-.07.02-.13,0-.19-.07-.05.09-.11.15-.18.16-.03,0-.05,0-.08,0,0,0,0,0,0,0-.07,0-.13-.05-.18-.13-.05.08-.12.12-.19.1-.02,0-.05-.01-.07-.02-.07-.02-.13-.09-.17-.19-.06.06-.13.08-.19.04-.02-.01-.05-.03-.07-.04-.07-.04-.12-.13-.15-.24-.06.04-.13.04-.19-.01-.02-.02-.05-.04-.07-.06-.06-.06-.11-.15-.14-.27-.06.03-.13,0-.19-.06-.02-.02-.04-.05-.06-.07-.06-.07-.1-.18-.12-.3-.06.01-.13-.02-.19-.1-.02-.03-.04-.06-.06-.09-.06-.08-.09-.2-.1-.33-.06,0-.13-.05-.18-.14-.04-.07-.06-.12-.06-.12-.02-.04-.03-.09-.05-.13,0,.11.03.22.07.31,0,0,.02.04.06.12.05.09.12.14.18.14.01.13.05.24.1.33.02.03.04.06.06.09.06.08.12.11.19.1.02.12.06.23.12.3.02.02.04.05.06.07.06.07.13.09.19.06.03.12.07.22.14.27.02.02.04.04.07.06.06.05.13.05.19.01.03.11.09.2.15.24.02.01.05.03.07.04.07.04.14.02.19-.04.04.1.1.17.17.19.02,0,.05.01.07.02.07.02.14-.03.19-.1.05.08.11.13.18.13h0s.05,0,.08,0c.07,0,.13-.07.18-.16.05.07.12.1.19.08.02,0,.05-.02.07-.02.07-.02.12-.09.16-.19.06.06.12.08.19.04.02-.01.05-.02.07-.03.07-.03.12-.11.16-.22.06.05.12.06.19.01.02-.02.05-.03.07-.05.06-.05.11-.14.14-.25.06.04.13.03.19-.02.02-.02.04-.04.07-.06.06-.06.11-.16.13-.28.06.02.13,0,.19-.07.02-.03.04-.05.06-.08.12-.15.16-.46.1-.71Z"/><path class="cls-7" d="M156.98,98.24s-.02,0-.03,0c-.03,0-.05-.01-.08-.02-.07-.02-.13-.09-.18-.2-.06.06-.13.07-.2.03-.02-.02-.05-.03-.07-.05-.07-.05-.12-.14-.15-.26-.06.03-.13.02-.2-.04-.02-.02-.04-.05-.07-.07-.06-.07-.1-.18-.13-.3-.06.01-.13-.02-.19-.1-.02-.03-.04-.06-.06-.09-.06-.08-.09-.2-.1-.33-.06,0-.13-.05-.18-.14-.02-.03-.04-.07-.05-.1-.05-.09-.08-.22-.08-.34-.06-.01-.12-.07-.17-.17-.02-.04-.03-.07-.05-.11-.05-.1-.07-.23-.07-.36-.06-.03-.12-.1-.16-.21-.03-.08-.05-.13-.05-.13-.08-.25-.05-.59.07-.76.12-.17.29-.1.38.15h0s.01.04.03.09c.04.1.05.21.05.32.05.02.11.08.15.17.01.03.03.06.04.09.04.09.06.2.07.31.06.01.11.06.15.14.02.03.03.06.05.09.04.08.07.18.08.29.06,0,.11.04.16.11.02.02.03.05.05.07.05.07.08.16.1.27.05-.01.11,0,.16.07.02.02.04.04.05.06.05.05.09.13.11.23.05-.03.11-.03.16.01.02.01.04.03.06.04.05.03.1.1.13.18.05-.05.1-.07.15-.05.02,0,.04,0,.06.01.05,0,.1.05.14.12.04-.06.09-.11.14-.12.01,0,.03,0,.04,0h.02c.06-.02.11,0,.16.05.04-.08.08-.15.14-.18.02,0,.04-.02.06-.03.06-.03.11-.03.16.01.03-.09.07-.17.13-.21.02-.02.04-.03.06-.05.05-.05.11-.06.16-.04.02-.1.06-.19.11-.25.02-.02.04-.04.05-.07.05-.06.11-.09.16-.08.01-.11.05-.2.09-.28.02-.03.03-.05.05-.08.04-.08.1-.12.15-.13,0-.11.03-.21.07-.3.01-.03.03-.06.04-.09.04-.09.09-.14.14-.17,0-.1.01-.21.04-.3h0c.05-.17.13-.28.23-.28.15,0,.27.25.27.55,0,.16-.03.27-.05.33-.04.12-.1.2-.16.24,0,.13-.02.27-.07.37-.02.04-.03.07-.05.11-.05.1-.11.16-.18.17,0,.13-.04.25-.09.34-.02.03-.04.06-.06.1-.05.09-.12.13-.19.12-.02.13-.06.24-.12.31-.02.03-.04.05-.06.08-.06.07-.13.09-.19.07-.03.12-.07.22-.14.28-.02.02-.05.04-.07.06-.06.05-.13.05-.19.01-.03.11-.09.2-.16.23-.02.01-.05.03-.07.04-.07.03-.14.01-.19-.05-.04.1-.1.17-.17.19h-.02s-.03.02-.05.02c-.07.02-.14-.03-.2-.11-.05.08-.11.12-.17.12Z"/><g class="cls-34"><path class="cls-7" d="M156.03,96.47s.03,0,.05,0c-.02-.05-.04-.09-.06-.13-.02-.02-.03-.05-.05-.07.03.06.05.13.06.2Z"/><path class="cls-7" d="M155.64,95.73c.04.08.07.18.08.29.02,0,.04,0,.07.02-.01-.07-.04-.13-.06-.18-.02-.03-.03-.06-.05-.09-.02-.03-.03-.05-.05-.08,0,0,0,.02.01.03Z"/><path class="cls-7" d="M155.37,95.19c.04.09.06.2.07.31.03,0,.05.02.08.04-.01-.08-.03-.15-.06-.22-.01-.03-.03-.06-.04-.09-.02-.05-.05-.09-.08-.12.01.03.02.05.04.08Z"/><path class="cls-7" d="M155.09,94.51s.01.04.03.09c.04.1.05.21.05.32.03.01.06.04.08.07,0-.09-.02-.17-.05-.25-.02-.06-.03-.09-.03-.09-.03-.08-.06-.14-.1-.18,0,.01.01.03.02.04Z"/><polygon class="cls-7" points="156.71 97.05 156.7 97.04 156.7 97.05 156.71 97.05"/><path class="cls-7" d="M156.36,96.83s.02,0,.03-.01c-.02-.03-.04-.06-.06-.08,0,0,0,0,0,0,.01.03.02.06.03.1Z"/><path class="cls-7" d="M156.19,97.61c-.06.04-.13.02-.2-.04-.02-.02-.04-.04-.06-.06.02.05.05.09.08.13.02.02.04.05.07.07.05.06.11.07.17.05-.02-.04-.04-.09-.06-.15Z"/><path class="cls-7" d="M155.8,97.2c-.06.01-.13-.02-.19-.1,0,0,0,0,0,0,0,.02.02.04.03.06.02.03.04.06.06.09.04.06.09.09.14.1-.01-.04-.03-.09-.04-.14Z"/><path class="cls-7" d="M156.61,97.89c-.06.06-.13.07-.2.03-.02-.02-.05-.03-.07-.05-.01,0-.02-.02-.03-.03.03.07.07.13.12.17.02.02.05.03.07.05.07.04.14.03.2-.03-.03-.04-.06-.08-.08-.14Z"/><path class="cls-7" d="M159.48,94.73c.04.09.07.22.07.35,0,.16-.03.27-.05.33-.04.12-.1.2-.16.23,0,.13-.02.27-.07.37-.02.04-.03.07-.05.11-.05.1-.11.16-.18.17,0,.13-.04.25-.09.34-.02.03-.04.06-.06.1-.05.09-.12.13-.18.12-.02.13-.06.24-.12.31-.02.03-.04.05-.06.08-.06.07-.13.09-.19.07-.03.12-.07.22-.14.28-.02.02-.05.04-.07.06-.06.05-.13.05-.19.01-.03.11-.09.2-.16.23-.02.01-.05.03-.07.04-.07.03-.14.02-.19-.05-.04.1-.1.17-.17.19h-.02s-.03.01-.05.02c-.07.02-.14-.03-.2-.12-.05.08-.11.12-.17.12,0,0-.02,0-.03,0-.03,0-.05-.01-.08-.02-.03,0-.06-.03-.09-.06.04.1.1.17.17.19.03,0,.05.01.08.02,0,0,.02,0,.03,0,.06,0,.12-.05.17-.12.05.09.12.13.2.11.02,0,.03,0,.05-.01h.02c.07-.02.13-.09.17-.19.06.06.12.08.19.05.02-.01.05-.03.07-.04.07-.04.12-.12.16-.23.06.04.13.04.19-.01.02-.02.05-.04.07-.06.06-.06.11-.16.14-.28.06.03.13,0,.19-.07.02-.03.04-.05.06-.08.06-.07.1-.19.12-.31.06,0,.13-.03.19-.12.02-.03.04-.06.06-.1.05-.09.08-.21.09-.34.06-.01.13-.07.18-.17.02-.04.03-.07.05-.11.05-.11.07-.24.07-.37.07-.03.13-.11.16-.24.02-.06.05-.16.05-.33,0-.21-.06-.4-.15-.49Z"/><path class="cls-7" d="M155.13,96.1s-.06-.03-.09-.06c0,0,0,.01,0,.02.03.06.06.1.09.13,0-.03,0-.06,0-.09Z"/><path class="cls-7" d="M154.85,95.46s-.04-.03-.06-.05c.02.05.04.09.07.12,0-.02,0-.05,0-.07Z"/><path class="cls-7" d="M155.45,96.68s-.09-.03-.13-.07c.01.02.02.04.04.07.03.06.07.1.11.12,0-.04-.02-.08-.02-.12Z"/></g><ellipse class="cls-17" cx="98.92" cy="68.64" rx="25.07" ry="24.39"/><path class="cls-18" d="M98.53,60.49c-2.36.05-4.8,12.55-3.87,13.57,2.12,2.31,6.94,2.12,8.66-.1.84-1.07-1.78-13.54-4.8-13.48Z"/><path class="cls-19" d="M86.49,62.97c-.11,0-.21-.06-.27-.16-.08-.15-.03-.33.12-.42,1.9-1.07,4.06-1.7,6.23-1.83.16,0,.31.12.32.29.01.17-.12.31-.29.32-2.08.13-4.15.73-5.97,1.76-.05.03-.1.04-.15.04Z"/><path class="cls-19" d="M111.52,62.89c-.05,0-.1-.01-.15-.04-1.82-1.02-3.88-1.63-5.97-1.76-.17-.01-.3-.16-.29-.32.01-.17.15-.3.32-.29,2.18.13,4.33.77,6.23,1.83.15.08.2.27.12.42-.06.1-.16.16-.27.16Z"/><path class="cls-4" d="M86.51,69.47c2.31,1.33,3.35,3.85,2.33,5.62-1.02,1.77-3.72,2.13-6.03.79-2.31-1.33-3.35-3.85-2.33-5.62,1.02-1.77,3.72-2.13,6.03-.79Z"/><path class="cls-4" d="M111.33,69.47c-2.31,1.33-3.35,3.85-2.33,5.62,1.02,1.77,3.72,2.13,6.03.79,2.31-1.33,3.35-3.85,2.33-5.62-1.02-1.77-3.72-2.13-6.03-.79Z"/><path class="cls-19" d="M99.18,82.18c-4.19,0-7.59-1.6-7.59-3.57,0-.17.25-.31.57-.31s.57.14.57.31c0,1.63,2.9,2.96,6.46,2.96s6.45-1.33,6.45-2.96c0-.17.25-.31.57-.31s.57.14.57.31c0,1.97-3.41,3.57-7.59,3.57Z"/><path class="cls-28" d="M78.34,54.16s-4.03,7.62-1.09,11.21c0,0-1.63,6.21,1.09,7.95,0,0,0,6.97,5.12,6.86,0,0,1.2,4.35,6.75,4.25,0,0,2.29,4.25,8.06,2.61,0,0,5.12,2.29,9.15-1.63,0,0,4.79.65,6.42-4.57,0,0,4.46-.54,5.55-5.77,0,0,3.38-1.85,2.07-7.51,0,0,.65-7.84-2.29-13.5,0,0,4.97,3.23,5.3,7.91,0,0,2.98,6.24-.29,10.27,0,0,2.4,3.27-.87,6.64,0,0,2.29,6.1-3.38,7.73,0,0,.22,6.86-4.03,6.75,0,0-.44,5.66-6.1,4.46,0,0-2.83,4.79-8.71,1.09,0,0-3.59,5.01-8.93.22,0,0-5.44.98-6.86-4.35,0,0-6.75-.22-5.99-6.1,0,0-4.25-1.85-2.72-6.21,0,0-5.99-2.5-3.48-9.36,0,0-2.94-8.06.98-12.3,0,0,1.74-5.66,4.25-6.64Z"/><path class="cls-28" d="M77.24,65.37s-.44-6.43,5.38-12.04c7.02-6.77,26.66-7.06,32.37-.73,4.85,5.37,5.95,8.56,6.46,11.32,0,0,1.67-.94,1.74-1.67.07-.73-4.79-22.21-27.51-17.78-22.72,4.43-21.05,18.65-20.03,19.89,1.02,1.23,1.59,1.01,1.59,1.01Z"/><path class="cls-16" d="M72.13,65.3s-8.06-4.5,6.9-28.45c0,0-4.06.11-8.2,2.83-4.14,2.72-6.1,4.14-6.75,2.29-.65-1.85,7.62-14.04,12.09-17.86,4.46-3.81,12.63-7.19,26.57-4.79,13.94,2.4,17.68,18.31,20.03,23.52,2.58,5.7,4.9,18.07,2.83,22.75,0,0-5.94-21.31-29.36-19.45-17.86,1.42-24.1,19.16-24.1,19.16Z"/><path class="cls-13" d="M68.5,110.11s-.03,0-.04,0c-.17-.02-.29-.18-.26-.34.45-3.37,1.72-6.62,3.68-9.4.1-.14.29-.17.43-.07.14.1.17.29.07.43-1.9,2.7-3.14,5.86-3.57,9.13-.02.15-.15.27-.3.27Z"/><path class="cls-13" d="M128.1,107.27c-.13,0-.26-.09-.29-.22-.7-2.54-1.82-4.93-3.34-7.09-.1-.14-.06-.33.07-.43.14-.1.33-.06.43.07,1.56,2.22,2.71,4.66,3.43,7.28.04.16-.05.33-.21.38-.03,0-.05.01-.08.01Z"/><path class="cls-13" d="M89.05,143.24h0c-6.86-.07-13.84-1.51-20.17-4.14-.16-.06-.23-.24-.16-.4.06-.16.25-.23.4-.16,6.26,2.61,13.16,4.03,19.94,4.1.17,0,.3.14.3.31,0,.17-.14.3-.31.3Z"/><path class="cls-13" d="M97.11,143.39c-.83,0-1.66-.05-2.49-.16-.17-.02-.29-.17-.26-.34.02-.17.18-.28.34-.26,2.3.3,4.61.17,6.86-.38.17-.04.33.06.37.22.04.16-.06.33-.22.37-1.51.37-3.05.56-4.59.56Z"/><path class="cls-13" d="M57.98,102.26s-.02,0-.03,0c-.17-.02-.29-.17-.27-.34.09-.87-.09-1.77-.51-2.55-.08-.15-.03-.33.12-.41.15-.08.33-.03.41.12.48.88.68,1.91.58,2.9-.02.16-.15.27-.3.27Z"/><path class="cls-13" d="M135.39,101.17s-.05,0-.07,0c-.16-.04-.26-.21-.22-.37.46-1.87,1.44-3.58,2.81-4.93.12-.12.31-.12.43,0,.12.12.12.31,0,.43-1.28,1.25-2.22,2.9-2.65,4.64-.03.14-.16.23-.3.23Z"/><path class="cls-13" d="M137.79,99.87s-.03,0-.05,0c-.17-.03-.28-.18-.25-.35.19-1.15.76-2.22,1.6-3.01.12-.12.32-.11.43.01.12.12.11.32-.01.43-.75.71-1.25,1.65-1.42,2.67-.03.15-.15.26-.3.26Z"/><path class="cls-21" d="M78.97,37.13c-.07,0-.13-.02-.19-.06-.13-.1-.16-.3-.05-.43,2.05-2.62,5.1-4.48,8.38-5.08.16-.03.33.08.36.24.03.17-.08.33-.24.36-3.13.58-6.05,2.35-8.01,4.86-.06.08-.15.12-.24.12Z"/><path class="cls-17" d="M45.71,99.92c-.18-.93-.72-2.01-1.88-3.42-1.15-1.41-2.4-3.98-3.5-4.93-.94-.81-2.05-.3-1.62,1.15.36,1.23,1.67,3.97,1.41,4.04-.16.04-1.45-.97-2.95-2.37-.84-.79-2.07-2.09-2.54-2.54-1.15-1.11-2.76-.38-2.05,1.09.28.59,1.32,1.82,1.97,2.56.51.6,1.79,2.29,1.79,2.29,0,0-1.45-.79-3.01-1.73-1.44-.87-2.86-1.88-3.46-1.99-.97-.17-2.1,1.15-.45,2.5.69.57,1.59,1.19,2.41,1.79,1.28.95,2.39,1.79,2.39,1.79,0,0-1.52-.28-3.12-.73-1.32-.37-2.52-.88-3.23-.84-.98.04-1.22,1.54.32,2.34,1.25.65,6.15,2.63,6.15,2.63,0,0-.93.03-2.01,0-.85-.02-1.73-.21-2.69-.11-1.05.11-1.05,1.42.08,1.83.99.37,3.03.51,5.13.98,2.56.58,6.53,1.05,7.35.64.94-.47,4.14-3.56,3.5-6.98Z"/><path class="cls-17" d="M161.26,91.65c1.21.41,1.41,1.81,1.41,2.61s.88,2.18.62,3.27c-.27,1.09-.54,1.19-.21,1.78.4.73.25,2.25.07,2.83-.15.49.76,1.92-.31,2.87s-6.63,1.52-8.14.73c-1.5-.8-.8-2.61-.53-2.83.27-.22-3.09-.58-1.15-3.77,0,0-1.95-1.38.09-3.7,0,0-2.12-2.61.27-3.41,2.39-.8,6.37-.87,7.87-.36Z"/><path class="cls-28" d="M156.52,103.11c-.66,0-1.36-.05-2.17-.12-.08,0-.15-.08-.14-.17,0-.08.08-.15.17-.14,2.22.21,3.49.2,5.61-.39.09-.02.17.02.19.11.02.08-.02.17-.11.19-1.36.38-2.41.53-3.55.53Z"/><path class="cls-28" d="M155.26,99.35c-.82,0-1.56-.03-2.13-.07-.08,0-.15-.08-.14-.16,0-.08.07-.15.16-.14,1.61.1,4.63.17,6.81-.43.09-.02.17.03.19.11.02.08-.03.17-.11.19-1.45.4-3.25.51-4.78.51Z"/><path class="cls-28" d="M155.85,95.64c-.86,0-1.72-.05-2.57-.11-.08,0-.15-.08-.14-.16,0-.08.08-.15.16-.14,2.18.16,4.48.25,6.61-.45.08-.03.17.02.19.1.03.08-.02.17-.1.19-1.35.44-2.76.58-4.16.58Z"/><path class="cls-23" d="M82.36,174.99c-.11,0-.21-.06-.27-.16-.76-1.38-1.76-2.6-2.97-3.62-.13-.11-.14-.3-.04-.43.11-.13.3-.14.43-.04,1.26,1.07,2.31,2.35,3.11,3.79.08.15.03.33-.12.41-.05.03-.1.04-.15.04Z"/><path class="cls-23" d="M116.55,173.46c-.06,0-.12-.02-.17-.05-.14-.1-.17-.29-.08-.42.67-.97,1.5-1.8,2.47-2.47.14-.09.33-.06.43.08.1.14.06.33-.08.43-.91.63-1.69,1.41-2.32,2.32-.06.09-.15.13-.25.13Z"/><path class="cls-28" d="M90.36,52.11c-3.48.51-7.55,3.92-6.17,5.73,1.49,1.96,7.91-.87,9.8-2.25,1.83-1.33.13-4.03-3.63-3.48Z"/><path class="cls-28" d="M107.59,52.11c3.48.51,7.55,3.92,6.17,5.73-1.49,1.96-7.91-.87-9.8-2.25-1.83-1.33-.13-4.03,3.63-3.48Z"/><g class="cls-35"><polygon class="cls-31" points="136.7 182.87 136.08 183.33 136.08 187.47 131.92 187.47 131.92 183.33 132.55 182.87 136.7 182.87"/><polygon class="cls-31" points="136.7 187.93 132.55 187.93 131.92 187.47 136.08 187.47 136.7 187.93"/></g><rect class="cls-27" x="140.34" y="183.33" width="2.82" height="4.14"/><rect class="cls-27" x="137.59" y="178.27" width="2.82" height="4.14"/><rect class="cls-5" x="8.43" y="176.45" width="29.68" height="4.14"/><polygon class="cls-5" points="38.11 176.45 8.43 176.45 9.06 175.99 37.49 175.99 38.11 176.45"/><polygon class="cls-20" points="38.11 176.45 8.43 176.45 9.06 175.99 37.49 175.99 38.11 176.45"/><polygon class="cls-5" points="38.12 180.59 37.49 181.05 9.06 181.05 8.43 180.59 38.12 180.59"/><polygon class="cls-32" points="38.12 180.59 37.49 181.05 9.06 181.05 8.43 180.59 38.12 180.59"/><g class="cls-35"><polygon class="cls-31" points="13.21 175.99 12.59 176.45 12.59 180.59 8.43 180.59 8.43 176.45 9.06 175.99 13.21 175.99"/><polygon class="cls-31" points="13.21 181.05 9.06 181.05 8.43 180.59 12.59 180.59 13.21 181.05"/></g><g class="cls-36"><polygon class="cls-19" points="37.49 176 33.33 176 33.96 176.46 33.97 176.46 33.97 180.59 38.12 180.59 38.12 176.46 37.49 176"/><polygon class="cls-19" points="38.11 180.6 37.49 181.05 33.34 181.05 33.96 180.6 38.11 180.6"/></g><rect class="cls-27" x="16.85" y="176.45" width="2.82" height="4.14"/><rect class="cls-5" x="5.68" y="171.39" width="29.68" height="4.14"/><polygon class="cls-5" points="35.36 171.39 5.68 171.39 6.31 170.93 34.73 170.93 35.36 171.39"/><polygon class="cls-20" points="35.36 171.39 5.68 171.39 6.31 170.93 34.73 170.93 35.36 171.39"/><polygon class="cls-5" points="35.36 175.53 34.73 175.99 6.31 175.99 5.68 175.53 35.36 175.53"/><polygon class="cls-32" points="35.36 175.53 34.73 175.99 6.31 175.99 5.68 175.53 35.36 175.53"/><g class="cls-35"><polygon class="cls-31" points="10.46 170.93 9.83 171.39 9.83 175.53 5.68 175.53 5.68 171.39 6.31 170.93 10.46 170.93"/><polygon class="cls-31" points="10.46 175.99 6.31 175.99 5.68 175.53 9.83 175.53 10.46 175.99"/></g><g class="cls-36"><polygon class="cls-19" points="34.74 170.94 30.58 170.94 31.21 171.4 31.21 171.4 31.21 175.53 35.36 175.53 35.36 171.4 34.74 170.94"/><polygon class="cls-19" points="35.36 175.54 34.73 175.99 30.59 175.99 31.21 175.54 35.36 175.54"/></g><rect class="cls-27" x="14.1" y="171.39" width="2.82" height="4.14"/><rect class="cls-5" x="6.47" y="166.33" width="29.68" height="4.14"/><polygon class="cls-5" points="36.15 166.33 6.47 166.33 7.09 165.87 35.52 165.87 36.15 166.33"/><polygon class="cls-20" points="36.15 166.33 6.47 166.33 7.09 165.87 35.52 165.87 36.15 166.33"/><polygon class="cls-5" points="36.15 170.47 35.52 170.93 7.09 170.93 6.47 170.47 36.15 170.47"/><polygon class="cls-32" points="36.15 170.47 35.52 170.93 7.09 170.93 6.47 170.47 36.15 170.47"/><g class="cls-35"><polygon class="cls-31" points="11.25 165.87 10.62 166.33 10.62 170.47 6.47 170.47 6.47 166.33 7.09 165.87 11.25 165.87"/><polygon class="cls-31" points="11.25 170.93 7.09 170.93 6.47 170.47 10.62 170.47 11.25 170.93"/></g><g class="cls-36"><polygon class="cls-19" points="35.52 165.88 31.37 165.88 31.99 166.34 32 166.34 32 170.47 36.15 170.47 36.15 166.34 35.52 165.88"/><polygon class="cls-19" points="36.14 170.48 35.52 170.93 31.37 170.93 31.99 170.48 36.14 170.48"/></g><rect class="cls-27" x="14.88" y="166.33" width="2.82" height="4.14"/><rect class="cls-5" x="13.98" y="161.56" width="29.68" height="4.14"/><polygon class="cls-5" points="43.67 161.56 13.98 161.56 14.61 161.1 43.04 161.1 43.67 161.56"/><polygon class="cls-20" points="43.67 161.56 13.98 161.56 14.61 161.1 43.04 161.1 43.67 161.56"/><polygon class="cls-5" points="43.67 165.7 43.04 166.16 14.61 166.16 13.98 165.7 43.67 165.7"/><polygon class="cls-32" points="43.67 165.7 43.04 166.16 14.61 166.16 13.98 165.7 43.67 165.7"/><g class="cls-35"><polygon class="cls-31" points="18.77 161.1 18.14 161.56 18.14 165.7 13.98 165.7 13.98 161.56 14.61 161.1 18.77 161.1"/><polygon class="cls-31" points="18.77 166.16 14.61 166.16 13.98 165.7 18.14 165.7 18.77 166.16"/></g><g class="cls-36"><polygon class="cls-19" points="43.04 161.1 38.89 161.1 39.51 161.56 39.52 161.56 39.52 165.7 43.67 165.7 43.67 161.56 43.04 161.1"/><polygon class="cls-19" points="43.66 165.7 43.04 166.16 38.89 166.16 39.51 165.7 43.66 165.7"/></g><rect class="cls-27" x="22.4" y="161.56" width="2.82" height="4.14"/><rect class="cls-5" x="11.23" y="156.5" width="29.68" height="4.14"/><polygon class="cls-5" points="40.91 156.5 11.23 156.5 11.86 156.04 40.28 156.04 40.91 156.5"/><polygon class="cls-20" points="40.91 156.5 11.23 156.5 11.86 156.04 40.28 156.04 40.91 156.5"/><polygon class="cls-5" points="40.91 160.64 40.28 161.1 11.86 161.1 11.23 160.64 40.91 160.64"/><polygon class="cls-32" points="40.91 160.64 40.28 161.1 11.86 161.1 11.23 160.64 40.91 160.64"/><g class="cls-35"><polygon class="cls-31" points="16.01 156.04 15.39 156.5 15.39 160.64 11.23 160.64 11.23 156.5 11.86 156.04 16.01 156.04"/><polygon class="cls-31" points="16.01 161.1 11.86 161.1 11.23 160.64 15.39 160.64 16.01 161.1"/></g><g class="cls-36"><polygon class="cls-19" points="40.29 156.04 36.13 156.04 36.76 156.5 36.76 156.5 36.76 160.64 40.91 160.64 40.91 156.5 40.29 156.04"/><polygon class="cls-19" points="40.91 160.64 40.28 161.1 36.14 161.1 36.76 160.64 40.91 160.64"/></g><rect class="cls-27" x="19.65" y="156.5" width="2.82" height="4.14"/><rect class="cls-5" x="12.02" y="151.44" width="29.68" height="4.14"/><polygon class="cls-5" points="41.7 151.44 12.02 151.44 12.64 150.98 41.07 150.98 41.7 151.44"/><polygon class="cls-20" points="41.7 151.44 12.02 151.44 12.64 150.98 41.07 150.98 41.7 151.44"/><polygon class="cls-5" points="41.7 155.58 41.07 156.04 12.64 156.04 12.02 155.58 41.7 155.58"/><polygon class="cls-32" points="41.7 155.58 41.07 156.04 12.64 156.04 12.02 155.58 41.7 155.58"/><g class="cls-35"><polygon class="cls-31" points="16.8 150.98 16.17 151.44 16.17 155.58 12.02 155.58 12.02 151.44 12.64 150.98 16.8 150.98"/><polygon class="cls-31" points="16.8 156.04 12.64 156.04 12.02 155.58 16.17 155.58 16.8 156.04"/></g><g class="cls-36"><polygon class="cls-19" points="41.07 150.98 36.92 150.98 37.54 151.44 37.55 151.44 37.55 155.58 41.7 155.58 41.7 151.44 41.07 150.98"/><polygon class="cls-19" points="41.69 155.58 41.07 156.04 36.92 156.04 37.54 155.58 41.69 155.58"/></g><rect class="cls-27" x="20.43" y="151.44" width="2.82" height="4.14"/><rect class="cls-5" x="30.36" y="182.98" width="29.68" height="4.14"/><polygon class="cls-5" points="60.05 182.98 30.36 182.98 30.99 182.52 59.42 182.52 60.05 182.98"/><polygon class="cls-20" points="60.05 182.98 30.36 182.98 30.99 182.52 59.42 182.52 60.05 182.98"/><polygon class="cls-5" points="60.05 187.12 59.42 187.58 30.99 187.58 30.37 187.12 60.05 187.12"/><polygon class="cls-32" points="60.05 187.12 59.42 187.58 30.99 187.58 30.37 187.12 60.05 187.12"/><g class="cls-35"><polygon class="cls-31" points="35.15 182.52 34.52 182.98 34.52 187.12 30.36 187.12 30.36 182.98 30.99 182.52 35.15 182.52"/><polygon class="cls-31" points="35.15 187.58 30.99 187.58 30.36 187.12 34.52 187.12 35.15 187.58"/></g><g class="cls-36"><polygon class="cls-19" points="59.42 182.53 55.27 182.53 55.89 182.98 55.9 182.98 55.9 187.12 60.05 187.12 60.05 182.98 59.42 182.53"/><polygon class="cls-19" points="60.04 187.13 59.42 187.58 55.27 187.58 55.89 187.13 60.04 187.13"/></g><rect class="cls-27" x="38.78" y="182.98" width="2.82" height="4.14"/><rect class="cls-5" x="27.61" y="177.92" width="29.68" height="4.14"/><polygon class="cls-5" points="57.29 177.92 27.61 177.92 28.24 177.46 56.67 177.46 57.29 177.92"/><polygon class="cls-20" points="57.29 177.92 27.61 177.92 28.24 177.46 56.67 177.46 57.29 177.92"/><polygon class="cls-5" points="57.29 182.06 56.67 182.52 28.24 182.52 27.61 182.06 57.29 182.06"/><polygon class="cls-32" points="57.29 182.06 56.67 182.52 28.24 182.52 27.61 182.06 57.29 182.06"/><g class="cls-35"><polygon class="cls-31" points="32.39 177.46 31.77 177.92 31.77 182.06 27.61 182.06 27.61 177.92 28.24 177.46 32.39 177.46"/><polygon class="cls-31" points="32.39 182.52 28.24 182.52 27.61 182.06 31.77 182.06 32.39 182.52"/></g><g class="cls-36"><polygon class="cls-19" points="56.67 177.47 52.51 177.47 53.14 177.92 53.14 177.92 53.14 182.06 57.29 182.06 57.29 177.92 56.67 177.47"/><polygon class="cls-19" points="57.29 182.07 56.67 182.52 52.52 182.52 53.14 182.07 57.29 182.07"/></g><rect class="cls-27" x="36.03" y="177.92" width="2.82" height="4.14"/><rect class="cls-5" x="28.4" y="172.86" width="29.68" height="4.14"/><polygon class="cls-5" points="58.08 172.86 28.4 172.86 29.02 172.4 57.45 172.4 58.08 172.86"/><polygon class="cls-20" points="58.08 172.86 28.4 172.86 29.02 172.4 57.45 172.4 58.08 172.86"/><polygon class="cls-5" points="58.08 177 57.45 177.46 29.02 177.46 28.4 177 58.08 177"/><polygon class="cls-32" points="58.08 177 57.45 177.46 29.02 177.46 28.4 177 58.08 177"/><g class="cls-35"><polygon class="cls-31" points="33.18 172.4 32.55 172.86 32.55 177 28.4 177 28.4 172.86 29.02 172.4 33.18 172.4"/><polygon class="cls-31" points="33.18 177.46 29.02 177.46 28.4 177 32.55 177 33.18 177.46"/></g><g class="cls-36"><polygon class="cls-19" points="57.45 172.41 53.3 172.41 53.93 172.86 53.93 172.86 53.93 177 58.08 177 58.08 172.86 57.45 172.41"/><polygon class="cls-19" points="58.07 177 57.45 177.46 53.3 177.46 53.93 177 58.07 177"/></g><rect class="cls-27" x="36.81" y="172.86" width="2.82" height="4.14"/><rect class="cls-5" x="31.74" y="167.8" width="29.68" height="4.14"/><polygon class="cls-5" points="61.42 167.8 31.74 167.8 32.37 167.34 60.8 167.34 61.42 167.8"/><polygon class="cls-20" points="61.42 167.8 31.74 167.8 32.37 167.34 60.8 167.34 61.42 167.8"/><polygon class="cls-5" points="61.42 171.94 60.8 172.4 32.37 172.4 31.74 171.94 61.42 171.94"/><polygon class="cls-32" points="61.42 171.94 60.8 172.4 32.37 172.4 31.74 171.94 61.42 171.94"/><g class="cls-35"><polygon class="cls-31" points="36.52 167.34 35.9 167.8 35.9 171.94 31.74 171.94 31.74 167.8 32.37 167.34 36.52 167.34"/><polygon class="cls-31" points="36.52 172.4 32.37 172.4 31.74 171.94 35.9 171.94 36.52 172.4"/></g><g class="cls-36"><polygon class="cls-19" points="60.8 167.34 56.64 167.34 57.27 167.8 57.28 167.8 57.28 171.94 61.42 171.94 61.42 167.8 60.8 167.34"/><polygon class="cls-19" points="61.42 171.94 60.8 172.4 56.65 172.4 57.27 171.94 61.42 171.94"/></g><rect class="cls-27" x="40.16" y="167.8" width="2.82" height="4.14"/><rect class="cls-5" x="28.99" y="162.74" width="29.68" height="4.14"/><polygon class="cls-5" points="58.67 162.74 28.99 162.74 29.61 162.28 58.04 162.28 58.67 162.74"/><polygon class="cls-20" points="58.67 162.74 28.99 162.74 29.61 162.28 58.04 162.28 58.67 162.74"/><polygon class="cls-5" points="58.67 166.88 58.04 167.34 29.61 167.34 28.99 166.88 58.67 166.88"/><polygon class="cls-32" points="58.67 166.88 58.04 167.34 29.61 167.34 28.99 166.88 58.67 166.88"/><g class="cls-35"><polygon class="cls-31" points="33.77 162.28 33.14 162.74 33.14 166.88 28.99 166.88 28.99 162.74 29.61 162.28 33.77 162.28"/><polygon class="cls-31" points="33.77 167.34 29.61 167.34 28.99 166.88 33.14 166.88 33.77 167.34"/></g><g class="cls-36"><polygon class="cls-19" points="58.04 162.28 53.89 162.28 54.52 162.74 54.52 162.74 54.52 166.88 58.67 166.88 58.67 162.74 58.04 162.28"/><polygon class="cls-19" points="58.66 166.88 58.04 167.34 53.89 167.34 54.52 166.88 58.66 166.88"/></g><rect class="cls-27" x="37.4" y="162.74" width="2.82" height="4.14"/><rect class="cls-5" x="29.77" y="157.68" width="29.68" height="4.14"/><polygon class="cls-5" points="59.46 157.68 29.77 157.68 30.4 157.22 58.83 157.22 59.46 157.68"/><polygon class="cls-20" points="59.46 157.68 29.77 157.68 30.4 157.22 58.83 157.22 59.46 157.68"/><polygon class="cls-5" points="59.46 161.82 58.83 162.28 30.4 162.28 29.77 161.82 59.46 161.82"/><polygon class="cls-32" points="59.46 161.82 58.83 162.28 30.4 162.28 29.77 161.82 59.46 161.82"/><g class="cls-35"><polygon class="cls-31" points="34.56 157.22 33.93 157.68 33.93 161.82 29.77 161.82 29.77 157.68 30.4 157.22 34.56 157.22"/><polygon class="cls-31" points="34.56 162.28 30.4 162.28 29.77 161.82 33.93 161.82 34.56 162.28"/></g><g class="cls-36"><polygon class="cls-19" points="58.83 157.22 54.68 157.22 55.3 157.68 55.31 157.68 55.31 161.82 59.46 161.82 59.46 157.68 58.83 157.22"/><polygon class="cls-19" points="59.45 161.82 58.83 162.28 54.68 162.28 55.3 161.82 59.45 161.82"/></g><rect class="cls-27" x="38.19" y="157.68" width="2.82" height="4.14"/><rect class="cls-5" x="27.45" y="152.62" width="29.68" height="4.14"/><polygon class="cls-5" points="57.13 152.62 27.45 152.62 28.08 152.16 56.5 152.16 57.13 152.62"/><polygon class="cls-20" points="57.13 152.62 27.45 152.62 28.08 152.16 56.5 152.16 57.13 152.62"/><polygon class="cls-5" points="57.13 156.75 56.5 157.21 28.07 157.21 27.45 156.75 57.13 156.75"/><polygon class="cls-32" points="57.13 156.75 56.5 157.21 28.07 157.21 27.45 156.75 57.13 156.75"/><g class="cls-35"><polygon class="cls-31" points="32.23 152.16 31.6 152.62 31.6 156.75 27.45 156.75 27.45 152.62 28.08 152.16 32.23 152.16"/><polygon class="cls-31" points="32.23 157.22 28.08 157.22 27.45 156.76 31.6 156.76 32.23 157.22"/></g><g class="cls-36"><polygon class="cls-19" points="56.51 152.16 52.35 152.16 52.98 152.62 52.98 152.62 52.98 156.75 57.13 156.75 57.13 152.62 56.51 152.16"/><polygon class="cls-19" points="57.12 156.76 56.5 157.21 52.36 157.21 52.98 156.76 57.12 156.76"/></g><rect class="cls-27" x="35.87" y="152.62" width="2.82" height="4.14"/><rect class="cls-5" x="24.69" y="147.56" width="29.68" height="4.14"/><polygon class="cls-5" points="54.38 147.56 24.69 147.56 25.32 147.1 53.75 147.1 54.38 147.56"/><polygon class="cls-20" points="54.38 147.56 24.69 147.56 25.32 147.1 53.75 147.1 54.38 147.56"/><polygon class="cls-5" points="54.38 151.69 53.75 152.15 25.32 152.15 24.7 151.69 54.38 151.69"/><polygon class="cls-32" points="54.38 151.69 53.75 152.15 25.32 152.15 24.7 151.69 54.38 151.69"/><g class="cls-35"><polygon class="cls-31" points="29.48 147.1 28.85 147.56 28.85 151.69 24.69 151.69 24.69 147.56 25.32 147.1 29.48 147.1"/><polygon class="cls-31" points="29.48 152.16 25.32 152.16 24.69 151.7 28.85 151.7 29.48 152.16"/></g><g class="cls-36"><polygon class="cls-19" points="53.75 147.1 49.6 147.1 50.22 147.56 50.23 147.56 50.23 151.69 54.38 151.69 54.38 147.56 53.75 147.1"/><polygon class="cls-19" points="54.37 151.7 53.75 152.15 49.6 152.15 50.22 151.7 54.37 151.7"/></g><rect class="cls-27" x="33.11" y="147.56" width="2.82" height="4.14"/><rect class="cls-5" x="25.48" y="142.5" width="29.68" height="4.14"/><polygon class="cls-5" points="55.16 142.5 25.48 142.5 26.11 142.04 54.54 142.04 55.16 142.5"/><polygon class="cls-20" points="55.16 142.5 25.48 142.5 26.11 142.04 54.54 142.04 55.16 142.5"/><polygon class="cls-5" points="55.16 146.63 54.54 147.09 26.11 147.09 25.48 146.63 55.16 146.63"/><polygon class="cls-32" points="55.16 146.63 54.54 147.09 26.11 147.09 25.48 146.63 55.16 146.63"/><g class="cls-35"><polygon class="cls-31" points="30.26 142.04 29.64 142.5 29.64 146.63 25.48 146.63 25.48 142.5 26.11 142.04 30.26 142.04"/><polygon class="cls-31" points="30.26 147.1 26.11 147.1 25.48 146.64 29.64 146.64 30.26 147.1"/></g><g class="cls-36"><polygon class="cls-19" points="54.54 142.04 50.38 142.04 51.01 142.5 51.02 142.5 51.02 146.63 55.16 146.63 55.16 142.5 54.54 142.04"/><polygon class="cls-19" points="55.16 146.64 54.54 147.09 50.39 147.09 51.01 146.64 55.16 146.64"/></g><rect class="cls-27" x="33.9" y="142.5" width="2.82" height="4.14"/><rect class="cls-5" x="28.83" y="137.43" width="29.68" height="4.14"/><polygon class="cls-5" points="58.51 137.43 28.83 137.43 29.45 136.97 57.88 136.97 58.51 137.43"/><polygon class="cls-20" points="58.51 137.43 28.83 137.43 29.45 136.97 57.88 136.97 58.51 137.43"/><polygon class="cls-5" points="58.51 141.57 57.88 142.03 29.45 142.03 28.83 141.57 58.51 141.57"/><polygon class="cls-32" points="58.51 141.57 57.88 142.03 29.45 142.03 28.83 141.57 58.51 141.57"/><g class="cls-35"><polygon class="cls-31" points="33.61 136.97 32.98 137.43 32.98 141.57 28.83 141.57 28.83 137.43 29.45 136.97 33.61 136.97"/><polygon class="cls-31" points="33.61 142.03 29.45 142.03 28.83 141.57 32.98 141.57 33.61 142.03"/></g><g class="cls-36"><polygon class="cls-19" points="57.88 136.97 53.73 136.97 54.35 137.43 54.36 137.43 54.36 141.57 58.51 141.57 58.51 137.43 57.88 136.97"/><polygon class="cls-19" points="58.5 141.57 57.88 142.03 53.73 142.03 54.35 141.57 58.5 141.57"/></g><rect class="cls-27" x="37.24" y="137.43" width="2.82" height="4.14"/><rect class="cls-5" x="26.07" y="132.37" width="29.68" height="4.14"/><polygon class="cls-5" points="55.75 132.37 26.07 132.37 26.7 131.91 55.13 131.91 55.75 132.37"/><polygon class="cls-20" points="55.75 132.37 26.07 132.37 26.7 131.91 55.13 131.91 55.75 132.37"/><polygon class="cls-5" points="55.75 136.51 55.13 136.97 26.7 136.97 26.07 136.51 55.75 136.51"/><polygon class="cls-32" points="55.75 136.51 55.13 136.97 26.7 136.97 26.07 136.51 55.75 136.51"/><g class="cls-35"><polygon class="cls-31" points="30.85 131.91 30.23 132.37 30.23 136.51 26.07 136.51 26.07 132.37 26.7 131.91 30.85 131.91"/><polygon class="cls-31" points="30.85 136.97 26.7 136.97 26.07 136.51 30.23 136.51 30.85 136.97"/></g><g class="cls-36"><polygon class="cls-19" points="55.13 131.91 50.97 131.91 51.6 132.37 51.61 132.37 51.61 136.51 55.75 136.51 55.75 132.37 55.13 131.91"/><polygon class="cls-19" points="55.75 136.51 55.13 136.97 50.98 136.97 51.6 136.51 55.75 136.51"/></g><rect class="cls-27" x="34.49" y="132.37" width="2.82" height="4.14"/><rect class="cls-5" x="26.86" y="127.31" width="29.68" height="4.14"/><polygon class="cls-5" points="56.54 127.31 26.86 127.31 27.49 126.85 55.91 126.85 56.54 127.31"/><polygon class="cls-20" points="56.54 127.31 26.86 127.31 27.49 126.85 55.91 126.85 56.54 127.31"/><polygon class="cls-5" points="56.54 131.45 55.91 131.91 27.48 131.91 26.86 131.45 56.54 131.45"/><polygon class="cls-32" points="56.54 131.45 55.91 131.91 27.48 131.91 26.86 131.45 56.54 131.45"/><g class="cls-35"><polygon class="cls-31" points="31.64 126.85 31.01 127.31 31.01 131.45 26.86 131.45 26.86 127.31 27.49 126.85 31.64 126.85"/><polygon class="cls-31" points="31.64 131.91 27.49 131.91 26.86 131.45 31.01 131.45 31.64 131.91"/></g><g class="cls-36"><polygon class="cls-19" points="55.91 126.85 51.76 126.85 52.39 127.31 52.39 127.31 52.39 131.45 56.54 131.45 56.54 127.31 55.91 126.85"/><polygon class="cls-19" points="56.53 131.45 55.91 131.91 51.76 131.91 52.39 131.45 56.53 131.45"/></g><rect class="cls-27" x="35.28" y="127.31" width="2.82" height="4.14"/><rect class="cls-5" x="31.92" y="122.71" width="29.68" height="4.14"/><polygon class="cls-5" points="61.6 122.71 31.92 122.71 32.55 122.25 60.97 122.25 61.6 122.71"/><polygon class="cls-20" points="61.6 122.71 31.92 122.71 32.55 122.25 60.97 122.25 61.6 122.71"/><polygon class="cls-5" points="61.6 126.85 60.97 127.31 32.55 127.31 31.92 126.85 61.6 126.85"/><polygon class="cls-32" points="61.6 126.85 60.97 127.31 32.55 127.31 31.92 126.85 61.6 126.85"/><g class="cls-35"><polygon class="cls-31" points="36.7 122.25 36.08 122.71 36.08 126.85 31.92 126.85 31.92 122.71 32.55 122.25 36.7 122.25"/><polygon class="cls-31" points="36.7 127.31 32.55 127.31 31.92 126.85 36.08 126.85 36.7 127.31"/></g><g class="cls-36"><polygon class="cls-19" points="60.98 122.25 56.82 122.25 57.45 122.71 57.45 122.71 57.45 126.85 61.6 126.85 61.6 122.71 60.98 122.25"/><polygon class="cls-19" points="61.6 126.85 60.97 127.31 56.83 127.31 57.45 126.85 61.6 126.85"/></g><rect class="cls-27" x="40.34" y="122.71" width="2.82" height="4.14"/><rect class="cls-5" x="29.17" y="117.65" width="29.68" height="4.14"/><polygon class="cls-5" points="58.85 117.65 29.17 117.65 29.79 117.19 58.22 117.19 58.85 117.65"/><polygon class="cls-20" points="58.85 117.65 29.17 117.65 29.79 117.19 58.22 117.19 58.85 117.65"/><polygon class="cls-5" points="58.85 121.79 58.22 122.25 29.79 122.25 29.17 121.79 58.85 121.79"/><polygon class="cls-32" points="58.85 121.79 58.22 122.25 29.79 122.25 29.17 121.79 58.85 121.79"/><g class="cls-35"><polygon class="cls-31" points="33.95 117.19 33.32 117.65 33.32 121.79 29.17 121.79 29.17 117.65 29.79 117.19 33.95 117.19"/><polygon class="cls-31" points="33.95 122.25 29.79 122.25 29.17 121.79 33.32 121.79 33.95 122.25"/></g><g class="cls-36"><polygon class="cls-19" points="58.22 117.19 54.07 117.19 54.69 117.65 54.7 117.65 54.7 121.79 58.85 121.79 58.85 117.65 58.22 117.19"/><polygon class="cls-19" points="58.84 121.79 58.22 122.25 54.07 122.25 54.69 121.79 58.84 121.79"/></g><rect class="cls-27" x="37.58" y="117.65" width="2.82" height="4.14"/><rect class="cls-5" x="29.95" y="112.59" width="29.68" height="4.14"/><polygon class="cls-5" points="59.63 112.59 29.95 112.59 30.58 112.13 59.01 112.13 59.63 112.59"/><polygon class="cls-20" points="59.63 112.59 29.95 112.59 30.58 112.13 59.01 112.13 59.63 112.59"/><polygon class="cls-5" points="59.64 116.73 59.01 117.19 30.58 117.19 29.95 116.73 59.64 116.73"/><polygon class="cls-32" points="59.64 116.73 59.01 117.19 30.58 117.19 29.95 116.73 59.64 116.73"/><g class="cls-35"><polygon class="cls-31" points="34.73 112.13 34.11 112.59 34.11 116.73 29.95 116.73 29.95 112.59 30.58 112.13 34.73 112.13"/><polygon class="cls-31" points="34.73 117.19 30.58 117.19 29.95 116.73 34.11 116.73 34.73 117.19"/></g><g class="cls-36"><polygon class="cls-19" points="59.01 112.13 54.85 112.13 55.48 112.59 55.49 112.59 55.49 116.73 59.64 116.73 59.64 112.59 59.01 112.13"/><polygon class="cls-19" points="59.63 116.73 59.01 117.19 54.86 117.19 55.48 116.73 59.63 116.73"/></g><rect class="cls-27" x="38.37" y="112.59" width="2.82" height="4.14"/><rect class="cls-5" x="33.3" y="107.53" width="29.68" height="4.14"/><polygon class="cls-5" points="62.98 107.53 33.3 107.53 33.92 107.07 62.35 107.07 62.98 107.53"/><polygon class="cls-20" points="62.98 107.53 33.3 107.53 33.92 107.07 62.35 107.07 62.98 107.53"/><polygon class="cls-5" points="62.98 111.67 62.35 112.13 33.92 112.13 33.3 111.67 62.98 111.67"/><polygon class="cls-32" points="62.98 111.67 62.35 112.13 33.92 112.13 33.3 111.67 62.98 111.67"/><g class="cls-35"><polygon class="cls-31" points="38.08 107.07 37.45 107.53 37.45 111.66 33.3 111.66 33.3 107.53 33.92 107.07 38.08 107.07"/><polygon class="cls-31" points="38.08 112.13 33.92 112.13 33.3 111.67 37.45 111.67 38.08 112.13"/></g><g class="cls-36"><polygon class="cls-19" points="62.35 107.07 58.2 107.07 58.82 107.53 58.83 107.53 58.83 111.67 62.98 111.67 62.98 107.53 62.35 107.07"/><polygon class="cls-19" points="62.97 111.67 62.35 112.13 58.2 112.13 58.82 111.67 62.97 111.67"/></g><rect class="cls-27" x="41.71" y="107.53" width="2.82" height="4.14"/><rect class="cls-5" x="30.54" y="102.47" width="29.68" height="4.14"/><polygon class="cls-5" points="60.22 102.47 30.54 102.47 31.17 102.01 59.6 102.01 60.22 102.47"/><polygon class="cls-20" points="60.22 102.47 30.54 102.47 31.17 102.01 59.6 102.01 60.22 102.47"/><polygon class="cls-5" points="60.23 106.61 59.6 107.07 31.17 107.07 30.54 106.61 60.23 106.61"/><polygon class="cls-32" points="60.23 106.61 59.6 107.07 31.17 107.07 30.54 106.61 60.23 106.61"/><g class="cls-35"><polygon class="cls-31" points="35.32 102.01 34.7 102.47 34.7 106.6 30.54 106.6 30.54 102.47 31.17 102.01 35.32 102.01"/><polygon class="cls-31" points="35.32 107.07 31.17 107.07 30.54 106.61 34.7 106.61 35.32 107.07"/></g><g class="cls-36"><polygon class="cls-19" points="59.6 102.01 55.44 102.01 56.07 102.47 56.08 102.47 56.08 106.61 60.23 106.61 60.23 102.47 59.6 102.01"/><polygon class="cls-19" points="60.22 106.61 59.6 107.07 55.45 107.07 56.07 106.61 60.22 106.61"/></g><rect class="cls-27" x="38.96" y="102.47" width="2.82" height="4.14"/><rect class="cls-5" x="31.33" y="97.41" width="29.68" height="4.14"/><polygon class="cls-5" points="61.01 97.41 31.33 97.41 31.96 96.95 60.38 96.95 61.01 97.41"/><polygon class="cls-20" points="61.01 97.41 31.33 97.41 31.96 96.95 60.38 96.95 61.01 97.41"/><polygon class="cls-5" points="61.01 101.55 60.38 102.01 31.96 102.01 31.33 101.55 61.01 101.55"/><polygon class="cls-32" points="61.01 101.55 60.38 102.01 31.96 102.01 31.33 101.55 61.01 101.55"/><g class="cls-35"><polygon class="cls-31" points="36.11 96.95 35.48 97.41 35.48 101.54 31.33 101.54 31.33 97.41 31.96 96.95 36.11 96.95"/><polygon class="cls-31" points="36.11 102.01 31.96 102.01 31.33 101.55 35.48 101.55 36.11 102.01"/></g><g class="cls-36"><polygon class="cls-19" points="60.39 96.95 56.23 96.95 56.86 97.41 56.86 97.41 56.86 101.55 61.01 101.55 61.01 97.41 60.39 96.95"/><polygon class="cls-19" points="61.01 101.55 60.38 102.01 56.24 102.01 56.86 101.55 61.01 101.55"/></g><rect class="cls-27" x="39.75" y="97.41" width="2.82" height="4.14"/><rect class="cls-5" x="29" y="92.34" width="29.68" height="4.14"/><polygon class="cls-5" points="58.69 92.34 29 92.34 29.63 91.88 58.06 91.88 58.69 92.34"/><polygon class="cls-20" points="58.69 92.34 29 92.34 29.63 91.88 58.06 91.88 58.69 92.34"/><polygon class="cls-5" points="58.69 96.48 58.06 96.94 29.63 96.94 29 96.48 58.69 96.48"/><polygon class="cls-32" points="58.69 96.48 58.06 96.94 29.63 96.94 29 96.48 58.69 96.48"/><g class="cls-35"><polygon class="cls-31" points="33.79 91.88 33.16 92.34 33.16 96.48 29 96.48 29 92.34 29.63 91.88 33.79 91.88"/><polygon class="cls-31" points="33.79 96.94 29.63 96.94 29 96.48 33.16 96.48 33.79 96.94"/></g><g class="cls-36"><polygon class="cls-19" points="58.06 91.89 53.91 91.89 54.53 92.35 54.54 92.35 54.54 96.48 58.69 96.48 58.69 92.35 58.06 91.89"/><polygon class="cls-19" points="58.68 96.49 58.06 96.94 53.91 96.94 54.53 96.49 58.68 96.49"/></g><rect class="cls-27" x="37.42" y="92.34" width="2.82" height="4.14"/><rect class="cls-5" x="26.25" y="87.28" width="29.68" height="4.14"/><polygon class="cls-5" points="55.93 87.28 26.25 87.28 26.88 86.82 55.31 86.82 55.93 87.28"/><polygon class="cls-20" points="55.93 87.28 26.25 87.28 26.88 86.82 55.31 86.82 55.93 87.28"/><polygon class="cls-5" points="55.93 91.42 55.31 91.88 26.88 91.88 26.25 91.42 55.93 91.42"/><polygon class="cls-32" points="55.93 91.42 55.31 91.88 26.88 91.88 26.25 91.42 55.93 91.42"/><g class="cls-35"><polygon class="cls-31" points="31.03 86.82 30.41 87.28 30.41 91.42 26.25 91.42 26.25 87.28 26.88 86.82 31.03 86.82"/><polygon class="cls-31" points="31.03 91.88 26.88 91.88 26.25 91.42 30.41 91.42 31.03 91.88"/></g><g class="cls-36"><polygon class="cls-19" points="55.31 86.83 51.15 86.83 51.78 87.29 51.78 87.29 51.78 91.42 55.93 91.42 55.93 87.29 55.31 86.83"/><polygon class="cls-19" points="55.93 91.43 55.31 91.88 51.16 91.88 51.78 91.43 55.93 91.43"/></g><rect class="cls-27" x="34.67" y="87.28" width="2.82" height="4.14"/><rect class="cls-5" x="27.04" y="82.22" width="29.68" height="4.14"/><polygon class="cls-5" points="56.72 82.22 27.04 82.22 27.66 81.76 56.09 81.76 56.72 82.22"/><polygon class="cls-20" points="56.72 82.22 27.04 82.22 27.66 81.76 56.09 81.76 56.72 82.22"/><polygon class="cls-5" points="56.72 86.36 56.09 86.82 27.66 86.82 27.04 86.36 56.72 86.36"/><polygon class="cls-32" points="56.72 86.36 56.09 86.82 27.66 86.82 27.04 86.36 56.72 86.36"/><g class="cls-35"><polygon class="cls-31" points="31.82 81.76 31.19 82.22 31.19 86.36 27.04 86.36 27.04 82.22 27.66 81.76 31.82 81.76"/><polygon class="cls-31" points="31.82 86.82 27.66 86.82 27.04 86.36 31.19 86.36 31.82 86.82"/></g><g class="cls-36"><polygon class="cls-19" points="56.09 81.77 51.94 81.77 52.57 82.22 52.57 82.22 52.57 86.36 56.72 86.36 56.72 82.22 56.09 81.77"/><polygon class="cls-19" points="56.71 86.37 56.09 86.82 51.94 86.82 52.57 86.37 56.71 86.37"/></g><rect class="cls-27" x="35.45" y="82.22" width="2.82" height="4.14"/><rect class="cls-5" x="30.38" y="77.16" width="29.68" height="4.14"/><polygon class="cls-5" points="60.06 77.16 30.38 77.16 31.01 76.7 59.44 76.7 60.06 77.16"/><polygon class="cls-20" points="60.06 77.16 30.38 77.16 31.01 76.7 59.44 76.7 60.06 77.16"/><polygon class="cls-5" points="60.06 81.3 59.44 81.76 31.01 81.76 30.38 81.3 60.06 81.3"/><polygon class="cls-32" points="60.06 81.3 59.44 81.76 31.01 81.76 30.38 81.3 60.06 81.3"/><g class="cls-35"><polygon class="cls-31" points="35.16 76.7 34.54 77.16 34.54 81.3 30.38 81.3 30.38 77.16 31.01 76.7 35.16 76.7"/><polygon class="cls-31" points="35.16 81.76 31.01 81.76 30.38 81.3 34.54 81.3 35.16 81.76"/></g><g class="cls-36"><polygon class="cls-19" points="59.44 76.7 55.28 76.7 55.91 77.16 55.92 77.16 55.92 81.3 60.06 81.3 60.06 77.16 59.44 76.7"/><polygon class="cls-19" points="60.06 81.3 59.44 81.76 55.29 81.76 55.91 81.3 60.06 81.3"/></g><rect class="cls-27" x="38.8" y="77.16" width="2.82" height="4.14"/><rect class="cls-5" x="27.63" y="72.1" width="29.68" height="4.14"/><polygon class="cls-5" points="57.31 72.1 27.63 72.1 28.25 71.64 56.68 71.64 57.31 72.1"/><polygon class="cls-20" points="57.31 72.1 27.63 72.1 28.25 71.64 56.68 71.64 57.31 72.1"/><polygon class="cls-5" points="57.31 76.24 56.68 76.7 28.25 76.7 27.63 76.24 57.31 76.24"/><polygon class="cls-32" points="57.31 76.24 56.68 76.7 28.25 76.7 27.63 76.24 57.31 76.24"/><g class="cls-35"><polygon class="cls-31" points="32.41 71.64 31.78 72.1 31.78 76.24 27.63 76.24 27.63 72.1 28.25 71.64 32.41 71.64"/><polygon class="cls-31" points="32.41 76.7 28.25 76.7 27.63 76.24 31.78 76.24 32.41 76.7"/></g><g class="cls-36"><polygon class="cls-19" points="56.68 71.64 52.53 71.64 53.16 72.1 53.16 72.1 53.16 76.24 57.31 76.24 57.31 72.1 56.68 71.64"/><polygon class="cls-19" points="57.3 76.24 56.68 76.7 52.53 76.7 53.16 76.24 57.3 76.24"/></g><rect class="cls-27" x="36.04" y="72.1" width="2.82" height="4.14"/><rect class="cls-5" x="28.41" y="67.04" width="29.68" height="4.14"/><polygon class="cls-5" points="58.1 67.04 28.41 67.04 29.04 66.58 57.47 66.58 58.1 67.04"/><polygon class="cls-20" points="58.1 67.04 28.41 67.04 29.04 66.58 57.47 66.58 58.1 67.04"/><polygon class="cls-5" points="58.1 71.18 57.47 71.64 29.04 71.64 28.41 71.18 58.1 71.18"/><polygon class="cls-32" points="58.1 71.18 57.47 71.64 29.04 71.64 28.41 71.18 58.1 71.18"/><g class="cls-35"><polygon class="cls-31" points="33.2 66.58 32.57 67.04 32.57 71.18 28.41 71.18 28.41 67.04 29.04 66.58 33.2 66.58"/><polygon class="cls-31" points="33.2 71.64 29.04 71.64 28.41 71.18 32.57 71.18 33.2 71.64"/></g><g class="cls-36"><polygon class="cls-19" points="57.47 66.58 53.32 66.58 53.94 67.04 53.95 67.04 53.95 71.18 58.1 71.18 58.1 67.04 57.47 66.58"/><polygon class="cls-19" points="58.09 71.18 57.47 71.64 53.32 71.64 53.94 71.18 58.09 71.18"/></g><rect class="cls-27" x="36.83" y="67.04" width="2.82" height="4.14"/><path class="cls-25" d="M162.07,119.01h-3.77v-.63c0-.67-.04-1.1-.13-1.31s-.27-.31-.56-.31c-.23,0-.4.09-.52.27s-.17.44-.17.8c0,.59.12,1,.35,1.24.23.24.91.7,2.03,1.38.96.58,1.61,1.02,1.96,1.33s.64.74.88,1.31.36,1.26.36,2.1c0,1.34-.32,2.4-.97,3.16s-1.62,1.24-2.91,1.42v1.42h-1.74v-1.46c-1.01-.1-1.89-.49-2.64-1.16-.75-.67-1.13-1.85-1.13-3.53v-.74h3.77v.92c0,1.01.04,1.64.12,1.89s.27.37.56.37c.26,0,.44-.09.57-.26s.19-.42.19-.76c0-.85-.06-1.45-.18-1.81s-.52-.76-1.21-1.19c-1.15-.72-1.93-1.25-2.35-1.59s-.77-.82-1.07-1.43-.45-1.31-.45-2.09c0-1.13.32-2.01.96-2.65s1.59-1.04,2.87-1.18v-1.2h1.74v1.2c1.16.15,2.03.54,2.61,1.17s.87,1.5.87,2.62c0,.16-.01.39-.04.71Z"/><path class="cls-24" d="M169.5,182s.35.13.5.31c.16.18.37.45.37.45l-1.29-.31.14-.52.27.07Z"/><path class="cls-24" d="M139.99,178.78s-.33.06-.62.3c-.3.24-.54.6-.54.6l1.36-.4-.19-.5Z"/><path class="cls-24" d="M161.32,193.26s-.4.15-.74.11c-.34-.05-.75-.11-.75-.11l.73-.74.77.75Z"/><path class="cls-9" d="M160.55,192.7c0,.43.35.68.76.56l12.42-3.72c.41-.12.56-.52.33-.89l-3.69-5.9c-.23-.36-.75-.56-1.16-.44l-8.09,2.42c-.41.12-.74.57-.73,1l.15,6.96Z"/><path class="cls-3" d="M169.22,182.32c.41-.12.41-.32,0-.44l-19.04-5.45c-.41-.12-1.09-.12-1.5-.01l-8.64,2.35c-.41.11-.41.3,0,.42l19.6,5.57c.41.12,1.09.11,1.5,0l8.09-2.42Z"/><polygon class="cls-2" points="145.16 180.64 155.3 183.52 165.33 180.77 153.59 177.41 145.16 180.64"/><path class="cls-14" d="M138.86,179.62c.23-.36.76-.56,1.17-.44l19.6,5.57c.41.12.76.56.77.99l.15,6.96c0,.43-.32.68-.73.55l-24.16-7.35c-.41-.12-.56-.52-.32-.88l3.51-5.41Z"/><path class="cls-15" d="M135.35,185.03l.05-.08c0,.23.15.44.43.52l24.15,7.35c.23.07.43.02.57-.11,0,.43-.32.67-.73.55l-24.16-7.35c-.41-.12-.56-.52-.32-.88Z"/><path class="cls-33" d="M161.13,184.74s-.46.25-.52.41c-.06.16-.21.6-.21.6,0,0-.04-.32-.19-.5-.14-.18-.58-.5-.58-.5,0,0,.53.04.77.01.25-.02.73-.02.73-.02Z"/><path class="cls-15" d="M174.14,188.8c.12.32-.04.64-.4.75l-12.42,3.72c-.32.1-.6-.04-.71-.31l13.53-4.16Z"/><path class="cls-10" d="M140.03,179.18c-.41-.12-.41-.31,0-.42l8.64-2.35c.41-.11,1.09-.11,1.5.01l15.53,4.45c-.5.43-1.66.84-4.07,1.09-2.97.31-6.69.46-10.65.32l-10.95-3.11Z"/><path class="cls-11" d="M150.17,181.48c5.18-.06,10.08-.4,13.99-.86.15-.02.29-.04.43-.05l1.11.32c-.5.43-1.66.84-4.07,1.09-2.97.31-6.69.46-10.65.32l-6.53-1.86,5.72,1.04Z"/><path class="cls-29" d="M166.57,185.44c-2.29.37-4.38,1.1-6.13,2.07l-.04-1.76c0-.43.32-.88.73-1l8.09-2.42c.41-.12.93.07,1.16.44l1.59,2.54c-1.69-.2-3.51-.16-5.4.14Z"/><path class="cls-26" d="M160.45,188.29c-2.66-1.18-6.98-2.79-12.78-3.89-4.94-.95-8.46-1.46-10.78-1.75l1.97-3.03c.23-.36.76-.56,1.17-.44l19.6,5.57c.41.12.76.56.77.99l.06,2.55Z"/><path class="cls-24" d="M145.87,181.18l-3.58-1.13-1.78-.6-.44-.15c-.08-.03-.14-.05-.21-.06-.07-.01-.14-.01-.21,0-.29.02-.59.15-.77.4h-.02c.23-.37.76-.57,1.17-.45l19.6,5.57c.41.12.76.56.77.99l.15,6.96c-.08-.03-.26-4.48-.34-4.52l-.06-1.1-.05-.94v-.23c-.02-.07-.02-.17-.03-.21-.01-.1-.06-.2-.12-.3-.06-.09-.15-.18-.24-.24-.04-.03-.09-.05-.14-.07-.02,0-.12-.03-.19-.05l-.91-.24-1.81-.49-3.61-1-3.6-1.05-1.8-.54-.9-.27-.89-.28Z"/><path class="cls-24" d="M163.96,184.31c-.45.11-.89.24-1.35.33-.45.11-.91.2-1.36.29-.06.01-.1.02-.15.03-.04.01-.09.03-.13.05-.09.04-.17.1-.24.17-.08.07-.14.16-.19.25-.06.09-.1.2-.11.31h-.02c0-.43.32-.88.73-1l8.09-2.42c.31-.09.68,0,.94.2.07.06.14.12.19.19.01.01,1.18,1.89,1.19,1.9l-.89-1.39s-.2-.35-.28-.45c-.07-.09-.17-.15-.27-.2-.1-.05-.2-.08-.3-.1-.1-.02-.2-.02-.3-.01-.05,0-.09.02-.14.03-.04.01-.08.03-.14.06-.43.18-.86.35-1.29.51-.43.17-.87.31-1.31.46-.44.14-.88.28-1.32.42-.44.12-.89.26-1.33.38Z"/><path class="cls-24" d="M166.42,173.47s.35.13.5.31c.16.18.37.45.37.45l-1.29-.31.14-.52.27.07Z"/><path class="cls-24" d="M136.91,170.25s-.33.06-.62.3c-.3.24-.54.6-.54.6l1.36-.4-.19-.5Z"/><path class="cls-24" d="M158.24,184.73s-.4.15-.74.11c-.34-.05-.75-.11-.75-.11l.73-.74.77.75Z"/><path class="cls-9" d="M157.47,184.18c0,.43.35.68.76.56l12.42-3.72c.41-.12.56-.52.33-.88l-3.69-5.9c-.23-.36-.75-.56-1.16-.44l-8.09,2.42c-.41.12-.74.57-.73,1l.15,6.96Z"/><path class="cls-3" d="M166.14,173.79c.41-.12.41-.32,0-.44l-19.04-5.45c-.41-.12-1.09-.12-1.5-.01l-8.64,2.35c-.41.11-.41.3,0,.42l19.6,5.57c.41.12,1.09.11,1.5,0l8.09-2.42Z"/><path class="cls-22" d="M135.78,171.1c.23-.36.76-.56,1.18-.44l19.6,5.57c.41.12.76.56.77.99l.15,6.96c0,.43-.32.68-.73.55l-24.16-7.35c-.41-.12-.55-.52-.32-.88l3.51-5.41Z"/><path class="cls-15" d="M132.27,176.5l.05-.08c0,.23.16.44.43.52l24.16,7.35c.23.07.43.02.57-.11,0,.43-.32.67-.73.55l-24.16-7.35c-.41-.12-.55-.52-.32-.88Z"/><path class="cls-33" d="M158.05,176.21s-.46.25-.52.41c-.06.16-.21.6-.21.6,0,0-.04-.32-.19-.5-.14-.18-.58-.49-.58-.49,0,0,.53.04.77.01.24-.02.73-.02.73-.02Z"/><path class="cls-15" d="M171.06,180.27c.12.32-.04.64-.4.75l-12.42,3.72c-.32.1-.6-.04-.71-.31l13.53-4.16Z"/><path class="cls-29" d="M163.49,176.91c-2.29.37-4.38,1.1-6.13,2.07l-.04-1.76c0-.43.32-.88.73-1l8.09-2.42c.41-.12.93.07,1.16.44l1.59,2.54c-1.69-.2-3.51-.16-5.4.14Z"/><path class="cls-26" d="M157.38,179.77c-2.66-1.18-6.98-2.79-12.78-3.89-4.94-.95-8.46-1.46-10.78-1.75l1.97-3.03c.23-.36.76-.56,1.18-.44l19.6,5.57c.41.12.76.56.77.99l.06,2.55Z"/><path class="cls-24" d="M142.8,172.66l-3.58-1.13-1.78-.6-.44-.15c-.08-.03-.14-.05-.21-.06-.07-.01-.14-.01-.21,0-.29.02-.59.15-.77.4h-.02c.23-.37.76-.57,1.18-.45l19.6,5.57c.41.12.76.56.77.99l.15,6.96c-.08-.03-.26-4.48-.34-4.52l-.06-1.1-.05-.94v-.23c-.02-.07-.02-.17-.03-.21-.01-.1-.06-.2-.12-.3-.06-.09-.15-.18-.24-.24-.04-.03-.09-.05-.14-.07-.02,0-.12-.03-.19-.05l-.91-.24-1.81-.49-3.61-1-3.6-1.05-1.8-.54-.9-.27-.89-.28Z"/><path class="cls-24" d="M160.88,175.78c-.45.11-.89.24-1.35.33-.45.11-.91.2-1.36.29-.06.01-.1.02-.15.03-.04.01-.09.03-.13.05-.09.04-.17.1-.24.17-.08.07-.14.16-.19.25-.06.09-.1.2-.11.31h-.02c0-.43.32-.88.73-1l8.09-2.42c.31-.09.68,0,.94.2.07.06.14.12.19.19.01.01,1.18,1.89,1.19,1.9l-.89-1.39s-.2-.35-.28-.45c-.07-.09-.17-.15-.27-.2-.1-.05-.2-.08-.3-.1-.1-.02-.2-.02-.3-.01-.05,0-.09.02-.14.03-.04.01-.08.03-.14.06-.43.18-.86.35-1.3.51-.43.17-.87.31-1.31.46-.44.14-.88.28-1.32.42-.45.12-.89.26-1.33.38Z"/><path class="cls-24" d="M144.58,182.8s.35.13.5.31c.16.18.37.45.37.45l-1.29-.31.14-.52.27.07Z"/><path class="cls-24" d="M115.06,179.57s-.33.06-.62.3c-.3.24-.54.6-.54.6l1.36-.4-.19-.5Z"/><path class="cls-24" d="M136.39,194.06s-.4.15-.74.11c-.34-.05-.75-.11-.75-.11l.73-.74.77.75Z"/><path class="cls-9" d="M135.63,193.5c0,.43.35.68.76.56l12.42-3.72c.41-.12.56-.52.33-.89l-3.69-5.9c-.23-.36-.75-.56-1.16-.44l-8.09,2.42c-.41.12-.74.57-.73,1l.15,6.96Z"/><path class="cls-3" d="M144.29,183.12c.41-.12.41-.32,0-.44l-19.04-5.45c-.41-.12-1.09-.12-1.5-.01l-8.64,2.35c-.41.11-.41.3,0,.42l19.6,5.57c.41.12,1.09.11,1.5,0l8.09-2.42Z"/><path class="cls-14" d="M113.93,180.42c.23-.36.76-.56,1.17-.44l19.6,5.57c.41.12.76.56.77.99l.15,6.96c0,.43-.32.68-.73.55l-24.16-7.35c-.41-.12-.56-.52-.32-.88l3.51-5.41Z"/><path class="cls-15" d="M110.42,185.83l.05-.08c0,.23.15.44.43.52l24.15,7.35c.23.07.43.02.57-.11,0,.43-.32.67-.73.55l-24.16-7.35c-.41-.12-.56-.52-.32-.88Z"/><path class="cls-33" d="M136.2,185.54s-.46.25-.52.41c-.06.16-.21.6-.21.6,0,0-.04-.32-.19-.5-.14-.18-.58-.5-.58-.5,0,0,.53.04.77.01.25-.02.73-.02.73-.02Z"/><path class="cls-15" d="M149.22,189.6c.12.32-.04.64-.4.75l-12.42,3.72c-.32.1-.6-.04-.71-.31l13.53-4.16Z"/><path class="cls-24" d="M139.03,185.11c-.45.11-.89.24-1.35.33-.45.11-.91.2-1.36.29-.06.01-.1.02-.15.03-.04.01-.09.03-.13.05-.09.04-.17.1-.24.17-.08.07-.14.16-.19.25-.06.09-.1.2-.11.31h-.02c0-.43.32-.88.73-1l8.09-2.42c.31-.09.68,0,.94.2.07.06.14.12.19.19.01.01,1.18,1.89,1.19,1.9l-.89-1.39s-.2-.35-.28-.45c-.07-.09-.17-.15-.27-.2-.1-.05-.2-.08-.3-.1-.1-.02-.2-.02-.3-.01-.05,0-.09.02-.14.03-.04.01-.08.03-.14.06-.43.18-.86.35-1.29.51-.43.17-.87.31-1.31.46-.44.14-.88.28-1.32.42-.44.12-.89.26-1.33.38Z"/></g></g></g></svg>