<svg width="25" height="30" viewBox="0 0 25 30" fill="none" xmlns="http://www.w3.org/2000/svg">
<path d="M20.8298 28.7964C19.2144 30.3795 17.4508 30.1295 15.753 29.3796C13.9563 28.6131 12.308 28.5797 10.4125 29.3796C8.03892 30.4128 6.78621 30.1129 5.36866 28.7964C-2.67507 20.4141 -1.48829 7.64903 7.64333 7.18243C9.86854 7.29908 11.418 8.4156 12.7201 8.51559C14.6651 8.11564 16.5277 6.96579 18.6046 7.11577C21.0935 7.31574 22.9726 8.31562 24.2088 10.1154C19.0661 13.2317 20.2858 20.0808 25 21.9972C24.0605 24.4969 22.8407 26.9799 20.8133 28.813L20.8298 28.7964ZM12.5553 7.08244C12.308 3.36624 15.2915 0.299962 18.72 0C19.198 4.29946 14.8629 7.49905 12.5553 7.08244Z" fill="black"/>
</svg>
