<svg width="26" height="26" viewBox="0 0 26 26" fill="none" xmlns="http://www.w3.org/2000/svg">
<path d="M25.7696 10.6572C25.9244 11.5297 26.0015 12.4138 26 13.2994C26 17.2545 24.5577 20.5987 22.0479 22.8622H22.0512C19.8564 24.8495 16.8393 26 13.2619 26C9.74463 26 6.37142 24.6304 3.88432 22.1925C1.39723 19.7546 0 16.4481 0 13.0004C0 9.55268 1.39723 6.24617 3.88432 3.80827C6.37142 1.37037 9.74463 0.000776731 13.2619 0.000776731C16.5537 -0.0351573 19.7324 1.17694 22.1341 3.38393L18.3479 7.09531C16.9789 5.81689 15.1525 5.11663 13.2619 5.14537C9.80221 5.14537 6.86304 7.4333 5.81535 10.5142C5.26083 12.1288 5.26083 13.8769 5.81535 15.4914H5.82032C6.87299 18.5675 9.80719 20.8554 13.2669 20.8554C15.0539 20.8554 16.589 20.4069 17.7793 19.6139H17.7743C18.4655 19.1653 19.0568 18.5839 19.5124 17.9049C19.968 17.226 20.2785 16.4635 20.425 15.6637H13.2619V10.6588L25.7696 10.6572Z" fill="black"/>
</svg>
