<svg width="19" height="24" viewBox="0 0 19 24" fill="none" xmlns="http://www.w3.org/2000/svg">
<path d="M2.75 23.75C2.13125 23.75 1.60156 23.5297 1.16094 23.0891C0.720313 22.6484 0.5 22.1187 0.5 21.5V10.25C0.5 9.63125 0.720313 9.10156 1.16094 8.66094C1.60156 8.22031 2.13125 8 2.75 8H3.875V5.75C3.875 4.19375 4.42344 2.86719 5.52031 1.77031C6.61719 0.673437 7.94375 0.125 9.5 0.125C11.0562 0.125 12.3828 0.673437 13.4797 1.77031C14.5766 2.86719 15.125 4.19375 15.125 5.75V8H16.25C16.8687 8 17.3984 8.22031 17.8391 8.66094C18.2797 9.10156 18.5 9.63125 18.5 10.25V21.5C18.5 22.1187 18.2797 22.6484 17.8391 23.0891C17.3984 23.5297 16.8687 23.75 16.25 23.75H2.75ZM2.75 21.5H16.25V10.25H2.75V21.5ZM9.5 18.125C10.1187 18.125 10.6484 17.9047 11.0891 17.4641C11.5297 17.0234 11.75 16.4937 11.75 15.875C11.75 15.2563 11.5297 14.7266 11.0891 14.2859C10.6484 13.8453 10.1187 13.625 9.5 13.625C8.88125 13.625 8.35156 13.8453 7.91094 14.2859C7.47031 14.7266 7.25 15.2563 7.25 15.875C7.25 16.4937 7.47031 17.0234 7.91094 17.4641C8.35156 17.9047 8.88125 18.125 9.5 18.125ZM6.125 8H12.875V5.75C12.875 4.8125 12.5469 4.01562 11.8906 3.35938C11.2344 2.70312 10.4375 2.375 9.5 2.375C8.5625 2.375 7.76562 2.70312 7.10938 3.35938C6.45312 4.01562 6.125 4.8125 6.125 5.75V8Z" fill="#1C1B1F"/>
</svg>
