<svg width="23" height="19" viewBox="0 0 23 19" fill="none" xmlns="http://www.w3.org/2000/svg">
<path d="M2.5 18.5002C1.88125 18.5002 1.35156 18.2799 0.910938 17.8393C0.470313 17.3987 0.25 16.869 0.25 16.2502V2.75024C0.25 2.13149 0.470313 1.60181 0.910938 1.16118C1.35156 0.720557 1.88125 0.500244 2.5 0.500244H20.5C21.1187 0.500244 21.6484 0.720557 22.0891 1.16118C22.5297 1.60181 22.75 2.13149 22.75 2.75024V16.2502C22.75 16.869 22.5297 17.3987 22.0891 17.8393C21.6484 18.2799 21.1187 18.5002 20.5 18.5002H2.5ZM11.5 10.6252L2.5 5.00024V16.2502H20.5V5.00024L11.5 10.6252ZM11.5 8.37524L20.5 2.75024H2.5L11.5 8.37524ZM2.5 5.00024V2.75024V16.2502V5.00024Z" fill="#1C1B1F"/>
</svg>
