<?xml version="1.0" encoding="UTF-8"?><svg id="Layer_2" xmlns="http://www.w3.org/2000/svg" viewBox="0 0 313.06 313.06"><defs><style>.cls-1{fill:#f6f2f3;}.cls-1,.cls-2,.cls-3,.cls-4,.cls-5,.cls-6,.cls-7,.cls-8,.cls-9,.cls-10,.cls-11,.cls-12,.cls-13,.cls-14{stroke-width:0px;}.cls-2{fill:#7fb3d4;}.cls-3{fill:#c6c4c5;}.cls-4{fill:#708a76;}.cls-5{fill:#fd6c50;}.cls-6{fill:#7d7a94;}.cls-7{fill:#fdc55c;}.cls-15{fill:#357c77;stroke:#357c77;stroke-miterlimit:10;}.cls-8{fill:#fdd07e;}.cls-9{fill:#752c13;}.cls-10{fill:#edb447;}.cls-11{fill:#89ae91;}.cls-12{fill:#fca984;}.cls-13{fill:#f9956e;}.cls-14{fill:#ffcbb6;}</style></defs><g id="Layer_12"><circle class="cls-15" cx="156.53" cy="156.53" r="156.03"/><path class="cls-2" d="M211.89,288.16c.26-.09.52-.18.78-.26-.21.02-.43.04-.65.05-.05.07-.09.14-.13.21Z"/><path class="cls-2" d="M188.79,293.31c.96-.13,1.91-.26,2.84-.4.79-.98,1.28-1.63,1.28-1.63,0,0-1.78.86-4.12,2.03Z"/><path class="cls-2" d="M138.16,292.75c0-1.3,1.06-2.36,2.36-2.36h39.45c.31,0,.61.06.88.17.9-.54,1.84-1.1,2.77-1.68,3.54-2.22,6.63-4.36,6.63-4.36,0,0-4.77.88-6.51,1.3-2.19.54-5.76,1.4-7.25,1.37-3.73-.08-3.56-4.1-.11-5.31,1.41-.49,5.33-1.65,7.81-2.56,4.41-1.62,7.79-3.19,7.88-3.57.13-.59-6.82-.76-9.69-1.29-3.4-.63-3.3-3.42-.68-4.5,3.09-1.27,9.61-1.16,13.68-2.06,2.25-.5,4-.32,5.48.03.7-.4,1.51-.91,2.4-1.53,2.02-2.22,4.35-4.19,6.68-6.08,4.91-5.79,9.33-14.81,8.37-28.23-1.31-18.29-4.16-27.43-6.02-31.62-7.09,14.84-20.24,30.41-43.68,43.81.38.25.64.68.64,1.16v1.78c0,.45-.22.84-.55,1.1.86,1.46,5.93,10.04,5.94,11.59.03,2.92-7.98,4.01-12.36,3.93-4.55-.08-13.15-.76-13.65-3.62-.48-2.7,5.53-10.91,6.22-11.84-.36-.25-.6-.67-.6-1.14v-1.78c0-.36.14-.68.36-.92-2.7-1.49-29.01-16.47-43.07-42.75l-16.63,45.49c-1.55-.35-3.04-.72-4.5-1.11-.12.23-.36.38-.62.38-.05,0-.1,0-.15-.02,0,0-.01,0-.02,0-.5,2.3-.99,4.67-1.45,7.17-1.01,5.49-1.89,10.47-2.66,15.03,2.49.61,13.94,18.62,52.67,24.37v-.32ZM161.65,270.2c2.42,0,4.38,1.96,4.38,4.38s-1.96,4.38-4.38,4.38-4.38-1.96-4.38-4.38,1.96-4.38,4.38-4.38Z"/><path class="cls-2" d="M82.13,290.08c-.15,1.1-.3,2.17-.43,3.18,10.33,5.73,21.37,10.32,32.97,13.6-16.21-5.58-27.64-12.59-32.54-16.78Z"/><path class="cls-6" d="M85.38,268.69c-2.66-.13-6.67,18.36-3.64,21.06.12.11.26.22.38.33.79-5.71,1.88-12.74,3.36-21.37-.04,0-.07-.02-.1-.02Z"/><path class="cls-6" d="M236.42,280.53c.52,3.44.97,6.73,1.36,9.83.51-.31,1.02-.63,1.53-.94-.38-3-1.14-6.57-1.85-9.56-.34.23-.69.45-1.04.67Z"/><path class="cls-6" d="M211.89,288.16c-1.74,2.74-3.96,5.8-5.87,8.12-3.13,3.8-5.71,7.62-7.29,9.44-1.33,1.54-4.02.38-3.53-1.46.47-1.75,4.76-9.74,4.76-9.74,0,0-9.09,7.96-11.7,9.84-3.22,2.31-6.02.28-5.1-1.76.66-1.47,2.93-3.4,5.05-5.71,1.34-1.46,2.55-2.92,3.41-3.98-.93.14-1.87.27-2.84.4-.64.32-1.31.65-2.01,1-1.49.75-3.02,1.56-4.45,2.27v14.14c20.02-3.24,38.76-10.27,55.45-20.36-.39-3.1-.85-6.39-1.36-9.83-6.15,3.88-13.98,6.54-23.74,7.36-.26.09-.52.18-.78.26Z"/><path class="cls-6" d="M138.16,311.58v-18.5c-38.73-5.75-50.18-23.76-52.67-24.37-1.47,8.63-2.57,15.66-3.36,21.37,4.89,4.19,16.32,11.21,32.54,16.78,7.61,2.15,15.46,3.74,23.49,4.72Z"/><path class="cls-10" d="M141.51,293.1c.32,0,.57.23.66.52,5.71.69,11.95,1.11,18.81,1.19,5.24.06,10.13-.05,14.7-.3.08-.22.18-.42.32-.61.6-.8,2.58-1.97,4.85-3.33-.27-.11-.57-.17-.88-.17h-39.45c-1.3,0-2.36,1.06-2.36,2.36v.32c.9.13,1.81.26,2.74.38.13-.21.36-.35.61-.36Z"/><path class="cls-10" d="M180.63,297.39c-3.99,1.77-5.63-1-4.95-2.88-4.57.25-9.46.36-14.7.3-6.86-.08-13.11-.51-18.81-1.19.02.07.04.14.04.21-.12,5.22-.07,10.28.15,15.93l.02.56c.02.77.05,1.3.17,1.73,4.84.45,9.74.69,14.7.69,8.54,0,16.92-.7,25.09-2.02v-14.14c-.58.29-1.15.56-1.7.8Z"/><path class="cls-10" d="M140.95,310.35l-.02-.55c-.22-5.68-.27-10.77-.15-16.02,0-.13.05-.23.11-.33-.93-.12-1.84-.25-2.74-.38v18.5c.97.12,1.93.23,2.9.33-.08-.49-.1-1-.11-1.55Z"/><path class="cls-8" d="M141.51,293.1c-.25,0-.48.15-.61.36.42.05.84.1,1.27.16-.08-.29-.34-.51-.66-.52Z"/><path class="cls-8" d="M140.78,293.79c-.12,5.25-.07,10.34.15,16.02l.02.55c.02.55.03,1.07.11,1.55.49.05.98.09,1.48.14-.12-.43-.15-.97-.17-1.73l-.02-.56c-.22-5.65-.27-10.71-.15-15.93,0-.07-.02-.14-.04-.21-.43-.05-.85-.1-1.27-.16-.06.1-.11.21-.11.33Z"/><path class="cls-2" d="M93.03,233.31c5.76-18.87,12.84-28.79,17.41-33.61-.05-.1-.1-.19-.15-.29-5.67,2.06-20.07,5.7-32.17-4.71,1.27,4.17,1.43,8.59.45,12.84-.08.33-.37.55-.69.55-.05,0-.11,0-.16-.02-.38-.09-.62-.47-.53-.85.97-4.17.75-8.7-.62-12.76-.11-.33.04-.68.34-.84-8.29-7.71-11.59-15.93-12.89-21.64-1.47,1.36-3.35,1.86-2.98,2.12.78.56,3.09,5.53-.98,8.04-4.08,2.51-19.81,1.87-22.96-.59-.31-.24-.55-.5-.76-.78-.14,19.33,6.81,52.28,52.75,65.04,0-.04,0-.09,0-.13.93-4.22,2.27-8.37,3.95-12.37Z"/><path class="cls-2" d="M93.03,233.31c1.93-4.6,4.32-8.99,7.13-13.02.22-.32.67-.4.99-.18.32.22.4.67.18.99-5.14,7.39-8.9,15.99-10.85,24.88-.01.07-.04.12-.07.18,1.47.39,2.96.77,4.5,1.11l16.63-45.49c-.37-.69-.73-1.38-1.08-2.08-4.57,4.82-11.66,14.74-17.41,33.61Z"/><path class="cls-2" d="M228.85,242.09c.83.14,1.64.33,2.43.6.37.13.57.53.44.9-.1.29-.38.48-.67.48-.08,0-.15-.01-.23-.04-.52-.18-1.06-.32-1.6-.44.24.96.47,1.92.7,2.89,2.56,1.57,4.8,3.65,6.49,6.1.22.32.14.76-.18.99-.12.09-.26.13-.4.13-.22,0-.45-.11-.58-.31-1.31-1.9-2.97-3.56-4.86-4.91,2.01,8.74,3.68,17.48,5.03,25.64.29-.36.42-.56.42-.56,0,0,.78,2.74,1.63,6.29,20.49-13.81,21.39-41.67,13.54-58.89-8.42-18.47-29.53-22.5-37.42-23.36-.19.45-.39.9-.59,1.35,6.55,11.32,11.8,26.96,15.86,43.13Z"/><path class="cls-2" d="M203.25,266.41c-.89.62-1.7,1.13-2.4,1.53.32.07.62.15.91.24.47-.61.97-1.2,1.49-1.77Z"/><path class="cls-2" d="M222.68,246.6c2.23-5.11,1.89-11.28-.9-16.1-.2-.34-.08-.77.26-.97.33-.2.77-.08.97.26,2.09,3.62,2.91,7.94,2.4,12.09,1.15-.06,2.3.01,3.44.21-4.05-16.17-9.3-31.81-15.86-43.13-.23.51-.47,1.01-.71,1.52,1.86,4.19,4.71,13.33,6.02,31.62.96,13.42-3.46,22.44-8.37,28.23.39-.32.78-.63,1.17-.95,4.76-3.84,9.26-7.47,11.58-12.78Z"/><path class="cls-2" d="M223.98,247.17c-2.46,5.62-7.3,9.53-11.99,13.31-3.1,2.5-6.3,5.09-8.78,8.16.27.09.54.18.8.25,7.64,2.21,10.91,10.66,10.9,13.06,0,1.01-1.21,3.34-2.88,6,.22-.02.43-.03.65-.05,15.02-5.24,21.18-11.84,22.73-13.77-1.34-8.16-3.01-16.9-5.03-25.64-1.77-1.27-3.75-2.24-5.82-2.87-.18.53-.37,1.05-.59,1.56Z"/><path class="cls-2" d="M225.17,243.31c-.06.32-.13.63-.21.94,1.73.53,3.4,1.28,4.95,2.24-.23-.96-.46-1.93-.7-2.89-1.33-.29-2.7-.39-4.05-.29Z"/><path class="cls-2" d="M235.41,274.12c.36,2.18.7,4.32,1.01,6.41.35-.22.7-.45,1.04-.67-.85-3.55-1.63-6.29-1.63-6.29,0,0-.13.2-.42.56Z"/><path class="cls-2" d="M212.67,287.89c9.77-.82,17.59-3.48,23.74-7.36-.31-2.09-.65-4.23-1.01-6.41-1.56,1.93-7.71,8.54-22.73,13.77Z"/><path class="cls-6" d="M78.13,194.69c-.07-.23-.13-.47-.21-.7-.12-.37-.52-.57-.9-.45-.04.01-.07.04-.11.06.26.24.52.49.79.73.14.13.28.23.42.36Z"/><path class="cls-6" d="M76.57,194.44c1.37,4.06,1.59,8.59.62,12.76-.09.38.15.76.53.85.05.01.11.02.16.02.32,0,.62-.22.69-.55.99-4.25.82-8.67-.45-12.84-.14-.12-.28-.23-.42-.36-.27-.24-.53-.49-.79-.73-.3.16-.45.51-.34.84Z"/><path class="cls-6" d="M89.08,245.8c-.01.33.2.63.52.71.04-.18.08-.36.12-.54-.21-.06-.43-.11-.64-.17Z"/><path class="cls-6" d="M89.77,246.54c.26,0,.5-.15.62-.38-.23-.06-.45-.12-.67-.18-.04.18-.08.36-.12.54,0,0,.01,0,.02,0,.05.01.1.02.15.02Z"/><path class="cls-6" d="M93.03,233.31c-1.68,4-3.02,8.15-3.95,12.37,0,.04,0,.09,0,.13.21.06.43.11.64.17,1.03-4.61,2.14-8.83,3.31-12.67Z"/><path class="cls-6" d="M101.32,221.1c.22-.32.15-.76-.18-.99-.32-.22-.76-.15-.99.18-2.81,4.03-5.19,8.42-7.13,13.02-1.17,3.84-2.29,8.06-3.31,12.67.22.06.45.12.67.18.03-.06.06-.11.07-.18,1.96-8.89,5.71-17.49,10.85-24.88Z"/><path class="cls-6" d="M209.92,260.33c-2.33,1.89-4.65,3.86-6.68,6.08,2.01-1.4,4.39-3.39,6.68-6.08Z"/><path class="cls-6" d="M203.2,268.64c2.49-3.07,5.68-5.65,8.78-8.16,4.69-3.78,9.53-7.69,11.99-13.31.22-.51.41-1.03.59-1.56-.17-.05-.33-.12-.5-.16-.38-.1-.6-.49-.5-.87.1-.38.49-.6.87-.5.18.05.35.12.52.17.08-.31.15-.63.21-.94-.04,0-.09,0-.14,0-.36.03-.73-.26-.76-.65-.03-.39.26-.73.65-.77.16-.01.32,0,.48-.01.51-4.15-.31-8.47-2.4-12.09-.2-.34-.63-.46-.97-.26-.34.2-.46.63-.26.97,2.79,4.82,3.14,10.99.9,16.1-2.32,5.3-6.82,8.93-11.58,12.78-.39.31-.78.63-1.17.95-2.28,2.69-4.67,4.68-6.68,6.08-.52.57-1.01,1.16-1.49,1.77.51.15.99.31,1.44.46Z"/><path class="cls-6" d="M235.24,253.4c.14.2.36.31.58.31.14,0,.28-.04.4-.13.32-.22.4-.66.18-.99-1.69-2.45-3.94-4.53-6.49-6.1.16.66.31,1.33.46,1.99,1.89,1.35,3.55,3.02,4.86,4.91Z"/><path class="cls-6" d="M224.56,245.61c2.07.63,4.04,1.6,5.82,2.87-.15-.66-.31-1.33-.46-1.99-1.55-.95-3.22-1.71-4.95-2.24-.11.46-.25.91-.4,1.36Z"/><path class="cls-6" d="M224.44,244.08c-.38-.11-.77.12-.87.5-.1.38.12.77.5.87.17.05.33.11.5.16.15-.45.28-.9.4-1.36-.18-.05-.35-.12-.52-.17Z"/><path class="cls-6" d="M230.82,244.04c.08.03.16.04.23.04.3,0,.57-.18.67-.48.13-.37-.07-.77-.44-.9-.79-.27-1.61-.46-2.43-.6.13.5.25,1,.37,1.51.54.12,1.08.26,1.6.44Z"/><path class="cls-6" d="M225.4,241.88c-.06.48-.14.95-.23,1.42,1.35-.1,2.72,0,4.05.29-.12-.5-.25-1-.37-1.51-1.14-.2-2.29-.27-3.44-.21Z"/><path class="cls-6" d="M224.92,241.9c-.39.03-.68.37-.65.77.03.39.41.68.76.65.04,0,.09,0,.14,0,.09-.47.17-.95.23-1.42-.16,0-.32,0-.48.01Z"/><path class="cls-12" d="M182.33,292.75v1.27c2.24-.2,4.39-.44,6.46-.71,2.34-1.16,4.12-2.03,4.12-2.03,0,0-.49.65-1.28,1.63,8.05-1.21,14.74-2.88,20.27-4.76.05-.07.09-.14.13-.21-.6.05-1.21.09-1.83.12,0,0-9.44-8.09-11.8-18.88,0,0,.96-.39,2.45-1.25-1.48-.35-3.24-.52-5.48-.03-4.06.9-10.58.79-13.68,2.06-2.62,1.08-2.72,3.87.68,4.5,2.87.53,9.82.7,9.69,1.29-.09.38-3.47,1.95-7.88,3.57-2.47.91-6.4,2.07-7.81,2.56-3.45,1.21-3.63,5.22.11,5.31,1.49.03,5.07-.83,7.25-1.37,1.74-.43,6.51-1.3,6.51-1.3,0,0-3.1,2.14-6.63,4.36-.92.58-1.87,1.14-2.77,1.68.87.35,1.48,1.2,1.48,2.19Z"/><path class="cls-12" d="M182.33,296.59c1.44-.71,2.97-1.52,4.45-2.27.7-.35,1.37-.69,2.01-1-2.07.27-4.22.51-6.46.71v2.56Z"/><path class="cls-12" d="M188.21,296.9c-2.12,2.31-4.39,4.24-5.05,5.71-.91,2.03,1.88,4.07,5.1,1.76,2.61-1.88,11.7-9.84,11.7-9.84,0,0-4.29,7.99-4.76,9.74-.49,1.83,2.2,3,3.53,1.46,1.58-1.83,4.16-5.64,7.29-9.44,1.91-2.32,4.13-5.38,5.87-8.12-5.53,1.87-12.22,3.55-20.27,4.76-.86,1.07-2.08,2.53-3.41,3.98Z"/><path class="cls-12" d="M175.99,293.9c-.14.18-.24.39-.32.61,2.3-.13,4.51-.29,6.65-.48v-1.27c0-.99-.61-1.84-1.48-2.19-2.27,1.36-4.26,2.53-4.85,3.33Z"/><path class="cls-12" d="M175.68,294.5c-.68,1.88.96,4.65,4.95,2.88.54-.24,1.11-.51,1.7-.8v-2.56c-2.14.19-4.35.36-6.65.48Z"/><path class="cls-12" d="M210.2,288.06c.62-.03,1.22-.07,1.83-.12,1.67-2.65,2.88-4.98,2.88-6,.01-2.4-3.26-10.85-10.9-13.06-.26-.08-.53-.16-.8-.25-.27.34-.54.67-.8,1.02-.14.19-.36.29-.57.29-.15,0-.29-.04-.42-.14-.32-.23-.39-.67-.16-.99.16-.22.34-.43.5-.65-.29-.09-.6-.17-.91-.24-1.49.86-2.45,1.25-2.45,1.25,2.36,10.79,11.8,18.88,11.8,18.88Z"/><path class="cls-12" d="M201.26,268.82c-.23.32-.16.76.16.99.13.09.27.14.42.14.22,0,.43-.1.57-.29.25-.35.53-.69.8-1.02-.45-.15-.93-.31-1.44-.46-.17.22-.34.43-.5.65Z"/><path class="cls-7" d="M161.65,278.96c2.42,0,4.38-1.96,4.38-4.38s-1.96-4.38-4.38-4.38-4.38,1.96-4.38,4.38,1.96,4.38,4.38,4.38Z"/><path class="cls-12" d="M118.05,174.44s.09-.09.15-.12c.18-.07.39.02.46.21.07.18.14.36.21.54.56.42,1.15.82,1.77,1.2,0,0,0,0,0,0,.26.16.53.31.8.46.04.02.07.04.11.06.79.43,1.61.82,2.49,1.18.09.04.17.07.26.1.26.1.53.2.8.3.1.04.21.07.31.11.54.18,1.09.35,1.65.5.07.02.14.04.21.06.26.07.52.13.79.19.17.04.34.08.52.12.26.05.51.11.77.16.21.04.42.07.63.11.4.07.8.12,1.21.18.26.03.52.07.79.09.24.02.49.04.74.06.26.02.53.04.8.05.24.01.48.03.73.04.39.01.8.02,1.2.03.26,0,.53,0,.8,0,.37,0,.74-.01,1.12-.03.23,0,.47-.02.7-.03.36-.02.73-.04,1.11-.07.22-.02.43-.03.65-.05.57-.05,1.14-.11,1.72-.18.18-.02.36-.05.54-.07.45-.06.91-.13,1.37-.2.23-.04.46-.07.69-.11.48-.08.96-.17,1.45-.26.18-.03.36-.07.54-.1.66-.13,1.33-.28,2.01-.44.19-.04.38-.09.57-.14.53-.13,1.06-.26,1.6-.4.23-.06.46-.12.69-.18.61-.17,1.24-.34,1.87-.53.03,0,.05-.02.08-.02-.52-.41-1.02-.85-1.46-1.36-2.18-2.54,3.5-33.51,8.98-33.63,7-.15,13.08,30.73,11.14,33.39-.54.74-1.22,1.38-1.99,1.94,9.16,2.82,23.85,5.49,34.3-1.56.07-.17.14-.33.21-.49.08-.18.29-.27.46-.19.06.03.11.07.15.13,5.89-4.36,10.28-12.05,11.29-24.9-5.4-12.46-16.52-30.91-36.73-37.82-2.19,7.96-10.25,4.06-10.25,4.06,0,0-1.01,4.05-5.39,4.72-4.38.67-8.09-4.05-8.09-4.05-.67,1.69-5.06,4.72-9.44,1.69-2.08-1.44-2.03-4.24-1.4-6.79-21.19,5.81-31.98,20.88-37.38,33.07-.08,6.73.99,21.05,10.69,29.01ZM175.7,146.51c.02-.39.34-.69.75-.67,5.05.31,10.06,1.78,14.47,4.26.34.19.46.62.27.97-.13.23-.37.36-.62.36-.12,0-.24-.03-.35-.09-4.23-2.38-9.02-3.79-13.86-4.08-.39-.02-.69-.36-.67-.75ZM204.33,162.3c2.37,4.11-.04,9.95-5.4,13.05-5.36,3.09-11.62,2.27-14-1.85-2.37-4.11.04-9.95,5.4-13.05s11.62-2.27,14,1.85ZM181.54,124.55c9.36,2.02,18.21,8.85,18.21,14.41s-5.06,5.06-8.85,4.55c-3.79-.51-15.93-3.29-19.47-7.08-3.54-3.79-4.19-14.98,10.11-11.88ZM146.66,147.45c-4.84.3-9.63,1.71-13.86,4.08-.11.06-.23.09-.35.09-.25,0-.49-.13-.62-.36-.19-.34-.07-.77.27-.97,4.41-2.48,9.42-3.95,14.47-4.26.4-.02.73.27.75.67.02.39-.27.73-.67.75ZM141.48,125.05c14.3-3.09,13.65,8.09,10.11,11.88-3.54,3.79-15.68,6.57-19.47,7.08-3.79.51-8.85,1.01-8.85-4.55s8.85-12.39,18.21-14.41ZM118.69,162.3c2.37-4.11,8.64-4.94,14-1.85s7.77,8.93,5.4,13.05c-2.37,4.11-8.64,4.94-14,1.85-5.36-3.09-7.77-8.93-5.4-13.05Z"/><path class="cls-1" d="M113.12,197.16c-6.21-9.01-9.84-19.85-9.84-31.51,0-3.91.41-7.73,1.18-11.41-.04-.24-.09-.48-.13-.72-.1.33-.2.65-.29.96-3.27,17.28.03,32.33,6.25,44.93.24-.09.47-.17.68-.26.82-.83,1.54-1.48,2.14-1.99Z"/><path class="cls-1" d="M104.8,152.06c.02.15.05.3.07.45.25-1.01.52-2.02.82-3.01-.33.88-.63,1.74-.9,2.56Z"/><path class="cls-1" d="M219.74,165.65c0,11-3.24,21.26-8.82,29.96.4.61.79,1.23,1.18,1.86.42.03.91.08,1.48.14,6.11-14.22,6.85-27.58,6.02-37.46-.07-.22-.14-.45-.22-.69.23,2.04.35,4.1.35,6.2Z"/><path class="cls-1" d="M212.1,197.47c-.39-.64-.78-1.26-1.18-1.86-1.34,2.09-2.82,4.1-4.42,6-.47.89-.95,1.78-1.44,2.65-8.25,14.57-21.15,28.3-37.37,39.81h.16c.28,0,.54.08.75.22,23.44-13.4,36.58-28.97,43.68-43.81-1.02-2.3-1.74-3.11-1.74-3.11,0,0,.57.02,1.57.09Z"/><path class="cls-1" d="M182.49,218.49c-3.11,1.17-6.34,2.09-9.69,2.73-3.02,7.82-6.54,15.45-10.53,22.85h.49s0-.02,0-.02c7.64-8.11,14.17-16.86,19.72-25.56Z"/><path class="cls-1" d="M183.58,218.06c-5.58,8.84-12.16,17.74-19.88,26h2.76c16.51-11.57,29.64-25.44,37.97-40.16,0,0,0,0,0,0-5.75,6.1-12.86,10.97-20.86,14.16Z"/><path class="cls-1" d="M139.66,218.15c6,9.56,12.5,17.81,19.56,24.87-3.21-7.09-6.04-14.33-8.48-21.71-3.84-.7-7.55-1.76-11.08-3.16Z"/><path class="cls-1" d="M154.75,244.38c-11.3-9.49-21.13-21.08-29.15-34.17-4.83-3.69-9.05-8.09-12.47-13.06-.6.51-1.33,1.16-2.14,1.99,1.14-.44,1.79-.76,1.79-.76l-1.24,3.4c14.06,26.28,40.37,41.26,43.07,42.75.05-.05.1-.1.16-.15Z"/><path class="cls-1" d="M151.53,221.44c2.56,7.7,5.54,15.25,8.94,22.62h.56c.05-6.78.17-14.35.28-21.78-3.34-.01-6.6-.31-9.79-.84Z"/><path class="cls-1" d="M138.53,217.7c-4.05-1.7-7.87-3.83-11.39-6.34,7.87,12.51,17.42,23.6,28.35,32.72.04,0,.09-.01.13-.01h3.65c-7.52-7.41-14.41-16.16-20.74-26.37Z"/><path class="cls-1" d="M161.75,243.55c3.87-7.19,7.28-14.6,10.24-22.2-3.24.57-6.56.89-9.96.92-.11,7.25-.22,14.63-.28,21.28Z"/><path class="cls-1" d="M110.98,199.15c-.21.08-.43.17-.68.26.05.1.1.2.15.29.18-.19.36-.37.53-.55Z"/><path class="cls-1" d="M110.98,199.15c-.17.18-.35.36-.53.55.35.7.71,1.4,1.08,2.08l1.24-3.4s-.65.32-1.79.76Z"/><path class="cls-1" d="M212.99,198.96c.2-.45.4-.9.59-1.35-.57-.06-1.06-.11-1.48-.14.3.49.59.99.89,1.49Z"/><path class="cls-1" d="M212.1,197.47c-.99-.08-1.57-.09-1.57-.09,0,0,.72.81,1.74,3.11.24-.51.49-1.01.71-1.52-.29-.51-.59-1-.89-1.49Z"/><path class="cls-1" d="M142.08,179.63c.45-.06.91-.13,1.37-.2-.46.07-.92.14-1.37.2Z"/><path class="cls-1" d="M164.37,183.91c-1.11-1.44-1.96-2.83-2.62-3.95-.08,0-.15,0-.23,0-.62,1.05-1.46,2.41-2.56,3.84.78-.26,1.64-.4,2.55-.4,1.03,0,2,.19,2.86.52Z"/><path class="cls-1" d="M117.72,195.67c-6.13-12.91-10.64-26.88-13.26-41.44-.78,3.69-1.18,7.5-1.18,11.41,0,11.66,3.63,22.5,9.84,31.51,1.25-1.05,2-1.47,2-1.47l2.6-.02Z"/><path class="cls-1" d="M151.01,177.79c.61-.17,1.24-.34,1.87-.53-.63.19-1.25.36-1.87.53Z"/><path class="cls-1" d="M144.15,179.32c.48-.08.96-.17,1.45-.26-.49.09-.97.18-1.45.26Z"/><path class="cls-1" d="M146.14,178.95c.66-.13,1.33-.28,2.01-.44-.68.16-1.35.3-2.01.44Z"/><path class="cls-1" d="M148.72,178.38c.53-.13,1.06-.26,1.6-.4-.54.14-1.07.27-1.6.4Z"/><path class="cls-1" d="M143.26,192.29c-.29.01-.57.04-.86.04-.06,0-.12,0-.19,0-10.69-.09-17.05-5.43-20.75-10.86,1.95,4.92,3.97,9.63,6.06,14.13l16.39-.12c-.21-1.06-.45-2.12-.65-3.19Z"/><path class="cls-1" d="M204.75,175.46c.07.1.09.22.04.34-.5,1.2-1.15,2.55-1.99,3.96-1.82,4.66-4.03,9.85-6.64,15.36l12.72-.09c5.72-13.05,8.45-27.18,8.14-42.12-.3-.75-.63-1.53-.98-2.34-1.02,12.85-5.4,20.54-11.29,24.9Z"/><path class="cls-1" d="M121.44,176.74s.07.04.11.06c-.04-.02-.07-.04-.11-.06Z"/><path class="cls-1" d="M139.82,179.88c.57-.05,1.14-.11,1.72-.18-.59.07-1.16.13-1.72.18Z"/><path class="cls-1" d="M120.63,176.27s0,0,0,0c0,0,0,0,0,0Z"/><path class="cls-1" d="M209.67,195.02h.87c.13.19.26.39.39.59,5.58-8.69,8.82-18.95,8.82-29.96,0-2.1-.13-4.16-.35-6.2-.4-1.27-.93-2.85-1.62-4.66.05,14.24-2.66,27.72-8.1,40.23Z"/><path class="cls-1" d="M134.23,180.04c.39.02.8.02,1.2.03-.41,0-.81-.01-1.2-.03Z"/><path class="cls-1" d="M181.4,192.32c.07.08.1.19.08.3-.19.87-.4,1.74-.61,2.6l14.51-.1c2.11-4.43,3.96-8.66,5.55-12.57-3.71,4.89-9.79,9.56-19.53,9.77Z"/><path class="cls-1" d="M119.58,178.67c-.04-.1-.03-.2.02-.29-.67-1.28-1.2-2.5-1.62-3.6-.05-.12-.02-.25.06-.34-9.7-7.96-10.77-22.28-10.69-29.01-.62,1.4-1.17,2.76-1.66,4.06-.3.99-.58,2-.82,3.01,2.58,15.18,7.23,29.75,13.63,43.16l8.22-.06c-2.47-5.35-4.86-10.98-7.14-16.93Z"/><path class="cls-1" d="M124.03,177.98c.09.04.17.07.26.1-.09-.03-.17-.07-.26-.1Z"/><path class="cls-1" d="M180.85,192.33s-.04,0-.05,0c-5.68,0-9.84-2.07-12.89-4.67.04.22.07.44.07.67,0,2.73-2.89,4.94-6.46,4.94s-6.46-2.21-6.46-4.94c0-.17.01-.35.04-.51-2.76,2.26-6.39,4.1-11.12,4.44.2,1.08.43,2.15.65,3.22l35.52-.25c.22-.92.44-1.84.64-2.76.01-.05.03-.09.06-.13Z"/><path class="cls-1" d="M128.05,179.24c.17.04.34.08.52.12-.17-.04-.35-.08-.52-.12Z"/><path class="cls-1" d="M136.23,180.07c.37,0,.74-.01,1.12-.03-.38.01-.75.02-1.12.03Z"/><path class="cls-1" d="M131.18,179.79c.26.03.52.07.79.09-.27-.03-.53-.06-.79-.09Z"/><path class="cls-1" d="M129.34,179.51c.21.04.42.07.63.11-.21-.03-.42-.07-.63-.11Z"/><path class="cls-1" d="M127.06,178.99c.07.02.14.04.21.06-.07-.02-.14-.04-.21-.06Z"/><path class="cls-1" d="M132.71,179.95c.26.02.53.04.8.05-.27-.02-.53-.03-.8-.05Z"/><path class="cls-1" d="M138.06,180.01c.36-.02.73-.04,1.11-.07-.37.03-.74.05-1.11.07Z"/><path class="cls-1" d="M125.09,178.38c.1.04.21.07.31.11-.1-.04-.21-.07-.31-.11Z"/><path class="cls-1" d="M125.6,210.21c-2.86-4.67-5.49-9.53-7.87-14.55l-2.6.02s-.75.42-2,1.47c3.43,4.97,7.65,9.37,12.47,13.06Z"/><path class="cls-1" d="M180.87,195.22c-2.1,8.85-4.8,17.53-8.07,25.99,3.34-.64,6.58-1.56,9.69-2.73,5.11-8,9.37-15.96,12.89-23.37l-14.51.1Z"/><path class="cls-1" d="M138.53,217.7c-4.17-6.72-8.09-14.07-11.8-22.1l-8.22.06c2.6,5.44,5.48,10.68,8.64,15.7,3.52,2.51,7.33,4.64,11.39,6.34Z"/><path class="cls-1" d="M144.62,195.48c1.77,8.79,4.08,17.46,6.91,25.96,3.18.54,6.45.83,9.79.84,0-.55.02-1.1.03-1.65.13-8.49.27-17.28.32-24.9,0-.2.16-.35.35-.35h0c.2,0,.35.16.35.36-.05,7.63-.19,16.41-.32,24.91,0,.54-.02,1.08-.03,1.63,3.4-.03,6.72-.35,9.96-.92,3.31-8.5,6.04-17.23,8.16-26.13l-35.52.25Z"/><path class="cls-1" d="M209.67,195.02c-.97,2.23-2.03,4.42-3.17,6.59,1.61-1.9,3.08-3.91,4.42-6-.13-.2-.26-.4-.39-.59h-.87Z"/><path class="cls-1" d="M183.58,218.06c8-3.19,15.11-8.06,20.86-14.16,1.64-2.9,3.12-5.86,4.45-8.88l-12.72.09c-3.45,7.27-7.62,15.08-12.58,22.95Z"/><path class="cls-1" d="M143.9,195.48l-16.39.12c3.81,8.21,7.85,15.71,12.15,22.55,3.53,1.39,7.24,2.46,11.08,3.16-2.8-8.46-5.08-17.08-6.83-25.82Z"/><path class="cls-3" d="M104.8,152.06c-.16.49-.32.98-.46,1.45.04.24.09.48.13.72.12-.58.27-1.15.41-1.73-.03-.15-.05-.3-.07-.45Z"/><path class="cls-3" d="M127.15,211.36c-.52-.37-1.04-.76-1.55-1.15,8.02,13.09,17.85,24.68,29.15,34.17.21-.17.46-.28.74-.3-10.92-9.11-20.47-20.2-28.35-32.72Z"/><path class="cls-3" d="M118.5,195.66c-6.4-13.41-11.05-27.97-13.63-43.16-.14.57-.29,1.15-.41,1.73,2.62,14.56,7.13,28.53,13.26,41.44h.78Z"/><path class="cls-3" d="M118.5,195.66h-.78c2.38,5.02,5.01,9.88,7.87,14.55.51.39,1.03.78,1.55,1.15-3.16-5.02-6.04-10.26-8.64-15.7Z"/><path class="cls-3" d="M139.66,218.15c-.38-.15-.75-.29-1.12-.45,6.33,10.21,13.22,18.95,20.74,26.37h.43c-.16-.35-.32-.7-.48-1.05-7.06-7.05-13.56-15.31-19.56-24.87Z"/><path class="cls-3" d="M121.45,181.47c-.71-1.04-1.32-2.08-1.85-3.09-.05.09-.06.19-.02.29,2.29,5.95,4.67,11.58,7.14,16.93h.78c-2.09-4.5-4.1-9.21-6.06-14.13Z"/><path class="cls-3" d="M127.51,195.6h-.78c3.71,8.03,7.64,15.38,11.8,22.1.37.16.75.3,1.12.45-4.29-6.84-8.33-14.34-12.15-22.55Z"/><path class="cls-3" d="M204.44,203.91c-8.34,14.72-21.46,28.59-37.97,40.16h1.22c16.21-11.51,29.12-25.24,37.37-39.81.5-.88.97-1.76,1.44-2.65-.66.79-1.35,1.55-2.06,2.3,0,0,0,0,0,0Z"/><path class="cls-3" d="M208.89,195.02h.78c5.44-12.51,8.15-25.99,8.1-40.23-.23-.61-.47-1.24-.74-1.89.31,14.95-2.41,29.07-8.14,42.12Z"/><path class="cls-3" d="M208.89,195.02c-1.32,3.02-2.8,5.98-4.45,8.88.71-.75,1.39-1.52,2.06-2.3,1.14-2.16,2.2-4.36,3.17-6.59h-.78Z"/><path class="cls-3" d="M182.49,218.49c-5.55,8.7-12.08,17.45-19.72,25.56,0,0,0,.02,0,.02h.95c7.72-8.27,14.3-17.16,19.88-26-.36.15-.73.28-1.1.42Z"/><path class="cls-3" d="M195.38,195.12h.79c2.61-5.51,4.82-10.71,6.64-15.37-.54.92-1.17,1.86-1.88,2.8-1.59,3.91-3.44,8.14-5.55,12.57Z"/><path class="cls-3" d="M182.49,218.49c.37-.14.73-.28,1.1-.42,4.97-7.87,9.14-15.68,12.58-22.95h-.79c-3.52,7.41-7.79,15.37-12.89,23.37Z"/><path class="cls-3" d="M151.53,221.44c-.27-.04-.53-.09-.8-.14,2.44,7.38,5.28,14.62,8.48,21.71.35.35.7.71,1.06,1.05h.2c-3.4-7.37-6.38-14.93-8.94-22.62Z"/><path class="cls-3" d="M143.26,192.29c.2,1.07.43,2.13.65,3.19h.72c-.22-1.08-.45-2.15-.65-3.22-.24.02-.48.02-.72.03Z"/><path class="cls-3" d="M150.73,221.3c.26.05.53.09.8.14-2.83-8.5-5.13-17.17-6.91-25.96h-.72c1.76,8.75,4.04,17.37,6.83,25.83Z"/><path class="cls-3" d="M159.22,243.01c.16.35.31.7.48,1.05h.58c-.35-.35-.7-.7-1.06-1.05Z"/><path class="cls-3" d="M171.98,221.36c-2.95,7.59-6.37,15-10.24,22.2,0,.17,0,.34,0,.52h.53c3.99-7.4,7.5-15.03,10.53-22.85-.27.05-.54.09-.82.14Z"/><path class="cls-3" d="M181.4,192.32c-.14,0-.28.01-.42.01-.04,0-.09,0-.14,0-.03.04-.05.08-.06.13-.21.92-.42,1.84-.64,2.76h.73c.21-.87.41-1.74.61-2.61.02-.11,0-.22-.08-.3Z"/><path class="cls-3" d="M180.14,195.23c-2.12,8.9-4.85,17.63-8.16,26.13.27-.05.55-.09.82-.14,3.27-8.46,5.97-17.14,8.07-25.99h-.73Z"/><path class="cls-3" d="M161.51,222.29c-.06,0-.13,0-.19,0-.12,7.44-.23,15.01-.28,21.78h.44c.09-.17.18-.34.28-.52.05-6.65.17-14.03.28-21.28-.17,0-.34.01-.51.01Z"/><path class="cls-3" d="M162.03,222.28c0-.54.02-1.09.03-1.63.13-8.5.27-17.28.32-24.91,0-.2-.16-.36-.35-.36h0c-.2,0-.35.16-.35.35-.05,7.63-.19,16.41-.32,24.9,0,.55-.02,1.1-.03,1.65.06,0,.13,0,.19,0,.17,0,.34-.01.51-.01Z"/><path class="cls-3" d="M161.47,244.07h.27c0-.17,0-.34,0-.52-.09.17-.18.34-.28.52Z"/><path class="cls-1" d="M139.16,179.93c.22-.02.43-.03.65-.05-.22.02-.44.03-.65.05Z"/><path class="cls-1" d="M121.55,176.8c.79.43,1.61.82,2.49,1.18-.87-.36-1.7-.75-2.49-1.18Z"/><path class="cls-1" d="M129.96,179.62c.4.07.8.12,1.21.18-.41-.05-.82-.11-1.21-.18Z"/><path class="cls-1" d="M131.97,179.89c.24.02.49.04.74.06-.25-.02-.5-.04-.74-.06Z"/><path class="cls-1" d="M120.64,176.28c.26.16.53.31.8.46-.27-.15-.54-.3-.8-.46Z"/><path class="cls-1" d="M124.29,178.08c.26.1.53.2.8.3-.27-.1-.54-.2-.8-.3Z"/><path class="cls-1" d="M150.32,177.97c.23-.06.46-.12.69-.18-.23.06-.46.12-.69.18Z"/><path class="cls-1" d="M137.35,180.04c.23,0,.47-.02.7-.03-.24.01-.47.02-.7.03Z"/><path class="cls-1" d="M143.45,179.43c.23-.04.46-.07.69-.11-.23.04-.46.08-.69.11Z"/><path class="cls-1" d="M133.5,180c.24.01.48.03.73.04-.25,0-.49-.02-.73-.04Z"/><path class="cls-1" d="M125.4,178.49c.54.18,1.09.35,1.65.5-.57-.15-1.12-.32-1.65-.5Z"/><path class="cls-1" d="M148.14,178.51c.19-.04.38-.09.57-.14-.19.05-.39.09-.57.14Z"/><path class="cls-1" d="M127.26,179.05c.26.07.52.13.79.19-.26-.06-.53-.12-.79-.19Z"/><path class="cls-1" d="M145.6,179.05c.18-.03.36-.07.54-.1-.18.04-.36.07-.54.1Z"/><path class="cls-1" d="M120.63,176.27c-.62-.38-1.21-.78-1.77-1.2,0,0,0,.01,0,.02.56.42,1.15.81,1.76,1.18Z"/><path class="cls-1" d="M136.23,180.07c-.27,0-.53,0-.8,0,.26,0,.53,0,.8,0Z"/><path class="cls-1" d="M141.54,179.7c.18-.02.36-.05.54-.07-.18.02-.36.05-.54.07Z"/><path class="cls-1" d="M128.57,179.36c.26.05.51.11.77.16-.26-.05-.52-.1-.77-.16Z"/><path class="cls-1" d="M152.96,177.24s-.05.02-.08.02c.03,0,.05-.02.08-.02,0,0,0,0,0,0Z"/><path class="cls-1" d="M203.91,176.05s.01-.03.02-.04c-10.45,7.05-25.14,4.38-34.3,1.56,0,0,0,0,0,0,9.15,2.82,23.83,5.5,34.28-1.53Z"/><path class="cls-1" d="M166.04,184.81c.5.37.91.81,1.23,1.29,3.03,2.96,7.36,5.53,13.53,5.53.06,0,.12,0,.18,0,11.5-.09,17.85-6.56,21.2-12.2.02-.04.03-.08.05-.12.02-.06.06-.1.11-.14.63-1.09,1.16-2.15,1.58-3.11-10.45,7.03-25.13,4.34-34.28,1.53-1.92,1.39-4.45,2.18-7.08,2.34.83,1.4,1.95,3.16,3.48,4.89Z"/><path class="cls-1" d="M142.21,191.62c.06,0,.12,0,.18,0,5.84,0,10.09-2.34,13.12-5.11.42-.81,1.11-1.52,1.99-2.05,1.42-1.64,2.45-3.26,3.21-4.53-2.83-.14-5.61-1.03-7.75-2.7-.03,0-.05.02-.08.02-.63.19-1.25.36-1.87.53-.23.06-.46.12-.69.18-.54.14-1.07.27-1.6.4-.19.05-.39.09-.57.14-.68.16-1.35.3-2.01.44-.18.04-.36.07-.54.1-.49.09-.97.18-1.45.26-.23.04-.46.08-.69.11-.46.07-.92.14-1.37.2-.18.02-.36.05-.54.07-.59.07-1.16.13-1.72.18-.22.02-.44.03-.65.05-.37.03-.74.05-1.11.07-.24.01-.47.02-.7.03-.38.01-.75.02-1.12.03-.27,0-.53,0-.8,0-.41,0-.81-.01-1.2-.03-.25,0-.49-.02-.73-.04-.27-.02-.53-.03-.8-.05-.25-.02-.5-.04-.74-.06-.27-.03-.53-.06-.79-.09-.41-.05-.82-.11-1.21-.18-.21-.03-.42-.07-.63-.11-.26-.05-.52-.1-.77-.16-.17-.04-.35-.08-.52-.12-.26-.06-.53-.12-.79-.19-.07-.02-.14-.04-.21-.06-.57-.15-1.12-.32-1.65-.5-.1-.04-.21-.07-.31-.11-.27-.1-.54-.2-.8-.3-.09-.03-.17-.07-.26-.1-.87-.36-1.7-.75-2.49-1.18-.04-.02-.07-.04-.11-.06-.27-.15-.54-.3-.8-.46,0,0,0,0,0,0-.61-.37-1.2-.76-1.76-1.18,2.56,6.38,8.88,16.41,23.34,16.53Z"/><path class="cls-1" d="M202.23,179.3s-.03.08-.05.12c.05-.09.11-.18.16-.26-.05.04-.08.08-.11.14Z"/><path class="cls-3" d="M204.75,175.46c-.04-.05-.08-.1-.15-.13-.18-.08-.39,0-.46.19-.07.16-.14.32-.21.49.18-.12.36-.23.54-.35.09-.07.19-.13.29-.2Z"/><path class="cls-3" d="M118.32,174.66c.18.14.36.28.54.41-.07-.18-.14-.36-.21-.54-.07-.18-.28-.27-.46-.21-.06.02-.11.07-.15.12.09.07.18.14.27.22,0,0,0,0,0,0Z"/><path class="cls-3" d="M161.52,179.95c-.13,0-.25,0-.38,0-.7,1.19-1.6,2.61-2.76,4.06.18-.08.37-.15.57-.21,1.11-1.43,1.95-2.79,2.56-3.84Z"/><path class="cls-3" d="M161.75,179.96c.65,1.12,1.51,2.5,2.62,3.95.18.07.36.14.53.23-1.2-1.49-2.13-2.96-2.86-4.18-.1,0-.19,0-.29,0Z"/><path class="cls-3" d="M180.98,191.98c-5.86.05-10.12-2.13-13.21-4.84.06.17.1.35.13.52,3.05,2.6,7.22,4.67,12.89,4.67.02,0,.04,0,.05,0,.08-.11.21-.17.36-.14.08.02.14.07.19.12,9.73-.21,15.82-4.88,19.53-9.77.19-.46.36-.9.54-1.36-3.61,5.28-9.88,10.7-20.49,10.79Z"/><path class="cls-3" d="M143.97,192.26c4.73-.34,8.36-2.18,11.12-4.44.02-.16.05-.32.1-.48-2.77,2.36-6.47,4.26-11.36,4.58.06.05.11.12.13.21,0,.04.02.09.03.13Z"/><path class="cls-3" d="M119.79,178.21s.08-.02.13-.02c-.68-1.29-1.2-2.5-1.59-3.53-.09-.07-.18-.14-.27-.22-.07.09-.1.22-.06.34.42,1.1.95,2.32,1.62,3.6.04-.07.1-.14.18-.17Z"/><path class="cls-3" d="M204.47,175.66c-.44,1.06-1.01,2.25-1.72,3.49.13.09.2.26.13.42-.02.06-.05.13-.08.19.83-1.41,1.49-2.76,1.99-3.96.05-.12.03-.24-.04-.34-.09.07-.19.13-.29.2,0,0,0,0,0,0Z"/><path class="cls-3" d="M142.21,192.33c.06,0,.12,0,.19,0,.3,0,.57-.03.86-.04,0-.01,0-.03,0-.04-.02-.12.03-.24.11-.32-.38.02-.76.05-1.15.04-11.63-.09-18.06-6.61-21.47-12.31.24.61.47,1.2.71,1.8,3.71,5.43,10.06,10.77,20.75,10.86Z"/><path class="cls-3" d="M120.74,179.67c-.3-.5-.57-1-.83-1.48-.04,0-.08,0-.13.02-.08.03-.15.09-.18.17.53,1.01,1.14,2.05,1.85,3.09-.24-.6-.48-1.2-.71-1.8Z"/><path class="cls-3" d="M202.75,179.15c-.38.67-.81,1.36-1.28,2.05-.18.45-.35.9-.54,1.36.71-.93,1.33-1.88,1.88-2.8.02-.06.05-.13.08-.19.06-.16,0-.32-.13-.42Z"/><path class="cls-3" d="M143.95,192.13c-.02-.09-.06-.16-.13-.21-.15,0-.31.01-.46.02-.09.08-.14.2-.11.32,0,.01,0,.03,0,.04.24,0,.48-.02.72-.03,0-.04-.02-.09-.03-.13Z"/><path class="cls-3" d="M181.4,192.32c-.05-.06-.11-.11-.19-.12-.15-.03-.29.03-.36.14.05,0,.09,0,.14,0,.14,0,.28,0,.42-.01Z"/><path class="cls-3" d="M118.32,174.66c.18.15.36.29.55.43,0,0,0-.01,0-.02-.18-.14-.37-.27-.54-.41,0,0,0,0,0,0Z"/><path class="cls-3" d="M204.47,175.66c-.18.13-.36.23-.54.35,0,.01-.01.03-.02.04.19-.13.37-.26.55-.39Z"/><path class="cls-3" d="M161.15,179.95c-.15,0-.29,0-.44,0-.75,1.27-1.79,2.89-3.21,4.53.28-.17.58-.32.89-.46,1.16-1.45,2.05-2.87,2.76-4.06Z"/><path class="cls-3" d="M180.98,191.62c-.06,0-.12,0-.18,0-6.17,0-10.5-2.56-13.53-5.53.22.33.39.68.51,1.04,3.09,2.71,7.35,4.89,13.21,4.84,10.61-.09,16.89-5.51,20.49-10.79.24-.59.48-1.19.7-1.77-3.35,5.63-9.7,12.1-21.2,12.2Z"/><path class="cls-3" d="M166.04,184.81c-1.53-1.74-2.66-3.49-3.48-4.89-.17.01-.34.03-.51.03.72,1.22,1.65,2.69,2.86,4.18.41.19.79.42,1.13.68Z"/><path class="cls-3" d="M202.69,179.1s.05.03.07.04c.71-1.24,1.27-2.43,1.72-3.49,0,0,0,0,0,0-.18.13-.37.27-.55.39-.43.97-.95,2.02-1.58,3.11.09-.08.23-.11.35-.06Z"/><path class="cls-3" d="M142.21,191.98c.4,0,.77-.03,1.15-.04.05-.04.1-.08.17-.09.11-.02.21,0,.29.07,4.9-.32,8.59-2.22,11.36-4.58.08-.28.19-.56.32-.82-3.03,2.77-7.28,5.11-13.12,5.11-.06,0-.12,0-.18,0-14.47-.12-20.79-10.15-23.34-16.53-.19-.14-.37-.29-.55-.43.39,1.04.92,2.25,1.59,3.53.14,0,.28.08.33.23.16.42.33.83.5,1.25,3.4,5.7,9.83,12.21,21.47,12.31Z"/><path class="cls-3" d="M119.91,178.19c.25.48.53.98.83,1.48-.16-.42-.33-.83-.5-1.25-.05-.14-.19-.23-.33-.23Z"/><path class="cls-3" d="M202.33,179.16c-.05.09-.1.17-.16.26-.22.57-.47,1.18-.7,1.77.47-.69.9-1.37,1.28-2.05-.02-.02-.04-.03-.07-.04-.13-.05-.26-.02-.35.06Z"/><path class="cls-3" d="M143.53,191.84c-.07.01-.12.05-.17.09.15,0,.31,0,.46-.02-.08-.06-.18-.1-.29-.07Z"/><path class="cls-1" d="M146.14,119.15c4.38,3.03,8.77,0,9.44-1.69,0,0,3.71,4.72,8.09,4.05,4.38-.67,5.39-4.72,5.39-4.72,0,0,8.06,3.9,10.25-4.06-6.4-2.19-13.7-3.23-22.02-2.55-4.55.37-8.72,1.12-12.56,2.17-.62,2.55-.68,5.35,1.4,6.79Z"/><path class="cls-11" d="M103.57,148.79c-.03-.19.11-.37.3-.4.2-.02.37.11.4.3.13.9.28,1.8.43,2.7.73-3.15,1.66-6.36,2.85-9.64,0,0-.13,1.16-.17,3.07,6.55-16.08,20.44-28.55,37.66-33.49.73-2.38,1.79-4.31,1.79-4.31,19.22-11.13,33.04,1.69,33.04,1.69-.03,1.17-.14,2.19-.32,3.09,17.04,5.39,30.63,18.21,36.72,34.53.02-.91.02-1.85.01-2.81,0,0,2.49,6.49,3.33,16.63.51,1.67.74,2.64.74,2.64,9.44-14.16-.37-51.89-5.98-61.36-3.54-5.97-9.24-10.76-12.79-16.63-.13.2-.35.33-.58.33-.11,0-.23-.03-.33-.08-9.53-5.05-20.25-7.36-31.01-6.67-.43.03-.73-.27-.75-.66-.02-.39.27-.73.66-.75,10.86-.69,21.67,1.59,31.31,6.6-.24-.44-.46-.89-.67-1.35-4.69-10.29-6.7-20.55-9.89-28.12-5.39-12.81-24.61-20.9-30.68-20.9s-10.11,8.43-16.18,16.18c-6.07,7.75-28.29,29.89-37.06,45.74-8.77,15.85-10.48,47.99-9.8,55.41.67,7.42,5.59,12.44,5.59,12.44,0,0,.39-3.4,1.87-8.48.08-.41.15-.82.24-1.23-.26-1.48-.5-2.96-.72-4.45ZM113.43,111.57c7.06-8.22,16.82-13.77,27.48-15.65.38-.07.76.19.82.58.07.39-.19.75-.58.82-10.19,1.79-19.91,7.33-26.65,15.18-.14.16-.34.25-.54.25-.16,0-.33-.06-.46-.17-.3-.26-.33-.7-.07-1ZM104.71,125.2c1.13-3.06,2.69-5.93,4.66-8.53.23-.31.68-.37.99-.14.31.24.37.68.14.99-1.88,2.49-3.38,5.23-4.45,8.16-.11.29-.38.46-.67.46-.08,0-.16-.01-.25-.04-.37-.14-.56-.54-.42-.91Z"/><path class="cls-11" d="M144.74,112.36c.09-.35.18-.7.28-1.03-17.22,4.94-31.11,17.41-37.66,33.49,0,.2,0,.4-.01.62,5.4-12.2,16.2-27.27,37.38-33.07Z"/><path class="cls-11" d="M216.05,150.56c.11-1.36.18-2.76.21-4.24-6.09-16.32-19.68-29.14-36.72-34.53-.06.33-.14.65-.22.95,20.21,6.92,31.33,25.36,36.73,37.82Z"/><path class="cls-11" d="M216.26,146.32c1.56,4.17,2.62,8.57,3.13,13.13.08.24.15.47.22.69-.85-10.14-3.33-16.63-3.33-16.63.01.96,0,1.89-.01,2.81Z"/><path class="cls-11" d="M105.7,149.5c.49-1.59,1.04-3.15,1.67-4.68.04-1.91.17-3.07.17-3.07-1.18,3.29-2.12,6.5-2.85,9.64.04.22.07.45.11.67.27-.83.57-1.68.9-2.56Z"/><path class="cls-11" d="M104.29,153.24c-.09.41-.16.82-.24,1.23.09-.31.19-.63.29-.96-.02-.09-.03-.18-.05-.27Z"/><path class="cls-11" d="M107.35,145.43c0-.21,0-.42.01-.62-.62,1.53-1.18,3.09-1.67,4.68.49-1.3,1.04-2.67,1.66-4.06Z"/><path class="cls-11" d="M217.03,152.9c0-.39,0-.77-.02-1.16,0-.2.15-.36.34-.37.19,0,.36.15.37.34.03,1.03.04,2.05.05,3.07.69,1.81,1.22,3.39,1.62,4.66-.51-4.56-1.57-8.96-3.13-13.13-.03,1.47-.1,2.88-.21,4.24.35.81.68,1.59.98,2.34Z"/><path class="cls-11" d="M104.27,148.68c-.03-.19-.2-.32-.4-.3-.19.03-.33.21-.3.4.22,1.49.46,2.97.72,4.45.13-.61.26-1.23.41-1.85-.15-.9-.29-1.8-.43-2.7Z"/><path class="cls-11" d="M104.69,151.39c-.14.62-.28,1.24-.41,1.85.02.09.03.18.05.27.14-.47.3-.96.46-1.45-.04-.22-.07-.45-.11-.67Z"/><path class="cls-11" d="M217.72,151.72c0-.2-.18-.34-.37-.34-.2,0-.35.17-.34.37.01.39,0,.77.02,1.16.26.66.51,1.29.74,1.89,0-1.02-.02-2.04-.05-3.07Z"/><path class="cls-11" d="M179.54,111.79c.18-.9.29-1.92.32-3.09,0,0-13.82-12.81-33.04-1.69,0,0-1.07,1.93-1.79,4.31,5.23-1.5,10.76-2.32,16.49-2.32,6.29,0,12.35.98,18.03,2.78Z"/><path class="cls-11" d="M157.3,110.19c8.32-.68,15.63.36,22.02,2.55.08-.3.15-.61.22-.95-5.68-1.8-11.73-2.78-18.03-2.78-5.73,0-11.26.82-16.49,2.32-.1.34-.2.68-.28,1.03,3.84-1.05,8.01-1.8,12.56-2.17Z"/><path class="cls-9" d="M146.57,146.03c-5.05.31-10.06,1.78-14.47,4.26-.34.19-.46.62-.27.97.13.23.37.36.62.36.12,0,.24-.03.35-.09,4.23-2.38,9.02-3.79,13.86-4.08.39-.02.69-.36.67-.75-.02-.39-.35-.68-.75-.67Z"/><path class="cls-9" d="M190.57,151.43c.25,0,.49-.13.62-.36.19-.34.07-.77-.27-.97-4.41-2.48-9.42-3.95-14.47-4.26-.41-.02-.73.27-.75.67-.02.39.27.73.67.75,4.84.3,9.63,1.71,13.86,4.08.11.06.23.09.35.09Z"/><path class="cls-13" d="M155.52,176.44c.22-.07.44-.15.67-.22.59-.2,1.19-.4,1.79-.62.24-.08.48-.17.72-.26.8-.29,1.61-.59,2.44-.91.01,0,.02,0,.03-.01,0,0,.42.2,1.18.52,0,0,.01,0,.02,0,1.41.6,3.98,1.62,7.26,2.63.77-.56,1.45-1.2,1.99-1.94,1.94-2.66-4.14-33.54-11.14-33.39-5.48.12-11.16,31.09-8.98,33.63.43.51.93.95,1.46,1.36.09-.03.19-.05.28-.08.75-.22,1.51-.47,2.28-.72Z"/><path class="cls-13" d="M158.7,175.34c.8-.29,1.61-.59,2.44-.91-.83.32-1.64.62-2.44.91Z"/><path class="cls-13" d="M162.36,174.94s.01,0,.02,0c0,0-.01,0-.02,0Z"/><path class="cls-13" d="M156.19,176.21c.59-.2,1.19-.4,1.79-.62-.6.21-1.2.42-1.79.62Z"/><path class="cls-13" d="M153.24,177.15c.75-.22,1.51-.47,2.28-.72-.77.25-1.53.49-2.28.72Z"/><path class="cls-13" d="M161.64,179.76c-.04.06-.08.13-.11.19.08,0,.15,0,.23,0-.04-.06-.08-.14-.12-.2Z"/><path class="cls-13" d="M157.98,175.59c.24-.08.48-.17.72-.26-.24.09-.48.17-.72.26Z"/><path class="cls-13" d="M155.52,176.44c.22-.07.44-.15.67-.22-.22.07-.45.15-.67.22Z"/><path class="cls-13" d="M169.63,177.58s0,0,0,0c-3.27-1.01-5.85-2.03-7.26-2.63,1.41.6,3.97,1.62,7.25,2.63Z"/><path class="cls-13" d="M162.36,174.94c-.76-.33-1.18-.52-1.18-.52-.01,0-.02,0-.03.01.01,0,.02,0,.03-.01,0,0,.42.2,1.18.52Z"/><path class="cls-13" d="M153.24,177.15c-.1.03-.19.05-.28.08,0,0,0,0,0,0,.09-.03.19-.05.28-.08Z"/><path class="cls-13" d="M161.64,178.69c.13,0,.24.07.31.18.18.31.39.67.61,1.05,2.63-.17,5.16-.96,7.08-2.34-3.28-1.01-5.85-2.03-7.25-2.63,0,0-.01,0-.02,0-.76-.32-1.18-.52-1.18-.52-.01,0-.02,0-.03.01-.83.32-1.64.62-2.44.91-.24.09-.48.17-.72.26-.6.21-1.2.42-1.79.62-.22.07-.45.15-.67.22-.77.25-1.53.49-2.28.72-.09.03-.19.05-.28.08,2.13,1.67,4.92,2.56,7.75,2.7.23-.39.44-.76.62-1.06.06-.11.18-.18.31-.18Z"/><path class="cls-13" d="M161.64,179.76c.04.06.08.13.12.2.1,0,.19,0,.29,0-.16-.27-.31-.53-.45-.78-.14.24-.29.5-.45.77.13,0,.25,0,.38,0,.04-.06.08-.13.11-.19Z"/><path class="cls-13" d="M161.59,179.18c.14.24.29.51.45.78.17,0,.34-.02.51-.03-.22-.37-.43-.73-.61-1.05-.06-.11-.18-.18-.31-.18s-.24.07-.31.18c-.18.31-.39.68-.62,1.06.15,0,.29,0,.44,0,.16-.27.31-.53.45-.77Z"/><path class="cls-1" d="M132.12,144.02c3.79-.51,15.93-3.29,19.47-7.08,3.54-3.79,4.19-14.98-10.11-11.88-9.36,2.02-18.21,8.85-18.21,14.41s5.06,5.06,8.85,4.55Z"/><path class="cls-1" d="M190.9,143.51c3.79.51,8.85,1.01,8.85-4.55s-8.85-12.39-18.21-14.41c-14.3-3.09-13.65,8.09-10.11,11.88,3.54,3.79,15.68,6.57,19.47,7.08Z"/><path class="cls-1" d="M167.02,248.62c2.16,4.07,3.82,8.39,4.94,12.87.05.19-.07.38-.26.43-.03,0-.06.01-.09.01-.16,0-.3-.11-.34-.27-1.13-4.54-2.84-8.92-5.05-13.04h-3.34l1.01,14.29c.01.2-.13.37-.33.38,0,0-.02,0-.03,0-.18,0-.34-.14-.35-.33l-1.02-14.34h-3.06c-2.3,4.59-3.99,8.59-5.15,13.58-.04.16-.18.27-.34.27-.03,0-.05,0-.08,0-.19-.04-.31-.23-.26-.43,1.15-4.94,2.8-8.91,5.05-13.41h-2.69c-.29,0-.56-.09-.78-.24-.69.93-6.7,9.14-6.22,11.84.51,2.87,9.1,3.54,13.65,3.62,4.38.08,12.39-1.01,12.36-3.93-.01-1.55-5.08-10.13-5.94-11.59-.23.18-.52.29-.84.29h-.83Z"/><path class="cls-3" d="M153.26,262.03c-.04.19.07.38.26.43.03,0,.05,0,.08,0,.16,0,.31-.11.34-.27,1.16-4.99,2.85-8.98,5.15-13.58h-.79c-2.25,4.51-3.9,8.48-5.05,13.41Z"/><path class="cls-3" d="M163.18,262.96c.01.19.17.33.35.33,0,0,.02,0,.03,0,.2-.01.34-.18.33-.38l-1.01-14.29h-.71l1.02,14.34Z"/><path class="cls-3" d="M171.27,261.66c.04.16.18.27.34.27.03,0,.06,0,.09-.01.19-.05.31-.24.26-.43-1.12-4.47-2.78-8.79-4.94-12.87h-.81c2.22,4.12,3.92,8.5,5.05,13.04Z"/><path class="cls-11" d="M160.8,244.66c.03.07.04.12.03.19.03.07.07.15.1.22.03-.06.07-.12.1-.18,0-.08,0-.16,0-.23h-.23Z"/><path class="cls-11" d="M166.86,244.66c-.2.14-.4.29-.6.43-.06.04-.13.06-.2.06-.11,0-.22-.05-.29-.15-.07-.1-.08-.23-.03-.34h-3.78c-.07.14-.15.28-.22.41,0,.16,0,.32,0,.48,0,.2-.16.35-.35.35h0s-.09-.01-.13-.03c0,.13-.08.24-.2.3-.05.02-.1.03-.15.03-.13,0-.26-.08-.32-.2-.18-.39-.35-.78-.53-1.17-.06-.06-.12-.12-.18-.18h-3.67c.25.2.49.42.74.62.15.12.18.35.05.5-.07.09-.17.13-.28.13-.08,0-.16-.03-.22-.08-.47-.38-.94-.78-1.41-1.17h-.25s-.08-.04-.23-.13c-.22.25-.36.57-.36.92v1.78c0,.48.24.89.6,1.14.04-.06.07-.09.07-.09l3.59-.04c.17-.33.33-.66.5-.99.09-.17.3-.24.48-.15.17.09.24.3.15.48-.11.22-.22.44-.33.66l2.85-.04c.03-.16.15-.28.32-.3.18-.03.33.11.37.29l3.12-.04c-.05-.09-.09-.18-.14-.27-.09-.17-.03-.39.14-.48.17-.1.39-.03.48.14.11.2.21.4.32.6l1.81-.02s.05.08.13.21c.33-.25.55-.65.55-1.1v-1.78c0-.49-.25-.92-.64-1.16-.21.12-.41.24-.63.37h-1.11Z"/><path class="cls-11" d="M160.64,244.43s.07.07.11.11c.03.03.03.08.05.12h.23c0-.2,0-.39,0-.59h-.56c.06.12.11.24.16.36Z"/><path class="cls-11" d="M167.69,244.07c-.28.2-.55.39-.83.59h1.11c.21-.12.42-.24.63-.37-.22-.14-.47-.22-.75-.22h-.16Z"/><path class="cls-11" d="M155.08,244.66c-.11-.09-.22-.18-.33-.27-.06.05-.11.09-.16.15.15.08.23.13.23.13h.25Z"/><path class="cls-11" d="M166.47,244.07h-2.76c-.14.15-.28.31-.42.46-.07.07-.16.11-.26.11-.09,0-.17-.03-.24-.1-.14-.13-.14-.34-.02-.48h-.49c-.11.2-.21.39-.32.59h3.78c.03-.06.06-.12.12-.16.21-.14.4-.29.61-.43Z"/><path class="cls-11" d="M155.62,244.07s-.09,0-.13.01c.23.19.46.39.69.58h3.67c-.2-.19-.39-.4-.59-.59h-3.65Z"/><path class="cls-11" d="M156.48,245.83c.07.05.14.08.22.08.1,0,.21-.04.28-.13.12-.15.1-.38-.05-.5-.25-.2-.49-.41-.74-.62h-1.11c.47.39.93.79,1.41,1.17Z"/><path class="cls-11" d="M154.75,244.38c.11.09.22.18.33.27h1.11c-.23-.19-.46-.38-.69-.58-.28.03-.54.14-.74.3Z"/><path class="cls-11" d="M159.86,244.66c.06.06.12.12.18.18-.03-.06-.05-.12-.08-.18h-.1Z"/><path class="cls-11" d="M160.8,244.66h-.06c.03.06.06.13.09.19.01-.07,0-.13-.03-.19Z"/><path class="cls-11" d="M159.69,244.07h-.43c.2.2.39.4.59.59h.1c-.09-.2-.18-.39-.27-.59Z"/><path class="cls-11" d="M160.75,244.54s-.07-.07-.11-.11c.04.08.07.15.1.23h.06s-.02-.09-.05-.12Z"/><path class="cls-11" d="M165.77,244.99c.07.1.18.15.29.15.07,0,.14-.02.2-.06.2-.14.4-.29.6-.43h-1.12c-.05.11-.04.23.03.34Z"/><path class="cls-11" d="M165.86,244.5c-.06.04-.09.1-.12.16h1.12c.28-.2.55-.39.83-.59h-1.22c-.2.14-.4.29-.61.43Z"/><path class="cls-11" d="M162.78,244.55c.07.06.16.1.24.1.09,0,.19-.04.26-.11.14-.15.28-.31.42-.46h-.95c-.12.14-.11.35.02.48Z"/><path class="cls-11" d="M161.05,245.69s-.03,0-.05-.01c-.17-.09-.23-.31-.14-.48.02-.04.04-.08.07-.12-.03-.07-.07-.15-.1-.22-.01.07-.02.14-.07.19-.07.07-.16.11-.26.11s-.18-.03-.25-.1c-.07-.07-.14-.14-.21-.21.18.39.35.78.53,1.17.06.13.19.2.32.2.05,0,.1-.01.15-.03.12-.06.19-.18.2-.3-.09-.04-.15-.1-.19-.19Z"/><path class="cls-11" d="M160.27,244.07c.12.12.24.24.36.36-.06-.12-.11-.24-.16-.36h-.2Z"/><path class="cls-11" d="M160.5,245.15c.09,0,.19-.04.26-.11.05-.05.06-.12.07-.19-.03-.06-.06-.13-.09-.19h-.78c.03.06.05.12.08.18.07.07.14.14.21.21.07.07.16.1.25.1Z"/><path class="cls-11" d="M160.27,244.07h-.58c.09.2.18.39.27.59h.78c-.04-.08-.07-.15-.1-.23-.12-.12-.24-.24-.36-.36Z"/><path class="cls-11" d="M161.02,245.29c0-.13,0-.27,0-.4-.03.06-.07.12-.1.18.03.07.06.14.1.21Z"/><path class="cls-11" d="M161.74,245.07c.07-.14.15-.28.22-.41h-.22c0,.14,0,.28,0,.41Z"/><path class="cls-11" d="M161.74,244.07c0,.2,0,.39,0,.59h.22c.11-.2.21-.39.32-.59h-.53Z"/><path class="cls-11" d="M160.86,245.2c-.09.17-.03.39.14.48.02,0,.03,0,.05.01-.02-.04-.03-.09-.03-.14,0-.09,0-.18,0-.26-.03-.07-.06-.14-.1-.21-.02.04-.04.08-.07.12Z"/><path class="cls-11" d="M161.03,244.89c.04-.08.08-.16.13-.23h-.12c0,.08,0,.16,0,.23Z"/><path class="cls-11" d="M161.21,245.71c.02.05.03.11.03.17.04.02.09.03.13.03h0c.2,0,.35-.16.35-.35,0-.16,0-.32,0-.48-.08.16-.17.31-.25.47-.06.1-.16.16-.27.17Z"/><path class="cls-11" d="M161.03,244.07c0,.2,0,.39,0,.59h.12c.11-.2.21-.39.32-.59h-.44Z"/><path class="cls-11" d="M161.21,245.71s-.03.01-.04.01c-.04,0-.08-.02-.12-.03.04.08.1.15.19.19,0-.06,0-.11-.03-.17Z"/><path class="cls-11" d="M161.15,244.66c-.04.08-.08.16-.13.23,0,.13,0,.27,0,.4.07.14.12.28.19.42,0,0,0,0,0,0,.11-.01.21-.07.27-.17.09-.16.17-.31.25-.47,0-.14,0-.28,0-.41h-.59Z"/><path class="cls-11" d="M161.15,244.66h.59c0-.2,0-.39,0-.59h-.27c-.11.2-.21.39-.32.59Z"/><path class="cls-11" d="M161.05,245.69s.08.03.12.03c.01,0,.03,0,.04-.01,0,0,0,0,0,0-.07-.14-.12-.28-.19-.42,0,.09,0,.18,0,.26,0,.05.01.1.03.14Z"/><path class="cls-11" d="M166.76,248.14c.09.16.17.32.26.48h.83c.32,0,.61-.11.84-.29-.08-.14-.13-.21-.13-.21l-1.81.02Z"/><path class="cls-11" d="M162.87,248.62h3.34c-.08-.16-.17-.32-.25-.47l-3.12.04s.01.03.01.04l.03.39Z"/><path class="cls-11" d="M158.31,248.62c.06-.13.13-.25.19-.38l-3.59.04s-.03.04-.07.09c.22.15.49.24.78.24h2.69Z"/><path class="cls-11" d="M162.16,248.62l-.02-.34s0-.06.01-.08l-2.85.04c-.07.13-.13.26-.2.39h3.06Z"/><path class="cls-11" d="M159.63,247.57c.09-.17.02-.39-.15-.48-.18-.09-.39-.02-.48.15-.17.34-.33.66-.5.99h.8c.11-.23.22-.45.33-.67Z"/><path class="cls-11" d="M159.11,248.62c.07-.13.13-.26.2-.39h-.8c-.06.14-.13.27-.19.39h.79Z"/><path class="cls-11" d="M162.47,247.9c-.17.01-.29.14-.32.3h.68c-.03-.18-.19-.32-.37-.3Z"/><path class="cls-11" d="M162.16,248.62h.71l-.03-.39s0-.03-.01-.04h-.68s-.01.06-.01.09l.02.34Z"/><path class="cls-11" d="M166.44,247.53c-.09-.17-.31-.23-.48-.14-.17.09-.23.31-.14.48.05.09.09.18.14.27h.8c-.11-.21-.21-.41-.32-.61Z"/><path class="cls-11" d="M167.02,248.62c-.09-.16-.17-.32-.26-.48h-.8c.09.17.17.33.25.48h.81Z"/><path class="cls-12" d="M63.2,164.67s-.18,2.9.82,7.3c1.62-1.5,2.73-4.06-.32-8.51-.05.15-.18.26-.35.28-4.54.57-13.1,1.31-19.47,0-.23-.05-.38-.27-.33-.51.05-.23.28-.38.51-.33,6.24,1.29,14.7.55,19.19,0,.21-.03.4.11.46.31.72-.66,4.56-4.66-1.02-10.28,0,0,3.87-5.44,1.06-8.25.04.38.09.76.15,1.1,0,0-13.58,5.76-12.93,3.95.24-.66.67-3.71,1.12-7.32v-.13c-5.2-.11-10.37.47-12.9,1.51-3.32,1.36-3.65,5.34-3.51,7.59.14,2.24-2.09,6.27-1.16,9.28.94,3.01,1.71,3.23.9,4.95-.99,2.11-.31,6.36.3,7.96.46,1.21-1.34,4.73.6,7.22.06-8.78,1.58-14.75,1.58-14.75l25.29-1.35ZM42.99,152.6c.06-.23.29-.37.52-.31,6.1,1.58,12.55.91,18.63.09.24-.03.45.13.48.37,0,.01,0,.02,0,.03.01.22-.15.42-.37.45-6.16.83-12.71,1.51-18.96-.11-.23-.06-.37-.3-.31-.52Z"/><path class="cls-12" d="M37.1,181.54c3.15,2.46,18.88,3.1,22.96.59,4.08-2.51,1.77-7.48.98-8.04-.37-.27,1.51-.77,2.98-2.12-1-4.4-.82-7.3-.82-7.3l-25.29,1.35s-1.52,5.97-1.58,14.75c.21.27.46.53.76.78ZM44.12,173.72c.05-.23.28-.38.51-.33,6.04,1.3,9.61,1.1,15.8.11.23-.04.45.12.49.36,0,.01,0,.03,0,.04.01.22-.14.42-.36.45-6.19.98-9.98,1.2-16.12-.12-.23-.05-.38-.28-.33-.51Z"/><path class="cls-5" d="M44.45,174.23c6.14,1.32,9.93,1.1,16.12.12.22-.04.37-.23.36-.45,0-.01,0-.03,0-.04-.04-.23-.26-.39-.49-.36-6.2.99-9.76,1.19-15.8-.11-.23-.05-.46.1-.51.33-.05.23.1.46.33.51Z"/><path class="cls-5" d="M63.71,163.46c.02-.05.03-.11.03-.17,0,0,0-.02,0-.03,0-.02-.02-.04-.02-.06-.07.06-.11.1-.11.1.04.06.07.11.11.16Z"/><path class="cls-5" d="M63.25,162.89c-4.49.56-12.94,1.3-19.19,0-.23-.05-.46.1-.51.33-.04.24.1.46.33.51,6.36,1.32,14.93.57,19.47,0,.17-.02.3-.13.35-.28-.04-.06-.07-.11-.11-.16,0,0,.04-.03.11-.1-.06-.2-.25-.34-.46-.31Z"/><path class="cls-5" d="M43.3,153.13c6.25,1.62,12.8.94,18.96.11.22-.03.38-.23.37-.45,0-.01,0-.02,0-.03-.03-.23-.25-.4-.48-.37-6.08.82-12.53,1.49-18.63-.09-.23-.06-.46.08-.52.31-.06.23.08.46.31.52Z"/><path class="cls-14" d="M124.09,175.35c5.36,3.09,11.62,2.27,14-1.85,2.37-4.11-.04-9.95-5.4-13.05s-11.62-2.27-14,1.85c-2.37,4.11.04,9.95,5.4,13.05Z"/><path class="cls-14" d="M190.34,160.46c-5.36,3.09-7.77,8.93-5.4,13.05,2.37,4.11,8.64,4.94,14,1.85,5.36-3.09,7.77-8.93,5.4-13.05-2.37-4.11-8.64-4.94-14-1.85Z"/><path class="cls-4" d="M201.62,84.74c.18-.35.05-.78-.29-.96-.15-.08-.3-.15-.46-.23.22.42.46.83.7,1.24.01-.02.03-.03.05-.05Z"/><path class="cls-4" d="M169.56,76.95c-.39.02-.69.36-.66.75.02.39.32.69.75.66,10.76-.69,21.49,1.62,31.01,6.67.11.06.22.08.33.08.23,0,.45-.13.58-.33-.25-.41-.48-.82-.7-1.24-9.64-5.01-20.46-7.29-31.31-6.6Z"/><path class="cls-4" d="M113.96,112.74c.2,0,.4-.08.54-.25,6.74-7.85,16.46-13.38,26.65-15.18.39-.07.64-.44.58-.82-.07-.39-.45-.64-.82-.58-10.66,1.88-20.42,7.43-27.48,15.65-.26.3-.22.74.07,1,.13.11.3.17.46.17Z"/><path class="cls-4" d="M105.13,126.11c.08.03.16.04.25.04.29,0,.56-.18.67-.46,1.08-2.93,2.57-5.67,4.45-8.16.24-.31.17-.76-.14-.99-.31-.24-.76-.17-.99.14-1.97,2.6-3.53,5.47-4.66,8.53-.13.37.05.78.42.91Z"/><path class="cls-13" d="M164.37,183.91c-.86-.33-1.83-.52-2.86-.52-.91,0-1.77.14-2.55.4-1.04,1.35-2.32,2.74-3.87,4.02-.02.17-.04.34-.04.51,0,2.73,2.89,4.94,6.46,4.94s6.46-2.21,6.46-4.94c0-.23-.03-.45-.07-.67-1.4-1.19-2.56-2.49-3.53-3.76Z"/><path class="cls-13" d="M157.5,184.46c-.88.53-1.57,1.24-1.99,2.05.73-.67,1.39-1.36,1.99-2.05Z"/><path class="cls-13" d="M167.26,186.1c-.32-.48-.73-.91-1.23-1.29.38.43.79.86,1.23,1.29Z"/><path class="cls-13" d="M164.9,184.13c-.17-.08-.35-.16-.53-.23.97,1.26,2.13,2.56,3.53,3.76-.03-.18-.08-.35-.13-.52-1.1-.96-2.04-1.99-2.87-3.01Z"/><path class="cls-13" d="M158.96,183.79c-.19.06-.38.14-.57.21-.9,1.13-1.97,2.27-3.21,3.33-.04.16-.07.32-.1.48,1.55-1.28,2.83-2.68,3.87-4.02Z"/><path class="cls-13" d="M167.77,187.14c-.12-.37-.29-.71-.51-1.04-.43-.42-.85-.85-1.23-1.29-.34-.26-.72-.48-1.13-.68.82,1.02,1.77,2.05,2.87,3.01Z"/><path class="cls-13" d="M158.39,184.01c-.31.13-.61.29-.89.46-.6.69-1.26,1.38-1.99,2.05-.14.26-.25.54-.32.82,1.24-1.06,2.3-2.2,3.21-3.33Z"/><path class="cls-12" d="M64.37,128.04c.54-5.18-9.34-7.89-10.64,0,0,0-.8,7.5-1.57,13.71,1.15.05,9.21.44,11.51,2.18-.33-4.05.08-9.75.69-15.89Z"/><path class="cls-12" d="M63.75,144.67c0-.07-.02-.14-.02-.22l-.11.1s.09.08.13.12Z"/><path class="cls-12" d="M63.62,144.54l-.38.33c-1.12-1.27-7.45-1.98-11.17-2.12v-.35c-.44,3.61-.87,6.66-1.11,7.32-.65,1.81,12.93-3.95,12.93-3.95-.06-.35-.11-.72-.15-1.1-.04-.04-.09-.08-.13-.12Z"/><path class="cls-5" d="M64,144.21c-.09-.1-.2-.19-.32-.28.01.18.03.35.05.52l.27-.24Z"/><path class="cls-5" d="M52.17,141.75s-.04,0-.06,0l-.02.52s0,0,.01,0c.02-.17.04-.34.06-.52Z"/><path class="cls-5" d="M52.1,142.27s0,0-.01,0v.13s0-.09.01-.13Z"/><path class="cls-5" d="M61.34,143.39c1.01.27,1.75.67,2.28,1.15l.11-.1c-.02-.17-.03-.34-.05-.52-2.3-1.74-10.36-2.14-11.51-2.18-.02.17-.04.35-.06.52,3.29.07,6.59.42,9.24,1.13Z"/><path class="cls-5" d="M63.24,144.88l.38-.33c-.53-.48-1.27-.88-2.28-1.15-2.65-.7-5.95-1.05-9.24-1.13,0,.04-.01.09-.02.13v.35c3.71.15,10.03.85,11.16,2.12Z"/></g></svg>