<svg width="17" height="15" viewBox="0 0 17 15" fill="none" xmlns="http://www.w3.org/2000/svg">
<path d="M8.33333 15.2917L7.125 14.2083C5.72222 12.9444 4.5625 11.8542 3.64583 10.9375C2.72917 10.0208 2 9.19792 1.45833 8.46875C0.916667 7.73958 0.538194 7.06944 0.322917 6.45833C0.107639 5.84722 0 5.22222 0 4.58333C0 3.27778 0.4375 2.1875 1.3125 1.3125C2.1875 0.4375 3.27778 0 4.58333 0C5.30556 0 5.99306 0.152778 6.64583 0.458333C7.29861 0.763889 7.86111 1.19444 8.33333 1.75C8.80556 1.19444 9.36806 0.763889 10.0208 0.458333C10.6736 0.152778 11.3611 0 12.0833 0C13.3889 0 14.4792 0.4375 15.3542 1.3125C16.2292 2.1875 16.6667 3.27778 16.6667 4.58333C16.6667 5.22222 16.559 5.84722 16.3438 6.45833C16.1285 7.06944 15.75 7.73958 15.2083 8.46875C14.6667 9.19792 13.9375 10.0208 13.0208 10.9375C12.1042 11.8542 10.9444 12.9444 9.54167 14.2083L8.33333 15.2917Z" fill="#B24D46"/>
</svg>
