<svg width="39" height="39" viewBox="0 0 39 39" fill="none" xmlns="http://www.w3.org/2000/svg">
<circle cx="19.5" cy="19.5" r="19.5" fill="#D9D9D9"/>
<mask id="mask0_2183_3519" style="mask-type:alpha" maskUnits="userSpaceOnUse" x="7" y="6" width="28" height="27">
<rect x="7.80005" y="6" width="27" height="27" fill="#D9D9D9"/>
</mask>
<g mask="url(#mask0_2183_3519)">
<path d="M29.175 13.875V11.625H26.925V9.375H29.175V7.125H31.425V9.375H33.675V11.625H31.425V13.875H29.175ZM20.175 25.6875C21.5813 25.6875 22.7766 25.1953 23.761 24.2109C24.7454 23.2266 25.2375 22.0312 25.2375 20.625C25.2375 19.2188 24.7454 18.0234 23.761 17.0391C22.7766 16.0547 21.5813 15.5625 20.175 15.5625C18.7688 15.5625 17.5735 16.0547 16.5891 17.0391C15.6047 18.0234 15.1125 19.2188 15.1125 20.625C15.1125 22.0312 15.6047 23.2266 16.5891 24.2109C17.5735 25.1953 18.7688 25.6875 20.175 25.6875ZM20.175 23.4375C19.3875 23.4375 18.7219 23.1656 18.1782 22.6219C17.6344 22.0781 17.3625 21.4125 17.3625 20.625C17.3625 19.8375 17.6344 19.1719 18.1782 18.6281C18.7219 18.0844 19.3875 17.8125 20.175 17.8125C20.9625 17.8125 21.6282 18.0844 22.1719 18.6281C22.7157 19.1719 22.9875 19.8375 22.9875 20.625C22.9875 21.4125 22.7157 22.0781 22.1719 22.6219C21.6282 23.1656 20.9625 23.4375 20.175 23.4375ZM11.175 29.625C10.5563 29.625 10.0266 29.4047 9.58599 28.9641C9.14536 28.5234 8.92505 27.9937 8.92505 27.375V13.875C8.92505 13.2562 9.14536 12.7266 9.58599 12.2859C10.0266 11.8453 10.5563 11.625 11.175 11.625H14.7188L16.8 9.375H24.675V13.875H26.925V16.125H31.425V27.375C31.425 27.9937 31.2047 28.5234 30.7641 28.9641C30.3235 29.4047 29.7938 29.625 29.175 29.625H11.175Z" fill="#6A6A6A"/>
</g>
</svg>
