<?xml version="1.0" encoding="UTF-8"?><svg id="Layer_2" xmlns="http://www.w3.org/2000/svg" viewBox="0 0 155.94 140.01"><defs><style>.cls-1{fill:#585375;}.cls-1,.cls-2,.cls-3,.cls-4,.cls-5,.cls-6,.cls-7,.cls-8,.cls-9,.cls-10,.cls-11,.cls-12,.cls-13,.cls-14,.cls-15,.cls-16,.cls-17,.cls-18,.cls-19,.cls-20,.cls-21,.cls-22,.cls-23,.cls-24,.cls-25,.cls-26,.cls-27,.cls-28{stroke-width:0px;}.cls-2{fill:#397f77;}.cls-3{fill:#f6f2f3;}.cls-4{fill:#7c96a0;}.cls-5{fill:#729e9d;}.cls-6{fill:#97b7c7;}.cls-7{fill:#ff6b4f;}.cls-8{fill:#e0949d;}.cls-9{fill:#7a9fa5;}.cls-10{fill:#6eb8c4;}.cls-11{fill:#92d5ea;}.cls-12{fill:#99bcc4;}.cls-13{fill:#b24d46;}.cls-14{fill:#dadde8;}.cls-15{fill:#d6eae7;}.cls-16{fill:#38302e;}.cls-17{fill:#feab86;}.cls-18{fill:#b4ccca;}.cls-19{fill:#f48078;}.cls-20{fill:#821b19;}.cls-21{fill:#f9956e;}.cls-22{fill:#ffccd1;}.cls-23{fill:#ffcbb6;}.cls-24{fill:#2e6862;}.cls-25{fill:#93716f;}.cls-26{fill:#fff;}.cls-27{fill:#ccced6;}.cls-28{fill:#9e959a;}</style></defs><path class="cls-13" d="M28.62,77.77c0,.21,2.98,11.3,2.98,11.3l12.55.14s.21-8.39.07-9.57l-15.6-1.87Z"/><path class="cls-1" d="M31.14,87.41s7.54,1.94,13.08.62c0,0,.07,15.19-.42,15.88-.49.69-19.37,2.29-21.04.37-1.06-1.23.74-5.87,4.9-6.84,4.16-.97,5.73-.28,5.73-.28,0,0-1.66-5.96-2.27-9.76Z"/><path class="cls-13" d="M63.18,77.77c0,.21-2.98,11.3-2.98,11.3l-12.55.14s-.21-8.39-.07-9.57l15.6-1.87Z"/><path class="cls-1" d="M60.66,87.41s-7.54,1.94-13.08.62c0,0-.07,15.19.42,15.88.49.69,19.37,2.29,21.04.37,1.06-1.23-.74-5.87-4.9-6.84-4.16-.97-5.73-.28-5.73-.28,0,0,1.66-5.96,2.27-9.76Z"/><path class="cls-6" d="M33.27,41.36s-10.63,19.33-9.06,35.23c1.57,4.25,18.59,5.46,23.21,5.27,4.62-.18,18.77-2.64,19.97-5.36,1.02-2.31-2.7-26.03-9.36-35.56l-24.76.42Z"/><path class="cls-6" d="M32.9,41.99s-3.63.47-7.12,5.39c-3.49,4.92-11.84,4.94-14.1,3.92l-2.3,5.63s10.53,5.99,19.08-.16l4.44-14.78Z"/><path class="cls-6" d="M58.43,41.27s3.65.27,7.4,4.99c3.75,4.72,12.45,4.36,13.99,3.09l2.91,5.55s-10.19,6.56-19.06.89l-5.24-14.51Z"/><path class="cls-4" d="M81.29,55.81c.57.23,2.92-.32,2.93-.78.01-.88-1.94-4.77-2.37-6.46-.08-.3-1.69.23-2.18.59-1.38,1.02-.22,5.92,1.63,6.66Z"/><path class="cls-1" d="M26.22,58.91c4.93,1.04,8.14,2.77,20.02,2.64,13.07-.15,15.59-2,18.45-3.84.32-.21.86.42,1.41,2.64.55,2.22.44,2.84-.02,3.21-.32.25-8.74,5.2-19.7,4.65-10.96-.55-20.96-3.29-21.57-3.61-.44-.23-.18-1.64.02-2.68.21-1.04.95-3.1,1.39-3.01Z"/><path class="cls-4" d="M11.4,57.86c-.41.46-2.19-.26-2.41-.67-.93-1.71,1.02-5.32,2.4-6.45.24-.2,2.01.01,2.18.6.8,2.75-1.71,6-2.18,6.51Z"/><ellipse class="cls-17" cx="45.75" cy="31.93" rx="15.97" ry="15.54"/><path class="cls-21" d="M45.51,26.74c-1.5.03-3.06,7.99-2.46,8.65,1.35,1.47,4.42,1.35,5.52-.06.53-.68-1.14-8.62-3.06-8.58Z"/><path class="cls-20" d="M37.83,28.32c-.07,0-.13-.04-.17-.1-.05-.09-.02-.21.07-.27,1.21-.68,2.58-1.08,3.97-1.17.1,0,.2.08.21.18,0,.11-.08.2-.18.21-1.33.08-2.64.47-3.8,1.12-.03.02-.06.02-.1.02Z"/><path class="cls-20" d="M53.78,28.27s-.06,0-.1-.02c-1.16-.65-2.47-1.04-3.8-1.12-.11,0-.19-.1-.18-.21,0-.11.1-.19.21-.18,1.39.08,2.76.49,3.97,1.17.09.05.13.17.07.27-.04.06-.1.1-.17.1Z"/><path class="cls-23" d="M37.84,32.46c1.47.85,2.13,2.45,1.48,3.58-.65,1.13-2.37,1.35-3.84.51-1.47-.85-2.13-2.45-1.48-3.58.65-1.13,2.37-1.35,3.84-.51Z"/><path class="cls-23" d="M53.66,32.46c-1.47.85-2.13,2.45-1.48,3.58.65,1.13,2.37,1.35,3.84.51,1.47-.85,2.13-2.45,1.48-3.58-.65-1.13-2.37-1.35-3.84-.51Z"/><path class="cls-20" d="M45.92,40.55c-2.67,0-4.84-1.02-4.84-2.28,0-.11.16-.19.36-.19s.36.09.36.19c0,1.04,1.84,1.89,4.11,1.89s4.11-.85,4.11-1.89c0-.11.16-.19.36-.19s.36.09.36.19c0,1.25-2.17,2.28-4.84,2.28Z"/><path class="cls-28" d="M32.64,22.7s-2.57,4.85-.69,7.14c0,0-1.04,3.95.69,5.06,0,0,0,4.44,3.26,4.37,0,0,.76,2.77,4.3,2.7,0,0,1.46,2.7,5.13,1.66,0,0,3.26,1.46,5.83-1.04,0,0,3.05.42,4.09-2.91,0,0,2.84-.35,3.54-3.68,0,0,2.15-1.18,1.32-4.79,0,0,.42-4.99-1.46-8.6,0,0,3.17,2.06,3.38,5.04,0,0,1.9,3.98-.18,6.54,0,0,1.53,2.08-.55,4.23,0,0,1.46,3.88-2.15,4.92,0,0,.14,4.37-2.57,4.3,0,0-.28,3.61-3.88,2.84,0,0-1.8,3.05-5.55.69,0,0-2.29,3.19-5.69.14,0,0-3.47.62-4.37-2.77,0,0-4.3-.14-3.81-3.88,0,0-2.7-1.18-1.73-3.95,0,0-3.81-1.6-2.22-5.96,0,0-1.87-5.13.62-7.84,0,0,1.11-3.61,2.7-4.23Z"/><path class="cls-28" d="M31.94,29.84s-.28-4.1,3.43-7.67c4.47-4.31,16.98-4.5,20.62-.46,3.09,3.42,3.79,5.46,4.11,7.21,0,0,1.06-.6,1.11-1.06.05-.46-3.05-14.15-17.52-11.33-14.47,2.82-13.41,11.88-12.76,12.67.65.79,1.01.64,1.01.64Z"/><path class="cls-2" d="M28.69,29.8s-5.13-2.87,4.39-18.12c0,0-2.59.07-5.22,1.8-2.64,1.73-3.88,2.64-4.3,1.46-.42-1.18,4.85-8.95,7.7-11.37,2.84-2.43,8.05-4.58,16.92-3.05,8.88,1.53,11.26,11.66,12.76,14.98,1.64,3.63,3.12,11.51,1.8,14.49,0,0-3.79-13.57-18.7-12.39-11.37.9-15.35,12.21-15.35,12.21Z"/><path class="cls-4" d="M26.37,58.34s-.02,0-.03,0c-.11-.01-.18-.11-.17-.22.29-2.15,1.1-4.22,2.34-5.99.06-.09.18-.11.27-.05.09.06.11.18.05.27-1.21,1.72-2,3.73-2.28,5.82-.01.1-.1.17-.19.17Z"/><path class="cls-4" d="M64.34,56.53c-.09,0-.16-.06-.19-.14-.45-1.62-1.16-3.14-2.13-4.51-.06-.09-.04-.21.05-.27.09-.06.21-.04.27.05.99,1.41,1.73,2.97,2.19,4.63.03.1-.03.21-.14.24-.02,0-.03,0-.05,0Z"/><path class="cls-4" d="M39.46,79.45h0c-4.37-.05-8.81-.96-12.85-2.64-.1-.04-.15-.16-.1-.25.04-.1.16-.15.25-.1,3.99,1.66,8.38,2.56,12.7,2.61.11,0,.19.09.19.2,0,.11-.09.19-.19.19Z"/><path class="cls-4" d="M44.6,79.55c-.53,0-1.06-.03-1.58-.1-.11-.01-.18-.11-.17-.22.01-.11.11-.18.22-.17,1.46.19,2.93.11,4.37-.24.11-.03.21.04.24.14.03.1-.04.21-.14.24-.96.24-1.94.35-2.93.35Z"/><path class="cls-4" d="M19.67,53.34s-.01,0-.02,0c-.11-.01-.18-.11-.17-.21.06-.55-.06-1.13-.32-1.62-.05-.09-.02-.21.08-.26.09-.05.21-.02.26.08.3.56.43,1.21.37,1.85-.01.1-.09.17-.19.17Z"/><path class="cls-4" d="M68.98,52.65s-.03,0-.05,0c-.1-.03-.17-.13-.14-.24.29-1.19.91-2.28,1.79-3.14.08-.08.2-.07.28,0,.08.08.07.2,0,.28-.81.8-1.41,1.85-1.69,2.96-.02.09-.1.15-.19.15Z"/><path class="cls-4" d="M70.51,51.82s-.02,0-.03,0c-.11-.02-.18-.12-.16-.22.12-.73.48-1.41,1.02-1.92.08-.07.2-.07.28,0,.07.08.07.2,0,.28-.48.45-.8,1.05-.9,1.7-.02.1-.1.16-.19.16Z"/><path class="cls-24" d="M33.04,11.86s-.08-.01-.12-.04c-.08-.07-.1-.19-.03-.27,1.31-1.67,3.25-2.85,5.34-3.24.1-.02.21.05.23.16.02.11-.05.21-.16.23-1.99.37-3.85,1.5-5.1,3.09-.04.05-.1.07-.15.07Z"/><path class="cls-17" d="M11.86,51.86c-.11-.6-.46-1.28-1.2-2.18-.73-.9-1.53-2.53-2.23-3.14-.6-.52-1.31-.19-1.03.73.23.78,1.06,2.53.9,2.57-.1.03-.92-.62-1.88-1.51-.54-.5-1.32-1.33-1.62-1.62-.73-.71-1.76-.24-1.31.69.18.37.84,1.16,1.25,1.63.33.38,1.14,1.46,1.14,1.46,0,0-.92-.5-1.92-1.1-.92-.55-1.82-1.2-2.2-1.27-.61-.11-1.34.73-.29,1.59.44.36,1.01.76,1.54,1.14.81.6,1.52,1.14,1.52,1.14,0,0-.97-.18-1.99-.46-.84-.24-1.61-.56-2.05-.54-.62.03-.78.98.2,1.49.79.41,3.92,1.67,3.92,1.67,0,0-.6.02-1.28,0-.54-.01-1.1-.13-1.71-.07-.67.07-.67.9.05,1.17.63.23,1.93.32,3.27.63,1.63.37,4.16.67,4.68.41.6-.3,2.64-2.27,2.23-4.45Z"/><path class="cls-17" d="M85.46,46.59c.77.26.9,1.16.9,1.66s.56,1.39.39,2.08c-.17.69-.34.76-.13,1.13.25.46.16,1.43.05,1.8-.1.31.48,1.23-.19,1.83s-4.22.97-5.18.46c-.96-.51-.51-1.66-.34-1.8.17-.14-1.97-.37-.73-2.4,0,0-1.24-.88.06-2.36,0,0-1.35-1.66.17-2.17,1.52-.51,4.06-.55,5.01-.23Z"/><path class="cls-7" d="M82.45,53.88c-.42,0-.86-.03-1.38-.08-.05,0-.09-.05-.09-.11,0-.05.05-.09.11-.09,1.42.13,2.23.13,3.57-.25.05-.01.11.02.12.07.01.05-.02.11-.07.12-.87.25-1.53.34-2.26.34Z"/><path class="cls-7" d="M81.64,51.49c-.52,0-.99-.02-1.36-.04-.05,0-.09-.05-.09-.1,0-.05.05-.1.1-.09,1.02.06,2.95.11,4.34-.27.05-.01.11.02.12.07.01.05-.02.11-.07.12-.92.25-2.07.32-3.05.32Z"/><path class="cls-7" d="M82.02,49.13c-.55,0-1.1-.03-1.63-.07-.05,0-.09-.05-.09-.1,0-.05.05-.1.1-.09,1.39.1,2.85.16,4.21-.29.05-.02.11.01.12.06.02.05-.01.11-.06.12-.86.28-1.76.37-2.65.37Z"/><path class="cls-16" d="M35.21,99.67c-.07,0-.13-.04-.17-.1-.49-.88-1.12-1.66-1.89-2.31-.08-.07-.09-.19-.02-.27.07-.08.19-.09.27-.02.8.68,1.47,1.49,1.98,2.42.05.09.02.21-.08.26-.03.02-.06.02-.09.02Z"/><path class="cls-16" d="M56.99,98.7s-.08-.01-.11-.03c-.09-.06-.11-.18-.05-.27.43-.62.96-1.15,1.58-1.58.09-.06.21-.04.27.05.06.09.04.21-.05.27-.58.4-1.08.9-1.48,1.48-.04.05-.1.08-.16.08Z"/><path class="cls-3" d="M40.3,21.4c-2.22.32-4.81,2.5-3.93,3.65.95,1.25,5.04-.55,6.24-1.43,1.16-.85.09-2.57-2.31-2.22Z"/><path class="cls-3" d="M51.28,21.4c2.22.32,4.81,2.5,3.93,3.65-.95,1.25-5.04-.55-6.24-1.43-1.16-.85-.09-2.57,2.31-2.22Z"/><g id="desk"><path class="cls-27" d="M27.34,70.32l-.86,61.21c-.01.95-1.21,1.7-2.68,1.68h-.14c-1.46-.02-2.64-.81-2.62-1.76l.86-61.21c.01-.95,1.21-1.7,2.67-1.68h.14c1.46.02,2.64.81,2.63,1.76Z"/><path class="cls-27" d="M59.48,77.11l-.86,61.21c-.01.95-1.21,1.7-2.67,1.68h-.14c-1.46-.02-2.64-.81-2.62-1.76l.86-61.21c.01-.95,1.21-1.7,2.67-1.68h.14c1.46.02,2.64.81,2.62,1.76Z"/><path class="cls-27" d="M107.64,61.61l-.81,57.8c-.01.89-1.17,1.61-2.58,1.59h-.14c-1.41-.02-2.54-.77-2.53-1.66l.81-57.8c.01-.89,1.17-1.61,2.58-1.59h.14c1.41.02,2.55.77,2.54,1.66Z"/><path class="cls-27" d="M140,65.83l-.83,59.07c-.01.92-1.17,1.64-2.58,1.62h-.14c-1.41-.02-2.54-.78-2.53-1.7l.83-59.07c.01-.92,1.17-1.64,2.58-1.62h.14c1.41.02,2.54.78,2.53,1.7Z"/><path class="cls-27" d="M155.93,63.81l-9.23.05s-.84.98-1.69,1.97l-35.85-6.4-12.08-3.58L15.94,73.24h0s-.08-.66-.08-.66l-9.24-1.5-.8,5.14s0,0,0,0c-.03.16.04.34.21.4l58.35,17.3,1.83-.5,88.76-24.21c.1-.03.15-.13.15-.23h0s.81-5.17.81-5.17Z"/><path class="cls-27" d="M155.13,68.99h0c0,.1-.04.2-.15.23l-90.25,24.61,2.82-18.91,41.62-15.49,35.85,6.4c.86-.99,1.69-1.97,1.69-1.97l9.23-.05-.81,5.18Z"/><path class="cls-14" d="M65.2,88.68L6.84,71.37c-.3-.09-.28-.59.03-.68l90.57-19.98c.3-.07.61-.07.91,0l57.45,12.84c.19.06.17.37-.02.42l-90.59,24.71Z"/></g><g id="plate"><ellipse class="cls-12" cx="124.91" cy="66.72" rx="6.89" ry="1.03"/><path class="cls-9" d="M131.8,66.72c-1.13.35-2.29.41-4.61.52-4.42.22-6.63.33-9.17-.52-4.18-1.4-8.56-5.17-8.16-8.39.03-.27.09-.48.14-.62v.4c0-.33.48-.65,1.34-.93.84-.27,2.04-.52,3.51-.72,5.29-.1,13.13-.18,18.78-.16,2.09.23,3.77.53,4.85.89.58.19.98.39,1.19.61.03.06.05.11.08.17.01.09.02.15.04.22,0,.04.01.06.01.07.03.13-1.59,6.52-7.99,8.49Z"/><path class="cls-12" d="M139.82,58.1s0,.09-.03.13c-.14.36-.85.7-1.99.99-2.58.66-7.39,1.11-12.89,1.11s-10.53-.47-13.07-1.16c-1.18-.32-1.85-.68-1.85-1.08,0-.33.48-.65,1.34-.93.84-.27,2.04-.52,3.51-.72,2.65-.36,6.18-.59,10.06-.59,3.25,0,6.26.16,8.71.42,2.09.23,3.77.53,4.85.89.61.2,1.03.42,1.22.64.08.09.12.19.12.29Z"/><path class="cls-26" d="M137.91,58.98s0,.07-.02.11c-.02.05-.05.09-.09.13-2.58.66-7.39,1.11-12.89,1.11s-10.53-.47-13.07-1.16c-.04-.07-.07-.13-.07-.2,0-.29.42-.57,1.17-.82.74-.24,1.79-.46,3.08-.63,2.32-.32,5.42-.52,8.82-.52,2.85,0,5.49.14,7.64.37,1.83.2,3.3.46,4.26.77.53.18.9.36,1.07.57.07.08.1.16.1.25Z"/><path class="cls-25" d="M130.8,57.11h0c-.16-.27-.08-.62.19-.78l8.54-5.14c.27-.16.62-.08.78.19h0c.16.27.08.62-.19.78l-8.54,5.14c-.27.16-.62.08-.78-.19Z"/><path class="cls-9" d="M128.82,59.33c.18-.02.35-.03.53-.05.72-.59,1.4-1.23,2.05-1.9-.1.67-.5,1.28-.99,1.82.14,0,.28-.02.42-.03.45-.56.8-1.17.88-1.86,0-.09-.05-.13-.11-.14.05-.05.1-.1.15-.15.13-.14-.09-.35-.21-.2-.84.91-1.74,1.75-2.7,2.51Z"/><path class="cls-9" d="M130.63,56.77c-1.05.18-2.02.59-2.99,1.02-1.04.46-2.08.92-3.09,1.44-.16.08-.31.17-.47.25.18.02.35.04.53.05.03-.02.06-.03.09-.05,1.87-.95,3.93-2.08,6.01-2.43.19-.03.11-.32-.08-.29Z"/><path class="cls-9" d="M122.54,59.24c2.25-2.16,5.45-3.25,8.58-2.8.19.03.26-.26.07-.29-3.31-.48-6.67.69-9,3.01.12.03.23.05.35.07Z"/></g><g id="cake"><path class="cls-5" d="M115.01,70.85c0,2.57-15.05,7.9-32.12,7.9s-29.72-4.63-29.72-7.9,13.85-5.91,30.92-5.91,30.92,2.65,30.92,5.91Z"/><path class="cls-25" d="M111.05,70.85c0,2.24-12.07,5.15-26.96,5.15s-26.96-2.31-26.96-5.15,12.07-5.15,26.96-5.15,26.96,2.31,26.96,5.15Z"/><rect class="cls-25" x="57.13" y="65.7" width="53.92" height="5.15"/><path class="cls-26" d="M111.05,65.11c0,4.55-13.5,6.91-28.39,6.91s-25.53-1.69-25.53-6.91c0-2.85,12.07-5.15,26.96-5.15s26.96,2.31,26.96,5.15Z"/><ellipse class="cls-25" cx="84.67" cy="64.41" rx="21.36" ry="4.49"/><rect class="cls-25" x="63.31" y="52.38" width="42.72" height="12.03"/><path class="cls-26" d="M106.03,52.38c0,3.96-10.7,6.01-22.49,6.01s-20.22-1.47-20.22-6.01c0-2.48,9.56-4.49,21.36-4.49s21.36,2.01,21.36,4.49Z"/><ellipse class="cls-25" cx="84.09" cy="52.71" rx="15.05" ry="2.87"/><rect class="cls-25" x="69.04" y="45.02" width="30.1" height="7.69"/><ellipse class="cls-26" cx="84.09" cy="45.02" rx="15.05" ry="2.87"/><path class="cls-11" d="M66.85,61.47c-1.06,0-1.06,1.64,0,1.64s1.06-1.64,0-1.64Z"/><path class="cls-11" d="M73.26,62.73c-1.06,0-1.06,1.64,0,1.64s1.06-1.64,0-1.64Z"/><path class="cls-11" d="M81.67,63.25c-1.06,0-1.06,1.64,0,1.64s1.06-1.64,0-1.64Z"/><path class="cls-11" d="M90.84,63.12c-1.06,0-1.06,1.64,0,1.64s1.06-1.64,0-1.64Z"/><path class="cls-11" d="M99.55,61.91c-1.06,0-1.06,1.64,0,1.64s1.06-1.64,0-1.64Z"/><path class="cls-11" d="M105.71,59.55c-1.06,0-1.06,1.64,0,1.64s1.06-1.64,0-1.64Z"/><path class="cls-11" d="M62.99,60.07c-1.06,0-1.06,1.64,0,1.64s1.06-1.64,0-1.64Z"/><path class="cls-11" d="M73.26,48.69c-1.06,0-1.06,1.64,0,1.64s1.06-1.64,0-1.64Z"/><path class="cls-11" d="M80.42,49.53c-1.06,0-1.06,1.64,0,1.64s1.06-1.64,0-1.64Z"/><path class="cls-11" d="M89.65,49.66c-1.06,0-1.06,1.64,0,1.64s1.06-1.64,0-1.64Z"/><path class="cls-11" d="M97.13,48.69c-1.06,0-1.06,1.64,0,1.64s1.06-1.64,0-1.64Z"/><path class="cls-11" d="M68.84,47.78c-1.06,0-1.06,1.64,0,1.64s1.06-1.64,0-1.64Z"/><path class="cls-22" d="M77.94,53.01c-.27-.4-.93-.29-1.31-.15-.14.05-.27.12-.4.2.27-.59.36-1.13-.1-1.37-.41-.21-.88.24-1.12.53-.08.1-.14.2-.19.31-.06-.11-.14-.2-.31-.3-.12-.08-.29-.07-.41,0-.46.28-.55.8-.53,1.31,0,.08.01.16.02.24-.32-.18-.68-.3-1.03-.4-.22-.07-.44.08-.5.29-.55,1.64,1.76,1.83,2.54,2.66.15.16.34.15.48.06.15.01.3,0,.46-.03.26-.06.58-.17.86-.35.43-.1.82-.28,1.09-.6.31-.37.56-1.11-.02-1.36.05-.04.1-.07.15-.11.28-.23.57-.54.32-.92Z"/><path class="cls-22" d="M88.24,55.14c-.14-.17-.36-.28-.61-.34.28-.21.43-.47.32-.79-.27-.79-1.1-.4-1.79,0,.67-.66,1.29-1.49.35-1.81-.48-.16-.82.17-1.11.64-.26.07-.47.26-.62.56-.03-.13-.07-.26-.13-.38-.18-.39-.45-.7-.77-.99-.25-.22-.72-.09-.7.29.04.74.48,1.07.77,1.7,0,.01,0,.02.01.03-.63-.55-1.41-1.02-1.81-.29-.19.35-.09.7.13,1.02.02.04.05.07.08.1-.22.04-.43.13-.6.29-.1.1-.15.26-.11.4.23.79,1.33.8,2.15.53.03.03.05.05.09.08.63.4,1.09.07,1.81.04.13,0,.26-.08.34-.19.92.19,1.88.43,2.23-.39.08-.18.07-.34-.06-.5Z"/><path class="cls-22" d="M96.92,54.41c-.36-.16-.72-.29-1.09-.39.24-.15.47-.3.68-.5.24-.23.09-.58-.18-.69-.3-.11-.62-.08-.95,0,0-.02-.02-.04-.03-.05.16-.3.25-.61.11-.86-.23-.41-.72-.28-1.02-.06-.03.02-.06.05-.09.07-.05-.13-.1-.25-.19-.36-.02-.03-.06-.05-.09-.07-.27-.52-.69-.9-1.26-.75-.81.21-.59.86-.13,1.5-.61-.07-1.18.11-1.45.81-.05.14.02.29.11.4.25.3.75.41,1.28.44-.61.38-1.08.86-.56,1.37.35.35.85.25,1.32,0,.05.17.19.3.38.3,1.04-.03,2.05-.17,3.05-.42.32-.08.43-.6.1-.75Z"/><path class="cls-22" d="M101.61,49.87c-.53-.44-1.16-.18-1.73.27.08-.25.12-.5.07-.77-.04-.23-.31-.32-.5-.29-1.29.24-.91,1.65-1.36,2.51-.06.12-.06.24-.02.34-.12.17-.09.41.1.57.07.69.7,1.64,1.45,1.16.24-.15.33-.32.31-.5.3.07.58,0,.82-.37.4-.62-.13-.88-.73-1.04,1.1-.45,2.45-1.17,1.58-1.88Z"/><path class="cls-22" d="M70.46,52.5c-.08-.28-.04-.52-.26-.74-.03-.03-.07-.06-.11-.09-.13-.75-.71-1.49-1.56-1.34-1.08.19-.52,1.42.12,1.9-.22,0-.43,0-.64.06-.34.1-.76.36-.74.76.05.76.78.65,1.48.38-.05.06-.08.12-.1.16-.09.26-.16.6-.04.86.28.6,1.18.43,1.6.1.75-.6.45-1.28.24-2.04Z"/><path class="cls-8" d="M74.52,55.37c-.15-.59-.44-1.12-.86-1.58-.18-.2-.47.09-.29.29.36.4.61.87.75,1.4.07.26.46.15.4-.11Z"/><path class="cls-8" d="M74.9,53.15c.01-.26-.4-.26-.41,0-.02.48.01.95.08,1.42.04.26.43.15.4-.11-.06-.43-.08-.87-.06-1.31Z"/><path class="cls-8" d="M76.25,53.61c-.28.24-.56.48-.84.72-.21.18-.4.35-.41.64,0,.26.4.26.41,0,0-.2.38-.42.51-.54.21-.18.41-.36.62-.54.2-.17-.09-.46-.29-.29Z"/><path class="cls-8" d="M84.76,55.25c-.43-.1-.82-.31-1.14-.62-.19-.18-.48.11-.29.29.37.36.82.6,1.32.72.26.06.37-.33.11-.4Z"/><path class="cls-8" d="M86.23,53.7c-.3.45-.61.89-.96,1.31-.17.2.12.49.29.29.37-.45.71-.91,1.02-1.4.14-.22-.21-.43-.35-.21Z"/><path class="cls-8" d="M85.01,54.48c-.17-.35-.35-.69-.52-1.04-.12-.24-.47-.03-.35.21.17.35.35.69.52,1.04.12.24.47.03.35-.21Z"/><path class="cls-8" d="M94.33,54.3c-.39-.11-.78-.22-1.17-.33-.25-.07-.36.32-.11.4.39.11.78.22,1.17.33.25.07.36-.32.11-.4Z"/><path class="cls-8" d="M95.33,54.52c-.19-.68-.47-1.32-.83-1.93-.13-.23-.49-.02-.35.21.34.58.6,1.18.79,1.83.07.25.47.15.4-.11Z"/><path class="cls-8" d="M99.72,51.39c-.26.23-.47.5-.64.8-.13.23.23.44.35.21.15-.28.34-.51.58-.72.2-.18-.09-.46-.29-.29Z"/><path class="cls-8" d="M99.35,50.31c-.17.35-.35.69-.52,1.04-.12.24.24.44.35.21.17-.35.35-.69.52-1.04.12-.24-.24-.44-.35-.21Z"/><path class="cls-8" d="M69.8,53.18c-.2-.4-.52-.72-.91-.94-.23-.13-.44.23-.21.35.34.18.59.45.76.79.12.24.47.03.35-.21Z"/><path class="cls-22" d="M66.07,64.8c-.28-.15-.58-.15-.86-.27-.09-.04-.15-.1-.19-.16.08-.36.1-.71.08-.99-.06-.88-1.39-1.17-1.61-.22-.02.09-.04.18-.06.27-.02-.02-.03-.04-.04-.05-.23-.3-.47-.58-.73-.85-.53-.55-1.69.01-1.37.8.14.35.35.78.6,1.19-.96.16-.95,1.68.08,1.63.12,0,.24,0,.36,0,1.2.02,2.33.55,3.54.17.64-.2.85-1.16.2-1.5Z"/><path class="cls-22" d="M77.13,67.73c-.47.06-.94.12-1.41.16.48-.4.92-.83,1.23-1.15.61-.6-.02-1.53-.8-1.37-.57.12-1.35.61-1.98,1.24.02-.17.03-.34.05-.49.1-.92-1.42-1.12-1.61-.22-.06.28-.15.66-.2,1.06-.03-.06-.08-.12-.15-.18-.17-.23-.27-.47-.43-.71,0,0,0-.02-.01-.02,0,0,0,0,0,0-.04-.06-.08-.11-.12-.17-.66-.78-1.62.22-1.29.99.12.28.25.55.39.82-.14,0-.29,0-.43.01-.39.02-.66.24-.79.6,0,.03-.02.05-.03.08-.26.69.56,1.19,1.14.95.98,0,1.94.2,2.93.25.04,0,.09,0,.13,0,.98.52,2.85.07,3.61-.25.76-.31.79-1.74-.22-1.61Z"/><path class="cls-22" d="M89.58,67.84c-.31.02-.62.04-.93.07.02-.02.04-.04.06-.06.18-.15.37-.29.56-.43.85-.6.06-2-.83-1.42-.38.25-.75.55-1.08.89-.14-.51-.27-1.03-.41-1.54-.27-1.02-1.81-.59-1.58.44.11.51.22,1.02.34,1.53-.58-.29-1.17-.54-1.78-.63-.84-.13-1.54,1.05-.63,1.5.21.1.42.2.63.3-.28.43-.18,1.12.44,1.25.79.17,1.44.05,2.02-.21.03.02.06.03.09.05.26.13.52.12.74.02.71.18,1.73-.08,2.35-.12,1.05-.07,1.06-1.71,0-1.64Z"/><path class="cls-22" d="M99.65,66.3c-.64-.08-1.29-.17-1.93-.25-.14-.02-.26,0-.37.04-.09-.67-.28-1.32-.64-1.94-.48-.81-1.71-.27-1.5.63.11.45.26.97.36,1.49-.36-.1-.76-.16-1.13-.16-.51.01-.87.11-1.14.57-.29.51,0,1.03.5,1.19,0,.42.31.88.81.9,1.81.07,3.57-.22,5.27-.87.89-.34.7-1.49-.22-1.61Z"/><path class="cls-22" d="M107.21,62.14c-.86-.39-1.47.2-1.92.96,0,0,0-.01,0-.02-.32-1-1.9-.57-1.58.44.06.2.13.4.2.6-.1-.03-.2-.05-.29-.08-1.02-.33-1.42,1.23-.44,1.58.19.07.37.13.56.19-.31.63.51,1.33,1.2,1.03.07-.03.14-.06.21-.09.25-.11.38-.29.41-.48.08-.09.15-.18.21-.27.33-.06.66-.19.98-.39.34-.22.44-.63.34-.97.69-.85,1.29-1.96.12-2.48Z"/><path class="cls-8" d="M63.66,64.38c-.17-.27-.24-.57-.21-.89.02-.26-.39-.26-.41,0-.03.39.06.76.26,1.09.14.22.49.02.35-.21Z"/><path class="cls-8" d="M64.55,64.99c-.41.01-.79.18-1.08.48-.18.19.11.48.29.29.21-.22.48-.35.79-.36.26,0,.26-.42,0-.41Z"/><path class="cls-8" d="M63.15,65.02c-.26-.15-.52-.3-.78-.45-.23-.13-.44.22-.21.35.26.15.52.3.78.45.23.13.44-.22.21-.35Z"/><path class="cls-8" d="M73.37,67.87c-.16-.29-.37-.54-.62-.76-.2-.17-.49.12-.29.29.22.19.41.41.55.67.13.23.48.02.35-.21Z"/><path class="cls-8" d="M75.06,67.37c-.3.37-.61.74-.91,1.1-.17.2.12.49.29.29.3-.37.61-.74.91-1.1.17-.2-.12-.49-.29-.29Z"/><path class="cls-8" d="M72.59,68.58c-.56-.25-1.1-.54-1.62-.85-.23-.14-.43.22-.21.35.53.31,1.07.6,1.62.85.24.11.45-.24.21-.35Z"/><path class="cls-8" d="M86.4,68.37c-.41-.02-.82-.04-1.24-.06-.26-.01-.26.4,0,.41.41.02.82.04,1.24.06.26.01.26-.4,0-.41Z"/><path class="cls-8" d="M87.43,68.39c-.22-.46-.43-.91-.65-1.37-.11-.24-.47-.03-.35.21l.65,1.37c.11.24.47.03.35-.21Z"/><path class="cls-8" d="M88.31,67.62c-.27.32-.46.68-.56,1.08-.06.26.33.37.4.11.08-.33.23-.64.45-.9.17-.2-.12-.49-.29-.29Z"/><path class="cls-8" d="M97,67.58c-.61-.03-1.21,0-1.82.07-.26.03-.26.44,0,.41.61-.07,1.21-.1,1.82-.07.26.01.26-.4,0-.41Z"/><path class="cls-8" d="M98.24,67.39c-.37-.33-.73-.65-1.1-.98-.2-.17-.49.11-.29.29.37.33.73.65,1.1.98.2.17.49-.11.29-.29Z"/><path class="cls-8" d="M105.33,65.17c-.38.14-.77.2-1.18.16-.26-.02-.26.39,0,.41.44.04.88-.02,1.29-.18.25-.09.14-.49-.11-.4Z"/><path class="cls-8" d="M106.54,64.85c-.17-.51-.51-.94-.98-1.22-.23-.14-.43.22-.21.35.37.22.65.56.79.97.08.25.48.14.4-.11Z"/><path class="cls-8" d="M104.86,64.26c-.13-.05-.26-.09-.39-.14-.25-.09-.36.31-.11.4.13.05.26.09.39.14.25.09.36-.31.11-.4Z"/><path class="cls-22" d="M90.86,38.53c-.59-1.18-2.36-.14-1.77,1.03.53,1.07-.09,1.84-.97,2.38.17-.3.31-.62.35-.96.1-.8-.12-1.28-.6-1.89-.34-.43-1.1-.36-1.45,0-.28.29-.57.77-.88,1.28.3-.53.55-1.08.62-1.74.16-1.67-.42-3.53-.79-5.15-.29-1.29-2.24-.74-1.98.55.19.93.28,1.87.21,2.82-.43-.73-1.63-.91-1.87.14-.13.58-.3,1.23-.41,1.9-.1-.62-.18-1.21-.18-1.86.01-1.35-1.91-1.28-2.05,0-.13,1.16.05,2.12.33,3.03.13.53.3,1.05.53,1.49.23.6.45,1.23.63,1.92.22.87,1.21.9,1.72.42.15.39.52.65.96.67.87.04,1.49-.19,2-.58.08.58.69,1.03,1.28.85,2.78-.87,5.96-2.97,4.32-6.29Z"/><path class="cls-8" d="M82.24,43.49c-.17-.77-.59-1.46-.81-2.22-.26-.88-.37-1.79-.38-2.71,0-.26-.41-.26-.41,0,0,.84.09,1.67.3,2.48.22.88.71,1.68.9,2.55.06.26.45.15.4-.11Z"/><path class="cls-8" d="M83.93,37.22c-.01-.26-.42-.26-.41,0,.08,1.77-.1,3.51-.54,5.23-.07.26.33.36.4.11.45-1.76.64-3.52.56-5.34Z"/><path class="cls-8" d="M85.67,40.11c-.29,1.17-.87,2.23-1.41,3.31-.12.24.24.44.35.21.55-1.1,1.16-2.2,1.45-3.41.06-.26-.33-.37-.4-.11Z"/><path class="cls-8" d="M87.77,41.98c-.33.72-1.12,1.04-1.59,1.64-.16.21.13.5.29.29.5-.63,1.31-.97,1.65-1.72.11-.24-.24-.45-.35-.21Z"/><path class="cls-19" d="M81.65,35.12c-.53,0-.53.82,0,.82s.53-.82,0-.82Z"/><path class="cls-19" d="M82.11,33.88h-.07c-.53,0-.53.82,0,.82h.07c.53,0,.53-.82,0-.82Z"/><path class="cls-19" d="M83.37,35.43l-.07-.07c-.37-.37-.95.21-.58.58.02.02.04.04.07.07.37.37.95-.21.58-.58Z"/><path class="cls-19" d="M86.9,38.26v.07c0,.53.82.53.82,0v-.07c0-.53-.82-.53-.82,0Z"/><path class="cls-19" d="M87.05,36.22h-.07c-.53,0-.53.82,0,.82h.07c.53,0,.53-.82,0-.82Z"/><path class="cls-19" d="M88.67,36.16c-.53,0-.53.82,0,.82s.53-.82,0-.82Z"/><path class="cls-19" d="M88.61,37.46c-.53,0-.53.82,0,.82s.53-.82,0-.82Z"/><path class="cls-19" d="M88.67,39.28c-.53,0-.53.82,0,.82s.53-.82,0-.82Z"/><path class="cls-19" d="M87.11,34.27c-.53,0-.53.82,0,.82s.53-.82,0-.82Z"/><path class="cls-19" d="M74.63,51.31c-.53,0-.53.82,0,.82s.53-.82,0-.82Z"/><path class="cls-19" d="M76.77,51.37c-.53,0-.53.82,0,.82s.53-.82,0-.82Z"/><path class="cls-19" d="M78.27,53.72c-.53,0-.53.82,0,.82s.53-.82,0-.82Z"/><path class="cls-19" d="M72.61,52.28c-.53,0-.53.82,0,.82s.53-.82,0-.82Z"/><path class="cls-19" d="M80.92,54.34v.04c0,.53.82.53.82,0v-.04c0-.53-.82-.53-.82,0Z"/><path class="cls-19" d="M82.32,52.37c-.53,0-.53.82,0,.82s.53-.82,0-.82Z"/><path class="cls-19" d="M85.14,51.16c-.53,0-.53.82,0,.82s.53-.82,0-.82Z"/><path class="cls-19" d="M87.7,52.41h-.04c-.53,0-.53.82,0,.82h.04c.53,0,.53-.82,0-.82Z"/><path class="cls-19" d="M70.1,49.77h-.04c-.53,0-.53.82,0,.82h.04c.53,0,.53-.82,0-.82Z"/><path class="cls-19" d="M95.16,50.2c-.53,0-.53.82,0,.82s.53-.82,0-.82Z"/><path class="cls-19" d="M91.95,51.71s-.03-.06-.04-.09c-.24-.47-.94-.06-.71.41.01.03.03.06.04.09.24.47.94.06.71-.41Z"/><path class="cls-19" d="M93.38,49.42c-.53,0-.53.82,0,.82s.53-.82,0-.82Z"/><path class="cls-19" d="M99.23,47.91c-.53,0-.53.82,0,.82s.53-.82,0-.82Z"/><path class="cls-19" d="M98.46,51.56c-.1-.1-.23-.13-.35-.1-.12-.02-.25,0-.35.1-.15.15-.17.43,0,.58.22.19.48.19.7,0,.17-.15.15-.43,0-.58Z"/><path class="cls-19" d="M63.96,61.58c-.53,0-.53.82,0,.82s.53-.82,0-.82Z"/><path class="cls-19" d="M65.69,63.65l-.07.07c-.37.37.21.95.58.58.02-.02.04-.04.07-.07.37-.37-.21-.95-.58-.58Z"/><path class="cls-19" d="M66.89,65.29c-.53,0-.53.82,0,.82s.53-.82,0-.82Z"/><path class="cls-19" d="M65.95,66.4c-.53,0-.53.82,0,.82s.53-.82,0-.82Z"/><path class="cls-19" d="M71.48,64.63s-.04.04-.07.07c-.37.37.21.95.58.58l.07-.07c.37-.37-.21-.95-.58-.58Z"/><path class="cls-19" d="M75.67,64.18h-.07c-.53,0-.53.82,0,.82h.07c.53,0,.53-.82,0-.82Z"/><path class="cls-19" d="M78.14,66.14c-.53,0-.53.82,0,.82s.53-.82,0-.82Z"/><path class="cls-19" d="M78.65,67.77c-.53,0-.53.82,0,.82s.53-.82,0-.82Z"/><path class="cls-19" d="M83.54,65.42c-.53,0-.53.82,0,.82s.53-.82,0-.82Z"/><path class="cls-19" d="M85.68,63.08c-.53,0-.53.82,0,.82s.53-.82,0-.82Z"/><path class="cls-19" d="M88.41,64.57c-.53,0-.53.82,0,.82s.53-.82,0-.82Z"/><path class="cls-19" d="M91.6,67.76c-.53,0-.53.82,0,.82s.53-.82,0-.82Z"/><path class="cls-19" d="M97.81,65.02s-.04.04-.07.07c-.37.37.21.95.58.58l.07-.07c.37-.37-.21-.95-.58-.58Z"/><path class="cls-19" d="M94.53,65.1c-.53,0-.53.82,0,.82s.53-.82,0-.82Z"/><path class="cls-19" d="M96.35,62.75c-.53,0-.53.82,0,.82s.53-.82,0-.82Z"/><path class="cls-19" d="M102.59,63.21c-.53,0-.53.82,0,.82s.53-.82,0-.82Z"/><path class="cls-19" d="M105.06,61.42c-.53,0-.53.82,0,.82s.53-.82,0-.82Z"/><path class="cls-19" d="M107.18,61.97c-.53,0-.53.82,0,.82s.53-.82,0-.82Z"/><path class="cls-19" d="M102.92,65.65c-.53,0-.53.82,0,.82s.53-.82,0-.82Z"/><path class="cls-25" d="M90.34,43.41c-.12.11-.23.22-.34.34.03-.15.05-.3.06-.46.01-.19-.19-.24-.32-.16.03-.16.05-.33.06-.49.02-.2-.29-.28-.38-.1-.09.19-.17.38-.25.57,0-.01,0-.02,0-.03,0-.23-.35-.28-.4-.05-.1.4-.17.8-.22,1.21-.18-.44-.4-.86-.67-1.26-.11-.17-.38-.11-.38.1-.01.43.04.83.16,1.22-.25.08-.24.39-.16.67,0,0,0,.01,0,.02,0,0,0,.02.01.03.04.15.1.28.14.36,0,0,0,.02.01.03.02.05.05.1.08.15.12.21.3.5.51.64.14.13.29.24.47.34.12.07.25,0,.3-.12,0-.03.02-.05.02-.07.1.06.22.09.33.06.67-.17,1-1.28,1.04-1.84,0-.04-.02-.08-.04-.12.12-.26.23-.53.3-.81.06-.21-.19-.33-.34-.2Z"/><path class="cls-25" d="M95.39,41.07c-.12.11-.23.22-.34.34.03-.15.05-.3.06-.46.01-.19-.19-.24-.32-.16.03-.16.05-.33.06-.49.02-.2-.29-.28-.38-.1-.09.19-.17.38-.25.57,0-.01,0-.02,0-.03,0-.23-.35-.28-.4-.05-.1.4-.17.8-.22,1.21-.18-.44-.4-.86-.67-1.26-.11-.17-.38-.11-.38.1-.01.43.04.83.16,1.22-.25.08-.24.39-.16.67,0,0,0,.01,0,.02,0,0,0,.02.01.03.04.15.1.28.14.36,0,0,0,.02.01.03.02.05.05.1.08.15.12.21.3.5.51.64.14.13.29.24.47.34.12.07.25,0,.3-.12,0-.03.02-.05.02-.07.1.06.22.09.33.06.67-.17,1-1.28,1.04-1.84,0-.04-.02-.08-.04-.12.12-.26.23-.53.3-.81.06-.21-.19-.33-.34-.2Z"/></g><path class="cls-25" d="M34.63,67.88h0c-.25.38-.09.89.32,1.08l19.89,8.65c.33.14.72.03.91-.27h0c.25-.38.09-.89-.32-1.08l-19.89-8.65c-.33-.14-.72-.03-.91.27Z"/><path class="cls-11" d="M60.42,82.15l-7.76-3.38c-.43-.19-.55-.7-.27-1.14l1.94-3c.29-.44.87-.64,1.3-.46l8.79,3.82c.54.24.57.94.06,1.38l-.06.05-2.9,2.5c-.32.27-.76.36-1.09.21Z"/><path class="cls-10" d="M64.41,79.44l-10.12-4.75.03-.05c.29-.44.87-.64,1.3-.46l8.79,3.82c.54.24.57.94.06,1.38l-.06.05Z"/><path class="cls-25" d="M28.39,70.77h0c-.36.47-.31,1.07.11,1.26l19.87,9.28c.33.15.78,0,1.07-.37h0c.36-.47.31-1.07-.11-1.26l-19.87-9.28c-.33-.15-.78,0-1.07.37Z"/><path class="cls-18" d="M41.59,76.24l-.21.23c-.69.74-.45,1.94.47,2.36l16,7.28c1.66.75,3.17.14,3.45-.68.2-.58-.15-1.5-.76-1.96-.28-.21-.56-.27-.62-.3-3.92-1.83-13.32-5.81-16.64-7.29-.58-.26-1.26-.12-1.69.34Z"/><path class="cls-15" d="M52.8,82.42c-3.11-1.54-6.23-3.07-9.45-4.35-.25-.1-.35.3-.11.4,3.19,1.27,6.28,2.79,9.35,4.31.24.12.44-.24.21-.35Z"/></svg>