<svg width="355" height="31" viewBox="0 0 355 31" fill="none" xmlns="http://www.w3.org/2000/svg">
<path d="M171.79 15.9429L343.125 15.9429" stroke="#D6D5D5" stroke-width="5" stroke-linecap="round"/>
<path d="M3 15.9429L340.581 15.9429" stroke="#292929" stroke-width="5" stroke-linecap="round"/>
<ellipse cx="340.581" cy="15.9429" rx="13.5711" ry="14.1714" fill="white"/>
<path d="M338.079 22.63L348.543 11.7025L346.465 9.5325L338.079 18.29L333.848 13.8725L331.77 16.0425L338.079 22.63ZM340.157 31C338.103 31 336.174 30.5929 334.368 29.7786C332.562 28.9643 330.991 27.8602 329.655 26.4663C328.319 25.0713 327.262 23.4308 326.483 21.545C325.704 19.6592 325.314 17.6442 325.313 15.5C325.313 13.3558 325.703 11.3408 326.483 9.455C327.263 7.56917 328.32 5.92875 329.655 4.53375C330.991 3.13875 332.562 2.03463 334.368 1.2214C336.174 0.408167 338.103 0.00103333 340.157 0C342.21 0 344.14 0.407133 345.946 1.2214C347.751 2.03567 349.322 3.13978 350.658 4.53375C351.994 5.92875 353.052 7.56917 353.832 9.455C354.612 11.3408 355.001 13.3558 355 15.5C355 17.6442 354.61 19.6592 353.83 21.545C353.051 23.4308 351.993 25.0713 350.658 26.4663C349.322 27.8612 347.751 28.9659 345.946 29.7801C344.14 30.5944 342.21 31.001 340.157 31Z" fill="#357C77"/>
</svg>
