<svg width="358" height="31" viewBox="0 0 358 31" fill="none" xmlns="http://www.w3.org/2000/svg">
<path d="M116.237 15.9429L355 15.9429" stroke="#D6D5D5" stroke-width="5" stroke-linecap="round"/>
<path d="M3 16H179" stroke="#292929" stroke-width="5" stroke-linecap="round"/>
<ellipse cx="179.045" cy="15.1714" rx="14.0449" ry="14.1714" fill="white"/>
<path d="M177.211 22.63L188.041 11.7025L185.89 9.5325L177.211 18.29L172.833 13.8725L170.682 16.0425L177.211 22.63ZM179.362 31C177.237 31 175.24 30.5929 173.371 29.7786C171.502 28.9643 169.876 27.8602 168.493 26.4662C167.111 25.0712 166.016 23.4308 165.21 21.545C164.405 19.6592 164.001 17.6442 164 15.5C164 13.3558 164.403 11.3408 165.21 9.455C166.017 7.56917 167.112 5.92875 168.493 4.53375C169.876 3.13875 171.502 2.03463 173.371 1.2214C175.24 0.408167 177.237 0.00103333 179.362 0C181.487 0 183.484 0.407133 185.353 1.2214C187.222 2.03567 188.847 3.13978 190.23 4.53375C191.612 5.92875 192.707 7.56917 193.514 9.455C194.321 11.3408 194.724 13.3558 194.723 15.5C194.723 17.6442 194.32 19.6592 193.513 21.545C192.706 23.4308 191.611 25.0712 190.23 26.4662C188.847 27.8612 187.222 28.9659 185.353 29.7801C183.484 30.5944 181.487 31.001 179.362 31Z" fill="#357C77"/>
</svg>
