<svg width="355" height="31" viewBox="0 0 355 31" fill="none" xmlns="http://www.w3.org/2000/svg">
<path d="M15.2307 15.5H352" stroke="#D6D5D5" stroke-width="5" stroke-linecap="round"/>
<ellipse cx="15.2308" cy="15.9429" rx="13.5385" ry="14.1714" fill="white"/>
<path d="M12.7346 22.63L23.174 11.7025L21.101 9.5325L12.7346 18.29L8.51442 13.8725L6.44135 16.0425L12.7346 22.63ZM14.8077 31C12.7593 31 10.8343 30.5929 9.03269 29.7786C7.23109 28.9643 5.66394 27.8602 4.33125 26.4662C2.99856 25.0712 1.94376 23.4308 1.16685 21.545C0.389936 19.6592 0.000987179 17.6442 0 15.5C0 13.3558 0.388949 11.3408 1.16685 9.455C1.94474 7.56917 2.99955 5.92875 4.33125 4.53375C5.66394 3.13875 7.23109 2.03463 9.03269 1.2214C10.8343 0.408167 12.7593 0.00103333 14.8077 0C16.8561 0 18.7811 0.407133 20.5827 1.2214C22.3843 2.03567 23.9514 3.13978 25.2841 4.53375C26.6168 5.92875 27.6721 7.56917 28.45 9.455C29.2279 11.3408 29.6164 13.3558 29.6154 15.5C29.6154 17.6442 29.2264 19.6592 28.4485 21.545C27.6706 23.4308 26.6158 25.0712 25.2841 26.4662C23.9514 27.8612 22.3843 28.9659 20.5827 29.7801C18.7811 30.5944 16.8561 31.001 14.8077 31Z" fill="#357C77"/>
</svg>
