<svg width="20" height="19" viewBox="0 0 20 19" fill="none" xmlns="http://www.w3.org/2000/svg">
<mask id="mask0_253_5634" style="mask-type:alpha" maskUnits="userSpaceOnUse" x="0" y="0" width="20" height="19">
<rect width="20" height="19" fill="#D9D9D9"/>
</mask>
<g mask="url(#mask0_253_5634)">
<path d="M10.3333 17.2917L9.125 16.2083C7.72222 14.9444 6.5625 13.8542 5.64583 12.9375C4.72917 12.0208 4 11.1979 3.45833 10.4688C2.91667 9.73958 2.53819 9.06944 2.32292 8.45833C2.10764 7.84722 2 7.22222 2 6.58333C2 5.27778 2.4375 4.1875 3.3125 3.3125C4.1875 2.4375 5.27778 2 6.58333 2C7.30556 2 7.99306 2.15278 8.64583 2.45833C9.29861 2.76389 9.86111 3.19444 10.3333 3.75C10.8056 3.19444 11.3681 2.76389 12.0208 2.45833C12.6736 2.15278 13.3611 2 14.0833 2C15.3889 2 16.4792 2.4375 17.3542 3.3125C18.2292 4.1875 18.6667 5.27778 18.6667 6.58333C18.6667 7.22222 18.559 7.84722 18.3438 8.45833C18.1285 9.06944 17.75 9.73958 17.2083 10.4688C16.6667 11.1979 15.9375 12.0208 15.0208 12.9375C14.1042 13.8542 12.9444 14.9444 11.5417 16.2083L10.3333 17.2917Z" fill="#B24D46"/>
</g>
</svg>
