<svg width="23" height="33" viewBox="0 0 23 33" fill="none" xmlns="http://www.w3.org/2000/svg">
<g filter="url(#filter0_d_1342_10941)">
<g filter="url(#filter1_d_1342_10941)">
<ellipse cx="11.5" cy="29" rx="10.5" ry="2" fill="#313131" fill-opacity="0.4" shape-rendering="crispEdges"/>
</g>
<path d="M10.4209 27.4351C2.47492 15.9158 1 14.7335 1 10.5C1 4.70099 5.70099 0 11.5 0C17.299 0 22 4.70099 22 10.5C22 14.7335 20.5251 15.9158 12.5791 27.4351C12.0576 28.1883 10.9423 28.1883 10.4209 27.4351Z" fill="#357C77"/>
<mask id="mask0_1342_10941" style="mask-type:alpha" maskUnits="userSpaceOnUse" x="4" y="0" width="15" height="15">
<rect x="4" width="15" height="15" fill="#D9D9D9"/>
</mask>
<g mask="url(#mask0_1342_10941)">
<path d="M10.4219 10.3126C10.1302 10.3126 9.89062 10.2032 9.70312 9.98447C9.51562 9.76572 9.44792 9.51051 9.5 9.21884L9.6875 8.09384C9.77083 7.64592 9.98177 7.27874 10.3203 6.99228C10.6589 6.70582 11.0521 6.56259 11.5 6.56259C11.9583 6.56259 12.3568 6.70582 12.6953 6.99228C13.0339 7.27874 13.2448 7.64592 13.3281 8.09384L13.5156 9.21884C13.5677 9.51051 13.5 9.76572 13.3125 9.98447C13.125 10.2032 12.8854 10.3126 12.5938 10.3126H10.4219ZM5.9375 10.922C5.69792 10.9324 5.49219 10.8855 5.32031 10.7813C5.14844 10.6772 5.03646 10.5157 4.98438 10.297C4.96354 10.2032 4.95833 10.1095 4.96875 10.0157C4.97917 9.92197 5.00521 9.83342 5.04688 9.75009C5.04688 9.76051 5.04167 9.73967 5.03125 9.68759C5.01042 9.66676 4.95833 9.54176 4.875 9.31259C4.85417 9.18759 4.86979 9.0678 4.92188 8.95322C4.97396 8.83863 5.04167 8.73968 5.125 8.65634L5.15625 8.62509C5.17708 8.42717 5.25781 8.26051 5.39844 8.12509C5.53906 7.98967 5.71354 7.92197 5.92188 7.92197C5.95312 7.92197 6.05208 7.9428 6.21875 7.98447L6.26562 7.96884C6.31771 7.91676 6.38542 7.8777 6.46875 7.85165C6.55208 7.82561 6.64062 7.81259 6.73438 7.81259C6.84896 7.81259 6.95052 7.83082 7.03906 7.86728C7.1276 7.90374 7.19792 7.95842 7.25 8.03134C7.26042 8.03134 7.26823 8.03395 7.27344 8.03915C7.27865 8.04436 7.28646 8.04697 7.29688 8.04697C7.44271 8.05738 7.57031 8.10165 7.67969 8.17978C7.78906 8.2579 7.86979 8.36467 7.92188 8.50009C7.94271 8.57301 7.95052 8.64332 7.94531 8.71103C7.9401 8.77874 7.92708 8.84384 7.90625 8.90634C7.90625 8.91676 7.91146 8.93759 7.92188 8.96884C7.99479 9.04176 8.05208 9.12249 8.09375 9.21103C8.13542 9.29957 8.15625 9.39072 8.15625 9.48447C8.15625 9.52613 8.125 9.63551 8.0625 9.81259C8.05208 9.83343 8.05208 9.85426 8.0625 9.87509L8.09375 10.1251C8.09375 10.3438 8.0026 10.5313 7.82031 10.6876C7.63802 10.8438 7.41667 10.922 7.15625 10.922H5.9375ZM16.5 10.9376C16.1562 10.9376 15.862 10.8152 15.6172 10.5704C15.3724 10.3256 15.25 10.0313 15.25 9.68759C15.25 9.56259 15.2682 9.4454 15.3047 9.33603C15.3411 9.22665 15.3906 9.11988 15.4531 9.01572L15.0156 8.62509C14.9115 8.54176 14.8932 8.43759 14.9609 8.31259C15.0286 8.18759 15.125 8.12509 15.25 8.12509H16.5C16.8438 8.12509 17.138 8.24749 17.3828 8.49228C17.6276 8.73707 17.75 9.03134 17.75 9.37509V9.68759C17.75 10.0313 17.6276 10.3256 17.3828 10.5704C17.138 10.8152 16.8438 10.9376 16.5 10.9376ZM4 14.0626V13.0782C4 12.6199 4.23177 12.2527 4.69531 11.9767C5.15885 11.7006 5.76042 11.5626 6.5 11.5626C6.63542 11.5626 6.76562 11.5652 6.89062 11.5704C7.01562 11.5756 7.13542 11.5886 7.25 11.6095C7.10417 11.8178 6.99479 12.0418 6.92188 12.2813C6.84896 12.5209 6.8125 12.7761 6.8125 13.047V14.0626H4ZM7.75 14.0626V13.047C7.75 12.3699 8.09635 11.823 8.78906 11.4063C9.48177 10.9897 10.3854 10.7813 11.5 10.7813C12.625 10.7813 13.5312 10.9897 14.2188 11.4063C14.9062 11.823 15.25 12.3699 15.25 13.047V14.0626H7.75ZM16.5 11.5626C17.25 11.5626 17.8542 11.7006 18.3125 11.9767C18.7708 12.2527 19 12.6199 19 13.0782V14.0626H16.1875V13.047C16.1875 12.7761 16.1536 12.5209 16.0859 12.2813C16.0182 12.0418 15.9167 11.8178 15.7812 11.6095C15.8958 11.5886 16.013 11.5756 16.1328 11.5704C16.2526 11.5652 16.375 11.5626 16.5 11.5626Z" fill="white"/>
</g>
</g>
<defs>
<filter id="filter0_d_1342_10941" x="0" y="0" width="23" height="33" filterUnits="userSpaceOnUse" color-interpolation-filters="sRGB">
<feFlood flood-opacity="0" result="BackgroundImageFix"/>
<feColorMatrix in="SourceAlpha" type="matrix" values="0 0 0 0 0 0 0 0 0 0 0 0 0 0 0 0 0 0 127 0" result="hardAlpha"/>
<feOffset dy="1"/>
<feGaussianBlur stdDeviation="0.5"/>
<feComposite in2="hardAlpha" operator="out"/>
<feColorMatrix type="matrix" values="0 0 0 0 0 0 0 0 0 0 0 0 0 0 0 0 0 0 0.25 0"/>
<feBlend mode="normal" in2="BackgroundImageFix" result="effect1_dropShadow_1342_10941"/>
<feBlend mode="normal" in="SourceGraphic" in2="effect1_dropShadow_1342_10941" result="shape"/>
</filter>
<filter id="filter1_d_1342_10941" x="0" y="27" width="23" height="6" filterUnits="userSpaceOnUse" color-interpolation-filters="sRGB">
<feFlood flood-opacity="0" result="BackgroundImageFix"/>
<feColorMatrix in="SourceAlpha" type="matrix" values="0 0 0 0 0 0 0 0 0 0 0 0 0 0 0 0 0 0 127 0" result="hardAlpha"/>
<feOffset dy="1"/>
<feGaussianBlur stdDeviation="0.5"/>
<feComposite in2="hardAlpha" operator="out"/>
<feColorMatrix type="matrix" values="0 0 0 0 0 0 0 0 0 0 0 0 0 0 0 0 0 0 0.25 0"/>
<feBlend mode="normal" in2="BackgroundImageFix" result="effect1_dropShadow_1342_10941"/>
<feBlend mode="normal" in="SourceGraphic" in2="effect1_dropShadow_1342_10941" result="shape"/>
</filter>
</defs>
</svg>
