<svg width="24" height="27" viewBox="0 0 24 27" fill="none" xmlns="http://www.w3.org/2000/svg">
<path fill-rule="evenodd" clip-rule="evenodd" d="M20.3333 5.75157C20.5616 5.75643 20.7456 5.95798 20.75 6.20805V20.8153C20.75 21.0724 20.5597 21.2809 20.325 21.2809H3.66667C3.43521 21.2759 3.25 21.0689 3.25 20.8153V6.20805C3.25443 5.95798 3.43841 5.75643 3.66667 5.75157H20.3333ZM20.3333 4.38214H3.66667C2.74619 4.38214 2 5.19963 2 6.20805V20.8153C2 21.8237 2.74619 22.6412 3.66667 22.6412H20.3333C21.2538 22.6412 22 21.8237 22 20.8153V6.20805C22 5.19963 21.2538 4.38214 20.3333 4.38214Z" fill="#292929"/>
<path d="M2.9668 8.93805H20.8918" stroke="#292929" stroke-width="1.25" stroke-linecap="round" stroke-linejoin="round"/>
<path d="M2.9917 12.5987H20.9167" stroke="#292929" stroke-width="1.25" stroke-linecap="round" stroke-linejoin="round"/>
<path d="M6.16675 18.0764H11.1667" stroke="#292929" stroke-width="1.25" stroke-linecap="round" stroke-linejoin="round"/>
<path d="M16.1667 18.0764H17.8334" stroke="#292929" stroke-width="1.25" stroke-linecap="round" stroke-linejoin="round"/>
</svg>
