<svg width="22" height="23" viewBox="0 0 22 23" fill="none" xmlns="http://www.w3.org/2000/svg">
<path d="M11 0.0693359C4.92039 0.0693359 0 4.98909 0 11.0693C0 17.1489 4.91975 22.0693 11 22.0693C17.0796 22.0693 22 17.1496 22 11.0693C22 4.98973 17.0802 0.0693359 11 0.0693359ZM11 20.5344C5.78093 20.5344 1.53489 16.2884 1.53489 11.0693C1.53489 5.85027 5.78093 1.60422 11 1.60422C16.2191 1.60422 20.4651 5.85027 20.4651 11.0693C20.4651 16.2884 16.2191 20.5344 11 20.5344Z" fill="#3498DB"/>
<path d="M11.0001 8.81818C10.5762 8.81818 10.2327 9.1618 10.2327 9.5856V15.8786C10.2327 16.3025 10.5763 16.6461 11.0001 16.6461C11.4239 16.6461 11.7675 16.3024 11.7675 15.8786V9.58564C11.7675 9.1618 11.4239 8.81818 11.0001 8.81818Z" fill="#3498DB"/>
<path d="M11.0001 5.49268C10.5762 5.49268 10.2327 5.8363 10.2327 6.2601V7.18105C10.2327 7.60489 10.5763 7.94847 11.0001 7.94847C11.4239 7.94847 11.7675 7.60485 11.7675 7.18105V6.2601C11.7675 5.8363 11.4239 5.49268 11.0001 5.49268Z" fill="#3498DB"/>
</svg>
