<?xml version="1.0" encoding="UTF-8"?><svg xmlns="http://www.w3.org/2000/svg" xmlns:xlink="http://www.w3.org/1999/xlink" viewBox="0 0 190 210"><defs><style>.cls-1{fill:#f6f2f3;}.cls-1,.cls-2,.cls-3,.cls-4,.cls-5,.cls-6,.cls-7,.cls-8,.cls-9,.cls-10,.cls-11,.cls-12,.cls-13,.cls-14,.cls-15,.cls-16,.cls-17,.cls-18,.cls-19,.cls-20,.cls-21,.cls-22,.cls-23,.cls-24,.cls-25,.cls-26,.cls-27,.cls-28,.cls-29,.cls-30,.cls-31,.cls-32,.cls-33,.cls-34,.cls-35,.cls-36,.cls-37,.cls-38,.cls-39,.cls-40,.cls-41,.cls-42,.cls-43,.cls-44,.cls-45,.cls-46{stroke-width:0px;}.cls-2,.cls-44{fill:#7f7a02;}.cls-3{fill:#ffa000;}.cls-3,.cls-6,.cls-7,.cls-8,.cls-9,.cls-13,.cls-15,.cls-16,.cls-20,.cls-23,.cls-25,.cls-32,.cls-35,.cls-41,.cls-45{fill-rule:evenodd;}.cls-4{opacity:.2;}.cls-4,.cls-43,.cls-46{fill:#fff;}.cls-5{fill:#7fb3d4;}.cls-6{fill:#d8d9d9;}.cls-7{fill:#9c3b14;}.cls-8{fill:#a94722;}.cls-9{fill:#ffeece;}.cls-10{fill:#c6c4c5;}.cls-11{fill:#708a76;}.cls-12,.cls-21,.cls-44{mix-blend-mode:multiply;}.cls-12,.cls-27{fill:#5b0606;}.cls-12,.cls-44{opacity:.4;}.cls-13{fill:#ffad00;}.cls-14{fill:url(#DÈgradÈ_sans_nom_48);}.cls-15{fill:#ffc000;}.cls-16{fill:#ffae61;}.cls-17{fill:#fd6c50;}.cls-18{fill:#7d7a94;}.cls-19{fill:#fdc55c;}.cls-20{fill:#8f2d05;}.cls-21,.cls-26{fill:#f2eee9;}.cls-22{fill:#4f392f;}.cls-23{fill:#ff8905;}.cls-24{fill:#fdd07e;}.cls-25{fill:#f4e3c2;}.cls-28{fill:#752c13;}.cls-29{fill:#232323;}.cls-30{fill:#edb447;}.cls-31,.cls-45{fill:#fff8ea;}.cls-32{fill:#ffc900;}.cls-33{fill:#89ae91;}.cls-47{opacity:.3;}.cls-34{fill:#505302;}.cls-35{fill:#ff7e00;}.cls-36{fill:#440202;}.cls-37{fill:#701111;}.cls-38{fill:#050505;}.cls-39{fill:#fca984;}.cls-40{fill:#f9956e;}.cls-41{fill:#ebebeb;}.cls-48{isolation:isolate;}.cls-42{fill:#ffcbb6;}.cls-46{opacity:.22;}</style><linearGradient id="DÈgradÈ_sans_nom_48" x1="94.19" y1="126.91" x2="96.7" y2="-59.86" gradientUnits="userSpaceOnUse"><stop offset="0" stop-color="#82f0fa"/><stop offset="1" stop-color="#00c7f0"/></linearGradient></defs><g class="cls-48"><g id="Layer_2"><g id="Layer_11"><rect class="cls-14" width="189.74" height="152.43"/><path class="cls-33" d="M61.8,160.81c.19,4.8,6.94,24.77,6.94,24.77l23.14.26s.38-15.49.13-17.67l-30.21-7.36Z"/><path class="cls-33" d="M129.17,161.77c-.38,3.46-6.69,23.81-6.69,23.81l-23.14.26s-.38-15.49-.13-17.67l29.96-6.4Z"/><path class="cls-5" d="M72.35,97.67s-9.21,5.12-13.64,29.36c-4.43,24.24-4.26,29.7-3.75,30.38.51.68,18.92,13.66,40.06,12.63,21.14-1.02,39.38-9.39,40.23-11.61.85-2.22-3.41-44.38-14.66-61.11l-48.24.34Z"/><path class="cls-18" d="M57.31,134.63c1.35.06,8.9,12.88,38.22,13.22,30.53.36,37.84-10.75,37.84-10.75,0,0,2.05,7.17,1.88,10.07-.17,2.9-22.64,12.13-42.28,10.92-19.43-1.19-33.5-9.24-37.5-12.8-1.53-1.37.5-10.73,1.84-10.66Z"/><path class="cls-30" d="M85.19,145.62h19.94c.66,0,1.19.53,1.19,1.19v11.1c0,.66-.54,1.19-1.19,1.19h-19.94c-.66,0-1.19-.53-1.19-1.19v-11.1c0-.66.54-1.19,1.19-1.19Z"/><path class="cls-24" d="M87.95,158.05c-.71,0-1.53-.04-2.04-.58-.47-.49-.49-1.07-.51-1.75v-.28c-.12-2.88-.15-5.45-.08-8.11,0-.2.18-.34.37-.35.2,0,.35.17.35.37-.06,2.64-.04,5.2.08,8.07v.28c.03.66.05,1,.31,1.27.35.37,1.1.36,1.71.36h7.85s0-.01,0-.01c.2,0,.36.16.36.36s-.16.36-.36.36h-7.85c-.06.01-.13.01-.19.01Z"/><path class="cls-24" d="M98.21,158.01c-.2,0-.36-.16-.36-.35,0-.2.16-.36.35-.36l2.37-.03h0c.2,0,.36.16.36.35,0,.2-.16.36-.35.36l-2.37.03h0Z"/><path class="cls-5" d="M71.15,99.03s-9.89,4.95-17.73-2.05c-7.84-7-7.33-15.02-7.33-15.02l-12.78.68s-8.35,32.77,28.81,41.14l9.03-24.75Z"/><path class="cls-5" d="M120.59,98.52s15.17.34,20.46,11.95c5.28,11.61,2.73,32.77-20.63,33.97,0,0-4.77-4.1-5.97-9.56,0,0,11.08-4.44,10.06-18.78-1.02-14.34-3.92-17.58-3.92-17.58Z"/><path class="cls-18" d="M53.52,103.94s-.05,0-.08,0c-.19-.04-.31-.24-.27-.43.49-2.11.38-4.41-.31-6.46-.06-.19.04-.39.22-.45.19-.06.39.04.45.23.74,2.21.86,4.58.33,6.85-.04.17-.19.28-.35.28Z"/><path class="cls-18" d="M59.53,123.41s-.05,0-.08,0c-.19-.04-.32-.23-.27-.43,1.01-4.59,2.95-9.04,5.6-12.85.11-.16.34-.2.5-.09.16.11.2.34.09.5-2.6,3.74-4.5,8.1-5.49,12.6-.04.17-.18.28-.35.28Z"/><path class="cls-18" d="M116.18,135.27c-.07,0-.15-.02-.21-.07-.16-.12-.19-.34-.08-.5,1.36-1.86,3.2-3.35,4.97-4.78,2.41-1.95,4.68-3.78,5.86-6.47,1.13-2.59.95-5.71-.46-8.15-.1-.17-.04-.39.13-.49.17-.1.39-.04.49.13,1.52,2.64,1.71,6.01.49,8.8-1.24,2.85-3.69,4.83-6.06,6.74-1.74,1.41-3.54,2.86-4.85,4.65-.07.1-.18.15-.29.15Z"/><path class="cls-18" d="M133.37,127.04c-.11,0-.23-.05-.3-.16-1.33-1.93-3.39-3.4-5.65-4.02-.19-.05-.3-.25-.25-.44.05-.19.25-.3.44-.25,2.42.67,4.63,2.24,6.05,4.31.11.16.07.39-.09.5-.06.04-.13.06-.2.06Z"/><path class="cls-18" d="M130.96,122.17s-.08,0-.12-.02c-.93-.32-1.94-.45-2.92-.37-.18.02-.37-.13-.39-.33-.02-.2.13-.37.33-.39,1.08-.09,2.19.05,3.21.4.19.06.29.27.22.46-.05.15-.19.24-.34.24Z"/><path class="cls-39" d="M117.28,134.73c-1.06-.31-2.31-.95-4.37-.49-2.06.46-5.35.4-6.91,1.04-1.33.55-1.38,1.96.34,2.28,1.45.27,4.97.35,4.9.65-.04.19-1.75.99-3.98,1.81-1.25.46-3.24,1.05-3.95,1.3-1.75.61-1.83,2.64.05,2.69.75.02,2.56-.42,3.67-.69.88-.22,3.29-.66,3.29-.66,0,0-1.57,1.08-3.35,2.21-1.65,1.04-3.43,1.97-3.85,2.54-.68.91.09,2.76,2.34,1.77.95-.42,2.05-1.02,3.11-1.56,1.64-.83,3.1-1.53,3.1-1.53,0,0-1.08,1.43-2.37,2.84-1.07,1.17-2.22,2.15-2.55,2.89-.46,1.03.95,2.06,2.58.89,1.32-.95,5.92-4.98,5.92-4.98,0,0-2.17,4.04-2.41,4.93-.25.93,1.11,1.52,1.79.74.8-.93,2.1-2.86,3.69-4.78,1.93-2.35,4.49-6.2,4.49-7.25,0-1.22-1.65-5.49-5.51-6.61Z"/><path class="cls-19" d="M98.09,137.61c0,1.23-.99,2.22-2.22,2.22s-2.22-.99-2.22-2.22.99-2.22,2.22-2.22,2.22.99,2.22,2.22Z"/><ellipse class="cls-39" cx="95.8" cy="82.46" rx="29.44" ry="28.68"/><path class="cls-1" d="M68.51,70.36s-3.18,28.32,27.12,16.54c0,0,28.24,13.42,27.86-15.64,0,0,11.76,30.73-24.42,51.21h-6.65s-35.8-19.08-23.91-52.11Z"/><path class="cls-10" d="M93.37,123.09s-.08-.01-.11-.04c-14.12-11.45-23.87-29.35-26.76-49.13-.01-.1.05-.19.15-.2.1-.01.19.05.2.15,2.87,19.69,12.58,37.52,26.63,48.9.08.06.09.18.03.25-.04.04-.09.07-.14.07Z"/><path class="cls-10" d="M95.29,122.71s-.09-.02-.12-.05c-8.2-7.91-14.92-18.9-20.56-33.61-.04-.09.01-.2.1-.23.09-.04.2.01.23.1,5.62,14.65,12.32,25.61,20.48,33.48.07.07.07.18,0,.25-.04.04-.08.06-.13.06Z"/><path class="cls-10" d="M98.1,122.71c-.06,0-.11-.03-.15-.08-.06-.08-.04-.19.04-.25,8.49-5.9,15.24-13.01,19.51-20.55,4.52-7.98,6.65-16.87,6.35-26.41,0-.1.07-.18.17-.19.09,0,.18.07.18.17.3,9.61-1.85,18.56-6.4,26.6-4.29,7.59-11.08,14.74-19.62,20.67-.03.02-.07.03-.1.03Z"/><path class="cls-10" d="M96.57,122.46s-.09-.02-.12-.05c-.07-.07-.08-.18,0-.25,10.13-10.78,16.44-23.77,19.95-32.78.04-.09.14-.14.23-.1.09.04.14.14.1.23-3.52,9.03-9.85,22.07-20.02,32.89-.04.04-.08.06-.13.06Z"/><path class="cls-10" d="M95.49,123.25c-.07,0-.13-.04-.16-.1-4.07-8.65-7.01-17.81-8.76-27.22-.02-.1.05-.19.14-.21.1-.02.19.05.21.14,1.74,9.38,4.67,18.5,8.73,27.13.04.09,0,.2-.09.24-.02.01-.05.02-.08.02Z"/><path class="cls-10" d="M95.63,123s-.06,0-.09-.02c-.09-.05-.12-.16-.07-.24,4.6-8.38,7.99-17.36,10.07-26.7.02-.1.11-.16.21-.14.1.02.16.12.14.21-2.09,9.37-5.49,18.38-10.11,26.79-.03.06-.09.09-.16.09Z"/><path class="cls-10" d="M95.73,123.09h0c-.1,0-.18-.08-.18-.18.03-3.86.09-8.31.16-12.61.07-4.3.14-8.75.16-12.61,0-.1.08-.18.18-.18h0c.1,0,.18.08.18.18-.03,3.86-.09,8.31-.16,12.61-.07,4.3-.14,8.75-.16,12.61,0,.1-.08.18-.18.18Z"/><path class="cls-1" d="M117.52,87.53c-8.19,5.88-21.89-.63-21.89-.63-11.15,4.33-17.76,3.24-21.67.12,1.12,2.96,4.3,8.71,12.08,8.77,5.89.05,8.58-4.34,9.8-6.48,1.23,2.14,3.91,6.53,9.8,6.48,7.35-.06,10.59-5.2,11.88-8.26Z"/><path class="cls-10" d="M105.55,95.97c-5.78,0-8.47-4.26-9.69-6.37-1.15,1.98-3.93,6.37-9.73,6.37-.03,0-.06,0-.09,0-7.75-.06-11-5.59-12.25-8.89-.04-.09.01-.2.1-.23.09-.03.2.01.23.1,1.22,3.21,4.38,8.59,11.91,8.65.03,0,.06,0,.09,0,5.88,0,8.56-4.69,9.58-6.46.03-.06.09-.09.16-.09h0c.06,0,.12.03.16.09,1.11,1.94,3.7,6.46,9.53,6.46.03,0,.06,0,.09,0,7.25-.06,10.45-5.13,11.71-8.15.04-.09.14-.13.23-.1.09.04.13.14.1.24-1.3,3.1-4.59,8.31-12.04,8.37-.03,0-.06,0-.1,0Z"/><path class="cls-1" d="M88.37,52.78s-2.56,4.61-.34,6.15c2.22,1.54,4.43,0,4.77-.85,0,0,1.88,2.39,4.09,2.05,2.22-.34,2.73-2.39,2.73-2.39,0,0,5.28,2.56,5.45-4.1,0,0-6.99-6.49-16.71-.85Z"/><path class="cls-33" d="M65.8,81.1s-2.49-2.54-2.83-6.3c-.34-3.76.53-20.03,4.96-28.05,4.43-8.02,15.67-19.23,18.74-23.16,3.07-3.93,5.11-8.19,8.18-8.19s12.78,4.1,15.51,10.58c1.61,3.83,2.63,9.03,5,14.24,1.64,3.6,5.11,6.27,7.16,9.73,2.84,4.79,7.8,23.9,3.03,31.07,0,0-6.82-28.68-31.88-26.63-25.06,2.05-27.87,26.71-27.87,26.71Z"/><path class="cls-28" d="M81.1,75.36c-.13,0-.25-.07-.31-.18-.1-.17-.04-.39.14-.49,2.23-1.26,4.76-2,7.32-2.16.2,0,.37.14.38.34.01.2-.14.37-.34.38-2.45.15-4.87.86-7.01,2.07-.06.03-.12.05-.18.05Z"/><path class="cls-28" d="M110.49,75.26c-.06,0-.12-.01-.18-.05-2.14-1.2-4.56-1.92-7.01-2.07-.2-.01-.35-.18-.34-.38.01-.2.17-.35.38-.34,2.55.16,5.08.9,7.32,2.16.17.1.23.32.14.49-.07.12-.19.18-.31.18Z"/><path class="cls-40" d="M95.28,70.61c-2.77.06-5.64,15.74-4.54,17.03,2.48,2.9,8.15,2.65,10.17-.12.98-1.35-2.09-16.98-5.63-16.9Z"/><path class="cls-1" d="M85.67,61.91c-4.73,1.02-9.21,4.48-9.21,7.3s2.56,2.56,4.47,2.3,8.05-1.66,9.84-3.58c1.79-1.92,2.12-7.58-5.11-6.02Z"/><path class="cls-1" d="M105.93,61.65c4.73,1.02,9.21,4.48,9.21,7.3s-2.56,2.56-4.47,2.3c-1.92-.26-8.05-1.66-9.84-3.58-1.79-1.92-2.12-7.58,5.11-6.02Z"/><path class="cls-1" d="M92.46,124.3s-3.44,4.59-3.18,6.04c.26,1.45,4.6,1.79,6.9,1.83,2.22.04,6.26-.51,6.25-1.99,0-.86-3.07-5.97-3.07-5.97l-6.9.09Z"/><path class="cls-10" d="M91.8,131.48s-.03,0-.04,0c-.1-.02-.16-.12-.13-.22.64-2.75,1.58-4.91,2.9-7.49.04-.09.15-.12.24-.08.09.05.12.15.08.24-1.31,2.56-2.24,4.69-2.87,7.41-.02.08-.09.14-.17.14Z"/><path class="cls-10" d="M96.82,131.9c-.09,0-.17-.07-.18-.17l-.53-7.43c0-.1.07-.18.17-.19.1-.01.18.07.19.17l.53,7.43c0,.1-.07.18-.17.19,0,0,0,0-.01,0Z"/><path class="cls-10" d="M100.9,131.21c-.08,0-.15-.05-.17-.14-.61-2.43-1.53-4.78-2.76-6.97-.05-.09-.02-.2.07-.24.09-.05.2-.02.24.07,1.24,2.22,2.17,4.6,2.79,7.06.02.1-.03.19-.13.22-.01,0-.03,0-.04,0Z"/><path class="cls-33" d="M92.82,122.16h6.18c.39,0,.7.31.7.7v.9c0,.39-.31.7-.7.7h-6.18c-.39,0-.7-.31-.7-.7v-.9c0-.39.31-.7.7-.7Z"/><ellipse class="cls-42" cx="79.05" cy="83.6" rx="4.35" ry="5.66" transform="translate(-32.94 110.01) rotate(-59.87)"/><path class="cls-42" d="M110.37,79.83c-2.71,1.57-3.93,4.52-2.73,6.6s4.37,2.5,7.08.93c2.71-1.57,3.93-4.52,2.73-6.6-1.2-2.08-4.37-2.5-7.08-.93Z"/><path class="cls-11" d="M115.76,41.69c-.06,0-.11-.01-.17-.04-4.82-2.56-10.24-3.73-15.68-3.38-.22.01-.37-.14-.38-.34-.01-.2.14-.37.33-.38,5.58-.36,11.13.84,16.06,3.46.18.09.24.31.15.49-.06.12-.19.19-.32.19Z"/><path class="cls-11" d="M71.76,55.68c-.08,0-.17-.03-.23-.09-.15-.13-.17-.36-.04-.51,3.57-4.16,8.5-6.97,13.89-7.92.19-.03.38.1.42.29.03.2-.1.38-.29.42-5.15.91-10.07,3.71-13.48,7.68-.07.08-.17.13-.27.13Z"/><path class="cls-11" d="M67.41,62.46s-.08,0-.12-.02c-.19-.07-.28-.27-.21-.46.57-1.55,1.36-3,2.35-4.32.12-.16.34-.19.5-.07.16.12.19.34.07.5-.95,1.26-1.71,2.65-2.25,4.13-.05.15-.19.24-.34.24Z"/><ellipse class="cls-40" cx="95.8" cy="93.94" rx="3.26" ry="2.5"/><rect class="cls-22" x=".26" y="147.85" width="189.74" height="62.15"/><path class="cls-41" d="M136.76,113.72c-1.16,5.19-2.12,10.8-1.39,16.11,1.77,12.5,9.09,23.93,2,38.16-.53,1.06-1.04,2.7.9,2.7h19.23c1.94,0,1.43-1.63.9-2.7-7.1-14.23.22-25.67,1.98-38.16.75-5.31-.2-10.92-1.37-16.11h-22.25Z"/><path class="cls-3" d="M137.39,114.52c-.45,2.06-.84,4.15-1.12,6.23-.39,2.96-.51,6-.1,8.96.12.8.24,1.59.41,2.37.51,2.63,1.2,5.23,1.92,7.82.71,2.61,1.43,5.25,1.94,7.92.98,5.06,1.1,9.7-.04,14.31h14.97c-1.12-4.61-1-9.25-.02-14.31,1.18-6.08,3.39-11.97,4.24-18.11.43-2.96.29-6-.1-8.96-.27-2.08-.67-4.17-1.12-6.23h-20.96Z"/><path class="cls-13" d="M154.91,150.37c.12-.84.27-1.69.43-2.55,1.18-6.08,3.39-11.97,4.24-18.11.43-2.96.29-6-.1-8.96-.27-2.08-.67-4.17-1.12-6.23h-17.58c-.24,2.27-.37,4.66-.37,7.09,0,16.13,5.55,29.2,12.38,29.2.73,0,1.43-.14,2.12-.43h0Z"/><path class="cls-25" d="M137.39,114.52c-.45,2.06-.84,4.15-1.12,6.23-.08.71-.16,1.43-.22,2.14h23.67c-.06-.71-.14-1.43-.24-2.14-.27-2.08-.67-4.17-1.12-6.23h-20.96Z"/><path class="cls-9" d="M140.41,122.89h19.31c-.06-.71-.14-1.43-.24-2.14-.27-2.08-.67-4.17-1.12-6.23h-17.58c-.24,2.27-.37,4.66-.37,7.09v1.29h0Z"/><path class="cls-45" d="M135.97,112.09c.49-.98,1.35-2,2.26-2.08,3.71-.31,2.49.57,5.38-1.18,5.32-3.23,5.61.06,8.2.06s5.06-.27,6.24,2.47c.1.25,1.22-.06,2.14.31.71.29,1.31,1,1.18,2.72-.14,1.61-3.79-.55-3.79,2.25,0,5.96-5.83-3.33-5.83,2.16,0,4.35-5.3,3.7-5.02-1.76.04-1-1.51-2.08-3.02-.88-1.02.8-2.18-.16-3.2-.9-2.06-1.47-1.45-.14-2.59-.02-1.1.12-3.12-.8-1.96-3.14h0Z"/><path class="cls-32" d="M154.1,123.69c1.35,0,2.43,2.55,2.43,5.72s-1.08,5.74-2.43,5.74-2.43-2.57-2.43-5.74,1.08-5.72,2.43-5.72h0Z"/><path class="cls-41" d="M38.94,149.91h-2.57c1.81.84,1.32,10.38.52,14.94-1.96.26-8.96.3-9.63,2.05h23.38c-.67-1.75-7.67-1.79-9.63-2.05-.8-4.56-1.3-14.1.52-14.94h-2.59Z"/><path class="cls-6" d="M38.94,149.91h-2.57c.48.22.78,1.04.97,2.21,1.08.06,2.14.06,3.22,0,.17-1.17.5-1.99.97-2.21h-2.59Z"/><path class="cls-41" d="M28.02,111.62h21.87c-2.5,10.9,1.66,12.93,3.58,17.9,10.75,27.63-39.79,27.63-29.04,0,1.92-4.97,6.09-7.01,3.58-17.9h0Z"/><path class="cls-35" d="M29.03,119.94c-.04.32-.11.63-.17.95-.24,1.06-.58,2.05-1.04,3.03-.41.86-.91,1.69-1.38,2.51-.6,1.06-1.21,2.1-1.66,3.22-1.99,5.17-2.4,10.94,1.58,15.29,3.13,3.44,8.08,4.93,12.59,4.93s9.48-1.49,12.61-4.93c3.97-4.35,3.56-10.12,1.58-15.29-.45-1.12-1.06-2.16-1.66-3.22-.5-.82-.97-1.64-1.38-2.51-.45-.97-.8-1.97-1.04-3.03-.06-.32-.13-.63-.17-.95h-19.84Z"/><path class="cls-23" d="M47.1,148.14c1.68-.78,3.22-1.84,4.45-3.2,3.97-4.35,3.56-10.12,1.58-15.29-.45-1.12-1.06-2.16-1.66-3.22-.5-.82-.97-1.64-1.38-2.51-.45-.97-.8-1.97-1.04-3.03-.06-.32-.13-.63-.17-.95h-16.19c-.8,2.51-1.23,5.32-1.23,8.26,0,11.09,6.2,20.11,13.84,20.11.63,0,1.23-.06,1.81-.17h0Z"/><path class="cls-9" d="M28.51,112.01c.54,2.55.89,5.32.52,7.94h19.84c-.37-2.62-.02-5.38.52-7.94h-20.88Z"/><path class="cls-45" d="M45.61,108.66c-.91.28-1.3-1.6-4.92-1.6-2.63,0-4.38,2.08-7.17,1.06-.93-.35-2.87-.43-3.91.19-.56.37-.45.91-1.47,1.75-1.12.93-2.74,2.7.11,3.72.52.19,1.04.58,1.19,1.66.3,2.23,3.65-.24,3.52,2.62-.04.89,1.08,3.44,2.92,3.37,4.92-.17,2.03-5.58,5.31-4.65,3,1.79,2.79-3.78,4.69-2.51.91.95,3.3-.84,4.17-.84,4.02,0,.15-6.31-4.43-4.78h0Z"/><path class="cls-16" d="M48.96,129.82c-1.4,0-2.55,2.4-2.55,5.36s1.14,5.36,2.55,5.36,2.57-2.4,2.57-5.36-1.14-5.36-2.57-5.36h0Z"/><path class="cls-7" d="M49.73,66.02c-13.98.41-13.65,16.23-1.4,22.86.1-1.86.22-5.06.33-6.92-9.04-3.39-7.07-14.07.86-12.69.06-1.08.13-2.16.2-3.25h0Z"/><path class="cls-20" d="M40.92,69.92c-3.87,5.22-1.13,14.32,7.42,18.96.03-.61.07-1.37.1-2.16-12.64-6.76-7.73-16.39-7.52-16.8h0Z"/><path class="cls-8" d="M49.52,63.32l-.77,12.62c-.31,4.95-.63,10.23-.97,15.82-.03.5.35.89.84.89h20.56c.49,0,.86-.39.83-.89-.33-5.59-.65-10.87-.96-15.82l-.77-12.62h-18.75Z"/><path class="cls-7" d="M49.52,63.32l-.77,12.62c-.31,4.95-.63,10.23-.97,15.82-.03.5.35.89.84.89h20.56c.49,0,.86-.39.83-.89l-.03-.6c-22.04,1.6-19.32-22.32-18.41-27.84h-2.05Z"/><path class="cls-7" d="M63.21,63.32l1.38,29.33h.67l-1.4-29.33h-.65ZM58.57,63.32v29.33h.65v-29.33h-.65ZM53.91,63.32l-1.38,29.33h.65l1.38-29.33h-.65Z"/><path class="cls-20" d="M64.52,91.01l.07,1.65h.67l-.07-1.56c-.23-.03-.45-.06-.67-.09h0ZM53.02,82.26c.17.41.38.83.6,1.22l-.44,9.16h-.65l.49-10.39ZM58.57,88.89c.2.13.42.25.65.38v3.38h-.65v-3.76Z"/><polygon class="cls-32" points="49.25 67.48 49.02 71.41 68.77 71.41 68.52 67.48 49.25 67.48"/><path class="cls-15" d="M49.25,67.48l-.23,3.93h1.94c-.01-1.4.03-2.74.12-3.93h-1.82Z"/><polygon class="cls-32" points="48.34 82.63 48.09 86.56 69.68 86.56 69.45 82.63 48.34 82.63"/><path class="cls-15" d="M48.34,82.63l-.25,3.93h7.67c-1.06-1.18-1.91-2.52-2.58-3.93h-4.85Z"/><path class="cls-31" d="M52.63,64.34c-.25,1.85.07,3.07.63,3.7.19.2.39.34.61.39.2.04.44.03.65-.06.55-.23,1.08-.86,1.4-1.91.09-.25.36-.39.63-.32.15.04.25.13.31.23.31.48.61.82.92,1.01.36.23.73.28,1.08.19.39-.1.79-.36,1.16-.73.64-.61,1.18-1.49,1.51-2.33.09-.25.38-.36.64-.28.1.03.17.09.23.16.28.32.6.54.95.67.32.12.65.16.96.12.32-.04.61-.15.86-.34.25-.19.45-.44.6-.77.1-.23.39-.35.65-.26.01.01.03.01.04.01h0c.68.34,1.19.44,1.62.41.29-.03.55-.13.81-.26.01-.5-.09-.92-.25-1.25-.17-.35-.44-.61-.74-.8-.33-.2-.73-.32-1.16-.35-.65-.04-1.4.09-2.15.41-.25.12-.55,0-.67-.23h0c-.1-.2-.22-.39-.33-.57-.45-.66-.96-1.05-1.54-1.19-.57-.13-1.24-.03-1.98.29-.22.09-.44.2-.67.35-.23.13-.54.07-.68-.13-.28-.34-.55-.6-.84-.82-.64-.51-1.32-.73-1.98-.73s-1.32.25-1.94.68c-.31.22-.6.48-.87.79-.1.12-.23.17-.38.17-2.1.13-3.32.85-3.8,1.62-.17.31-.25.6-.2.87.03.25.17.48.41.66.52.39,1.5.51,2.88.07.26-.09.55.04.64.29.03.07.04.16.01.23h0Z"/><path class="cls-39" d="M33.74,67.72c-1.68.69-1.84,2.71-1.77,3.84.07,1.13-1.06,3.17-.58,4.7.47,1.52.87,1.64.46,2.51-.5,1.07-.16,3.22.15,4.03.26.68-.9,2.8.69,4.05,1.59,1.25,9.55,1.57,11.61.3,2.06-1.27.89-3.78.5-4.07-.4-.29,4.34-1.1,1.29-5.47,0,0,2.64-2.14-.46-5.25,0,0,2.78-3.9-.68-4.82s-9.11-.66-11.2.19Z"/><path class="cls-17" d="M44.73,82.97c0,.11-.07.21-.18.23-3.13.5-5.05.61-8.15-.06-.12-.03-.19-.14-.17-.26.03-.12.14-.19.26-.17,3.05.66,4.86.55,7.99.06.12-.02.23.06.25.18,0,0,0,.01,0,.02Z"/><path class="cls-17" d="M46.15,77.6c0,.11-.08.21-.19.23-2.3.29-6.63.67-9.84,0-.12-.02-.19-.14-.17-.26.02-.12.14-.19.26-.17,3.16.66,7.43.28,9.7,0,.12-.02.23.07.24.19,0,0,0,0,0,.01Z"/><path class="cls-17" d="M45.59,72.28c0,.11-.07.21-.19.23-3.12.42-6.42.77-9.59-.05-.12-.03-.19-.15-.16-.27.03-.12.15-.19.26-.16,3.09.8,6.35.46,9.42.05.12-.02.23.07.24.19,0,0,0,.01,0,.02Z"/><path class="cls-34" d="M168.91,167.57c.08.01.16.02.24.04.03,0,.08,0,.14.02.26.02.52.06.78.08.52.04,1.04.07,1.56.09,1.04.04,2.08.03,3.12.04,1.94.01,3.88.17,5.83.18.98,0,1.96-.02,2.93-.13.06,0,.11-.01.17-.02.03,0,.07-.01.12-.02.24-.04.47-.08.71-.13.47-.1.93-.23,1.38-.37.16-.05.32-.08.47-.09v-56.99c0-3.69-2.53-6.88-6.19-8.34-.15-1.13-.2-3.81-.21-6.96-1.73,0-3.47.1-5.2.03-.97-.04-1.95-.15-2.91-.31-.12-.02-.24-.04-.37-.06,0,3.26-.06,6.07-.21,7.26-3.7,1.44-6.27,4.65-6.27,8.37,0,0,0,0,0,0v56.71c1.3.16,2.59.4,3.9.61Z"/><path class="cls-27" d="M179.97,95.13c0,.23,0,.47,0,.7,0-.23,0-.46,0-.7Z"/><path class="cls-27" d="M179.97,95.12c0-.47,0-.95,0-1.44,0,.49,0,.97,0,1.44Z"/><path class="cls-27" d="M179.97,92.94c0,.25,0,.49,0,.74,0-.24,0-.49,0-.74Z"/><path class="cls-29" d="M179.97,95.12s0,0,0,0c0,0,0,0,0,0Z"/><path class="cls-27" d="M180.11,80.02c0-.12-2.26-.63-4.39-.61-2.12-.01-4.39.5-4.39.61.01,1.42.13,7.14.15,12.92,0,.99,0,1.96,0,2.88,1.39.06,2.81.1,4.26.1s2.85-.03,4.23-.09c0-.92,0-1.89,0-2.88.02-5.79.13-11.5.15-12.92Z"/><path class="cls-27" d="M180,79.96s.01,0,.02,0c0,0-.01,0-.02,0Z"/><path class="cls-27" d="M179.46,79.81s.1.02.14.03c-.04-.01-.09-.02-.14-.03Z"/><path class="cls-4" d="M171.81,80.74c.35-.19,1.46-.47,1.81-.45-.05,1.32,0,14.87,0,14.87h-1.66l-.15-14.43Z"/><path class="cls-27" d="M180.08,79.99s0,0,0,0c0,0,0,0,0,0Z"/><path class="cls-27" d="M180.06,79.98s0,0,0,0c0,0,0,0,0,0Z"/><path class="cls-27" d="M179.95,79.94s.01,0,.02,0c0,0-.01,0-.02,0Z"/><path class="cls-27" d="M179.79,79.89s.02,0,.04.01c-.01,0-.02,0-.04-.01Z"/><path class="cls-27" d="M179.7,79.87s.03,0,.05.01c-.01,0-.03,0-.05-.01Z"/><path class="cls-27" d="M179.89,79.92s.02,0,.02,0c0,0-.02,0-.02,0Z"/><path class="cls-27" d="M179.61,79.84s.04,0,.05.01c-.02,0-.03,0-.05-.01Z"/><path class="cls-27" d="M180.1,80.01s0,0,0,0c0,0,0,0,0,0Z"/><path class="cls-27" d="M179.36,79.79s.05.01.08.02c-.03,0-.05-.01-.08-.02Z"/><path class="cls-27" d="M177.22,79.47c.83.07,1.59.2,2.13.31-.53-.11-1.29-.24-2.13-.31Z"/><polygon class="cls-29" points="177.22 79.47 177.22 79.47 177.22 79.47 177.22 79.47"/><path class="cls-29" d="M179.67,79.86s.02,0,.04,0c-.01,0-.02,0-.04,0Z"/><path class="cls-29" d="M179.44,79.8s.01,0,.02,0c0,0,0,0-.02,0Z"/><path class="cls-29" d="M179.6,79.84s.01,0,.02,0c0,0-.01,0-.02,0Z"/><path class="cls-29" d="M179.34,79.78s.01,0,.02,0c0,0-.01,0-.02,0Z"/><path class="cls-29" d="M179.75,79.88s.03,0,.04.01c-.01,0-.03,0-.04-.01Z"/><path class="cls-29" d="M179.82,79.9s.04.01.06.02c-.02,0-.04-.01-.06-.02Z"/><path class="cls-29" d="M180.11,80.01s0,0,0,.01c0,0,0,0,0-.01Z"/><path class="cls-29" d="M180.09,80s0,0,.01,0c0,0,0,0-.01,0Z"/><path class="cls-29" d="M179.97,79.94s.02,0,.03.01c-.01,0-.02,0-.03-.01Z"/><path class="cls-29" d="M180.06,79.98s.02,0,.02.01c0,0-.01,0-.02-.01Z"/><path class="cls-29" d="M180.02,79.96s.03.01.04.02c-.01,0-.02-.01-.04-.02Z"/><path class="cls-29" d="M179.91,79.92s.03,0,.04.01c-.01,0-.02,0-.04-.01Z"/><path class="cls-12" d="M179.97,95.82c0-.23,0-.46,0-.7,0,0,0,0,0,0,0-.47,0-.95,0-1.44h0c0-.25,0-.49,0-.74.02-5.79.13-11.5.15-12.92,0,0,0,0,0-.01,0,0-.01,0-.02-.01,0,0-.03-.02-.04-.02-.01,0-.05-.02-.05-.02-.01,0-.08-.03-.09-.03,0,0-.19-.05-.21-.06-.01,0-.35-.08-.36-.08-.53-.11-1.29-.24-2.13-.31,0,0,0,0,0,0v16.44c.93-.01,1.85-.04,2.75-.08,0,0,0,0,0,0Z"/><path class="cls-37" d="M171,82.3c.09-.18.23-.32.36-.37.14-.05,2.1-.4,4.23-.4s4.31.33,4.48.39c.17.06.37.38.37.38l-3.3.82-5.31.06-.85-.88Z"/><path class="cls-36" d="M171.1,84.95c.12.1.27.16.31.19.35-.09,2.82-.34,4.12-.34s4.11.22,4.49.35c.13-.08.34-.21.34-.21l-1.93-1.01-5.03-.24-2.31,1.26Z"/><path class="cls-27" d="M180.36,84.95c-3.07-.54-6.2-.54-9.27,0-.03-.88-.06-1.77-.09-2.65,3.13-.55,6.33-.55,9.45,0-.03.88-.06,1.77-.09,2.65Z"/><path class="cls-12" d="M180.09,81.92c-.13-.04-1.35-.24-2.85-.33l.14.35s.24,1.15.05,2.68c-.06.1-.16.22-.18.25,1.23.08,2.53.2,2.78.29.13-.08.34-.21.34-.21.03-.88.06-1.77.09-2.65,0,0-.2-.32-.37-.38Z"/><path class="cls-46" d="M171.82,81.83s-.16.24-.19.35c-.03.11.06,2.47.06,2.47,0,0,1.26-.21,1.66-.22v-2.45s.11-.35.24-.38c-.6.05-1.77.22-1.77.22Z"/><path class="cls-38" d="M186.37,165.75v-55.5c0-3.69-2.53-6.88-6.19-8.34-.11-.86-.17-1.78-.2-3.94-1.32.1-2.7.15-4.13.15-1.52,0-2.99-.06-4.38-.17-.03,2.15-.08,3.06-.19,3.93-3.7,1.44-6.27,4.65-6.27,8.37,0,0,0,0,0,0v55.4c-.02.11-.02.22-.02.33v2.75c0,.11,0,.22.02.33.12.88.73,1.61,1.54,1.91.18.07.37.11.56.13,1.95.41,5.06.67,8.57.67s6.64-.27,8.59-.67c.29-.05.34-.06.5-.11.86-.3,1.5-1.08,1.59-2.02,0-.07.01-.15.01-.23v-2.75c0-.08,0-.15-.01-.23Z"/><path class="cls-2" d="M182,171.44s.03,0,.04,0c-.01,0-.03,0-.04,0h0Z"/><path class="cls-2" d="M180.05,100s0,0,0,.01c0,0,0,0,0-.01Z"/><path class="cls-2" d="M180.09,100.84s0,.02,0,.03c0-.01,0-.02,0-.03Z"/><path class="cls-2" d="M183.64,171.21s-.06,0-.09.01c.03,0,.06,0,.09-.01Z"/><path class="cls-2" d="M180.06,100.3s0,.01,0,.02c0,0,0-.01,0-.02Z"/><path class="cls-2" d="M182.76,171.35s-.05,0-.08.01c.03,0,.05,0,.08-.01Z"/><path class="cls-2" d="M183.43,171.25s-.06,0-.09.01c.03,0,.06,0,.09-.01Z"/><path class="cls-2" d="M183.21,171.28s-.06,0-.09.01c.03,0,.06,0,.09-.01Z"/><path class="cls-2" d="M182.53,171.38s-.05,0-.08.01c.03,0,.05,0,.08-.01Z"/><path class="cls-2" d="M182.28,171.41s-.05,0-.08,0c.03,0,.05,0,.08,0Z"/><path class="cls-2" d="M184.04,171.14s-.06.01-.09.02c.03,0,.06-.01.09-.02Z"/><path class="cls-2" d="M182.99,171.31s-.06,0-.09.01c.03,0,.06,0,.09-.01Z"/><path class="cls-2" d="M180.16,101.73s0,.02,0,.03c0,0,0-.02,0-.03Z"/><path class="cls-2" d="M184.23,171.1s-.06.01-.09.02c.03,0,.06-.01.09-.02Z"/><path class="cls-2" d="M180.14,101.53s0,.02,0,.03c0-.01,0-.02,0-.03Z"/><path class="cls-2" d="M183.84,171.18s-.06.01-.09.02c.03,0,.06-.01.09-.02Z"/><path class="cls-2" d="M180.1,101.09s0,.02,0,.03c0-.01,0-.02,0-.03Z"/><path class="cls-2" d="M183.75,171.19s-.08.01-.12.02c.04,0,.08-.01.12-.02Z"/><path class="cls-2" d="M183.12,171.29s-.09.01-.14.02c.05,0,.09-.01.14-.02Z"/><path class="cls-2" d="M183.55,171.23s-.08.01-.12.02c.04,0,.08-.01.12-.02Z"/><path class="cls-2" d="M183.95,171.16s-.07.01-.11.02c.04,0,.07-.01.11-.02Z"/><path class="cls-2" d="M183.34,171.26s-.09.01-.13.02c.04,0,.09-.01.13-.02Z"/><path class="cls-2" d="M184.14,171.12s-.07.01-.1.02c.03,0,.07-.01.1-.02Z"/><path class="cls-2" d="M180.11,101.12c0,.14.02.28.03.4-.01-.12-.02-.26-.03-.4Z"/><path class="cls-2" d="M180.16,101.75c0,.05.01.11.02.15,0-.05-.01-.1-.02-.15Z"/><path class="cls-2" d="M180.14,101.56c0,.06.01.11.02.17,0-.05-.01-.11-.02-.17Z"/><path class="cls-2" d="M180.09,100.87c0,.08,0,.15.01.22,0-.07,0-.15-.01-.22Z"/><path class="cls-2" d="M180.06,100.32c0,.18.02.36.03.52,0-.16-.02-.34-.03-.52Z"/><path class="cls-2" d="M186.37,165.75v3.2c0-.07.01-.15.01-.23v-2.75c0-.08,0-.15-.01-.23Z"/><path class="cls-2" d="M182.9,171.33s-.1.01-.14.02c.05,0,.1-.01.14-.02Z"/><path class="cls-2" d="M182.68,171.36c-.05,0-.1.01-.15.02.05,0,.1-.01.15-.02Z"/><path class="cls-2" d="M180.05,100.02c0,.1,0,.19.01.29,0-.09,0-.19-.01-.29Z"/><path class="cls-2" d="M182.44,171.39c-.05,0-.11.01-.16.02.05,0,.11-.01.16-.02Z"/><path class="cls-2" d="M182.2,171.42c-.05,0-.11.01-.16.02.06,0,.11-.01.16-.02Z"/><path class="cls-2" d="M179.98,97.13h0c.01,1.08.03,2.06.07,2.87-.03-.81-.05-1.79-.07-2.87Z"/><path class="cls-44" d="M180.18,101.91s-.03-.29-.04-.35c0-.01-.07-1.06-.08-1.24,0,0,0-.01,0-.02,0-.09-.07-2.09-.08-3.17,0-.42,0-.86-.01-1.31,0,0,0,0,0,0-.91.04-1.83.07-2.75.08v6.19s4.35,2.6,4.77,7.99c.38,4.92.07,53.76,0,61.35.01,0,.03,0,.04,0,.06,0,.59-.07.64-.08.03,0,.18-.02.23-.03.03,0,.39-.06.44-.07.03,0,.37-.06.41-.07.03,0,.25-.05.28-.05.03,0,.16-.03.19-.04.2-.04.38-.08.55-.13.86-.3,1.5-1.08,1.59-2.02v-58.71c0-3.69-2.53-6.88-6.19-8.34Z"/><path class="cls-4" d="M172.02,96.65l-.12,5s1.09-.05,1.53,0c.11-1.26.12-5.06.12-5.06l-1.53.07Z"/><path class="cls-26" d="M185.28,153.44c-5.95,3.28-13.16,3.28-19.11,0v-26.9c5.95-3.28,13.16-3.28,19.11,0v26.9Z"/><path class="cls-21" d="M182.1,154.84c1.09-.37,2.15-.84,3.18-1.4v-26.9c-1-.55-2.04-1.01-3.11-1.38.01,8.99-.03,20.35-.07,29.68Z"/><g class="cls-47"><path class="cls-43" d="M168.23,106.15c-.83,1.31-1.31,2.81-1.31,4.41,0,0,0,0,0,0v58.71c.98.18,2.27.35,3.53.4v-58.38s0,0,0,0c0-1.68.53-3.26,1.45-4.62-.88-.1-2.73-.32-3.67-.51Z"/><path class="cls-43" d="M169.8,104.28c-.45.41-.85.86-1.2,1.33.83.17,2.37.46,3.68.52.41-.53.89-1.01,1.42-1.45-1.45-.02-2.79-.17-3.9-.4Z"/></g></g></g></g></svg>