<?xml version="1.0" encoding="UTF-8"?><svg xmlns="http://www.w3.org/2000/svg" xmlns:xlink="http://www.w3.org/1999/xlink" viewBox="0 0 190 210"><defs><style>.cls-1{fill:#61ad4e;}.cls-1,.cls-2,.cls-3,.cls-4,.cls-5,.cls-6,.cls-7,.cls-8,.cls-9,.cls-10,.cls-11,.cls-12,.cls-13,.cls-14{stroke-width:0px;}.cls-15{clip-path:url(#clippath);}.cls-2{fill:none;}.cls-3{fill:#7fb3d4;}.cls-4{fill:url(#DÈgradÈ_sans_nom_48);}.cls-5{fill:#fd6c50;}.cls-16{clip-path:url(#clippath-1);}.cls-17{clip-path:url(#clippath-2);}.cls-6{fill:#8bce6a;}.cls-7{fill:#f2f2eb;}.cls-8{fill:#7a6563;}.cls-9{fill:#fca984;}.cls-18{isolation:isolate;}.cls-10{fill:#fff;}.cls-11{fill:#aaafbf;opacity:.69;}.cls-11,.cls-14{mix-blend-mode:multiply;}.cls-12{fill:#f28973;}.cls-13{fill:#6bbf56;}.cls-14{fill:#8c8580;opacity:.65;}</style><clipPath id="clippath"><rect class="cls-2" width="190" height="210"/></clipPath><clipPath id="clippath-1"><rect class="cls-2" x="-163.38" y="-12.69" width="365.3" height="229"/></clipPath><linearGradient id="DÈgradÈ_sans_nom_48" x1="19.27" y1="122.39" x2="19.27" y2="-43.23" gradientUnits="userSpaceOnUse"><stop offset="0" stop-color="#82f0fa"/><stop offset="1" stop-color="#00c7f0"/></linearGradient><clipPath id="clippath-2"><rect class="cls-2" x="78.09" y="113.09" width="62.28" height="80.77"/></clipPath></defs><g class="cls-18"><g id="Layer_2"><g id="Image_4"><g class="cls-15"><g class="cls-16"><rect class="cls-4" x="-163.38" y="-12.69" width="365.3" height="229"/><path class="cls-1" d="M32.26,107.28c.65-.68,1.15-1.53,1.31-2.45.37-2.07-1.12-3.8-2.59-4.45.85-.26,1.56-.69,2.01-1.26,1.36-1.72.76-6.29-1.61-9.02.52-.62.91-1.38,1.01-2.17.26-2.09-1.62-3.65-3.04-3.84-.41-.06-.87.02-1.33.21,0,0,0-.01,0-.02.41-3.37-2.61-5.89-4.9-6.2-.94-.13-2.05.18-3.08.82-.16-3.97-3.81-6.85-6.64-7.23-1.96-.27-4.53.9-6.28,2.96-1-1.48-2.64-2.46-4.02-2.65-1.75-.24-4.15,1.06-5.37,3.2-1.11-.85-2.37-1.4-3.49-1.55-3.08-.42-7.65,2.7-8.2,7.23-.22,1.78.22,3.52,1.01,4.99-.56.18-1.13.42-1.69.72-1.7-.74-3.48-.95-4.88-.54-2.99.87-6.08,5.86-6.05,10.49-3.97-.79-7.93,1.56-8.66,4.09-.72,2.48,1.87,7.1,5.58,8.9-.29.91-.39,1.91-.15,2.8.62,2.36,3.3,3.14,4.9,2.68.46-.13.93-.44,1.34-.86,0,0,0,.02,0,.02,1,3.81,5.32,5.07,7.91,4.32,1.06-.31,2.12-1.17,2.95-2.34,1.87,4.18,7.01,5.53,10.2,4.6.93-.27,1.86-.86,2.7-1.67,2.05-.14,4.57-1.12,6.46-2.84.68,3.99,3.78,7.38,6.6,7.94,3.05.6,7.91-2.45,9.81-6.63,3.24,2.55,7.77,2.26,9.48.33,1.68-1.9,1.28-7.24-1.3-10.57Z"/><path class="cls-8" d="M24.97,101.68c-2.32.27-4.64.71-6.92,1.32-1.15.3-2.28.67-3.4,1.06-1.12.41-2.23.86-3.33,1.37-1.09.51-2.17,1.07-3.22,1.68l-.03.02c-.89.52-1.93-.39-1.59-1.41,2.51-7.55,6.4-14.48,12.46-17.93l-.24-.88c-5.96,2.04-10.39,7.59-13.58,13.32-.79,1.42-2.72,1.51-3.62.16-.01-.02-.03-.04-.04-.06-1-1.48-1.51-3.28-1.42-5.1.12-2.5-.12-5.03-.86-7.4l-.8.27c.35,1.91.36,3.88.13,5.81-.13,1.05-1.3,1.55-2.1.89-2.41-1.99-5.13-3.55-7.96-4.72l-.47,1.13c4.81,2.41,9.29,6.22,11.89,11.14,1.35,2.57,1.58,5.63.64,8.4-.92,2.7-1.69,5.48-2.35,8.27-.23.98-1.05,1.27-1.81.66-2.12-1.73-2.65-3.54-9.64-16.03l-2,1.91c3.64,6.08,6.97,12.4,9.2,19.21.02.05.03.1.05.15,1.26,3.85,1.73,7.94,1.35,12-.17,1.84-.31,3.68-.42,5.48-.1,1.28-.17,3.04-.22,4.35-.04.81.6,1.55,1.32,1.84.71.2,1.48.26,2.21.34,0,0,0,0,0,0,0,0,0,0,0,0,.71-.07,1.47-.14,2.16-.31.73-.26,1.43-.96,1.42-1.78-.18-7.64.04-15.37.9-22.96.19-1.6.68-4.62,1-6.45.18-1.03.64-1.99,1.31-2.77,0,0,0,0,.01-.01.72-.82,1.5-1.61,2.32-2.35.82-.74,1.68-1.45,2.58-2.11.9-.66,1.83-1.27,2.79-1.85.96-.57,1.95-1.1,2.96-1.6,1.02-.48,2.04-.94,3.1-1.34,2.1-.81,4.28-1.47,6.49-1.97l-.27-1.74Z"/><path class="cls-13" d="M39.05,105.4c-.27-.24-.56-.44-.85-.61.92-1.4.48-3.52-1.03-4.92.44-1.22-.05-2.83-1.3-3.9-.53-.45-1.11-.74-1.7-.88.52-1.93-.05-4.08-1.62-5.43-1.57-1.35-3.69-1.5-5.37-.58-.21-1.63-1.02-3.23-2.4-4.41-2.52-2.17-6.01-2.12-8.05.02-2.39-1.68-6.47-1.54-8.25.76-1.89,2.43-.5,6.36,1.81,8.35.65.55,1.38.92,2.13,1.12-.11,1.99,1.36,4.55,3.23,6.15,1.5,1.29,3.29,1.82,4.8,1.57.15.67.5,1.3,1.05,1.77.43.37.92.59,1.42.68.31.63.75,1.22,1.33,1.71,1.66,1.43,3.86,1.58,5.25.47.31.55.74,1.1,1.3,1.57,1.63,1.4,3.63,1.66,4.47.57.08-.1.14-.21.2-.33.13.13.27.26.41.39,1.67,1.43,3.73,1.68,4.6.55.87-1.13.23-3.2-1.44-4.64Z"/><path class="cls-13" d="M24.15,80.59c-.28,0-.55.03-.82.06.41-1.59.08-3.2-1-4.14-1.13-.98-2.77-.97-4.21-.14-.7-1.06-2.06-1.76-3.61-1.74-.89.01-1.71.27-2.37.68-.44-.56-.97-1.04-1.57-1.41.7-1.76.68-3.39-.21-4.15-1.21-1.04-3.59-.12-5.52,2.06-1.01-1.48-3.17-1.98-5.2-1.15-.03-.25-.1-.49-.2-.73-.72-1.73-2.97-2.35-5.03-1.4-1.27.59-2.17,1.64-2.5,2.76-1.63-1.44-3.96-1.88-6.04-.91-2.05.95-3.32,3-3.44,5.21-1.46-.28-3.06-.11-4.57.59-3.5,1.62-5.32,5.48-4.29,8.87-2.77,1.63-4.74,5.75-3.87,8.9.04.4.13.81.25,1.2-2.95,1.73-5,6.3-3.66,9.5,1.41,3.38,6.06,3.96,9.27,2.48,1.19-.55,2.14-1.43,2.79-2.5.45,1.47,1.23,2.63,2.31,3.1,2.6,1.11,5.95-2.26,7.34-5.84.24-.62.4-1.24.51-1.86,1.01.8,2.38,1.01,3.62.44.59-.27,1.08-.69,1.44-1.2.79,0,1.62-.17,2.42-.54,1.55-.72,2.66-2,3.11-3.42.31.02.61.03.92.03,2.28-.04,4.27-.99,5.45-2.41.62.49,1.39.77,2.22.76.65-.01,1.25-.2,1.77-.52.73.32,1.55.5,2.43.48,2.53-.04,4.61-1.65,5.07-3.76.67.25,1.46.39,2.3.38,2.47-.04,4.46-1.41,4.43-3.05,0-.15-.02-.31-.06-.45.21.02.43.02.65.02,2.53-.04,4.56-1.46,4.54-3.17-.03-1.71-2.1-3.06-4.63-3.02Z"/><path class="cls-13" d="M38.43,93.9c-1.16,1.1-3.07.86-3.07.86,0,0-.04-2.03,1.11-3.13,1.16-1.1,3.07-.86,3.07-.86,0,0,.04,2.03-1.11,3.13Z"/><path class="cls-13" d="M7.07,67.53c-.97,1.29-2.9,1.37-2.9,1.37,0,0-.36-2,.61-3.28.97-1.29,2.9-1.37,2.9-1.37,0,0,.36,2-.61,3.28Z"/><path class="cls-13" d="M2.74,64.61c.86,1.37.34,3.33.34,3.33,0,0-1.91-.26-2.77-1.63s-.34-3.33-.34-3.33c0,0,1.91.26,2.77,1.63Z"/><path class="cls-1" d="M14.86,84.79c1.55-.14,2.94,1.27,2.94,1.27,0,0-1.13,1.65-2.69,1.79-1.55.14-2.94-1.27-2.94-1.27,0,0,1.13-1.65,2.69-1.79Z"/><path class="cls-1" d="M24.62,123.05c-.77-1.43-.13-3.34-.13-3.34,0,0,1.89.39,2.67,1.82.77,1.43.13,3.34.13,3.34,0,0-1.89-.39-2.67-1.82Z"/><path class="cls-1" d="M30.5,123.31c-1.41-.7-1.94-2.65-1.94-2.65,0,0,1.76-.83,3.18-.13,1.41.7,1.94,2.65,1.94,2.65,0,0-1.76.83-3.18.13Z"/><path class="cls-10" d="M179.68,100.45c-.54,0-1.06.04-1.56.12.07-.22.11-.45.11-.69,0-1.83-2.37-5-5.28-5-1.22,0-2.34.55-3.24,1.33-1.5-1.22-3.77-2-6.31-2-2.35,0-4.47.67-5.97,1.74-2.01-1.92-4.63-3.34-7.5-3.34-5.48,0-10.05,5.16-11.16,9.11-.55-.08-1.12-.12-1.71-.12-4.52,0-8.18,2.47-8.18,5.52s3.66,3.48,8.18,3.48c2.87,0,5.39-.17,6.85-1.08,1.75.68,3.81,1.08,6.02,1.08,3.69,0,6.98-1.1,9.06-2.81,1.4,1.67,4.26,2.81,7.56,2.81,3.67,0,6.79-1.41,7.97-3.39,1.24.53,3.08.64,5.15.64,3.72,0,6.73-.35,6.73-2.86s-3.01-4.54-6.73-4.54Z"/><path class="cls-6" d="M105.72,103.75c108.36-9.91,197.96,72.14,197.96,72.14L-28.15,158.01s60.12-47.52,133.87-54.27Z"/><path class="cls-13" d="M214.32,179.08l-37.02,120.02-368.13-72.81-34.43-54.03,29.48-58.67,8.21-16.33s7.93-1.65,21.65-2.39c14.96-.81,36.82-.52,62.81,4.19,43.58,7.89,52.64,30.67,84.39,41.71h0s0,0,0,0c4.54,1.58,9.55,2.92,15.19,3.94,8.84,1.6,17.22,2.27,25.44,2.39,11.76.17,23.2-.77,35.21-1.69,1.78-.14,3.58-.27,5.39-.4,17.18-1.25,35.76-2.12,58.27.59,4.88.59,9.95,1.34,15.23,2.3,61.52,11.14,78.31,31.2,78.31,31.2Z"/><path class="cls-1" d="M116.2,62.14c.4,0,.78.04,1.14.1.14-1.89,1.95-3.4,4.2-3.5.44-1.39,1.95-2.41,3.74-2.41.76,0,1.47.18,2.06.5.84-2.06,2.78-3.5,5.05-3.5s4.2,1.44,5.04,3.49c1.27-1.26,3.06-2.04,5.04-2.04,3.64,0,6.63,2.64,6.96,6,3.2.32,6.64,3.48,6.64,6.8,0,3.51-3.84,5.89-7.17,5.89-.93,0-1.81-.22-2.6-.62-1.24,1.8-4.24,2.93-6.93,2.93-2.16,0-4.07-.87-5.22-2.21-.58.47-1.31.75-2.1.75-.61,0-1.19-.17-1.69-.47-.69.32-1.47.5-2.3.5-2.4,0-4.41-1.5-4.87-3.5-.64.25-1.38.4-2.18.4-2.35,0-4.26-1.27-4.26-2.83,0-.15.02-.29.05-.43-.2.02-.41.03-.62.03-2.41,0-4.36-1.32-4.36-2.95s1.95-2.95,4.36-2.95Z"/><path class="cls-1" d="M142.23,41.89c-.52-.51-.95-1.17-1.25-1.94-.87-2.3-.16-4.76,1.57-5.48.16-.07.33-.12.5-.15-.1-.19-.18-.39-.26-.59-.89-2.35-.14-4.88,1.67-5.64.69-.29,1.44-.28,2.15-.03,1.11-1.17,2.6-2.04,4.31-2.4,0-3.39,3.35-7.46,7.3-7.95,4.18-.52,7.45,3.13,7.85,6.62.11.97-.05,1.93-.43,2.81.97.43,1.83,1.22,2.53,2.19.71-.5,1.53-.72,2.35-.55,1.91.39,3.09,2.72,2.63,5.21-.08.41-.19.79-.34,1.16,2.2.6,3.63,2.83,3.31,5.18,1.55.79,2.46,2.59,2.12,4.44-.14.78-.49,1.47-.98,2.01,2.26,1.36,3.59,3.71,3.16,6.05-.43,2.34-2.49,4-5.07,4.38,1.23,1.61,1.82,3.65,1.44,5.7-.69,3.76-4.36,6.22-8.38,5.75-.99,3.23-5.35,6.03-9.26,5.23-.88-.18-1.66-.52-2.34-.99-3.51.72-6.89-1.71-8-4.64-.34-.91-.42-1.88-.27-2.83-2.46-.37-4.83-2.78-5.82-5.41-.8-2.12-.53-4.39.53-6.13-.74-.35-1.32-.93-1.61-1.7-.23-.6-.25-1.24-.1-1.87-.61-.52-1.1-1.21-1.4-2.02-.89-2.35.04-5.01,2.09-6.39Z"/><path class="cls-8" d="M139.8,66.85c3.47,5.78,6.62,11.79,8.75,18.26.02.05.03.1.05.15,1.22,3.71,1.63,7.65,1.27,11.56-.16,1.7-.29,3.4-.39,5.06-.09,1.22-.16,2.89-.21,4.13-.04.77.57,1.47,1.26,1.75.67.19,1.41.25,2.1.32,0,0,0,0,0,0h0c.68-.06,1.4-.13,2.06-.3.7-.24,1.36-.91,1.35-1.69-.17-7.27.04-14.61.86-21.83,1.35-11.52,5.02-28.34,15.47-34.3l-.23-.83c-5.68,1.94-9.89,7.23-12.92,12.68-.75,1.35-2.58,1.42-3.44.14-.01-.02-.02-.04-.04-.05-.96-1.42-1.44-3.14-1.36-4.88.11-2.37-.11-4.77-.82-7.02l-.76.25c.34,1.81.34,3.69.12,5.53-.12,1-1.24,1.47-1.99.85-2.29-1.89-4.88-3.37-7.57-4.48l-.44,1.07c4.57,2.29,8.84,5.91,11.3,10.59,1.29,2.44,1.51,5.34.62,7.97-.92,2.71-1.69,5.51-2.34,8.31-.2.87-1.34.97-1.68.15-2.24-5.51-5.64-10.55-10.15-14.21l-.86.83ZM152.62,108.08h0s0,0,0,0Z"/><path class="cls-13" d="M114.96,60.6c-.54-.54-.97-1.23-1.13-1.97-.41-1.96,1.25-3.6,2.58-3.9.38-.09.83-.05,1.28.09,0,0,0-.01,0-.02-.65-3.16,2.02-5.8,4.17-6.3.88-.2,1.96,0,2.98.52-.16-3.78,3.08-6.82,5.73-7.42,1.84-.42,4.36.47,6.18,2.27.83-1.49,2.31-2.56,3.6-2.86,1.64-.38,4.02.65,5.33,2.57.99-.9,2.13-1.53,3.19-1.77,2.89-.66,7.45,1.9,8.33,6.14.88,4.25-2.26,8.57-5.15,9.23-.55.13-1.17.11-1.82-.03.13,2.86-1.98,5.57-3.94,6.01-.71.16-1.59,0-2.48-.41.79,2.45.4,4.99-.74,6.03-1.4,1.27-5.23.69-7.78-1.5-.46,3.28-2.92,6.13-5.22,6.66-2.48.57-6.52-1.81-8.17-5.17-2.59,2.17-6.31,2.05-7.75.51-1.42-1.51-1.21-5.89.83-8.68Z"/><path class="cls-13" d="M153.69,34.45c-.01-.79.15-1.59.55-2.22,1.05-1.67,3.32-1.57,4.46-.78.33.23.62.59.84,1.03,0,0,0-.01,0-.02,1.69-2.7,5.35-2.54,7.19-1.26.75.52,1.37,1.47,1.73,2.61,2.45-2.76,6.78-2.45,9.05-.88,1.57,1.09,2.73,3.61,2.78,6.23,1.6-.41,3.36-.05,4.46.71,1.4.97,2.36,3.48,1.98,5.81,1.31.11,2.53.54,3.43,1.16,2.47,1.71,3.92,6.94,1.65,10.57-2.27,3.63-7.41,4.29-9.88,2.57-.47-.32-.89-.8-1.25-1.4-1.86,2.1-5.17,2.4-6.84,1.24-.61-.42-1.11-1.2-1.46-2.15-1.11,2.31-3.11,3.79-4.62,3.66-1.84-.16-4.13-3.46-4.41-6.9-2.56,1.95-6.21,2.09-8.18.72-2.12-1.47-3.33-6.17-2.2-9.77-3.28-.43-5.8-3.32-5.76-5.48.04-2.12,3.16-5.03,6.48-5.45Z"/><path class="cls-13" d="M180.87,63.87c.92,1.22,2.76,1.3,2.76,1.3,0,0,.34-1.9-.58-3.12-.92-1.22-2.76-1.3-2.76-1.3,0,0-.34,1.9.58,3.12Z"/><path class="cls-13" d="M182.43,33.83c-.82,1.3-.32,3.16-.32,3.16,0,0,1.82-.25,2.64-1.55.82-1.3.32-3.16.32-3.16,0,0-1.82.25-2.64,1.55Z"/><path class="cls-1" d="M185.34,55.49c-1.48-.14-2.8,1.21-2.8,1.21,0,0,1.08,1.56,2.55,1.7,1.48.14,2.8-1.21,2.8-1.21,0,0-1.08-1.56-2.55-1.7Z"/><path class="cls-1" d="M142.02,52.83c-1.29-.77-3.02-.13-3.02-.13,0,0,.36,1.9,1.64,2.67,1.29.77,3.02.13,3.02.13,0,0-.36-1.9-1.64-2.67Z"/><path class="cls-1" d="M123.58,60.06c-.77,1.33-.21,3.17-.21,3.17,0,0,1.81-.32,2.58-1.65.77-1.33.21-3.17.21-3.17,0,0-1.81.32-2.58,1.65Z"/><path class="cls-1" d="M127.44,63.9c.3,1.53,1.9,2.47,1.9,2.47,0,0,1.12-1.53.82-3.06-.3-1.53-1.9-2.47-1.9-2.47,0,0-1.12,1.53-.82,3.06Z"/><path class="cls-1" d="M136.51,39.46c1.16.97,2.97.6,2.97.6,0,0-.08-1.93-1.25-2.9-1.16-.97-2.97-.6-2.97-.6,0,0,.08,1.93,1.25,2.9Z"/><path class="cls-1" d="M137.18,34.01c.45,1.49,2.13,2.25,2.13,2.25,0,0,.96-1.65.51-3.13-.45-1.49-2.13-2.25-2.13-2.25,0,0-.96,1.65-.51,3.13Z"/><path class="cls-1" d="M120.59,76.26c1.34-.66,1.84-2.52,1.84-2.52,0,0-1.68-.79-3.02-.12-1.34.66-1.84,2.52-1.84,2.52,0,0,1.68.79,3.02.12Z"/><path class="cls-1" d="M156.67,108.19s3.18-1.44,3.12-4.67c-1.35-.45-4.28,2.36-4.28,2.36,0,0,2.46-3.6,1.51-5.43-1.9.14-3.51,3.7-3.51,3.7,0,0,1.01-3.84-1.2-5.64-1.51,1.96-1.61,4.28-.96,6.04-.39-.62-2.04-2.77-3.82-3.34-.44,2.58,1.06,4.05,2.06,5.2-.48-.26-2.77-2.13-4.61-1.61.44,1.34,2.65,3.38,4.39,3.39s7.3,0,7.3,0Z"/><path class="cls-1" d="M147.56,104.28s-.62-1.98-3.22-1.91c2.14,1.08,1.66,2.23,3.22,1.91Z"/><path class="cls-1" d="M157.41,103.12s.62-1.98,3.22-1.91c-2.14,1.08-1.66,2.23-3.22,1.91Z"/><ellipse class="cls-10" cx="119.55" cy="111.02" rx="2.77" ry=".45"/><path class="cls-10" d="M128.88,112.92c0,.16-.86.29-1.92.29-1.06,0-1.92-.13-1.92-.29s.86-.29,1.92-.29,1.92.13,1.92.29Z"/><ellipse class="cls-10" cx="97.08" cy="118.98" rx="1.92" ry=".29"/><ellipse class="cls-10" cx="142.56" cy="111.77" rx="1.6" ry=".29"/><ellipse class="cls-10" cx="104.32" cy="110.1" rx="1.6" ry=".29"/><path class="cls-10" d="M131.68,108.92c0,.14-.73.25-1.64.25s-1.64-.11-1.64-.25c0-.14.73-.25,1.64-.25s1.64.11,1.64.25Z"/><ellipse class="cls-10" cx="133.92" cy="112.92" rx="1.34" ry=".25"/><path class="cls-10" d="M138.75,109.84c0,.14-.44.25-.98.25s-.98-.11-.98-.25.44-.25.98-.25.98.11.98.25Z"/><path class="cls-10" d="M103.7,113.97c0,.14-.44.25-.98.25s-.98-.11-.98-.25.44-.25.98-.25.98.11.98.25Z"/><path class="cls-10" d="M111.37,112.06c0,.14-.44.25-.98.25s-.98-.11-.98-.25.44-.25.98-.25c.54,0,.98.11.98.25Z"/><ellipse class="cls-10" cx="117.33" cy="116.39" rx="1.25" ry=".29"/><path class="cls-10" d="M131.2,116.39c0,.15-.52.27-1.16.27s-1.16-.12-1.16-.27.52-.27,1.16-.27,1.16.12,1.16.27Z"/><path class="cls-10" d="M93.73,113.97c0,.15-.52.27-1.16.27s-1.16-.12-1.16-.27.52-.27,1.16-.27,1.16.12,1.16.27Z"/><path class="cls-10" d="M124.01,107.56c0,.15-.52.27-1.16.27s-1.16-.12-1.16-.27.52-.27,1.16-.27,1.16.12,1.16.27Z"/><ellipse class="cls-10" cx="113.63" cy="108.67" rx="1.29" ry=".28"/><ellipse class="cls-10" cx="109.41" cy="116.68" rx="1.29" ry=".28"/><path class="cls-10" d="M92.98,16.15c-.54,0-1.06.04-1.56.12.07-.22.11-.45.11-.69,0-1.83-2.37-5-5.28-5-1.22,0-2.34.55-3.24,1.33-1.5-1.22-3.77-2-6.31-2-2.35,0-4.47.67-5.97,1.74-2.01-1.92-4.63-3.34-7.5-3.34-5.48,0-10.05,5.16-11.16,9.11-.55-.08-1.12-.12-1.71-.12-4.52,0-8.18,2.47-8.18,5.52s3.66,3.48,8.18,3.48c2.87,0,5.39-.17,6.85-1.08,1.75.68,3.81,1.08,6.02,1.08,3.69,0,6.98-1.1,9.06-2.81,1.4,1.67,4.26,2.81,7.56,2.81,3.67,0,6.79-1.41,7.97-3.39,1.24.53,3.08.64,5.15.64,3.72,0,6.73-.35,6.73-2.86s-3.01-4.54-6.73-4.54Z"/><path class="cls-13" d="M157.59,198.54c.95,3.19,1.62,6.47,2.06,9.79.43,3.32.64,6.66.68,10.01.04,3.35-.11,6.7-.39,10.04-.3,3.34-.73,6.66-1.38,9.95-.1.15-.19.21-.26.19-.07-.02-.12-.12-.16-.29.68-3.25,1.15-6.56,1.48-9.88.32-3.32.51-6.66.5-10,0-3.34-.18-6.68-.57-10-.4-3.31-1.03-6.6-1.95-9.8Z"/><path class="cls-13" d="M168.36,199.65c.06,3.34-.17,6.7-.63,10.01-.47,3.31-1.16,6.59-2.01,9.82-.85,3.23-1.89,6.41-3.05,9.53-1.18,3.12-2.48,6.19-3.99,9.16-.2.07-.37.07-.5,0-.13-.08-.21-.22-.26-.44,1.55-2.89,2.9-5.91,4.14-8.98,1.22-3.07,2.32-6.21,3.24-9.4.92-3.19,1.67-6.44,2.21-9.73.53-3.29.84-6.63.84-9.97Z"/></g></g><polygon class="cls-12" points="142.58 190.76 81.73 199.01 70.68 117.54 132.34 109.18 140.65 175.43 142.06 186.65 142.58 190.76"/><polygon class="cls-14" points="138.61 159.14 138.61 191.3 108.05 195.44 81.24 195.44 76.39 159.7 76.39 116.76 100.74 113.46 100.8 113.45 132.88 113.45 132.88 113.46 138.61 159.14"/><path class="cls-11" d="M142.06,186.65c-5.18-2.75-7.74-12.42-8.07-13.76-.35-1.4-2.68-3.44-3.65-4.67,0,0-2.45-2.8-1.72-3.84l4.49,1.41s4.56,4.1,7.54,9.64l1.41,11.22Z"/><g class="cls-17"><path class="cls-10" d="M78.09,113.11v81.99h62.22v-81.99h-62.22ZM140.18,163.46v-20,20Z"/><path class="cls-7" d="M141.57,142.97c-.25,3.73-.72,7.16-1.39,10.33v10.16-10.16c-10.5,50.14-69.76,33.19-72.32,34.24-6.01,18.94,66.97,15.81,66.97,15.81l20-6.59-13.26-53.79Z"/></g><path class="cls-9" d="M140.18,144.26v18.61c.82,2.94,1.42,5.77,1.22,6.19-.15.33-.54.46-.85.28-.85-.5-2.95-2.27-4.61-4.85-1.78-2.78-2.69-3.87-4.07-4.71-2.36-1.43-3.15-.64-3.84.16-1.04,1.19-.27,2.66.89,4.9,1.15,2.22,8.55,13.48,10.19,15.29,2.16,2.4,7.55,7.52,8.83,9.3,1.44,1.98,5.85,15.15,5.85,15.15l17.98-.34c-2.52,1.1-8.72-2.29-12.31-13.82-1.35-4.33-3.1-8.94-4.01-14.47-2.76-16.76-11.49-31.17-15.27-31.68Z"/><path class="cls-3" d="M153.54,205l-5.23-11.73c-.08-.19-.04-.42.1-.57,0,0,.01-.01.02-.02l9.04-8.26c.22-.2.56-.18.75.05l12.81,15.01,1.35,5.53h-16.24s-2.61,0-2.61,0Z"/><rect class="cls-2" x="54.34" y="92.69" width="109.53" height="115.38"/><path class="cls-5" d="M140.23,151.88c2.24,1.38,3.67,3.76,4.83,6.05,1.1,2.32,1.9,4.9,2.33,7.42-1.77-4.68-3.44-9.95-7.16-13.47h0Z"/><path class="cls-5" d="M140.23,145.96c2.24,1.37,3.67,3.76,4.83,6.05,1.1,2.32,1.9,4.9,2.33,7.42-1.77-4.68-3.44-9.95-7.16-13.47h0Z"/><rect class="cls-2" y="5.17" width="190" height="198.13"/></g></g></g></svg>