<?xml version="1.0" encoding="UTF-8"?>
<svg xmlns="http://www.w3.org/2000/svg" viewBox="0 0 400 400">
  <defs>
    <style>
      .cls-1 {
        fill: #556b5a;
      }

      .cls-1, .cls-2, .cls-3, .cls-4, .cls-5, .cls-6, .cls-7, .cls-8, .cls-9, .cls-10, .cls-11, .cls-12, .cls-13, .cls-14, .cls-15, .cls-16, .cls-17, .cls-18, .cls-19, .cls-20, .cls-21, .cls-22 {
        stroke-width: 0px;
      }

      .cls-2 {
        fill: #585375;
      }

      .cls-3 {
        fill: #f6f2f3;
      }

      .cls-4 {
        fill: #7fb3d4;
      }

      .cls-5 {
        fill: #95b5c5;
      }

      .cls-6 {
        fill: #c6c4c5;
      }

      .cls-7 {
        fill: #708a76;
      }

      .cls-8 {
        fill: #fd6c50;
      }

      .cls-9 {
        fill: #ffd37b;
      }

      .cls-10 {
        fill: #7d7a94;
      }

      .cls-11 {
        fill: #fdc55c;
      }

      .cls-12 {
        fill: #fdd07e;
      }

      .cls-13 {
        fill: #e0a22b;
      }

      .cls-14 {
        fill: #752c13;
      }

      .cls-15 {
        fill: #edb447;
      }

      .cls-16 {
        fill: #357c77;
      }

      .cls-17 {
        fill: #89ae91;
      }

      .cls-18 {
        fill: #9b97ba;
      }

      .cls-19 {
        fill: #fca984;
      }

      .cls-20 {
        fill: #f9956e;
      }

      .cls-21 {
        fill: #ffcbb6;
      }

      .cls-22 {
        fill: #2e6862;
      }
    </style>
  </defs>
  <g id="Image_1" data-name="Image 1">
    <g>
      <path class="cls-4" d="M70.41,128.87s-13.38,7.45-19.81,42.6c-3.14,17.13-7.18,29.52.08,46.69,3.74,8.84,10.72,16.83,19.98,19.34,3.55.96,7.32,1.11,10.71,2.51,11.97,4.94,13.72,22.33,24.74,29.12,4.19,2.58,9.26,3.3,14.17,3.59,10.84.63,21.79-.59,32.24-3.58,4.85-1.39,9.72-3.17,14.76-2.97,6.96.28,13.15,4.3,19.75,6.53,4.83,1.63,26.89,4.98,28.35-2.45-3.23-.28-6.68-.74-8.96-3.34-.86-.98-1.45-2.16-2.16-3.24-2.49-3.76-6.66-6.35-11.13-6.93-2.78-.36-5.64.02-8.39-.54-9.01-1.84-5.19-12.93-9.21-18.69-3.18-4.57-9.99-3.84-15.51-3.08s-12.78-.07-14.22-5.45c-1.3-4.85,3.32-9,5.86-13.33,3.91-6.67,2.97-15.02,1.81-22.67-2.85-18.85-1.66-48.99-13.11-64.74-11.95.61-24.31.31-36.38.39-7.63.05-26.81-3.53-33.59.24Z"/>
      <path class="cls-10" d="M48.56,182.5c1.96.09,12.93,18.69,55.53,19.19,44.36.52,54.99-15.6,54.99-15.6,0,0,2.97,10.4,2.72,14.61-.25,4.21-32.89,17.6-61.43,15.85-28.24-1.73-48.68-13.41-54.49-18.58-2.23-1.98.72-15.57,2.67-15.47Z"/>
      <rect class="cls-15" x="87.33" y="198.44" width="32.45" height="19.57" rx="1.73" ry="1.73"/>
      <g>
        <path class="cls-12" d="M93.09,216.49c-1.03,0-2.22-.06-2.97-.84-.68-.71-.71-1.56-.73-2.54v-.4c-.18-4.17-.21-7.91-.12-11.77,0-.29.26-.5.53-.51.29,0,.52.25.51.53-.09,3.83-.05,7.55.11,11.7v.41c.04.96.07,1.45.46,1.85.51.53,1.61.53,2.49.52l11.41-.02h0c.29,0,.52.23.52.52s-.23.52-.52.52l-11.4.02c-.09,0-.18,0-.27,0Z"/>
        <path class="cls-12" d="M107.99,216.43c-.28,0-.52-.23-.52-.51,0-.29.23-.52.51-.53l3.44-.04h0c.29,0,.52.23.52.51,0,.29-.23.52-.51.53l-3.44.04h0Z"/>
      </g>
      <path class="cls-4" d="M68.68,130.85s-14.37,7.18-25.76-2.97c-11.39-10.15-10.65-21.8-10.65-21.8l-18.58.99s-12.14,47.55,41.86,59.69l13.13-35.91Z"/>
      <path class="cls-4" d="M140.5,130.1s22.04.5,29.72,17.34c7.68,16.84,3.96,47.55-29.97,49.29,0,0-6.94-5.94-8.67-13.87,0,0,16.1-6.44,14.61-27.24-1.49-20.81-5.7-25.51-5.7-25.51Z"/>
      <g>
        <path class="cls-10" d="M43.05,137.97s-.08,0-.12-.01c-.28-.07-.46-.35-.39-.63.71-3.06.55-6.39-.45-9.38-.09-.27.05-.57.33-.66.28-.09.57.05.66.33,1.08,3.21,1.25,6.65.48,9.95-.06.24-.27.4-.51.4Z"/>
        <path class="cls-10" d="M51.79,166.22s-.07,0-.11-.01c-.28-.06-.46-.34-.4-.62,1.47-6.66,4.28-13.11,8.14-18.65.16-.24.49-.29.73-.13.24.16.29.49.13.73-3.78,5.43-6.54,11.75-7.97,18.28-.05.24-.27.41-.51.41Z"/>
        <path class="cls-10" d="M134.11,183.42c-.11,0-.21-.03-.31-.1-.23-.17-.28-.5-.11-.73,1.97-2.7,4.64-4.86,7.23-6.94,3.5-2.82,6.8-5.49,8.51-9.39,1.64-3.75,1.39-8.28-.66-11.83-.14-.25-.06-.57.19-.71.25-.15.57-.06.71.19,2.21,3.83,2.49,8.72.72,12.77-1.8,4.13-5.37,7-8.81,9.78-2.53,2.04-5.15,4.15-7.04,6.74-.1.14-.26.21-.42.21Z"/>
        <path class="cls-10" d="M159.08,171.49c-.16,0-.33-.08-.43-.23-1.93-2.81-4.92-4.93-8.21-5.84-.28-.08-.44-.36-.36-.64.08-.28.36-.44.64-.36,3.52.97,6.72,3.25,8.79,6.25.16.24.1.56-.13.72-.09.06-.19.09-.3.09Z"/>
        <path class="cls-10" d="M155.57,164.41c-.06,0-.11,0-.17-.03-1.35-.47-2.82-.65-4.24-.53-.26.03-.54-.19-.56-.48-.02-.29.19-.54.48-.56,1.57-.13,3.18.07,4.67.58.27.09.42.39.32.66-.07.22-.28.35-.49.35Z"/>
      </g>
      <path class="cls-19" d="M135.71,182.64c-1.53-.44-3.36-1.38-6.35-.72-2.99.66-7.78.58-10.05,1.51-1.93.79-2,2.85.5,3.31,2.11.39,7.22.51,7.12.95-.06.28-2.55,1.43-5.79,2.62-1.82.67-4.7,1.52-5.73,1.88-2.54.89-2.66,3.84.08,3.9,1.1.02,3.72-.61,5.33-1,1.28-.31,4.78-.96,4.78-.96,0,0-2.28,1.57-4.87,3.2-2.4,1.51-4.98,2.87-5.6,3.68-.99,1.32.13,4.01,3.41,2.57,1.38-.61,2.98-1.49,4.52-2.26,2.39-1.2,4.5-2.23,4.5-2.23,0,0-1.57,2.07-3.45,4.12-1.56,1.7-3.22,3.11-3.71,4.19-.67,1.49,1.38,2.99,3.75,1.29,1.92-1.38,8.6-7.23,8.6-7.23,0,0-3.15,5.87-3.5,7.15-.36,1.35,1.62,2.2,2.59,1.07,1.16-1.34,3.05-4.15,5.36-6.94,2.81-3.4,6.52-9,6.53-10.53,0-1.76-2.4-7.97-8.01-9.59Z"/>
      <path class="cls-11" d="M107.81,186.82c0,1.78-1.44,3.22-3.22,3.22s-3.22-1.44-3.22-3.22,1.44-3.22,3.22-3.22,3.22,1.44,3.22,3.22Z"/>
      <ellipse class="cls-19" cx="104.49" cy="106.8" rx="42.78" ry="41.61"/>
      <path class="cls-3" d="M64.84,89.24s-4.62,41.09,39.4,24c0,0,41.03,19.47,40.48-22.7,0,0,17.09,44.58-35.48,74.3h-9.66s-52.01-27.68-34.74-75.6Z"/>
      <g>
        <path class="cls-6" d="M100.96,165.76c-.06,0-.12-.02-.16-.06-20.51-16.61-34.68-42.59-38.87-71.29-.02-.14.08-.27.22-.3.15-.02.27.08.3.22,4.17,28.57,18.27,54.43,38.69,70.96.11.09.13.25.04.37-.05.06-.13.1-.2.1Z"/>
        <path class="cls-6" d="M103.74,165.2c-.07,0-.13-.02-.18-.07-11.91-11.48-21.68-27.43-29.88-48.76-.05-.13.02-.29.15-.34.13-.05.29.01.34.15,8.17,21.26,17.9,37.15,29.75,48.58.1.1.11.27,0,.37-.05.05-.12.08-.19.08Z"/>
        <path class="cls-6" d="M107.83,165.2c-.08,0-.16-.04-.21-.11-.08-.12-.05-.28.07-.36,12.34-8.56,22.14-18.87,28.34-29.82,6.56-11.59,9.67-24.48,9.23-38.32,0-.14.11-.26.25-.27.14,0,.26.11.27.25.44,13.94-2.69,26.92-9.3,38.59-6.24,11.02-16.09,21.39-28.5,29.99-.05.03-.1.05-.15.05Z"/>
        <path class="cls-6" d="M105.6,164.83c-.06,0-.13-.02-.18-.07-.1-.1-.11-.26-.01-.37,14.72-15.64,23.89-34.5,28.99-47.56.05-.13.2-.2.34-.15.13.05.2.2.15.34-5.11,13.11-14.31,32.03-29.09,47.73-.05.05-.12.08-.19.08Z"/>
        <path class="cls-6" d="M104.03,165.98c-.1,0-.19-.06-.24-.15-5.91-12.56-10.19-25.84-12.73-39.49-.03-.14.07-.28.21-.3.15-.03.28.07.3.21,2.52,13.6,6.79,26.85,12.69,39.36.06.13,0,.29-.13.35-.04.02-.07.02-.11.02Z"/>
        <path class="cls-6" d="M104.24,165.62s-.09-.01-.13-.03c-.13-.07-.17-.23-.1-.35,6.68-12.16,11.61-25.2,14.64-38.74.03-.14.16-.23.31-.2.14.03.23.17.2.31-3.04,13.59-7.98,26.67-14.69,38.88-.05.09-.14.13-.23.13Z"/>
        <path class="cls-6" d="M104.39,165.76h0c-.14,0-.26-.12-.26-.26.04-5.61.14-12.06.24-18.3.1-6.24.2-12.69.23-18.29,0-.14.12-.26.26-.26h0c.14,0,.26.12.26.26-.04,5.61-.14,12.06-.24,18.3-.1,6.24-.2,12.69-.23,18.29,0,.14-.12.26-.26.26Z"/>
      </g>
      <path class="cls-3" d="M136.05,114.15c-11.89,8.53-31.81-.91-31.81-.91-16.2,6.29-25.8,4.7-31.48.18,1.63,4.3,6.25,12.63,17.55,12.73,8.55.07,12.46-6.3,14.24-9.41,1.78,3.1,5.69,9.47,14.24,9.41,10.68-.09,15.39-7.54,17.26-11.99Z"/>
      <path class="cls-6" d="M118.65,126.4c-8.4,0-12.3-6.18-14.07-9.24-1.67,2.88-5.71,9.24-14.14,9.24-.05,0-.09,0-.14,0-11.25-.09-15.98-8.12-17.79-12.89-.05-.13.02-.29.15-.34.13-.05.28.02.34.15,1.77,4.65,6.36,12.47,17.31,12.56.04,0,.09,0,.13,0,8.54,0,12.44-6.8,13.91-9.37.05-.08.13-.13.23-.13h0c.09,0,.18.05.23.13,1.61,2.81,5.38,9.37,13.85,9.37.04,0,.09,0,.13,0,10.53-.09,15.18-7.45,17.02-11.83.06-.13.21-.19.34-.14.13.06.2.21.14.34-1.88,4.5-6.66,12.06-17.49,12.15-.05,0-.09,0-.14,0Z"/>
      <path class="cls-3" d="M93.69,63.73s-3.72,6.69-.5,8.92c3.22,2.23,6.44,0,6.94-1.24,0,0,2.72,3.47,5.94,2.97,3.22-.5,3.96-3.47,3.96-3.47,0,0,7.68,3.72,7.93-5.94,0,0-10.15-9.41-24.27-1.24Z"/>
      <path class="cls-17" d="M60.89,104.82s-3.61-3.69-4.11-9.14c-.5-5.45.76-29.06,7.2-40.71,6.44-11.64,22.77-27.9,27.22-33.6,4.46-5.7,7.43-11.89,11.89-11.89s18.58,5.94,22.54,15.36c2.34,5.56,3.82,13.1,7.26,20.66,2.38,5.23,7.43,9.1,10.4,14.12,4.12,6.96,11.33,34.68,4.4,45.08,0,0-9.91-41.61-46.32-38.64-36.41,2.97-40.5,38.76-40.5,38.76Z"/>
      <path class="cls-14" d="M83.14,96.49c-.18,0-.36-.1-.45-.27-.14-.25-.05-.57.2-.71,3.24-1.82,6.92-2.9,10.63-3.13.29-.01.53.2.55.49.02.29-.2.53-.49.55-3.56.22-7.08,1.25-10.18,3-.08.05-.17.07-.26.07Z"/>
      <path class="cls-14" d="M125.84,96.35c-.09,0-.17-.02-.26-.07-3.11-1.75-6.63-2.78-10.18-3-.29-.02-.51-.26-.49-.55.02-.29.25-.51.55-.49,3.71.23,7.39,1.31,10.63,3.13.25.14.34.46.2.71-.1.17-.27.27-.45.27Z"/>
      <path class="cls-20" d="M103.73,89.61c-4.03.09-8.2,22.84-6.6,24.71,3.61,4.21,11.84,3.85,14.78-.18,1.43-1.96-3.04-24.64-8.18-24.53Z"/>
      <path class="cls-3" d="M89.77,76.98c-6.87,1.49-13.37,6.5-13.37,10.59s3.72,3.72,6.5,3.34,11.7-2.41,14.3-5.2c2.6-2.79,3.08-11-7.43-8.73Z"/>
      <path class="cls-3" d="M119.2,76.61c6.87,1.49,13.37,6.5,13.37,10.59s-3.72,3.72-6.5,3.34c-2.79-.37-11.7-2.41-14.3-5.2-2.6-2.79-3.08-11,7.43-8.73Z"/>
      <path class="cls-3" d="M99.64,167.5s-5,6.66-4.62,8.77c.37,2.11,6.69,2.6,10.03,2.66,3.22.06,9.1-.74,9.08-2.89-.01-1.24-4.46-8.67-4.46-8.67l-10.03.12Z"/>
      <g>
        <path class="cls-6" d="M98.68,177.93s-.04,0-.06,0c-.14-.03-.23-.17-.19-.31.93-3.99,2.3-7.12,4.22-10.86.07-.13.22-.18.35-.11.13.07.18.22.11.35-1.9,3.71-3.26,6.8-4.17,10.75-.03.12-.13.2-.25.2Z"/>
        <path class="cls-6" d="M105.97,178.53c-.14,0-.25-.1-.26-.24l-.77-10.79c-.01-.14.1-.27.24-.28.14-.02.27.1.28.24l.77,10.79c.01.14-.1.27-.24.28,0,0-.01,0-.02,0Z"/>
        <path class="cls-6" d="M111.91,177.53c-.12,0-.22-.08-.25-.2-.88-3.53-2.23-6.94-4-10.12-.07-.13-.02-.28.1-.35.13-.07.29-.02.36.1,1.8,3.22,3.16,6.67,4.05,10.25.04.14-.05.28-.19.32-.02,0-.04,0-.06,0Z"/>
      </g>
      <rect class="cls-17" x="99.14" y="164.41" width="11.02" height="3.34" rx="1.02" ry="1.02"/>
      <g>
        <path class="cls-17" d="M20.61,82.26c.58-.76-1.68-4.88-5.8-8.63-4.12-3.75-8.1-4.66-8.66-3.81-.56.84,1.81,4.74,4.96,7.33,3.15,2.59,8.83,5.97,9.5,5.11Z"/>
        <path class="cls-17" d="M20.9,87.4c-.72-.62.68-5.12,3.99-9.64s7.02-6.22,7.73-5.51c.71.71-.84,5.02-3.42,8.2-2.57,3.18-7.48,7.66-8.3,6.95Z"/>
        <path class="cls-1" d="M34.66,130.75c.11,0,.22-.03.31-.09.3-.18.4-.57.22-.87-13.77-24.08-17.79-53.37-11.02-80.38.09-.34-.12-.69-.45-.78-.33-.09-.67.12-.76.46-6.85,27.33-2.79,56.98,11.15,81.34.12.2.32.32.54.32Z"/>
        <path class="cls-5" d="M24.1,48.91s1.48-20.63-5.76-18.71c-4.7,1.25-.11,12.91,3.78,19.03l1.98-.32Z"/>
        <path class="cls-5" d="M22.54,48.51s-17.61-10.25-19.02-2.76c-.92,4.87,11.36,5.66,18.45,4.71l.57-1.96Z"/>
        <path class="cls-5" d="M22.34,49.43s-12.03,16.65-4.9,18.96c4.63,1.5,6.84-10.86,6.74-18.15l-1.84-.81Z"/>
        <path class="cls-5" d="M25.02,50.47s17.77-9.96,12.25-15.11c-3.59-3.35-10.67,6.93-13.58,13.59l1.34,1.52Z"/>
        <path class="cls-5" d="M23.76,51.35s14.3,14.66,17.62,7.82c2.16-4.45-9.48-8.54-16.56-9.55l-1.06,1.73Z"/>
        <path class="cls-11" d="M21.17,48.86c-.45,1.12.26,2.48,1.59,3.03,1.33.55,2.77.09,3.22-1.03s-.26-2.48-1.59-3.03c-1.33-.55-2.77-.09-3.22,1.03Z"/>
      </g>
      <g>
        <path class="cls-19" d="M14.62,90.73c-2.44,1-2.68,3.93-2.57,5.57.1,1.65-1.54,4.61-.85,6.82.69,2.21,1.26,2.37.66,3.64-.73,1.55-.23,4.67.22,5.85.38.98-1.31,4.06,1.01,5.87,2.31,1.81,13.87,2.27,16.87.43,2.99-1.84,1.3-5.49.72-5.91-.58-.41,6.3-1.6,1.88-7.93,0,0,3.83-3.1-.67-7.62,0,0,4.03-5.67-.99-7s-13.24-.96-16.27.28Z"/>
        <path class="cls-8" d="M30.6,112.86c0,.16-.1.3-.27.33-4.54.72-7.33.88-11.84-.09-.17-.04-.28-.21-.24-.38.04-.17.2-.28.37-.24,4.44.95,7.06.81,11.61.08.17-.03.33.09.36.26,0,0,0,.02,0,.03Z"/>
        <path class="cls-8" d="M32.66,105.06c0,.16-.11.31-.28.33-3.33.42-9.63.97-14.3,0-.17-.04-.28-.2-.24-.37.04-.17.2-.28.37-.24,4.59.95,10.8.4,14.1,0,.17-.02.33.1.35.27,0,0,0,.01,0,.02Z"/>
        <path class="cls-8" d="M31.85,97.35c0,.16-.11.31-.27.33-4.53.61-9.34,1.11-13.93-.08-.17-.05-.27-.22-.23-.39.04-.17.22-.27.38-.23,4.48,1.16,9.22.67,13.69.07.17-.02.33.1.36.27,0,0,0,.02,0,.02Z"/>
      </g>
      <ellipse class="cls-21" cx="80.15" cy="108.46" rx="6.32" ry="8.23" transform="translate(-53.85 123.64) rotate(-60)"/>
      <path class="cls-21" d="M125.66,102.99c-3.94,2.27-5.71,6.56-3.97,9.58s6.35,3.63,10.28,1.36c3.94-2.27,5.71-6.56,3.97-9.58-1.74-3.02-6.35-3.63-10.28-1.36Z"/>
      <g>
        <path class="cls-7" d="M133.49,47.64c-.08,0-.17-.02-.24-.06-7-3.71-14.87-5.41-22.78-4.9-.32.02-.54-.2-.55-.49-.02-.29.2-.53.49-.55,8.1-.52,16.17,1.22,23.34,5.02.25.13.35.45.22.7-.09.18-.27.28-.46.28Z"/>
        <path class="cls-7" d="M69.56,67.93c-.12,0-.24-.04-.34-.13-.22-.19-.24-.52-.05-.73,5.18-6.04,12.35-10.12,20.19-11.5.28-.05.55.14.6.42.05.28-.14.55-.42.6-7.49,1.32-14.62,5.38-19.58,11.15-.1.12-.25.18-.39.18Z"/>
        <path class="cls-7" d="M63.25,77.78c-.06,0-.12-.01-.18-.03-.27-.1-.41-.4-.31-.67.83-2.25,1.98-4.35,3.42-6.26.17-.23.5-.27.73-.1.23.17.27.5.1.73-1.38,1.83-2.48,3.84-3.27,5.99-.08.21-.28.34-.49.34Z"/>
      </g>
      <ellipse class="cls-20" cx="104.49" cy="123.46" rx="4.74" ry="3.63"/>
    </g>
  </g>
  <g id="Image_4" data-name="Image 4">
    <g>
      <path class="cls-2" d="M377.7,374.04c-9.47,0-17.17-10.61-17.17-23.64s7.7-23.64,17.17-23.64,17.17,10.61,17.17,23.64-7.7,23.64-17.17,23.64ZM377.7,332.3c-7.07,0-12.83,8.12-12.83,18.1s5.75,18.1,12.83,18.1,12.83-8.12,12.83-18.1-5.75-18.1-12.83-18.1Z"/>
      <path class="cls-9" d="M300.1,376.83s-4.79-61.35.17-67.19c4.81-5.67,70.63-5.5,73.72-.34,3.32,5.54.27,66.08.27,66.08.07,15.72-74.16,17.44-74.16,1.46Z"/>
      <polygon class="cls-9" points="319.12 331.28 301.81 351.75 240.96 294.89 252.95 280.72 319.12 331.28"/>
      <path class="cls-16" d="M244.29,253.7c-3.03-1.8-33.71,34.8-31.42,37.15,4.95,5.08,28.09,4.05,28.09,4.05l11.98-14.17s-2.56-23.4-8.65-27.02Z"/>
      <path class="cls-2" d="M342.96,335.17c-.05,0-.11-.01-.16-.04-.17-.09-.23-.3-.14-.47,1.41-2.56,2.33-5.45,2.66-8.36.23-2.06.07-3.61-.51-4.88-.6-1.32-1.93-2.63-3.65-2.61-1.66.03-3.24,1.54-3.5,3.37-.24,1.67.46,3.5,1.87,4.92.13.14.14.35,0,.49-.14.14-.35.13-.49,0-1.57-1.57-2.34-3.62-2.07-5.5.32-2.19,2.15-3.93,4.17-3.96,1.99-.03,3.59,1.49,4.29,3.02.63,1.38.81,3.05.57,5.24-.33,3-1.28,5.98-2.74,8.62-.06.12-.19.18-.31.18Z"/>
      <path class="cls-2" d="M344,335.37s-.09,0-.13-.03c-.18-.07-.26-.28-.19-.45,1.16-2.78,2.91-5.38,5.05-7.5,1.56-1.55,2.98-2.45,4.46-2.81,1.63-.41,3.81-.1,5.03,1.48,1.23,1.6,1.01,4.12-.51,5.73-1.3,1.38-3.4,2.06-5.6,1.8-.19-.02-.32-.19-.3-.38.02-.19.19-.31.38-.3,1.99.23,3.86-.36,5.01-1.59,1.27-1.35,1.48-3.52.46-4.84-1.03-1.34-2.91-1.58-4.31-1.23-1.35.34-2.67,1.17-4.14,2.63-2.08,2.06-3.77,4.58-4.9,7.28-.06.13-.19.21-.32.21Z"/>
      <ellipse class="cls-18" cx="326.06" cy="334.6" rx="8.77" ry="14.73" transform="translate(-136.47 268.7) rotate(-37.63)"/>
      <path class="cls-18" d="M320.41,342.02c6.55.48,11.64,4.03,11.35,7.93-.28,3.9-5.83,6.68-12.38,6.2-6.55-.48-11.64-4.03-11.35-7.93s5.83-6.68,12.38-6.2Z"/>
      <path class="cls-18" d="M354.72,340.67c-7.91-1.91-15.24.35-16.38,5.06-1.14,4.71,4.35,10.08,12.25,11.99,7.91,1.91,15.24-.35,16.38-5.06,1.14-4.71-4.35-10.08-12.25-11.99Z"/>
      <path class="cls-18" d="M348.18,357.37c-3.1-5.79-8.42-8.99-11.86-7.14s-3.73,8.04-.62,13.83c3.1,5.79,8.42,8.99,11.86,7.14,3.45-1.85,3.73-8.04.62-13.83Z"/>
      <path class="cls-2" d="M339.31,350.29c-4.94,8.2-10.64,13.83-12.73,12.57-2.09-1.26.21-8.93,5.15-17.14,4.94-8.2,10.64-13.83,12.73-12.57,2.09,1.26-.21,8.93-5.15,17.14Z"/>
      <path class="cls-13" d="M327,312.42c-9.3,0-18.31-.15-25.9-.51-.4-.02-.71-.36-.69-.76.02-.4.37-.72.76-.69,21.01.99,52.89.43,71.58-.69.39-.02.74.28.76.68.02.4-.28.74-.68.76-11.97.71-29.35,1.2-45.83,1.2Z"/>
      <path class="cls-13" d="M336.66,381.2c-12.58,0-25.24-1.05-34.65-3.15-.39-.09-.63-.47-.55-.86.09-.39.46-.64.86-.55,18.94,4.23,51.14,4.15,68.92-.17.4-.09.78.14.87.53.09.39-.14.78-.53.87-9.11,2.21-21.97,3.32-34.93,3.32Z"/>
      <path class="cls-22" d="M216.39,290.59c-.14,0-.28-.04-.4-.12-.33-.22-.42-.67-.2-1,8.04-11.92,17.4-23,27.81-32.92.29-.28.75-.27,1.02.02.28.29.26.75-.03,1.02-10.34,9.85-19.62,20.84-27.61,32.68-.14.21-.37.32-.6.32Z"/>
    </g>
  </g>
</svg>