<?xml version="1.0" encoding="UTF-8"?><svg id="Layer_2" xmlns="http://www.w3.org/2000/svg" viewBox="0 0 190 210"><defs><style>.cls-1{fill:#585375;}.cls-1,.cls-2,.cls-3,.cls-4,.cls-5,.cls-6,.cls-7,.cls-8,.cls-9,.cls-10,.cls-11,.cls-12,.cls-13,.cls-14,.cls-15,.cls-16,.cls-17,.cls-18,.cls-19,.cls-20,.cls-21,.cls-22,.cls-23,.cls-24,.cls-25,.cls-26,.cls-27,.cls-28{stroke-width:0px;}.cls-2{fill:#d6d6d6;}.cls-3{fill:#f6f2f3;}.cls-4{fill:#7f9db3;}.cls-5{fill:#7d7a96;}.cls-6{fill:#5b5472;}.cls-7{fill:#ff6b4f;}.cls-8{fill:#aa6c54;}.cls-9{fill:#7d824e;}.cls-10{fill:#f9ad32;}.cls-11{fill:#e0a22b;}.cls-12,.cls-29{fill:#939d5b;}.cls-13{fill:#6e6489;}.cls-14{fill:#d4d4d4;}.cls-15{fill:#c9c6c7;}.cls-16{fill:#f2f2f2;}.cls-17{fill:#ff9171;}.cls-18{fill:#feab86;}.cls-19{fill:#e1e1e1;}.cls-20{fill:#c44344;}.cls-21{fill:#9b97ba;}.cls-22{fill:#821b19;}.cls-23{fill:#ac6c53;}.cls-24{fill:#fca984;}.cls-25{fill:#f9956e;}.cls-26{fill:#ffcbb6;}.cls-27{fill:#ffc75c;}.cls-28{fill:#fff;}.cls-29{stroke:#7d824e;stroke-miterlimit:10;stroke-width:.29px;}</style></defs><g id="Image_2"><rect class="cls-28" width="190" height="210"/><path class="cls-18" d="M153.57,77.16c-.04,8.38-10.72,15.21-24.74,15.21s-26.02-7.28-26.03-15.21c-.03-13.64,11.37-24.69,25.39-24.69s25.46,11.06,25.39,24.69Z"/><path class="cls-4" d="M109.69,89.8s-9.26.22-14.77,6.83c-5.51,6.61-9.04,18.08-15.87,22.93-6.83,4.85-9.26,4.19-8.82,5.95.44,1.76,1.32,7.28,3.97,8.38,2.65,1.1,18.08-3.53,23.37-11.46,0,0,0,5.95.66,7.5.66,1.54,57.98-.66,57.98-.66,0,0,9.7,2.43,11.69-2.87,1.98-5.29-.44-18.08-3.53-24.91-3.09-6.83-6.17-10.8-15.21-13.45-9.04-2.65-39.47,1.76-39.47,1.76Z"/><path class="cls-1" d="M97.6,122.9h0c-.17,0-.31-.15-.3-.32.16-5.45,1.55-10.9,4.01-15.77.08-.15.26-.21.42-.14.15.08.21.26.14.42-2.42,4.79-3.78,10.15-3.94,15.51,0,.17-.14.3-.31.3Z"/><path class="cls-1" d="M157.1,127.51s-.03,0-.05,0c-.17-.03-.28-.19-.25-.36,1.27-7.42.06-15.18-3.4-21.86-.08-.15-.02-.34.13-.42.15-.08.34-.02.42.13,3.52,6.8,4.75,14.7,3.46,22.25-.03.15-.16.26-.3.26Z"/><path class="cls-11" d="M84.63,120.54c-.14,0-.27-.1-.3-.24-.32-1.32-1.13-2.55-2.23-3.35-.14-.1-.17-.29-.07-.43.1-.14.29-.17.43-.07,1.22.89,2.12,2.24,2.47,3.7.04.17-.06.33-.23.37-.02,0-.05,0-.07,0Z"/><path class="cls-11" d="M85.66,118.19c-.11,0-.22-.06-.27-.16-.5-.93-1.35-1.68-2.34-2.06-.16-.06-.24-.24-.18-.4.06-.16.24-.24.4-.18,1.13.43,2.1,1.28,2.66,2.34.08.15.02.34-.13.42-.05.02-.1.04-.15.04Z"/><path class="cls-5" d="M110.41,94.43s2.65,27.12-12.57,34.17c0,0,.73,17.56,7.4,36.84l20.16,1.45s.73-5.87,1.1-13.81c0,0,3.2.33,4.96-.11,0,0-.06,10.77.6,14.07,0,0,18.25.59,20.02-1.4,1.76-1.98,5.73-32.19,5.07-37.7,0,0-13.23-8.6-11.02-33.95l-7.06,1.1s3.99,14.32-11.24,14.55c-14.55.22-10.36-15.65-10.36-15.65l-7.06.44Z"/><path class="cls-21" d="M157.14,131.08c0-.11,0-.22,0-.32-.61.16-1.23.31-1.86.45.02-1.53.01-3.07,0-4.6-.1-.1-.21-.2-.31-.31.02,1.66.03,3.32,0,4.98-1.7.38-3.44.71-5.23,1,.07-2.68.11-5.35.11-8.03.95-.18,1.91-.37,2.86-.57-.07-.09-.14-.18-.2-.27-.89.19-1.77.37-2.66.53,0-1.68,0-3.35-.03-5.03-.11-.22-.21-.44-.32-.66.03,1.92.04,3.83.04,5.75-2.16.39-4.3.72-6.44.99-.04-2.72-.1-5.43-.18-8.14,1.9-.2,3.79-.45,5.67-.74-.04-.1-.07-.2-.11-.29-1.85.29-3.71.53-5.57.73-.06-1.86-.12-3.72-.2-5.57,1.39-.19,2.78-.42,4.16-.69-.02-.1-.04-.2-.06-.3-1.37.26-2.73.49-4.11.68-.09-2.12-.19-4.23-.31-6.35,1.19-.19,2.38-.41,3.56-.65,0-.1-.02-.21-.02-.31-1.18.25-2.36.46-3.55.65-.15-2.81-.33-5.63-.53-8.43,0-.09-.09-.15-.16-.14-.09,0-.15.08-.14.17.2,2.82.37,5.64.53,8.46-1.24.19-2.49.37-3.74.5-.06.11-.12.22-.18.33,1.32-.14,2.63-.31,3.93-.52.11,2.11.22,4.23.31,6.34-2.05.28-4.1.48-6.16.6l.02-4.1c-.1.09-.2.18-.31.27l-.02,3.85c-2.15.13-4.31.17-6.47.13,0-.57,0-1.14,0-1.71-.11,0-.2.03-.31.03,0,.56,0,1.11,0,1.67-1.86-.04-3.71-.14-5.56-.3,0-.6,0-1.19,0-1.79-.1-.03-.21-.05-.31-.08,0,.62,0,1.23,0,1.85-2.83-.26-5.66-.66-8.46-1.2-.08-2.09-.15-4.18-.21-6.28,1.04.22,2.09.41,3.14.59-.04-.11-.08-.22-.12-.33-1.01-.17-2.02-.36-3.03-.57-.07-2.66-.13-5.31-.16-7.96,0-.09-.06-.17-.16-.15-.09,0-.15.07-.15.16.03,2.63.09,5.26.16,7.89-1.29-.28-2.57-.6-3.84-.95,0,.1-.01.21-.02.32,1.28.35,2.56.68,3.86.96.06,2.09.13,4.19.21,6.28-1.57-.31-3.14-.68-4.7-1.08-.02.1-.03.2-.05.31,1.58.41,3.16.77,4.76,1.09.08,1.96.17,3.92.27,5.88-2.12-.3-4.23-.66-6.32-1.08,0-.05,0-.1,0-.14-.08.28-.17.55-.26.83.17,2.68.35,5.36.57,8.04-1.34-.28-2.67-.59-4-.93-.06.09-.12.18-.19.27,1.4.35,2.8.69,4.21.98.2,2.49.41,4.98.65,7.47-.39-.06-.78-.12-1.16-.18-1.68-.26-3.39-.51-5.11-.76-.08-1.78-.16-3.81-.19-5.56-.1.11-.2.22-.3.32.03,1.63.1,3.54.17,5.2-1.68-.24-3.35-.46-5-.66,0,.1.01.2.02.31,1.65.2,3.32.42,5,.66,0,0,0,.01,0,.02,0,0,0,0,0,0,.1,2,.26,4.28.42,6.31-1.61-.35-3.24-.73-4.84-1.13.01.11.03.22.04.34,1.58.4,3.22.78,4.82,1.13,0,0,0,0,0,0,0,0,0,0,0,0,.18,2.22.44,4.65.7,6.88-1.49-.39-3.04-.83-4.52-1.28.02.12.04.23.06.35,1.47.45,3.01.88,4.49,1.27.31,2.54.72,5.51,1.13,8.06-1.31-.29-2.62-.59-3.92-.92.03.12.06.23.08.35,1.29.32,2.59.63,3.89.91,0,.02,0,.04,0,.05,0,0,0,0,0,0,.42,2.59.93,5.33,1.45,7.91-1.04-.15-2.08-.31-3.12-.48.03.11.07.22.1.33,1.03.17,2.06.33,3.09.48,0-.05-.02-.1-.03-.14,0,0,0,0,0,0,.3,1.45.66,3.11.99,4.55l.32.02c-.33-1.4-.65-2.96-.95-4.38,2.07.3,4.15.55,6.23.77.21,1.35.44,2.69.67,4.04l.32.02c-.23-1.34-.45-2.68-.67-4.03,1.85.19,3.69.35,5.54.48.18,1.31.37,2.63.56,3.94l.32.02c-.19-1.31-.38-2.62-.56-3.94,1.74.12,3.48.19,5.23.25.08,1.35.17,2.69.25,4.04l.31.02c-.09-1.35-.17-2.7-.25-4.05.24,0,.48.02.73.02,0-.1.02-.21.03-.31-.26,0-.51-.01-.77-.02-.13-2.3-.26-4.61-.37-6.92.55.03,1.1.07,1.65.09,0-.1.01-.21.02-.32-.56-.03-1.13-.06-1.69-.1-.12-2.41-.22-4.82-.32-7.24,1.86.16,3.73.28,5.59.36.03,1.59.05,3.17.06,4.76.1,0,.21-.01.31-.02-.01-1.58-.03-3.15-.06-4.72,1.5.06,3,.09,4.5.09.35,0,.7-.01,1.05-.02l-.03,7c-1.44.04-2.89.05-4.33.04,0,.1,0,.2,0,.31.34,0,.68,0,1.02,0,1.1,0,2.2-.02,3.3-.05l-.03,6.72c-1.37.05-2.75.08-4.13.09,0,.1,0,.2.02.3,1.37-.01,2.74-.04,4.11-.09l-.02,4.29c.1,0,.21,0,.31,0l.02-4.3c1.98-.07,3.96-.17,5.94-.31-.09,1.52-.19,3.05-.29,4.57.1,0,.21,0,.31,0,.1-1.53.2-3.06.29-4.59,1.66-.12,3.31-.27,4.97-.45-.19,1.61-.4,3.21-.62,4.81.11,0,.21-.02.32-.03.22-1.6.42-3.21.62-4.82,1.6-.17,3.2-.36,4.8-.58-.25,1.52-.52,3.03-.8,4.54.15-.07.26-.14.36-.22.27-1.45.53-2.9.77-4.36.22-.03.44-.06.66-.09.02-.11.04-.21.07-.32-.22.03-.45.06-.67.09.38-2.33.71-4.67,1.01-7.01.3-.05.61-.1.91-.16.02-.11.03-.21.05-.32-.31.05-.61.1-.92.16.28-2.29.53-4.58.73-6.88.38-.06.77-.12,1.15-.19.01-.11.03-.22.04-.34-.39.07-.78.15-1.17.21.2-2.27.36-4.54.48-6.81.49-.06.98-.12,1.47-.18.01-.11.02-.22.03-.33-.49.06-.99.14-1.48.2.14-2.69.23-5.39.26-8.09.62-.14,1.24-.29,1.85-.45ZM104.31,144.45c-.26-2.24-.51-4.65-.69-6.89,0,0,0,0,0,0,0,0,0,0,0,0,2.18.47,4.37.89,6.57,1.27.26,2.4.55,4.79.84,7.19-2.24-.45-4.51-.98-6.72-1.56ZM109.78,131.85c2.03.31,4.07.61,6.11.88.18,2.24.38,4.48.59,6.71-2.01-.26-4.02-.56-6.01-.9-.24-2.23-.48-4.46-.69-6.7ZM110.51,138.87c2,.34,4,.64,6.01.9.23,2.44.48,4.88.75,7.32-1.98-.29-3.95-.63-5.91-1.02-.3-2.4-.58-4.79-.85-7.2ZM117.3,147.41c.27,2.5.56,5,.87,7.5-1.92-.21-3.83-.48-5.74-.78-.36-2.57-.71-5.15-1.03-7.73,1.96.39,3.93.72,5.9,1.01ZM116.83,139.81c2.29.29,4.59.53,6.89.72.08,2.45.16,4.9.26,7.35-2.14-.19-4.28-.43-6.41-.74-.27-2.44-.52-4.89-.75-7.33ZM123.84,133.61c1.92.16,3.83.26,5.73.3.06,2.21.12,4.44.17,6.68-1.91-.08-3.82-.21-5.72-.36-.07-2.2-.13-4.41-.18-6.61ZM123.83,133.3c-.06-2.45-.1-4.89-.14-7.33,1.88.11,3.78.17,5.68.18.06,2.5.13,4.99.19,7.46-1.89-.04-3.8-.14-5.73-.3ZM129.36,125.83c-1.9,0-3.79-.07-5.67-.18-.04-2.8-.07-5.61-.08-8.41,1.86.12,3.73.19,5.6.21.04,2.8.09,5.59.16,8.37ZM129.16,111.74c0,1.81.02,3.61.05,5.42-1.87-.03-3.73-.1-5.6-.22,0-1.83-.01-3.67,0-5.5,1.85.16,3.71.26,5.56.3ZM123.71,140.2c-2.31-.19-4.61-.42-6.91-.71-.21-2.24-.41-4.47-.59-6.71,2.44.33,4.89.61,7.32.81.05,2.2.11,4.41.18,6.61ZM123.52,133.28c-2.44-.21-4.89-.49-7.34-.82-.2-2.42-.38-4.84-.54-7.26,2.56.35,5.14.6,7.74.76.04,2.44.08,4.88.14,7.32ZM123.38,125.64c-2.6-.16-5.19-.4-7.75-.76-.19-2.83-.36-5.65-.5-8.48,2.71.37,5.44.65,8.17.82.01,2.8.04,5.6.08,8.41ZM123.28,111.41c0,1.83,0,3.67,0,5.5-2.74-.18-5.47-.46-8.19-.83-.1-1.95-.19-3.91-.27-5.86,2.8.54,5.62.94,8.45,1.19ZM108.49,115.28c2.1.42,4.2.78,6.32,1.07.15,2.83.31,5.65.5,8.48-2.09-.29-4.17-.65-6.23-1.07-.22-2.83-.42-5.65-.59-8.48ZM109.1,124.08c2.06.42,4.14.77,6.23,1.07.16,2.42.34,4.85.54,7.27-2.05-.28-4.09-.58-6.12-.88-.24-2.48-.45-4.97-.65-7.45ZM103.19,130.86c1.69.24,3.38.5,5.04.75.41.06.83.12,1.24.19.21,2.23.44,4.46.69,6.69-2.2-.38-4.39-.8-6.56-1.27-.16-2.04-.32-4.34-.42-6.35,0,0,0,0,.01,0,0,0,0,0,0,0ZM107.04,161.13c-.53-2.57-1.08-5.38-1.5-7.95h0c-.42-2.6-.87-5.74-1.19-8.38,2.2.57,4.49,1.09,6.72,1.53.32,2.59.67,5.17,1.03,7.74-2.21-.36-4.42-.77-6.62-1.24.02.11.04.22.05.34,2.19.47,4.4.88,6.61,1.23.36,2.5.73,5,1.12,7.49-2.08-.22-4.16-.48-6.24-.78ZM113.6,161.94c-.39-2.48-.77-4.97-1.12-7.47,1.91.3,3.82.56,5.74.77.3,2.4.61,4.79.93,7.18-1.85-.13-3.7-.29-5.55-.47ZM124.72,162.69c-1.75-.06-3.5-.14-5.26-.26-.33-2.38-.64-4.77-.93-7.16,1.94.21,3.87.38,5.82.5.11,2.31.24,4.62.37,6.93ZM124.32,155.45c-1.95-.12-3.9-.28-5.84-.49-.31-2.49-.6-4.99-.87-7.49,2.12.3,4.25.55,6.39.74.1,2.42.2,4.83.32,7.25ZM124.3,147.9c-.1-2.45-.19-4.9-.26-7.35,1.9.15,3.81.26,5.72.35.06,2.45.11,4.91.15,7.38-1.87-.07-3.74-.21-5.6-.37ZM135.77,148.35c-1.86.02-3.71,0-5.56-.06-.04-2.47-.09-4.93-.15-7.38,1.91.08,3.83.12,5.74.13l-.03,7.31ZM135.81,140.72c-1.92,0-3.84-.04-5.75-.12-.06-2.24-.12-4.47-.18-6.68.36,0,1.41.02,1.57.02,1.51-.01,2.96-.04,4.39-.09l-.03,6.87ZM135.84,133.54c-1.43.05-2.89.08-4.39.09-.52,0-1.05-.01-1.57-.02-.07-2.47-.13-4.96-.19-7.46,2.05,0,4.12-.07,6.19-.19l-.03,7.58ZM135.87,125.65c-2.08.12-4.14.18-6.2.18-.07-2.77-.12-5.57-.16-8.36.44,0,.87.02,1.31.02,1.69,0,3.39-.05,5.08-.12l-.04,8.29ZM135.91,117.05c-2.13.09-4.26.13-6.4.1-.02-1.8-.04-3.61-.05-5.41.51,0,1.01.02,1.52.02,1.65,0,3.3-.06,4.94-.15l-.02,5.43ZM149.55,124.3c0,2.68-.04,5.35-.12,8.03-2.02.31-4.11.57-6.28.77,0-2.6,0-5.2-.04-7.8,2.14-.27,4.28-.6,6.44-.99ZM143.16,133.4c2.17-.2,4.26-.45,6.27-.76-.07,2.52-.17,5.04-.3,7.56-2.01.17-4.02.3-6.03.39.04-2.39.06-4.79.06-7.18ZM143.09,140.9c2.01-.09,4.02-.22,6.02-.38-.12,2.34-.27,4.69-.44,7.03-1.91.22-3.83.41-5.75.54.07-2.39.13-4.79.17-7.19ZM148.65,147.88c-.17,2.3-.37,4.59-.59,6.89-1.8.22-3.6.39-5.4.54.1-2.3.19-4.6.26-6.91,1.91-.13,3.83-.3,5.74-.52ZM136.24,111.6c2.06-.13,4.12-.33,6.18-.6.08,1.85.14,3.71.2,5.56-2.13.22-4.26.38-6.4.48l.02-5.43ZM136.21,117.35c2.14-.1,4.28-.26,6.41-.48.08,2.72.14,5.44.18,8.15-2.22.27-4.43.47-6.62.61l.04-8.28ZM136.18,125.94c2.2-.14,4.41-.34,6.63-.61.03,2.6.05,5.19.04,7.79-2.15.19-4.37.33-6.7.41l.03-7.59ZM136.14,133.84c2.33-.08,4.56-.22,6.71-.41,0,2.39-.02,4.78-.06,7.17-2.22.09-4.45.12-6.67.12l.03-6.88ZM136.11,141.04c.1,0,.21,0,.31,0,2.12,0,4.24-.05,6.36-.13-.04,2.4-.1,4.8-.17,7.2-2.17.14-4.35.21-6.53.24l.03-7.31ZM136.08,148.66c2.17-.02,4.35-.11,6.52-.25-.07,2.3-.16,4.6-.26,6.91-2.09.16-4.19.28-6.29.34l.03-6.99ZM141.97,162.38c-1.98.14-3.97.24-5.95.31l.03-6.72c2.09-.06,4.19-.18,6.28-.34-.1,2.25-.22,4.5-.35,6.74ZM147.27,161.9c-1.66.17-3.32.33-4.99.45.13-2.25.25-4.5.35-6.75,1.8-.14,3.6-.31,5.39-.53-.22,2.28-.48,4.55-.75,6.83ZM152.4,161.29c-1.6.22-3.21.41-4.81.58.27-2.27.52-4.55.75-6.83,1.69-.21,3.38-.47,5.07-.75-.3,2.34-.63,4.67-1.01,6.99ZM153.45,153.97c-1.69.28-3.38.54-5.08.75.22-2.29.42-4.59.59-6.88,1.75-.21,3.49-.46,5.23-.75-.21,2.3-.45,4.59-.73,6.88ZM154.22,146.78c-1.74.29-3.48.52-5.23.73.17-2.34.32-4.68.44-7.02,1.76-.15,3.52-.33,5.27-.54-.12,2.28-.28,4.55-.48,6.82ZM154.72,139.64c-1.75.21-3.51.38-5.27.53.13-2.53.23-5.05.3-7.58,1.8-.28,3.54-.62,5.24-1-.03,2.69-.12,5.37-.26,8.05Z"/><path class="cls-1" d="M117.63,114.06v5.84c0,5.54,4.49,10.03,10.03,10.03h0c5.54,0,10.03-4.49,10.03-10.03v-5.84h-20.06Z"/><path class="cls-3" d="M106.38,64.78s-5.81,26.35,21.75,17.31c0,0,25.13,10.22,21.24-18.19,0,0,6.28,7.28,3.64,14.88,0,0,2.87,6.72-3.86,9.26,0,0,2.87,8.82-7.17,8.38,0,0-.88,8.38-8.16,4.41,0,0-1.43,5.84-6.61,6.06-5.18.22-5.73-5.84-5.73-5.84,0,0-8.16,2.87-8.6-4.19,0,0-10.69.88-6.61-8.82,0,0-10.14-1.65-3.42-10.69,0,0-.55-8.71,3.53-12.57Z"/><path class="cls-15" d="M115.22,94.39c-.51,0-1.02-.2-1.38-.56-.47.33-1.13.38-1.64.11-.44-.24-.84-.73-.88-1.29-.41.16-.89.16-1.35,0-.55-.2-.97-.6-1.15-1.11-.18-.5-.11-1.08.19-1.59.3-.51.77-.85,1.3-.93.08-.02.16.04.18.13.01.08-.04.16-.13.18-.44.07-.83.36-1.08.79-.25.43-.31.91-.16,1.33.15.42.5.75.97.92.47.17.95.14,1.33-.08.05-.03.12-.03.16,0,.05.03.07.09.07.15-.07.45.24.99.71,1.25.44.24,1.03.17,1.41-.16.03-.03.07-.04.11-.04.04,0,.08.02.11.05.4.47,1.09.68,1.68.5.59-.17,1.06-.72,1.13-1.34.01-.08.08-.15.17-.13.08.01.14.09.13.17-.09.73-.65,1.38-1.35,1.59-.17.05-.34.07-.52.07Z"/><path class="cls-15" d="M107.14,85.54c-.43,0-.86-.17-1.15-.49-.45-.5-.49-1.31-.12-1.86-.67-.26-1.15-.98-1.09-1.7.06-.8.76-1.5,1.57-1.56.09,0,.16.06.16.14,0,.09-.06.16-.14.16-.65.04-1.23.63-1.28,1.27-.05.65.45,1.31,1.08,1.44.05.01.1.05.11.11s0,.11-.04.15c-.4.43-.41,1.19-.02,1.63.39.44,1.15.52,1.63.17.07-.05.16-.04.22.03.05.07.04.17-.03.22-.26.19-.57.28-.89.28Z"/><path class="cls-15" d="M126.38,95.99c-.67,0-1.32-.4-1.62-1-.26.27-.62.45-1.02.5-.5.07-.99-.05-1.35-.34-.36-.29-.59-.74-.63-1.25-.04-.5.12-.99.44-1.33.06-.06.16-.07.22,0,.06.06.07.16,0,.22-.26.28-.39.67-.36,1.09.03.42.22.79.51,1.03.29.24.7.34,1.12.27.42-.06.78-.27.99-.59.03-.05.09-.07.15-.07.06,0,.11.05.12.11.2.7,1.03,1.17,1.74.99.71-.18,1.21-.99,1.06-1.7-.02-.08.04-.17.12-.18.08-.02.17.03.18.12.19.88-.41,1.85-1.28,2.07-.13.03-.26.05-.39.05Z"/><path class="cls-15" d="M121.72,99.84c-.21,0-.41-.03-.61-.09-.53-.17-.98-.57-1.22-1.07-.18.19-.42.32-.7.39-.37.09-.76.03-1.06-.16-.3-.19-.51-.52-.59-.89-.08-.38,0-.76.2-1.05.05-.07.15-.09.22-.04.07.05.09.14.04.22-.15.22-.21.52-.15.82.06.3.23.55.45.69.23.15.53.19.82.12.29-.07.54-.24.68-.48.03-.05.09-.08.15-.07.06,0,.11.05.13.11.16.53.59.96,1.12,1.13.53.17,1.13.06,1.57-.27.07-.05.16-.04.22.03.05.07.04.16-.03.22-.35.27-.8.41-1.24.41Z"/><path class="cls-15" d="M129.81,100.88c-.08,0-.16,0-.24-.02-.42-.07-.8-.34-1.04-.74-.24-.39-.31-.85-.19-1.26.02-.08.11-.13.19-.1.08.02.13.11.1.19-.1.32-.04.69.16,1.01.2.32.5.54.83.59.33.06.69-.04.98-.28.29-.23.47-.56.49-.89,0-.07.05-.12.11-.14.06-.02.13,0,.17.06.5.73,1.63.96,2.38.48.74-.48,1.01-1.6.55-2.36-.04-.07-.02-.17.05-.21.07-.04.17-.02.21.05.55.91.24,2.21-.65,2.78-.79.51-1.92.36-2.58-.3-.09.3-.28.57-.55.78-.3.23-.65.36-.99.36Z"/><path class="cls-15" d="M141.84,93.95s-.09,0-.14,0c-.66-.07-1.29-.5-1.89-1.29-.05-.07-.04-.16.03-.22.07-.05.16-.04.22.03.54.72,1.11,1.11,1.68,1.17.36.04.77-.13,1.02-.41.19-.21.26-.46.21-.7-.02-.07.02-.15.09-.18.07-.03.15,0,.19.06.21.35.62.58,1.09.61.47.03.9-.13,1.16-.44.26-.31.35-.77.24-1.22-.11-.45-.41-.81-.79-.96-.08-.03-.12-.12-.09-.2.03-.08.12-.12.2-.09.47.19.84.63.98,1.18.14.55.03,1.11-.3,1.5-.33.39-.86.6-1.42.55-.4-.03-.77-.18-1.05-.42-.04.19-.14.36-.28.53-.29.32-.73.52-1.15.52Z"/><path class="cls-15" d="M146.73,87.42c-.5,0-1-.28-1.22-.73-.04-.08,0-.17.07-.21.08-.04.17,0,.21.07.24.48.89.7,1.37.47.48-.23.71-.88.48-1.36-.03-.06-.01-.14.04-.18.05-.05.13-.05.19-.01.34.22.79.28,1.23.16.44-.12.8-.39.99-.76.19-.36.21-.82.05-1.24-.16-.43-.47-.76-.85-.91-.08-.03-.12-.12-.09-.2.03-.08.12-.12.2-.09.46.19.83.58,1.02,1.09.19.51.17,1.05-.06,1.49-.23.44-.66.77-1.19.91-.39.1-.8.09-1.15-.04.08.56-.21,1.16-.73,1.41-.18.08-.37.12-.56.12Z"/><path class="cls-15" d="M132.61,92.97c-.1,0-.2-.01-.3-.04-.58-.16-.98-.77-.9-1.37.01-.08.09-.14.17-.13.08.01.14.09.13.17-.06.44.25.91.68,1.03.43.12.93-.13,1.1-.54.02-.04.06-.08.1-.09.05-.01.1,0,.13.03.41.32,1.05.32,1.45,0,.41-.32.56-.94.35-1.41-.04-.08,0-.17.08-.2.08-.04.17,0,.2.08.27.61.08,1.37-.44,1.78-.47.37-1.17.41-1.68.1-.23.36-.65.59-1.08.59Z"/><ellipse class="cls-25" cx="128.34" cy="87.84" rx="2.81" ry="2.15"/><path class="cls-3" d="M123.93,81.79s-6.47,2.5-13.23.51c0,0-1.18,5.44,5.73,3.6,0,0,1.18,3.9,6.17,2.13,5-1.76,5.51-5.66,5.51-5.66l-4.19-.59Z"/><path class="cls-3" d="M132.54,81.79s6.48,2.5,13.24.51c0,0,1.18,5.44-5.73,3.6,0,0-1.18,3.9-6.17,2.13-5-1.76-5.51-5.66-5.51-5.66l4.17-.59Z"/><path class="cls-15" d="M120.21,88.65c-.73,0-1.38-.15-1.97-.44-1.24-.63-1.76-1.73-1.91-2.12-2.32.59-3.99.43-4.96-.5-1.27-1.21-.85-3.24-.83-3.32.02-.08.1-.14.18-.12.08.02.14.1.12.18,0,.02-.4,1.95.74,3.04.9.86,2.52.99,4.8.38.08-.02.16.03.19.1,0,.01.43,1.38,1.81,2.07,1.1.56,2.51.54,4.17-.04,4.84-1.71,5.41-5.5,5.41-5.53.01-.08.09-.15.17-.13.08.01.14.09.13.17,0,.04-.59,4.01-5.61,5.78-.88.31-1.7.47-2.45.47Z"/><path class="cls-15" d="M136.28,88.65c-.75,0-1.56-.16-2.45-.47-5.03-1.78-5.61-5.74-5.61-5.78-.01-.08.05-.16.13-.17.08-.01.16.05.17.13,0,.04.57,3.82,5.41,5.53,1.66.59,3.06.6,4.17.04,1.37-.69,1.8-2.06,1.81-2.07.02-.08.11-.12.19-.1,2.28.61,3.9.48,4.8-.38,1.14-1.09.74-3.02.74-3.04-.02-.08.04-.17.12-.18.09-.02.17.04.18.12.02.09.44,2.11-.83,3.32-.97.92-2.64,1.09-4.96.5-.15.39-.67,1.49-1.91,2.12-.58.3-1.24.44-1.97.44Z"/><path class="cls-15" d="M116.43,84.97c-1.96,0-3.91-.37-5.74-1.12-.08-.03-.12-.12-.08-.2.03-.08.12-.12.2-.08,4.45,1.84,9.72,1.35,13.76-1.28.07-.05.17-.03.21.05.05.07.03.17-.05.21-2.47,1.61-5.38,2.43-8.31,2.43Z"/><path class="cls-15" d="M117.85,87.76c-.08,0-.15-.07-.15-.15,0-.09.06-.16.15-.16,3.48-.14,6.81-2.22,8.46-5.29.04-.08.14-.1.21-.06.08.04.1.13.06.21-1.71,3.16-5.13,5.3-8.72,5.45h0Z"/><path class="cls-15" d="M138.35,87.69c-3.44,0-6.99-2.1-8.41-5.04-.04-.08,0-.17.07-.21.08-.04.17,0,.21.07,1.43,2.97,5.13,5.06,8.6,4.85.09-.01.16.06.16.15,0,.09-.06.16-.15.16-.16,0-.33.01-.49.01Z"/><path class="cls-15" d="M139.91,84.65c-3,0-6-.91-8.47-2.68-.07-.05-.09-.15-.04-.22.05-.07.15-.09.22-.04,4.06,2.92,9.62,3.45,14.16,1.35.08-.04.17,0,.21.08.04.08,0,.17-.08.21-1.89.87-3.95,1.3-6,1.3Z"/><path class="cls-17" d="M101.64,74.37s-.99-3.86-.88-8.05c.06-2.25,1.29-14.07,5.7-22.12,4.41-8.05,15.8-21.53,17.56-23.52,1.76-1.98,3.71-3.49,5.25-2.83,1.54.66,8.16,5.18,12.57,15.87,4.41,10.69,8.53,20.14,10.51,24.77,1.98,4.63,3.09,13.34,2.54,15.54l-1.41.81s-2.59-21.94-24.97-21.39c-23.47.58-25.35,21.44-25.35,21.44l-1.51-.53Z"/><path class="cls-2" d="M166.65,81.31c-4.08-.48-7.92,2.62-8.82,11.27l-1.24,10.49,14.77,1.75,1.24-10.49c.99-8.39-1.87-12.53-5.95-13.01Z"/><path class="cls-23" d="M165.32,92.56c-.97-.11-1.85.58-1.96,1.55l-4.12,34.86c-.11.97.58,1.85,1.55,1.96.97.11,1.85-.58,1.96-1.55l4.12-34.86c.11-.97-.58-1.85-1.55-1.96Z"/><path class="cls-16" d="M160.3,89.09s-.04,0-.06,0c-.17-.03-.28-.2-.24-.36.24-1.2.7-2.94,1.87-4.23,1.05-1.15,3.01-2.02,5.02-1.37.16.05.25.23.2.39-.05.16-.23.25-.39.2-1.75-.56-3.46.2-4.38,1.2-.82.89-1.36,2.14-1.72,3.93-.03.15-.16.25-.3.25ZM169.45,86.28c.16-.05.26-.22.21-.38-.19-.66-.54-1.27-1.04-1.75-.12-.12-.32-.12-.44,0-.12.12-.12.32,0,.44.41.41.72.92.87,1.48.04.14.16.23.3.23.03,0,.06,0,.08-.01Z"/><path class="cls-18" d="M168.29,117.01c1.07.72.9,2.15.68,2.93-.21.78.28,2.36-.27,3.36s-.84,1.01-.68,1.68c.2.82-.35,2.27-.69,2.78-.28.43.22,2.08-1.07,2.72-1.29.64-6.88-.29-8.14-1.47-1.25-1.18-.08-2.76.24-2.91.32-.14-2.87-1.4-.11-3.99,0,0-1.53-1.87,1.08-3.59,0,0-1.37-3.12,1.17-3.26,2.55-.14,6.45.86,7.78,1.75Z"/><path class="cls-7" d="M164.06,127.36c-2.17,0-3.48-.36-5.54-1.14-.08-.03-.12-.12-.09-.2.03-.08.12-.12.2-.09,2.11.8,3.37,1.13,5.58,1.12h0c.08,0,.15.07.15.15,0,.09-.07.16-.15.16-.05,0-.1,0-.15,0Z"/><path class="cls-7" d="M165.18,123.7c-2.34,0-5.3-.89-6.86-1.42-.08-.03-.12-.12-.1-.2.03-.08.12-.12.2-.1,1.54.52,4.47,1.4,6.76,1.4h0c.09,0,.15.07.15.15s-.07.15-.15.15h0Z"/><path class="cls-7" d="M165.66,120.01c-2.15,0-4.23-.67-6.2-1.36-.08-.03-.12-.12-.09-.2.03-.08.12-.12.2-.09,2.08.73,4.31,1.44,6.58,1.33.08,0,.16.06.16.15,0,.09-.06.16-.15.16-.17,0-.33.01-.5.01Z"/><path class="cls-18" d="M74.32,131.84c-.07,1.18-1.69,2.87-5.07,4.56-3.38,1.69-7.5,1.84-8.01,1.03-.51-.81,0-1.62,1.4-2.13,1.4-.51,2.5-1.4,1.98-1.4-.24,0-1.61-.25-3.18-.61-1.81-.42-3.72-1.11-4.59-1.58-.45-.24-.94-.54-1.14-.85-.4-.62.02-1.78.97-1.78,0,0-.75-.69-.38-1.4.25-.47.56-.62,1.32-.62,0,0-.26-.77.32-1.19.55-.39,1.98-.27,1.98-.27,0,0-.28-.91,1.16-.96,1.43-.06,3.38.7,5.26.17,2.05-.58,3.34-1.15,4.3-.63,1.87,1.01,3.8,5.55,3.67,7.67Z"/><path class="cls-7" d="M64.62,126.18c-1.49,0-2.97-.2-4.42-.6-.08-.02-.13-.11-.11-.19.02-.08.11-.13.19-.11,1.77.49,3.59.67,5.42.55.08,0,.16.06.16.14,0,.09-.06.16-.14.16-.37.02-.74.04-1.11.04Z"/><path class="cls-7" d="M64.17,128.03c-2.19,0-4.36-.29-6.47-.88-.08-.02-.13-.11-.11-.19.02-.08.11-.13.19-.11,2.31.64,4.69.93,7.09.85.09,0,.16.06.16.15,0,.09-.06.16-.15.16-.24,0-.47.01-.71.01Z"/><path class="cls-7" d="M62.38,130.06c-1.93,0-3.87-.28-5.71-.84-.08-.02-.13-.11-.1-.19.02-.08.11-.13.19-.1,2.51.76,5.2,1.01,7.81.71.08,0,.16.05.17.14,0,.08-.05.16-.14.17-.73.08-1.48.13-2.22.13Z"/><path class="cls-27" d="M104.79,163.85s11.93,3.12,20.75,1.02c0,0,.11,24.14-.66,25.24s-30.79,3.64-33.44.59c-1.69-1.95,1.18-9.33,7.79-10.88,6.61-1.54,9.11-.44,9.11-.44,0,0-2.6-9.51-3.55-15.54Z"/><path class="cls-27" d="M152.56,163.88s-11.98,3.09-20.8.99c0,0-.11,24.14.66,25.24.77,1.1,30.79,3.64,33.44.59,1.69-1.95-1.18-9.33-7.79-10.88-6.61-1.54-9.11-.44-9.11-.44,0,0,2.65-9.48,3.6-15.51Z"/><path class="cls-22" d="M120.27,72.04c-.17,0-.3-.13-.31-.3-.04-1.3-1.17-2.49-2.47-2.58-1.3-.09-2.59.91-2.82,2.19-.03.17-.19.28-.36.25-.17-.03-.28-.19-.25-.36.28-1.58,1.87-2.82,3.48-2.7,1.6.12,3,1.58,3.04,3.18,0,.17-.13.31-.3.32h0Z"/><path class="cls-22" d="M141.88,72.04c-.17,0-.3-.13-.31-.3-.04-1.3-1.17-2.49-2.47-2.58-1.3-.09-2.59.91-2.82,2.19-.03.17-.19.28-.36.25-.17-.03-.28-.19-.25-.36.28-1.58,1.87-2.82,3.48-2.7,1.6.12,3,1.58,3.04,3.18,0,.17-.13.31-.3.32h0Z"/><path class="cls-25" d="M127.82,68.23c-2.7,0-4.82,12.53-3.91,13.6,1.87,2.2,7.02,2.29,8.77.05.85-1.09-1.8-13.65-4.86-13.65Z"/><ellipse class="cls-26" cx="114.1" cy="77.73" rx="3.75" ry="4.88" transform="translate(-10.27 137.68) rotate(-60)"/><path class="cls-26" d="M141.11,74.49c-2.34,1.35-3.39,3.89-2.35,5.69,1.03,1.79,3.77,2.15,6.1.8,2.34-1.35,3.39-3.89,2.35-5.69-1.03-1.79-3.77-2.15-6.1-.8Z"/><path class="cls-3" d="M111.81,66.17c-.55-.8-.11-2.08,1.07-3.14,1.46-1.32,4.16-2.84,5.93-3.25,4.01-.94,4.76,2.33,3.47,3.03-.3.17-1.1.11-1.93.3-3.83.89-5.98,2.89-6.98,3.48-.58.34-1.14.19-1.57-.42Z"/><path class="cls-3" d="M144.73,66.17c.55-.8.11-2.08-1.07-3.14-1.46-1.32-4.16-2.84-5.93-3.25-4.01-.94-4.76,2.33-3.47,3.03.3.17,1.1.11,1.93.3,3.83.89,5.98,2.89,6.98,3.48.58.34,1.14.19,1.57-.42Z"/><path class="cls-1" d="M128.89,153.45c-3.23,0-6.46-.88-9.21-2.64-.14-.09-.19-.28-.09-.43.09-.14.28-.19.43-.09,5.2,3.33,12.22,3.4,17.48.16.14-.09.34-.04.43.1.09.15.04.34-.1.43-2.68,1.65-5.81,2.48-8.93,2.48Z"/><path class="cls-10" d="M111.42,181.79s-.04,0-.07,0c-1.34-.29-2.57-1.16-3.29-2.34-.09-.15-.04-.34.1-.43.15-.09.34-.04.43.1.63,1.03,1.71,1.8,2.9,2.06.17.04.27.2.24.37-.03.14-.16.24-.3.24Z"/><path class="cls-10" d="M146.28,181.89c-.13,0-.26-.09-.3-.22-.05-.16.04-.34.21-.38,1.09-.32,2.02-1.13,2.5-2.15.07-.15.26-.22.41-.15.15.07.22.26.15.41-.55,1.19-1.63,2.12-2.88,2.49-.03,0-.06.01-.09.01Z"/><path class="cls-20" d="M109.82,51.06c-.06,0-.13-.02-.18-.06-.14-.1-.17-.3-.06-.43,3.42-4.63,9.13-7.52,14.88-7.54h0c.17,0,.31.14.31.31,0,.17-.14.31-.31.31-5.57.02-11.08,2.82-14.39,7.29-.06.08-.15.13-.25.13Z"/><path class="cls-20" d="M140.78,47.78c-.07,0-.14-.02-.2-.07-2.19-1.84-4.84-3.09-7.65-3.62-.17-.03-.28-.19-.25-.36.03-.17.19-.28.36-.25,2.91.55,5.66,1.85,7.93,3.76.13.11.15.3.04.44-.06.07-.15.11-.24.11Z"/><path class="cls-20" d="M145.77,52.34c-.11,0-.21-.06-.27-.16-.44-.78-1.07-1.46-1.81-1.95-.14-.09-.18-.29-.09-.43.09-.14.29-.18.43-.09.83.55,1.52,1.3,2.01,2.16.08.15.03.34-.12.42-.05.03-.1.04-.15.04Z"/><path class="cls-18" d="M36.58,77.05c.04,8.38,10.72,15.21,24.74,15.21,14.02,0,26.02-7.28,26.03-15.21.03-13.64-11.37-24.69-25.39-24.69s-25.46,11.06-25.39,24.69Z"/><path class="cls-27" d="M42.28,89.45c-8.87,2.65-11.9,6.61-14.93,13.45-3.03,6.83-5.41,19.62-3.46,24.91,1.95,5.29,11.47,2.87,11.47,2.87,0,0,56.27,2.2,56.92.66.5-1.19,3.1-19.18,3.27-30.17.02-1.44-.57-3.73-1.72-4.9-5.42-4.88-12.8-5.06-12.8-5.06,0,0-29.87-4.41-38.74-1.76Z"/><path class="cls-11" d="M92.55,122.79h0c.17,0,.31-.15.3-.32-.16-5.45-1.55-10.9-4.01-15.77-.08-.15-.26-.21-.42-.14-.15.08-.21.26-.14.42,2.42,4.79,3.78,10.15,3.94,15.51,0,.17.14.3.31.3Z"/><path class="cls-11" d="M33.04,127.4s.03,0,.05,0c.17-.03.28-.19.25-.36-1.27-7.42-.06-15.18,3.4-21.86.08-.15.02-.34-.13-.42-.15-.08-.34-.02-.42.13-3.52,6.8-4.75,14.7-3.46,22.25.03.15.16.26.3.26Z"/><path class="cls-5" d="M79.74,94.32s-2.65,27.12,12.57,34.17c0,0-.73,17.56-7.4,36.84l-20.16,1.45s-.73-5.87-1.1-13.81c0,0-3.2.33-4.96-.11,0,0,.06,10.77-.6,14.07,0,0-18.25.59-20.02-1.4-1.76-1.98-5.73-32.19-5.07-37.7,0,0,13.23-8.6,11.02-33.95l7.06,1.1s-3.99,14.32,11.24,14.55c14.55.22,10.36-15.65,10.36-15.65l7.06.44Z"/><path class="cls-13" d="M34.86,131.42c.03,2.7.12,5.39.26,8.09-.5-.06-.99-.13-1.48-.2.01.11.02.22.03.33.49.06.98.12,1.47.18.12,2.27.28,4.54.48,6.81-.39-.07-.78-.15-1.17-.21.01.11.03.22.04.34.38.07.77.12,1.15.19.21,2.3.45,4.59.73,6.88-.31-.05-.61-.1-.92-.16.02.11.03.21.05.32.3.05.61.11.91.16.29,2.34.63,4.68,1.01,7.01-.22-.03-.45-.06-.67-.09.02.11.04.22.07.32.22.03.44.06.66.09.24,1.46.5,2.91.77,4.36.1.08.21.15.36.22-.28-1.51-.55-3.02-.8-4.54,1.6.22,3.2.41,4.8.58.19,1.61.4,3.21.62,4.82.11,0,.21.02.32.03-.22-1.6-.42-3.21-.62-4.81,1.66.17,3.31.32,4.97.45.09,1.53.19,3.06.29,4.59.1,0,.21,0,.31,0-.1-1.52-.2-3.05-.29-4.57,1.98.14,3.96.24,5.94.31l.02,4.3c.1,0,.21,0,.31,0l-.02-4.29c1.37.05,2.74.07,4.11.09,0-.1.01-.2.02-.3-1.38-.01-2.75-.04-4.13-.09l-.03-6.72c1.1.03,2.2.05,3.3.05.34,0,.68,0,1.02,0,0-.1,0-.21,0-.31-1.44.01-2.89,0-4.33-.04l-.03-7c.35,0,.7.02,1.05.02,1.5,0,3-.03,4.5-.09-.03,1.57-.05,3.15-.06,4.72.1,0,.21.02.31.02.01-1.59.03-3.17.06-4.76,1.87-.07,3.73-.2,5.59-.36-.1,2.41-.2,4.83-.32,7.24-.56.03-1.13.07-1.69.1,0,.11.01.21.02.32.55-.03,1.1-.06,1.65-.09-.11,2.31-.24,4.61-.37,6.92-.26,0-.51.02-.77.02,0,.1.02.21.03.31.24,0,.48-.02.73-.02-.08,1.35-.17,2.7-.25,4.05l.31-.02c.08-1.35.17-2.69.25-4.04,1.74-.06,3.49-.14,5.23-.25-.18,1.31-.37,2.63-.56,3.94l.32-.02c.19-1.31.38-2.63.56-3.94,1.85-.13,3.7-.29,5.54-.48-.21,1.35-.44,2.69-.67,4.03l.32-.02c.23-1.35.45-2.69.67-4.04,2.08-.22,4.15-.47,6.23-.77-.3,1.42-.62,2.97-.95,4.38l.32-.02c.33-1.44.69-3.1.99-4.55,0,0,0,0,0,0,0,.05-.02.1-.03.14,1.03-.15,2.06-.31,3.09-.48.03-.11.07-.22.1-.33-1.04.17-2.08.33-3.12.48.53-2.58,1.03-5.32,1.45-7.91,0,0,0,0,0,0,0-.02,0-.04,0-.05,1.3-.28,2.6-.59,3.89-.91.03-.12.06-.23.08-.35-1.3.33-2.61.63-3.92.92.41-2.55.82-5.53,1.13-8.06,1.49-.39,3.02-.83,4.49-1.27.02-.12.04-.24.06-.35-1.48.45-3.03.89-4.52,1.28.26-2.23.51-4.66.7-6.88,0,0,0,0,0,0,0,0,0,0,0,0,1.6-.35,3.24-.73,4.82-1.13.01-.12.03-.23.04-.34-1.6.41-3.23.78-4.84,1.13.16-2.02.32-4.31.42-6.31,0,0,0,0,0,0,0,0,0-.01,0-.02,1.67-.24,3.34-.46,5-.66,0-.11.02-.22.02-.31-1.65.2-3.33.42-5,.66.07-1.66.14-3.57.17-5.2-.1-.11-.2-.21-.3-.32-.03,1.75-.11,3.78-.19,5.56-1.71.25-3.42.5-5.11.76-.39.06-.77.12-1.16.18.24-2.49.45-4.98.65-7.47,1.41-.29,2.81-.63,4.21-.98-.06-.09-.12-.18-.19-.27-1.33.34-2.66.65-4,.93.21-2.68.4-5.36.57-8.04-.09-.27-.18-.55-.26-.83,0,.05,0,.1,0,.14-2.1.42-4.21.78-6.32,1.08.1-1.96.19-3.92.27-5.88,1.59-.31,3.18-.68,4.76-1.09-.02-.1-.03-.2-.05-.31-1.56.4-3.12.77-4.7,1.08.08-2.1.15-4.19.21-6.28,1.3-.28,2.58-.61,3.86-.96,0-.11-.01-.21-.02-.32-1.27.35-2.55.67-3.84.95.07-2.63.13-5.26.16-7.89,0-.09-.07-.16-.15-.16-.1-.01-.15.07-.16.15-.03,2.65-.09,5.31-.16,7.96-1,.21-2.01.4-3.03.57-.04.11-.08.22-.12.33,1.05-.18,2.1-.37,3.14-.59-.06,2.09-.13,4.18-.21,6.28-2.8.54-5.63.94-8.46,1.2,0-.62,0-1.23,0-1.85-.1.03-.21.06-.31.08,0,.6,0,1.19,0,1.79-1.85.16-3.7.26-5.56.3,0-.56,0-1.11,0-1.67-.11,0-.2-.02-.31-.03,0,.57,0,1.14,0,1.71-2.16.04-4.31,0-6.47-.13l-.02-3.85c-.11-.09-.21-.18-.31-.27l.02,4.1c-2.06-.13-4.12-.33-6.16-.6.09-2.12.19-4.23.31-6.34,1.31.2,2.62.38,3.93.52-.06-.11-.12-.22-.18-.33-1.25-.13-2.5-.31-3.74-.5.15-2.82.33-5.64.53-8.46,0-.09-.06-.16-.14-.17-.08-.01-.16.06-.16.14-.2,2.81-.37,5.62-.53,8.43-1.19-.19-2.38-.41-3.55-.65,0,.1-.02.21-.02.31,1.18.25,2.37.46,3.56.65-.11,2.11-.22,4.23-.31,6.35-1.37-.19-2.74-.42-4.11-.68-.02.1-.04.2-.06.3,1.38.26,2.77.49,4.16.69-.08,1.86-.14,3.72-.2,5.57-1.86-.2-3.72-.44-5.57-.73-.04.1-.07.2-.11.29,1.88.29,3.77.54,5.67.74-.08,2.71-.14,5.43-.18,8.14-2.14-.27-4.29-.6-6.44-.99,0-1.92,0-3.83.04-5.75-.1.23-.21.45-.32.66-.03,1.68-.04,3.35-.03,5.03-.88-.16-1.77-.35-2.66-.53-.07.09-.14.18-.2.27.96.2,1.91.4,2.86.57,0,2.68.04,5.35.11,8.03-1.8-.29-3.54-.62-5.23-1-.02-1.66-.01-3.32,0-4.98-.11.11-.21.21-.31.31-.02,1.54-.02,3.07,0,4.6-.63-.14-1.24-.29-1.86-.45,0,.1,0,.21,0,.32.61.16,1.23.3,1.85.45ZM79.11,145.9c.3-2.39.58-4.79.84-7.19,2.2-.38,4.39-.8,6.57-1.27,0,0,0,0,0,0,0,0,0,0,0,0-.19,2.24-.43,4.65-.69,6.89-2.21.58-4.48,1.11-6.72,1.56ZM79.67,138.44c-2,.34-4,.64-6.01.9.21-2.24.41-4.47.59-6.71,2.05-.28,4.09-.58,6.11-.88-.21,2.23-.45,4.46-.69,6.7ZM78.79,145.96c-1.96.39-3.93.73-5.91,1.02.26-2.44.52-4.88.75-7.32,2.01-.26,4.01-.56,6.01-.9-.26,2.4-.55,4.8-.85,7.2ZM78.75,146.29c-.32,2.58-.67,5.16-1.03,7.73-1.91.3-3.82.57-5.74.78.31-2.5.6-5,.87-7.5,1.97-.29,3.94-.62,5.9-1.01ZM72.57,147.03c-2.13.31-4.27.55-6.41.74.1-2.45.19-4.9.26-7.35,2.3-.19,4.6-.43,6.89-.72-.23,2.45-.48,4.89-.75,7.33ZM66.12,140.12c-1.9.15-3.81.28-5.72.36.06-2.24.11-4.47.17-6.68,1.89-.04,3.8-.14,5.73-.3-.05,2.2-.11,4.41-.18,6.61ZM60.59,133.49c.07-2.47.13-4.96.19-7.46,1.9,0,3.79-.07,5.68-.18-.04,2.44-.08,4.89-.14,7.33-1.92.16-3.83.26-5.73.3ZM60.94,117.35c1.87-.03,3.74-.1,5.6-.21-.01,2.8-.04,5.6-.08,8.41-1.88.11-3.77.17-5.67.18.07-2.78.12-5.57.16-8.37ZM66.55,111.33c0,1.83,0,3.66,0,5.5-1.86.12-3.73.19-5.6.22.02-1.81.04-3.61.05-5.42,1.86-.04,3.71-.14,5.56-.3ZM66.61,133.48c2.43-.21,4.88-.49,7.32-.81-.18,2.24-.38,4.48-.59,6.71-2.3.29-4.6.52-6.91.71.07-2.2.13-4.41.18-6.61ZM66.76,125.84c2.6-.16,5.18-.4,7.74-.76-.16,2.42-.34,4.84-.54,7.26-2.45.33-4.9.61-7.34.82.06-2.44.1-4.88.14-7.32ZM66.85,117.12c2.73-.18,5.46-.45,8.17-.82-.15,2.83-.31,5.65-.5,8.48-2.57.35-5.15.6-7.75.76.04-2.81.07-5.61.08-8.41ZM75.31,110.11c-.08,1.95-.17,3.91-.27,5.86-2.72.38-5.45.65-8.19.83,0-1.84.01-3.67,0-5.5,2.83-.26,5.65-.65,8.45-1.19ZM81.07,123.65c-2.06.42-4.14.78-6.23,1.07.19-2.83.36-5.65.5-8.48,2.12-.3,4.23-.66,6.32-1.07-.17,2.82-.37,5.65-.59,8.48ZM80.39,131.42c-2.03.31-4.07.61-6.12.88.2-2.42.38-4.84.54-7.27,2.09-.29,4.16-.64,6.23-1.07-.2,2.48-.41,4.97-.65,7.45ZM86.96,130.76s0,0,.01,0c-.1,2.01-.26,4.32-.42,6.35-2.18.47-4.36.9-6.56,1.27.24-2.23.47-4.46.69-6.69.41-.06.83-.12,1.24-.19,1.66-.25,3.35-.51,5.04-.75,0,0,0,0,0,0ZM76.87,161.8c.39-2.49.77-4.99,1.12-7.49,2.21-.35,4.41-.76,6.61-1.23.02-.11.04-.22.05-.34-2.2.47-4.4.88-6.62,1.24.37-2.58.71-5.16,1.03-7.74,2.23-.45,4.51-.96,6.72-1.53-.32,2.63-.76,5.77-1.19,8.38h0c-.42,2.57-.97,5.38-1.5,7.95-2.08.3-4.15.56-6.24.78ZM71,162.3c.33-2.39.64-4.78.93-7.18,1.92-.21,3.83-.47,5.74-.77-.36,2.49-.73,4.98-1.12,7.47-1.85.19-3.7.35-5.55.47ZM65.8,155.66c1.94-.12,3.88-.29,5.82-.5-.3,2.39-.61,4.78-.93,7.16-1.75.12-3.5.2-5.26.26.13-2.31.26-4.61.37-6.93ZM66.14,148.09c2.13-.19,4.26-.44,6.39-.74-.27,2.5-.56,5-.87,7.49-1.94.21-3.89.37-5.84.49.12-2.41.22-4.83.32-7.25ZM60.25,148.16c.04-2.47.09-4.93.15-7.38,1.91-.08,3.81-.19,5.72-.35-.08,2.45-.16,4.9-.26,7.35-1.87.16-3.73.29-5.6.37ZM54.34,140.93c1.92,0,3.83-.05,5.74-.13-.06,2.45-.11,4.91-.15,7.38-1.85.07-3.71.08-5.56.06l-.03-7.31ZM54.31,133.74c1.43.05,2.89.08,4.39.09.16,0,1.2-.01,1.57-.02-.06,2.21-.12,4.44-.18,6.68-1.92.08-3.83.11-5.75.12l-.03-6.87ZM54.28,125.85c2.07.12,4.14.19,6.19.19-.06,2.5-.13,5-.19,7.46-.52,0-1.05.02-1.57.02-1.51-.01-2.97-.04-4.39-.09l-.03-7.58ZM54.24,117.25c1.69.07,3.39.12,5.08.12.44,0,.87-.01,1.31-.02-.04,2.8-.09,5.59-.16,8.36-2.06,0-4.12-.06-6.2-.18l-.04-8.29ZM54.22,111.51c1.65.1,3.29.15,4.94.15.51,0,1.01-.02,1.52-.02,0,1.81-.02,3.61-.05,5.41-2.13.02-4.27-.01-6.4-.1l-.02-5.43ZM47.03,125.19c-.04,2.6-.05,5.2-.04,7.8-2.17-.2-4.26-.45-6.28-.77-.07-2.68-.11-5.35-.12-8.03,2.15.39,4.3.73,6.44.99ZM47.05,140.48c-2.01-.09-4.03-.22-6.03-.39-.13-2.52-.23-5.04-.3-7.56,2.02.31,4.1.57,6.27.76,0,2.39.02,4.79.06,7.18ZM47.23,147.98c-1.92-.13-3.84-.32-5.75-.54-.17-2.34-.32-4.68-.44-7.03,2,.16,4.01.3,6.02.38.04,2.4.1,4.79.17,7.19ZM47.24,148.28c.07,2.3.15,4.61.26,6.91-1.8-.14-3.6-.32-5.4-.54-.22-2.29-.42-4.59-.59-6.89,1.91.22,3.82.39,5.74.52ZM53.93,116.93c-2.14-.1-4.27-.26-6.4-.48.06-1.85.12-3.71.2-5.56,2.05.28,4.11.48,6.18.6l.02,5.43ZM53.97,125.52c-2.2-.14-4.41-.34-6.62-.61.04-2.72.1-5.44.18-8.15,2.13.22,4.27.38,6.41.48l.04,8.28ZM54,133.42c-2.33-.08-4.56-.22-6.7-.41,0-2.6,0-5.19.04-7.79,2.22.27,4.43.48,6.63.61l.03,7.59ZM54.03,140.61c-2.23,0-4.45-.03-6.67-.12-.04-2.39-.06-4.78-.06-7.17,2.15.19,4.38.33,6.71.41l.03,6.88ZM54.06,148.24c-2.18-.02-4.35-.1-6.53-.24-.07-2.4-.13-4.8-.17-7.2,2.12.09,4.24.13,6.36.13.1,0,.21,0,.31,0l.03,7.31ZM54.1,155.55c-2.1-.06-4.2-.18-6.29-.34-.1-2.3-.19-4.6-.26-6.91,2.17.14,4.34.22,6.52.25l.03,6.99ZM47.82,155.52c2.09.16,4.18.28,6.28.34l.03,6.72c-1.99-.07-3.97-.17-5.95-.31-.13-2.25-.25-4.49-.35-6.74ZM42.12,154.97c1.79.22,3.59.39,5.39.53.1,2.25.22,4.5.35,6.75-1.66-.12-3.33-.28-4.99-.45-.27-2.27-.53-4.55-.75-6.83ZM36.74,154.19c1.69.28,3.38.53,5.07.75.22,2.28.48,4.56.75,6.83-1.61-.17-3.21-.36-4.81-.58-.38-2.33-.71-4.66-1.01-6.99ZM35.96,146.98c1.74.28,3.48.54,5.23.75.17,2.3.37,4.59.59,6.88-1.7-.21-3.39-.47-5.08-.75-.29-2.29-.53-4.58-.73-6.88ZM35.45,139.85c1.75.21,3.51.39,5.27.54.12,2.34.27,4.68.44,7.02-1.75-.21-3.49-.44-5.23-.73-.2-2.27-.36-4.55-.48-6.82ZM35.17,131.48c1.7.38,3.44.71,5.24,1,.07,2.53.17,5.06.3,7.58-1.76-.15-3.52-.32-5.27-.53-.14-2.68-.23-5.37-.26-8.05Z"/><path class="cls-1" d="M72.52,113.95v5.84c0,5.54-4.49,10.03-10.03,10.03h0c-5.54,0-10.03-4.49-10.03-10.03v-5.84h20.06Z"/><path class="cls-3" d="M83.76,64.67s5.81,26.35-21.75,17.31c0,0-25.13,10.22-21.24-18.19,0,0-6.28,7.28-3.64,14.88,0,0-2.87,6.72,3.86,9.26,0,0-2.87,8.82,7.17,8.38,0,0,.88,8.38,8.16,4.41,0,0,1.43,5.84,6.61,6.06,5.18.22,5.73-5.84,5.73-5.84,0,0,8.16,2.87,8.6-4.19,0,0,10.69.88,6.61-8.82,0,0,10.14-1.65,3.42-10.69,0,0,.55-8.71-3.53-12.57Z"/><path class="cls-15" d="M73.94,91.59c.51,0,1.02-.2,1.38-.56.47.33,1.13.38,1.64.11.44-.24.84-.73.88-1.29.41.16.89.16,1.35,0,.55-.2.97-.6,1.15-1.11.18-.5.11-1.08-.19-1.59-.3-.51-.77-.85-1.3-.93-.08-.02-.16.04-.18.13-.01.08.04.16.13.18.44.07.83.36,1.08.79.25.43.31.91.16,1.33-.15.42-.5.75-.97.92-.47.17-.95.14-1.33-.08-.05-.03-.12-.03-.16,0-.05.03-.07.09-.07.15.07.45-.24.99-.71,1.25-.44.24-1.03.17-1.41-.16-.03-.03-.07-.04-.11-.04-.04,0-.08.02-.11.05-.4.47-1.09.68-1.68.5-.59-.17-1.06-.72-1.13-1.34-.01-.08-.08-.15-.17-.13-.08.01-.14.09-.13.17.09.73.65,1.38,1.35,1.59.17.05.34.07.52.07Z"/><path class="cls-15" d="M83.01,85.43c.43,0,.86-.17,1.15-.49.45-.5.49-1.31.12-1.86.67-.26,1.15-.98,1.09-1.7-.06-.8-.76-1.5-1.57-1.56-.09,0-.16.06-.16.14,0,.09.06.16.14.16.65.04,1.23.63,1.28,1.27.05.65-.45,1.31-1.08,1.44-.05.01-.1.05-.11.11s0,.11.04.15c.4.43.41,1.19.02,1.63-.39.44-1.15.52-1.63.17-.07-.05-.16-.04-.22.03-.05.07-.04.17.03.22.26.19.57.28.89.28Z"/><path class="cls-15" d="M63.77,95.88c.67,0,1.32-.4,1.62-1,.26.27.62.45,1.02.5.5.07.99-.05,1.35-.34.36-.29.59-.74.63-1.25.04-.5-.12-.99-.44-1.33-.06-.06-.16-.07-.22,0-.06.06-.07.16,0,.22.26.28.39.67.36,1.09-.03.42-.22.79-.51,1.03-.29.24-.7.34-1.12.27-.42-.06-.78-.27-.99-.59-.03-.05-.09-.07-.15-.07-.06,0-.11.05-.12.11-.2.7-1.03,1.17-1.74.99-.71-.18-1.21-.99-1.06-1.7.02-.08-.04-.17-.12-.18-.08-.02-.17.03-.18.12-.19.88.41,1.85,1.28,2.07.13.03.26.05.39.05Z"/><path class="cls-15" d="M68.43,99.73c.21,0,.41-.03.61-.09.53-.17.98-.57,1.22-1.07.18.19.42.32.7.39.37.09.76.03,1.06-.16.3-.19.51-.52.59-.89.08-.38,0-.76-.2-1.05-.05-.07-.15-.09-.22-.04-.07.05-.09.14-.04.22.15.22.21.52.15.82-.06.3-.23.55-.45.69-.23.15-.53.19-.82.12-.29-.07-.54-.24-.68-.48-.03-.05-.09-.08-.15-.07-.06,0-.11.05-.13.11-.16.53-.59.96-1.12,1.13-.53.17-1.13.06-1.57-.27-.07-.05-.16-.04-.22.03-.05.07-.04.16.03.22.35.27.8.41,1.24.41Z"/><path class="cls-15" d="M60.33,100.77c.08,0,.16,0,.24-.02.42-.07.8-.34,1.04-.74.24-.39.31-.85.19-1.26-.02-.08-.11-.13-.19-.1-.08.02-.13.11-.1.19.1.32.04.69-.16,1.01-.2.32-.5.54-.83.59-.33.06-.69-.04-.98-.28-.29-.23-.47-.56-.49-.89,0-.07-.05-.12-.11-.14-.06-.02-.13,0-.17.06-.5.73-1.63.96-2.38.48-.74-.48-1.01-1.6-.55-2.36.04-.07.02-.17-.05-.21-.07-.04-.17-.02-.21.05-.55.91-.24,2.21.65,2.78.79.51,1.92.36,2.58-.3.09.3.28.57.55.78.3.23.65.36.99.36Z"/><path class="cls-15" d="M51.5,92.83s.09,0,.14,0c.66-.05,1.29-.37,1.89-.94.05-.05.04-.12-.03-.16-.07-.04-.16-.03-.22.02-.54.52-1.11.81-1.68.85-.36.03-.77-.09-1.02-.3-.19-.16-.26-.34-.21-.51.02-.05-.02-.11-.09-.13-.07-.02-.15,0-.19.05-.21.25-.62.42-1.09.44-.47.02-.9-.1-1.16-.32-.26-.23-.35-.56-.24-.89.11-.33.41-.59.79-.7.08-.02.12-.09.09-.15-.03-.06-.12-.09-.2-.06-.47.14-.84.46-.98.86-.14.4-.03.81.3,1.09.33.28.86.43,1.42.4.4-.02.77-.13,1.05-.31.04.13.14.27.28.38.29.24.73.38,1.15.38Z"/><path class="cls-15" d="M43.41,87.31c.5,0,1-.28,1.22-.73.04-.08,0-.17-.07-.21-.08-.04-.17,0-.21.07-.24.48-.89.7-1.37.47-.48-.23-.71-.88-.48-1.36.03-.06.01-.14-.04-.18-.05-.05-.13-.05-.19-.01-.34.22-.79.28-1.23.16-.44-.12-.8-.39-.99-.76-.19-.36-.21-.82-.05-1.24.16-.43.47-.76.85-.91.08-.03.12-.12.09-.2-.03-.08-.12-.12-.2-.09-.46.19-.83.58-1.02,1.09-.19.51-.17,1.05.06,1.49.23.44.66.77,1.19.91.39.1.8.09,1.15-.04-.08.56.21,1.16.73,1.41.18.08.37.12.56.12Z"/><ellipse class="cls-25" cx="61.81" cy="87.73" rx="2.81" ry="2.15"/><path class="cls-3" d="M66.21,81.68s6.47,2.5,13.23.51c0,0,1.18,5.44-5.73,3.6,0,0-1.18,3.9-6.17,2.13-5-1.76-5.51-5.66-5.51-5.66l4.19-.59Z"/><path class="cls-13" d="M88.5,74.26s.99-3.86.88-8.05c-.06-2.25-1.29-14.07-5.7-22.12-4.41-8.05-15.8-21.53-17.56-23.52-1.76-1.98-3.71-3.49-5.25-2.83-1.54.66-8.16,5.18-12.57,15.87-4.41,10.69-8.53,20.14-10.51,24.77-1.98,4.63-3.09,13.34-2.54,15.54l1.41.81s2.59-21.94,24.97-21.39c23.47.58,25.35,21.44,25.35,21.44l1.51-.53Z"/><path class="cls-12" d="M37.59,163.77s11.98,3.09,20.8.99c0,0,.11,24.14-.66,25.24-.77,1.1-30.79,3.64-33.44.59-1.69-1.95,1.18-9.33,7.79-10.88,6.61-1.54,9.11-.44,9.11-.44,0,0-2.65-9.48-3.6-15.51Z"/><path class="cls-14" d="M39.95,156l-15.87,1.71c-.89.1-1.54.9-1.44,1.79l1.19,11.07c.57,5.28,5.31,9.09,10.58,8.52h0c5.28-.57,9.09-5.31,8.52-10.58l-1.19-11.07c-.1-.89-.9-1.54-1.79-1.44Z"/><path class="cls-8" d="M26.17,102.68c-.72.08-1.22.86-1.12,1.76l6.81,63.19c.1.89.76,1.55,1.47,1.48.72-.08,1.22-.86,1.12-1.76l-6.81-63.19c-.1-.89-.76-1.55-1.47-1.48Z"/><path class="cls-19" d="M30.68,176.8s-.06,0-.08-.02c-2.17-.93-3.93-3.04-4.82-5.8-.8-2.46-.88-5.06-.96-7.58,0-.11.09-.21.2-.21.13,0,.21.09.21.2.08,2.49.15,5.06.94,7.46.86,2.65,2.54,4.67,4.59,5.55.11.04.15.17.11.27-.03.08-.11.13-.19.13Z"/><path class="cls-19" d="M33.67,177.38c-.62,0-1.24-.12-1.8-.36-.11-.04-.16-.17-.11-.27.04-.11.17-.16.27-.11.76.32,1.63.41,2.44.25.11-.02.22.05.24.16.02.11-.05.22-.16.24-.29.06-.58.08-.88.08Z"/><path class="cls-18" d="M21.85,116.9c-1.07.72-.9,2.15-.68,2.93.21.78-.28,2.36.27,3.36s.84,1.01.68,1.68c-.2.82.35,2.27.69,2.78.28.43-.22,2.08,1.07,2.72,1.29.64,6.88-.29,8.14-1.47,1.25-1.18.08-2.76-.24-2.91-.32-.14,2.87-1.4.11-3.99,0,0,1.53-1.87-1.08-3.59,0,0,1.37-3.12-1.17-3.26s-6.45.86-7.78,1.75Z"/><path class="cls-7" d="M26.09,127.25c2.17,0,3.48-.36,5.54-1.14.08-.03.12-.12.09-.2-.03-.08-.12-.12-.2-.09-2.11.8-3.37,1.13-5.58,1.12h0c-.08,0-.15.07-.15.15,0,.09.07.16.15.16.05,0,.1,0,.15,0Z"/><path class="cls-7" d="M24.97,123.59c2.34,0,5.3-.89,6.86-1.42.08-.03.12-.12.1-.2-.03-.08-.12-.12-.2-.1-1.54.52-4.47,1.4-6.76,1.4h0c-.09,0-.15.07-.15.15,0,.09.07.15.15.15h0Z"/><path class="cls-7" d="M24.48,119.91c2.15,0,4.23-.67,6.2-1.36.08-.03.12-.12.09-.2-.03-.08-.12-.12-.2-.09-2.08.73-4.31,1.44-6.58,1.33-.08,0-.16.06-.16.15,0,.09.06.16.15.16.17,0,.33.01.5.01Z"/><path class="cls-29" d="M85.35,163.74s-11.93,3.12-20.75,1.02c0,0-.11,24.14.66,25.24s30.79,3.64,33.44.59c1.69-1.95-1.18-9.33-7.79-10.88-6.61-1.54-9.11-.44-9.11-.44,0,0,2.6-9.51,3.55-15.54Z"/><path class="cls-22" d="M69.88,71.93c.17,0,.3-.13.31-.3.04-1.3,1.17-2.49,2.47-2.58,1.3-.09,2.59.91,2.82,2.19.03.17.19.28.36.25.17-.03.28-.19.25-.36-.28-1.58-1.87-2.82-3.48-2.7-1.6.12-3,1.58-3.04,3.18,0,.17.13.31.3.32h0Z"/><path class="cls-22" d="M48.27,71.93c.17,0,.3-.13.31-.3.04-1.3,1.17-2.49,2.47-2.58,1.3-.09,2.59.91,2.82,2.19.03.17.19.28.36.25.17-.03.28-.19.25-.36-.28-1.58-1.87-2.82-3.48-2.7-1.6.12-3,1.58-3.04,3.18,0,.17.13.31.3.32h0Z"/><path class="cls-25" d="M62.32,68.12c2.7,0,4.82,12.53,3.91,13.6-1.87,2.2-7.02,2.29-8.77.05-.85-1.09,1.8-13.65,4.86-13.65Z"/><ellipse class="cls-26" cx="77" cy="77.62" rx="4.88" ry="3.75" transform="translate(-28.49 48.9) rotate(-30)"/><path class="cls-26" d="M50,74.38c2.34,1.35,3.39,3.89,2.35,5.69-1.03,1.79-3.77,2.15-6.1.8-2.34-1.35-3.39-3.89-2.35-5.69s3.77-2.15,6.1-.8Z"/><path class="cls-3" d="M78.34,66.06c.55-.8.11-2.08-1.07-3.14-1.46-1.32-4.16-2.84-5.93-3.25-4.01-.94-4.76,2.33-3.47,3.03.3.17,1.1.11,1.93.3,3.83.89,5.98,2.89,6.98,3.48.58.34,1.14.19,1.57-.42Z"/><path class="cls-3" d="M45.42,66.06c-.55-.8-.11-2.08,1.07-3.14,1.46-1.32,4.16-2.84,5.93-3.25,4.01-.94,4.76,2.33,3.47,3.03-.3.17-1.1.11-1.93.3-3.83.89-5.98,2.89-6.98,3.48-.58.34-1.14.19-1.57-.42Z"/><path class="cls-1" d="M61.25,153.34c3.23,0,6.46-.88,9.21-2.64.14-.09.19-.28.09-.43-.09-.14-.28-.19-.43-.09-5.2,3.33-12.22,3.4-17.48.16-.14-.09-.34-.04-.43.1-.09.15-.04.34.1.43,2.68,1.65,5.81,2.48,8.93,2.48Z"/><path class="cls-9" d="M78.73,181.68s.04,0,.07,0c1.34-.29,2.57-1.16,3.29-2.34.09-.15.04-.34-.1-.43-.15-.09-.34-.04-.43.1-.63,1.03-1.71,1.8-2.9,2.06-.17.04-.27.2-.24.37.03.14.16.24.3.24Z"/><path class="cls-9" d="M43.86,181.78c.13,0,.26-.09.3-.22.05-.16-.04-.34-.21-.38-1.09-.32-2.02-1.13-2.5-2.15-.07-.15-.26-.22-.41-.15-.15.07-.22.26-.15.41.55,1.19,1.63,2.12,2.88,2.49.03,0,.06.01.09.01Z"/><path class="cls-6" d="M80.32,50.95c.06,0,.13-.02.18-.06.14-.1.17-.3.06-.43-3.42-4.63-9.13-7.52-14.88-7.54h0c-.17,0-.31.14-.31.31,0,.17.14.31.31.31,5.57.02,11.08,2.82,14.39,7.29.06.08.15.13.25.13Z"/><path class="cls-6" d="M49.37,47.67c.07,0,.14-.02.2-.07,2.19-1.84,4.84-3.09,7.65-3.62.17-.03.28-.19.25-.36-.03-.17-.19-.28-.36-.25-2.91.55-5.66,1.85-7.93,3.76-.13.11-.15.3-.04.44.06.07.15.11.24.11Z"/><path class="cls-6" d="M44.37,52.23c.11,0,.21-.06.27-.16.44-.78,1.07-1.46,1.81-1.95.14-.09.18-.29.09-.43-.09-.14-.29-.18-.43-.09-.83.55-1.52,1.3-2.01,2.16-.08.15-.03.34.12.42.05.03.1.04.15.04Z"/><path class="cls-27" d="M85.61,140.26c-3.09,1.08-7.94,2.32-9.73.75-1.79-1.57.09-7.56.09-7.56,0,0,3.83-7.64,5.08-16.4,1.35-9.47.14-20.14.48-20.31.65-.33,9.71.62,13.36,1.09,1.28,3.78,3.09,13.86,2.41,19.42-1.45,11.88-7.79,21.64-11.68,23.01Z"/><path class="cls-24" d="M80.31,133.96c-.91-.26-2-.82-3.77-.43-1.77.39-4.61.34-5.96.9-1.14.47-1.19,1.69.3,1.96,1.25.23,4.28.3,4.22.56-.04.16-1.51.85-3.43,1.56-1.08.4-2.79.9-3.4,1.12-1.51.53-1.58,2.28.05,2.31.65.01,2.21-.36,3.16-.6.76-.19,2.84-.57,2.84-.57,0,0-1.35.93-2.89,1.9-1.42.89-2.96,1.7-3.32,2.18-.59.78.08,2.38,2.02,1.52.82-.36,1.77-.88,2.68-1.34,1.42-.71,2.67-1.32,2.67-1.32,0,0-.93,1.23-2.05,2.45-.92,1.01-1.91,1.85-2.2,2.49-.4.89.82,1.77,2.22.77,1.14-.82,5.1-4.29,5.1-4.29,0,0-1.87,3.48-2.07,4.25-.21.8.96,1.31,1.54.63.69-.8,1.81-2.46,3.18-4.12,1.66-2.02,3.87-5.34,3.87-6.25,0-1.05-1.42-4.73-4.75-5.69Z"/></g></svg>