<?xml version="1.0" encoding="UTF-8"?><svg xmlns="http://www.w3.org/2000/svg" viewBox="0 0 380 210"><defs><style>.cls-1{fill:#f6f2f3;}.cls-1,.cls-2,.cls-3,.cls-4,.cls-5,.cls-6,.cls-7,.cls-8,.cls-9,.cls-10,.cls-11,.cls-12,.cls-13,.cls-14,.cls-15,.cls-16,.cls-17,.cls-18,.cls-19,.cls-20,.cls-21,.cls-22,.cls-23,.cls-24,.cls-25,.cls-26,.cls-27,.cls-28,.cls-29,.cls-30,.cls-31,.cls-32,.cls-33,.cls-34,.cls-35,.cls-36,.cls-37,.cls-38,.cls-39,.cls-40,.cls-41,.cls-42,.cls-43{stroke-width:0px;}.cls-2,.cls-44{mix-blend-mode:overlay;opacity:.2;}.cls-2,.cls-21{fill:#000;}.cls-3{fill:#d68f72;}.cls-4{fill:#ef5a24;}.cls-5{fill:#544845;}.cls-6{fill:#7fb3d4;}.cls-7{fill:#f9e3d5;}.cls-45{fill:none;stroke:#821b19;stroke-linecap:round;stroke-miterlimit:10;stroke-width:.63px;}.cls-8{fill:#895545;}.cls-9{fill:#6f7f87;}.cls-10{fill:#ff6b4f;}.cls-11{fill:#abc4eb;}.cls-12{fill:#b38776;}.cls-13{fill:#e8b55b;}.cls-14{fill:#fd7729;}.cls-15{fill:#9fb7dc;}.cls-16{fill:#ffd37b;}.cls-17{fill:#e9a234;}.cls-18{fill:#8c5844;}.cls-19{fill:#cf9880;}.cls-20{fill:#b24d46;}.cls-22{fill:#4f392f;}.cls-23{fill:#939d5b;}.cls-24{fill:#38302e;}.cls-25{fill:#777c45;}.cls-26{fill:#618d24;}.cls-27{fill:#98a35a;}.cls-28{fill:#c9c6c7;}.cls-29{fill:#357c77;}.cls-30{fill:#feab86;}.cls-31{fill:#c44344;}.cls-32{fill:#d9b7a3;}.cls-33{fill:#821b19;}.cls-34{fill:#ac6c53;}.cls-35{fill:#f9956e;}.cls-46{isolation:isolate;}.cls-36{fill:#ffcbb6;}.cls-37{fill:#2e6862;}.cls-38{fill:#ffc75c;}.cls-39{fill:#fff;}.cls-40{fill:#d95f52;}.cls-41{fill:#b5c764;}.cls-42{fill:#ee8ab2;}.cls-43{fill:#719f33;}</style></defs><g class="cls-46"><g id="Layer_2"><g id="Image_3"><rect class="cls-39" width="380" height="210"/><path class="cls-24" d="M279.68,182.95s.07,0,.11-.02c1.1-.49,1.99-1.4,2.44-2.52.06-.14-.01-.3-.15-.35-.14-.06-.3.01-.36.15-.4.98-1.18,1.79-2.16,2.22-.14.06-.2.22-.14.36.04.1.14.16.25.16Z"/><path class="cls-24" d="M248.48,182.82c.1,0,.19-.05.24-.15.07-.13.02-.3-.12-.37-.88-.45-1.63-1.18-2.12-2.03-.08-.13-.24-.18-.37-.1-.13.08-.18.24-.1.37.54.94,1.38,1.74,2.34,2.24.04.02.08.03.13.03Z"/><path class="cls-5" d="M285.24,166.82s-10.56,2.72-18.33.87c0,0-.1,21.27.58,22.24.68.97,27.13,3.21,29.47.52,1.49-1.72-1.04-8.22-6.86-9.58-5.83-1.36-8.03-.39-8.03-.39,0,0,2.33-8.35,3.17-13.66Z"/><path class="cls-5" d="M243.11,166.82s10.56,2.72,18.33.87c0,0,.1,21.27-.58,22.24-.68.97-27.13,3.21-29.47.52-1.49-1.72,1.04-8.22,6.86-9.58,5.83-1.36,8.03-.39,8.03-.39,0,0-2.33-8.35-3.17-13.66Z"/><path class="cls-22" d="M275.16,102.87c1.78,1.05,3.7,1.67,5.56,1.14,1.86-.52,3.66-2.33,4.46-5.13.8-2.79.28-6.26-1.27-8.02,1.8.19,3.57-2.14,3.83-5.06.26-2.92-1.03-5.98-2.79-6.63-4.13-1.54-8.96-1.24-11.4,4.41-2.44,5.65-2.38,16.93,1.6,19.28Z"/><path class="cls-22" d="M241.73,86.28c-1.73.07-3.49.65-4.93,2.06-1.44,1.41-2.54,3.73-2.65,6.29-.12,2.55.88,5.24,2.5,6.13-.27,1.96-.38,3.93-.08,5.88s1.12,3.81,2.35,4.62c1.01.65,2.18.54,3.24.09,2.11-.89,4.05-3.39,4.3-6.61.38-4.92,2.37-9.92.89-14.35-.5-1.49-1.2-2.89-2.15-3.77-.95-.89-2.35-.36-3.47-.32Z"/><path class="cls-6" d="M273.56,101.93s9.07.78,15.67-1.17c6.61-1.94,17.23-6.86,18-6.48.78.39,6.74,7.51,5.83,9.07-.91,1.55-12.69,6.35-16.84,8.81-4.14,2.46-7.77,3.5-7.64,4.53.13,1.04,1.3,7.38,3.37,13.73,2.07,6.35,3.37,9.84,7.12,13.99,3.76,4.14,7.12,10.36,6.61,11.79-.52,1.42-5.83,5.18-8.03,7.77-2.2,2.59-8.16,7.64-17.1,6.09-8.94-1.55-14.77,1.17-22.92,3.76-8.16,2.59-27.98-.91-28.24-2.59-.26-1.68,2.72-18.52,3.5-25,.78-6.48,2.72-14.77,1.81-14.64-.91.13-11.4,5.96-16.45,6.48-1.3.26-4.14-6.09-3.89-6.86s8.16-6.61,10.49-8.94c2.33-2.33,12.3-14.38,20.08-16.97,7.77-2.59,28.62-3.37,28.62-3.37Z"/><path class="cls-9" d="M234.99,131.54c.07,0,.13-.02.19-.07,2.76-2.56,5.25-5.42,7.41-8.5.09-.12.06-.29-.07-.38-.12-.08-.29-.06-.38.07-2.13,3.06-4.6,5.89-7.33,8.42-.11.1-.12.27-.01.39.05.06.13.09.2.09Z"/><path class="cls-9" d="M228.02,123.27c.12,0,.23-.08.26-.2.04-.14-.04-.3-.19-.34-.8-.23-1.54-.7-2.09-1.33-.1-.11-.27-.12-.38-.02-.11.1-.12.27-.02.38.62.7,1.45,1.23,2.34,1.49.03,0,.05.01.08.01Z"/><path class="cls-9" d="M288.52,116.92s.08,0,.11-.03c.14-.06.2-.23.13-.36-.62-1.34-1.42-2.58-2.39-3.68-.1-.11-.27-.12-.38-.03-.11.1-.12.27-.03.38.93,1.07,1.71,2.26,2.31,3.55.05.1.14.16.25.16Z"/><path class="cls-9" d="M298.7,158.97c.05,0,.1-.01.15-.04.13-.08.16-.25.08-.38-3.42-5.21-6.11-10.86-7.99-16.79-.05-.14-.2-.22-.34-.18-.14.05-.22.2-.18.34,1.9,5.98,4.61,11.68,8.06,16.92.05.08.14.12.23.12Z"/><path class="cls-9" d="M269.73,166.79s.08,0,.11-.02c.14-.06.2-.22.14-.36-.53-1.18-.85-2.49-.91-3.78,0-.15-.12-.27-.29-.26-.15,0-.27.14-.26.29.07,1.36.4,2.74.96,3.98.05.1.14.16.25.16Z"/><path class="cls-9" d="M236.4,167.69c.12,0,.23-.08.26-.19,2.14-7.04,3.39-14.33,3.73-21.68,0-.15-.11-.28-.26-.28-.16-.02-.28.11-.28.26-.33,7.3-1.58,14.55-3.7,21.55-.04.14.04.3.18.34.03,0,.05.01.08.01Z"/><path class="cls-9" d="M297.56,102.3s.07,0,.1-.02c.14-.06.21-.21.15-.35-.45-1.15-.67-2.41-.62-3.65,0-.15-.11-.28-.26-.28-.15-.02-.28.11-.28.26-.05,1.31.17,2.65.65,3.87.04.11.14.17.25.17Z"/><path class="cls-42" d="M281.2,129.78s4.47,1.95,10.02-1.82c.97-.66,2.88,4.99,1.98,5.76-.91.78-4.99,3.56-8.87,3.56-3.89,0-3.13-7.5-3.13-7.5Z"/><path class="cls-42" d="M248.3,134.18s-4.4,1.86-9.45,1.55c-3.38-.21-3.9-1.31-4.16-1.34-.94-.1-2.3,4.89-.87,5.67,1.42.78,6.86,2.82,13.76.97,2.71-.72.73-6.85.73-6.85Z"/><path class="cls-42" d="M276.02,101.29c.68-.87,3.63-.52,3.5.39-.13.91.13,21.89,3.11,27.98,2.98,6.09,9.45,22.8,9.2,26.94-.26,4.14-5.7,6.86-14.64,6.61-8.94-.26-19.56,3.89-25.26,3.76-5.7-.13-8.16-1.04-8.16-3.24s1.68-18.78,2.59-23.31c.91-4.53,2.46-13.47.39-20.85-2.07-7.38-4.92-12.43-4.66-13.08.26-.65,4.53-2.46,5.18-1.81.65.65,4.79,17.1,5.31,18.91,0,0,13.34-4.27,23.18-2.2,0,0-1.55-17.74.26-20.08Z"/><path class="cls-1" d="M257.23,122.34c.09-.02.18-.04.27-.06,2.12,14.32,3.15,28.87,3.07,43.36-.09.02-.18.04-.27.06.08-14.49-.94-29.04-3.06-43.36Z"/><path class="cls-1" d="M260.5,121.68c.09-.02.18-.03.27-.05,3.58,13.95,4.87,28.73,3.77,43.13-.09.02-.19.04-.28.06,1.1-14.4-.19-29.19-3.77-43.14Z"/><path class="cls-1" d="M253.97,123.16c.08-.02.17-.05.26-.07,2.09,14.34,2.85,28.91,2.26,43.39-.09.02-.18.03-.27.05.6-14.47-.16-29.04-2.25-43.37Z"/><path class="cls-1" d="M264.01,121.16c.09-.01.18-.02.27-.03,3.42,14.01,5.02,28.37,4.75,42.77-.09.02-.18.03-.27.04.27-14.41-1.32-28.76-4.75-42.78Z"/><path class="cls-1" d="M267.84,120.84c3.18,13.93,5.05,28.2,5.56,42.49-.09,0-.18.02-.27.03-.5-14.29-2.37-28.56-5.56-42.5.09,0,.18-.01.28-.01Z"/><path class="cls-1" d="M278.66,163.21c-.09,0-.18,0-.27,0-.72-14.43-3.39-28.67-7.96-42.4.1,0,.19,0,.29,0,4.56,13.73,7.22,27.97,7.94,42.4Z"/><path class="cls-1" d="M273.54,121.01c.1.01.2.02.3.03,4.25,13.63,7.22,27.7,8.84,41.89-.09.01-.18.02-.27.04-1.62-14.21-4.6-28.3-8.86-41.96Z"/><path class="cls-1" d="M246.74,107.37c-.02-.07.02-.15.09-.17.08-.02.15.02.17.09,5.51,19.2,7.4,39.73,5.51,59.65-.09,0-.18,0-.27,0,1.89-19.9,0-40.41-5.5-59.58Z"/><path class="cls-1" d="M282.73,136.47c-3.77-11.54-5.37-23.54-4.78-35.66.09,0,.18.02.27.03-.59,12.08,1.02,24.04,4.77,35.55.75,2.31,1.67,4.64,2.56,6.9,2.14,5.43,4.34,11.03,4.44,16.83-.09.08-.18.15-.27.22-.04-5.83-2.26-11.48-4.42-16.95-.89-2.26-1.81-4.6-2.57-6.91Z"/><path class="cls-1" d="M249.43,139.01c-.18-12.7-2.43-23.84-6.68-33.1.07-.04.15-.09.23-.14,0,0,0,0,0,0,4.27,9.3,6.53,20.47,6.71,33.22.13,9.23-.78,18.53-1.87,27.63-.09-.01-.18-.03-.27-.04,1.09-9.09,2-18.37,1.87-27.58Z"/><path class="cls-1" d="M278.71,131.79c-1.63-5.57-2.76-11.26-3.39-17.01-.09-1.81-.16-3.78-.18-5.66.38,7.65,1.66,15.23,3.82,22.59.78,2.66,1.7,5.37,2.58,7.98,2.45,7.23,4.96,14.68,5.02,22.33-.09.03-.18.06-.27.09-.03-7.63-2.55-15.09-5-22.33-.89-2.62-1.8-5.32-2.58-7.99Z"/><path class="cls-17" d="M303.08,80.48c.37,1.81,7.86,28.71,9.48,32.66,1.61,3.95,6.6,1.1,5.46-1.82-1.14-2.92-11.67-31.9-12.32-32.88-.66-.98-3.3-1.3-2.62,2.04Z"/><g class="cls-44"><path class="cls-21" d="M318.16,112.53c-.99-2.4-1.8-4.9-2.87-7.27-.89-1.98-2.02-3.79-3.17-5.59-1.21-1.87-2.41-3.74-3.62-5.61-1.01-1.56-2.01-3.12-3.02-4.69.12.42.24.86.36,1.3,1.83,2.84,3.66,5.68,5.49,8.52,1.16,1.81,2.35,3.61,3.29,5.57.92,1.9,1.62,3.91,2.37,5.89.32.83.64,1.67.99,2.49.08-.19.14-.4.17-.61Z"/><path class="cls-21" d="M312.17,109.57c-.48-1.25-1-2.48-1.58-3.68-.3-.63-.62-1.26-.92-1.89.24.8.47,1.58.69,2.32,1.01,2.16,1.87,4.38,2.56,6.68.13.43.25.86.37,1.3.16.17.33.3.51.42-.45-1.74-.99-3.46-1.63-5.14Z"/><path class="cls-21" d="M315.78,111.38c-.82-1.96-1.58-3.97-2.56-5.85-.53-1.01-1.13-1.96-1.86-2.8-.14-.17-.4,0-.31.22,1.32,3.52,2.64,7.05,3.7,10.65-1.41-3.85-3.01-7.63-4.78-11.3-.61-1.26-1.23-2.5-1.88-3.73.19.66.38,1.32.57,1.97,2.14,4.25,4.05,8.64,5.7,13.13.17.46.34.93.5,1.39.23.02.47.01.7-.03-1-3.72-2.32-7.35-3.67-10.96.87,1.27,1.54,2.72,2.15,4.17.87,2.05,1.72,4.12,2.58,6.18.03.06.05.12.08.18.11-.07.22-.15.33-.23-.42-1-.83-2-1.25-2.99Z"/><path class="cls-21" d="M317.49,113.93c-.87-3.06-1.98-6.06-3.41-8.89-.99-1.96-2.16-3.79-3.39-5.57-1.19-1.71-2.41-3.39-3.51-5.18-.22-.37-.44-.74-.65-1.11.14.5.28,1,.43,1.51.88,1.43,1.85,2.8,2.8,4.15,1.23,1.75,2.44,3.52,3.47,5.43,1.08,1.99,1.99,4.09,2.75,6.24.44,1.23.83,2.48,1.18,3.74.11-.1.22-.21.32-.32Z"/><path class="cls-21" d="M304.85,77.86c.59,2.39,1.53,4.69,2.58,6.91.9,1.89,1.85,3.75,2.84,5.59-.38-1.02-.75-2.02-1.11-2.97-1.15-2.22-2.25-4.49-3.1-6.86-.29-.81-.54-1.62-.76-2.45-.14-.09-.29-.16-.45-.21Z"/><path class="cls-21" d="M305.04,85.89c-.69-1.47-1.29-2.99-1.75-4.55.22.87.6,2.28,1.09,4.04,1.07,2.41,2.39,4.72,3.77,6.9,1.52,2.43,3.13,4.79,4.63,7.24.98,1.6,1.88,3.24,2.7,4.93-.35-.94-.71-1.94-1.1-2.98-.19-.34-.38-.67-.57-1-2.87-4.9-6.33-9.38-8.77-14.58Z"/><path class="cls-21" d="M309.74,91.75c-.92-1.61-1.77-3.27-2.56-4.96-.78-1.68-1.46-3.4-2.15-5.11-.49-1.2-1.01-2.4-1.63-3.53-.1.1-.18.22-.25.37.52.96.97,1.97,1.39,2.99.7,1.71,1.37,3.43,2.13,5.11,1.53,3.35,3.31,6.64,5.39,9.6.25.35.5.7.77,1.03-.16-.45-.33-.89-.5-1.34-.93-1.33-1.77-2.73-2.58-4.15Z"/></g><path class="cls-15" d="M302.85,80.53c-.33-1.23-2.22-8.73-1.14-9.65,1.08-.92,4.21,6.94,4.74,8.54.53,1.61-2.95,3.51-3.59,1.11Z"/><path class="cls-11" d="M307.75,67.29c-2.94.29-13.77,3.83-15.54,4.81s-1.3,8.98-.8,8.83,1.27-5.89,1.95-6.06c.68-.17.27,5.52.83,5.39.56-.13,1.2-6.02,1.85-6.22s.73,5.27,1.25,5.26c.51,0,.91-5.81,1.41-5.97s1.3,4.98,1.88,4.95c.59-.03.45-5.9,1.14-6.12s1.17,5.55,1.67,5.4.84-6.25,1.23-6.37.84,5.69,1.57,5.5c.73-.19,3.01-9.55,1.56-9.41Z"/><path class="cls-3" d="M311.26,90.19c1.13.07,1.64,1.23,1.83,1.92.19.69,1.27,1.67,1.3,2.67.03,1-.18,1.15.24,1.58.51.53.75,1.88.73,2.42-.02.45,1.1,1.48.41,2.54s-5.35,2.87-6.83,2.53c-1.48-.34-1.3-2.06-1.12-2.31.18-.25-2.8.23-1.87-2.98,0,0-2-.73-.79-3.21,0,0-2.44-1.75-.57-3,1.87-1.25,5.28-2.24,6.69-2.16Z"/><path class="cls-18" d="M309.86,101.16c-.57.15-1.18.28-1.89.4-.07.01-.14-.04-.16-.11-.01-.07.03-.15.11-.16,1.96-.34,3.06-.64,4.73-1.65.07-.04.15-.02.19.05.04.06.02.15-.05.19-1.08.65-1.95,1.02-2.93,1.29Z"/><path class="cls-18" d="M307.89,98.22c-.71.19-1.35.34-1.85.44-.07.02-.15-.03-.16-.11-.02-.07.03-.15.11-.16,1.41-.29,4.02-.94,5.76-1.97.07-.04.15-.02.19.05.04.06.02.15-.05.19-1.15.68-2.68,1.2-4,1.56Z"/><path class="cls-18" d="M307.53,94.89c-.74.2-1.5.36-2.24.51-.07.01-.15-.03-.16-.11-.01-.07.03-.15.11-.16,1.91-.38,3.91-.84,5.58-1.94.07-.04.15-.02.19.04.04.06.02.15-.04.19-1.06.7-2.24,1.14-3.45,1.47Z"/><path class="cls-1" d="M276.15,100.51s4.4,5.83-2.33,9.58c-6.74,3.76-12.17-2.07-12.17-2.07l14.51-7.51Z"/><path class="cls-1" d="M246.12,103.98s-2.82,6.74,4.63,8.71c7.46,1.97,11.28-5.02,11.28-5.02l-15.91-3.69Z"/><ellipse class="cls-30" cx="259.92" cy="87.65" rx="17.54" ry="21.03" transform="translate(-10.97 44.53) rotate(-9.59)"/><path class="cls-22" d="M256.64,66.8c11.5-1.94,22.36,5.33,24.67,16.34-1.94-.11-13.83-1.32-24.97-14.24,0,0-1.94,12.5-17.76,20.02-.63-10.61,7.05-20.27,18.07-22.13Z"/><path class="cls-42" d="M281.31,83.14s-12.93-16.31-24.59-13.59c-11.66,2.72-18.15,19.37-18.15,19.37,0,0-1.02.96-1.67-.2-.65-1.17-3.24-19.69-.39-29.66s6.86-16.45,4.92-22.02c-1.94-5.57-6.48-7.9-8.81-8.94-2.33-1.04-1.17-1.68,1.42-1.55,2.59.13,12.48.22,17.15,4.75,4.66,4.53,8.29,9.45,9.71,14.64.97,3.52,3.37,5.57,8.29,8.94,4.92,3.37,15.88,16.88,13.29,27.63-.39.78-1.19.64-1.19.64Z"/><path class="cls-22" d="M267.56,80.4c4.4.62,8.3,2.07,7.83,2.77-.48.69-5.77-.25-8.43-.98-2.79-.77-3.51-2.36.61-1.78Z"/><path class="cls-22" d="M250.42,82.34c-4.13,1.62-7.54,4.04-6.88,4.68.66.64,5.58-1.52,7.97-2.88,2.51-1.43,2.77-3.3-1.1-1.79Z"/><path class="cls-35" d="M260,86.03c1.36-.21,4.4,8.46,3.99,9.3-.91,1.87-3.69,2.24-4.97.84-.62-.68-.76-9.86.98-10.14Z"/><path class="cls-36" d="M269.77,90.09c-1.81,1.54-2.32,3.91-1.14,5.3,1.18,1.39,3.61,1.27,5.42-.27s2.32-3.91,1.14-5.3c-1.18-1.39-3.61-1.27-5.42.27Z"/><path class="cls-36" d="M251.55,92.93c2.24.8,3.56,2.84,2.95,4.55-.61,1.72-2.92,2.47-5.16,1.67-2.24-.8-3.56-2.84-2.95-4.55.61-1.72,2.92-2.47,5.16-1.67Z"/><path class="cls-18" d="M271.25,86.08c.09-.01.18-.08.22-.17.06-.14-.01-.3-.15-.35-1.81-.71-3.79-1-5.73-.85-.14.01-.26.14-.25.29.01.15.14.26.29.25,1.86-.14,3.76.14,5.49.82.05.02.09.02.14.02Z"/><path class="cls-18" d="M271.38,86.01s.08-.02.11-.04c.62-.37.97-.91,1.06-1.63.02-.15-.09-.29-.24-.3-.15-.02-.28.09-.3.24-.07.55-.32.94-.8,1.23-.13.08-.17.24-.09.37.06.09.16.14.26.13Z"/><path class="cls-18" d="M272.32,86.18c.38-.04.75-.16,1.1-.37.13-.08.17-.24.1-.37-.08-.13-.24-.17-.37-.1-.56.33-1.18.39-1.77.19-.14-.05-.3.03-.34.17-.05.14.03.3.17.35.37.12.75.17,1.12.13Z"/><path class="cls-18" d="M249.12,89.09s.09-.02.13-.05c1.48-1.13,3.23-1.92,5.06-2.29.15-.03.24-.17.21-.32-.03-.15-.17-.25-.32-.21-1.91.39-3.73,1.21-5.28,2.39-.12.09-.14.26-.05.38.06.08.16.12.25.1Z"/><path class="cls-18" d="M248.1,89.39c.34-.03.67-.11.99-.24.14-.05.21-.21.16-.35-.05-.14-.21-.21-.35-.16-.67.26-1.42.29-2.11.09-.15-.04-.3.04-.34.19-.04.14.04.3.19.34.48.14.98.18,1.47.13Z"/><path class="cls-18" d="M248.98,89.02c.11-.01.2-.09.23-.19.04-.14-.04-.3-.18-.34-.54-.16-1.03-.49-1.37-.94-.09-.12-.26-.14-.38-.05-.12.09-.14.26-.05.38.41.54,1,.94,1.65,1.13.03.01.07.01.1,0Z"/><path class="cls-18" d="M260.11,103.2c.68,0,1.36-.06,2.03-.19,2.26-.42,4.33-1.56,5.84-3.2.16-.17.14-.43-.04-.58-.18-.15-.46-.13-.61.04-1.38,1.5-3.28,2.54-5.35,2.93-2.07.39-4.25.11-6.14-.77-.21-.1-.47-.02-.58.18-.11.2-.02.45.2.55,1.45.68,3.06,1.03,4.67,1.03Z"/><path class="cls-31" d="M277.43,71.91c.07,0,.13-.02.18-.07.11-.1.12-.27.02-.39-5.36-5.83-14.19-8.52-21.99-6.69-.15.03-.24.18-.2.33.03.15.18.24.33.2,7.61-1.78,16.24.84,21.47,6.53.05.06.13.09.2.09Z"/><path class="cls-31" d="M240.32,77.05c.1,0,.19-.05.24-.15,1.78-3.5,4.68-6.5,8.16-8.44.13-.07.18-.24.1-.37-.07-.13-.24-.18-.37-.11-3.57,1.99-6.55,5.08-8.38,8.67-.07.13-.01.3.12.37.04.02.08.03.12.03Z"/><path class="cls-31" d="M261.68,48.63c.1,0,.19-.05.24-.14.07-.13.02-.3-.11-.37-2.29-1.26-5.08-1.68-7.65-1.16-.15.03-.24.17-.21.32.03.15.18.24.32.21,2.45-.49,5.1-.09,7.28,1.11.04.02.09.03.13.03Z"/><path class="cls-31" d="M250.12,48.33s.05,0,.07,0l1.89-.49c.15-.04.23-.19.2-.33-.04-.15-.19-.24-.33-.2l-1.89.49c-.15.04-.23.19-.2.33.03.12.14.2.26.2Z"/><path class="cls-3" d="M217.71,137.82c-.28,1-1.98,2.16-5.2,3-3.22.84-6.8.22-7.09-.57-.3-.79.29-1.39,1.59-1.58s2.41-.75,1.97-.84c-.21-.04-1.34-.51-2.63-1.11-1.49-.69-3-1.63-3.67-2.2-.34-.29-.71-.64-.83-.94-.24-.6.35-1.53,1.16-1.36,0,0-.52-.73-.07-1.27.3-.36.6-.44,1.25-.29,0,0-.08-.71.49-.96.55-.24,1.76.13,1.76.13,0,0-.07-.83,1.17-.62,1.25.21,2.79,1.22,4.51,1.1,1.87-.13,3.09-.38,3.82.24,1.43,1.21,2.26,5.48,1.76,7.28Z"/><path class="cls-18" d="M210.38,131.17c-1.28-.27-2.53-.71-3.7-1.32-.07-.03-.09-.12-.06-.18.03-.07.12-.09.18-.06,1.44.74,2.98,1.23,4.57,1.46.07,0,.13.08.12.15-.01.07-.08.13-.15.12-.32-.05-.64-.1-.96-.17Z"/><path class="cls-18" d="M209.65,132.68c-1.88-.4-3.7-1.05-5.41-1.93-.07-.03-.09-.12-.06-.18.03-.07.12-.09.18-.06,1.87.97,3.88,1.66,5.95,2.03.07.02.12.08.11.16-.01.07-.08.12-.16.11-.21-.04-.41-.08-.62-.12Z"/><path class="cls-18" d="M207.74,134.1c-1.67-.35-3.29-.95-4.77-1.77-.07-.04-.09-.12-.05-.19.04-.07.12-.09.19-.05,2.02,1.11,4.3,1.82,6.6,2.03.07,0,.13.07.12.15,0,.07-.07.13-.15.12-.65-.06-1.3-.16-1.94-.3Z"/><path class="cls-34" d="M142.65,122.8c-6.56,4.66-8.89,4.02-8.47,5.72.42,1.69,1.27,6.99,3.81,8.05,1.32.55,5.94-.39,10.79-2.47-.69-5.34-1.42-10.63-1.59-15.99-1.36,1.86-2.84,3.49-4.54,4.69Z"/><path class="cls-30" d="M138.12,134.59c-.07,1.13-1.62,2.75-4.87,4.38-3.25,1.62-7.2,1.76-7.69.99-.49-.78,0-1.55,1.34-2.05,1.34-.49,2.4-1.34,1.91-1.34-.23,0-1.55-.24-3.06-.59-1.74-.4-3.57-1.07-4.41-1.52-.43-.23-.9-.52-1.09-.82-.39-.59.02-1.71.94-1.71,0,0-.72-.66-.36-1.34.24-.45.54-.6,1.27-.59,0,0-.25-.74.31-1.14.53-.38,1.91-.26,1.91-.26,0,0-.26-.87,1.11-.93,1.38-.05,3.25.67,5.06.16,1.97-.56,3.21-1.11,4.13-.61,1.79.97,3.65,5.33,3.52,7.37Z"/><path class="cls-10" d="M128.8,129.15c-1.43,0-2.85-.19-4.24-.57-.08-.02-.13-.1-.1-.18.02-.08.1-.13.18-.1,1.7.47,3.45.64,5.21.53.08,0,.15.06.16.14,0,.08-.06.15-.14.16-.36.02-.71.04-1.07.04Z"/><path class="cls-10" d="M128.37,130.93c-2.1,0-4.19-.28-6.21-.84-.08-.02-.13-.1-.1-.18.02-.08.1-.12.18-.1,2.22.61,4.51.89,6.81.82.08,0,.15.06.15.14,0,.08-.06.15-.14.15-.23,0-.46,0-.68,0Z"/><path class="cls-10" d="M126.65,132.88c-1.86,0-3.72-.27-5.49-.81-.08-.02-.12-.11-.1-.19.02-.08.11-.12.19-.1,2.41.73,5,.97,7.5.68.08,0,.15.05.16.13,0,.08-.05.16-.13.16-.71.08-1.42.12-2.13.12Z"/><path class="cls-29" d="M84.69,149.82c0,.33,4.67,17.7,4.67,17.7l19.66.22s.33-13.14.11-14.99l-24.43-2.93Z"/><path class="cls-5" d="M88.64,164.91s11.8,3.04,20.49.98c0,0,.11,23.78-.65,24.87-.76,1.09-30.33,3.59-32.94.58-1.67-1.92,1.16-9.19,7.67-10.71,6.52-1.52,8.98-.43,8.98-.43,0,0-2.61-9.34-3.55-15.28Z"/><path class="cls-29" d="M139.68,149.82c0,.33-4.67,17.7-4.67,17.7l-19.66.22s-.33-13.14-.11-14.99l24.43-2.93Z"/><path class="cls-5" d="M135.74,164.91s-11.8,3.04-20.49.98c0,0-.11,23.78.65,24.87s30.33,3.59,32.94.58c1.67-1.92-1.16-9.19-7.67-10.71-6.52-1.52-8.98-.43-8.98-.43,0,0,2.61-9.34,3.55-15.28Z"/><path class="cls-34" d="M48.72,156.55c-.06,0-.11,0-.17-.02-.5-.09-.82-.57-.73-1.07.12-.66,3.17-16.1,16.16-14.24.5.07.85.53.78,1.03-.07.5-.54.84-1.03.78-11.27-1.61-14,12.18-14.11,12.77-.08.44-.47.75-.9.75Z"/><path class="cls-30" d="M67.36,133.5c-1.41.39-2.11,1.11-4.02,2.09-1.56.8-2.51,1.17-3.22,3.8-.31,1.16.07,1.55.99,2.05,0,0-.36,1.4,1.16,2.31,0,0-.45,1.44,2.08,1.82,0,0,.59.75,1.51.92.28.05.94-.19,1.62-.37,0,0,2.85.31,3.44-1.29.59-1.6.78-3.44.99-4.61.21-1.17.65-2.16.55-2.92-.15-1.06-2.79-4.45-5.11-3.81Z"/><path class="cls-10" d="M61.1,141.5s-.04,0-.06,0c-.09-.03-.14-.13-.11-.23.36-1.04.54-1.49,1.16-2.43.05-.08.17-.11.25-.05.08.05.11.16.05.25-.6.91-.77,1.35-1.12,2.35-.03.07-.09.12-.17.12Z"/><path class="cls-10" d="M62.3,143.8s-.04,0-.06-.01c-.09-.04-.14-.14-.1-.23l.17-.45c.34-.88.55-1.42,1.04-2.37.05-.09.15-.12.24-.08.09.05.12.15.08.24-.48.94-.69,1.47-1.03,2.34l-.17.45c-.03.07-.1.11-.17.11Z"/><path class="cls-10" d="M64.42,145.61s-.03,0-.05,0c-.1-.03-.15-.12-.13-.22.34-1.28.38-1.38.81-2.54l.1-.28c.03-.09.13-.14.23-.11.09.03.14.14.11.23l-.1.28c-.43,1.17-.46,1.24-.8,2.51-.02.08-.09.13-.17.13Z"/><path class="cls-10" d="M68.54,145.25s-.08-.01-.11-.04c-.08-.06-.09-.17-.03-.25.56-.74.91-1.35,1.03-2.27.01-.1.1-.17.2-.15.1.01.17.1.15.2-.13,1-.52,1.67-1.1,2.44-.03.05-.09.07-.14.07Z"/><path class="cls-10" d="M67.37,146.17c-.06,0-.11-.03-.14-.07-.27-.38-.29-.66-.29-1,0-.39.31-.75.62-.94.17-.1.38-.15.65-.13h.21c.19.02.42.03.57.04.1.01.17.1.16.2-.01.1-.09.17-.2.16-.14-.02-.36-.02-.55-.03h-.22c-.2-.02-.34,0-.45.07-.22.13-.45.4-.45.64,0,.29,0,.49.22.78.06.08.04.19-.04.25-.03.02-.07.03-.1.03Z"/><ellipse class="cls-18" cx="60.14" cy="162.73" rx="6.84" ry="18.74" transform="translate(-112.04 183.93) rotate(-76.74)"/><path class="cls-7" d="M44.62,152.23s.34,3.49.5,7.94c.16,4.45.61,12.05,6.55,13.94,5.94,1.89,9.09.09,9.63-1.84,1-3.61-4.64-9.99-6.15-12.54-1.59-2.7-1.12-8.72-1.64-8.93-.51-.21-8.89,1.42-8.89,1.42Z"/><path class="cls-32" d="M52.81,175.41s-.05-.01-.07-.04c-4.06-7.28-6.18-15.53-6.12-23.86,0-.04.03-.08.08-.08h0s.08.03.08.08c-.06,8.31,2.05,16.53,6.1,23.79.02.04,0,.08-.03.1-.01,0-.02,0-.04,0Z"/><path class="cls-32" d="M57.8,174.18s-.03,0-.05-.02c-5.05-4.23-8.09-14.96-8.78-23.13,0-.04.03-.08.07-.08.05,0,.08.03.08.07.69,8.15,3.71,18.83,8.73,23.03.03.03.04.07,0,.11-.01.02-.04.03-.06.03Z"/><path class="cls-32" d="M61.09,172.26s-.04,0-.05-.02c-5.41-5.65-9.11-14.24-9.21-21.39,0-.04.03-.08.07-.08h0s.08.03.08.07c.1,7.11,3.78,15.66,9.17,21.29.03.03.03.08,0,.11-.01.01-.03.02-.05.02Z"/><path class="cls-10" d="M46.33,134.32c-3.65.34-4.77,3.63-5.85,5.86-1.08,2.23-5.25,6.75-4.61,9.85.63,3.1,2.47,5.1,7.14,3.77,4.67-1.33,9.85.53,12.45-.42,2.61-.95,4.7-4.42,3.25-7.9-1.45-3.48-4.5-11.9-12.38-11.17Z"/><path class="cls-1" d="M48.29,143.27c-.59,0-.59-.91,0-.91s.59.91,0,.91h0ZM45.68,139.14c.59,0,.59-.91,0-.91s-.59.91,0,.91h0ZM42.28,143.49c.59,0,.59-.91,0-.91s-.59.91,0,.91h0ZM42.97,147.92h.05c.06,0,.12-.01.18-.04.06-.02.11-.05.15-.09.04-.04.08-.09.09-.15.03-.05.04-.11.04-.18,0-.04-.01-.08-.02-.12-.02-.08-.06-.14-.12-.2-.03-.02-.06-.05-.09-.07-.07-.04-.15-.06-.23-.06h-.05c-.06,0-.12.01-.18.04-.06.02-.11.05-.15.09-.04.04-.08.09-.09.15-.03.05-.04.11-.04.18,0,.04.01.08.02.12.02.08.06.14.12.2.03.02.06.05.09.07.07.04.15.06.23.06h0ZM47.09,151.07c.59,0,.59-.91,0-.91s-.59.91,0,.91h0ZM54.04,143.8h.05c.06,0,.12-.01.18-.04.06-.02.11-.05.15-.09.04-.04.08-.09.09-.15.03-.05.04-.11.04-.18,0-.04-.01-.08-.02-.12-.02-.08-.06-.14-.12-.2-.03-.02-.06-.05-.09-.07-.07-.04-.15-.06-.23-.06h-.05c-.06,0-.12.01-.18.04-.06.02-.11.05-.15.09-.04.04-.08.09-.09.15-.03.05-.04.11-.04.18,0,.04.01.08.02.12.02.08.06.14.12.2.03.02.06.05.09.07.07.04.15.06.23.06h0ZM50.98,138.13v.05c0,.06.01.12.04.18.02.06.05.11.09.15.04.04.09.08.15.09.05.03.11.04.18.04.04,0,.08-.01.12-.02.08-.02.14-.06.2-.12.02-.03.05-.06.07-.09.04-.07.06-.15.06-.23v-.05c0-.06-.01-.12-.04-.18-.02-.06-.05-.11-.09-.15-.04-.04-.09-.08-.15-.09-.05-.03-.11-.04-.18-.04-.04,0-.08.01-.12.02-.08.02-.14.06-.2.12-.02.03-.05.06-.07.09-.04.07-.06.15-.06.23h0ZM55.18,149.18h-.05c-.06,0-.12.01-.18.04-.06.02-.11.05-.15.09-.04.04-.08.09-.09.15-.03.05-.04.11-.04.18,0,.04.01.08.02.12.02.08.06.14.12.2.03.02.06.05.09.07.07.04.15.06.23.06h.05c.06,0,.12-.01.18-.04.06-.02.11-.05.15-.09.04-.04.08-.09.09-.15.03-.05.04-.11.04-.18,0-.04-.01-.08-.02-.12-.02-.08-.06-.14-.12-.2-.03-.02-.06-.05-.09-.07-.07-.04-.15-.06-.23-.06h0ZM50.86,147.19v-.05c0-.06-.01-.12-.04-.18-.02-.06-.05-.11-.09-.15-.04-.04-.09-.08-.15-.09-.05-.03-.11-.04-.18-.04-.04,0-.08.01-.12.02-.08.02-.14.06-.2.12-.02.03-.05.06-.07.09-.04.07-.06.15-.06.23v.05c0,.06.01.12.04.18.02.06.05.11.09.15.04.04.09.08.15.09.05.03.11.04.18.04.04,0,.08-.01.12-.02.08-.02.14-.06.2-.12.02-.03.05-.06.07-.09.04-.07.06-.15.06-.23h0ZM40.52,151.94c.59,0,.59-.91,0-.91s-.59.91,0,.91h0ZM37.92,148.25c.59,0,.59-.91,0-.91s-.59.91,0,.91h0Z"/><path class="cls-34" d="M70.89,173.21c-.1,0-.2-.02-.3-.05-.48-.16-.73-.68-.57-1.16,6.93-20.11-2.45-26.15-2.54-26.21-.43-.26-.57-.82-.31-1.25.26-.43.82-.57,1.25-.31.44.27,10.78,6.75,3.33,28.37-.13.38-.48.62-.86.62Z"/><path class="cls-34" d="M78.38,167.02c-.87,3.68-9.73,4.73-19.81,2.36-10.07-2.37-17.53-7.28-16.67-10.96,0,0-5.52,15.77-3.45,21.24,2.06,5.47,25.59,11.99,32.2,9.15,6.61-2.84,8.04-21.23,7.73-21.8Z"/><path class="cls-19" d="M49.74,186.35c-.09,0-.18-.04-.24-.12-5.54-7.46-7.78-14.89-7.25-24.08,0-.17.14-.29.32-.29.17,0,.3.15.29.32-.52,9.04,1.68,16.35,7.13,23.68.1.14.07.33-.06.43-.05.04-.12.06-.18.06Z"/><path class="cls-19" d="M59.47,188.69c-.09,0-.18-.04-.24-.12-4.81-6.32-7.55-13.37-8.15-20.97-.01-.17.11-.31.28-.33.15-.01.31.11.33.28.59,7.48,3.29,14.43,8.03,20.65.1.13.08.32-.06.43-.06.04-.12.06-.18.06Z"/><path class="cls-19" d="M69.37,189.16c-.1,0-.2-.05-.26-.14-3.95-6.12-6.69-12.35-8.12-18.52-.04-.16.06-.33.23-.37.17-.04.33.06.37.23,1.42,6.1,4.12,12.27,8.04,18.33.09.14.05.33-.09.42-.05.03-.11.05-.17.05Z"/><path class="cls-19" d="M75.03,182.51c-.1,0-.2-.05-.25-.14-2.33-3.5-4.24-7.84-4.99-11.33-.04-.16.07-.33.23-.36.17-.04.33.07.36.23.74,3.42,2.61,7.68,4.9,11.12.09.14.06.33-.09.42-.05.03-.11.05-.17.05Z"/><path class="cls-19" d="M77.68,172.63c-.09,0-.19-.04-.24-.12-.62-.83-1.09-1.75-1.42-2.73-.05-.16.03-.33.19-.39.16-.05.33.03.39.19.31.92.76,1.78,1.34,2.56.1.14.07.33-.06.43-.05.04-.12.06-.18.06Z"/><path class="cls-19" d="M42.03,182.87c-.09,0-.18-.04-.24-.11-2.13-2.6-3.39-6.06-3.55-9.74,0-.17.12-.31.29-.32.17-.02.31.12.32.29.15,3.55,1.37,6.88,3.41,9.38.11.13.09.32-.04.43-.06.05-.13.07-.19.07Z"/><path class="cls-19" d="M59.79,189.02c-.12,0-.23-.07-.28-.19-.06-.16.01-.33.17-.4,6.62-2.72,15.13-9.79,17.85-17.53.06-.16.23-.24.39-.19.16.06.24.23.19.39-2.78,7.91-11.45,15.13-18.2,17.9-.04.02-.08.02-.12.02Z"/><path class="cls-19" d="M48.91,186.03c-.13,0-.25-.08-.29-.21-.05-.16.04-.33.2-.38,8.93-2.78,15.48-7.72,19.46-14.68.08-.15.27-.2.42-.11.15.08.2.27.11.42-4.07,7.1-10.73,12.13-19.81,14.95-.03,0-.06.01-.09.01Z"/><path class="cls-19" d="M40.93,182.05c-.13,0-.25-.08-.29-.21-.05-.16.03-.33.19-.39,7.45-2.53,12.71-6.41,16.52-12.19.09-.14.28-.18.42-.09.14.09.18.28.09.42-3.9,5.9-9.25,9.85-16.84,12.44-.03.01-.07.02-.1.02Z"/><path class="cls-19" d="M38.66,173.88c-.12,0-.24-.08-.29-.2-.06-.16.03-.33.18-.39,4.38-1.56,7.25-3.39,10.58-6.74.12-.12.31-.12.43,0,.12.12.12.31,0,.43-3.4,3.42-6.33,5.29-10.8,6.88-.03.01-.07.02-.1.02Z"/><path class="cls-19" d="M40.08,166.31c-.16,0-.3-.13-.3-.29,0-.17.12-.31.29-.32,2.03-.08,3.21-.75,4.67-1.95.13-.11.32-.09.43.04.11.13.09.32-.04.43-1.53,1.25-2.84,1.99-5.03,2.08,0,0,0,0-.01,0Z"/><path class="cls-16" d="M91.94,93.49s-8.11,2.9-13.32,15.78c-5.21,12.89-10.42,18.68-12.02,24.04-.58,1.94,4.05,5.94,6.08,5.94s8.11-6.95,9.27-9.56c0,0-1.88,16.87-2.46,19.76-.58,2.9.72,4.27,3.19,4.42,2.46.14,6.37-.98,9.12.18,2.75,1.16,7.97,2.01,14.55,1.09,6.19-.87,8.18.47,12.67.76,4.49.29,10.28-2.32,14.33-1.74,4.05.58,10.21-1.01,11.22-3.4,1.21-2.86-2.1-19.04-3.26-25.12-1.16-6.08-2.75-14.62-2.17-14.33.58.29,17.09.72,24.61-18.1l-4.2-8.4s-3.47,7.96-10.71,9.99c-7.24,2.03-11.87-3.47-16.07-3.47s-40.83,2.17-40.83,2.17Z"/><path class="cls-29" d="M81.15,135.05c-.65-1.16.43-6.59,1.23-7.38.66-.66,12.89,1.67,30.48.8,17.59-.87,27.88-5.16,28.45-4.71.54.43,1.85,6.99,1.52,7.96-.33.98-20.81,4.67-30.04,5.21-9.23.54-30.73-.27-31.64-1.88Z"/><ellipse class="cls-38" cx="113.62" cy="132.49" rx="10.1" ry="6.72" transform="translate(-11.2 10.49) rotate(-5.04)"/><ellipse class="cls-30" cx="111.15" cy="80.07" rx="25.01" ry="24.32"/><path class="cls-35" d="M114.61,86.43c.08,1.17-1.1,2.19-2.63,2.29-1.53.1-2.83-.77-2.9-1.93-.08-1.17,1.1-2.19,2.63-2.29,1.53-.1,2.83.77,2.9,1.93Z"/><path class="cls-36" d="M99.02,78.61c2.38,1.18,3.58,3.61,2.68,5.44-.9,1.83-3.56,2.36-5.95,1.18-2.38-1.18-3.58-3.61-2.68-5.44.9-1.83,3.56-2.36,5.95-1.18Z"/><path class="cls-36" d="M123.22,77.21c-2.21,1.48-3.08,4.05-1.95,5.74,1.13,1.7,3.84,1.87,6.05.4,2.21-1.48,3.08-4.05,1.95-5.74-1.13-1.7-3.84-1.87-6.05-.4Z"/><path class="cls-33" d="M98.69,71.99c-.11,0-.21-.04-.28-.14-.09-.14-.05-.33.08-.42,1.81-1.2,3.91-1.99,6.06-2.29.16-.02.32.09.34.26.02.17-.09.32-.26.34-2.06.28-4.07,1.04-5.81,2.19-.05.03-.1.05-.15.05Z"/><path class="cls-33" d="M124.37,70.9c-.05,0-.1-.01-.15-.04-1.82-1.02-3.87-1.63-5.95-1.75-.17-.01-.3-.15-.29-.32.01-.17.15-.3.32-.29,2.17.13,4.32.77,6.22,1.83.15.08.2.27.12.42-.06.1-.16.16-.27.16Z"/><path class="cls-1" d="M110,83.61c-2.71-.53-7.45,1.38-7.22,2.67.23,1.29,6.81,3.09,8.93-1.99,0,0-1.26-.59-1.72-.68Z"/><path class="cls-1" d="M113.24,83.39c2.61-.9,7.57.35,7.52,1.66-.06,1.31-6.33,3.99-9.12-.76,0,0,1.17-.76,1.61-.91Z"/><path class="cls-35" d="M110.08,69.53c-2.65.18-3.94,12.62-2.97,13.62,1.98,2.05,7.05,1.8,8.62-.52.76-1.12-2.65-13.3-5.65-13.1Z"/><path class="cls-1" d="M106.09,53.24s-1.16,4.78-3.04,6.37c-1.88,1.59,3.91.72,5.21-.58,1.3-1.3-.29,1.3.14,2.03.43.72,4.63-1.3,5.5-3.47.87-2.17-.14,2.03.87,1.88,1.01-.14,4.49-3.19,3.33-5.5-1.16-2.32-12.02-.72-12.02-.72Z"/><path class="cls-1" d="M86,76.12s-.87,11.73,3.47,18.97c4.34,7.24,9.27,15.49,7.09,24.47-2.17,8.98-5.36,13.47-11.15,15.93-5.79,2.46,14.46,3.59,25.92-3.04,12.38-7.17,28.38-29.68,24.47-59.36,0,0-1.45-6.23-4.63-9.56,0,0,5.5,31.42-19.69,31.56-25.19.14-21.14-27.8-20.42-30.99,0,0-4.2,4.05-5.07,12.02Z"/><path class="cls-28" d="M84.9,136.28c-.07,0-.13-.04-.15-.11-.02-.08.02-.17.1-.19,5.5-1.67,10.65-5.72,13.43-10.57,2.61-4.55,3.25-10.11,1.83-16.07-1.41-5.93-4.17-10.39-7.37-15.56l-.43-.69c-.36-.59-.72-1.16-1.08-1.72-2.89-4.59-5.38-8.55-4.6-13.26.01-.08.09-.14.18-.13.08.01.14.09.13.18-.77,4.59,1.7,8.51,4.55,13.04.35.56.72,1.14,1.08,1.73l.43.69c3.21,5.19,5.98,9.67,7.4,15.65,1.43,6.04.79,11.67-1.86,16.29-2.82,4.91-8.03,9.02-13.61,10.71-.01,0-.03,0-.04,0Z"/><path class="cls-28" d="M84.79,136.67c-.08,0-.15-.07-.15-.15,0-.08.06-.15.15-.16,15.5-.48,28.55-6.91,36.75-18.13,7.76-10.61,12.72-35.08,11.81-49.06,0-.08.06-.16.14-.16.1,0,.16.06.16.14.91,14.03-4.07,38.6-11.87,49.26-8.26,11.29-21.39,17.77-36.99,18.25h0Z"/><path class="cls-28" d="M84.84,136.39c-.07,0-.13-.04-.15-.11-.02-.08.03-.17.11-.19,7.44-2.05,17.36-7.67,20.84-16.79,3.22-8.44,2.34-17.5-2.41-24.84-.05-.07-.03-.16.05-.21.07-.04.17-.03.21.05,4.8,7.43,5.69,16.58,2.44,25.11-3.52,9.23-13.53,14.91-21.04,16.98-.01,0-.03,0-.04,0Z"/><path class="cls-28" d="M84.79,136.5c-.07,0-.14-.05-.15-.12-.01-.08.04-.16.12-.18,11.13-2.05,22.03-8.17,28.44-15.96,7.04-8.56,10.55-18.12,10.42-28.41,0-.08.07-.15.15-.15.08-.01.15.07.15.15.13,10.36-3.4,19.98-10.49,28.61-6.45,7.85-17.42,14-28.62,16.07,0,0-.02,0-.03,0Z"/><path class="cls-28" d="M103.85,126.51s-.08-.02-.11-.05c-.06-.06-.05-.16,0-.22,12.16-11.18,11.14-20.74,10.05-30.87,0-.08.05-.16.14-.17.08-.01.16.05.17.14,1.09,10.21,2.13,19.85-10.15,31.13-.03.03-.07.04-.1.04Z"/><path class="cls-29" d="M86.43,78.14s-2.46,0-2.61-8.69c-.14-8.69,4.49-22.01,8.11-25.92,3.62-3.91,10.28-14.77,12.89-20.13,2.61-5.36,5.07-8.83,6.81-8.25,1.74.58,5.5,7.67,6.37,11,.87,3.33,4.2,10.71,6.23,14.48,2.03,3.76,5.36,12.89,7.67,15.78,2.32,2.9,7.24,16.65,4.78,20.56,0,0-6.01-22.37-26.57-21.07-20.56,1.3-23.67,22.23-23.67,22.23Z"/><ellipse class="cls-12" cx="151.8" cy="63.79" rx="13.01" ry="6.11" transform="translate(-12.85 62.23) rotate(-22.25)"/><path class="cls-7" d="M145.94,59.76s6.81,10.14,8.98,15.78c2.17,5.65,5.65,25.05,9.99,29.83,4.34,4.78,7.67,4.63,10.28,2.17,2.61-2.46.87-7.82-.43-11.29-1.3-3.47-10.42-16.22-12.6-19.55-2.17-3.33-8.83-16.8-9.99-20.85l-6.23,3.91Z"/><path class="cls-32" d="M172.95,108.92s-.04,0-.05-.02c-5.77-5.96-9.39-14.97-13.22-24.51-3.67-9.15-7.47-18.6-13.41-25.67-.03-.03-.02-.08,0-.11.03-.03.08-.02.11,0,5.96,7.09,9.76,16.56,13.43,25.71,3.82,9.53,7.44,18.53,13.19,24.46.03.03.03.08,0,.11-.01.01-.03.02-.05.02Z"/><path class="cls-32" d="M174.32,108.05s-.05-.01-.07-.04c-3.58-6.33-6.88-13.38-10.39-20.84-4.72-10.05-9.59-20.44-15.38-29.47-.02-.04-.01-.08.02-.1.04-.02.08-.01.11.02,5.8,9.03,10.68,19.43,15.39,29.49,3.5,7.46,6.81,14.51,10.38,20.83.02.04,0,.08-.03.1-.01,0-.02,0-.04,0Z"/><path class="cls-32" d="M175.19,107.18s-.07-.03-.08-.07c-.74-6.33-5.1-14.8-7.99-20.41-1.79-3.47-3.86-6.88-5.86-10.18-3.89-6.4-7.9-13.02-10-20.31-.01-.04.01-.08.05-.09.04-.01.08.01.09.05,2.09,7.27,6.1,13.88,9.98,20.27,2.01,3.3,4.08,6.72,5.87,10.19,2.89,5.62,7.27,14.1,8.01,20.46,0,.04-.02.08-.07.08,0,0,0,0,0,0Z"/><path class="cls-18" d="M139.76,68.71s-2.8-3.06-1.82-9.68c.98-6.62,1.85-10.1,5-11.73,3.15-1.63,10.97-.76,15.2,3.15,4.24,3.91,5.54,8.12,5.54,8.12,0,0-7.71-4.64-15.64.46-7.93,5.1-8.63,6.77-8.28,9.68Z"/><path class="cls-37" d="M130.25,54.45c-.06,0-.12-.02-.17-.05-4.14-2.87-8.99-4.61-14.01-5.02-.17-.01-.29-.16-.28-.33.01-.17.16-.29.33-.28,5.13.42,10.08,2.19,14.31,5.13.14.1.17.29.08.42-.06.09-.15.13-.25.13Z"/><path class="cls-37" d="M94.5,41.69c-.09,0-.18-.04-.24-.12-.1-.13-.07-.33.06-.43,1.96-1.47,4.16-2.62,6.55-3.41.16-.05.33.03.39.19.05.16-.03.33-.19.39-2.32.77-4.47,1.89-6.38,3.32-.05.04-.12.06-.18.06Z"/><path class="cls-24" d="M95.92,182.8s-.06,0-.1-.02c-1.53-.52-2.9-1.44-3.96-2.66-.11-.13-.1-.32.03-.43.13-.11.32-.1.43.03.99,1.14,2.27,2,3.7,2.48.16.05.25.23.19.39-.04.13-.16.21-.29.21Z"/><path class="cls-24" d="M128.28,182.81c-.12,0-.23-.07-.28-.19-.06-.16,0-.33.16-.4,1.45-.6,2.81-1.39,4.06-2.35.13-.1.32-.08.43.06.1.13.08.32-.06.43-1.29.99-2.7,1.8-4.2,2.43-.04.02-.08.02-.12.02Z"/><path class="cls-13" d="M82.78,127.32s-.03,0-.04,0c-.17-.02-.28-.18-.26-.34.6-4.34,2.5-13.17,4.36-17.77.06-.16.24-.23.4-.17.16.06.23.24.17.4-1.84,4.56-3.73,13.31-4.32,17.63-.02.15-.15.26-.3.26ZM138.63,112.44c.17-.02.29-.17.26-.34-.3-2.34-.81-4.66-1.52-6.9-.05-.16-.22-.25-.38-.2-.16.05-.25.22-.2.38.7,2.21,1.2,4.49,1.5,6.79.02.15.15.27.3.27.01,0,.03,0,.04,0ZM90.81,150.02l1.61-8.25c.03-.17-.08-.33-.24-.36-.17-.03-.33.07-.36.24l-1.61,8.25c-.03.17.08.33.24.36.02,0,.04,0,.06,0,.14,0,.27-.1.3-.25ZM110.72,150.14c.36-2.45.52-4.95.48-7.43,0-.17-.16-.3-.31-.3-.17,0-.3.14-.3.31.04,2.44-.12,4.91-.48,7.33-.02.17.09.32.26.35.01,0,.03,0,.04,0,.15,0,.28-.11.3-.26ZM113.78,149.25l.33-4.78c.01-.17-.12-.31-.28-.32-.17,0-.31.12-.32.28l-.33,4.78c-.01.17.12.31.28.32,0,0,.01,0,.02,0,.16,0,.29-.12.3-.28ZM130.87,151.86c.17-.02.29-.17.27-.33-.27-2.67-.35-5.39-.24-8.07,0-.17-.12-.31-.29-.32-.16-.02-.31.12-.32.29-.11,2.71-.03,5.45.24,8.15.02.16.15.27.3.27.01,0,.02,0,.03,0ZM77.26,121.63c.11-.13.08-.32-.05-.43-.8-.64-1.47-1.46-1.95-2.37-.08-.15-.26-.2-.41-.13-.15.08-.21.26-.13.41.52.98,1.24,1.86,2.11,2.56.06.05.12.07.19.07.09,0,.18-.04.24-.11ZM147.08,99.82c.16-.05.25-.22.2-.38-.47-1.54-.46-2.54,0-3.83.06-.16-.02-.33-.18-.39-.16-.06-.33.02-.39.18-.59,1.61-.44,2.81-.02,4.21.04.13.16.22.29.22.03,0,.06,0,.09-.01ZM148.94,98.51c.16-.05.25-.22.2-.38-.3-.97-.38-2.01-.23-3.02.02-.17-.09-.32-.26-.35-.17-.02-.32.09-.35.26-.16,1.09-.07,2.23.25,3.28.04.13.16.22.29.22.03,0,.06,0,.09-.01Z"/><path class="cls-30" d="M165.48,78.23c1.26-.17,2.07.99,2.43,1.7.36.71,1.76,1.55,2.01,2.64.25,1.09.05,1.3.61,1.68.68.47,1.23,1.89,1.33,2.49.08.5,1.53,1.38,1,2.69-.53,1.31-5.24,4.31-6.94,4.27-1.7-.04-1.87-1.98-1.73-2.29.14-.31-3.02.86-2.71-2.86,0,0-2.35-.36-1.57-3.34,0,0-3.06-1.39-1.28-3.16,1.78-1.78,5.29-3.61,6.86-3.83Z"/><path class="cls-10" d="M166.36,90.56c-.59.29-1.23.56-1.99.85-.08.03-.17,0-.2-.09-.03-.08,0-.17.09-.2,2.08-.8,3.21-1.37,4.83-2.85.07-.06.16-.05.22.01.06.06.05.16,0,.21-1.04.95-1.91,1.54-2.93,2.05Z"/><path class="cls-10" d="M163.55,87.77c-.73.37-1.41.67-1.93.89-.08.03-.17,0-.2-.08-.03-.08,0-.17.08-.2,1.48-.63,4.2-1.91,5.89-3.42.07-.06.16-.05.22.01.06.06.05.16-.01.22-1.12,1-2.68,1.9-4.04,2.58Z"/><path class="cls-10" d="M162.43,84.2c-.77.38-1.56.72-2.34,1.04-.08.03-.17,0-.2-.08-.03-.08,0-.17.08-.2,2.01-.83,4.11-1.77,5.7-3.35.06-.06.16-.06.22,0,.06.06.06.16,0,.22-1.01,1-2.21,1.74-3.46,2.37Z"/><path class="cls-1" d="M94.93,69.11c-.54-.78-.11-2.02,1.04-3.06,1.42-1.29,4.05-2.76,5.77-3.16,3.9-.91,4.63,2.26,3.38,2.95-.29.16-1.07.11-1.88.29-3.72.87-5.82,2.81-6.79,3.39-.56.33-1.11.19-1.52-.41Z"/><path class="cls-1" d="M127.72,68.78c.46-.83-.09-2.02-1.33-2.94-1.54-1.14-4.3-2.35-6.05-2.59-3.97-.53-4.39,2.7-3.08,3.26.31.13,1.08,0,1.9.11,3.79.5,6.06,2.24,7.08,2.71.59.28,1.12.08,1.47-.56Z"/><path class="cls-30" d="M214.24,82.07c-.04,8.05-10.29,14.61-23.76,14.61s-24.99-6.99-25.01-14.61c-.03-13.1,10.92-23.72,24.38-23.72s24.45,10.62,24.38,23.72Z"/><path class="cls-34" d="M224.6,105.44c-2.96-6.56-5.93-10.38-14.61-12.92-8.68-2.54-37.91,1.69-37.91,1.69,0,0-8.89.21-14.19,6.56-3.93,4.71-6.81,11.98-10.71,17.33.17,5.35.9,10.65,1.59,15.99,4.5-1.94,9.21-4.87,11.66-8.54,0,0,0,5.72.64,7.2.64,1.48,55.69-.64,55.69-.64,0,0,9.32,2.33,11.22-2.75,1.91-5.08-.42-17.36-3.39-23.93Z"/><path class="cls-8" d="M160.47,126h0c-.16,0-.29-.14-.29-.31.16-5.24,1.49-10.47,3.85-15.15.07-.15.25-.2.4-.13.15.07.21.25.13.4-2.32,4.6-3.63,9.75-3.79,14.9,0,.16-.14.29-.3.29Z"/><path class="cls-8" d="M217.63,130.43s-.03,0-.05,0c-.16-.03-.27-.18-.24-.34,1.22-7.12.06-14.58-3.27-21-.08-.15-.02-.33.13-.4.15-.08.33-.02.4.13,3.38,6.53,4.56,14.12,3.32,21.37-.02.14-.15.25-.29.25Z"/><path class="cls-8" d="M147.35,121.27c-.39-.56-.87-1.06-1.42-1.46-.13-.1-.32-.07-.42.06-.1.13-.07.32.06.42.83.61,1.49,1.46,1.88,2.42-.04-.48-.08-.96-.11-1.44Z"/><path class="cls-8" d="M147.73,123.51c.03.14.15.23.29.23.02,0,.05,0,.07,0,.16-.04.26-.2.22-.36-.18-.75-.51-1.46-.96-2.1.03.48.07.96.11,1.44.11.26.2.53.27.8Z"/><path class="cls-8" d="M148.75,121.32c.05.1.16.16.26.16.05,0,.1-.01.14-.04.14-.08.2-.26.12-.4-.46-.85-1.19-1.56-2.05-2.02.01.23.02.47.03.7.62.39,1.14.95,1.49,1.59Z"/><path class="cls-8" d="M147.22,119.02c-.17-.09-.34-.17-.51-.24-.15-.06-.33.02-.38.17-.06.15.02.33.17.38.26.1.52.23.76.38-.01-.23-.02-.47-.03-.7Z"/><path class="cls-40" d="M172.78,98.66s2.54,26.05-12.07,32.82c0,0,.71,16.87,7.11,35.38l19.36,1.39s.7-5.64,1.05-13.27c0,0,3.07.32,4.76-.11,0,0-.06,10.34.57,13.52,0,0,17.53.56,19.23-1.34s5.51-30.92,4.87-36.21c0,0-12.71-8.26-10.59-32.61l-6.78,1.06s3.83,13.75-10.8,13.98c-13.98.21-9.95-15.04-9.95-15.04l-6.78.42Z"/><path class="cls-20" d="M179.71,117.51v5.61c0,5.32,4.31,9.64,9.64,9.64h0c5.32,0,9.64-4.31,9.64-9.64v-5.61h-19.27Z"/><path class="cls-1" d="M168.91,70.18s-5.58,25.31,20.89,16.62c0,0,24.14,9.81,20.4-17.47,0,0,6.04,6.99,3.49,14.29,0,0,2.75,6.46-3.71,8.89,0,0,2.75,8.47-6.88,8.05,0,0-.85,8.05-7.84,4.24,0,0-1.38,5.61-6.35,5.82-4.98.21-5.51-5.61-5.51-5.61,0,0-7.84,2.75-8.26-4.02,0,0-10.27.85-6.35-8.47,0,0-9.74-1.59-3.28-10.27,0,0-.53-8.36,3.39-12.07Z"/><path class="cls-28" d="M177.4,98.62c-.49,0-.98-.2-1.33-.54-.45.32-1.09.37-1.57.11-.42-.23-.81-.71-.85-1.24-.4.15-.86.15-1.3,0-.53-.19-.94-.58-1.11-1.06-.17-.48-.11-1.04.18-1.53.29-.49.74-.81,1.25-.9.08-.01.16.04.17.12.01.08-.04.16-.12.17-.42.07-.8.34-1.04.76-.24.41-.3.88-.15,1.27.14.4.48.72.93.88.45.16.92.13,1.28-.08.05-.03.11-.03.16,0,.05.03.07.09.06.15-.06.44.23.95.69,1.2.42.23.99.16,1.35-.16.03-.03.07-.04.11-.04.04,0,.08.02.1.05.38.45,1.04.65,1.61.48.57-.17,1.01-.7,1.09-1.28,0-.08.08-.14.17-.13.08.01.14.08.13.17-.09.7-.62,1.33-1.3,1.53-.16.05-.33.07-.5.07Z"/><path class="cls-28" d="M169.63,90.11c-.41,0-.83-.16-1.1-.47-.43-.48-.47-1.25-.12-1.79-.64-.25-1.1-.94-1.05-1.63.06-.77.73-1.44,1.5-1.5.08,0,.15.06.16.14,0,.08-.06.15-.14.16-.62.04-1.18.6-1.23,1.22-.05.62.43,1.26,1.04,1.39.05.01.09.05.11.1s0,.11-.03.15c-.39.41-.4,1.15-.02,1.57.38.42,1.11.5,1.56.16.06-.05.16-.04.21.03.05.07.04.16-.03.21-.25.18-.55.27-.86.27Z"/><path class="cls-28" d="M188.12,100.15c-.64,0-1.27-.38-1.56-.96-.25.25-.6.43-.98.48-.48.07-.95-.05-1.3-.33-.35-.28-.57-.72-.6-1.2-.04-.48.12-.95.42-1.27.06-.06.15-.06.21,0,.06.06.06.15,0,.21-.25.26-.37.65-.34,1.05.03.4.21.76.49.99.28.23.67.32,1.07.26.4-.06.74-.26.95-.56.03-.05.09-.07.15-.06.06,0,.1.05.12.11.2.67.99,1.12,1.67.95.68-.17,1.16-.95,1.01-1.64-.02-.08.03-.16.11-.18.08-.02.16.03.18.11.18.85-.39,1.77-1.23,1.99-.12.03-.25.05-.38.05Z"/><path class="cls-28" d="M183.64,103.85c-.2,0-.4-.03-.58-.09-.51-.16-.94-.55-1.17-1.03-.17.18-.41.31-.67.37-.36.09-.73.03-1.02-.15-.29-.18-.49-.5-.57-.86-.07-.36,0-.73.19-1.01.05-.07.14-.08.21-.04.07.05.08.14.04.21-.15.21-.2.5-.14.78.06.28.22.53.44.67.22.14.51.18.79.11.28-.07.52-.23.65-.46.03-.05.09-.08.15-.07.06,0,.11.05.12.1.16.51.57.92,1.08,1.09.51.16,1.08.06,1.51-.26.07-.05.16-.04.21.03.05.07.04.16-.03.21-.34.26-.77.4-1.19.4Z"/><path class="cls-28" d="M191.42,104.85c-.08,0-.15,0-.23-.02-.4-.07-.77-.33-1-.71-.23-.38-.3-.82-.19-1.21.02-.08.11-.12.18-.1.08.02.12.11.1.18-.09.31-.04.66.15.97.19.31.48.51.8.57.32.06.66-.04.94-.27.28-.22.45-.54.47-.86,0-.06.05-.12.11-.13.06-.02.13,0,.16.06.48.7,1.57.92,2.28.46.71-.46.97-1.54.53-2.27-.04-.07-.02-.16.05-.2.07-.04.16-.02.2.05.52.87.23,2.12-.62,2.67-.76.49-1.84.34-2.48-.29-.09.28-.27.55-.52.75-.28.23-.62.35-.95.35Z"/><path class="cls-28" d="M202.97,98.19s-.09,0-.13,0c-.63-.07-1.24-.48-1.82-1.24-.05-.07-.04-.16.03-.21.06-.05.16-.04.21.03.52.69,1.06,1.07,1.61,1.12.34.04.74-.12.98-.4.18-.2.25-.44.2-.67-.02-.07.02-.14.09-.17.07-.03.14,0,.18.06.21.33.6.55,1.04.59.45.03.87-.13,1.12-.43.25-.3.34-.74.23-1.18-.11-.44-.39-.78-.76-.93-.08-.03-.11-.12-.08-.19.03-.08.12-.11.19-.08.45.18.8.6.94,1.13.13.53.03,1.07-.29,1.44-.31.37-.83.57-1.37.53-.39-.03-.74-.17-1-.41-.04.18-.13.35-.27.5-.28.31-.7.5-1.1.5Z"/><path class="cls-28" d="M207.67,91.92c-.48,0-.96-.26-1.18-.7-.04-.07,0-.16.07-.2.07-.04.16,0,.2.07.23.46.85.67,1.31.45.46-.22.68-.85.46-1.31-.03-.06-.01-.13.04-.18.05-.04.12-.05.18-.01.33.21.76.27,1.19.16.42-.11.77-.38.95-.73.18-.35.2-.78.05-1.2-.15-.41-.45-.73-.81-.88-.08-.03-.11-.12-.08-.19.03-.08.12-.11.19-.08.44.18.8.56.98,1.05.18.49.16,1.01-.06,1.44-.22.42-.63.74-1.14.88-.38.1-.77.09-1.11-.04.08.54-.2,1.12-.7,1.36-.17.08-.35.12-.53.12Z"/><path class="cls-28" d="M194.1,97.25c-.1,0-.2-.01-.29-.04-.56-.15-.95-.74-.86-1.31.01-.08.09-.14.17-.13.08.01.14.09.13.17-.06.42.24.87.65.99.41.11.9-.13,1.06-.52.02-.04.05-.07.1-.09.04-.01.09,0,.13.03.39.31,1,.31,1.4,0,.39-.31.54-.9.33-1.36-.03-.07,0-.16.07-.2.07-.03.16,0,.2.07.26.58.08,1.32-.42,1.71-.46.36-1.12.39-1.62.1-.22.35-.63.57-1.04.57Z"/><ellipse class="cls-35" cx="189.94" cy="92.18" rx="5.39" ry="1.57"/><path class="cls-1" d="M185.77,86.52s-6.21,2.4-12.71.49c0,0-1.13,5.22,5.51,3.46,0,0,1.13,3.74,5.93,2.05,4.8-1.69,5.29-5.44,5.29-5.44l-4.02-.56Z"/><path class="cls-1" d="M194.04,86.52s6.23,2.4,12.72.49c0,0,1.13,5.22-5.51,3.46,0,0-1.13,3.74-5.93,2.05-4.8-1.69-5.29-5.44-5.29-5.44l4.01-.56Z"/><path class="cls-28" d="M182.2,93.11c-.7,0-1.33-.14-1.89-.43-1.19-.6-1.69-1.66-1.83-2.03-2.23.57-3.83.41-4.76-.48-1.22-1.16-.81-3.11-.79-3.19.02-.08.1-.13.18-.11.08.02.13.1.11.18,0,.02-.39,1.87.71,2.92.87.83,2.42.95,4.61.37.08-.02.16.02.18.1,0,.01.42,1.32,1.74,1.99,1.06.54,2.41.52,4-.04,4.65-1.64,5.19-5.28,5.2-5.31.01-.08.09-.14.17-.13.08.01.14.09.13.17,0,.04-.56,3.85-5.39,5.56-.85.3-1.63.45-2.35.45Z"/><path class="cls-28" d="M197.63,93.11c-.72,0-1.5-.15-2.35-.45-4.83-1.7-5.39-5.52-5.39-5.56-.01-.08.05-.16.13-.17.08-.01.16.05.17.13,0,.04.55,3.67,5.2,5.31,1.6.56,2.94.58,4,.04,1.32-.67,1.73-1.98,1.74-1.99.02-.08.1-.12.18-.1,2.19.58,3.74.46,4.61-.37,1.1-1.04.71-2.9.71-2.92-.02-.08.03-.16.11-.18.08-.02.16.03.18.11.02.08.42,2.03-.79,3.19-.93.89-2.53,1.05-4.76.48-.15.38-.65,1.43-1.83,2.03-.56.28-1.19.43-1.89.43Z"/><path class="cls-41" d="M164.36,79.39s-.95-3.71-.85-7.73c.06-2.16,1.24-13.52,5.47-21.25,4.24-7.73,15.18-20.68,16.87-22.59,1.69-1.91,3.56-3.35,5.05-2.72,1.48.64,7.84,4.98,12.07,15.25,4.24,10.27,8.19,19.34,10.09,23.79,1.91,4.45,2.96,12.81,2.44,14.93l-1.36.78s-2.49-21.07-23.98-20.54c-22.55.56-24.35,20.59-24.35,20.59l-1.45-.51Z"/><path class="cls-4" d="M227.65,112.84c-1.36-1.81-3.66-2.63-5.8-.97-3.89,3-2.51,14.71-3.04,25.09-.26,5.03,1.38,5.6,3.32,1.46,2.64-5.65,8.75-21.3,5.52-25.57Z"/><path class="cls-2" d="M227.65,112.84c-1.11-1.47-2.82-2.29-4.58-1.66h0c-1.96,1.43.12,3.51,2.66,3.25,2.54-.26,2.61,4.64.46,5.71-2.15,1.07-.45,1.65.12,2.78.56,1.13-3.34,4.13-1.99,4.42,1.34.29-2.31,4.72-.89,4.91.89.11-.48,4.19-1.79,7.13.16-.29.33-.61.49-.96,2.64-5.65,8.75-21.3,5.52-25.57Z"/><path class="cls-14" d="M223.95,115.56c-.8-.11-1.56-.47-2.24-1.05-.15-.13-.31.2-.16.33.72.62,1.53,1,2.38,1.11.18.02.2-.37.02-.39Z"/><path class="cls-14" d="M225.26,115.71l-.45-.03c-.18-.01-.2.38-.02.39l.45.03c.18.01.2-.38.02-.39Z"/><path class="cls-14" d="M223.48,120.27c-.62.17-1.24-.07-1.71-.63-.14-.16-.29.17-.16.33.53.63,1.24.87,1.93.69.18-.05.12-.43-.06-.38Z"/><path class="cls-14" d="M222.16,126.48c-.35,0-.7-.06-1.04-.18-.17-.06-.27.31-.09.37.36.13.74.2,1.11.2.18,0,.2-.39.02-.39Z"/><path class="cls-14" d="M221.77,131.68c-.35.05-.68-.03-1-.22-.17-.1-.26.28-.09.37.37.22.75.29,1.15.23.18-.03.12-.41-.06-.38Z"/><path class="cls-26" d="M224.75,97.41c-.44-3.34-4.23-5.33-4.54.2-.31,5.53,4.26,14.23,4.36,14.97.09.74.44.5.57-.83.13-1.33-.09-12.06-.39-14.34Z"/><path class="cls-43" d="M224.55,111.83c.08-.92,2.84-18.72,8.3-18.3,5.47.41-7.09,17.98-7.55,19.06-.36.84-.86.5-.75-.75Z"/><path class="cls-43" d="M225,112.11c.09-1.13,4.88-19.03,2.04-23.93-2.84-4.9-4.02,2.82-3.88,7.39.14,4.57,1.27,16.21,1.38,16.74s.41.46.46-.2Z"/><path class="cls-26" d="M226.3,91.98c-.03-1.06-.08-2.11-.16-3.16-.01-.2-.23-.19-.27-.02-.15.62-.23,1.26-.23,1.9-.09-.24-.19-.46-.3-.69-.08-.15-.23-.02-.25.12-.14,1.14-.14,2.29,0,3.42-.06-.09-.12-.18-.19-.27-.09-.13-.23-.04-.25.12-.09.94-.06,1.88.11,2.78l-.11-.17c-.07-.12-.25-.05-.25.12.03,1.05.1,2.1.21,3.13-.02-.02-.05-.03-.07-.04-.08-.04-.19.05-.19.18,0,.99.09,1.98.26,2.93l-.03-.02c-.08-.06-.22,0-.22.16.01.81.08,1.62.21,2.41-.02-.03-.04-.06-.06-.09-.08-.12-.25-.05-.25.12,0,1.32.09,2.64.29,3.92.04.25.31.16.28-.09-.17-1.09-.26-2.19-.28-3.3.06.1.13.2.19.3.09.14.28.02.24-.18-.19-.9-.3-1.83-.34-2.77l.1.07c.1.07.26-.03.22-.21-.2-.94-.32-1.91-.34-2.9.02.03.04.07.06.11.09.17.26,0,.24-.18-.12-1-.2-2-.24-3.02.1.15.19.3.29.45.11.17.29-.03.23-.22-.28-.98-.39-2.03-.33-3.08.1.15.2.29.31.44.09.13.28.02.24-.18-.18-1.12-.23-2.27-.13-3.42.2.48.35.99.46,1.53.03.18.19.18.26.07.06,2.6,0,5.21-.21,7.8-.08,1.05-.19,2.1-.31,3.15-.03.25.25.27.28.02.45-3.73.62-7.52.51-11.29ZM226.02,91.98c-.1-.6-.12-1.22-.08-1.83.03.61.06,1.22.08,1.83Z"/><path class="cls-26" d="M231.71,97.31c-.07.03-.13.06-.2.1.23-.81.31-1.7.23-2.57-.02-.19-.18-.18-.25-.06-.37.61-.66,1.29-.88,2.02,0-.2-.01-.4-.03-.6-.01-.19-.19-.18-.25-.06-.55.94-.94,2.03-1.14,3.2-.02-.08-.04-.16-.05-.24-.03-.14-.19-.23-.25-.06-.43,1.17-.77,2.39-1.01,3.65-.09-.03-.2,0-.29.13-.16.24-.2.64-.26.93-.06.28-.12.55-.18.83-.03-.07-.05-.13-.08-.2-.06-.14-.22-.14-.26.03-.18.81-.33,1.62-.47,2.44-.04-.11-.07-.22-.11-.33-.05-.16-.22-.12-.26.03-.28,1.15-.45,2.33-.5,3.54,0,.25.27.27.28.02.04-1,.16-1.99.37-2.95.04.13.09.27.13.4.05.14.23.14.26-.03.13-.86.29-1.71.46-2.56.03.07.05.13.08.2.06.14.22.14.26-.03.08-.39.16-.78.25-1.17.06-.29.1-.67.23-.92,0,0,0,.02,0,.03-.03.17.12.36.23.21.07-.1.09-.2.08-.29.21-1.15.5-2.27.87-3.34.04.17.08.34.12.51.05.21.26.19.28-.04.12-1.22.45-2.37.97-3.37.01.6-.02,1.2-.1,1.8-.03.25.25.26.28.02.15-1.15.5-2.24.99-3.19.02.95-.17,1.89-.55,2.7-.1.22.13.43.23.21.07-.16.16-.3.27-.41-.3.84-.66,1.64-1.08,2.37-.16.18-.29.4-.4.65-.08.18.1.43.21.25.13-.2.26-.41.38-.62.04-.05.09-.09.14-.14-.5,1.39-1.2,2.62-2.05,3.63-.13.15.01.41.16.32.04-.02.07-.05.11-.07-.71,1.7-2.05,2.88-2.29,4.92-.03.25.25.27.28.02.13-1.07.64-1.94,1.14-2.74.49-.8,1.01-1.58,1.32-2.55.03-.09,0-.17-.05-.21.76-1.05,1.37-2.28,1.81-3.64.04-.13-.06-.29-.16-.25,0,0-.01,0-.02,0,.36-.72.67-1.48.92-2.29.04-.14-.06-.29-.16-.25Z"/><path class="cls-30" d="M228.38,120.34c1.03.69.86,2.07.65,2.81-.21.75.27,2.27-.26,3.22-.53.95-.81.97-.65,1.61.19.78-.34,2.18-.66,2.67-.27.42.21,2-1.02,2.61-1.24.61-6.61-.28-7.82-1.41-1.2-1.14-.07-2.66.23-2.79.3-.14-2.75-1.34-.11-3.84,0,0-1.47-1.79,1.04-3.45,0,0-1.32-3,1.13-3.13s6.2.82,7.47,1.68Z"/><path class="cls-10" d="M224.31,130.28c-2.08,0-3.34-.34-5.32-1.09-.08-.03-.12-.11-.09-.19.03-.08.11-.11.19-.09,2.03.77,3.24,1.09,5.36,1.07h0c.08,0,.15.07.15.15,0,.08-.07.15-.15.15-.05,0-.1,0-.15,0Z"/><path class="cls-10" d="M225.38,126.77c-2.25,0-5.09-.85-6.59-1.36-.08-.03-.12-.11-.09-.19.03-.08.11-.12.19-.09,1.48.5,4.29,1.35,6.5,1.35h0c.08,0,.15.07.15.15s-.07.15-.15.15h0Z"/><path class="cls-10" d="M225.85,123.23c-2.06,0-4.07-.64-5.95-1.31-.08-.03-.12-.11-.09-.19.03-.08.11-.12.19-.09,2,.71,4.14,1.38,6.32,1.28.08,0,.15.06.16.14,0,.08-.06.15-.14.16-.16,0-.32.01-.48.01Z"/><path class="cls-23" d="M167.38,165.33s11.46,2.99,19.93.98c0,0,.11,23.19-.64,24.25s-29.57,3.5-32.12.56c-1.62-1.87,1.13-8.96,7.48-10.45,6.35-1.48,8.75-.42,8.75-.42,0,0-2.49-9.13-3.41-14.92Z"/><path class="cls-23" d="M213.26,165.36s-11.51,2.96-19.98.95c0,0-.11,23.19.64,24.25.74,1.06,29.57,3.5,32.12.56,1.62-1.87-1.13-8.96-7.48-10.45-6.35-1.48-8.75-.42-8.75-.42,0,0,2.54-9.11,3.46-14.89Z"/><path class="cls-35" d="M189.59,73.13c-1.62,0-2.89,12.03-2.34,13.06,1.12,2.12,4.21,2.2,5.25.04.51-1.05-1.08-13.11-2.91-13.11Z"/><ellipse class="cls-36" cx="175.86" cy="83.22" rx="3.6" ry="4.69" transform="translate(15.86 193.91) rotate(-60)"/><path class="cls-36" d="M201.8,80.11c-2.24,1.29-3.26,3.74-2.26,5.46.99,1.72,3.62,2.07,5.86.77,2.24-1.3,3.26-3.74,2.26-5.46-.99-1.72-3.62-2.07-5.86-.77Z"/><path class="cls-1" d="M174.12,71.51c-.53-.77-.11-2,1.03-3.02,1.41-1.27,4-2.72,5.7-3.12,3.86-.9,4.57,2.24,3.34,2.91-.29.16-1.06.11-1.85.29-3.68.86-5.74,2.78-6.7,3.35-.55.33-1.1.18-1.5-.41Z"/><path class="cls-1" d="M205.74,71.51c.53-.77.11-2-1.03-3.02-1.41-1.27-4-2.72-5.7-3.12-3.86-.9-4.57,2.24-3.34,2.91.29.16,1.06.11,1.85.29,3.68.86,5.74,2.78,6.7,3.35.55.33,1.1.18,1.5-.41Z"/><path class="cls-20" d="M190.53,155.34c-3.1,0-6.21-.85-8.84-2.53-.14-.09-.18-.27-.09-.41.09-.14.27-.18.41-.09,4.99,3.2,11.74,3.26,16.79.15.14-.09.32-.04.41.1.09.14.04.32-.1.41-2.58,1.59-5.58,2.38-8.58,2.38Z"/><path class="cls-25" d="M173.75,182.56s-.04,0-.06,0c-1.29-.28-2.47-1.12-3.16-2.24-.09-.14-.04-.32.1-.41.14-.09.32-.04.41.1.61.99,1.65,1.73,2.78,1.97.16.03.26.19.23.35-.03.14-.15.23-.29.23Z"/><path class="cls-25" d="M207.24,182.66c-.13,0-.25-.08-.28-.21-.05-.16.04-.32.2-.37,1.04-.31,1.94-1.08,2.4-2.07.07-.15.25-.21.39-.14.15.07.21.25.14.39-.53,1.14-1.56,2.03-2.77,2.39-.03,0-.06.01-.08.01Z"/><path class="cls-27" d="M172.22,57c-.06,0-.12-.02-.18-.06-.13-.1-.16-.28-.06-.42,3.29-4.45,8.77-7.22,14.3-7.24h0c.16,0,.3.13.3.3,0,.16-.13.3-.3.3-5.35.02-10.64,2.7-13.82,7-.06.08-.15.12-.24.12Z"/><path class="cls-27" d="M201.95,53.85c-.07,0-.13-.02-.19-.07-2.11-1.77-4.65-2.97-7.35-3.48-.16-.03-.27-.19-.24-.35.03-.16.18-.27.35-.24,2.8.53,5.43,1.78,7.62,3.61.13.11.14.29.04.42-.06.07-.14.11-.23.11Z"/><path class="cls-27" d="M206.75,58.23c-.1,0-.2-.05-.26-.15-.42-.75-1.03-1.4-1.74-1.88-.14-.09-.17-.28-.08-.41.09-.14.28-.17.41-.08.79.53,1.46,1.25,1.93,2.08.08.14.03.32-.11.4-.05.03-.1.04-.15.04Z"/><path class="cls-45" d="M183.48,71.44c-5.01.75-5.54,1.32-6.13,2.62"/><path class="cls-45" d="M196.95,71.55c5.01.75,5.59,1.46,6.18,2.75"/></g></g></g></svg>