<?xml version="1.0" encoding="UTF-8"?><svg id="Layer_2" xmlns="http://www.w3.org/2000/svg" viewBox="0 0 190 210"><defs><style>.cls-1{fill:#556b5a;}.cls-1,.cls-2,.cls-3,.cls-4,.cls-5,.cls-6,.cls-7,.cls-8,.cls-9,.cls-10,.cls-11,.cls-12,.cls-13,.cls-14,.cls-15,.cls-16,.cls-17,.cls-18{stroke-width:0px;}.cls-2{fill:#f6f2f3;}.cls-3{fill:#7fb3d4;}.cls-4{fill:#95b5c5;}.cls-5{fill:#c6c4c5;}.cls-6{fill:#708a76;}.cls-7{fill:#fd6c50;}.cls-8{fill:#7d7a94;}.cls-9{fill:#fdc55c;}.cls-10{fill:#fdd07e;}.cls-11{fill:#38302e;}.cls-12{fill:#752c13;}.cls-13{fill:#edb447;}.cls-14{fill:#89ae91;}.cls-15{fill:#fca984;}.cls-16{fill:#f9956e;}.cls-17{fill:#ffcbb6;}.cls-18{fill:#fff;}</style></defs><g id="Image_1"><rect class="cls-18" width="190" height="210"/><path class="cls-14" d="M65.38,144.9c.17,4.23,6.12,21.81,6.12,21.81l20.4.23s.34-13.64.11-15.55l-26.63-6.48Z"/><path class="cls-8" d="M70.75,164s12.25,3.16,21.26,1.01c0,0,.11,24.68-.68,25.81s-31.48,3.73-34.19.6c-1.73-1.99,1.2-9.54,7.96-11.12,6.76-1.58,9.32-.45,9.32-.45,0,0-2.7-9.69-3.68-15.85Z"/><path class="cls-14" d="M124.77,145.74c-.34,3.04-5.9,20.96-5.9,20.96l-20.4.23s-.34-13.64-.11-15.55l26.41-5.63Z"/><path class="cls-8" d="M119.63,164s-12.25,3.16-21.26,1.01c0,0-.11,24.68.68,25.81.79,1.13,31.48,3.73,34.19.6,1.73-1.99-.91-9.51-7.67-11.09-6.76-1.58-9.61-.48-9.61-.48,0,0,2.7-9.69,3.68-15.85Z"/><path class="cls-3" d="M74.67,89.31s-8.11,4.51-12.02,25.85c-3.91,21.34-3.76,26.15-3.31,26.75.45.6,16.68,12.02,35.31,11.12,18.63-.9,34.71-8.26,35.46-10.22.75-1.95-3.01-39.07-12.92-53.8l-42.53.3Z"/><path class="cls-8" d="M61.42,121.85c1.19.06,7.85,11.34,33.69,11.64,26.91.31,33.36-9.47,33.36-9.47,0,0,1.8,6.31,1.65,8.87-.15,2.55-19.96,10.68-37.27,9.62-17.13-1.05-29.53-8.14-33.06-11.27-1.35-1.2.44-9.44,1.62-9.39Z"/><rect class="cls-13" x="84.94" y="131.53" width="19.69" height="11.87" rx="1.05" ry="1.05"/><path class="cls-10" d="M88.43,142.47c-.62,0-1.35-.04-1.8-.51-.41-.43-.43-.94-.45-1.54v-.24c-.11-2.53-.13-4.8-.07-7.14,0-.17.16-.3.32-.31.17,0,.31.15.31.32-.05,2.33-.03,4.58.07,7.1v.25c.02.59.04.88.28,1.12.31.32.97.32,1.51.32h6.92s0-.01,0-.01c.17,0,.32.14.32.32s-.14.32-.32.32h-6.92c-.05.01-.11.01-.17.01Z"/><path class="cls-10" d="M97.47,142.44c-.17,0-.31-.14-.32-.31,0-.17.14-.32.31-.32l2.08-.03h0c.17,0,.31.14.32.31,0,.17-.14.32-.31.32l-2.08.03h0Z"/><path class="cls-3" d="M73.62,90.52s-8.72,4.36-15.63-1.8c-6.91-6.16-6.46-13.22-6.46-13.22l-11.27.6s-7.36,28.85,25.4,36.22l7.96-21.79Z"/><path class="cls-3" d="M117.2,90.06s13.37.3,18.03,10.52c4.66,10.22,2.4,28.85-18.18,29.9,0,0-4.21-3.61-5.26-8.42,0,0,9.77-3.91,8.87-16.53-.9-12.62-3.46-15.48-3.46-15.48Z"/><path class="cls-8" d="M58.07,94.84s-.05,0-.07,0c-.17-.04-.28-.21-.24-.38.43-1.86.33-3.88-.28-5.69-.06-.17.03-.34.2-.4.17-.06.35.03.4.2.66,1.95.76,4.03.29,6.03-.03.15-.16.24-.31.24Z"/><path class="cls-8" d="M63.38,111.98s-.05,0-.07,0c-.17-.04-.28-.21-.24-.38.89-4.04,2.6-7.96,4.94-11.32.1-.14.3-.18.44-.08.14.1.18.3.08.44-2.29,3.29-3.97,7.13-4.84,11.09-.03.15-.16.25-.31.25Z"/><path class="cls-8" d="M113.32,122.41c-.06,0-.13-.02-.19-.06-.14-.1-.17-.3-.07-.44,1.2-1.64,2.82-2.95,4.39-4.21,2.12-1.71,4.13-3.33,5.16-5.69.99-2.28.84-5.03-.4-7.18-.09-.15-.04-.34.12-.43.15-.09.34-.04.43.12,1.34,2.32,1.51,5.29.43,7.75-1.09,2.51-3.26,4.25-5.34,5.93-1.54,1.24-3.12,2.52-4.27,4.09-.06.08-.16.13-.26.13Z"/><path class="cls-8" d="M128.47,115.17c-.1,0-.2-.05-.26-.14-1.17-1.7-2.99-2.99-4.98-3.54-.17-.05-.27-.22-.22-.39.05-.17.22-.27.39-.22,2.13.59,4.08,1.97,5.33,3.79.1.14.06.34-.08.44-.05.04-.12.06-.18.06Z"/><path class="cls-8" d="M126.34,110.88s-.07,0-.1-.02c-.82-.28-1.71-.39-2.58-.32-.16.02-.33-.11-.34-.29-.01-.17.11-.33.29-.34.95-.08,1.93.04,2.83.35.16.06.25.24.2.4-.05.13-.17.21-.3.21Z"/><path class="cls-15" d="M114.29,121.94c-.93-.27-2.04-.84-3.85-.44-1.81.4-4.72.35-6.1.92-1.17.48-1.21,1.73.3,2.01,1.28.24,4.38.31,4.32.57-.04.17-1.55.87-3.51,1.59-1.1.41-2.85.92-3.48,1.14-1.54.54-1.62,2.33.05,2.36.66.01,2.26-.37,3.23-.61.78-.19,2.9-.58,2.9-.58,0,0-1.38.95-2.96,1.94-1.45.91-3.02,1.74-3.4,2.23-.6.8.08,2.43,2.07,1.56.84-.37,1.81-.9,2.74-1.37,1.45-.73,2.73-1.35,2.73-1.35,0,0-.95,1.26-2.09,2.5-.94,1.03-1.95,1.89-2.25,2.54-.41.91.84,1.81,2.27.78,1.16-.84,5.22-4.39,5.22-4.39,0,0-1.91,3.56-2.12,4.34-.22.82.98,1.34,1.57.65.7-.81,1.85-2.52,3.25-4.21,1.7-2.07,3.96-5.46,3.96-6.39,0-1.07-1.45-4.83-4.86-5.82Z"/><path class="cls-9" d="M97.37,124.48c0,1.08-.87,1.95-1.95,1.95s-1.95-.87-1.95-1.95.87-1.95,1.95-1.95,1.95.87,1.95,1.95Z"/><ellipse class="cls-15" cx="95.35" cy="75.92" rx="25.95" ry="25.25"/><path class="cls-2" d="M71.29,65.27s-2.81,24.93,23.91,14.56c0,0,24.9,11.81,24.56-13.77,0,0,10.37,27.05-21.53,45.08h-5.86s-31.56-16.79-21.08-45.87Z"/><path class="cls-5" d="M93.21,111.7s-.07-.01-.1-.04c-12.45-10.08-21.04-25.84-23.59-43.25-.01-.09.05-.17.13-.18.09-.01.17.05.18.13,2.53,17.33,11.09,33.03,23.47,43.05.07.05.08.15.02.22-.03.04-.08.06-.12.06Z"/><path class="cls-5" d="M94.9,111.36s-.08-.01-.11-.04c-7.23-6.96-13.15-16.64-18.13-29.59-.03-.08,0-.17.09-.2.08-.03.17,0,.2.09,4.96,12.9,10.86,22.54,18.05,29.47.06.06.06.16,0,.22-.03.03-.07.05-.11.05Z"/><path class="cls-5" d="M97.38,111.36c-.05,0-.1-.02-.13-.07-.05-.07-.03-.17.04-.22,7.49-5.19,13.43-11.45,17.2-18.09,3.98-7.03,5.87-14.85,5.6-23.25,0-.09.07-.16.15-.16.08,0,.16.07.16.15.26,8.46-1.63,16.34-5.64,23.42-3.79,6.68-9.76,12.98-17.29,18.2-.03.02-.06.03-.09.03Z"/><path class="cls-5" d="M96.02,111.13s-.08-.01-.11-.04c-.06-.06-.07-.16,0-.22,8.93-9.49,14.49-20.93,17.59-28.86.03-.08.12-.12.2-.09.08.03.12.12.09.2-3.1,7.95-8.68,19.43-17.65,28.96-.03.03-.07.05-.11.05Z"/><path class="cls-5" d="M95.07,111.83c-.06,0-.12-.03-.14-.09-3.59-7.62-6.18-15.68-7.72-23.96-.02-.09.04-.17.13-.18.09-.02.17.04.18.13,1.53,8.25,4.12,16.29,7.7,23.88.04.08,0,.17-.08.21-.02.01-.04.02-.07.02Z"/><path class="cls-5" d="M95.2,111.61s-.05,0-.08-.02c-.08-.04-.1-.14-.06-.21,4.06-7.38,7.04-15.29,8.88-23.5.02-.08.1-.14.19-.12.09.02.14.1.12.19-1.84,8.25-4.84,16.18-8.91,23.59-.03.05-.08.08-.14.08Z"/><path class="cls-5" d="M95.29,111.7h0c-.09,0-.16-.07-.16-.16.02-3.4.08-7.32.14-11.1.06-3.79.12-7.7.14-11.1,0-.09.07-.16.16-.16h0c.09,0,.16.07.16.16-.02,3.4-.08,7.32-.14,11.1-.06,3.79-.12,7.7-.14,11.1,0,.09-.07.16-.16.16Z"/><path class="cls-2" d="M114.5,80.39c-7.22,5.17-19.3-.55-19.3-.55-9.83,3.81-15.65,2.85-19.1.11.99,2.61,3.79,7.66,10.65,7.72,5.19.04,7.56-3.82,8.64-5.71,1.08,1.88,3.45,5.75,8.64,5.71,6.48-.05,9.34-4.58,10.47-7.27Z"/><path class="cls-5" d="M103.94,87.82c-5.09,0-7.46-3.75-8.54-5.6-1.01,1.75-3.46,5.6-8.58,5.6-.03,0-.05,0-.08,0-6.83-.06-9.69-4.92-10.79-7.82-.03-.08,0-.17.09-.2.08-.03.17.01.2.09,1.07,2.82,3.86,7.56,10.5,7.62.03,0,.05,0,.08,0,5.18,0,7.55-4.13,8.44-5.68.03-.05.08-.08.14-.08h0c.06,0,.11.03.14.08.98,1.7,3.26,5.68,8.4,5.68.03,0,.05,0,.08,0,6.39-.05,9.21-4.52,10.33-7.18.03-.08.13-.12.21-.08.08.03.12.13.08.21-1.14,2.73-4.04,7.32-10.61,7.37-.03,0-.06,0-.08,0Z"/><path class="cls-2" d="M88.8,49.79s-2.25,4.06-.3,5.41c1.95,1.35,3.91,0,4.21-.75,0,0,1.65,2.1,3.61,1.8,1.95-.3,2.4-2.1,2.4-2.1,0,0,4.66,2.25,4.81-3.61,0,0-6.16-5.71-14.73-.75Z"/><path class="cls-14" d="M68.9,74.72s-2.19-2.24-2.49-5.55c-.3-3.31.46-17.63,4.37-24.7,3.91-7.06,13.81-16.93,16.52-20.38,2.7-3.46,4.51-7.21,7.21-7.21s11.27,3.61,13.67,9.32c1.42,3.38,2.32,7.95,4.41,12.53,1.45,3.17,4.51,5.52,6.31,8.57,2.5,4.22,6.87,21.04,2.67,27.35,0,0-6.01-25.25-28.1-23.44-22.09,1.8-24.57,23.52-24.57,23.52Z"/><path class="cls-12" d="M82.4,69.67c-.11,0-.22-.06-.28-.16-.09-.15-.03-.35.12-.43,1.97-1.11,4.2-1.76,6.45-1.9.18,0,.32.12.33.3.01.17-.12.32-.3.33-2.16.13-4.29.76-6.18,1.82-.05.03-.1.04-.16.04Z"/><path class="cls-12" d="M108.3,69.59c-.05,0-.11-.01-.16-.04-1.88-1.06-4.02-1.69-6.18-1.82-.17-.01-.31-.16-.3-.33.01-.17.15-.31.33-.3,2.25.14,4.48.79,6.45,1.9.15.09.21.28.12.43-.06.1-.16.16-.28.16Z"/><path class="cls-16" d="M94.89,65.5c-2.44.05-4.97,13.86-4,14.99,2.19,2.55,7.18,2.34,8.97-.11.87-1.19-1.84-14.95-4.97-14.88Z"/><path class="cls-2" d="M86.42,57.83c-4.17.9-8.11,3.94-8.11,6.42s2.25,2.25,3.94,2.03,7.1-1.47,8.68-3.16c1.58-1.69,1.87-6.68-4.51-5.3Z"/><path class="cls-2" d="M104.28,57.61c4.17.9,8.11,3.94,8.11,6.42s-2.25,2.25-3.94,2.03c-1.69-.23-7.1-1.47-8.68-3.16-1.58-1.69-1.87-6.68,4.51-5.3Z"/><path class="cls-2" d="M92.41,112.76s-3.03,4.04-2.81,5.32c.23,1.28,4.06,1.58,6.09,1.62,1.95.04,5.52-.45,5.51-1.75,0-.76-2.7-5.26-2.7-5.26l-6.09.08Z"/><path class="cls-5" d="M91.83,119.08s-.02,0-.04,0c-.09-.02-.14-.1-.12-.19.56-2.42,1.4-4.32,2.56-6.59.04-.08.13-.11.21-.07.08.04.11.13.07.21-1.15,2.25-1.98,4.13-2.53,6.52-.02.07-.08.12-.15.12Z"/><path class="cls-5" d="M96.25,119.45c-.08,0-.15-.06-.16-.15l-.46-6.55c0-.09.06-.16.15-.17.09-.01.16.06.17.15l.46,6.55c0,.09-.06.16-.15.17,0,0,0,0-.01,0Z"/><path class="cls-5" d="M99.85,118.84c-.07,0-.14-.05-.15-.12-.54-2.14-1.35-4.21-2.43-6.14-.04-.08-.01-.17.06-.21.08-.04.17-.01.22.06,1.09,1.96,1.92,4.05,2.46,6.22.02.08-.03.17-.11.19-.01,0-.03,0-.04,0Z"/><rect class="cls-14" x="92.11" y="110.88" width="6.69" height="2.03" rx=".62" ry=".62"/><path class="cls-14" d="M44.46,61.04c.35-.46-1.02-2.96-3.52-5.23-2.5-2.28-4.92-2.83-5.25-2.31-.34.51,1.1,2.88,3.01,4.45,1.91,1.57,5.36,3.62,5.77,3.1Z"/><path class="cls-14" d="M44.64,64.15c-.44-.38.42-3.11,2.42-5.85,2-2.74,4.26-3.78,4.69-3.34.43.43-.51,3.04-2.07,4.98-1.56,1.93-4.54,4.65-5.04,4.22Z"/><path class="cls-1" d="M52.98,90.45c.06,0,.13-.02.19-.05.18-.11.24-.34.14-.53-8.35-14.61-10.79-32.38-6.68-48.77.05-.21-.07-.42-.27-.47-.2-.05-.41.07-.46.28-4.16,16.58-1.69,34.57,6.76,49.35.07.12.2.19.33.19Z"/><path class="cls-4" d="M46.58,40.8s.9-12.52-3.49-11.35c-2.85.76-.07,7.83,2.29,11.54l1.2-.19Z"/><path class="cls-4" d="M45.63,40.56s-10.68-6.22-11.54-1.67c-.56,2.96,6.89,3.44,11.19,2.86l.35-1.19Z"/><path class="cls-4" d="M45.51,41.12s-7.3,10.1-2.97,11.5c2.81.91,4.15-6.59,4.09-11.01l-1.11-.49Z"/><path class="cls-4" d="M47.14,41.75s10.78-6.04,7.43-9.17c-2.18-2.03-6.47,4.2-8.24,8.24l.81.92Z"/><path class="cls-4" d="M46.37,42.29s8.68,8.89,10.69,4.74c1.31-2.7-5.75-5.18-10.05-5.79l-.64,1.05Z"/><path class="cls-9" d="M44.8,40.77c-.27.68.16,1.5.97,1.84.81.34,1.68.06,1.95-.62s-.16-1.5-.97-1.84c-.81-.34-1.68-.06-1.95.62Z"/><path class="cls-15" d="M40.83,66.18c-1.48.61-1.63,2.38-1.56,3.38.06,1-.93,2.79-.51,4.13.42,1.34.76,1.44.4,2.21-.44.94-.14,2.83.13,3.55.23.6-.79,2.47.61,3.56,1.4,1.1,8.42,1.38,10.23.26,1.82-1.12.79-3.33.44-3.58-.35-.25,3.83-.97,1.14-4.81,0,0,2.32-1.88-.4-4.62,0,0,2.45-3.44-.6-4.25s-8.03-.58-9.87.17Z"/><path class="cls-7" d="M50.52,79.6c0,.1-.06.19-.16.2-2.76.44-4.45.54-7.18-.05-.1-.02-.17-.12-.15-.23.02-.1.12-.17.23-.15,2.69.58,4.28.49,7.04.05.1-.02.2.05.22.16,0,0,0,.01,0,.02Z"/><path class="cls-7" d="M51.77,74.87c0,.1-.07.19-.17.2-2.02.25-5.84.59-8.68,0-.1-.02-.17-.12-.15-.23.02-.1.12-.17.23-.15,2.78.58,6.55.25,8.55,0,.1-.01.2.06.21.17,0,0,0,0,0,.01Z"/><path class="cls-7" d="M51.28,70.19c0,.1-.07.19-.17.2-2.75.37-5.66.67-8.45-.05-.1-.03-.16-.13-.14-.23.03-.1.13-.16.23-.14,2.72.71,5.59.41,8.3.04.1-.01.2.06.22.16,0,0,0,0,0,.01Z"/><ellipse class="cls-17" cx="80.58" cy="76.93" rx="3.83" ry="4.99" transform="translate(-26.33 108.25) rotate(-60)"/><path class="cls-17" d="M108.2,73.61c-2.39,1.38-3.47,3.98-2.41,5.81s3.85,2.2,6.24.82c2.39-1.38,3.47-3.98,2.41-5.81-1.06-1.83-3.85-2.2-6.24-.82Z"/><path class="cls-6" d="M112.95,40.03c-.05,0-.1-.01-.15-.04-4.25-2.25-9.02-3.28-13.82-2.97-.19.01-.33-.12-.34-.3-.01-.17.12-.32.3-.34,4.92-.31,9.81.74,14.16,3.05.15.08.21.27.13.43-.06.11-.17.17-.28.17Z"/><path class="cls-6" d="M74.16,52.34c-.07,0-.15-.03-.21-.08-.13-.11-.15-.31-.03-.45,3.15-3.66,7.49-6.14,12.25-6.98.17-.03.34.08.37.26.03.17-.08.34-.26.37-4.54.8-8.87,3.27-11.88,6.76-.06.07-.15.11-.24.11Z"/><path class="cls-6" d="M70.33,58.32s-.07,0-.11-.02c-.16-.06-.25-.24-.19-.41.5-1.36,1.2-2.64,2.08-3.8.1-.14.3-.17.44-.06.14.11.17.3.06.44-.84,1.11-1.51,2.33-1.99,3.64-.05.13-.17.21-.3.21Z"/><path class="cls-11" d="M77.5,183.18c-.06,0-.13-.02-.19-.06-1.18-.86-2.22-1.89-3.07-3.08-.1-.14-.07-.34.07-.44.14-.1.34-.07.44.07.82,1.13,1.81,2.12,2.94,2.94.14.1.17.3.07.44-.06.09-.16.13-.26.13Z"/><path class="cls-11" d="M113.64,182.54c-.11,0-.23-.06-.28-.17-.08-.16-.02-.35.14-.43,1-.5,1.81-1.39,2.23-2.42.07-.16.25-.24.41-.17.16.07.24.25.17.41-.48,1.17-1.4,2.18-2.53,2.75-.05.02-.09.03-.14.03Z"/><ellipse class="cls-16" cx="95.35" cy="86.03" rx="2.88" ry="2.2"/></g></svg>