<?xml version="1.0" encoding="UTF-8"?><svg xmlns="http://www.w3.org/2000/svg" viewBox="0 0 190 210"><defs><style>.cls-1{fill:#f6f2f3;}.cls-1,.cls-2,.cls-3,.cls-4,.cls-5,.cls-6,.cls-7,.cls-8,.cls-9,.cls-10,.cls-11,.cls-12,.cls-13,.cls-14,.cls-15,.cls-16,.cls-17,.cls-18,.cls-19,.cls-20,.cls-21,.cls-22,.cls-23{stroke-width:0px;}.cls-2{fill:#d68f72;}.cls-3{fill:#544845;}.cls-4{fill:#7fb3d4;}.cls-5{fill:#ffc000;}.cls-6{fill:#f0c400;}.cls-7{fill:#6f7f87;}.cls-8,.cls-10{fill:#f0b500;}.cls-9{fill:#f4b682;}.cls-24,.cls-10{mix-blend-mode:multiply;}.cls-11{fill:#ffd37b;}.cls-12{fill:#8c5844;}.cls-13,.cls-22{fill:#000;}.cls-14{fill:#eaa465;}.cls-15,.cls-25,.cls-22{opacity:.3;}.cls-15,.cls-18,.cls-21{fill:#fff;}.cls-16{fill:#38302e;}.cls-17{fill:#cca052;}.cls-26{opacity:.2;}.cls-18{opacity:.5;}.cls-19{fill:#c44344;}.cls-27{isolation:isolate;}.cls-20{fill:#dd9152;}.cls-23{fill:#ee8ab2;}</style></defs><g class="cls-27"><g id="Layer_2"><g id="Image_4"><rect class="cls-21" width="190" height="210"/><path class="cls-16" d="M117.06,179.68s.08,0,.12-.02c1.16-.51,2.09-1.48,2.57-2.65.06-.15-.01-.31-.16-.37-.15-.06-.31.01-.37.16-.42,1.04-1.25,1.89-2.27,2.34-.14.06-.21.23-.15.38.05.11.15.17.26.17Z"/><path class="cls-16" d="M84.24,179.54c.1,0,.2-.06.25-.15.07-.14.02-.31-.12-.39-.92-.48-1.71-1.24-2.23-2.14-.08-.14-.25-.18-.39-.11-.14.08-.18.25-.11.39.57.99,1.45,1.83,2.47,2.36.04.02.09.03.13.03Z"/><path class="cls-3" d="M122.9,162.71s-11.1,2.86-19.28.92c0,0-.1,22.38.61,23.4.72,1.02,28.54,3.38,30.99.54,1.57-1.81-1.09-8.65-7.22-10.08-6.13-1.43-8.45-.41-8.45-.41,0,0,2.45-8.79,3.34-14.37Z"/><path class="cls-3" d="M78.59,162.71s11.1,2.86,19.28.92c0,0,.1,22.38-.61,23.4-.72,1.02-28.54,3.38-30.99.54-1.57-1.81,1.09-8.65,7.22-10.08,6.13-1.43,8.45-.41,8.45-.41,0,0-2.45-8.79-3.34-14.37Z"/><path class="cls-13" d="M112.3,95.45c1.87,1.11,3.89,1.76,5.85,1.2,1.96-.55,3.84-2.46,4.69-5.39.85-2.94.3-6.58-1.34-8.43,1.9.2,3.76-2.26,4.03-5.32.27-3.07-1.08-6.29-2.93-6.98-4.35-1.62-9.42-1.31-11.99,4.64-2.57,5.95-2.51,17.8,1.68,20.28Z"/><path class="cls-13" d="M77.14,77.99c-1.82.07-3.67.68-5.19,2.17-1.52,1.48-2.67,3.93-2.79,6.61-.12,2.69.92,5.51,2.63,6.45-.28,2.06-.4,4.13-.08,6.18.31,2.05,1.17,4.01,2.48,4.85,1.06.69,2.29.57,3.41.09,2.22-.94,4.26-3.57,4.52-6.96.4-5.17,2.5-10.43.94-15.1-.52-1.57-1.26-3.04-2.26-3.97-1-.93-2.47-.38-3.65-.33Z"/><path class="cls-4" d="M110.62,94.46s9.54.82,16.48-1.23c6.95-2.04,18.12-7.22,18.94-6.81.82.41,7.08,7.9,6.13,9.54-.95,1.63-13.35,6.68-17.71,9.26-4.36,2.59-8.17,3.68-8.04,4.77s1.36,7.77,3.54,14.44c2.18,6.68,3.54,10.35,7.49,14.71,3.95,4.36,7.49,10.9,6.95,12.4-.54,1.5-6.13,5.45-8.45,8.17-2.32,2.72-8.58,8.04-17.98,6.4-9.4-1.63-15.53,1.23-24.11,3.95-8.58,2.72-29.43-.95-29.7-2.72-.27-1.77,2.86-19.48,3.68-26.29.82-6.81,2.86-15.53,1.91-15.39-.95.14-11.99,6.27-17.3,6.81-1.36.27-4.36-6.4-4.09-7.22s8.58-6.95,11.04-9.4c2.45-2.45,12.94-15.12,21.12-17.85,8.17-2.72,30.11-3.54,30.11-3.54Z"/><path class="cls-7" d="M70.05,125.6c.07,0,.14-.03.19-.08,2.9-2.69,5.53-5.7,7.79-8.95.09-.13.06-.31-.07-.4-.13-.09-.31-.06-.4.07-2.24,3.21-4.83,6.19-7.71,8.85-.12.11-.12.29-.02.41.06.06.13.09.21.09Z"/><path class="cls-7" d="M62.72,116.9c.12,0,.24-.08.28-.21.04-.15-.04-.31-.2-.36-.84-.24-1.62-.74-2.2-1.4-.1-.12-.29-.13-.4-.03-.12.1-.13.29-.03.4.65.74,1.52,1.29,2.47,1.57.03,0,.05.01.08.01Z"/><path class="cls-7" d="M126.35,110.23s.08,0,.12-.03c.14-.07.21-.24.14-.38-.65-1.41-1.5-2.71-2.51-3.87-.1-.12-.29-.13-.4-.03-.12.1-.13.29-.03.4.98,1.12,1.8,2.38,2.42,3.74.05.1.15.17.26.17Z"/><path class="cls-7" d="M137.06,154.45c.05,0,.11-.02.16-.05.13-.09.17-.26.08-.4-3.6-5.48-6.43-11.42-8.41-17.66-.05-.15-.21-.24-.36-.19-.15.05-.23.21-.19.36,2,6.29,4.85,12.28,8.48,17.8.05.08.15.13.24.13Z"/><path class="cls-7" d="M106.59,162.68s.08,0,.12-.03c.14-.07.21-.24.14-.38-.56-1.24-.89-2.62-.96-3.98,0-.16-.12-.28-.3-.27-.16,0-.28.14-.27.3.07,1.43.42,2.88,1.01,4.19.05.11.15.17.26.17Z"/><path class="cls-7" d="M71.53,163.62c.12,0,.24-.08.27-.2,2.25-7.4,3.57-15.08,3.92-22.81,0-.16-.11-.29-.27-.3-.17-.02-.29.12-.3.27-.35,7.68-1.66,15.31-3.9,22.66-.05.15.04.31.19.36.03,0,.06.01.08.01Z"/><path class="cls-7" d="M135.87,94.84s.07,0,.11-.02c.15-.06.22-.22.16-.37-.48-1.21-.7-2.54-.65-3.84,0-.16-.12-.29-.27-.3-.16-.02-.29.12-.3.27-.06,1.38.18,2.79.69,4.07.04.11.15.18.27.18Z"/><path class="cls-23" d="M118.66,123.75s4.7,2.05,10.54-1.92c1.02-.69,3.03,5.25,2.08,6.06s-5.25,3.75-9.33,3.75c-4.09,0-3.29-7.89-3.29-7.89Z"/><path class="cls-23" d="M84.05,128.38s-4.63,1.96-9.95,1.63c-3.56-.22-4.1-1.38-4.38-1.41-.99-.1-2.42,5.14-.92,5.96,1.5.82,7.22,2.96,14.48,1.02,2.85-.76.77-7.21.77-7.21Z"/><path class="cls-23" d="M113.21,93.78c.71-.92,3.81-.54,3.68.41-.14.95.14,23.02,3.27,29.43,3.13,6.4,9.95,23.98,9.67,28.34-.27,4.36-5.99,7.22-15.39,6.95-9.4-.27-20.57,4.09-26.57,3.95-5.99-.14-8.58-1.09-8.58-3.41,0-2.32,1.77-19.75,2.72-24.52.95-4.77,2.59-14.17.41-21.93-2.18-7.77-5.18-13.08-4.9-13.76.27-.68,4.77-2.59,5.45-1.91.68.68,5.04,17.98,5.59,19.89,0,0,14.03-4.5,24.39-2.32,0,0-1.63-18.66.27-21.12Z"/><path class="cls-1" d="M93.44,115.93c.09-.02.19-.04.28-.06,2.23,15.06,3.31,30.37,3.23,45.61-.1.02-.19.04-.29.06.09-15.24-.99-30.55-3.22-45.61Z"/><path class="cls-1" d="M96.88,115.23c.09-.02.19-.03.28-.05,3.76,14.68,5.12,30.22,3.97,45.37-.1.02-.19.04-.29.06,1.16-15.15-.2-30.7-3.96-45.38Z"/><path class="cls-1" d="M90.01,116.78c.09-.02.18-.05.28-.08,2.2,15.08,3,30.41,2.38,45.64-.1.02-.19.03-.29.05.63-15.22-.17-30.55-2.37-45.62Z"/><path class="cls-1" d="M100.57,114.68c.1-.01.19-.02.29-.03,3.6,14.74,5.28,29.84,5,44.98-.1.02-.19.03-.29.05.29-15.15-1.39-30.26-5-45Z"/><path class="cls-1" d="M104.61,114.35c3.35,14.65,5.31,29.67,5.85,44.69-.1,0-.19.02-.29.03-.53-15.03-2.5-30.05-5.85-44.7.1,0,.19-.01.29-.02Z"/><path class="cls-1" d="M115.98,158.91c-.09,0-.19,0-.29,0-.76-15.18-3.57-30.16-8.37-44.6.1,0,.2,0,.3,0,4.79,14.44,7.6,29.42,8.36,44.6Z"/><path class="cls-1" d="M110.6,114.52c.1.01.21.02.31.03,4.47,14.34,7.6,29.13,9.3,44.06-.09.01-.19.03-.28.04-1.7-14.95-4.84-29.77-9.32-44.13Z"/><path class="cls-1" d="M82.41,100.17c-.02-.08.02-.16.1-.18.08-.02.16.02.18.1,5.8,20.19,7.79,41.79,5.8,62.74-.1,0-.19,0-.29,0,1.99-20.93,0-42.5-5.78-62.67Z"/><path class="cls-1" d="M120.27,130.78c-3.96-12.14-5.65-24.76-5.03-37.51.1,0,.19.02.29.03-.62,12.71,1.07,25.29,5.02,37.39.79,2.43,1.76,4.88,2.7,7.26,2.25,5.71,4.57,11.6,4.67,17.7-.09.08-.19.16-.29.24-.05-6.14-2.38-12.07-4.65-17.83-.94-2.38-1.91-4.83-2.7-7.27Z"/><path class="cls-1" d="M85.24,133.46c-.19-13.36-2.56-25.07-7.03-34.81.08-.05.16-.09.25-.14,0,0,0,0,0,0,4.49,9.78,6.87,21.54,7.06,34.94.14,9.71-.82,19.49-1.97,29.06-.09-.01-.19-.03-.28-.04,1.14-9.56,2.11-19.32,1.97-29.01Z"/><path class="cls-1" d="M116.04,125.87c-1.72-5.86-2.91-11.84-3.56-17.89-.1-1.9-.17-3.98-.19-5.96.4,8.05,1.75,16.02,4.02,23.77.82,2.8,1.78,5.65,2.71,8.39,2.57,7.6,5.22,15.44,5.28,23.48-.09.03-.19.06-.29.09-.04-8.03-2.69-15.88-5.26-23.49-.93-2.75-1.89-5.6-2.72-8.4Z"/><path class="cls-11" d="M161.4,103.4c-1.13-2.72-3.62-6.97-6.24-10.54-2.48-3.38-6.09-4.38-6.38-5.54-.25-.89.57-2.9.63-3.27l-5.23,1.75c.34.39,1.62.86,1.94,2.17.16.67-2.26,4.68-2.92,7.92-.78,3.88-.89,9.17-.64,12.11.34,5.13,2.45,8.1,4.83,9.72,2.43,1.6,5.12,1.83,7.81,1.18,2.68-.65,4.97-2.1,6.39-4.64,1.37-2.53,1.87-6.14-.19-10.85Z"/><path class="cls-11" d="M149.12,79.78c-.25-.95-.89-1.62-1.52-1.46-.27.07-.35.57-.62.57-.46,0-.94-.76-1.57-.61s-1.11.88-1.45,1.2c-.11.1-.3-.02-.45.02-.75.18-1.14,1.06-.93,1.98.03.15.17.29.15.43-.12.6-.32.85-.22,1.49.09.62.75.45.97,1.02.05.12-.02.27,0,.41.09.79.8,1.28,1.61,1.08.36-.09.56-.55.87-.56.51-.01.99.63,1.6.48s.76-.78,1.15-1.1c.06-.05.16-.01.24-.03.66-.16.95-.87.68-1.6,0,0,0,0,0,0,0-.42.28-.64.15-1.02-.13-.37-.55-.47-.67-.86-.15-.45.18-.89.04-1.42Z"/><path class="cls-17" d="M146.31,85.42c0-.08-1.44-4.96-1.88-6.44-.18.19-.33.38-.47.5,0,0,0,0-.02.01.31.81.74,2,1.01,2.62.43.97,1.35,3.41,1.35,3.32Z"/><path class="cls-17" d="M145.59,85.46s-.85-1.83-1.21-2.39c-.24-.37-1.03-2.01-1.61-3.03-.24.38-.32.9-.2,1.43.03.15.17.29.15.43,0,.02,0,.03-.01.05.87,1.49,2.84,3.52,2.88,3.51Z"/><path class="cls-17" d="M148.15,78.38c-.18-.08-.37-.11-.55-.07-.22.05-.31.4-.49.52.14.45.35,1.29.58,2.22.31,1.28.8,3.66.8,3.66.01,0-.06-1.47-.25-3.95-.07-1.03-.1-1.94-.1-2.35,0-.01,0-.03,0-.04Z"/><path class="cls-8" d="M148,89.12s-.1-.01-.14-.06c-.02.06-.06.1-.11.1-.02,0-.04,0-.05,0-.05,0-.1-.04-.15-.1-.03.05-.07.07-.12.06-.02,0-.04,0-.06-.01-.05-.02-.1-.07-.14-.13-.03.04-.08.05-.13.02-.02,0-.04-.02-.06-.03-.05-.03-.1-.09-.14-.16-.04.03-.09.03-.14,0-.02-.01-.04-.03-.06-.04-.05-.04-.1-.11-.13-.19-.04.02-.09,0-.14-.04-.02-.02-.04-.03-.05-.05-.05-.05-.1-.12-.13-.21-.04,0-.1-.01-.15-.07-.04-.04-.06-.07-.06-.07-.11-.13-.16-.37-.12-.53.04-.16.16-.19.26-.06,0,0,.02.02.04.04.04.05.08.11.1.18.04,0,.08,0,.13.05.02.01.03.03.05.04.04.04.08.1.11.17.04-.02.08-.01.12.02.02.01.03.02.05.03.04.03.09.08.12.15.03-.02.07-.03.12,0,.02,0,.03.02.05.02.04.02.09.07.12.13.03-.03.07-.05.11-.03.02,0,.03,0,.05.01.04.01.09.05.12.1.02-.04.06-.07.1-.07.01,0,.03,0,.04,0,.04,0,.08.02.12.06.02-.05.05-.09.09-.1.01,0,.03,0,.04-.01.04-.02.08,0,.12.03.01-.06.04-.11.08-.13.01,0,.03-.02.04-.03.04-.02.08-.02.12,0,0-.07.03-.12.07-.15.01-.01.03-.02.04-.03.03-.03.08-.03.12-.01,0-.07.03-.13.06-.16.01-.01.02-.03.03-.04.03-.04.07-.05.11-.03,0-.07.02-.13.05-.18.01-.01.02-.03.03-.05.03-.04.07-.06.11-.06,0-.07,0-.14.03-.19,0-.02.02-.04.02-.05.06-.13.19-.11.28.05.1.16.13.4.07.53,0,.02-.02.04-.03.06-.03.06-.07.09-.12.08,0,.08-.01.16-.04.21-.01.02-.02.04-.03.05-.03.05-.08.06-.13.05,0,.08-.02.15-.06.19-.01.01-.03.03-.04.04-.04.04-.08.05-.13.02,0,.08-.03.14-.07.17-.01.01-.03.02-.04.04-.04.03-.09.03-.13,0-.01.07-.04.13-.08.16-.01,0-.03.02-.04.03-.04.03-.09.02-.14-.02-.02.07-.05.12-.09.14-.02,0-.03.01-.05.02h0Z"/><path class="cls-10" d="M149.19,87.37c.04.14.05.29,0,.38,0,.02-.02.04-.03.06-.03.06-.07.08-.12.08,0,.08-.01.16-.04.21-.01.02-.02.04-.03.05-.03.05-.08.06-.13.05,0,.08-.02.15-.06.19-.01.02-.03.03-.04.04-.04.04-.08.05-.13.02,0,.08-.03.14-.07.17-.01.01-.03.02-.04.03-.04.03-.09.03-.13,0-.01.07-.04.13-.08.16-.01,0-.03.02-.04.03-.04.03-.09.02-.14-.02-.02.07-.05.12-.09.14-.02,0-.03.01-.05.02,0,0,0,0,0,0-.05.01-.1-.01-.14-.06-.02.06-.06.1-.11.1-.02,0-.04,0-.05,0-.05,0-.1-.04-.15-.1-.03.05-.07.08-.12.06-.02,0-.04-.01-.06-.02-.05-.02-.1-.07-.14-.13-.03.04-.08.05-.13.02-.02,0-.04-.02-.06-.03-.05-.03-.1-.09-.14-.16-.04.03-.09.03-.14,0-.02-.01-.04-.03-.05-.04-.05-.04-.1-.11-.13-.19-.04.02-.09,0-.14-.04-.02-.02-.04-.03-.05-.05-.05-.05-.1-.12-.13-.21-.04,0-.1-.01-.15-.07-.04-.04-.06-.07-.06-.07-.02-.02-.04-.05-.05-.08.02.08.06.14.1.2,0,0,.02.03.06.07.05.06.1.08.15.07.03.08.07.16.13.21.02.02.04.03.05.05.05.05.1.06.14.04.03.08.08.15.13.19.02.01.04.03.06.04.05.04.1.04.14,0,.04.08.09.13.14.16.02.01.04.02.06.03.05.03.1.01.13-.02.04.07.09.12.14.13.02,0,.04.01.06.01.05.01.1-.01.12-.06.05.06.1.1.15.1.02,0,.04,0,.05,0,.05,0,.09-.04.11-.1.05.05.1.07.14.06h0s.03-.01.05-.02c.05-.02.08-.07.09-.14.05.04.1.05.14.02.01,0,.03-.02.04-.03.04-.03.07-.08.08-.16.05.03.1.03.13,0,.01-.01.03-.02.04-.04.04-.03.06-.1.07-.17.05.02.09.02.13-.02.01-.01.03-.03.04-.04.04-.04.06-.11.06-.19.05.02.09,0,.13-.05.01-.02.02-.04.03-.05.03-.05.05-.13.04-.21.05,0,.09-.02.12-.08.01-.02.02-.04.03-.06.06-.12.03-.34-.05-.5Z"/><path class="cls-6" d="M147.86,90.07s-.01,0-.02,0c-.02,0-.04,0-.06,0-.05,0-.11-.04-.15-.11-.03.05-.08.07-.13.05-.02,0-.04-.01-.06-.02-.05-.02-.11-.08-.15-.15-.04.03-.09.04-.14,0-.02-.01-.04-.02-.06-.04-.05-.04-.1-.1-.14-.18-.04.02-.09.01-.14-.04-.02-.02-.04-.03-.06-.05-.05-.05-.09-.12-.12-.2-.04,0-.1-.01-.15-.07-.02-.02-.04-.04-.05-.06-.05-.06-.09-.13-.12-.22-.05,0-.1-.03-.14-.09-.02-.02-.03-.04-.05-.07-.05-.06-.08-.15-.11-.23-.05,0-.1-.05-.14-.12-.03-.05-.05-.08-.05-.08-.1-.16-.13-.39-.08-.53.06-.14.18-.12.28.04h0s.01.02.04.06c.04.06.07.13.09.21.04,0,.09.04.13.09.01.02.03.04.04.06.04.05.08.13.1.2.04,0,.08.02.13.07.02.02.03.03.05.05.04.05.08.11.11.19.04,0,.08,0,.13.05.02.01.03.03.05.04.04.04.08.1.11.17.03-.02.08-.01.12.02.02.01.03.02.05.03.04.03.08.08.12.14.03-.03.07-.04.11-.02.01,0,.03.01.04.02.04.01.08.05.12.1.02-.04.06-.06.1-.06.01,0,.03,0,.04,0,.04,0,.08.02.12.05.02-.05.04-.09.08-.1,0,0,.02,0,.02-.01h.01s.08-.02.12,0c0-.06.03-.11.07-.14.01-.01.02-.02.04-.03.03-.03.07-.04.11-.02,0-.07.02-.13.05-.17.01-.01.02-.03.03-.04.03-.04.07-.06.11-.05,0-.07,0-.14.03-.19,0-.02.02-.04.02-.05.02-.05.06-.08.09-.08,0-.07,0-.15.02-.2,0-.02.01-.04.02-.06.02-.06.05-.1.08-.11-.01-.07-.01-.15,0-.22,0-.02,0-.05.01-.07.01-.07.04-.11.07-.14-.02-.07-.03-.15-.02-.22h0c0-.13.05-.21.11-.23.1-.02.23.12.28.33.03.11.02.19.02.23,0,.09-.03.16-.07.19.02.09.03.18.01.27,0,.03-.01.06-.02.08-.02.08-.05.13-.09.15.02.09.01.18,0,.25,0,.02-.02.05-.02.07-.02.07-.06.11-.11.11,0,.09,0,.17-.03.23,0,.02-.02.04-.03.06-.03.06-.07.08-.12.08,0,.09-.01.16-.05.21-.01.02-.02.03-.04.05-.03.05-.08.06-.13.04,0,.08-.03.15-.07.19-.01.01-.03.03-.04.04-.04.03-.09.03-.14,0-.01.08-.04.13-.09.16h-.01s-.02.02-.03.02c-.05.02-.1,0-.15-.05-.02.06-.05.1-.1.11Z"/><g class="cls-24"><path class="cls-6" d="M146.92,89.03s.02,0,.03,0c-.02-.03-.04-.06-.07-.08-.01-.01-.03-.03-.04-.04.03.04.05.08.08.13Z"/><path class="cls-6" d="M146.53,88.58s.08.11.11.19c.01,0,.03,0,.05,0-.02-.04-.05-.08-.07-.11-.02-.02-.03-.03-.05-.05-.02-.02-.03-.03-.05-.04,0,0,0,.01.01.02Z"/><path class="cls-6" d="M146.26,88.26c.04.05.08.13.1.2.02,0,.04,0,.06.02-.02-.05-.05-.1-.08-.14-.02-.02-.03-.04-.04-.06-.02-.03-.05-.06-.07-.07.01.02.03.03.04.05Z"/><path class="cls-6" d="M145.96,87.84s.02.02.04.06c.04.06.07.13.09.21.02,0,.04.02.07.03-.02-.06-.04-.12-.08-.16-.02-.03-.04-.06-.04-.06-.03-.05-.07-.09-.1-.11,0,0,.01.02.02.03Z"/><polygon class="cls-6" points="147.48 89.31 147.48 89.3 147.48 89.31 147.48 89.31"/><path class="cls-6" d="M147.21,89.21s.01,0,.02-.01c-.02-.02-.03-.03-.05-.05,0,0,0,0,0,0,.01.02.03.04.04.06Z"/><path class="cls-6" d="M147.22,89.77s-.09.04-.14,0c-.02-.01-.03-.02-.05-.03.02.03.05.06.07.07.02.01.04.03.06.04.05.03.09.03.12,0-.02-.03-.04-.06-.06-.09Z"/><path class="cls-6" d="M146.89,89.55s-.09.01-.14-.04c0,0,0,0,0,0,0,.01.02.02.03.03.02.02.04.03.06.05.04.03.08.05.11.05-.02-.03-.03-.06-.05-.09Z"/><path class="cls-6" d="M147.56,89.89c-.03.05-.08.07-.13.05-.02,0-.04-.01-.06-.02,0,0-.02,0-.03-.02.03.05.07.08.11.09.02,0,.04.01.06.02.05.02.1,0,.13-.05-.03-.02-.05-.05-.08-.08Z"/><path class="cls-6" d="M148.99,87.26c.04.06.08.14.1.23.03.11.02.19.02.23,0,.09-.03.16-.07.19.02.09.03.18.01.27,0,.03-.01.06-.02.08-.02.08-.05.13-.09.15.02.09.01.18,0,.25,0,.02-.02.05-.02.07-.02.07-.06.11-.11.11,0,.09,0,.17-.03.23-.01.02-.02.04-.03.06-.03.06-.07.08-.12.08,0,.09-.01.16-.05.21-.01.02-.02.03-.04.05-.04.05-.08.06-.13.04,0,.08-.03.15-.07.19-.01.01-.03.03-.04.04-.04.03-.09.03-.14,0-.01.08-.04.13-.09.16h-.01s-.02.02-.03.02c-.05.02-.1,0-.15-.05-.02.06-.05.1-.1.11,0,0-.01,0-.02,0-.02,0-.04,0-.06,0-.02,0-.05,0-.07-.02.05.06.1.1.15.1.02,0,.04,0,.06,0,0,0,.01,0,.02,0,.04-.01.08-.05.1-.11.05.05.11.07.15.05.01,0,.02-.01.03-.02h.01s.07-.09.09-.17c.05.03.1.03.14,0,.01-.01.03-.03.04-.04.04-.04.06-.1.07-.19.05.02.1,0,.13-.04.01-.02.02-.03.04-.05.03-.05.05-.13.05-.21.05,0,.09-.02.12-.08.01-.02.02-.04.03-.06.03-.06.04-.14.03-.23.05,0,.08-.04.11-.11,0-.02.02-.05.02-.07.02-.07.02-.16,0-.25.04-.02.08-.07.09-.15,0-.03.01-.06.02-.08.01-.08,0-.18-.01-.27.04-.03.07-.1.07-.19,0-.04,0-.12-.02-.23-.04-.15-.11-.26-.18-.31Z"/><path class="cls-6" d="M146.25,88.92s-.05,0-.07-.02c0,0,0,0,0,.01.03.04.06.06.08.07,0-.02-.02-.04-.02-.06Z"/><path class="cls-6" d="M145.95,88.53s-.03-.01-.05-.02c.02.03.04.05.07.07,0-.02,0-.03-.01-.05Z"/><path class="cls-6" d="M146.56,89.26s-.06,0-.1-.03c.01.01.02.03.04.04.03.04.07.06.1.06-.01-.02-.02-.05-.03-.08Z"/></g><path class="cls-14" d="M150.27,82.11c1.19.07,1.73,1.29,1.93,2.02.2.72,1.34,1.75,1.37,2.81.03,1.05-.19,1.21.25,1.66.54.56.78,1.97.76,2.55-.02.48,1.16,1.56.43,2.67-.73,1.12-5.63,3.02-7.19,2.66-1.56-.35-1.36-2.17-1.18-2.43.19-.26-2.95.24-1.97-3.13,0,0-2.1-.77-.83-3.37,0,0-2.57-1.84-.6-3.15,1.97-1.31,5.55-2.36,7.04-2.27Z"/><path class="cls-12" d="M148.81,93.65c-.6.16-1.24.29-1.99.42-.08.01-.15-.04-.17-.12-.01-.08.04-.15.12-.17,2.07-.36,3.21-.68,4.98-1.74.07-.04.16-.02.2.05.04.07.02.16-.05.2-1.14.68-2.05,1.07-3.09,1.35Z"/><path class="cls-12" d="M146.73,90.56c-.74.2-1.42.36-1.94.47-.08.02-.15-.03-.17-.11-.02-.08.03-.16.11-.17,1.48-.31,4.23-.99,6.06-2.07.07-.04.16-.02.2.05.04.07.02.16-.05.2-1.21.72-2.82,1.26-4.2,1.64Z"/><path class="cls-12" d="M146.35,87.05c-.78.21-1.57.38-2.35.53-.08.02-.15-.04-.17-.11-.02-.08.04-.16.11-.17,2.01-.4,4.12-.88,5.87-2.04.07-.04.16-.03.2.04.04.07.03.15-.04.2-1.11.73-2.36,1.2-3.62,1.55Z"/><path class="cls-1" d="M113.35,92.96s4.63,6.13-2.45,10.08c-7.08,3.95-12.81-2.18-12.81-2.18l15.26-7.9Z"/><path class="cls-1" d="M81.76,96.61s-2.97,7.09,4.87,9.16c7.84,2.07,11.87-5.28,11.87-5.28l-16.74-3.88Z"/><ellipse class="cls-14" cx="96.28" cy="79.44" rx="18.45" ry="22.12" transform="translate(-11.89 17.15) rotate(-9.59)"/><path class="cls-13" d="M92.82,57.5c12.1-2.04,23.52,5.61,25.95,17.19-2.04-.12-14.55-1.39-26.27-14.97,0,0-2.04,13.15-18.68,21.06-.67-11.16,7.42-21.32,19-23.28Z"/><path class="cls-23" d="M118.77,74.69s-13.6-17.15-25.86-14.29c-12.26,2.86-19.09,20.38-19.09,20.38,0,0-1.07,1.01-1.75-.21s-3.41-20.71-.41-31.2c3-10.49,7.22-17.3,5.18-23.16-2.04-5.86-6.81-8.31-9.26-9.4-2.45-1.09-1.23-1.77,1.5-1.63,2.72.14,13.13.23,18.04,5,4.9,4.77,8.72,9.95,10.22,15.39,1.02,3.7,3.54,5.86,8.72,9.4,5.18,3.54,16.7,17.76,13.98,29.06-.41.82-1.25.67-1.25.67Z"/><path class="cls-13" d="M104.31,71.81c4.63.65,8.73,2.18,8.23,2.91-.5.73-6.07-.26-8.87-1.03-2.93-.81-3.69-2.48.64-1.88Z"/><path class="cls-13" d="M86.28,73.85c-4.35,1.7-7.93,4.24-7.23,4.92.69.68,5.87-1.6,8.39-3.03,2.64-1.51,2.91-3.48-1.15-1.89Z"/><path class="cls-20" d="M96.36,77.73c1.43-.22,4.62,8.9,4.2,9.78-.95,1.97-3.89,2.36-5.23.88-.65-.72-.8-10.38,1.03-10.66Z"/><path class="cls-9" d="M106.63,82c-1.9,1.62-2.44,4.12-1.19,5.58,1.24,1.46,3.79,1.33,5.7-.29,1.9-1.62,2.44-4.12,1.19-5.58-1.24-1.46-3.79-1.33-5.7.29Z"/><path class="cls-9" d="M87.46,84.98c2.35.84,3.74,2.98,3.1,4.79s-3.07,2.59-5.43,1.76c-2.35-.84-3.74-2.98-3.1-4.79.64-1.81,3.07-2.59,5.43-1.76Z"/><path class="cls-13" d="M108.19,77.78c.1-.01.19-.08.23-.18.06-.15-.01-.31-.16-.37-1.91-.75-3.99-1.06-6.03-.9-.15.01-.28.15-.26.31.01.16.15.28.31.26,1.95-.15,3.95.15,5.78.86.05.02.1.02.14.02Z"/><path class="cls-13" d="M108.33,77.71s.08-.02.12-.04c.66-.39,1.02-.96,1.11-1.72.02-.16-.09-.3-.25-.32-.16-.02-.3.09-.32.25-.07.58-.34.99-.84,1.29-.14.08-.18.26-.1.39.06.1.17.15.28.14Z"/><path class="cls-13" d="M109.32,77.88c.4-.04.79-.17,1.16-.39.14-.08.18-.26.1-.39-.08-.14-.26-.18-.39-.1-.59.34-1.24.41-1.87.2-.15-.05-.31.03-.36.18-.05.15.03.31.18.36.39.13.79.18,1.17.14Z"/><path class="cls-13" d="M84.91,80.95s.09-.02.13-.06c1.56-1.19,3.4-2.02,5.32-2.41.16-.03.26-.18.22-.34-.03-.16-.18-.26-.34-.22-2.01.41-3.93,1.27-5.55,2.51-.13.1-.15.28-.05.4.07.09.17.12.27.11Z"/><path class="cls-13" d="M83.84,81.27c.36-.04.71-.12,1.04-.25.15-.06.22-.22.16-.37-.06-.15-.22-.22-.37-.16-.71.27-1.5.31-2.22.1-.15-.04-.31.04-.35.2-.04.15.04.31.2.35.5.14,1.03.19,1.54.13Z"/><path class="cls-13" d="M84.77,80.87c.11-.01.21-.09.25-.2.04-.15-.04-.31-.19-.36-.57-.17-1.08-.52-1.44-.99-.1-.13-.28-.15-.4-.05-.13.1-.15.28-.05.4.44.56,1.05.99,1.74,1.19.04.01.07.01.11.01Z"/><path class="cls-13" d="M96.47,95.79c.71,0,1.43-.07,2.13-.2,2.37-.45,4.56-1.64,6.14-3.37.16-.18.14-.45-.05-.61-.19-.16-.48-.14-.64.04-1.45,1.58-3.45,2.68-5.63,3.09-2.18.41-4.47.12-6.46-.81-.22-.11-.5-.02-.61.19-.11.21-.02.47.21.58,1.52.72,3.21,1.08,4.91,1.08Z"/><path class="cls-19" d="M114.69,62.87c.07,0,.14-.02.19-.08.12-.11.12-.29.02-.41-5.63-6.13-14.93-8.96-23.14-7.04-.15.04-.25.19-.21.34.04.15.19.25.34.21,8.01-1.87,17.08.89,22.58,6.87.06.06.13.09.21.09Z"/><path class="cls-19" d="M75.65,68.28c.1,0,.2-.06.26-.16,1.88-3.68,4.92-6.84,8.58-8.88.14-.08.19-.25.11-.39-.08-.14-.25-.19-.39-.11-3.76,2.1-6.89,5.34-8.82,9.12-.07.14-.02.31.13.39.04.02.09.03.13.03Z"/><path class="cls-19" d="M98.12,38.4c.1,0,.2-.05.25-.15.08-.14.03-.31-.11-.39-2.41-1.32-5.34-1.77-8.04-1.22-.16.03-.26.18-.22.34.03.16.18.26.34.22,2.58-.52,5.36-.1,7.66,1.16.04.02.09.04.14.04Z"/><path class="cls-19" d="M85.97,38.08s.05,0,.07,0l1.99-.51c.15-.04.25-.2.21-.35-.04-.15-.2-.25-.35-.21l-1.99.51c-.15.04-.25.2-.21.35.03.13.15.21.28.21Z"/><path class="cls-2" d="M51.87,132.2c-.29,1.05-2.08,2.27-5.47,3.16-3.39.88-7.15.23-7.46-.6-.31-.83.31-1.47,1.68-1.66s2.53-.79,2.07-.89c-.22-.05-1.41-.54-2.77-1.17-1.56-.72-3.16-1.72-3.86-2.32-.36-.31-.74-.67-.87-.99-.25-.64.36-1.61,1.22-1.43,0,0-.55-.77-.07-1.34.31-.38.63-.46,1.32-.3,0,0-.09-.75.52-1.01.57-.25,1.85.14,1.85.14,0,0-.08-.88,1.23-.65,1.31.22,2.93,1.28,4.74,1.16,1.97-.13,3.25-.4,4.02.25,1.5,1.28,2.38,5.76,1.85,7.66Z"/><path class="cls-12" d="M44.16,125.21c-1.35-.29-2.66-.75-3.89-1.39-.07-.04-.1-.12-.06-.19.04-.07.12-.1.19-.06,1.51.78,3.13,1.3,4.81,1.54.08,0,.13.08.12.16-.01.08-.08.13-.16.12-.34-.05-.68-.11-1.01-.18Z"/><path class="cls-12" d="M43.4,126.8c-1.98-.42-3.89-1.1-5.7-2.03-.07-.04-.1-.12-.06-.19.04-.07.12-.1.19-.06,1.97,1.02,4.08,1.74,6.26,2.13.08.02.13.09.12.17-.01.08-.09.13-.17.12-.22-.04-.43-.08-.65-.13Z"/><path class="cls-12" d="M41.38,128.3c-1.75-.37-3.46-1-5.02-1.86-.07-.04-.09-.13-.06-.19.04-.07.12-.09.19-.06,2.13,1.17,4.53,1.91,6.94,2.14.08,0,.14.08.13.16,0,.08-.08.14-.16.13-.68-.06-1.36-.17-2.04-.31Z"/><rect class="cls-5" x="30.94" y="174.39" width="33.21" height="4.63"/><polygon class="cls-5" points="64.15 174.39 30.94 174.39 31.64 173.87 63.45 173.87 64.15 174.39"/><polygon class="cls-15" points="64.15 174.39 30.94 174.39 31.64 173.87 63.45 173.87 64.15 174.39"/><polygon class="cls-5" points="64.15 179.02 63.45 179.53 31.64 179.53 30.94 179.02 64.15 179.02"/><polygon class="cls-22" points="64.15 179.02 63.45 179.53 31.64 179.53 30.94 179.02 64.15 179.02"/><g class="cls-25"><polygon class="cls-21" points="36.29 173.87 35.59 174.39 35.59 179.02 30.94 179.02 30.94 174.39 31.64 173.87 36.29 173.87"/><polygon class="cls-21" points="36.29 179.54 31.64 179.54 30.94 179.02 35.59 179.02 36.29 179.54"/></g><g class="cls-26"><polygon class="cls-13" points="63.45 173.88 58.8 173.88 59.5 174.39 59.51 174.39 59.51 179.02 64.15 179.02 64.15 174.39 63.45 173.88"/><polygon class="cls-13" points="64.14 179.02 63.45 179.53 58.81 179.53 59.5 179.02 64.14 179.02"/></g><rect class="cls-18" x="40.36" y="174.39" width="3.16" height="4.63"/><rect class="cls-5" x="27.86" y="168.73" width="33.21" height="4.63"/><polygon class="cls-5" points="61.07 168.73 27.86 168.73 28.56 168.21 60.37 168.21 61.07 168.73"/><polygon class="cls-15" points="61.07 168.73 27.86 168.73 28.56 168.21 60.37 168.21 61.07 168.73"/><polygon class="cls-5" points="61.07 173.36 60.37 173.87 28.56 173.87 27.86 173.36 61.07 173.36"/><polygon class="cls-22" points="61.07 173.36 60.37 173.87 28.56 173.87 27.86 173.36 61.07 173.36"/><g class="cls-25"><polygon class="cls-21" points="33.21 168.21 32.51 168.73 32.51 173.36 27.86 173.36 27.86 168.73 28.56 168.21 33.21 168.21"/><polygon class="cls-21" points="33.21 173.87 28.56 173.87 27.86 173.36 32.51 173.36 33.21 173.87"/></g><g class="cls-26"><polygon class="cls-13" points="60.37 168.22 55.72 168.22 56.42 168.73 56.43 168.73 56.43 173.36 61.07 173.36 61.07 168.73 60.37 168.22"/><polygon class="cls-13" points="61.06 173.36 60.37 173.87 55.73 173.87 56.42 173.36 61.06 173.36"/></g><rect class="cls-18" x="37.28" y="168.73" width="3.16" height="4.63"/><rect class="cls-5" x="28.74" y="163.07" width="33.21" height="4.63"/><polygon class="cls-5" points="61.95 163.07 28.74 163.07 29.44 162.55 61.25 162.55 61.95 163.07"/><polygon class="cls-15" points="61.95 163.07 28.74 163.07 29.44 162.55 61.25 162.55 61.95 163.07"/><polygon class="cls-5" points="61.95 167.7 61.25 168.21 29.44 168.21 28.74 167.7 61.95 167.7"/><polygon class="cls-22" points="61.95 167.7 61.25 168.21 29.44 168.21 28.74 167.7 61.95 167.7"/><g class="cls-25"><polygon class="cls-21" points="34.09 162.55 33.39 163.07 33.39 167.69 28.74 167.69 28.74 163.07 29.44 162.55 34.09 162.55"/><polygon class="cls-21" points="34.09 168.21 29.44 168.21 28.74 167.7 33.39 167.7 34.09 168.21"/></g><g class="cls-26"><polygon class="cls-13" points="61.25 162.55 56.6 162.55 57.3 163.07 57.31 163.07 57.31 167.7 61.95 167.7 61.95 163.07 61.25 162.55"/><polygon class="cls-13" points="61.94 167.7 61.25 168.21 56.61 168.21 57.3 167.7 61.94 167.7"/></g><rect class="cls-18" x="38.16" y="163.07" width="3.16" height="4.63"/><rect class="cls-5" x="28.77" y="158.28" width="33.21" height="4.63"/><polygon class="cls-5" points="61.98 158.28 28.77 158.28 29.47 157.77 61.28 157.77 61.98 158.28"/><polygon class="cls-15" points="61.98 158.28 28.77 158.28 29.47 157.77 61.28 157.77 61.98 158.28"/><polygon class="cls-5" points="61.98 162.91 61.28 163.43 29.47 163.43 28.77 162.91 61.98 162.91"/><polygon class="cls-22" points="61.98 162.91 61.28 163.43 29.47 163.43 28.77 162.91 61.98 162.91"/><g class="cls-25"><polygon class="cls-21" points="34.12 157.77 33.42 158.28 33.42 162.91 28.77 162.91 28.77 158.28 29.47 157.77 34.12 157.77"/><polygon class="cls-21" points="34.12 163.43 29.47 163.43 28.77 162.92 33.42 162.92 34.12 163.43"/></g><g class="cls-26"><polygon class="cls-13" points="61.28 157.77 56.63 157.77 57.33 158.29 57.34 158.29 57.34 162.91 61.98 162.91 61.98 158.29 61.28 157.77"/><polygon class="cls-13" points="61.97 162.92 61.28 163.43 56.64 163.43 57.33 162.92 61.97 162.92"/></g><rect class="cls-18" x="38.19" y="158.28" width="3.16" height="4.63"/><rect class="cls-5" x="25.69" y="152.62" width="33.21" height="4.63"/><polygon class="cls-5" points="58.9 152.62 25.69 152.62 26.39 152.11 58.2 152.11 58.9 152.62"/><polygon class="cls-15" points="58.9 152.62 25.69 152.62 26.39 152.11 58.2 152.11 58.9 152.62"/><polygon class="cls-5" points="58.9 157.25 58.2 157.77 26.39 157.77 25.69 157.25 58.9 157.25"/><polygon class="cls-22" points="58.9 157.25 58.2 157.77 26.39 157.77 25.69 157.25 58.9 157.25"/><g class="cls-25"><polygon class="cls-21" points="31.04 152.11 30.34 152.62 30.34 157.25 25.69 157.25 25.69 152.62 26.39 152.11 31.04 152.11"/><polygon class="cls-21" points="31.04 157.77 26.39 157.77 25.69 157.25 30.34 157.25 31.04 157.77"/></g><g class="cls-26"><polygon class="cls-13" points="58.2 152.11 53.55 152.11 54.25 152.62 54.26 152.62 54.26 157.25 58.9 157.25 58.9 152.62 58.2 152.11"/><polygon class="cls-13" points="58.89 157.26 58.2 157.77 53.56 157.77 54.25 157.26 58.89 157.26"/></g><rect class="cls-18" x="35.11" y="152.62" width="3.16" height="4.63"/><rect class="cls-5" x="26.57" y="146.96" width="33.21" height="4.63"/><polygon class="cls-5" points="59.78 146.96 26.57 146.96 27.27 146.45 59.08 146.45 59.78 146.96"/><polygon class="cls-15" points="59.78 146.96 26.57 146.96 27.27 146.45 59.08 146.45 59.78 146.96"/><polygon class="cls-5" points="59.78 151.59 59.08 152.11 27.27 152.11 26.57 151.59 59.78 151.59"/><polygon class="cls-22" points="59.78 151.59 59.08 152.11 27.27 152.11 26.57 151.59 59.78 151.59"/><g class="cls-25"><polygon class="cls-21" points="31.92 146.45 31.22 146.96 31.22 151.59 26.57 151.59 26.57 146.96 27.27 146.45 31.92 146.45"/><polygon class="cls-21" points="31.92 152.11 27.27 152.11 26.57 151.59 31.22 151.59 31.92 152.11"/></g><g class="cls-26"><polygon class="cls-13" points="59.08 146.45 54.43 146.45 55.13 146.96 55.14 146.96 55.14 151.59 59.78 151.59 59.78 146.96 59.08 146.45"/><polygon class="cls-13" points="59.77 151.6 59.08 152.11 54.44 152.11 55.13 151.6 59.77 151.6"/></g><rect class="cls-18" x="35.99" y="146.96" width="3.16" height="4.63"/><rect class="cls-5" x="21.23" y="186.31" width="33.21" height="4.63"/><polygon class="cls-5" points="54.43 186.31 21.23 186.31 21.93 185.79 53.73 185.79 54.43 186.31"/><polygon class="cls-15" points="54.43 186.31 21.23 186.31 21.93 185.79 53.73 185.79 54.43 186.31"/><polygon class="cls-5" points="54.44 190.94 53.73 191.45 21.93 191.45 21.23 190.94 54.44 190.94"/><polygon class="cls-22" points="54.44 190.94 53.73 191.45 21.93 191.45 21.23 190.94 54.44 190.94"/><g class="cls-25"><polygon class="cls-21" points="26.58 185.79 25.88 186.31 25.88 190.94 21.23 190.94 21.23 186.31 21.93 185.79 26.58 185.79"/><polygon class="cls-21" points="26.58 191.46 21.93 191.46 21.23 190.94 25.88 190.94 26.58 191.46"/></g><g class="cls-26"><polygon class="cls-13" points="53.74 185.8 49.09 185.8 49.79 186.31 49.8 186.31 49.8 190.94 54.44 190.94 54.44 186.31 53.74 185.8"/><polygon class="cls-13" points="54.43 190.94 53.73 191.45 49.09 191.45 49.79 190.94 54.43 190.94"/></g><rect class="cls-18" x="30.65" y="186.31" width="3.16" height="4.63"/><rect class="cls-5" x="18.15" y="180.65" width="33.21" height="4.63"/><polygon class="cls-5" points="51.35 180.65 18.15 180.65 18.85 180.13 50.65 180.13 51.35 180.65"/><polygon class="cls-15" points="51.35 180.65 18.15 180.65 18.85 180.13 50.65 180.13 51.35 180.65"/><polygon class="cls-5" points="51.36 185.28 50.65 185.79 18.85 185.79 18.15 185.28 51.36 185.28"/><polygon class="cls-22" points="51.36 185.28 50.65 185.79 18.85 185.79 18.15 185.28 51.36 185.28"/><g class="cls-25"><polygon class="cls-21" points="23.5 180.13 22.8 180.65 22.8 185.28 18.15 185.28 18.15 180.65 18.85 180.13 23.5 180.13"/><polygon class="cls-21" points="23.5 185.79 18.85 185.79 18.15 185.28 22.8 185.28 23.5 185.79"/></g><g class="cls-26"><polygon class="cls-13" points="50.65 180.14 46.01 180.14 46.71 180.65 46.71 180.65 46.71 185.28 51.36 185.28 51.36 180.65 50.65 180.14"/><polygon class="cls-13" points="51.35 185.28 50.65 185.79 46.01 185.79 46.71 185.28 51.35 185.28"/></g><rect class="cls-18" x="27.56" y="180.65" width="3.16" height="4.63"/><rect class="cls-5" x="19.03" y="174.99" width="33.21" height="4.63"/><polygon class="cls-5" points="52.23 174.99 19.03 174.99 19.73 174.47 51.53 174.47 52.23 174.99"/><polygon class="cls-15" points="52.23 174.99 19.03 174.99 19.73 174.47 51.53 174.47 52.23 174.99"/><polygon class="cls-5" points="52.24 179.62 51.53 180.13 19.73 180.13 19.03 179.62 52.24 179.62"/><polygon class="cls-22" points="52.24 179.62 51.53 180.13 19.73 180.13 19.03 179.62 52.24 179.62"/><g class="cls-25"><polygon class="cls-21" points="24.38 174.47 23.68 174.99 23.68 179.61 19.03 179.61 19.03 174.99 19.73 174.47 24.38 174.47"/><polygon class="cls-21" points="24.38 180.13 19.73 180.13 19.03 179.62 23.68 179.62 24.38 180.13"/></g><g class="cls-26"><polygon class="cls-13" points="51.54 174.47 46.89 174.47 47.59 174.99 47.59 174.99 47.59 179.62 52.24 179.62 52.24 174.99 51.54 174.47"/><polygon class="cls-13" points="52.23 179.62 51.53 180.13 46.89 180.13 47.59 179.62 52.23 179.62"/></g><rect class="cls-18" x="28.44" y="174.99" width="3.16" height="4.63"/><rect class="cls-5" x="24.87" y="169.32" width="33.21" height="4.63"/><polygon class="cls-5" points="58.08 169.32 24.87 169.32 25.57 168.81 57.38 168.81 58.08 169.32"/><polygon class="cls-15" points="58.08 169.32 24.87 169.32 25.57 168.81 57.38 168.81 58.08 169.32"/><polygon class="cls-5" points="58.08 173.95 57.38 174.47 25.57 174.47 24.87 173.95 58.08 173.95"/><polygon class="cls-22" points="58.08 173.95 57.38 174.47 25.57 174.47 24.87 173.95 58.08 173.95"/><g class="cls-25"><polygon class="cls-21" points="30.22 168.81 29.52 169.32 29.52 173.95 24.87 173.95 24.87 169.32 25.57 168.81 30.22 168.81"/><polygon class="cls-21" points="30.22 174.47 25.57 174.47 24.87 173.96 29.52 173.96 30.22 174.47"/></g><g class="cls-26"><polygon class="cls-13" points="57.38 168.81 52.73 168.81 53.43 169.32 53.44 169.32 53.44 173.95 58.08 173.95 58.08 169.32 57.38 168.81"/><polygon class="cls-13" points="58.07 173.96 57.38 174.47 52.74 174.47 53.43 173.96 58.07 173.96"/></g><rect class="cls-18" x="34.29" y="169.32" width="3.16" height="4.63"/><rect class="cls-5" x="21.79" y="163.66" width="33.21" height="4.63"/><polygon class="cls-5" points="55 163.66 21.79 163.66 22.49 163.15 54.3 163.15 55 163.66"/><polygon class="cls-15" points="55 163.66 21.79 163.66 22.49 163.15 54.3 163.15 55 163.66"/><polygon class="cls-5" points="55 168.29 54.3 168.81 22.49 168.81 21.79 168.29 55 168.29"/><polygon class="cls-22" points="55 168.29 54.3 168.81 22.49 168.81 21.79 168.29 55 168.29"/><g class="cls-25"><polygon class="cls-21" points="27.14 163.15 26.44 163.66 26.44 168.29 21.79 168.29 21.79 163.66 22.49 163.15 27.14 163.15"/><polygon class="cls-21" points="27.14 168.81 22.49 168.81 21.79 168.29 26.44 168.29 27.14 168.81"/></g><g class="cls-26"><polygon class="cls-13" points="54.3 163.15 49.65 163.15 50.35 163.66 50.36 163.66 50.36 168.29 55 168.29 55 163.66 54.3 163.15"/><polygon class="cls-13" points="54.99 168.3 54.3 168.81 49.66 168.81 50.35 168.3 54.99 168.3"/></g><rect class="cls-18" x="31.21" y="163.66" width="3.16" height="4.63"/><rect class="cls-5" x="22.67" y="158" width="33.21" height="4.63"/><polygon class="cls-5" points="55.88 158 22.67 158 23.37 157.49 55.18 157.49 55.88 158"/><polygon class="cls-15" points="55.88 158 22.67 158 23.37 157.49 55.18 157.49 55.88 158"/><polygon class="cls-5" points="55.88 162.63 55.18 163.14 23.37 163.14 22.67 162.63 55.88 162.63"/><polygon class="cls-22" points="55.88 162.63 55.18 163.14 23.37 163.14 22.67 162.63 55.88 162.63"/><g class="cls-25"><polygon class="cls-21" points="28.02 157.49 27.32 158 27.32 162.63 22.67 162.63 22.67 158 23.37 157.49 28.02 157.49"/><polygon class="cls-21" points="28.02 163.15 23.37 163.15 22.67 162.63 27.32 162.63 28.02 163.15"/></g><g class="cls-26"><polygon class="cls-13" points="55.18 157.49 50.53 157.49 51.23 158 51.24 158 51.24 162.63 55.88 162.63 55.88 158 55.18 157.49"/><polygon class="cls-13" points="55.87 162.63 55.18 163.14 50.54 163.14 51.23 162.63 55.87 162.63"/></g><rect class="cls-18" x="32.09" y="158" width="3.16" height="4.63"/><rect class="cls-5" x="21.23" y="152.1" width="33.21" height="4.63"/><polygon class="cls-5" points="54.43 152.1 21.23 152.1 21.93 151.59 53.73 151.59 54.43 152.1"/><polygon class="cls-15" points="54.43 152.1 21.23 152.1 21.93 151.59 53.73 151.59 54.43 152.1"/><polygon class="cls-5" points="54.44 156.73 53.73 157.25 21.93 157.25 21.23 156.73 54.44 156.73"/><polygon class="cls-22" points="54.44 156.73 53.73 157.25 21.93 157.25 21.23 156.73 54.44 156.73"/><g class="cls-25"><polygon class="cls-21" points="26.58 151.59 25.88 152.1 25.88 156.73 21.23 156.73 21.23 152.1 21.93 151.59 26.58 151.59"/><polygon class="cls-21" points="26.58 157.25 21.93 157.25 21.23 156.74 25.88 156.74 26.58 157.25"/></g><g class="cls-26"><polygon class="cls-13" points="53.74 151.59 49.09 151.59 49.79 152.11 49.8 152.11 49.8 156.73 54.44 156.73 54.44 152.11 53.74 151.59"/><polygon class="cls-13" points="54.43 156.74 53.73 157.25 49.09 157.25 49.79 156.74 54.43 156.74"/></g><rect class="cls-18" x="30.65" y="152.1" width="3.16" height="4.63"/><rect class="cls-5" x="18.15" y="146.44" width="33.21" height="4.63"/><polygon class="cls-5" points="51.35 146.44 18.15 146.44 18.85 145.93 50.65 145.93 51.35 146.44"/><polygon class="cls-15" points="51.35 146.44 18.15 146.44 18.85 145.93 50.65 145.93 51.35 146.44"/><polygon class="cls-5" points="51.36 151.07 50.65 151.59 18.85 151.59 18.15 151.07 51.36 151.07"/><polygon class="cls-22" points="51.36 151.07 50.65 151.59 18.85 151.59 18.15 151.07 51.36 151.07"/><g class="cls-25"><polygon class="cls-21" points="23.5 145.93 22.8 146.44 22.8 151.07 18.15 151.07 18.15 146.44 18.85 145.93 23.5 145.93"/><polygon class="cls-21" points="23.5 151.59 18.85 151.59 18.15 151.08 22.8 151.08 23.5 151.59"/></g><g class="cls-26"><polygon class="cls-13" points="50.65 145.93 46.01 145.93 46.71 146.44 46.71 146.44 46.71 151.07 51.36 151.07 51.36 146.44 50.65 145.93"/><polygon class="cls-13" points="51.35 151.08 50.65 151.59 46.01 151.59 46.71 151.08 51.35 151.08"/></g><rect class="cls-18" x="27.56" y="146.44" width="3.16" height="4.63"/><rect class="cls-5" x="19.03" y="140.78" width="33.21" height="4.63"/><polygon class="cls-5" points="52.23 140.78 19.03 140.78 19.73 140.27 51.53 140.27 52.23 140.78"/><polygon class="cls-15" points="52.23 140.78 19.03 140.78 19.73 140.27 51.53 140.27 52.23 140.78"/><polygon class="cls-5" points="52.24 145.41 51.53 145.93 19.73 145.93 19.03 145.41 52.24 145.41"/><polygon class="cls-22" points="52.24 145.41 51.53 145.93 19.73 145.93 19.03 145.41 52.24 145.41"/><g class="cls-25"><polygon class="cls-21" points="24.38 140.27 23.68 140.78 23.68 145.41 19.03 145.41 19.03 140.78 19.73 140.27 24.38 140.27"/><polygon class="cls-21" points="24.38 145.93 19.73 145.93 19.03 145.41 23.68 145.41 24.38 145.93"/></g><g class="cls-26"><polygon class="cls-13" points="51.54 140.27 46.89 140.27 47.59 140.78 47.59 140.78 47.59 145.41 52.24 145.41 52.24 140.78 51.54 140.27"/><polygon class="cls-13" points="52.23 145.42 51.53 145.93 46.89 145.93 47.59 145.42 52.23 145.42"/></g><rect class="cls-18" x="28.44" y="140.78" width="3.16" height="4.63"/><rect class="cls-5" x="23.57" y="135.67" width="33.21" height="4.63"/><polygon class="cls-5" points="56.78 135.67 23.57 135.67 24.27 135.16 56.08 135.16 56.78 135.67"/><polygon class="cls-15" points="56.78 135.67 23.57 135.67 24.27 135.16 56.08 135.16 56.78 135.67"/><polygon class="cls-5" points="56.78 140.3 56.08 140.81 24.27 140.81 23.57 140.3 56.78 140.3"/><polygon class="cls-22" points="56.78 140.3 56.08 140.81 24.27 140.81 23.57 140.3 56.78 140.3"/><g class="cls-25"><polygon class="cls-21" points="28.92 135.16 28.22 135.67 28.22 140.3 23.57 140.3 23.57 135.67 24.27 135.16 28.92 135.16"/><polygon class="cls-21" points="28.92 140.82 24.27 140.82 23.57 140.3 28.22 140.3 28.92 140.82"/></g><g class="cls-26"><polygon class="cls-13" points="56.08 135.16 51.43 135.16 52.13 135.67 52.14 135.67 52.14 140.3 56.78 140.3 56.78 135.67 56.08 135.16"/><polygon class="cls-13" points="56.77 140.3 56.08 140.81 51.44 140.81 52.13 140.3 56.77 140.3"/></g><rect class="cls-18" x="32.99" y="135.67" width="3.16" height="4.63"/><rect class="cls-5" x="20.49" y="130.01" width="33.21" height="4.63"/><polygon class="cls-5" points="53.7 130.01 20.49 130.01 21.19 129.49 53 129.49 53.7 130.01"/><polygon class="cls-15" points="53.7 130.01 20.49 130.01 21.19 129.49 53 129.49 53.7 130.01"/><polygon class="cls-5" points="53.7 134.64 53 135.15 21.19 135.15 20.49 134.64 53.7 134.64"/><polygon class="cls-22" points="53.7 134.64 53 135.15 21.19 135.15 20.49 134.64 53.7 134.64"/><g class="cls-25"><polygon class="cls-21" points="25.84 129.49 25.14 130.01 25.14 134.64 20.49 134.64 20.49 130.01 21.19 129.49 25.84 129.49"/><polygon class="cls-21" points="25.84 135.16 21.19 135.16 20.49 134.64 25.14 134.64 25.84 135.16"/></g><g class="cls-26"><polygon class="cls-13" points="53 129.5 48.35 129.5 49.05 130.01 49.06 130.01 49.06 134.64 53.7 134.64 53.7 130.01 53 129.5"/><polygon class="cls-13" points="53.69 134.64 53 135.15 48.36 135.15 49.05 134.64 53.69 134.64"/></g><rect class="cls-18" x="29.91" y="130.01" width="3.16" height="4.63"/><rect class="cls-5" x="21.37" y="124.35" width="33.21" height="4.63"/><polygon class="cls-5" points="54.58 124.35 21.37 124.35 22.07 123.83 53.88 123.83 54.58 124.35"/><polygon class="cls-15" points="54.58 124.35 21.37 124.35 22.07 123.83 53.88 123.83 54.58 124.35"/><polygon class="cls-5" points="54.58 128.98 53.88 129.49 22.07 129.49 21.37 128.98 54.58 128.98"/><polygon class="cls-22" points="54.58 128.98 53.88 129.49 22.07 129.49 21.37 128.98 54.58 128.98"/><g class="cls-25"><polygon class="cls-21" points="26.72 123.83 26.02 124.35 26.02 128.98 21.37 128.98 21.37 124.35 22.07 123.83 26.72 123.83"/><polygon class="cls-21" points="26.72 129.49 22.07 129.49 21.37 128.98 26.02 128.98 26.72 129.49"/></g><g class="cls-26"><polygon class="cls-13" points="53.88 123.84 49.23 123.84 49.93 124.35 49.94 124.35 49.94 128.98 54.58 128.98 54.58 124.35 53.88 123.84"/><polygon class="cls-13" points="54.57 128.98 53.88 129.49 49.24 129.49 49.93 128.98 54.57 128.98"/></g><rect class="cls-18" x="30.79" y="124.35" width="3.16" height="4.63"/><rect class="cls-5" x="147.72" y="186.31" width="33.21" height="4.63"/><polygon class="cls-5" points="180.93 186.31 147.72 186.31 148.42 185.79 180.22 185.79 180.93 186.31"/><polygon class="cls-15" points="180.93 186.31 147.72 186.31 148.42 185.79 180.22 185.79 180.93 186.31"/><polygon class="cls-5" points="180.93 190.94 180.22 191.45 148.42 191.45 147.72 190.94 180.93 190.94"/><polygon class="cls-22" points="180.93 190.94 180.22 191.45 148.42 191.45 147.72 190.94 180.93 190.94"/><g class="cls-25"><polygon class="cls-21" points="153.07 185.79 152.37 186.31 152.37 190.94 147.72 190.94 147.72 186.31 148.42 185.79 153.07 185.79"/><polygon class="cls-21" points="153.07 191.46 148.42 191.46 147.72 190.94 152.37 190.94 153.07 191.46"/></g><g class="cls-26"><polygon class="cls-13" points="180.23 185.8 175.58 185.8 176.28 186.31 176.29 186.31 176.29 190.94 180.93 190.94 180.93 186.31 180.23 185.8"/><polygon class="cls-13" points="180.92 190.94 180.22 191.45 175.58 191.45 176.28 190.94 180.92 190.94"/></g><rect class="cls-18" x="157.14" y="186.31" width="3.16" height="4.63"/><rect class="cls-5" x="144.64" y="180.65" width="33.21" height="4.63"/><polygon class="cls-5" points="177.84 180.65 144.64 180.65 145.34 180.13 177.14 180.13 177.84 180.65"/><polygon class="cls-15" points="177.84 180.65 144.64 180.65 145.34 180.13 177.14 180.13 177.84 180.65"/><polygon class="cls-5" points="177.85 185.28 177.14 185.79 145.34 185.79 144.64 185.28 177.85 185.28"/><polygon class="cls-22" points="177.85 185.28 177.14 185.79 145.34 185.79 144.64 185.28 177.85 185.28"/><g class="cls-25"><polygon class="cls-21" points="149.99 180.13 149.29 180.65 149.29 185.28 144.64 185.28 144.64 180.65 145.34 180.13 149.99 180.13"/><polygon class="cls-21" points="149.99 185.79 145.34 185.79 144.64 185.28 149.29 185.28 149.99 185.79"/></g><g class="cls-26"><polygon class="cls-13" points="177.15 180.14 172.5 180.14 173.2 180.65 173.21 180.65 173.21 185.28 177.85 185.28 177.85 180.65 177.15 180.14"/><polygon class="cls-13" points="177.84 185.28 177.14 185.79 172.5 185.79 173.2 185.28 177.84 185.28"/></g><rect class="cls-18" x="154.06" y="180.65" width="3.16" height="4.63"/><rect class="cls-5" x="145.52" y="174.99" width="33.21" height="4.63"/><polygon class="cls-5" points="178.73 174.99 145.52 174.99 146.22 174.47 178.02 174.47 178.73 174.99"/><polygon class="cls-15" points="178.73 174.99 145.52 174.99 146.22 174.47 178.02 174.47 178.73 174.99"/><polygon class="cls-5" points="178.73 179.62 178.02 180.13 146.22 180.13 145.52 179.62 178.73 179.62"/><polygon class="cls-22" points="178.73 179.62 178.02 180.13 146.22 180.13 145.52 179.62 178.73 179.62"/><g class="cls-25"><polygon class="cls-21" points="150.87 174.47 150.17 174.99 150.17 179.61 145.52 179.61 145.52 174.99 146.22 174.47 150.87 174.47"/><polygon class="cls-21" points="150.87 180.13 146.22 180.13 145.52 179.62 150.17 179.62 150.87 180.13"/></g><g class="cls-26"><polygon class="cls-13" points="178.03 174.47 173.38 174.47 174.08 174.99 174.09 174.99 174.09 179.62 178.73 179.62 178.73 174.99 178.03 174.47"/><polygon class="cls-13" points="178.72 179.62 178.02 180.13 173.38 180.13 174.08 179.62 178.72 179.62"/></g><rect class="cls-18" x="154.94" y="174.99" width="3.16" height="4.63"/><path class="cls-17" d="M154.83,103.79l-2.83.48-.08-.47c-.08-.5-.17-.82-.26-.97s-.24-.2-.46-.16c-.17.03-.29.12-.36.27s-.07.35-.03.62c.08.44.22.74.42.89.2.15.77.41,1.7.78.79.31,1.34.56,1.64.75s.58.48.83.87.43.9.54,1.54c.17,1.01.06,1.84-.33,2.5s-1.06,1.14-2.01,1.44l.18,1.07-1.3.22-.19-1.1c-.77.05-1.48-.13-2.13-.54s-1.08-1.25-1.3-2.51l-.09-.55,2.83-.48.12.69c.13.76.24,1.23.33,1.41s.25.24.47.21c.19-.03.32-.12.4-.27s.09-.34.04-.6c-.11-.64-.23-1.08-.36-1.34s-.49-.51-1.06-.74c-.96-.4-1.61-.7-1.97-.9s-.68-.52-.99-.94-.51-.93-.61-1.51c-.14-.85-.02-1.55.38-2.11s1.07-.98,2.01-1.25l-.15-.9,1.3-.22.15.9c.89-.04,1.6.15,2.11.55s.84,1.02.98,1.86c.02.12.04.3.06.54Z"/></g></g></g></svg>