<?xml version="1.0" encoding="UTF-8"?><svg id="Layer_2" xmlns="http://www.w3.org/2000/svg" viewBox="0 0 190 210"><defs><style>.cls-1{fill:#556b5a;}.cls-1,.cls-2,.cls-3,.cls-4,.cls-5,.cls-6,.cls-7,.cls-8,.cls-9,.cls-10,.cls-11,.cls-12,.cls-13,.cls-14,.cls-15,.cls-16,.cls-17,.cls-18,.cls-19,.cls-20,.cls-21{stroke-width:0px;}.cls-2{fill:#f6f2f3;}.cls-3{fill:#99aa63;}.cls-4{fill:#544845;}.cls-5{fill:#ffc000;}.cls-6{fill:#ff6b4f;}.cls-7{fill:#ffd37b;}.cls-8{fill:#ed966f;}.cls-9,.cls-20{fill:#000;}.cls-10,.cls-22,.cls-20{opacity:.3;}.cls-10,.cls-14,.cls-19{fill:#fff;}.cls-11{fill:#e0a22b;}.cls-12{fill:#c9c6c7;}.cls-13{fill:#feab86;}.cls-23{opacity:.2;}.cls-14{opacity:.5;}.cls-15{fill:#821b19;}.cls-16{fill:#f9956e;}.cls-24{fill:none;stroke:#821b19;stroke-linecap:round;stroke-miterlimit:10;stroke-width:.45px;}.cls-17{fill:#ffcbb6;}.cls-18{fill:#332c2a;}.cls-21{fill:#6f8c76;}</style></defs><g id="Image_4"><rect class="cls-19" width="190" height="210"/><ellipse class="cls-13" cx="93.88" cy="80.23" rx="24.19" ry="23.53"/><path class="cls-1" d="M68.83,147.64c0,.32,4.52,17.12,4.52,17.12l19.01.21s.32-12.71.11-14.5l-23.64-2.84Z"/><path class="cls-4" d="M72.65,162.24s11.42,2.94,19.82.95c0,0,.11,23.01-.63,24.06-.74,1.05-29.34,3.47-31.87.56-1.61-1.86,1.12-8.89,7.42-10.37,6.3-1.47,8.68-.42,8.68-.42,0,0-2.52-9.03-3.43-14.78Z"/><path class="cls-1" d="M122.03,147.64c0,.32-4.52,17.12-4.52,17.12l-19.01.21s-.32-12.71-.11-14.5l23.64-2.84Z"/><path class="cls-4" d="M118.21,162.24s-11.42,2.94-19.82.95c0,0-.11,23.01.63,24.06.74,1.05,29.34,3.47,31.87.56,1.61-1.86-1.12-8.89-7.42-10.37-6.3-1.47-8.68-.42-8.68-.42,0,0,2.52-9.03,3.43-14.78Z"/><path class="cls-3" d="M75.33,93.19s-17.44,53.51-13.94,58.83c2.18,3.31,17.44,3.78,23.04,3.92,5.6.14,21.84,1.21,29.48.56,8.65-.74,14.22-2.94,14.5-4.06.28-1.12-7-48.18-14.71-60.23l-38.38.98Z"/><path class="cls-21" d="M82.58,153.87c-6.61,0-13.23-1.25-19.38-3.69-.15-.06-.23-.23-.17-.38.06-.15.23-.23.38-.17,7.63,3.02,15.98,4.2,24.15,3.4.17-.01.31.1.32.26.02.16-.1.31-.26.32-1.68.16-3.36.24-5.05.24Z"/><path class="cls-21" d="M100.38,154.02c-1.25,0-2.49-.08-3.73-.23-.16-.02-.28-.17-.26-.33.02-.16.17-.28.33-.26,2.49.3,5,.3,7.49-.02.16-.02.31.09.33.26.02.16-.09.31-.25.33-1.3.17-2.6.25-3.91.25Z"/><path class="cls-1" d="M62.65,132.41c2.45,3.53,7.77,4.9,16.32,2.38,8.54-2.52,10.51-22.97,11.35-43.28l-15.69.42s-13.93,37.66-11.98,40.48Z"/><path class="cls-1" d="M127.15,131.85c-2.45,3.53-8.44,5.46-16.99,2.94-8.54-2.52-10.51-22.97-11.35-43.28l15.69.42s14.6,37.1,12.65,39.92Z"/><path class="cls-7" d="M72.95,92.91c-.42,0-12.91,5.08-15.13,18.07-1.96,11.49,4.62,18.21,10.93,19.33,5.19.92,15.83.42,16.53-.28.7-.7,1.54-6.43.7-7.13-.84-.7-11.35-1.13-14.99-6.17-2.05-2.84,0-12.89,2.94-16.39,2.94-3.5-.98-7.42-.98-7.42Z"/><path class="cls-7" d="M114.86,92.91c.42,0,12.91,5.08,15.13,18.07,1.96,11.49-4.62,18.21-10.93,19.33-5.19.92-15.83.42-16.53-.28-.7-.7-1.57-6.29-.73-6.99.84-.7,11.37-1.27,15.02-6.31,2.05-2.84,0-12.89-2.94-16.39-2.94-3.5.98-7.42.98-7.42Z"/><path class="cls-2" d="M75.19,64.75s-7.7,28.01,18.35,19.61c0,0,23.53,11.91,19.33-19.05,0,0,5.32,5.18,5.18,12.33-.14,7.14.2,8.68-3.19,15.27-3.39,6.58,2.63,20.25-19.78,35.1,0,0-18.07-6.94-22.97-25.57-4.9-18.63-3.08-26.19-2.8-27.45.28-1.26,4.2-9.1,5.88-10.23Z"/><path class="cls-12" d="M92.91,127.86s-.07-.01-.1-.04c-8.24-7.46-15.04-19.18-17.75-30.58-1.43-6.04-1.87-12.33-2.29-18.42-.25-3.56-.5-7.25-.95-10.84-.01-.08.05-.15.13-.16.08-.01.15.05.16.13.45,3.6.71,7.29.96,10.85.42,6.08.86,12.36,2.29,18.37,2.69,11.35,9.46,23.01,17.66,30.43.06.05.07.15.01.21-.03.03-.07.05-.11.05Z"/><path class="cls-12" d="M93.68,128s-.09-.02-.12-.07c-3.82-5.79-9.09-16.11-11.99-22.73-3.21-7.35-4.52-14.32-3.88-20.73,0-.08.08-.14.16-.13.08,0,.14.08.13.16-.63,6.36.66,13.29,3.85,20.59,2.89,6.61,8.16,16.91,11.97,22.69.04.07.03.16-.04.2-.03.02-.05.02-.08.02Z"/><path class="cls-12" d="M93.82,127.3c-.08,0-.15-.06-.15-.14-.16-5.65-2.69-15.11-5.41-20.25-2.84-5.37-5.38-10.65-5.21-16.28,0-.08.08-.14.15-.14.08,0,.15.07.14.15-.17,5.56,2.35,10.8,5.17,16.13,2.74,5.17,5.29,14.69,5.44,20.38,0,.08-.06.15-.14.15h0Z"/><path class="cls-12" d="M94.17,126.88s-.03,0-.04,0c-.08-.02-.12-.11-.1-.18,2.36-7.65-.41-18.08-2.86-27.29-.81-3.06-1.58-5.94-2.12-8.57-.02-.08.04-.16.12-.17.08-.02.16.04.17.11.54,2.62,1.3,5.5,2.11,8.55,2.46,9.24,5.24,19.72,2.86,27.45-.02.06-.08.1-.14.1Z"/><path class="cls-12" d="M94.03,127.58s-.06,0-.08-.03c-.07-.05-.09-.14-.04-.2,3.68-5.43,4.58-13.98,4.79-18.59.05-1.05.08-2.11.12-3.17.16-4.85.33-9.87,1.8-14.55.02-.08.1-.12.18-.1.08.02.12.11.1.18-1.46,4.65-1.63,9.64-1.79,14.47-.04,1.06-.07,2.12-.12,3.17-.21,4.64-1.12,13.24-4.84,18.74-.03.04-.07.06-.12.06Z"/><path class="cls-12" d="M94.38,127.72s-.09-.02-.12-.06c-.05-.07-.04-.16.03-.21,5.01-3.75,9.29-11.03,10.66-18.14.92-4.75,1.34-10.14,1.75-15.35.16-2.02.31-3.92.49-5.77,0-.08.08-.14.16-.13.08,0,.14.08.13.16-.18,1.85-.33,3.75-.49,5.76-.41,5.22-.84,10.61-1.76,15.38-1.38,7.17-5.71,14.53-10.77,18.32-.03.02-.06.03-.09.03Z"/><path class="cls-12" d="M95.5,128s-.1-.02-.12-.07c-.04-.07-.02-.16.04-.2,5.24-3.37,10.61-9.62,12.77-14.85,2.44-5.91,3.24-12.35,3.67-17.31.16-1.79.69-4.13,1.3-6.83,1.44-6.35,3.24-14.25,1.7-21.19-.02-.08.03-.16.11-.18.08-.02.16.03.18.11,1.55,7.01-.25,14.94-1.7,21.32-.61,2.69-1.14,5.02-1.29,6.79-.43,4.98-1.24,11.46-3.69,17.4-2.21,5.36-7.51,11.53-12.88,14.98-.02.02-.05.02-.08.02Z"/><path class="cls-15" d="M94.24,91.29c-2.17,0-3.94-1.55-3.94-3.45,0-.16.13-.29.29-.29s.29.13.29.29c0,1.58,1.5,2.86,3.35,2.86s3.35-1.28,3.35-2.86c0-.16.13-.29.29-.29s.29.13.29.29c0,1.9-1.77,3.45-3.94,3.45Z"/><path class="cls-2" d="M93.54,84.36c-6.66,2.15-11.11,1.91-14.05.38.06,1.03.66,6.34,6.86,6.27,6.86-.07,7.42-5.18,7.42-5.18v-1.36c-.15-.07-.23-.11-.23-.11Z"/><path class="cls-2" d="M108.22,85.19c-2.08,1.29-4.53,1.56-6.82,1.37-3.32-.27-6.32-1.49-7.42-1.99v1.26s.56,5.11,7.42,5.18c5.56.06,6.62-4.21,6.82-5.83Z"/><path class="cls-12" d="M86.24,91.16c-6.21,0-6.83-5.34-6.89-6.41,0-.08.06-.15.14-.16,0,0,0,0,0,0,.08,0,.14.06.15.14.06,1.03.65,6.13,6.6,6.13.04,0,.07,0,.11,0,6.65-.07,7.26-4.85,7.28-5.05v-1.34c0-.08.07-.15.15-.15s.15.07.15.15v1.36c0,.07-.66,5.26-7.57,5.33-.04,0-.08,0-.11,0Z"/><path class="cls-12" d="M101.52,91.16s-.08,0-.11,0c-6.91-.07-7.56-5.26-7.57-5.31v-1.28c0-.08.07-.15.15-.15s.15.07.15.15v1.26c.02.19.63,4.97,7.28,5.04.04,0,.07,0,.11,0,5.28,0,6.35-3.98,6.56-5.7,0-.08.09-.14.16-.13.08,0,.14.08.13.16-.22,1.8-1.33,5.96-6.85,5.96Z"/><path class="cls-3" d="M68.47,77.22c-.32-1.05,1.65-18.77,4.8-26.65,3.15-7.88,7.35-13.97,14.39-18.8,7.04-4.83,15.44-6.83,20.27-7.56,4.83-.74,9.98-.32,10.72,1.05.74,1.37-6.51,4.1-6.83,7.77-.32,3.68-.11,8.09,2.94,15.44,3.05,7.35,4.76,26.72,4.13,29.24l-.84-.07s-1.26-19.36-23.85-19.36-24.62,19.5-24.62,19.5l-1.12-.56Z"/><path class="cls-1" d="M105.92,24.55c.72-.14,1.39-.25,2.01-.35.35-.05.7-.1,1.06-.14,2.23,1.23,4.27,2.82,6.03,4.68-.46.36-.92.75-1.34,1.15-2.18-2.29-4.84-4.14-7.75-5.34ZM98.6,37.62c5.34.88,10.44,3.24,14.63,6.69-.32-1-.58-1.94-.78-2.82-4.03-2.85-8.71-4.81-13.56-5.61-6.18-1.02-12.68-.16-18.43,2.35-.88,1.03-1.7,2.11-2.46,3.23,6.14-3.59,13.59-4.99,20.6-3.83ZM106.13,31.31c2.02.92,3.9,2.11,5.59,3.53.01-.62.05-1.23.1-1.8,0-.11.03-.23.05-.34-1.55-1.17-3.22-2.18-5-2.99-3.37-1.53-7.03-2.32-10.7-2.36-1.59.62-3.21,1.35-4.81,2.2,4.97-.94,10.16-.33,14.77,1.77ZM96.39,52.05c8.14.73,15.87,4.53,21.49,10.41-.13-.97-.28-1.94-.43-2.9-5.73-5.23-13.14-8.58-20.9-9.27-9.08-.81-18.32,2.03-25.43,7.68-.21.93-.4,1.88-.59,2.83,6.94-6.33,16.49-9.59,25.86-8.75ZM97.87,44.98c6.73.98,13.1,3.86,18.33,8.16-.25-1.02-.51-1.98-.78-2.85-5.09-3.68-11.04-6.15-17.29-7.06-7.96-1.16-16.19.24-23.33,3.86-.41.86-.81,1.74-1.18,2.65,7.26-4.25,15.92-5.98,24.26-4.76Z"/><path class="cls-16" d="M93.51,70.37c-2.28.05-4.64,12.11-3.73,13.1,2.04,2.23,6.7,2.04,8.36-.09.81-1.04-1.72-13.06-4.63-13Z"/><path class="cls-15" d="M81.89,72.76c-.1,0-.2-.05-.26-.15-.08-.14-.03-.32.11-.4,1.83-1.03,3.91-1.64,6.01-1.77.15,0,.3.11.31.28,0,.16-.11.3-.28.31-2.01.12-4,.71-5.76,1.7-.05.03-.1.04-.14.04Z"/><path class="cls-15" d="M106.04,72.68s-.1-.01-.14-.04c-1.76-.99-3.75-1.57-5.76-1.7-.16,0-.29-.15-.28-.31,0-.16.15-.29.31-.28,2.1.13,4.18.74,6.01,1.77.14.08.19.26.11.4-.05.1-.15.15-.26.15Z"/><ellipse class="cls-17" cx="81.45" cy="79" rx="3.57" ry="4.65" transform="translate(-27.69 110.04) rotate(-60)"/><path class="cls-17" d="M104.52,75.91c-2.23,1.28-3.23,3.71-2.24,5.42.99,1.71,3.59,2.05,5.82.77,2.23-1.28,3.23-3.71,2.24-5.42-.99-1.71-3.59-2.05-5.82-.77Z"/><path class="cls-2" d="M85.62,62.28c-3.36.49-7.28,3.78-5.95,5.53,1.43,1.89,7.63-.84,9.45-2.17,1.76-1.29.13-3.89-3.5-3.36Z"/><path class="cls-2" d="M102.25,62.28c3.36.49,7.28,3.78,5.95,5.53-1.43,1.89-7.63-.84-9.45-2.17-1.76-1.29-.13-3.89,3.5-3.36Z"/><path class="cls-8" d="M104.45,126.48c.13,1.38-.83,4.12-2.7,4.48s-4.03-.01-4.3.28c-.27.3-2.56,2.84-3.55,2.93-1.11.1-1.84-1.5-1.77-1.74,0,0-1.86-.06-1.45-2.17,0,0-.69-.67-.84-1.23-.18-.63.75-1.73.75-1.73,0,0-.93-.7-.81-1.37.13-.66,1.4-1.66,2.37-2.24.98-.58,1.4-2.4,4.27-2.09,1.98.21,7.7,1.34,8.03,4.87Z"/><path class="cls-18" d="M80.72,180.27s-.07,0-.1-.02c-1.75-.67-3.38-1.71-4.72-3.02-.12-.11-.12-.3,0-.42s.3-.12.42,0c1.28,1.25,2.84,2.25,4.52,2.89.15.06.23.23.17.38-.04.12-.16.19-.28.19Z"/><path class="cls-18" d="M111.67,180.25c-.1,0-.2-.05-.25-.14-.08-.14-.04-.32.1-.4,1.25-.76,2.29-1.82,3.02-3.08.08-.14.26-.19.4-.11.14.08.19.26.11.4-.78,1.35-1.9,2.49-3.23,3.29-.05.03-.1.04-.15.04Z"/><path class="cls-13" d="M84.81,125.29c-.23,1.39.38,4.33,1.98,5.01,1.6.67,3.52.64,3.73.99.21.35,2,3.31,2.86,3.56.96.28,1.73-1.24,1.68-1.49,0,0,1.63.25,1.44-1.98,0,0,.65-.57.84-1.12.21-.62-.51-1.88-.51-1.88,0,0,.87-.56.82-1.26-.05-.7-1.08-1.92-1.89-2.67s-1.02-2.68-3.55-2.83c-1.74-.1-6.83.12-7.41,3.66Z"/><path class="cls-6" d="M95,133.51c-.07,0-.13-.05-.14-.12-.27-1.33-.93-2.6-1.86-3.58-.93-.98-2.16-1.72-3.47-2.07-.08-.02-.13-.1-.1-.18.02-.08.1-.12.18-.1,1.36.36,2.64,1.13,3.6,2.15.98,1.04,1.65,2.33,1.93,3.73.02.08-.04.16-.12.17,0,0-.02,0-.03,0Z"/><path class="cls-6" d="M96.43,131.54c-.06,0-.12-.04-.14-.09-.54-1.41-1.16-3.01-2.3-4.14-.68-.67-1.76-1.17-2.55-1.48-.08-.03-.11-.11-.08-.19.03-.08.12-.11.19-.08.81.32,1.94.84,2.65,1.55,1.19,1.18,1.81,2.8,2.37,4.24.03.08,0,.16-.08.19-.02,0-.04,0-.05,0Z"/><path class="cls-6" d="M96.78,128.41c-.07,0-.13-.04-.14-.11-.5-1.91-2.33-3.63-4.28-4.01-.08-.02-.13-.09-.12-.17.01-.08.09-.13.17-.12,2.08.4,3.98,2.18,4.51,4.22.02.08-.03.16-.11.18-.01,0-.02,0-.04,0Z"/><path class="cls-6" d="M95.31,124.19s-.06-.01-.09-.03c-1.11-.87-2.23-1.31-3.84-1.52-.08-.01-.14-.08-.13-.16.01-.08.07-.14.16-.13,1.65.21,2.84.68,3.99,1.58.06.05.08.14.03.21-.03.04-.07.06-.12.06Z"/><path class="cls-11" d="M66.57,117.89c-.11,0-.21-.06-.26-.16-.07-.15-.01-.32.13-.4,1.34-.67,2.89-.93,4.37-.75.16.02.28.17.26.33-.02.16-.18.28-.33.26-1.37-.17-2.8.08-4.04.69-.04.02-.09.03-.13.03Z"/><path class="cls-11" d="M122.17,117.23c-.06,0-.12-.02-.17-.05-1.36-.95-3.12-1.27-4.73-.87-.16.04-.32-.06-.36-.21-.04-.16.06-.32.21-.36,1.77-.45,3.71-.09,5.21.96.13.09.17.28.07.41-.06.08-.15.13-.24.13Z"/><line class="cls-24" x1="106.79" y1="71.33" x2="104.56" y2="71.6"/><line class="cls-24" x1="80.99" y1="71.46" x2="83.22" y2="71.73"/><rect class="cls-5" x="50.77" y="188.55" width="33.24" height="4.63"/><polygon class="cls-5" points="84.01 188.55 50.77 188.55 51.47 188.03 83.31 188.03 84.01 188.55"/><polygon class="cls-10" points="84.01 188.55 50.77 188.55 51.47 188.03 83.31 188.03 84.01 188.55"/><polygon class="cls-5" points="84.01 193.18 83.31 193.7 51.47 193.7 50.77 193.18 84.01 193.18"/><polygon class="cls-20" points="84.01 193.18 83.31 193.7 51.47 193.7 50.77 193.18 84.01 193.18"/><g class="cls-22"><polygon class="cls-19" points="56.12 188.03 55.42 188.55 55.42 193.18 50.77 193.18 50.77 188.55 51.47 188.03 56.12 188.03"/><polygon class="cls-19" points="56.12 193.7 51.47 193.7 50.77 193.18 55.42 193.18 56.12 193.7"/></g><g class="cls-23"><polygon class="cls-9" points="83.31 188.03 78.66 188.03 79.36 188.55 79.36 188.55 79.36 193.18 84.01 193.18 84.01 188.55 83.31 188.03"/><polygon class="cls-9" points="84 193.19 83.31 193.7 78.66 193.7 79.36 193.19 84 193.19"/></g><rect class="cls-14" x="60.19" y="188.55" width="3.16" height="4.63"/><rect class="cls-5" x="47.68" y="182.88" width="33.24" height="4.63"/><polygon class="cls-5" points="80.93 182.88 47.68 182.88 48.38 182.37 80.22 182.37 80.93 182.88"/><polygon class="cls-10" points="80.93 182.88 47.68 182.88 48.38 182.37 80.22 182.37 80.93 182.88"/><polygon class="cls-5" points="80.93 187.51 80.22 188.03 48.38 188.03 47.68 187.51 80.93 187.51"/><polygon class="cls-20" points="80.93 187.51 80.22 188.03 48.38 188.03 47.68 187.51 80.93 187.51"/><g class="cls-22"><polygon class="cls-19" points="53.04 182.37 52.34 182.88 52.34 187.51 47.68 187.51 47.68 182.88 48.38 182.37 53.04 182.37"/><polygon class="cls-19" points="53.04 188.03 48.38 188.03 47.68 187.52 52.34 187.52 53.04 188.03"/></g><g class="cls-23"><polygon class="cls-9" points="80.23 182.37 75.57 182.37 76.27 182.88 76.28 182.88 76.28 187.51 80.93 187.51 80.93 182.88 80.23 182.37"/><polygon class="cls-9" points="80.92 187.52 80.22 188.03 75.58 188.03 76.27 187.52 80.92 187.52"/></g><rect class="cls-14" x="57.11" y="182.88" width="3.16" height="4.63"/><rect class="cls-5" x="48.56" y="177.21" width="33.24" height="4.63"/><polygon class="cls-5" points="81.81 177.21 48.56 177.21 49.27 176.7 81.1 176.7 81.81 177.21"/><polygon class="cls-10" points="81.81 177.21 48.56 177.21 49.27 176.7 81.1 176.7 81.81 177.21"/><polygon class="cls-5" points="81.81 181.85 81.1 182.36 49.27 182.36 48.56 181.85 81.81 181.85"/><polygon class="cls-20" points="81.81 181.85 81.1 182.36 49.27 182.36 48.56 181.85 81.81 181.85"/><g class="cls-22"><polygon class="cls-19" points="53.92 176.7 53.22 177.21 53.22 181.85 48.56 181.85 48.56 177.21 49.27 176.7 53.92 176.7"/><polygon class="cls-19" points="53.92 182.37 49.27 182.37 48.56 181.85 53.22 181.85 53.92 182.37"/></g><g class="cls-23"><polygon class="cls-9" points="81.11 176.7 76.45 176.7 77.15 177.21 77.16 177.21 77.16 181.85 81.81 181.85 81.81 177.21 81.11 176.7"/><polygon class="cls-9" points="81.8 181.85 81.1 182.36 76.46 182.36 77.15 181.85 81.8 181.85"/></g><rect class="cls-14" x="57.99" y="177.21" width="3.16" height="4.63"/></g></svg>