<svg width="395" height="88" viewBox="0 0 395 88" fill="none" xmlns="http://www.w3.org/2000/svg">
<path d="M68.1965 56.536C68.3672 57.816 68.7512 58.9893 69.3485 60.056C69.9458 61.1227 70.6925 62.0613 71.5885 62.872C72.4845 63.64 73.4872 64.2587 74.5965 64.728C75.7485 65.1547 76.9432 65.368 78.1805 65.368C80.9112 65.368 83.0658 64.856 84.6445 63.832C86.2658 62.808 87.5672 61.1013 88.5485 58.712L94.4365 61.336C92.9432 64.8347 90.8738 67.4587 88.2285 69.208C85.6258 70.9147 82.2765 71.768 78.1805 71.768C75.9192 71.768 73.7645 71.32 71.7165 70.424C69.7112 69.528 67.9618 68.312 66.4685 66.776C64.9752 65.24 63.7805 63.448 62.8845 61.4C62.0312 59.3093 61.6045 57.0907 61.6045 54.744C61.6045 52.3973 62.0312 50.2 62.8845 48.152C63.7805 46.104 64.9752 44.312 66.4685 42.776C67.9618 41.24 69.7112 40.024 71.7165 39.128C73.7645 38.232 75.9192 37.784 78.1805 37.784C80.4845 37.784 82.6392 38.232 84.6445 39.128C86.6925 40.024 88.4632 41.24 89.9565 42.776C91.4498 44.312 92.6232 46.104 93.4765 48.152C94.3725 50.2 94.8205 52.3973 94.8205 54.744C94.8205 55.0427 94.7992 55.3413 94.7565 55.64C94.7565 55.9387 94.7565 56.2373 94.7565 56.536H68.1965ZM87.9085 51.928C87.6098 50.8187 87.1405 49.7947 86.5005 48.856C85.9032 47.9173 85.1778 47.1067 84.3245 46.424C83.5138 45.7413 82.5752 45.208 81.5085 44.824C80.4845 44.3973 79.3752 44.184 78.1805 44.184C77.0285 44.184 75.9192 44.3973 74.8525 44.824C73.7858 45.208 72.8258 45.7413 71.9725 46.424C71.1618 47.1067 70.4365 47.9173 69.7965 48.856C69.1992 49.7947 68.7725 50.8187 68.5165 51.928H87.9085ZM102.996 25.688C104.19 25.688 105.214 26.136 106.068 27.032C106.964 27.8853 107.412 28.9093 107.412 30.104C107.412 31.3413 106.964 32.3867 106.068 33.24C105.214 34.0933 104.19 34.52 102.996 34.52C101.716 34.52 100.649 34.0933 99.7955 33.24C98.9422 32.3867 98.5155 31.3413 98.5155 30.104C98.5155 28.9093 98.9422 27.8853 99.7955 27.032C100.649 26.136 101.716 25.688 102.996 25.688ZM99.7315 38.68H106.196V71H99.7315V38.68ZM140.01 38.616H146.41V69.528C146.41 69.9973 146.367 70.7653 146.282 71.832C146.239 72.9413 146.026 74.1787 145.642 75.544C145.301 76.9093 144.746 78.3173 143.978 79.768C143.21 81.2613 142.101 82.6053 140.65 83.8C139.242 84.9947 137.45 85.976 135.274 86.744C133.141 87.5547 130.495 87.96 127.338 87.96C124.778 87.96 122.389 87.6613 120.17 87.064C117.994 86.4667 115.989 85.6987 114.154 84.76L116.458 78.744C118.079 79.64 119.807 80.3227 121.642 80.792C123.519 81.304 125.418 81.56 127.338 81.56C129.301 81.56 131.05 81.368 132.586 80.984C134.165 80.6 135.487 79.96 136.554 79.064C137.663 78.168 138.517 76.9307 139.114 75.352C139.711 73.816 140.01 71.832 140.01 69.4V66.776C138.559 68.3547 136.853 69.592 134.89 70.488C132.927 71.3413 130.815 71.768 128.554 71.768C126.25 71.768 124.095 71.32 122.09 70.424C120.085 69.528 118.314 68.312 116.778 66.776C115.285 65.24 114.09 63.448 113.194 61.4C112.341 59.352 111.914 57.1547 111.914 54.808C111.914 52.4613 112.341 50.264 113.194 48.216C114.09 46.1253 115.285 44.312 116.778 42.776C118.314 41.24 120.085 40.024 122.09 39.128C124.095 38.232 126.25 37.784 128.554 37.784C130.815 37.784 132.927 38.232 134.89 39.128C136.853 39.9813 138.559 41.1973 140.01 42.776V38.616ZM128.554 65.368C129.962 65.368 131.263 65.0907 132.458 64.536C133.695 63.9813 134.762 63.2347 135.658 62.296C136.597 61.3147 137.322 60.184 137.834 58.904C138.389 57.624 138.666 56.2587 138.666 54.808C138.666 53.3147 138.389 51.928 137.834 50.648C137.322 49.368 136.597 48.2587 135.658 47.32C134.762 46.3387 133.695 45.5707 132.458 45.016C131.263 44.4613 129.962 44.184 128.554 44.184C127.146 44.184 125.823 44.4613 124.586 45.016C123.349 45.5707 122.261 46.3387 121.322 47.32C120.383 48.2587 119.637 49.368 119.082 50.648C118.57 51.928 118.314 53.3147 118.314 54.808C118.314 56.2587 118.57 57.624 119.082 58.904C119.637 60.184 120.383 61.3147 121.322 62.296C122.261 63.2347 123.349 63.9813 124.586 64.536C125.823 65.0907 127.146 65.368 128.554 65.368ZM170.224 37.784C172.272 37.784 174.171 38.1467 175.92 38.872C177.669 39.5547 179.184 40.5147 180.464 41.752C181.744 42.9467 182.747 44.376 183.472 46.04C184.24 47.704 184.624 49.5173 184.624 51.48V71H178.16V53.848C178.16 52.2693 177.925 50.8613 177.456 49.624C177.029 48.3867 176.411 47.3627 175.6 46.552C174.789 45.6987 173.829 45.0587 172.72 44.632C171.611 44.1627 170.395 43.928 169.072 43.928C167.707 43.928 166.469 44.2053 165.36 44.76C164.251 45.272 163.291 45.9973 162.48 46.936C161.712 47.8747 161.115 48.984 160.688 50.264C160.261 51.544 160.048 52.952 160.048 54.488V71H153.584V23.384H160.048V42.52C160.603 41.7093 161.264 41.0267 162.032 40.472C162.843 39.8747 163.696 39.384 164.592 39C165.488 38.5733 166.405 38.2747 167.344 38.104C168.325 37.8907 169.285 37.784 170.224 37.784ZM208.808 37.784C211.069 37.784 213.202 38.232 215.208 39.128C217.256 40.024 219.026 41.24 220.52 42.776C222.013 44.312 223.186 46.104 224.04 48.152C224.936 50.2 225.384 52.3973 225.384 54.744C225.384 57.0907 224.936 59.3093 224.04 61.4C223.186 63.448 222.013 65.24 220.52 66.776C219.026 68.312 217.256 69.528 215.208 70.424C213.202 71.32 211.069 71.768 208.808 71.768C206.546 71.768 204.456 71.3413 202.536 70.488C200.616 69.6347 198.93 68.4613 197.48 66.968V71H191.08V23.32H197.48V42.584C198.93 41.0907 200.616 39.9173 202.536 39.064C204.456 38.2107 206.546 37.784 208.808 37.784ZM208.808 65.368C210.216 65.368 211.538 65.0907 212.776 64.536C214.013 63.9813 215.08 63.2347 215.976 62.296C216.914 61.3147 217.64 60.184 218.152 58.904C218.706 57.624 218.984 56.2373 218.984 54.744C218.984 53.2933 218.706 51.928 218.152 50.648C217.64 49.368 216.914 48.2587 215.976 47.32C215.08 46.3387 214.013 45.5707 212.776 45.016C211.538 44.4613 210.216 44.184 208.808 44.184C207.4 44.184 206.077 44.4613 204.84 45.016C203.602 45.5707 202.514 46.3387 201.576 47.32C200.637 48.2587 199.89 49.368 199.336 50.648C198.824 51.928 198.568 53.2933 198.568 54.744C198.568 56.2373 198.824 57.624 199.336 58.904C199.89 60.184 200.637 61.3147 201.576 62.296C202.514 63.2347 203.602 63.9813 204.84 64.536C206.077 65.0907 207.4 65.368 208.808 65.368ZM245.176 37.784C247.48 37.784 249.635 38.232 251.64 39.128C253.688 40.024 255.459 41.24 256.952 42.776C258.445 44.312 259.619 46.1253 260.472 48.216C261.368 50.264 261.816 52.4613 261.816 54.808C261.816 57.1547 261.368 59.352 260.472 61.4C259.619 63.448 258.445 65.24 256.952 66.776C255.459 68.312 253.688 69.528 251.64 70.424C249.635 71.32 247.501 71.768 245.24 71.768C242.936 71.768 240.76 71.32 238.712 70.424C236.707 69.528 234.957 68.312 233.464 66.776C231.971 65.24 230.776 63.448 229.88 61.4C229.027 59.352 228.6 57.1547 228.6 54.808C228.6 52.4613 229.027 50.264 229.88 48.216C230.776 46.1253 231.971 44.312 233.464 42.776C234.957 41.24 236.707 40.024 238.712 39.128C240.76 38.232 242.915 37.784 245.176 37.784ZM245.176 44.184C243.768 44.184 242.445 44.4613 241.208 45.016C240.013 45.5707 238.947 46.3387 238.008 47.32C237.069 48.2587 236.323 49.368 235.768 50.648C235.256 51.928 235 53.3147 235 54.808C235 56.2587 235.256 57.624 235.768 58.904C236.323 60.184 237.069 61.3147 238.008 62.296C238.947 63.2347 240.013 63.9813 241.208 64.536C242.445 65.0907 243.768 65.368 245.176 65.368C246.584 65.368 247.907 65.0907 249.144 64.536C250.424 63.9813 251.512 63.2347 252.408 62.296C253.347 61.3147 254.072 60.184 254.584 58.904C255.139 57.624 255.416 56.2587 255.416 54.808C255.416 53.3147 255.139 51.928 254.584 50.648C254.072 49.368 253.347 48.2587 252.408 47.32C251.512 46.3387 250.424 45.5707 249.144 45.016C247.907 44.4613 246.584 44.184 245.176 44.184ZM297.297 71H290.833V67.096C290.278 67.864 289.595 68.5467 288.785 69.144C288.017 69.7413 287.185 70.2533 286.289 70.68C285.393 71.064 284.454 71.3413 283.473 71.512C282.534 71.6827 281.595 71.768 280.657 71.768C278.609 71.768 276.71 71.4267 274.961 70.744C273.211 70.0187 271.697 69.0587 270.417 67.864C269.137 66.6267 268.113 65.176 267.345 63.512C266.619 61.848 266.257 60.0347 266.257 58.072V38.616H272.72V56.344C272.72 58.0507 272.955 59.5227 273.425 60.76C273.937 61.9547 274.577 62.936 275.345 63.704C276.155 64.472 277.073 65.048 278.097 65.432C279.163 65.7733 280.273 65.944 281.425 65.944C282.918 65.944 284.241 65.6667 285.393 65.112C286.587 64.5573 287.59 63.7893 288.401 62.808C289.211 61.8267 289.809 60.6747 290.193 59.352C290.619 58.0293 290.833 56.6213 290.833 55.128V38.616H297.297V71ZM322.186 37.976V44.44H318.026C317.13 44.44 316.276 44.568 315.466 44.824C314.698 45.08 313.994 45.4853 313.354 46.04C312.756 46.552 312.287 47.192 311.946 47.96C311.604 48.6853 311.434 49.5173 311.434 50.456V71H304.97V37.976H311.434V41.752C312.159 40.6 313.055 39.6827 314.122 39C315.231 38.3173 316.532 37.976 318.026 37.976H322.186ZM327.148 23.384H333.612V71H327.148V23.384ZM366.498 38.616H373.474L352.674 87.896H345.698L352.802 71H351.394L338.018 38.616H344.93L355.618 64.28L366.498 38.616Z" fill="white"/>
<path d="M4 23.0582L33.9952 4" stroke="white" stroke-width="8" stroke-miterlimit="10" stroke-linecap="round"/>
<path d="M63.9903 23.0582L33.9951 4" stroke="white" stroke-width="8" stroke-miterlimit="10" stroke-linecap="round"/>
<path d="M50.7627 68.0003V29.5151" stroke="white" stroke-width="8" stroke-miterlimit="10" stroke-linecap="round"/>
<path d="M17.228 68.0003V29.5151" stroke="white" stroke-width="8" stroke-miterlimit="10" stroke-linecap="round"/>
<path d="M17.228 29.5151L50.763 68.0003" stroke="white" stroke-width="8" stroke-miterlimit="10" stroke-linecap="round"/>
</svg>
